<?xml version="1.0" standalone="no"?>
<!DOCTYPE svg PUBLIC "-//W3C//DTD SVG 1.1//EN" "http://www.w3.org/Graphics/SVG/1.1/DTD/svg11.dtd" >
<svg>
<metadata>
Created by FontForge 20090914 at Wed Apr 14 18:13:41 2021
 By www-data
&#194;&#169; 2017 The Monotype Corporation. All Rights Reserved. 

Hebrew OpenType Layout logic copyright &#194;&#169; 2003 &#38; 2007, Ralph Hancock &#38; John Hudson. This layout logic for Biblical Hebrew is open source software under the MIT License; see embedded license description for details.
</metadata>
<defs>
<font id="Arial-ItalicMT" horiz-adv-x="1139" >
  <font-face 
    font-family="Arial"
    font-weight="400"
    font-style="italic"
    font-stretch="normal"
    units-per-em="2048"
    panose-1="2 11 6 4 2 2 2 9 2 4"
    ascent="1638"
    descent="-410"
    x-height="1062"
    cap-height="1466"
    bbox="-1059 -665 2783 2043"
    underline-thickness="150"
    underline-position="-142"
    slope="-12"
    unicode-range="U+0020-U+FFFC"
  />
<missing-glyph horiz-adv-x="1536" 
d="M256 0v1280h1024v-1280h-1024zM288 32h960v1216h-960v-1216z" />
    <glyph glyph-name="uniFB4F" unicode="&#x5d0;&#x200d;&#x5dc;" horiz-adv-x="1179" 
d="M1048 0h-236l-283 573c-69.333 -34 -121 -102.667 -155 -206l-121 -367h-198l121 367c56 170.667 150 286 282 346l-94 188h-188l120 565h190l-86 -405h120l239 -475c46 26.667 81.667 58.667 107 96c24 34.667 48.333 90 73 166l71 213h198l-71 -219
c-32.667 -102 -73.667 -183 -123 -243c-46 -57.333 -109 -107.333 -189 -150z" />
    <glyph glyph-name=".notdef" horiz-adv-x="1536" 
d="M256 0v1280h1024v-1280h-1024zM288 32h960v1216h-960v-1216z" />
    <glyph glyph-name="space" unicode=" " horiz-adv-x="569" 
 />
    <glyph glyph-name="space" unicode="&#xa0;" horiz-adv-x="569" 
 />
    <glyph glyph-name="exclam" unicode="!" horiz-adv-x="569" 
d="M229 370l111 796l63 300h219l-68 -325l-212 -771h-113zM115 0l43 205h204l-43 -205h-204z" />
    <glyph glyph-name="quotedbl" unicode="&#x22;" horiz-adv-x="727" 
d="M277 947l12 274l52 245h206l-53 -245l-105 -274h-112zM608 947l12 274l52 245h206l-53 -245l-105 -274h-112z" />
    <glyph glyph-name="numbersign" unicode="#" 
d="M177 -25l87 426h-169v149h199l74 363h-273v149h303l87 429h150l-87 -429h315l87 429h151l-87 -429h173v-149h-203l-75 -363h278v-149h-308l-87 -426h-150l86 426h-314l-87 -426h-150zM444 550h314l75 363h-315z" />
    <glyph glyph-name="dollar" unicode="$" 
d="M454 -13c-97.333 20 -178.334 69.3369 -243.001 148.004s-100 175 -106 289l182 11c6 -80 26.833 -145 62.5 -195s80.834 -84.667 135.501 -104l116 553c-78.667 34 -135.667 65.333 -171 94c-49.333 39.333 -87 85.666 -113 138.999s-39 108 -39 164
c0 105.333 43 198.5 129 279.5s192.667 121.5 320 121.5c4 0 17.333 -0.333008 40 -1l16 78h100l-19 -91c90.667 -22.667 162 -63.834 214 -123.501s83.667 -138.834 95 -237.501l-173 -9c-9.33301 59.333 -27 106.666 -53 141.999s-64 61.666 -114 78.999l-105 -503
c134.667 -55.333 227.167 -115.666 277.5 -180.999s75.5 -138 75.5 -218c0 -76 -22.5 -152 -67.5 -228s-104.5 -131.667 -178.5 -167s-159.333 -53 -256 -53c-6.66699 0 -16 0.333008 -28 1l-36 -171h-99zM635.999 861.004l101 480.001c-51.333 2 -99 -7.16699 -143 -27.5
s-78 -49.833 -102 -88.5s-36 -81 -36 -127c0 -50.667 12.5 -94.334 37.5 -131.001s72.5 -72 142.5 -106zM691.999 650.005l-111 -531c90 -3.33301 165.667 23.5 227 80.5s92 124.833 92 203.5c0 52 -14 97 -42 135s-83.333 75.333 -166 112z" />
    <glyph glyph-name="percent" unicode="%" horiz-adv-x="1821" 
d="M286 -54l1211 1545h164l-1206 -1545h-169zM199 1015c0 27.333 6.16602 69.3301 18.499 125.997s30.5 107.334 54.5 152.001s50.667 80.334 80 107.001s61.333 46.334 96 59.001s74 19 118 19c94 0 165.167 -23.833 213.5 -71.5s72.5 -117.5 72.5 -209.5
c0 -76.667 -16.167 -157.667 -48.5 -243s-76.666 -147.833 -132.999 -187.5s-123.833 -59.5 -202.5 -59.5c-87.333 0 -154 24.833 -200 74.5s-69 127.5 -69 233.5zM352.999 981.997c0 -56 10.5029 -95.668 31.5029 -119.001s49.167 -35 84.5 -35
c42 0 80.167 16.167 114.5 48.5s61.333 84.5 81 156.5s29.5 133.667 29.5 185c0 44.667 -11.333 79 -34 103s-52.334 36 -89.001 36c-38.667 0 -74.334 -15.5 -107.001 -46.5s-59.334 -80.167 -80.001 -147.5s-31 -127.666 -31 -180.999zM1093 253.996
c0 27.333 6.16602 69.3301 18.499 125.997s30.5 107.334 54.5 152.001s50.667 80.334 80 107.001s61.333 46.334 96 59.001s74 19 118 19c94 0 165.167 -23.833 213.5 -71.5s72.5 -117.5 72.5 -209.5c0 -76.667 -16.167 -157.667 -48.5 -243
s-76.666 -147.833 -132.999 -187.5s-123.833 -59.5 -202.5 -59.5c-87.333 0 -154 24.667 -200 74s-69 127.333 -69 234zM1247 219.993c0 -55.333 10.5029 -94.833 31.5029 -118.5s49.167 -35.5 84.5 -35.5c42 0 80 16.167 114 48.5s61 84.333 81 156s30 133.5 30 185.5
c0 45.333 -11.333 80 -34 104s-52.334 36 -89.001 36c-38.667 0 -74.334 -15.5 -107.001 -46.5s-59.334 -80.167 -80.001 -147.5s-31 -128 -31 -182z" />
    <glyph glyph-name="ampersand" unicode="&#x26;" horiz-adv-x="1366" 
d="M1016 143c-83.333 -68 -154.665 -114.166 -213.998 -138.499s-125 -36.5 -197 -36.5c-133.333 0 -240.666 39.167 -321.999 117.5s-122 176.833 -122 295.5c0 77.333 15.167 145.666 45.5 204.999s75.5 113 135.5 161c46 36 114 74.333 204 115
c-34.667 76.667 -55.667 128 -63 154c-9.33301 37.333 -14 77.333 -14 120c0 56 15.667 112.833 47 170.5s75.666 102.834 132.999 135.501s119.666 49 186.999 49c94 0 169.833 -27.333 227.5 -82s86.5 -121 86.5 -199c0 -66 -24.667 -131.5 -74 -196.5
s-146.333 -133.833 -291 -206.5c87.333 -158 171.333 -287.667 252 -389c48.667 59.333 95 129 139 209l158 -81c-44 -92.667 -105 -183.334 -183 -272.001c43.333 -55.333 99.666 -122 168.999 -200l-136 -109c-68 58 -124 117.333 -168 178zM719.001 942.001
c98 50 168.001 101.333 210.001 154c29.333 36 44 72.667 44 110c0 39.333 -13.5 72.5 -40.5 99.5s-59.833 40.5 -98.5 40.5c-46.667 0 -87.834 -18.833 -123.501 -56.5s-53.5 -82.5 -53.5 -134.5c0 -63.333 20.667 -134.333 62 -213zM911.002 282.001
c-124.667 163.333 -221.668 309.667 -291.001 439c-90.667 -42.667 -155.334 -84 -194.001 -124c-54 -56 -81 -121 -81 -195c0 -76 25.833 -140.167 77.5 -192.5s114.834 -78.5 189.501 -78.5c100.667 0 200.334 50.333 299.001 151z" />
    <glyph glyph-name="quotesingle" unicode="'" horiz-adv-x="391" 
d="M260 947l12 274l52 245h206l-53 -245l-105 -274h-112z" />
    <glyph glyph-name="parenleft" unicode="(" horiz-adv-x="682" 
d="M330 -431c-104.667 229.333 -157 464.999 -157 706.999c0 161.333 21.167 311.5 63.5 450.5s106.833 276.5 193.5 412.5c57.333 90.667 149 208 275 352h141c-78 -83.333 -160.5 -200.666 -247.5 -351.999s-150.167 -300 -189.5 -446s-59 -292.667 -59 -440
c0 -220 38.333 -448 115 -684h-135z" />
    <glyph glyph-name="parenright" unicode=")" horiz-adv-x="682" 
d="M406 1491c105.333 -229.333 158.001 -464.666 158.001 -705.999c0 -162 -21.167 -312.333 -63.5 -451s-106.833 -276.334 -193.5 -413.001c-58 -90.667 -149.667 -208 -275 -352h-141c77.333 84 159.666 201.667 246.999 353s150.5 299.833 189.5 445.5
s58.5 292.5 58.5 440.5c0 220 -38.333 447.667 -115 683h135z" />
    <glyph glyph-name="asterisk" unicode="*" horiz-adv-x="797" 
d="M236 1197l46.001 141.997c106 -37.333 183 -69.666 231 -96.999c-12.667 120.667 -19.334 203.667 -20.001 249h145c-2 -66 -9.66699 -148.667 -23 -248c68.667 34.667 147.334 66.667 236.001 96l46 -142c-84.667 -28 -167.667 -46.667 -249 -56
c40.667 -35.333 98 -98.333 172 -189l-120 -85c-38.667 52.667 -84.334 124.334 -137.001 215.001c-49.333 -94 -92.666 -165.667 -129.999 -215l-118 85c77.333 95.333 132.666 158.333 165.999 189c-86 16.667 -167.667 35.334 -245 56.001z" />
    <glyph glyph-name="plus" unicode="+" horiz-adv-x="1196" 
d="M583 237v402h-399v168h399v399h170v-399h399v-168h-399v-402h-170z" />
    <glyph glyph-name="comma" unicode="," horiz-adv-x="569" 
d="M111 0l43.0029 205h206l-37 -179c-22.667 -107.333 -57.834 -186 -105.501 -236s-103.834 -78.667 -168.501 -86l17 79c79.333 22 131.666 94.333 156.999 217h-112z" />
    <glyph glyph-name="hyphen" unicode="-" horiz-adv-x="682" 
d="M95 440l38 181h552l-37 -181h-553z" />
    <glyph glyph-name="hyphen" unicode="&#xad;" horiz-adv-x="682" 
d="M95 440l38 181h552l-37 -181h-553z" />
    <glyph glyph-name="period" unicode="." horiz-adv-x="569" 
d="M118 0l43 205h205l-44 -205h-204z" />
    <glyph glyph-name="slash" unicode="/" horiz-adv-x="569" 
d="M-104 -24l788 1515h157l-788 -1515h-157z" />
    <glyph glyph-name="zero" unicode="0" 
d="M145 481c0 124 18.499 250 55.499 378s78.167 230.333 123.5 307s92.333 136.667 141 180s96.5 75.166 143.5 95.499s99.167 30.5 156.5 30.5c112 0 205.5 -41.667 280.5 -125s112.5 -203.666 112.5 -360.999c0 -162 -26 -322.333 -78 -481
c-61.333 -188 -146.666 -329 -255.999 -423c-84 -71.333 -179.667 -107 -287 -107c-110 0 -202.833 43.167 -278.5 129.5s-113.5 211.833 -113.5 376.5zM319.999 435c0 -90 14.999 -160.33 44.999 -210.997c40.667 -70 101 -105 181 -105c70 0 133.667 31.667 191 95
c82.667 89.333 144.834 220.166 186.501 392.499s62.5 313.166 62.5 422.499c0 105.333 -20.167 181.333 -60.5 228s-93.5 70 -159.5 70c-48 0 -92.833 -12.333 -134.5 -37s-81.5 -67 -119.5 -127c-54 -84.667 -101 -211.334 -141 -380.001c-34 -144 -51 -260 -51 -348z" />
    <glyph glyph-name="one" unicode="1" 
d="M493 0l232 1107c-100 -78.667 -240.667 -141.667 -422 -189l34 164c90 36 178.833 83 266.5 141s153.5 108.667 197.5 152c26.667 26.667 52 59 76 97h105l-307 -1472h-182z" />
    <glyph glyph-name="two" unicode="2" 
d="M120 0c18.667 87.333 44.498 160.502 77.498 219.502s76.833 115 131.5 168s160 141.833 316 266.5c94.667 75.333 159.334 131 194.001 167c50 52 86.333 103 109 153c15.333 34 23 71 23 111c0 67.333 -23.833 124.5 -71.5 171.5s-106.167 70.5 -175.5 70.5
c-68.667 0 -128.667 -23.833 -180 -71.5s-88 -124.167 -110 -229.5l-177 26c17.333 130 67.833 232.5 151.5 307.5s187.834 112.5 312.501 112.5c83.333 0 158.833 -17.333 226.5 -52s118.5 -83.334 152.5 -146.001s51 -127.334 51 -194.001
c0 -97.333 -34.667 -191 -104 -281c-42.667 -56 -168 -166.333 -376 -331c-89.333 -70.667 -155.833 -128.667 -199.5 -174s-76.5 -88 -98.5 -128h656l-35 -166h-874z" />
    <glyph glyph-name="three" unicode="3" 
d="M112 384l176.004 22c13.333 -102.667 42.833 -176.167 88.5 -220.5s105.5 -66.5 179.5 -66.5c89.333 0 166.5 32 231.5 96s97.5 137.333 97.5 220c0 72 -24.333 131.5 -73 178.5s-114 70.5 -196 70.5c-9.33301 0 -28.666 -1.33301 -57.999 -4l31 151
c17.333 -2.66699 34 -4 50 -4c103.333 0 182.833 25.167 238.5 75.5s83.5 112.166 83.5 185.499c0 67.333 -22.833 124 -68.5 170s-101.5 69 -167.5 69c-64.667 0 -122.834 -23.5 -174.501 -70.5s-84.834 -113.5 -99.501 -199.5l-178 36
c29.333 120.667 85.666 214 168.999 280s182 99 296 99c120 0 217.167 -36.333 291.5 -109s111.5 -162 111.5 -268c0 -77.333 -20.167 -144.833 -60.5 -202.5s-100.833 -105.5 -181.5 -143.5c57.333 -34 100.166 -75 128.499 -123s42.5 -103 42.5 -165
c0 -131.333 -49.167 -245.166 -147.5 -341.499s-215.833 -144.5 -352.5 -144.5c-132.667 0 -239.834 37.167 -321.501 111.5s-127.167 173.5 -136.5 297.5z" />
    <glyph glyph-name="four" unicode="4" 
d="M612 0l79 374h-598l38 179l821 913h148l-195 -932h206l-33 -160h-206l-79 -374h-181zM724 534l128 612l-546 -612h418z" />
    <glyph glyph-name="five" unicode="5" 
d="M143 419l184 18c-1.33301 -26 -2 -41.667 -2 -47c0 -44 11.167 -88.333 33.5 -133s52.666 -78.834 90.999 -102.501s78.833 -35.5 121.5 -35.5c56 0 113 19.333 171 58s105 95 141 169s54 147.333 54 220c0 82 -24.167 147.667 -72.5 197s-111.833 74 -190.5 74
c-52.667 0 -102.5 -12.667 -149.5 -38s-90.833 -63.333 -131.5 -114l-158 11l221 750h716l-35 -166h-557l-110 -373c41.333 30 83.833 52.5 127.5 67.5s88.5 22.5 134.5 22.5c112 0 204 -37 276 -111s108 -175.333 108 -304c0 -112.667 -24.667 -216.5 -74 -311.5
s-117.166 -168 -203.499 -219s-179.5 -76.5 -279.5 -76.5c-84 0 -158.333 19 -223 57s-113.167 90.333 -145.5 157s-48.5 133.334 -48.5 200.001c0 6.66699 0.333008 16.667 1 30z" />
    <glyph glyph-name="six" unicode="6" 
d="M412 850c50.667 42 101.168 73.502 151.501 94.502s100.166 31.5 149.499 31.5c111.333 0 203.333 -38 276 -114s109 -178.333 109 -307c0 -166 -54 -308.333 -162 -427c-93.333 -102 -206.666 -153 -339.999 -153c-121.333 0 -222.5 44.5 -303.5 133.5
s-121.5 215.833 -121.5 380.5c0 147.333 26 299.666 78 456.999c40 120.667 89.5 220.167 148.5 298.5s121.667 135.833 188 172.5s141.166 55 224.499 55c100 0 181.667 -31.167 245 -93.5s99.333 -151.5 108 -267.5l-168 -16
c-9.33301 79.333 -31.833 136.666 -67.5 171.999s-79.167 53 -130.5 53c-54 0 -108.333 -21 -163 -63s-101.667 -104.167 -141 -186.5s-66.333 -155.833 -81 -220.5zM349.001 412.002c0 -82.667 25.667 -152.167 77 -208.5s109.333 -84.5 174 -84.5
c45.333 0 93.333 17.167 144 51.5s93.667 86.5 129 156.5s53 139.667 53 209c0 89.333 -24.5 160.833 -73.5 214.5s-108.167 80.5 -177.5 80.5c-80 0 -154.333 -39.167 -223 -117.5s-103 -178.833 -103 -301.5z" />
    <glyph glyph-name="seven" unicode="7" 
d="M297 0c16 98.667 50.001 217.333 102.001 356c62 167.333 143.333 333.5 244 498.5s212.667 306.833 336 425.5h-731l35 166h936l-34 -166c-158.667 -139.333 -297.334 -319 -416.001 -539c-138 -254 -232.333 -501 -283 -741h-189z" />
    <glyph glyph-name="eight" unicode="8" 
d="M462 806c-54.667 30 -95.666 68.499 -122.999 115.499s-41 97.5 -41 151.5c0 88.667 32 170.667 96 246c85.333 102 201 153 347 153c128.667 0 230 -34.5 304 -103.5s111 -153.5 111 -253.5c0 -71.333 -20 -135.666 -60 -192.999s-102.667 -103 -188 -137
c58.667 -36.667 100.667 -75.667 126 -117c32.667 -54 49 -117 49 -189c0 -131.333 -46.5 -248.333 -139.5 -351s-216.833 -154 -371.5 -154c-123.333 0 -224 38 -302 114s-117 171 -117 285c0 107.333 27.667 199.5 83 276.5s130.666 129.167 225.999 156.5zM476.001 1065
c0 -62.667 20.167 -113.166 60.5 -151.499s95.833 -57.5 166.5 -57.5c82.667 0 149.834 25.167 201.501 75.5s77.5 112.166 77.5 185.499c0 62 -20.167 112.5 -60.5 151.5s-95.833 58.5 -166.5 58.5c-53.333 0 -102.333 -12.333 -147 -37s-77.834 -58.167 -99.501 -100.5
s-32.5 -83.833 -32.5 -124.5zM335.001 358c0 -40.667 9.83301 -79.667 29.5 -117s49.5 -67 89.5 -89s85.667 -33 137 -33c98 0 177.333 46 238 138c48 72 72 149.667 72 233c0 68 -22.167 123.667 -66.5 167s-102.5 65 -174.5 65c-90.667 0 -167.5 -33.667 -230.5 -101
s-94.5 -155 -94.5 -263z" />
    <glyph glyph-name="nine" unicode="9" 
d="M138 336l170.001 16.999c11.333 -82 34.666 -140.333 69.999 -175s77.333 -52 126 -52c69.333 0 133.666 30 192.999 90c87.333 88 151.666 214.333 192.999 379c-60.667 -45.333 -114.5 -77.666 -161.5 -96.999s-95.167 -29 -144.5 -29c-89.333 0 -169.333 30 -240 90
c-93.333 78 -140 190 -140 336c0 165.333 54 307 162 425c92.667 101.333 206.334 152 341.001 152c121.333 0 222 -44.833 302 -134.5s120 -216.5 120 -380.5c0 -159.333 -26.667 -316.666 -80 -471.999c-63.333 -182.667 -149 -317.334 -257 -404.001
c-88 -70.667 -187 -106 -297 -106c-101.333 0 -184.166 31.5 -248.499 94.5s-100.5 151.833 -108.5 266.5zM379.001 915.999c0 -92 24.499 -165.334 73.499 -220.001s107.167 -82 174.5 -82c50 0 99.667 17 149 51s91.666 84.833 126.999 152.5s53 137.167 53 208.5
c0 56 -11.667 108 -35 156s-55.166 84.167 -95.499 108.5s-81.166 36.5 -122.499 36.5c-40 0 -79.333 -10.667 -118 -32s-74.5 -52.666 -107.5 -93.999s-57.667 -88.833 -74 -142.5s-24.5 -101.167 -24.5 -142.5z" />
    <glyph glyph-name="colon" unicode=":" horiz-adv-x="569" 
d="M296 857l43 205h204l-42 -205h-205zM117 0l43 205h205l-44 -205h-204z" />
    <glyph glyph-name="semicolon" unicode=";" horiz-adv-x="569" 
d="M290 857l43 205h204l-43 -205h-204zM111 0l43.0029 205h206l-37 -179c-22.667 -107.333 -57.834 -186 -105.501 -236s-103.834 -78.667 -168.501 -86l17 79c79.333 22 131.666 94.333 156.999 217h-112z" />
    <glyph glyph-name="semicolon" unicode="&#x37e;" horiz-adv-x="569" 
d="M290 857l43 205h204l-43 -205h-204zM111 0l43.0029 205h206l-37 -179c-22.667 -107.333 -57.834 -186 -105.501 -236s-103.834 -78.667 -168.501 -86l17 79c79.333 22 131.666 94.333 156.999 217h-112z" />
    <glyph glyph-name="less" unicode="&#x3c;" horiz-adv-x="1196" 
d="M184 641v168l971 410v-179l-770 -316l770 -319v-179z" />
    <glyph glyph-name="equal" unicode="=" horiz-adv-x="1196" 
d="M1152 862h-968v168h968v-168zM1152 417h-968v168h968v-168z" />
    <glyph glyph-name="greater" unicode="&#x3e;" horiz-adv-x="1196" 
d="M1155 641l-971 -415v179l769 319l-769 316v179l971 -410v-168z" />
    <glyph glyph-name="question" unicode="?" 
d="M429 367c6.66699 60.667 20.335 114.502 41.002 161.502s52.667 95.167 96 144.5c25.333 28 85 80.167 179 156.5s154.833 138 182.5 185s41.5 90.5 41.5 130.5c0 53.333 -22.167 100.166 -66.5 140.499s-101.5 60.5 -171.5 60.5c-76 0 -139.167 -23.833 -189.5 -71.5
s-83.833 -127.5 -100.5 -239.5l-181 30c28.667 142.667 84.167 249.334 166.5 320.001s182.166 106 299.499 106c80.667 0 154.167 -16.333 220.5 -49s116.5 -77.334 150.5 -134.001s51 -115.334 51 -176.001c0 -74 -24.667 -144.667 -74 -212
c-36.667 -50.667 -119 -127 -247 -229c-87.333 -70.667 -144.333 -126 -171 -166s-45.334 -92.667 -56.001 -158h-171zM340.001 0.00195312l43 205h205l-43 -205h-205z" />
    <glyph glyph-name="at" unicode="@" horiz-adv-x="2079" 
d="M1161 163c-43.333 -50 -91.832 -90.167 -145.499 -120.5s-107.5 -45.5 -161.5 -45.5c-59.333 0 -117 17.333 -173 52s-101.5 88 -136.5 160s-52.5 151 -52.5 237c0 106 27.167 212.167 81.5 318.5s121.833 186.166 202.5 239.499s159 80 235 80
c58 0 113.333 -15.167 166 -45.5s98 -76.5 136 -138.5l34 155h179l-144 -671c-20 -93.333 -30 -145 -30 -155c0 -18 6.83301 -33.5 20.5 -46.5s30.167 -19.5 49.5 -19.5c35.333 0 81.666 20.333 138.999 61c76 53.333 136.167 124.833 180.5 214.5s66.5 182.167 66.5 277.5
c0 111.333 -28.5 215.333 -85.5 312s-142 174 -255 232s-237.833 87 -374.5 87c-156 0 -298.5 -36.5 -427.5 -109.5s-229 -177.667 -300 -314s-106.5 -282.5 -106.5 -438.5c0 -163.333 35.5 -304 106.5 -422s173.667 -205.167 308 -261.5s283.166 -84.5 446.499 -84.5
c174.667 0 321 29.333 439 88s206.333 130 265 214h181c-34 -70 -92.333 -141.333 -175 -214s-181 -130.167 -295 -172.5s-251.333 -63.5 -412 -63.5c-148 0 -284.5 19 -409.5 57s-231.5 95.167 -319.5 171.5s-154.333 164.166 -199 263.499c-56 126 -84 262 -84 408
c0 162.667 33.333 317.667 100 465c81.333 180.667 196.833 319 346.5 415s331.167 144 544.5 144c165.333 0 313.833 -33.833 445.5 -101.5s235.5 -168.5 311.5 -302.5c64.667 -115.333 97 -240.666 97 -375.999c0 -193.333 -68 -365 -204 -515
c-121.333 -134.667 -254 -202 -398 -202c-46 0 -83.167 7 -111.5 21s-49.166 34 -62.499 60c-8.66699 16.667 -15 45.334 -19 86.001zM677.001 434c0 -91.333 21.668 -162.333 65.001 -213s93 -76 149 -76c37.333 0 76.666 11.167 117.999 33.5s80.833 55.5 118.5 99.5
s68.5 99.833 92.5 167.5s36 135.5 36 203.5c0 90.667 -22.5 161 -67.5 211s-99.833 75 -164.5 75c-42.667 0 -82.834 -10.833 -120.501 -32.5s-74.167 -56.5 -109.5 -104.5s-63.666 -106.333 -84.999 -175s-32 -131.667 -32 -189z" />
    <glyph glyph-name="A" unicode="A" horiz-adv-x="1366" 
d="M-41 0l831 1466h231l242 -1466h-190l-71 422h-593l-235 -422h-215zM493 573h485l-57 368c-22 146 -35.667 267.667 -41 365c-33.333 -84 -82 -183.667 -146 -299z" />
    <glyph glyph-name="B" unicode="B" horiz-adv-x="1366" 
d="M89 0l306.999 1466h454c82.667 0 144 -3.33301 184 -10c65.333 -11.333 120.5 -31.166 165.5 -59.499s79.833 -67 104.5 -116s37 -103.167 37 -162.5c0 -80.667 -22.167 -151.667 -66.5 -213s-112.166 -108 -203.499 -140c79.333 -26 138.666 -65.167 177.999 -117.5
s59 -113.5 59 -183.5c0 -80.667 -23.167 -158 -69.5 -232s-107.666 -131.167 -183.999 -171.5s-161.5 -60.5 -255.5 -60.5h-710zM460.999 839.999h296.998c142 0 244.167 22.667 306.5 68s93.5 111.333 93.5 198c0 41.333 -9.66699 77 -29 107s-45.166 51.833 -77.499 65.5
s-93.166 20.5 -182.499 20.5h-312zM319.997 165.999l333.999 -0.00195312c88.667 0 148.334 3 179.001 9c62 10.667 112.333 28.834 151 54.501s69 59.5 91 101.5s33 86 33 132c0 68.667 -21.5 120.834 -64.5 156.501s-124.833 53.5 -245.5 53.5h-372z" />
    <glyph glyph-name="C" unicode="C" horiz-adv-x="1479" 
d="M1235 516l193.999 -27.001c-61.333 -169.333 -150.666 -297.333 -267.999 -384s-249 -130 -395 -130c-178 0 -319.167 54.333 -423.5 163s-156.5 264.334 -156.5 467.001c0 264 79.333 482.333 238 655c141.333 154 317 231 527 231
c155.333 0 281.166 -41.667 377.499 -125s152.166 -195.333 167.499 -336l-183 -17c-19.333 106 -59.166 185.167 -119.499 237.5s-138.166 78.5 -233.499 78.5c-179.333 0 -324.333 -79.667 -435 -239c-96 -137.333 -144 -300.333 -144 -489
c0 -150.667 37 -265.667 111 -345s170.333 -119 289 -119c101.333 0 193 33 275 99s141.667 159.333 179 280z" />
    <glyph glyph-name="D" unicode="D" horiz-adv-x="1479" 
d="M91 0l305.999 1466h442c106 0 187 -7.66699 243 -23c80 -20.667 148.333 -57.5 205 -110.5s99.334 -119.167 128.001 -198.5s43 -168.333 43 -267c0 -118 -17.833 -225.5 -53.5 -322.5s-82.334 -182.333 -140.001 -256s-118 -131.334 -181 -173.001
s-137.5 -72.5 -223.5 -92.5c-65.333 -15.333 -145.666 -23 -240.999 -23h-528zM321.999 166.001l232 -0.00292969c104.667 0 197.667 9.66699 279 29c50.667 12 94 29.667 130 53c47.333 30 90.333 69.667 129 119c50.667 65.333 91.167 139.833 121.5 223.5
s45.5 178.834 45.5 285.501c0 118.667 -20.667 209.834 -62 273.501s-94 105.834 -158 126.501c-47.333 15.333 -121 23 -221 23h-259z" />
    <glyph glyph-name="E" unicode="E" horiz-adv-x="1366" 
d="M92 0l307 1466h1058l-35 -167h-862l-96 -456h840l-35 -167h-840l-106 -510h923l-35 -166h-1119z" />
    <glyph glyph-name="F" unicode="F" horiz-adv-x="1251" 
d="M93 0l306 1466h953l-35 -167h-757l-97 -467h771l-35 -167h-771l-139 -665h-196z" />
    <glyph glyph-name="G" unicode="G" horiz-adv-x="1593" 
d="M839 578l34.999 165.997h642l-125 -597c-80.667 -50.667 -172.667 -92 -276 -124s-205 -48 -305 -48c-213.333 0 -372.666 64.333 -477.999 193c-88.667 108.667 -133 248.334 -133 419.001c0 176 38.833 336.167 116.5 480.5s175.667 251 294 320
s249.833 103.5 394.5 103.5c104 0 197.333 -18.833 280 -56.5s146 -88 190 -151s75.667 -145.167 95 -246.5l-192 -21c-20.667 100.667 -63.5 177.834 -128.5 231.501s-148.5 80.5 -250.5 80.5c-106 0 -205 -28.833 -297 -86.5s-165.5 -144.667 -220.5 -261
s-82.5 -248.5 -82.5 -396.5c0 -147.333 36.333 -258.666 109 -333.999s173 -113 301 -113c127.333 0 264.333 42 411 126l66 315h-446z" />
    <glyph glyph-name="H" unicode="H" horiz-adv-x="1479" 
d="M86 0l307 1466h195l-127 -609h760l127 609h196l-306 -1466h-196l144 691h-759l-145 -691h-196z" />
    <glyph glyph-name="I" unicode="I" horiz-adv-x="569" 
d="M117 0l307 1466h195l-306 -1466h-196z" />
    <glyph glyph-name="J" unicode="J" horiz-adv-x="1024" 
d="M83 427l181.999 13.0029c-10.667 -56.667 -16 -98.334 -16 -125.001c0 -54 16.833 -97.167 50.5 -129.5s80.5 -48.5 140.5 -48.5c43.333 0 81.5 9.83301 114.5 29.5s59.833 50.167 80.5 91.5c16 31.333 32.333 87.666 49 168.999l218 1039h195l-223 -1071
c-31.333 -150.667 -83.666 -258.334 -156.999 -323.001s-167 -97 -281 -97c-121.333 0 -213 28 -275 84s-93 134.667 -93 236c0 44.667 5 88.667 15 132z" />
    <glyph glyph-name="K" unicode="K" horiz-adv-x="1366" 
d="M91 0l306 1466h196l-147 -706l796 706h276l-681 -597l499 -869h-219l-423 743l-307 -267l-100 -476h-196z" />
    <glyph glyph-name="L" unicode="L" 
d="M82 0l306 1466h196l-271 -1300h761l-35 -166h-957z" />
    <glyph glyph-name="M" unicode="M" horiz-adv-x="1706" 
d="M90 0l306 1466h241l148 -950c19.333 -124.667 32 -244.334 38 -359.001c40.667 98.667 108.667 232.334 204 401.001l514 908h245l-306 -1466h-193l153 713c35.333 164.667 86 349.334 152 554.001c-42 -95.333 -94 -198 -156 -308l-546 -959h-189l-147 940
c-13.333 86 -23 186.333 -29 301c-16.667 -128.667 -33 -230.667 -49 -306l-195 -935h-191z" />
    <glyph glyph-name="N" unicode="N" horiz-adv-x="1479" 
d="M100 0l307.001 1466h190l247 -550c75.333 -168 135 -309.333 179 -424c25.333 -66.667 54.666 -156.667 87.999 -270c18 123.333 40.667 250.666 68 381.999l180 862h191l-306 -1466h-194l-364 847c-64.667 149.333 -115 281 -151 395
c-10 -95.333 -29.333 -212.333 -58 -351l-186 -891h-191z" />
    <glyph glyph-name="O" unicode="O" horiz-adv-x="1593" 
d="M187 614c0 261.333 75.499 472.833 226.499 634.5s334.167 242.5 549.5 242.5c182.667 0 331.5 -59.5 446.5 -178.5s172.5 -278.5 172.5 -478.5c0 -142.667 -29 -275 -87 -397c-43.333 -91.333 -98 -170.166 -164 -236.499s-136.667 -117.5 -212 -153.5
c-100 -48 -206 -72 -318 -72c-117.333 0 -224.166 28 -320.499 84s-169.333 134.167 -219 234.5s-74.5 207.166 -74.5 320.499zM379.999 604c0 -86 17.8311 -165.001 53.498 -237.001s88.834 -128.333 159.501 -169s145 -61 223 -61c75.333 0 147 17.833 215 53.5
s128.833 85.334 182.5 149.001s96 142 127 235s46.5 184.5 46.5 274.5c0 146 -40.833 262.333 -122.5 349s-182.5 130 -302.5 130c-153.333 0 -288.666 -65.5 -405.999 -196.5s-176 -306.833 -176 -527.5z" />
    <glyph glyph-name="P" unicode="P" horiz-adv-x="1366" 
d="M88 0l307.002 1466h612c106 0 185.5 -12.167 238.5 -36.5s96.833 -66 131.5 -125s52 -125.167 52 -198.5c0 -60.667 -12.333 -122.334 -37 -185.001s-55.834 -114.334 -93.501 -155.001s-75.834 -71.334 -114.501 -92.001s-80 -36 -124 -46c-94 -22 -189 -33 -285 -33
h-367l-124 -595h-196zM443.002 761.003l323 0.000976562c125.333 0 217.333 13.5 276 40.5s105.667 68.167 141 123.5s53 114 53 176c0 48 -9.33301 87.167 -28 117.5s-45 52.666 -79 66.999s-99.333 21.5 -196 21.5h-376z" />
    <glyph glyph-name="Q" unicode="Q" horiz-adv-x="1593" 
d="M1238 118c49.333 -58.667 116.001 -115.334 200.001 -170.001l-87 -116c-88.667 58 -168.334 128.333 -239.001 211c-99.333 -46.667 -194 -70 -284 -70c-72 0 -151 13.667 -237 41s-158 68.666 -216 123.999s-103.5 126.5 -136.5 213.5s-49.5 183.167 -49.5 288.5
c0 127.333 24.333 249.333 73 366c40.667 96 93.5 178.833 158.5 248.5s136.167 123.5 213.5 161.5c102 50 212.333 75 331 75c182.667 0 331.5 -59.5 446.5 -178.5s172.5 -278.5 172.5 -478.5c0 -147.333 -30.667 -283.166 -92 -407.499s-146 -227.166 -254 -308.499z
M1118 244c80.667 62.667 146 148.833 196 258.5s75 223.834 75 342.501c0 148 -40.667 265.5 -122 352.5s-181 130.5 -299 130.5c-98.667 0 -193.667 -28.833 -285 -86.5s-164.333 -142.167 -219 -253.5s-82 -232.666 -82 -363.999c0 -164.667 51.333 -292 154 -382
c80 -70 165.667 -105 257 -105c72.667 0 138 11.333 196 34c-60.667 55.333 -123 99.666 -187 132.999l71 122c43.333 -18.667 82.5 -40.834 117.5 -66.501s77.5 -64.167 127.5 -115.5z" />
    <glyph glyph-name="R" unicode="R" horiz-adv-x="1479" 
d="M96 0l307.001 1466h615c121.333 0 213.333 -10.167 276 -30.5s111.834 -58.5 147.501 -114.5s53.5 -126.667 53.5 -212c0 -119.333 -39 -218.333 -117 -297s-204 -129.667 -378 -153c53.333 -39.333 93.666 -78 120.999 -116c61.333 -86 110.666 -175 147.999 -267
l112 -276h-219l-105 273c-38 98.667 -81.333 184 -130 256c-33.333 50 -67.333 82.833 -102 98.5s-91 23.5 -169 23.5h-228l-136 -651h-196zM461.001 810l270.998 -0.000976562c125.333 0 207 1.66699 245 5c74 7.33301 134.667 24 182 50s84 61 110 105s39 91.333 39 142
c0 42.667 -9.66699 79.834 -29 111.501s-44.666 53.167 -75.999 64.5s-84.666 17 -159.999 17h-478z" />
    <glyph glyph-name="S" unicode="S" horiz-adv-x="1366" 
d="M144 474l191.998 18.001l-2 -51c0 -56.667 13 -108.5 39 -155.5s69 -83.333 129 -109s131.333 -38.5 214 -38.5c117.333 0 206.833 25.667 268.5 77s92.5 110 92.5 176c0 46 -16.333 88 -49 126c-33.333 37.333 -124.333 88 -273 152c-115.333 50 -194 88.333 -236 115
c-66 43.333 -114.667 90.5 -146 141.5s-47 109.167 -47 174.5c0 75.333 20.667 143.333 62 204s101.833 107 181.5 139s169.5 48 269.5 48c119.333 0 220 -20 302 -60s141.5 -93.333 178.5 -160s55.5 -130.334 55.5 -191.001c0 -6 -0.333008 -16 -1 -30l-189 -15
c0 41.333 -3.66699 73.666 -11 96.999c-13.333 40.667 -34 75 -62 103s-66.5 50.5 -115.5 67.5s-103.833 25.5 -164.5 25.5c-106.667 0 -189.667 -24 -249 -72c-45.333 -36.667 -68 -85.334 -68 -146.001c0 -36 9.33301 -68.167 28 -96.5s52.334 -56.166 101.001 -83.499
c34.667 -19.333 117 -57.666 247 -114.999c105.333 -46.667 178 -83.334 218 -110.001c53.333 -35.333 94.333 -78.166 123 -128.499s43 -107.5 43 -171.5c0 -79.333 -24.167 -152.5 -72.5 -219.5s-115.166 -118.833 -200.499 -155.5s-183 -55 -293 -55
c-166 0 -301.5 36.167 -406.5 108.5s-157.833 202.5 -158.5 390.5z" />
    <glyph glyph-name="T" unicode="T" horiz-adv-x="1251" 
d="M465 0l271 1299h-481l35 167h1154l-35 -167h-477l-271 -1299h-196z" />
    <glyph glyph-name="U" unicode="U" horiz-adv-x="1479" 
d="M406 1466l196.001 0.00195312l-188 -901c-15.333 -74.667 -23 -130 -23 -166c0 -78.667 31 -142 93 -190s140 -72 234 -72c74.667 0 144.167 17.167 208.5 51.5s115.166 84.833 152.499 151.5s71 173 101 319l169 807h196l-179 -860
c-30.667 -146.667 -71 -262.834 -121 -348.501s-119.333 -154.334 -208 -206.001s-191.667 -77.5 -309 -77.5c-110.667 0 -206.5 18.333 -287.5 55s-141.667 87.334 -182 152.001s-60.5 138 -60.5 220c0 51.333 13.667 139.666 41 264.999z" />
    <glyph glyph-name="V" unicode="V" horiz-adv-x="1366" 
d="M536 0l-281.998 1466h189l170 -874c31.333 -158.667 51.666 -286.667 60.999 -384c61.333 125.333 111.666 224.666 150.999 297.999l523 960h202l-804 -1466h-210z" />
    <glyph glyph-name="W" unicode="W" horiz-adv-x="1933" 
d="M346 0l-89.999 1466h199l34 -725c2 -34.667 5.33301 -128.667 10 -282c1.33301 -42.667 2 -72.667 2 -90c0 -11.333 -0.333008 -44.333 -1 -99c81.333 166.667 140 284 176 352l446 844h202l49 -857c5.33301 -98 9 -216 11 -354c12 34 33.333 84.667 64 152
c48.667 108.667 84.667 186.334 108 233.001l418 826h200l-746 -1466h-210l-49 888c-4.66699 76 -8.33398 169.333 -11.001 280c-40.667 -92.667 -74.667 -164.667 -102 -216l-508 -952h-202z" />
    <glyph glyph-name="X" unicode="X" horiz-adv-x="1366" 
d="M-65 0l700.001 741l-415 725h216l189 -332c50 -87.333 78.667 -138.333 86 -153c17.333 -32.667 36.333 -71.667 57 -117c49.333 66.667 125.666 154.334 228.999 263.001l322 339h256l-709 -757l402 -709h-213l-238 429c-23.333 42 -50.333 96 -81 162
c-36 -48.667 -80 -100.334 -132 -155.001l-409 -436h-260z" />
    <glyph glyph-name="Y" unicode="Y" horiz-adv-x="1366" 
d="M572 0l118.001 567l-451 899h210l216 -428c47.333 -93.333 93.333 -193.333 138 -300c49.333 90.667 116.666 189.667 201.999 297l344 431h234l-700 -914l-115 -552h-196z" />
    <glyph glyph-name="Z" unicode="Z" horiz-adv-x="1251" 
d="M50 0l18.999 147.001l734 877l152 184c30.667 37.333 60.334 71.666 89.001 102.999c-62 -7.33301 -105.333 -11 -130 -11l-48 1l-58 -1l-57 -1h-493l35 167h1011l-17 -153l-787 -935l-184 -217c29.333 4 48.333 6 57 6h799l-35 -167h-1087z" />
    <glyph glyph-name="bracketleft" unicode="[" horiz-adv-x="569" 
d="M13 -401l385 1867h403l-29 -139h-219l-332 -1589h221l-29 -139h-400z" />
    <glyph glyph-name="backslash" unicode="\" horiz-adv-x="569" 
d="M420 -24l-246 1515h140l246 -1515h-140z" />
    <glyph glyph-name="bracketright" unicode="]" horiz-adv-x="569" 
d="M280 -401h-400l29 139h221l332 1589h-220l29 139h403z" />
    <glyph glyph-name="asciicircum" unicode="^" horiz-adv-x="961" 
d="M329 690h-185l353 801h145l355 -801h-181l-247 597z" />
    <glyph glyph-name="underscore" unicode="_" 
d="M-130 -407v130h1193v-130h-1193z" />
    <glyph glyph-name="grave" unicode="`" horiz-adv-x="682" 
d="M493 1191l-195 275h220l116 -275h-141z" />
    <glyph glyph-name="a" unicode="a" 
d="M784 132c-62.667 -54 -123.002 -93.499 -181.002 -118.499s-120 -37.5 -186 -37.5c-98 0 -177 28.833 -237 86.5s-90 131.5 -90 221.5c0 59.333 13.5 111.833 40.5 157.5s62.833 82.334 107.5 110.001s99.334 47.5 164.001 59.5c40.667 8 117.834 14.333 231.501 19
s195.167 16.667 244.5 36c14 49.333 21 90.333 21 123c0 42 -15.333 75 -46 99c-42 33.333 -103.333 50 -184 50c-76 0 -138.167 -16.833 -186.5 -50.5s-83.5 -81.5 -105.5 -143.5l-183 16c37.333 105.333 96.5 186 177.5 242s183.167 84 306.5 84
c131.333 0 235.333 -31.333 312 -94c58.667 -46.667 88 -107.334 88 -182.001c0 -56.667 -8.33301 -122.334 -25 -197.001l-59 -264c-18.667 -84 -28 -152.333 -28 -205c0 -33.333 7.33301 -81.333 22 -144h-183c-10 34.667 -17 78.667 -21 132zM850.998 538.001
c-25.333 -10 -52.501 -17.6699 -81.501 -23.0029s-77.5 -11 -145.5 -17c-105.333 -9.33301 -179.666 -21.166 -222.999 -35.499s-76 -37.166 -98 -68.499s-33 -66 -33 -104c0 -50.667 17.5 -92.334 52.5 -125.001s84.833 -49 149.5 -49c60 0 117.667 15.833 173 47.5
s99 75.834 131 132.501s57 137.334 75 242.001z" />
    <glyph glyph-name="b" unicode="b" 
d="M68 0l306 1466h181l-109 -524c57.333 52.667 109.333 89.834 156 111.501s95.334 32.5 146.001 32.5c99.333 0 182.166 -37 248.499 -111s99.5 -181.667 99.5 -323c0 -94 -13.333 -180 -40 -258s-59.667 -143.5 -99 -196.5s-80 -95.333 -122 -127
s-85 -55.334 -129 -71.001s-86.333 -23.5 -127 -23.5c-70 0 -131.667 18.5 -185 55.5s-95 93.5 -125 169.5l-42 -201h-159zM336 436l-0.999023 -33.999c0 -90.667 21.667 -159.667 65 -207s97.333 -71 162 -71c63.333 0 121.5 22.167 174.5 66.5s96.5 113.5 130.5 207.5
s51 180.667 51 260c0 89.333 -21.5 158.666 -64.5 207.999s-96.167 74 -159.5 74c-65.333 0 -125.333 -25.167 -180 -75.5s-100.334 -127.833 -137.001 -232.5c-27.333 -78 -41 -143.333 -41 -196z" />
    <glyph glyph-name="c" unicode="c" horiz-adv-x="1024" 
d="M801 387l180.998 -18.999c-45.333 -132.667 -109.833 -231.167 -193.5 -295.5s-178.834 -96.5 -285.501 -96.5c-115.333 0 -208.833 37.333 -280.5 112s-107.5 179 -107.5 313c0 116 23 230 69 342s111.833 197.167 197.5 255.5s183.5 87.5 293.5 87.5
c114 0 204.333 -32.167 271 -96.5s100 -149.5 100 -255.5l-178 -12c-0.666992 67.333 -20.167 120 -58.5 158s-88.833 57 -151.5 57c-72.667 0 -135.667 -23 -189 -69s-95.166 -115.833 -125.499 -209.5s-45.5 -183.834 -45.5 -270.501c0 -90.667 20 -158.667 60 -204
s89.333 -68 148 -68s114.834 22.333 168.501 67s95.834 112.667 126.501 204z" />
    <glyph glyph-name="d" unicode="d" 
d="M784 154c-103.333 -118.667 -211.333 -177.999 -324 -177.999c-100.667 0 -184.5 37.167 -251.5 111.5s-100.5 182.166 -100.5 323.499c0 129.333 26.5 247.5 79.5 354.5s119.333 187.167 199 240.5s159.5 80 239.5 80c132 0 231.667 -63.667 299 -191l120 571h180
l-306 -1466h-167zM288 445.001c0 -74 7.33398 -132.335 22.001 -175.002s39.667 -78.167 75 -106.5s77.666 -42.5 126.999 -42.5c82 0 156.333 42.667 223 128c89.333 113.333 134 253.333 134 420c0 84 -22 149.667 -66 197s-99.333 71 -166 71
c-43.333 0 -82.833 -9.66699 -118.5 -29s-71 -52.166 -106 -98.499s-64.5 -105.166 -88.5 -176.499s-36 -134 -36 -188z" />
    <glyph glyph-name="e" unicode="e" 
d="M848 361l176.001 -18c-25.333 -87.333 -83.5 -170.333 -174.5 -249s-199.5 -118 -325.5 -118c-78.667 0 -150.834 18.167 -216.501 54.5s-115.667 89.166 -150 158.499s-51.5 148.333 -51.5 237c0 116 26.833 228.5 80.5 337.5s123.167 190 208.5 243
s177.666 79.5 276.999 79.5c126.667 0 227.834 -39.333 303.501 -118s113.5 -186 113.5 -322c0 -52 -4.66699 -105.333 -14 -160h-782c-2.66699 -20.667 -4 -39.334 -4 -56.001c0 -99.333 22.833 -175.166 68.5 -227.499s101.5 -78.5 167.5 -78.5c62 0 123 20.333 183 61
s106.667 99.334 140 176.001zM322.001 624l595.999 -0.000976562c0.666992 18.667 1 32 1 40c0 90.667 -22.667 160.167 -68 208.5s-103.666 72.5 -174.999 72.5c-77.333 0 -147.833 -26.667 -211.5 -80s-111.167 -133.666 -142.5 -240.999z" />
    <glyph glyph-name="f" unicode="f" horiz-adv-x="569" 
d="M93 0l192.997 922.001h-162l29 140h162l31 151c16 75.333 32.5 129.666 49.5 162.999s44.667 60.833 83 82.5s90.5 32.5 156.5 32.5c46 0 112.667 -9.66699 200 -29l-33 -158c-61.333 16 -112.666 24 -153.999 24c-35.333 0 -62.166 -8.83301 -80.499 -26.5
s-34.166 -59.5 -47.499 -125.5l-24 -114h202l-29 -140h-202l-193 -922h-181z" />
    <glyph glyph-name="g" unicode="g" 
d="M58 -96l183.001 -17c-1.33301 -41.333 3.66699 -72.333 15 -93s29.333 -36.667 54 -48c32.667 -14.667 75 -22 127 -22c109.333 0 188 28.333 236 85c31.333 38 60.333 120.667 87 248l18 86c-94 -95.333 -194 -143 -300 -143c-107.333 0 -197.166 39.5 -269.499 118.5
s-108.5 190.833 -108.5 335.5c0 119.333 28.5 229 85.5 329s124.833 175.5 203.5 226.5s159.667 76.5 243 76.5c139.333 0 246.666 -66 321.999 -198l36 174h166l-214 -1025c-23.333 -112.667 -54 -200.5 -92 -263.5s-90.833 -111.833 -158.5 -146.5
s-145.834 -52 -234.501 -52c-85.333 0 -158.833 11 -220.5 33s-107.667 54.167 -138 96.5s-45.5 90.833 -45.5 145.5c0 16.667 1.66699 34.667 5 54zM284.001 470c0 -72.667 6.99902 -127.333 20.999 -164c20 -51.333 48.5 -90.5 85.5 -117.5s78.167 -40.5 123.5 -40.5
c59.333 0 118.333 20.833 177 62.5s106.167 106.167 142.5 193.5s54.5 170.666 54.5 249.999c0 87.333 -24.167 156.833 -72.5 208.5s-108.166 77.5 -179.499 77.5c-44 0 -86.667 -11.833 -128 -35.5s-79.833 -59.667 -115.5 -108s-62.667 -106.166 -81 -173.499
s-27.5 -118.333 -27.5 -153z" />
    <glyph glyph-name="h" unicode="h" 
d="M68 0l305.999 1466h181l-117 -563c67.333 65.333 130 112.166 188 140.499s117.667 42.5 179 42.5c88 0 156.333 -23.167 205 -69.5s73 -107.5 73 -183.5c0 -37.333 -10.667 -106 -32 -206l-131 -627h-181l135 643c19.333 93.333 29 152 29 176c0 34.667 -12 63 -36 85
s-58.667 33 -104 33c-65.333 0 -127.666 -17.167 -186.999 -51.5s-105.833 -81.333 -139.5 -141s-64.5 -155.834 -92.5 -288.501l-95 -456h-181z" />
    <glyph glyph-name="i" unicode="i" horiz-adv-x="455" 
d="M325 1261l43 205h180l-43 -205h-180zM61 0l222 1062h181l-222 -1062h-181z" />
    <glyph glyph-name="j" unicode="j" horiz-adv-x="455" 
d="M325 1261l43 205h179l-43 -205h-179zM-248 -399l31.999 153.999c41.333 -11.333 78 -17 110 -17c38.667 0 69.5 12.833 92.5 38.5s46.833 96.834 71.5 213.501l223 1072h181l-230 -1105c-28.667 -138 -61.667 -232 -99 -282c-50 -66.667 -119.667 -100 -209 -100
c-47.333 0 -104.666 8.66699 -171.999 26z" />
    <glyph glyph-name="k" unicode="k" horiz-adv-x="1024" 
d="M70 0l307 1466h180l-190 -909l528 505h239l-453 -396l274 -666h-198l-212 545l-220 -190l-74 -355h-181z" />
    <glyph glyph-name="l" unicode="l" horiz-adv-x="455" 
d="M54 0l306 1466h181l-306 -1466h-181z" />
    <glyph glyph-name="m" unicode="m" horiz-adv-x="1706" 
d="M67 0l221.999 1062h181l-37 -175c67.333 75.333 127.5 127.333 180.5 156s110.5 43 172.5 43c66 0 121.167 -17.5 165.5 -52.5s73.5 -83.833 87.5 -146.5c54 66.667 110.833 116.5 170.5 149.5s122.5 49.5 188.5 49.5c88.667 0 155.167 -21 199.5 -63
s66.5 -101 66.5 -177c0 -32.667 -7.66699 -86.667 -23 -162l-143 -684h-181l146 702c12.667 57.333 19 98.333 19 123c0 34.667 -11 62 -33 82s-53 30 -93 30c-54 0 -109 -16.333 -165 -49s-99.5 -75.5 -130.5 -128.5s-58.167 -134.5 -81.5 -244.5l-108 -515h-181l150 717
c10.667 48.667 16 83.334 16 104.001c0 34.667 -10.833 62.667 -32.5 84s-49.834 32 -84.501 32c-51.333 0 -105.166 -16.333 -161.499 -49s-102.166 -78.167 -137.499 -136.5s-64.333 -141.5 -87 -249.5l-105 -502h-181z" />
    <glyph glyph-name="n" unicode="n" 
d="M68 0l222 1062h164l-39 -185c71.333 72.667 138 125.667 200 159s125.333 50 190 50c86 0 153.5 -23.333 202.5 -70s73.5 -109 73.5 -187c0 -39.333 -8.66699 -101.333 -26 -186l-135 -643h-181l141 673c14 65.333 21 113.666 21 144.999c0 35.333 -12.167 64 -36.5 86
s-59.5 33 -105.5 33c-92.667 0 -175.167 -33.333 -247.5 -100s-125.5 -181 -159.5 -343l-103 -494h-181z" />
    <glyph glyph-name="o" unicode="o" 
d="M100 403c0 207.333 61.002 378.999 183.002 514.999c100.667 112 232.667 168 396 168c128 0 231.167 -40 309.5 -120s117.5 -188 117.5 -324c0 -122 -24.667 -235.5 -74 -340.5s-119.5 -185.5 -210.5 -241.5s-186.833 -84 -287.5 -84
c-82.667 0 -157.834 17.667 -225.501 53s-119.334 85.333 -155.001 150s-53.5 139.334 -53.5 224.001zM281.002 420.999c0 -100 24.002 -175.833 72.002 -227.5s109 -77.5 183 -77.5c38.667 0 77 7.83301 115 23.5s73.333 39.5 106 71.5s60.5 68.5 83.5 109.5
s41.5 85.167 55.5 132.5c20.667 66 31 129.333 31 190c0 96 -24.167 170.5 -72.5 223.5s-109.166 79.5 -182.499 79.5c-56.667 0 -108.334 -13.5 -155.001 -40.5s-88.834 -66.5 -126.501 -118.5s-65.334 -112.5 -83.001 -181.5s-26.5 -130.5 -26.5 -184.5z" />
    <glyph glyph-name="p" unicode="p" 
d="M-21 -407l307 1469h167l-31 -148c62 64.667 117.5 109.5 166.5 134.5s100.833 37.5 155.5 37.5c101.333 0 185.333 -36.833 252 -110.5s100 -179.167 100 -316.5c0 -110.667 -18.333 -211.5 -55 -302.5s-81.667 -164.167 -135 -219.5s-107.333 -96 -162 -122
s-110.667 -39 -168 -39c-127.333 0 -226 64.667 -296 194l-120 -577h-181zM337 434c0 -79.333 5.66699 -134.334 17 -165.001c16.667 -43.333 44 -78.333 82 -105s82 -40 132 -40c104 0 188 58.5 252 175.5s96 236.5 96 358.5c0 90 -21.5 159.5 -64.5 208.5
s-96.5 73.5 -160.5 73.5c-46 0 -88.667 -12.167 -128 -36.5s-75.833 -60.666 -109.5 -108.999s-61.5 -107.5 -83.5 -177.5s-33 -131 -33 -183z" />
    <glyph glyph-name="q" unicode="q" 
d="M754 120c-103.333 -96 -202.332 -144.001 -296.999 -144.001c-98.667 0 -182 37.5 -250 112.5s-102 181.5 -102 319.5c0 132 25.833 251.333 77.5 358s117.667 186.667 198 240s163.166 80 248.499 80c64.667 0 123.5 -18.167 176.5 -54.5s95.833 -91.166 128.5 -164.499
l41 195h156l-306 -1469h-181zM284.001 431.999c0 -104.667 21.665 -182.168 64.998 -232.501s97.333 -75.5 162 -75.5c54.667 0 109.834 22.667 165.501 68s101.334 113.333 137.001 204s53.5 178.334 53.5 263.001c0 86.667 -22.333 154.667 -67 204
s-99.334 74 -164.001 74c-63.333 0 -118.666 -20.667 -165.999 -62c-62 -53.333 -110.667 -130.333 -146 -231c-26.667 -77.333 -40 -148 -40 -212z" />
    <glyph glyph-name="r" unicode="r" horiz-adv-x="682" 
d="M68 0l221.999 1062h160l-45 -217c54.667 82 108.167 142.667 160.5 182s105.833 59 160.5 59c36 0 80.333 -13 133 -39l-74 -168c-31.333 22.667 -65.666 34 -102.999 34c-63.333 0 -128.333 -35.333 -195 -106s-119 -197.667 -157 -381l-90 -426h-172z" />
    <glyph glyph-name="s" unicode="s" horiz-adv-x="1024" 
d="M85 363l181.003 10.999c0 -52 8 -96.333 24 -133s45.5 -66.667 88.5 -90s93.167 -35 150.5 -35c80 0 140 16 180 48s60 69.667 60 113c0 31.333 -12 61 -36 89c-24.667 28 -84.834 62.5 -180.501 103.5s-156.834 69.833 -183.501 86.5
c-44.667 27.333 -78.334 59.5 -101.001 96.5s-34 79.5 -34 127.5c0 84 33.333 156 100 216s160 90 280 90c133.333 0 234.833 -30.833 304.5 -92.5s105.834 -142.834 108.501 -243.501l-177 -12c-2.66699 64 -25.334 114.667 -68.001 152s-103 56 -181 56
c-62.667 0 -111.334 -14.333 -146.001 -43s-52 -59.667 -52 -93s15 -62.666 45 -87.999c20 -17.333 71.667 -44 155 -80c138.667 -60 226 -107.333 262 -142c57.333 -55.333 86 -122.666 86 -201.999c0 -52.667 -16.167 -104.334 -48.5 -155.001
s-81.666 -91.167 -147.999 -121.5s-144.5 -45.5 -234.5 -45.5c-122.667 0 -227 30.333 -313 91s-126.667 159.334 -122 296.001z" />
    <glyph glyph-name="t" unicode="t" horiz-adv-x="569" 
d="M491 147l-30 -148c-43.333 -11.333 -85.333 -17 -126 -17c-72 0 -129.333 17.667 -172 53c-32 26.667 -48 63 -48 109c0 23.333 8.66699 77 26 161l129 617h-143l29 140h143l55 261l207 125l-81 -386h178l-30 -140h-177l-123 -587
c-15.333 -74.667 -23 -119.334 -23 -134.001c0 -21.333 6.16699 -37.666 18.5 -48.999s32.5 -17 60.5 -17c40 0 75.667 4 107 12z" />
    <glyph glyph-name="u" unicode="u" 
d="M793 192c-127.333 -144 -257.666 -216.001 -390.999 -216.001c-82 0 -148.167 23.5 -198.5 70.5s-75.5 104.5 -75.5 172.5c0 44.667 11.333 121.334 34 230.001l128 613h181l-142 -679c-12 -56.667 -18 -100.667 -18 -132c0 -40 12.167 -71.167 36.5 -93.5
s60.166 -33.5 107.499 -33.5c50.667 0 100.167 12.333 148.5 37s90 58 125 100s63.5 91.667 85.5 149c14.667 36.667 31.667 101 51 193l96 459h181l-222 -1062h-167z" />
    <glyph glyph-name="v" unicode="v" horiz-adv-x="1024" 
d="M336 0l-174 1062h176l91 -585c10 -64 22.333 -168.333 37 -313c34.667 75.333 79 161.666 133 258.999l355 639h191l-608 -1062h-201z" />
    <glyph glyph-name="w" unicode="w" horiz-adv-x="1479" 
d="M270 0l-110.999 1062h174l48 -477l19 -268c1.33301 -20 3.33301 -60.333 6 -121c20 68 37 120.167 51 156.5s36.333 88.166 67 155.499l253 554h197l35 -531c5.33301 -80.667 8.66602 -188.334 9.99902 -323.001c33.333 89.333 87.666 213.333 162.999 372l228 482h181
l-519 -1062h-188l-40 623c-2.66699 38.667 -4.66699 114 -6 226c-27.333 -71.333 -59.666 -148.333 -96.999 -231l-281 -618h-190z" />
    <glyph glyph-name="x" unicode="x" horiz-adv-x="1024" 
d="M-3 0l462.001 539.001l-265 523h200l90 -189c33.333 -70.667 63.333 -138.334 90 -203.001l306 392h221l-446 -537l268 -525h-200l-106 216c-22.667 46 -48.334 103 -77.001 171l-316 -387h-227z" />
    <glyph glyph-name="y" unicode="y" horiz-adv-x="1024" 
d="M0 -410l11 170c37.333 -10.667 73.666 -16 108.999 -16c36.667 0 66.334 8.33301 89.001 25c29.333 22 61.333 63.333 96 124l58 104l-177 1065h178l80 -537c16 -106 29.667 -212 41 -318l475 855h189l-677 -1203c-65.333 -117.333 -123.333 -195 -174 -233
s-109 -57 -175 -57c-42 0 -83 7 -123 21z" />
    <glyph glyph-name="z" unicode="z" horiz-adv-x="1024" 
d="M40 0l29.001 140l571 643c40.667 45.333 86 92.333 136 141c-86 -8.66699 -147.667 -13 -185 -13h-395l32 151h821l-24 -114l-576 -647c-32.667 -36.667 -81.334 -87 -146.001 -151c100.667 6 169.667 9 207 9h418l-33 -159h-855z" />
    <glyph glyph-name="braceleft" unicode="{" horiz-adv-x="684" 
d="M142 612c51.333 1.33301 96.002 15 134.002 41s69 65.667 93 119c18.667 40.667 40.167 116.5 64.5 227.5s43.166 186.5 56.499 226.5c18 55.333 39.5 100.166 64.5 134.499s51.833 60.833 80.5 79.5s63.667 33 105 43c23.333 5.33301 62 8 116 8h56l-34 -157h-31
c-56.667 0 -97.5 -6.83301 -122.5 -20.5s-44.167 -35.334 -57.5 -65.001s-31 -94.167 -53 -193.5c-28 -132 -54 -227.167 -78 -285.5s-54.167 -105.666 -90.5 -141.999s-87.833 -68.833 -154.5 -97.5c48 -22 83.5 -51.833 106.5 -89.5s34.5 -87.5 34.5 -149.5
c0 -52 -15 -147 -45 -285c-21.333 -97.333 -32 -158.666 -32 -183.999s5 -45.333 15 -60c7.33301 -11.333 20.166 -20.166 38.499 -26.499s58.5 -9.5 120.5 -9.5l-34 -157h-55c-62.667 0 -106.667 4.33301 -132 13c-38.667 13.333 -69 35.833 -91 67.5s-33 73.5 -33 125.5
c0 45.333 15.333 140.666 46 285.999c23.333 110 35 184.333 35 223c0 53.333 -13.333 93.833 -40 121.5s-66 42.167 -118 43.5z" />
    <glyph glyph-name="bar" unicode="|" horiz-adv-x="532" 
d="M188 -431v1922h157v-1922h-157z" />
    <glyph glyph-name="braceright" unicode="}" horiz-adv-x="684" 
d="M633 612l-35 -163.002c-50.667 -1.33301 -95.167 -15 -133.5 -41s-68.166 -62.333 -89.499 -109s-44.166 -125.834 -68.499 -237.501s-42.5 -186.167 -54.5 -223.5c-18.667 -56.667 -40.667 -102.334 -66 -137.001s-52.5 -61.5 -81.5 -80.5s-64.167 -33.5 -105.5 -43.5
c-22.667 -5.33301 -61 -8 -115 -8h-56l34 157h31c56.667 0 97.5 7 122.5 21s45.167 37.667 60.5 71c11.333 24.667 27.666 87.334 48.999 188.001c27.333 126 50.666 213.333 69.999 262c26 68 59.333 122.667 100 164s92 74 154 98c-52 27.333 -88.5 58.5 -109.5 93.5
s-31.5 84.167 -31.5 147.5c0 51.333 15 146 45 284c21.333 96.667 32 158 32 184c0 34 -9.16699 58.333 -27.5 73s-56.833 22 -115.5 22h-31l34 157h55c62.667 0 106.667 -4.33301 132 -13c39.333 -13.333 69.833 -35.666 91.5 -66.999s32.5 -73.333 32.5 -126
c0 -44 -11 -118 -33 -222c-32 -154 -48 -249.667 -48 -287c0 -53.333 13.333 -93.666 40 -120.999s66 -41.666 118 -42.999z" />
    <glyph glyph-name="asciitilde" unicode="~" horiz-adv-x="1196" 
d="M164 557l0.00292969 205.002c70.667 80 163.334 120 278.001 120c40 0 82 -5.83301 126 -17.5s106.667 -34.834 188 -69.501c46 -19.333 80.5 -32 103.5 -38s46.167 -9 69.5 -9c43.333 0 88.166 13 134.499 39s87.5 58.667 123.5 98v-212
c-42.667 -40 -85.834 -69 -129.501 -87s-92.834 -27 -147.501 -27c-40 0 -78.167 4.66699 -114.5 14s-94 31.666 -173 66.999s-144.833 53 -197.5 53c-42.667 0 -82.834 -9.16699 -120.501 -27.5s-84.5 -54.5 -140.5 -108.5z" />
    <glyph glyph-name="exclamdown" unicode="&#xa1;" horiz-adv-x="682" 
d="M625 1062l-43 -205h-204l43 205h204zM511 692l-111 -796l-62 -300h-220l68 325l212 771h113z" />
    <glyph glyph-name="cent" unicode="&#xa2;" 
d="M338 27c-122.667 72 -184 196.664 -184 373.997c0 116 23 230 69 342s112 197.167 198 255.5s183.667 87.5 293 87.5c20 0 40.333 -1.33301 61 -4l168 404l106 -45l-161 -389c64 -27.333 112.833 -67.666 146.5 -120.999s50.5 -119 50.5 -197l-178 -12
c-0.666992 42.667 -7.33398 77.834 -20.001 105.501s-33.334 51.834 -62.001 72.501l-322 -780c15.333 -2.66699 29.333 -4 42 -4c58.667 0 114.834 22.333 168.501 67s95.834 112.667 126.501 204l181 -19c-45.333 -132.667 -109.833 -231.167 -193.5 -295.5
s-178.834 -96.5 -285.501 -96.5c-31.333 0 -62.666 3.33301 -93.999 10l-163 -393l-108 47zM401 179.997l314 757h-16c-74.667 0 -138.5 -23.167 -191.5 -69.5s-94.667 -116.5 -125 -210.5s-45.5 -182.667 -45.5 -266c0 -94 21.333 -164.333 64 -211z" />
    <glyph glyph-name="sterling" unicode="&#xa3;" 
d="M85 -25l-20.998 177.001c73.333 47.333 137.333 102 192 164c41.333 46.667 71.333 96.667 90 150s28 100 28 140c0 8.66699 -1.33301 23.667 -4 45h-221l31 151h173c-12 90 -18 165.667 -18 227c0 130 46.167 239.5 138.5 328.5s207.833 133.5 346.5 133.5
c109.333 0 203.666 -32.167 282.999 -96.5s126.333 -161.833 141 -292.5l-165 -17c-10 85.333 -38.5 150.166 -85.5 194.499s-105.5 66.5 -175.5 66.5c-82.667 0 -153 -31.167 -211 -93.5s-87 -147.5 -87 -255.5c0 -47.333 6.66699 -112.333 20 -195h290l-32 -151h-251
l1 -44c0 -68.667 -15.833 -137 -47.5 -205s-86.5 -131.333 -164.5 -190c36 4.66699 62 7 78 7c54 0 96.5 -2.5 127.5 -7.5s73.667 -16.667 128 -35s99.833 -27.5 136.5 -27.5c75.333 0 149 21 221 63l54 -163c-101.333 -49.333 -190.333 -74 -267 -74
c-28.667 0 -57.667 3.33301 -87 10c-21.333 5.33301 -55.666 17.833 -102.999 37.5s-87.5 33.167 -120.5 40.5s-68.167 11 -105.5 11c-56.667 0 -107.834 -7 -153.501 -21s-98.834 -40 -159.501 -78z" />
    <glyph glyph-name="currency" unicode="&#xa4;" 
d="M303 961l-139 136l115 119l139 -139c70.667 48 149.667 72 237 72c88 0 167 -24 237 -72l139 139l116 -119l-139 -136c47.333 -73.333 71 -151.666 71 -234.999c0 -84 -23.667 -162.667 -71 -236l139 -136l-116 -119l-139 140c-70 -48.667 -149 -73 -237 -73
c-87.333 0 -166.333 24.333 -237 73l-139 -140l-115 119l139 136c-47.333 73.333 -71 152 -71 236c0 83.333 23.667 161.666 71 234.999zM395 726c0 -72 25.333 -133.333 76 -184s111.667 -76 183 -76s132.333 25.333 183 76s76 112 76 184
c0 71.333 -25.167 132.333 -75.5 183s-111.5 76 -183.5 76c-71.333 0 -132.333 -25.333 -183 -76s-76 -111.667 -76 -183z" />
    <glyph glyph-name="yen" unicode="&#xa5;" 
d="M416 0l68 326.999h-409l29 138h409l31 147h-409l28 138h344l-273 716h182l116 -315l90 -246c18 -51.333 32 -95.666 42 -132.999c27.333 62 70.333 133.333 129 214l349 480h224l-540 -716h334l-29 -138h-406l-31 -147h406l-29 -138h-406l-68 -327h-181z" />
    <glyph glyph-name="brokenbar" unicode="&#xa6;" horiz-adv-x="532" 
d="M345 1491v-790h-157v790h157zM345 360v-791h-157v791h157z" />
    <glyph glyph-name="section" unicode="&#xa7;" 
d="M62 -90l166.003 41.9961c16 -80 49.167 -141.333 99.5 -184s109.5 -64 177.5 -64c66 0 120.167 19.333 162.5 58s63.5 82.667 63.5 132c0 20.667 -4.33301 41.167 -13 61.5s-21.667 40.833 -39 61.5c-24.667 30 -122 113 -292 249
c-67.333 53.333 -112.666 93 -135.999 119c-35.333 38.667 -60.333 74.834 -75 108.501s-22 71.834 -22 114.501c0 72.667 21.333 136.5 64 191.5s116 108.5 220 160.5c-52.667 64 -79 131.333 -79 202c0 93.333 34.167 171.5 102.5 234.5s163.833 94.5 286.5 94.5
c116 0 205.167 -26.667 267.5 -80s102.833 -139.666 121.5 -258.999l-181 -21c-0.666992 68 -20.334 120.833 -59.001 158.5s-91.667 56.5 -159 56.5c-61.333 0 -111.333 -17.667 -150 -53s-58 -77 -58 -125c0 -34.667 12.833 -72.667 38.5 -114
s87.5 -101.666 185.5 -180.999c142.667 -115.333 233.167 -197 271.5 -245s57.5 -102.667 57.5 -164c0 -63.333 -22.833 -125 -68.5 -185s-115.834 -112.333 -210.501 -157c33.333 -36.667 58.333 -74 75 -112s25 -76.667 25 -116c0 -86.667 -35.833 -162.5 -107.5 -227.5
s-169.167 -97.5 -292.5 -97.5c-116.667 0 -213.834 30.5 -291.501 91.5s-127.834 144.167 -150.501 249.5zM714.003 216.996c72 33.333 123.332 70.165 153.999 110.498s46 78.5 46 114.5c0 28.667 -7.16699 54.834 -21.5 78.501s-62.5 69.167 -144.5 136.5
c-112 92.667 -191 164.667 -237 216c-129.333 -73.333 -194 -155 -194 -245c0 -27.333 7 -53.666 21 -78.999c20.667 -35.333 69.334 -84 146.001 -146z" />
    <glyph glyph-name="dieresis" unicode="&#xa8;" horiz-adv-x="682" 
d="M237 1227l43 205h189l-43 -205h-189zM606 1227l43 205h188l-42 -205h-189z" />
    <glyph glyph-name="copyright" unicode="&#xa9;" horiz-adv-x="1509" 
d="M838 1491c126.667 0 250.334 -32.5 371.001 -97.5s214.667 -158 282 -279s101 -247.167 101 -378.5c0 -130 -33.167 -255 -99.5 -375s-159.333 -213.167 -279 -279.5s-244.834 -99.5 -375.501 -99.5s-255.834 33.167 -375.501 99.5s-212.834 159.5 -279.501 279.5
s-100 245 -100 375c0 131.333 33.833 257.5 101.5 378.5s161.834 214 282.501 279s244.334 97.5 371.001 97.5zM838 1366c-106 0 -209.167 -27.167 -309.5 -81.5s-178.833 -132 -235.5 -233s-85 -206.167 -85 -315.5c0 -108.667 27.833 -212.834 83.5 -312.501
s133.5 -177.334 233.5 -233.001s204.333 -83.5 313 -83.5s213 27.833 313 83.5s177.667 133.334 233 233.001s83 203.834 83 312.501c0 109.333 -28.167 214.5 -84.5 315.5s-134.833 178.667 -235.5 233s-203.667 81.5 -309 81.5zM1080 614l122.999 -35.999
c-20 -83.333 -62.5 -149.833 -127.5 -199.5s-143.833 -74.5 -236.5 -74.5c-117.333 0 -212.666 38 -285.999 114s-110 181.333 -110 316c0 88 16.667 164.5 50 229.5s80.833 114 142.5 147s132.167 49.5 211.5 49.5c88.667 0 162.334 -21.167 221.001 -63.5
s98.667 -99.833 120 -172.5l-119 -29c-20 49.333 -49.5 87.166 -88.5 113.499s-84.833 39.5 -137.5 39.5c-76.667 0 -139.834 -27.333 -189.501 -82s-74.5 -133 -74.5 -235s23.5 -179.167 70.5 -231.5s107.833 -78.5 182.5 -78.5c60 0 112.667 17.333 158 52
s75.333 81.667 90 141z" />
    <glyph glyph-name="ordfeminine" unicode="&#xaa;" horiz-adv-x="758" 
d="M624 823c-25.333 -22.667 -59.6699 -42.8311 -103.003 -60.498s-86.333 -26.5 -129 -26.5c-69.333 0 -124.166 19.667 -164.499 59s-60.5 88 -60.5 146c0 43.333 11.5 83.333 34.5 120s57.333 64.167 103 82.5s113.834 30.166 204.501 35.499c69.333 4 127 11.333 173 22
c10 29.333 15 51 15 65c0 28.667 -12.167 53.167 -36.5 73.5s-57.833 30.5 -100.5 30.5c-39.333 0 -75.5 -10 -108.5 -30s-58.167 -50 -75.5 -90l-141 23c31.333 69.333 73 123 125 161s119.333 57 202 57c90.667 0 159.334 -19.333 206.001 -58s70 -85.667 70 -141
c0 -51.333 -18 -143.333 -54 -276c-19.333 -70.667 -29 -124.334 -29 -161.001c0 -39.333 6.66699 -72 20 -98h-138c-4.66699 15.333 -9 37.333 -13 66zM654.996 1087c-36.667 -10.667 -91.501 -19.334 -164.501 -26.001s-121.167 -19.667 -144.5 -39
c-24 -19.333 -36 -42.666 -36 -69.999c0 -26.667 10.167 -49.334 30.5 -68.001s46.5 -28 78.5 -28c54.667 0 103.334 18.833 146.001 56.5s72.667 95.834 90 174.501z" />
    <glyph glyph-name="guillemotleft" unicode="&#xab;" 
d="M350 527l159 -455h-136l-212 477l401 431h143zM745 527l156 -455h-146l-198 479l388 429h155z" />
    <glyph glyph-name="logicalnot" unicode="&#xac;" horiz-adv-x="1196" 
d="M1152 424h-170v438h-798v168h968v-606z" />
    <glyph glyph-name="registered" unicode="&#xae;" horiz-adv-x="1509" 
d="M838 1491c126.667 0 250.334 -32.5 371.001 -97.5s214.667 -158 282 -279s101 -247.167 101 -378.5c0 -130 -33.167 -255 -99.5 -375s-159.333 -213.167 -279 -279.5s-244.834 -99.5 -375.501 -99.5s-255.834 33.167 -375.501 99.5s-212.834 159.5 -279.501 279.5
s-100 245 -100 375c0 131.333 33.833 257.5 101.5 378.5s161.834 214 282.501 279s244.334 97.5 371.001 97.5zM838 1366c-106 0 -209.167 -27.167 -309.5 -81.5s-178.833 -132 -235.5 -233s-85 -206.167 -85 -315.5c0 -108.667 27.833 -212.834 83.5 -312.501
s133.5 -177.334 233.5 -233.001s204.333 -83.5 313 -83.5s213 27.833 313 83.5s177.667 133.334 233 233.001s83 203.834 83 312.501c0 109.333 -28.167 214.5 -84.5 315.5s-134.833 178.667 -235.5 233s-203.667 81.5 -309 81.5zM507 319l0.000976562 812h279
c95.333 0 164.333 -7.5 207 -22.5s76.667 -41.167 102 -78.5s38 -77 38 -119c0 -59.333 -21.167 -111 -63.5 -155s-98.5 -68.667 -168.5 -74c28.667 -12 51.667 -26.333 69 -43c32.667 -32 72.667 -85.667 120 -161l99 -159h-160l-72 128
c-56.667 100.667 -102.334 163.667 -137.001 189c-24 18.667 -59 28 -105 28h-77v-345h-131zM638.001 776h159c76 0 127.833 11.333 155.5 34s41.5 52.667 41.5 90c0 24 -6.66699 45.5 -20 64.5s-31.833 33.167 -55.5 42.5s-67.5 14 -131.5 14h-149v-245z" />
    <glyph glyph-name="macron" unicode="&#xaf;" horiz-adv-x="1131" 
d="M181 1566v129h1193v-129h-1193z" />
    <glyph glyph-name="degree" unicode="&#xb0;" horiz-adv-x="819" 
d="M273 1214c0 76.667 27.167 142 81.5 196s119.5 81 195.5 81c77.333 0 143 -27 197 -81s81 -119.333 81 -196s-27.167 -142.167 -81.5 -196.5s-119.833 -81.5 -196.5 -81.5c-76 0 -141.167 27 -195.5 81s-81.5 119.667 -81.5 197zM382 1214
c0 -46.667 16.5 -86.5 49.5 -119.5s72.833 -49.5 119.5 -49.5c46 0 85.5 16.5 118.5 49.5s49.5 72.833 49.5 119.5s-16.5 86.5 -49.5 119.5s-72.5 49.5 -118.5 49.5c-46.667 0 -86.5 -16.5 -119.5 -49.5s-49.5 -72.833 -49.5 -119.5z" />
    <glyph glyph-name="plusminus" unicode="&#xb1;" horiz-adv-x="1124" 
d="M523 260v403h-399v167h399v399h170v-399h399v-167h-399v-403h-170zM1092 0h-968v168h968v-168z" />
    <glyph glyph-name="uni00B2" unicode="&#xb2;" horiz-adv-x="682" 
d="M152 733c20.667 69.333 56.3311 132.833 106.998 190.5s134.334 119.5 251.001 185.5c67.333 38 109 65.333 125 82c23.333 24.667 35 51 35 79c0 25.333 -10.5 47.166 -31.5 65.499s-51.833 27.5 -92.5 27.5c-48 0 -85 -9.33301 -111 -28s-45.333 -47.334 -58 -86.001
l-153 15c20 71.333 56.333 125.833 109 163.5s123 56.5 211 56.5c92 0 161.167 -20.167 207.5 -60.5s69.5 -90.166 69.5 -149.499c0 -54 -20 -103.667 -60 -149c-30 -32.667 -94.667 -79 -194 -139c-59.333 -35.333 -100.166 -61.666 -122.499 -78.999s-40.5 -35 -54.5 -53
h379l-25 -121h-592z" />
    <glyph glyph-name="uni00B3" unicode="&#xb3;" horiz-adv-x="682" 
d="M169 930l143.002 15.998c15.333 -38 36.666 -66 63.999 -84s60.333 -27 99 -27c48.667 0 86.167 12 112.5 36s39.5 53.667 39.5 89c0 30.667 -10.833 55.334 -32.5 74.001s-57.5 28 -107.5 28h-41l23 107l33 -1c43.333 0 81.666 9.66699 114.999 29s50 47.333 50 84
c0 26.667 -10.667 49.167 -32 67.5s-51.666 27.5 -90.999 27.5c-38 0 -69 -8.16699 -93 -24.5s-43.333 -42.166 -58 -77.499l-147 19c17.333 57.333 51 103.5 101 138.5s115.333 52.5 196 52.5c92 0 161 -19.167 207 -57.5s69 -84.833 69 -139.5
c0 -41.333 -13.333 -77.5 -40 -108.5s-69.334 -53.5 -128.001 -67.5c49.333 -20 83.833 -43.667 103.5 -71s29.5 -59.666 29.5 -96.999c0 -58.667 -27.167 -111.334 -81.5 -158.001s-128.166 -70 -221.499 -70c-82 0 -150.333 20 -205 60s-90.334 91.667 -107.001 155z" />
    <glyph glyph-name="acute" unicode="&#xb4;" horiz-adv-x="682" 
d="M346 1191l188 275h228l-266 -275h-150z" />
    <glyph glyph-name="uni00B5" unicode="&#xb5;" horiz-adv-x="1180" 
d="M323 1062l179.002 0.000976562l-106 -499c-26 -121.333 -39 -206.333 -39 -255c0 -53.333 17.667 -96.833 53 -130.5s83.666 -50.5 144.999 -50.5c82 0 151.667 29.667 209 89c42.667 45.333 78.667 136.666 108 273.999l120 572h179l-226 -1062h-161l18 84
c-90.667 -72.667 -179.334 -109 -266.001 -109c-49.333 0 -92.5 10 -129.5 30s-73.167 51.667 -108.5 95l-108 -510h-178z" />
    <glyph glyph-name="paragraph" unicode="&#xb6;" horiz-adv-x="1100" 
d="M546 -407v1045c-124.667 6.66699 -223.167 47.167 -295.5 121.5s-108.5 169.166 -108.5 284.499c0 128.667 40.167 231.167 120.5 307.5s197.833 114.5 352.5 114.5h633v-173h-144v-1700h-170v1700h-223v-1700h-165z" />
    <glyph glyph-name="periodcentered" unicode="&#xb7;" horiz-adv-x="682" 
d="M310 630l43 205h205l-44 -205h-204z" />
    <glyph glyph-name="periodcentered" unicode="&#xa78f;" horiz-adv-x="682" 
d="M310 630l43 205h205l-44 -205h-204z" />
    <glyph glyph-name="cedilla" unicode="&#xb8;" horiz-adv-x="682" 
d="M252 -149l41.001 161h140l-24 -90c58.667 -8 103.334 -28.167 134.001 -60.5s46 -68.833 46 -109.5c0 -48 -20.333 -86.333 -61 -115c-58.667 -41.333 -152.334 -62 -281.001 -62c-64.667 0 -121.334 4 -170.001 12l22 112c40.667 -2 89.334 -3 146.001 -3
c68.667 0 114.167 7.33301 136.5 22s33.5 31 33.5 49c0 21.333 -9.66699 39 -29 53c-28.667 20 -73.334 30.333 -134.001 31z" />
    <glyph glyph-name="uni00B9" unicode="&#xb9;" horiz-adv-x="682" 
d="M419 733l111 532c-68.667 -48 -152.334 -82 -251.001 -102l27 127c50.667 14.667 106.334 40.167 167.001 76.5s107.667 75.5 141 117.5h112l-157 -751h-150z" />
    <glyph glyph-name="ordmasculine" unicode="&#xba;" horiz-adv-x="748" 
d="M143 1068c0 52 13.333 111.832 40 179.499s70.5 125.167 131.5 172.5s132.833 71 215.5 71c92.667 0 168 -29.167 226 -87.5s87 -133.166 87 -224.499c0 -100 -33 -198.5 -99 -295.5s-158.333 -145.5 -277 -145.5c-68 0 -127.667 13.667 -179 41
s-88.333 63.833 -111 109.5s-34 105.5 -34 179.5zM290 1073c0 -62.667 10.667 -108.665 32 -137.998c32 -44 75 -66 129 -66c36.667 0 74 12.167 112 36.5s69.5 62.666 94.5 114.999s37.5 105.5 37.5 159.5c0 53.333 -15.833 96.666 -47.5 129.999s-70.834 50 -117.501 50
c-40.667 0 -80.167 -14.167 -118.5 -42.5s-68.166 -67.333 -89.499 -117s-32 -92.167 -32 -127.5z" />
    <glyph glyph-name="guillemotright" unicode="&#xbb;" 
d="M450 521l-148 459h144l192 -483l-392 -425h-163zM841 513l-149 467h136l206 -485l-407 -423h-144z" />
    <glyph glyph-name="onequarter" unicode="&#xbc;" horiz-adv-x="1708" 
d="M171 -61l1396 1552h175l-1409 -1552h-162zM419 733l111 532c-68.667 -48 -152.334 -82 -251.001 -102l27 127c50.667 14.667 106.334 40.167 167.001 76.5s107.667 75.5 141 117.5h112l-157 -751h-150zM1361 -35l32 152h-387l25 121l512 478h117l-99 -484h100l-26 -115
h-100l-31 -152h-143zM1418 232l64 265l-285 -265h221z" />
    <glyph glyph-name="onehalf" unicode="&#xbd;" horiz-adv-x="1708" 
d="M123 -61l1396 1552h175l-1409 -1552h-162zM419 733l111 532c-68.667 -48 -152.334 -82 -251.001 -102l27 127c50.667 14.667 106.334 40.167 167.001 76.5s107.667 75.5 141 117.5h112l-157 -751h-150zM1020 -35c20.667 69.333 56.333 132.834 107 190.501
s134.334 119.5 251.001 185.5c67.333 38 108.666 65.333 123.999 82c24 24.667 36 51 36 79c0 25.333 -10.667 47.166 -32 65.499s-52 27.5 -92 27.5c-48 0 -85.167 -9.33301 -111.5 -28s-45.5 -47.334 -57.5 -86.001l-153 15c20 71.333 56.167 125.833 108.5 163.5
s122.833 56.5 211.5 56.5c92 0 161.167 -20.167 207.5 -60.5s69.5 -90.166 69.5 -149.499c0 -54.667 -20.333 -104.334 -61 -149.001c-29.333 -32.667 -94 -79 -194 -139c-58.667 -35.333 -99.167 -61.666 -121.5 -78.999s-40.5 -35 -54.5 -53h379l-26 -121h-591z" />
    <glyph glyph-name="threequarters" unicode="&#xbe;" horiz-adv-x="1708" 
d="M201 -61l1396 1552h175l-1409 -1552h-162zM169 930l143.002 15.998c15.333 -38 36.666 -66 63.999 -84s60.333 -27 99 -27c48.667 0 86.167 12 112.5 36s39.5 53.667 39.5 89c0 30.667 -10.833 55.334 -32.5 74.001s-57.5 28 -107.5 28h-41l23 107l33 -1
c43.333 0 81.666 9.66699 114.999 29s50 47.333 50 84c0 26.667 -10.667 49.167 -32 67.5s-51.666 27.5 -90.999 27.5c-38 0 -69 -8.16699 -93 -24.5s-43.333 -42.166 -58 -77.499l-147 19c17.333 57.333 51 103.5 101 138.5s115.333 52.5 196 52.5
c92 0 161 -19.167 207 -57.5s69 -84.833 69 -139.5c0 -41.333 -13.333 -77.5 -40 -108.5s-69.334 -53.5 -128.001 -67.5c49.333 -20 83.833 -43.667 103.5 -71s29.5 -59.666 29.5 -96.999c0 -58.667 -27.167 -111.334 -81.5 -158.001s-128.166 -70 -221.499 -70
c-82 0 -150.333 20 -205 60s-90.334 91.667 -107.001 155zM1361 -35.002l32 152h-387l25 121l512 478h117l-99 -484h99l-25 -115h-100l-31 -152h-143zM1418 231.998l64 265l-285 -265h221z" />
    <glyph glyph-name="questiondown" unicode="&#xbf;" horiz-adv-x="1251" 
d="M980 1062l-43 -205h-205l43 205h205zM891 695c-6.66699 -60.667 -20.498 -114.665 -41.498 -161.998s-53.167 -95.333 -96.5 -144c-24.667 -28.667 -84 -81.167 -178 -157.5s-154.833 -138 -182.5 -185s-41.5 -90.167 -41.5 -129.5c0 -53.333 22.167 -100.333 66.5 -141
s101.166 -61 170.499 -61c76.667 0 140.167 24 190.5 72s83.833 128 100.5 240l181 -30c-28.667 -142.667 -84.167 -249.334 -166.5 -320.001s-182.5 -106 -300.5 -106c-80 0 -153.167 16.333 -219.5 49s-116.5 77.167 -150.5 133.5s-51 115.166 -51 176.499
c0 73.333 24.667 144 74 212c36.667 50.667 118.667 127 246 229c88 70 145.167 125 171.5 165s45.166 93 56.499 159h171z" />
    <glyph glyph-name="Agrave" unicode="&#xc0;" horiz-adv-x="1366" 
d="M-41 0l831 1466h231l242 -1466h-190l-71 422h-593l-235 -422h-215zM493 573h485l-57 368c-22 146 -35.667 267.667 -41 365c-33.333 -84 -82 -183.667 -146 -299zM990 1557l-195 275h220l116 -275h-141z" />
    <glyph glyph-name="Aacute" unicode="&#xc1;" horiz-adv-x="1366" 
d="M-41 0l831 1466h231l242 -1466h-190l-71 422h-593l-235 -422h-215zM493 573h485l-57 368c-22 146 -35.667 267.667 -41 365c-33.333 -84 -82 -183.667 -146 -299zM786 1556l188 275h228l-266 -275h-150z" />
    <glyph glyph-name="Acircumflex" unicode="&#xc2;" horiz-adv-x="1366" 
d="M-41 0l831 1466h231l242 -1466h-190l-71 422h-593l-235 -422h-215zM493 573h485l-57 368c-22 146 -35.667 267.667 -41 365c-33.333 -84 -82 -183.667 -146 -299zM595 1556l265 275h200l124 -275h-158l-80 178l-165 -178h-186z" />
    <glyph glyph-name="Atilde" unicode="&#xc3;" horiz-adv-x="1366" 
d="M-41 0l831 1466h231l242 -1466h-190l-71 422h-593l-235 -422h-215zM493 573h485l-57 368c-22 146 -35.667 267.667 -41 365c-33.333 -84 -82 -183.667 -146 -299zM579 1553c22 88.667 49.1689 148.168 81.502 178.501s72.833 45.5 121.5 45.5c22 0 43.5 -2.66699 64.5 -8
s57.5 -19.5 109.5 -42.5s87.667 -34.5 107 -34.5c15.333 0 29 5.5 41 16.5s22 31.833 30 62.5h121c-6.66699 -68.667 -28.834 -122.334 -66.501 -161.001s-81.167 -58 -130.5 -58c-26.667 0 -60.334 8.66699 -101.001 26c-92 40 -148.667 60 -170 60s-39 -6.83301 -53 -20.5
s-24 -35.167 -30 -64.5h-125z" />
    <glyph glyph-name="Adieresis" unicode="&#xc4;" horiz-adv-x="1366" 
d="M-41 0l831 1466h231l242 -1466h-190l-71 422h-593l-235 -422h-215zM493 573h485l-57 368c-22 146 -35.667 267.667 -41 365c-33.333 -84 -82 -183.667 -146 -299zM617 1556l43 205h189l-43 -205h-189zM986 1556l43 205h188l-42 -205h-189z" />
    <glyph glyph-name="Aring" unicode="&#xc5;" horiz-adv-x="1366" 
d="M-41 0l831 1466h231l242 -1466h-190l-71 422h-593l-235 -422h-215zM493 573h485l-57 368c-22 146 -35.667 267.667 -41 365c-33.333 -84 -82 -183.667 -146 -299zM751 1586c0 50.667 17.833 93.667 53.5 129s78.5 53 128.5 53c50.667 0 93.667 -17.833 129 -53.5
s53 -78.5 53 -128.5c0 -50.667 -17.833 -93.667 -53.5 -129s-78.5 -53 -128.5 -53s-92.833 17.667 -128.5 53s-53.5 78.333 -53.5 129zM826 1586c0 -30 10.5 -55.5 31.5 -76.5s46.167 -31.5 75.5 -31.5c30 0 55.5 10.5 76.5 31.5s31.5 46.5 31.5 76.5
c0 29.333 -10.5 54.5 -31.5 75.5s-46.5 31.5 -76.5 31.5c-29.333 0 -54.5 -10.5 -75.5 -31.5s-31.5 -46.167 -31.5 -75.5z" />
    <glyph glyph-name="AE" unicode="&#xc6;" horiz-adv-x="2048" 
d="M-83 0l902 1466h1318l-35 -167h-756l-95 -456h765l-35 -166h-765l-107 -511h845l-35 -166h-1051l88 418h-566l-250 -418h-223zM491 584h499l150 715h-211z" />
    <glyph glyph-name="Ccedilla" unicode="&#xc7;" horiz-adv-x="1479" 
d="M1235 516l193.999 -27.001c-61.333 -169.333 -150.666 -297.333 -267.999 -384s-249 -130 -395 -130c-178 0 -319.167 54.333 -423.5 163s-156.5 264.334 -156.5 467.001c0 264 79.333 482.333 238 655c141.333 154 317 231 527 231
c155.333 0 281.166 -41.667 377.499 -125s152.166 -195.333 167.499 -336l-183 -17c-19.333 106 -59.166 185.167 -119.499 237.5s-138.166 78.5 -233.499 78.5c-179.333 0 -324.333 -79.667 -435 -239c-96 -137.333 -144 -300.333 -144 -489
c0 -150.667 37 -265.667 111 -345s170.333 -119 289 -119c101.333 0 193 33 275 99s141.667 159.333 179 280zM551.999 -155.001l41.001 161h140l-24 -90c58.667 -8 103.334 -28.167 134.001 -60.5s46 -68.833 46 -109.5c0 -48 -20.333 -86.333 -61 -115
c-58.667 -41.333 -152.334 -62 -281.001 -62c-64.667 0 -121.334 4 -170.001 12l22 112c40.667 -2 89.334 -3 146.001 -3c68.667 0 114.167 7.33301 136.5 22s33.5 31 33.5 49c0 21.333 -9.66699 39 -29 53c-28.667 20 -73.334 30.333 -134.001 31z" />
    <glyph glyph-name="Egrave" unicode="&#xc8;" horiz-adv-x="1366" 
d="M92 0l307 1466h1058l-35 -167h-862l-96 -456h840l-35 -167h-840l-106 -510h923l-35 -166h-1119zM1028 1557l-195 275h220l116 -275h-141z" />
    <glyph glyph-name="Eacute" unicode="&#xc9;" horiz-adv-x="1366" 
d="M92 0l307 1466h1058l-35 -167h-862l-96 -456h840l-35 -167h-840l-106 -510h923l-35 -166h-1119zM745 1556l188 275h228l-266 -275h-150z" />
    <glyph glyph-name="Ecircumflex" unicode="&#xca;" horiz-adv-x="1366" 
d="M92 0l307 1466h1058l-35 -167h-862l-96 -456h840l-35 -167h-840l-106 -510h923l-35 -166h-1119zM613 1556l265 275h200l124 -275h-158l-80 178l-165 -178h-186z" />
    <glyph glyph-name="Edieresis" unicode="&#xcb;" horiz-adv-x="1366" 
d="M92 0l307 1466h1058l-35 -167h-862l-96 -456h840l-35 -167h-840l-106 -510h923l-35 -166h-1119zM656 1553l43 205h189l-43 -205h-189zM1025 1553l43 205h188l-42 -205h-189z" />
    <glyph glyph-name="Igrave" unicode="&#xcc;" horiz-adv-x="569" 
d="M117 0l307 1466h195l-306 -1466h-196zM556 1557l-195 275h220l116 -275h-141z" />
    <glyph glyph-name="Iacute" unicode="&#xcd;" horiz-adv-x="569" 
d="M117 0l307 1466h195l-306 -1466h-196zM381 1556l188 275h228l-266 -275h-150z" />
    <glyph glyph-name="Icircumflex" unicode="&#xce;" horiz-adv-x="569" 
d="M117 0l307 1466h195l-306 -1466h-196zM245 1556l265 275h200l124 -275h-158l-80 178l-165 -178h-186z" />
    <glyph glyph-name="Idieresis" unicode="&#xcf;" horiz-adv-x="569" 
d="M117 0l307 1466h195l-306 -1466h-196zM247 1556l43 205h189l-43 -205h-189zM616 1556l43 205h188l-42 -205h-189z" />
    <glyph glyph-name="Eth" unicode="&#xd0;" horiz-adv-x="1479" 
d="M108 0l141 666.001h-158l28 134h159l141 666h437c92 0 156.667 -3.33301 194 -10c58.667 -10.667 114.334 -30.5 167.001 -59.5s99.167 -70 139.5 -123s70.166 -114.333 89.499 -184s29 -143.834 29 -222.501c0 -118 -18 -225.5 -54 -322.5s-82.667 -182.5 -140 -256.5
s-117.5 -131.667 -180.5 -173s-137.5 -72 -223.5 -92c-65.333 -15.333 -146 -23 -242 -23h-527zM339 166.001l231 -0.00292969c104.667 0 197.667 9.66699 279 29c50.667 12 94 29.667 130 53c47.333 30 90.666 69.667 129.999 119c50.667 65.333 91 139.833 121 223.5
s45 178.834 45 285.501c0 118.667 -20.667 209.834 -62 273.501s-93.666 105.834 -156.999 126.501c-48 15.333 -121.667 23 -221 23h-256l-106 -499h404l-28 -134h-404z" />
    <glyph glyph-name="Ntilde" unicode="&#xd1;" horiz-adv-x="1479" 
d="M100 0l307.001 1466h190l247 -550c75.333 -168 135 -309.333 179 -424c25.333 -66.667 54.666 -156.667 87.999 -270c18 123.333 40.667 250.666 68 381.999l180 862h191l-306 -1466h-194l-364 847c-64.667 149.333 -115 281 -151 395
c-10 -95.333 -29.333 -212.333 -58 -351l-186 -891h-191zM661.001 1553c22 88.667 49.1689 148.168 81.502 178.501s72.833 45.5 121.5 45.5c22 0 43.5 -2.66699 64.5 -8s57.5 -19.5 109.5 -42.5s87.667 -34.5 107 -34.5c15.333 0 29 5.5 41 16.5s22 31.833 30 62.5h121
c-6.66699 -68.667 -28.834 -122.334 -66.501 -161.001s-81.167 -58 -130.5 -58c-26.667 0 -60.334 8.66699 -101.001 26c-92 40 -148.667 60 -170 60s-39 -6.83301 -53 -20.5s-24 -35.167 -30 -64.5h-125z" />
    <glyph glyph-name="Ograve" unicode="&#xd2;" horiz-adv-x="1593" 
d="M187 614c0 261.333 75.499 472.833 226.499 634.5s334.167 242.5 549.5 242.5c182.667 0 331.5 -59.5 446.5 -178.5s172.5 -278.5 172.5 -478.5c0 -142.667 -29 -275 -87 -397c-43.333 -91.333 -98 -170.166 -164 -236.499s-136.667 -117.5 -212 -153.5
c-100 -48 -206 -72 -318 -72c-117.333 0 -224.166 28 -320.499 84s-169.333 134.167 -219 234.5s-74.5 207.166 -74.5 320.499zM379.999 604c0 -86 17.8311 -165.001 53.498 -237.001s88.834 -128.333 159.501 -169s145 -61 223 -61c75.333 0 147 17.833 215 53.5
s128.833 85.334 182.5 149.001s96 142 127 235s46.5 184.5 46.5 274.5c0 146 -40.833 262.333 -122.5 349s-182.5 130 -302.5 130c-153.333 0 -288.666 -65.5 -405.999 -196.5s-176 -306.833 -176 -527.5zM1044 1557l-195 275h220l116 -275h-141z" />
    <glyph glyph-name="Oacute" unicode="&#xd3;" horiz-adv-x="1593" 
d="M187 614c0 261.333 75.499 472.833 226.499 634.5s334.167 242.5 549.5 242.5c182.667 0 331.5 -59.5 446.5 -178.5s172.5 -278.5 172.5 -478.5c0 -142.667 -29 -275 -87 -397c-43.333 -91.333 -98 -170.166 -164 -236.499s-136.667 -117.5 -212 -153.5
c-100 -48 -206 -72 -318 -72c-117.333 0 -224.166 28 -320.499 84s-169.333 134.167 -219 234.5s-74.5 207.166 -74.5 320.499zM379.999 604c0 -86 17.8311 -165.001 53.498 -237.001s88.834 -128.333 159.501 -169s145 -61 223 -61c75.333 0 147 17.833 215 53.5
s128.833 85.334 182.5 149.001s96 142 127 235s46.5 184.5 46.5 274.5c0 146 -40.833 262.333 -122.5 349s-182.5 130 -302.5 130c-153.333 0 -288.666 -65.5 -405.999 -196.5s-176 -306.833 -176 -527.5zM820.997 1556l188 275h228l-266 -275h-150z" />
    <glyph glyph-name="Ocircumflex" unicode="&#xd4;" horiz-adv-x="1593" 
d="M187 614c0 261.333 75.499 472.833 226.499 634.5s334.167 242.5 549.5 242.5c182.667 0 331.5 -59.5 446.5 -178.5s172.5 -278.5 172.5 -478.5c0 -142.667 -29 -275 -87 -397c-43.333 -91.333 -98 -170.166 -164 -236.499s-136.667 -117.5 -212 -153.5
c-100 -48 -206 -72 -318 -72c-117.333 0 -224.166 28 -320.499 84s-169.333 134.167 -219 234.5s-74.5 207.166 -74.5 320.499zM379.999 604c0 -86 17.8311 -165.001 53.498 -237.001s88.834 -128.333 159.501 -169s145 -61 223 -61c75.333 0 147 17.833 215 53.5
s128.833 85.334 182.5 149.001s96 142 127 235s46.5 184.5 46.5 274.5c0 146 -40.833 262.333 -122.5 349s-182.5 130 -302.5 130c-153.333 0 -288.666 -65.5 -405.999 -196.5s-176 -306.833 -176 -527.5zM664.997 1556l265 275h200l124 -275h-158l-80 178l-165 -178h-186z
" />
    <glyph glyph-name="Otilde" unicode="&#xd5;" horiz-adv-x="1593" 
d="M187 614c0 261.333 75.499 472.833 226.499 634.5s334.167 242.5 549.5 242.5c182.667 0 331.5 -59.5 446.5 -178.5s172.5 -278.5 172.5 -478.5c0 -142.667 -29 -275 -87 -397c-43.333 -91.333 -98 -170.166 -164 -236.499s-136.667 -117.5 -212 -153.5
c-100 -48 -206 -72 -318 -72c-117.333 0 -224.166 28 -320.499 84s-169.333 134.167 -219 234.5s-74.5 207.166 -74.5 320.499zM379.999 604c0 -86 17.8311 -165.001 53.498 -237.001s88.834 -128.333 159.501 -169s145 -61 223 -61c75.333 0 147 17.833 215 53.5
s128.833 85.334 182.5 149.001s96 142 127 235s46.5 184.5 46.5 274.5c0 146 -40.833 262.333 -122.5 349s-182.5 130 -302.5 130c-153.333 0 -288.666 -65.5 -405.999 -196.5s-176 -306.833 -176 -527.5zM638.997 1553c22 88.667 49.1689 148.168 81.502 178.501
s72.833 45.5 121.5 45.5c22 0 43.5 -2.66699 64.5 -8s57.5 -19.5 109.5 -42.5s87.667 -34.5 107 -34.5c15.333 0 29 5.5 41 16.5s22 31.833 30 62.5h121c-6.66699 -68.667 -28.834 -122.334 -66.501 -161.001s-81.167 -58 -130.5 -58c-26.667 0 -60.334 8.66699 -101.001 26
c-92 40 -148.667 60 -170 60s-39 -6.83301 -53 -20.5s-24 -35.167 -30 -64.5h-125z" />
    <glyph glyph-name="Odieresis" unicode="&#xd6;" horiz-adv-x="1593" 
d="M187 614c0 261.333 75.499 472.833 226.499 634.5s334.167 242.5 549.5 242.5c182.667 0 331.5 -59.5 446.5 -178.5s172.5 -278.5 172.5 -478.5c0 -142.667 -29 -275 -87 -397c-43.333 -91.333 -98 -170.166 -164 -236.499s-136.667 -117.5 -212 -153.5
c-100 -48 -206 -72 -318 -72c-117.333 0 -224.166 28 -320.499 84s-169.333 134.167 -219 234.5s-74.5 207.166 -74.5 320.499zM379.999 604c0 -86 17.8311 -165.001 53.498 -237.001s88.834 -128.333 159.501 -169s145 -61 223 -61c75.333 0 147 17.833 215 53.5
s128.833 85.334 182.5 149.001s96 142 127 235s46.5 184.5 46.5 274.5c0 146 -40.833 262.333 -122.5 349s-182.5 130 -302.5 130c-153.333 0 -288.666 -65.5 -405.999 -196.5s-176 -306.833 -176 -527.5zM683.997 1556l43 205h189l-43 -205h-189zM1053 1556l43 205h188
l-42 -205h-189z" />
    <glyph glyph-name="multiply" unicode="&#xd7;" horiz-adv-x="1196" 
d="M261 409l315 315l-314 314l122 122l314 -314l313 313l120 -121l-312 -313l314 -314l-122 -122l-314 314l-315 -315z" />
    <glyph glyph-name="Oslash" unicode="&#xd8;" horiz-adv-x="1593" 
d="M341 175c-102.667 122 -154 276.999 -154 464.999c0 127.333 24.333 249 73 365c40 96 92.5 178.833 157.5 248.5s135.833 123.5 212.5 161.5c102 50.667 211.667 76 329 76c150.667 0 278 -39 382 -117l160 192l89 -79l-162 -195
c102.667 -117.333 154 -271.666 154 -462.999c0 -138 -28.333 -267.667 -85 -389c-43.333 -92.667 -98.333 -172.167 -165 -238.5s-137.667 -117.833 -213 -154.5c-100 -48 -206 -72 -318 -72c-141.333 0 -265 39 -371 117l-161 -195l-95 79zM462 319.999l762 914
c-76 62.667 -162.667 94 -260 94c-98 0 -192.667 -29 -284 -87s-164.333 -142.667 -219 -254s-82 -231 -82 -359c0 -123.333 27.667 -226 83 -308zM1306 1145l-760 -914.002c80.667 -62.667 170.667 -94 270 -94c75.333 0 147 17.833 215 53.5s128.833 85.334 182.5 149.001
s96 142 127 235s46.5 184.5 46.5 274.5c0 112.667 -27 211.334 -81 296.001z" />
    <glyph glyph-name="Ugrave" unicode="&#xd9;" horiz-adv-x="1479" 
d="M406 1466l196.001 0.00195312l-188 -901c-15.333 -74.667 -23 -130 -23 -166c0 -78.667 31 -142 93 -190s140 -72 234 -72c74.667 0 144.167 17.167 208.5 51.5s115.166 84.833 152.499 151.5s71 173 101 319l169 807h196l-179 -860
c-30.667 -146.667 -71 -262.834 -121 -348.501s-119.333 -154.334 -208 -206.001s-191.667 -77.5 -309 -77.5c-110.667 0 -206.5 18.333 -287.5 55s-141.667 87.334 -182 152.001s-60.5 138 -60.5 220c0 51.333 13.667 139.666 41 264.999zM1009 1557l-195 275h220l116 -275
h-141z" />
    <glyph glyph-name="Uacute" unicode="&#xda;" horiz-adv-x="1479" 
d="M406 1466l196.001 0.00195312l-188 -901c-15.333 -74.667 -23 -130 -23 -166c0 -78.667 31 -142 93 -190s140 -72 234 -72c74.667 0 144.167 17.167 208.5 51.5s115.166 84.833 152.499 151.5s71 173 101 319l169 807h196l-179 -860
c-30.667 -146.667 -71 -262.834 -121 -348.501s-119.333 -154.334 -208 -206.001s-191.667 -77.5 -309 -77.5c-110.667 0 -206.5 18.333 -287.5 55s-141.667 87.334 -182 152.001s-60.5 138 -60.5 220c0 51.333 13.667 139.666 41 264.999zM802.001 1556l188 275h228
l-266 -275h-150z" />
    <glyph glyph-name="Ucircumflex" unicode="&#xdb;" horiz-adv-x="1479" 
d="M406 1466l196.001 0.00195312l-188 -901c-15.333 -74.667 -23 -130 -23 -166c0 -78.667 31 -142 93 -190s140 -72 234 -72c74.667 0 144.167 17.167 208.5 51.5s115.166 84.833 152.499 151.5s71 173 101 319l169 807h196l-179 -860
c-30.667 -146.667 -71 -262.834 -121 -348.501s-119.333 -154.334 -208 -206.001s-191.667 -77.5 -309 -77.5c-110.667 0 -206.5 18.333 -287.5 55s-141.667 87.334 -182 152.001s-60.5 138 -60.5 220c0 51.333 13.667 139.666 41 264.999zM674.001 1556l265 275h200
l124 -275h-158l-80 178l-165 -178h-186z" />
    <glyph glyph-name="Udieresis" unicode="&#xdc;" horiz-adv-x="1479" 
d="M406 1466l196.001 0.00195312l-188 -901c-15.333 -74.667 -23 -130 -23 -166c0 -78.667 31 -142 93 -190s140 -72 234 -72c74.667 0 144.167 17.167 208.5 51.5s115.166 84.833 152.499 151.5s71 173 101 319l169 807h196l-179 -860
c-30.667 -146.667 -71 -262.834 -121 -348.501s-119.333 -154.334 -208 -206.001s-191.667 -77.5 -309 -77.5c-110.667 0 -206.5 18.333 -287.5 55s-141.667 87.334 -182 152.001s-60.5 138 -60.5 220c0 51.333 13.667 139.666 41 264.999zM703.001 1556l43 205h189
l-43 -205h-189zM1072 1556l43 205h188l-42 -205h-189z" />
    <glyph glyph-name="Yacute" unicode="&#xdd;" horiz-adv-x="1366" 
d="M572 0l118.001 567l-451 899h210l216 -428c47.333 -93.333 93.333 -193.333 138 -300c49.333 90.667 116.666 189.667 201.999 297l344 431h234l-700 -914l-115 -552h-196zM756.001 1556l188 275h228l-266 -275h-150z" />
    <glyph glyph-name="Thorn" unicode="&#xde;" horiz-adv-x="1366" 
d="M88 0l312.001 1466l196 -1l-63 -296h411c106 0 185.5 -12.167 238.5 -36.5s96.833 -66 131.5 -125s52 -125.167 52 -198.5c0 -60 -12.333 -121.5 -37 -184.5s-55.834 -114.833 -93.501 -155.5s-76 -71.334 -115 -92.001s-80.5 -36 -124.5 -46
c-94 -22 -188.667 -33 -284 -33h-365l-63 -298h-196zM383.001 464.001h320.001c125.333 0 217.333 13.5 276 40.5s105.667 68.167 141 123.5s53 114 53 176c0 48.667 -9.5 88 -28.5 118s-45.333 52.167 -79 66.5s-98.834 21.5 -195.501 21.5h-371z" />
    <glyph glyph-name="germandbls" unicode="&#xdf;" horiz-adv-x="1251" 
d="M74 0l216 1033c24 114.667 55.5 201 94.5 259s96.167 105.667 171.5 143s155.333 56 240 56c100.667 0 180.667 -25 240 -75s89 -103.333 89 -160c0 -33.333 -8.83301 -70 -26.5 -110s-52.667 -93.333 -105 -160s-84.833 -112.834 -97.5 -138.501s-19 -49.167 -19 -70.5
c0 -19.333 4.5 -37.166 13.5 -53.499s41.5 -53.5 97.5 -111.5c81.333 -83.333 130.666 -142.166 147.999 -176.499s26 -71.5 26 -111.5c0 -54.667 -16.833 -109.834 -50.5 -165.501s-82.5 -100.167 -146.5 -133.5s-130.333 -50 -199 -50
c-141.333 0 -259.333 78.333 -354 235l152 82c34 -65.333 67.333 -109.833 100 -133.5s65.667 -35.5 99 -35.5c55.333 0 105 21.833 149 65.5s66 90.5 66 140.5c0 22 -5.66699 43 -17 63s-57.333 69.333 -138 148c-58.667 58 -95.5 101.5 -110.5 130.5
s-22.5 57.167 -22.5 84.5c0 32 10.167 69 30.5 111s62.833 103.333 127.5 184s97 143.334 97 188.001c0 29.333 -14 55.666 -42 78.999s-65.667 35 -113 35c-30 0 -61.833 -5.83301 -95.5 -17.5s-63.167 -26.834 -88.5 -45.501s-46.666 -39.334 -63.999 -62.001
s-32.333 -52 -45 -88c-6 -16.667 -16 -59 -30 -127l-212 -1012h-181z" />
    <glyph glyph-name="agrave" unicode="&#xe0;" 
d="M784 132c-62.667 -54 -123.002 -93.499 -181.002 -118.499s-120 -37.5 -186 -37.5c-98 0 -177 28.833 -237 86.5s-90 131.5 -90 221.5c0 59.333 13.5 111.833 40.5 157.5s62.833 82.334 107.5 110.001s99.334 47.5 164.001 59.5c40.667 8 117.834 14.333 231.501 19
s195.167 16.667 244.5 36c14 49.333 21 90.333 21 123c0 42 -15.333 75 -46 99c-42 33.333 -103.333 50 -184 50c-76 0 -138.167 -16.833 -186.5 -50.5s-83.5 -81.5 -105.5 -143.5l-183 16c37.333 105.333 96.5 186 177.5 242s183.167 84 306.5 84
c131.333 0 235.333 -31.333 312 -94c58.667 -46.667 88 -107.334 88 -182.001c0 -56.667 -8.33301 -122.334 -25 -197.001l-59 -264c-18.667 -84 -28 -152.333 -28 -205c0 -33.333 7.33301 -81.333 22 -144h-183c-10 34.667 -17 78.667 -21 132zM850.998 538.001
c-25.333 -10 -52.501 -17.6699 -81.501 -23.0029s-77.5 -11 -145.5 -17c-105.333 -9.33301 -179.666 -21.166 -222.999 -35.499s-76 -37.166 -98 -68.499s-33 -66 -33 -104c0 -50.667 17.5 -92.334 52.5 -125.001s84.833 -49 149.5 -49c60 0 117.667 15.833 173 47.5
s99 75.834 131 132.501s57 137.334 75 242.001zM765.997 1191l-195 275h220l116 -275h-141z" />
    <glyph glyph-name="aacute" unicode="&#xe1;" 
d="M784 132c-62.667 -54 -123.002 -93.499 -181.002 -118.499s-120 -37.5 -186 -37.5c-98 0 -177 28.833 -237 86.5s-90 131.5 -90 221.5c0 59.333 13.5 111.833 40.5 157.5s62.833 82.334 107.5 110.001s99.334 47.5 164.001 59.5c40.667 8 117.834 14.333 231.501 19
s195.167 16.667 244.5 36c14 49.333 21 90.333 21 123c0 42 -15.333 75 -46 99c-42 33.333 -103.333 50 -184 50c-76 0 -138.167 -16.833 -186.5 -50.5s-83.5 -81.5 -105.5 -143.5l-183 16c37.333 105.333 96.5 186 177.5 242s183.167 84 306.5 84
c131.333 0 235.333 -31.333 312 -94c58.667 -46.667 88 -107.334 88 -182.001c0 -56.667 -8.33301 -122.334 -25 -197.001l-59 -264c-18.667 -84 -28 -152.333 -28 -205c0 -33.333 7.33301 -81.333 22 -144h-183c-10 34.667 -17 78.667 -21 132zM850.998 538.001
c-25.333 -10 -52.501 -17.6699 -81.501 -23.0029s-77.5 -11 -145.5 -17c-105.333 -9.33301 -179.666 -21.166 -222.999 -35.499s-76 -37.166 -98 -68.499s-33 -66 -33 -104c0 -50.667 17.5 -92.334 52.5 -125.001s84.833 -49 149.5 -49c60 0 117.667 15.833 173 47.5
s99 75.834 131 132.501s57 137.334 75 242.001zM554.997 1191l188 275h228l-266 -275h-150z" />
    <glyph glyph-name="acircumflex" unicode="&#xe2;" 
d="M784 132c-62.667 -54 -123.002 -93.499 -181.002 -118.499s-120 -37.5 -186 -37.5c-98 0 -177 28.833 -237 86.5s-90 131.5 -90 221.5c0 59.333 13.5 111.833 40.5 157.5s62.833 82.334 107.5 110.001s99.334 47.5 164.001 59.5c40.667 8 117.834 14.333 231.501 19
s195.167 16.667 244.5 36c14 49.333 21 90.333 21 123c0 42 -15.333 75 -46 99c-42 33.333 -103.333 50 -184 50c-76 0 -138.167 -16.833 -186.5 -50.5s-83.5 -81.5 -105.5 -143.5l-183 16c37.333 105.333 96.5 186 177.5 242s183.167 84 306.5 84
c131.333 0 235.333 -31.333 312 -94c58.667 -46.667 88 -107.334 88 -182.001c0 -56.667 -8.33301 -122.334 -25 -197.001l-59 -264c-18.667 -84 -28 -152.333 -28 -205c0 -33.333 7.33301 -81.333 22 -144h-183c-10 34.667 -17 78.667 -21 132zM850.998 538.001
c-25.333 -10 -52.501 -17.6699 -81.501 -23.0029s-77.5 -11 -145.5 -17c-105.333 -9.33301 -179.666 -21.166 -222.999 -35.499s-76 -37.166 -98 -68.499s-33 -66 -33 -104c0 -50.667 17.5 -92.334 52.5 -125.001s84.833 -49 149.5 -49c60 0 117.667 15.833 173 47.5
s99 75.834 131 132.501s57 137.334 75 242.001zM431.997 1191l265 275h200l124 -275h-158l-80 178l-165 -178h-186z" />
    <glyph glyph-name="atilde" unicode="&#xe3;" 
d="M784 132c-62.667 -54 -123.002 -93.499 -181.002 -118.499s-120 -37.5 -186 -37.5c-98 0 -177 28.833 -237 86.5s-90 131.5 -90 221.5c0 59.333 13.5 111.833 40.5 157.5s62.833 82.334 107.5 110.001s99.334 47.5 164.001 59.5c40.667 8 117.834 14.333 231.501 19
s195.167 16.667 244.5 36c14 49.333 21 90.333 21 123c0 42 -15.333 75 -46 99c-42 33.333 -103.333 50 -184 50c-76 0 -138.167 -16.833 -186.5 -50.5s-83.5 -81.5 -105.5 -143.5l-183 16c37.333 105.333 96.5 186 177.5 242s183.167 84 306.5 84
c131.333 0 235.333 -31.333 312 -94c58.667 -46.667 88 -107.334 88 -182.001c0 -56.667 -8.33301 -122.334 -25 -197.001l-59 -264c-18.667 -84 -28 -152.333 -28 -205c0 -33.333 7.33301 -81.333 22 -144h-183c-10 34.667 -17 78.667 -21 132zM850.998 538.001
c-25.333 -10 -52.501 -17.6699 -81.501 -23.0029s-77.5 -11 -145.5 -17c-105.333 -9.33301 -179.666 -21.166 -222.999 -35.499s-76 -37.166 -98 -68.499s-33 -66 -33 -104c0 -50.667 17.5 -92.334 52.5 -125.001s84.833 -49 149.5 -49c60 0 117.667 15.833 173 47.5
s99 75.834 131 132.501s57 137.334 75 242.001zM430.997 1223c22 88.667 49.1689 148.168 81.502 178.501s72.833 45.5 121.5 45.5c22 0 43.5 -2.66699 64.5 -8s57.5 -19.5 109.5 -42.5s87.667 -34.5 107 -34.5c15.333 0 29 5.5 41 16.5s22 31.833 30 62.5h121
c-6.66699 -68.667 -28.834 -122.334 -66.501 -161.001s-81.167 -58 -130.5 -58c-26.667 0 -60.334 8.66699 -101.001 26c-92 40 -148.667 60 -170 60s-39 -6.83301 -53 -20.5s-24 -35.167 -30 -64.5h-125z" />
    <glyph glyph-name="adieresis" unicode="&#xe4;" 
d="M784 132c-62.667 -54 -123.002 -93.499 -181.002 -118.499s-120 -37.5 -186 -37.5c-98 0 -177 28.833 -237 86.5s-90 131.5 -90 221.5c0 59.333 13.5 111.833 40.5 157.5s62.833 82.334 107.5 110.001s99.334 47.5 164.001 59.5c40.667 8 117.834 14.333 231.501 19
s195.167 16.667 244.5 36c14 49.333 21 90.333 21 123c0 42 -15.333 75 -46 99c-42 33.333 -103.333 50 -184 50c-76 0 -138.167 -16.833 -186.5 -50.5s-83.5 -81.5 -105.5 -143.5l-183 16c37.333 105.333 96.5 186 177.5 242s183.167 84 306.5 84
c131.333 0 235.333 -31.333 312 -94c58.667 -46.667 88 -107.334 88 -182.001c0 -56.667 -8.33301 -122.334 -25 -197.001l-59 -264c-18.667 -84 -28 -152.333 -28 -205c0 -33.333 7.33301 -81.333 22 -144h-183c-10 34.667 -17 78.667 -21 132zM850.998 538.001
c-25.333 -10 -52.501 -17.6699 -81.501 -23.0029s-77.5 -11 -145.5 -17c-105.333 -9.33301 -179.666 -21.166 -222.999 -35.499s-76 -37.166 -98 -68.499s-33 -66 -33 -104c0 -50.667 17.5 -92.334 52.5 -125.001s84.833 -49 149.5 -49c60 0 117.667 15.833 173 47.5
s99 75.834 131 132.501s57 137.334 75 242.001zM445.997 1227l43 205h189l-43 -205h-189zM814.997 1227l43 205h188l-42 -205h-189z" />
    <glyph glyph-name="aring" unicode="&#xe5;" 
d="M784 132c-62.667 -54 -123.002 -93.499 -181.002 -118.499s-120 -37.5 -186 -37.5c-98 0 -177 28.833 -237 86.5s-90 131.5 -90 221.5c0 59.333 13.5 111.833 40.5 157.5s62.833 82.334 107.5 110.001s99.334 47.5 164.001 59.5c40.667 8 117.834 14.333 231.501 19
s195.167 16.667 244.5 36c14 49.333 21 90.333 21 123c0 42 -15.333 75 -46 99c-42 33.333 -103.333 50 -184 50c-76 0 -138.167 -16.833 -186.5 -50.5s-83.5 -81.5 -105.5 -143.5l-183 16c37.333 105.333 96.5 186 177.5 242s183.167 84 306.5 84
c131.333 0 235.333 -31.333 312 -94c58.667 -46.667 88 -107.334 88 -182.001c0 -56.667 -8.33301 -122.334 -25 -197.001l-59 -264c-18.667 -84 -28 -152.333 -28 -205c0 -33.333 7.33301 -81.333 22 -144h-183c-10 34.667 -17 78.667 -21 132zM850.998 538.001
c-25.333 -10 -52.501 -17.6699 -81.501 -23.0029s-77.5 -11 -145.5 -17c-105.333 -9.33301 -179.666 -21.166 -222.999 -35.499s-76 -37.166 -98 -68.499s-33 -66 -33 -104c0 -50.667 17.5 -92.334 52.5 -125.001s84.833 -49 149.5 -49c60 0 117.667 15.833 173 47.5
s99 75.834 131 132.501s57 137.334 75 242.001zM544.997 1320c0 50.667 17.833 93.667 53.5 129s78.5 53 128.5 53c50.667 0 93.667 -17.833 129 -53.5s53 -78.5 53 -128.5c0 -50.667 -17.833 -93.667 -53.5 -129s-78.5 -53 -128.5 -53s-92.833 17.667 -128.5 53
s-53.5 78.333 -53.5 129zM619.997 1320c0 -30 10.5 -55.5 31.5 -76.5s46.167 -31.5 75.5 -31.5c30 0 55.5 10.5 76.5 31.5s31.5 46.5 31.5 76.5c0 29.333 -10.5 54.5 -31.5 75.5s-46.5 31.5 -76.5 31.5c-29.333 0 -54.5 -10.5 -75.5 -31.5s-31.5 -46.167 -31.5 -75.5z" />
    <glyph glyph-name="ae" unicode="&#xe6;" horiz-adv-x="1821" 
d="M1530 359l183.003 -16.999c-58 -120.667 -128.5 -211.834 -211.5 -273.501s-179.833 -92.5 -290.5 -92.5c-77.333 0 -149.5 19 -216.5 57s-122.167 97.667 -165.5 179c-52.667 -82 -114.834 -142 -186.501 -180s-144.834 -57 -219.501 -57
c-106.667 0 -189.334 28.333 -248.001 85s-88 131.667 -88 225c0 58 12.667 110 38 156s57.5 80.833 96.5 104.5s89.833 41.834 152.5 54.501c40 8 115.167 16.5 225.5 25.5s189.5 20.833 237.5 35.5c15.333 48 23 89 23 123c0 49.333 -16 88.666 -48 117.999
s-79.333 44 -142 44c-76 0 -138.5 -16.333 -187.5 -49s-86.5 -83 -112.5 -151l-179 15c34.667 103.333 92.834 183.5 174.501 240.5s184.5 85.5 308.5 85.5c72 0 135.667 -12.167 191 -36.5s102 -60.833 140 -109.5c93.333 96.667 209.666 145 348.999 145
c82 0 155.167 -18.5 219.5 -55.5s113.5 -90.5 147.5 -160.5s51 -145.667 51 -227c0 -40 -5 -92.667 -15 -158h-773c-2.66699 -20 -4 -40 -4 -60c0 -100 22 -175.167 66 -225.5s100 -75.5 168 -75.5c60 0 117.667 19.167 173 57.5s103 97.5 143 177.5zM1019 624.001
l583.001 0.000976562c0.666992 22 1 36.333 1 43c0 53.333 -9.83301 101.666 -29.5 144.999s-48.667 76.5 -87 99.5s-79.5 34.5 -123.5 34.5c-68.667 0 -136.334 -28.5 -203.001 -85.5s-113.667 -135.833 -141 -236.5zM809.004 525.002
c-70.667 -16.667 -157 -29.667 -259 -39c-75.333 -6.66699 -126.333 -14.667 -153 -24c-41.333 -14 -72.5 -34.833 -93.5 -62.5s-31.5 -62.5 -31.5 -104.5c0 -53.333 16.833 -96.333 50.5 -129s81.5 -49 143.5 -49c80 0 147.333 28 202 84
c70.667 73.333 117.667 181.333 141 324z" />
    <glyph glyph-name="ccedilla" unicode="&#xe7;" horiz-adv-x="1024" 
d="M801 387l180.998 -18.999c-45.333 -132.667 -109.833 -231.167 -193.5 -295.5s-178.834 -96.5 -285.501 -96.5c-115.333 0 -208.833 37.333 -280.5 112s-107.5 179 -107.5 313c0 116 23 230 69 342s111.833 197.167 197.5 255.5s183.5 87.5 293.5 87.5
c114 0 204.333 -32.167 271 -96.5s100 -149.5 100 -255.5l-178 -12c-0.666992 67.333 -20.167 120 -58.5 158s-88.833 57 -151.5 57c-72.667 0 -135.667 -23 -189 -69s-95.166 -115.833 -125.499 -209.5s-45.5 -183.834 -45.5 -270.501c0 -90.667 20 -158.667 60 -204
s89.333 -68 148 -68s114.834 22.333 168.501 67s95.834 112.667 126.501 204zM352.998 -130.999l41.001 161h140l-24 -90c58.667 -8 103.334 -28.167 134.001 -60.5s46 -68.833 46 -109.5c0 -48 -20.333 -86.333 -61 -115c-58.667 -41.333 -152.334 -62 -281.001 -62
c-64.667 0 -121.334 4 -170.001 12l22 112c40.667 -2 89.334 -3 146.001 -3c68.667 0 114.167 7.33301 136.5 22s33.5 31 33.5 49c0 21.333 -9.66699 39 -29 53c-28.667 20 -73.334 30.333 -134.001 31z" />
    <glyph glyph-name="egrave" unicode="&#xe8;" 
d="M848 361l176.001 -18c-25.333 -87.333 -83.5 -170.333 -174.5 -249s-199.5 -118 -325.5 -118c-78.667 0 -150.834 18.167 -216.501 54.5s-115.667 89.166 -150 158.499s-51.5 148.333 -51.5 237c0 116 26.833 228.5 80.5 337.5s123.167 190 208.5 243
s177.666 79.5 276.999 79.5c126.667 0 227.834 -39.333 303.501 -118s113.5 -186 113.5 -322c0 -52 -4.66699 -105.333 -14 -160h-782c-2.66699 -20.667 -4 -39.334 -4 -56.001c0 -99.333 22.833 -175.166 68.5 -227.499s101.5 -78.5 167.5 -78.5c62 0 123 20.333 183 61
s106.667 99.334 140 176.001zM322.001 624l595.999 -0.000976562c0.666992 18.667 1 32 1 40c0 90.667 -22.667 160.167 -68 208.5s-103.666 72.5 -174.999 72.5c-77.333 0 -147.833 -26.667 -211.5 -80s-111.167 -133.666 -142.5 -240.999zM767 1191l-195 275h220l116 -275
h-141z" />
    <glyph glyph-name="eacute" unicode="&#xe9;" 
d="M848 361l176.001 -18c-25.333 -87.333 -83.5 -170.333 -174.5 -249s-199.5 -118 -325.5 -118c-78.667 0 -150.834 18.167 -216.501 54.5s-115.667 89.166 -150 158.499s-51.5 148.333 -51.5 237c0 116 26.833 228.5 80.5 337.5s123.167 190 208.5 243
s177.666 79.5 276.999 79.5c126.667 0 227.834 -39.333 303.501 -118s113.5 -186 113.5 -322c0 -52 -4.66699 -105.333 -14 -160h-782c-2.66699 -20.667 -4 -39.334 -4 -56.001c0 -99.333 22.833 -175.166 68.5 -227.499s101.5 -78.5 167.5 -78.5c62 0 123 20.333 183 61
s106.667 99.334 140 176.001zM322.001 624l595.999 -0.000976562c0.666992 18.667 1 32 1 40c0 90.667 -22.667 160.167 -68 208.5s-103.666 72.5 -174.999 72.5c-77.333 0 -147.833 -26.667 -211.5 -80s-111.167 -133.666 -142.5 -240.999zM572 1191l188 275h228l-266 -275
h-150z" />
    <glyph glyph-name="ecircumflex" unicode="&#xea;" 
d="M848 361l176.001 -18c-25.333 -87.333 -83.5 -170.333 -174.5 -249s-199.5 -118 -325.5 -118c-78.667 0 -150.834 18.167 -216.501 54.5s-115.667 89.166 -150 158.499s-51.5 148.333 -51.5 237c0 116 26.833 228.5 80.5 337.5s123.167 190 208.5 243
s177.666 79.5 276.999 79.5c126.667 0 227.834 -39.333 303.501 -118s113.5 -186 113.5 -322c0 -52 -4.66699 -105.333 -14 -160h-782c-2.66699 -20.667 -4 -39.334 -4 -56.001c0 -99.333 22.833 -175.166 68.5 -227.499s101.5 -78.5 167.5 -78.5c62 0 123 20.333 183 61
s106.667 99.334 140 176.001zM322.001 624l595.999 -0.000976562c0.666992 18.667 1 32 1 40c0 90.667 -22.667 160.167 -68 208.5s-103.666 72.5 -174.999 72.5c-77.333 0 -147.833 -26.667 -211.5 -80s-111.167 -133.666 -142.5 -240.999zM445 1191l265 275h200l124 -275
h-158l-80 178l-165 -178h-186z" />
    <glyph glyph-name="edieresis" unicode="&#xeb;" 
d="M848 361l176.001 -18c-25.333 -87.333 -83.5 -170.333 -174.5 -249s-199.5 -118 -325.5 -118c-78.667 0 -150.834 18.167 -216.501 54.5s-115.667 89.166 -150 158.499s-51.5 148.333 -51.5 237c0 116 26.833 228.5 80.5 337.5s123.167 190 208.5 243
s177.666 79.5 276.999 79.5c126.667 0 227.834 -39.333 303.501 -118s113.5 -186 113.5 -322c0 -52 -4.66699 -105.333 -14 -160h-782c-2.66699 -20.667 -4 -39.334 -4 -56.001c0 -99.333 22.833 -175.166 68.5 -227.499s101.5 -78.5 167.5 -78.5c62 0 123 20.333 183 61
s106.667 99.334 140 176.001zM322.001 624l595.999 -0.000976562c0.666992 18.667 1 32 1 40c0 90.667 -22.667 160.167 -68 208.5s-103.666 72.5 -174.999 72.5c-77.333 0 -147.833 -26.667 -211.5 -80s-111.167 -133.666 -142.5 -240.999zM447 1227l43 205h189l-43 -205
h-189zM816 1227l43 205h188l-42 -205h-189z" />
    <glyph glyph-name="igrave" unicode="&#xec;" horiz-adv-x="569" 
d="M125 0l222 1062h181l-222 -1062h-181zM494 1191l-195 275h220l116 -275h-141z" />
    <glyph glyph-name="iacute" unicode="&#xed;" horiz-adv-x="569" 
d="M125 0l222 1062h181l-222 -1062h-181zM299 1191l188 275h228l-266 -275h-150z" />
    <glyph glyph-name="icircumflex" unicode="&#xee;" horiz-adv-x="569" 
d="M125 0l222 1062h181l-222 -1062h-181zM152 1191l265 275h200l124 -275h-158l-80 178l-165 -178h-186z" />
    <glyph glyph-name="idieresis" unicode="&#xef;" horiz-adv-x="569" 
d="M125 0l222 1062h181l-222 -1062h-181zM174 1227l43 205h189l-43 -205h-189zM543 1227l43 205h188l-42 -205h-189z" />
    <glyph glyph-name="eth" unicode="&#xf0;" 
d="M626 1466l187.999 -0.000976562c24.667 -23.333 49.334 -48.333 74.001 -75l177 75l46 -98l-156 -70c55.333 -90.667 96.333 -182 123 -274s40 -198.333 40 -319c0 -139.333 -27.833 -268.666 -83.5 -387.999s-124.667 -206.166 -207 -260.499
s-179.833 -81.5 -292.5 -81.5c-132 0 -237.5 39.5 -316.5 118.5s-118.5 184.5 -118.5 316.5c0 115.333 25.333 226 76 332s118.167 185.833 202.5 239.5s167.166 80.5 248.499 80.5c59.333 0 114.333 -10.333 165 -31c38.667 -16 81.334 -44.667 128.001 -86
c-18 95.333 -53.333 190.666 -106 285.999l-228 -100l-48 100l210 95c-46 60 -86.667 106.667 -122 140zM924.999 632.999c0 90 -23.833 160 -71.5 210s-110.167 75 -187.5 75c-64.667 0 -125.667 -19.333 -183 -58s-104.666 -100 -141.999 -184s-56 -170.667 -56 -260
c0 -97.333 23 -170.833 69 -220.5s107.667 -74.5 185 -74.5c74 0 142.167 26.333 204.5 79s108.166 122 137.499 208s44 161 44 225z" />
    <glyph glyph-name="ntilde" unicode="&#xf1;" 
d="M68 0l222 1062h164l-39 -185c71.333 72.667 138 125.667 200 159s125.333 50 190 50c86 0 153.5 -23.333 202.5 -70s73.5 -109 73.5 -187c0 -39.333 -8.66699 -101.333 -26 -186l-135 -643h-181l141 673c14 65.333 21 113.666 21 144.999c0 35.333 -12.167 64 -36.5 86
s-59.5 33 -105.5 33c-92.667 0 -175.167 -33.333 -247.5 -100s-125.5 -181 -159.5 -343l-103 -494h-181zM414 1222c22 88.667 49.1689 148.168 81.502 178.501s72.833 45.5 121.5 45.5c22 0 43.5 -2.66699 64.5 -8s57.5 -19.5 109.5 -42.5s87.667 -34.5 107 -34.5
c15.333 0 29 5.5 41 16.5s22 31.833 30 62.5h121c-6.66699 -68.667 -28.834 -122.334 -66.501 -161.001s-81.167 -58 -130.5 -58c-26.667 0 -60.334 8.66699 -101.001 26c-92 40 -148.667 60 -170 60s-39 -6.83301 -53 -20.5s-24 -35.167 -30 -64.5h-125z" />
    <glyph glyph-name="ograve" unicode="&#xf2;" 
d="M100 403c0 207.333 61.002 378.999 183.002 514.999c100.667 112 232.667 168 396 168c128 0 231.167 -40 309.5 -120s117.5 -188 117.5 -324c0 -122 -24.667 -235.5 -74 -340.5s-119.5 -185.5 -210.5 -241.5s-186.833 -84 -287.5 -84
c-82.667 0 -157.834 17.667 -225.501 53s-119.334 85.333 -155.001 150s-53.5 139.334 -53.5 224.001zM281.002 420.999c0 -100 24.002 -175.833 72.002 -227.5s109 -77.5 183 -77.5c38.667 0 77 7.83301 115 23.5s73.333 39.5 106 71.5s60.5 68.5 83.5 109.5
s41.5 85.167 55.5 132.5c20.667 66 31 129.333 31 190c0 96 -24.167 170.5 -72.5 223.5s-109.166 79.5 -182.499 79.5c-56.667 0 -108.334 -13.5 -155.001 -40.5s-88.834 -66.5 -126.501 -118.5s-65.334 -112.5 -83.001 -181.5s-26.5 -130.5 -26.5 -184.5zM771.004 1191
l-195 275h220l116 -275h-141z" />
    <glyph glyph-name="oacute" unicode="&#xf3;" 
d="M100 403c0 207.333 61.002 378.999 183.002 514.999c100.667 112 232.667 168 396 168c128 0 231.167 -40 309.5 -120s117.5 -188 117.5 -324c0 -122 -24.667 -235.5 -74 -340.5s-119.5 -185.5 -210.5 -241.5s-186.833 -84 -287.5 -84
c-82.667 0 -157.834 17.667 -225.501 53s-119.334 85.333 -155.001 150s-53.5 139.334 -53.5 224.001zM281.002 420.999c0 -100 24.002 -175.833 72.002 -227.5s109 -77.5 183 -77.5c38.667 0 77 7.83301 115 23.5s73.333 39.5 106 71.5s60.5 68.5 83.5 109.5
s41.5 85.167 55.5 132.5c20.667 66 31 129.333 31 190c0 96 -24.167 170.5 -72.5 223.5s-109.166 79.5 -182.499 79.5c-56.667 0 -108.334 -13.5 -155.001 -40.5s-88.834 -66.5 -126.501 -118.5s-65.334 -112.5 -83.001 -181.5s-26.5 -130.5 -26.5 -184.5zM536.004 1191
l188 275h228l-266 -275h-150z" />
    <glyph glyph-name="ocircumflex" unicode="&#xf4;" 
d="M100 403c0 207.333 61.002 378.999 183.002 514.999c100.667 112 232.667 168 396 168c128 0 231.167 -40 309.5 -120s117.5 -188 117.5 -324c0 -122 -24.667 -235.5 -74 -340.5s-119.5 -185.5 -210.5 -241.5s-186.833 -84 -287.5 -84
c-82.667 0 -157.834 17.667 -225.501 53s-119.334 85.333 -155.001 150s-53.5 139.334 -53.5 224.001zM281.002 420.999c0 -100 24.002 -175.833 72.002 -227.5s109 -77.5 183 -77.5c38.667 0 77 7.83301 115 23.5s73.333 39.5 106 71.5s60.5 68.5 83.5 109.5
s41.5 85.167 55.5 132.5c20.667 66 31 129.333 31 190c0 96 -24.167 170.5 -72.5 223.5s-109.166 79.5 -182.499 79.5c-56.667 0 -108.334 -13.5 -155.001 -40.5s-88.834 -66.5 -126.501 -118.5s-65.334 -112.5 -83.001 -181.5s-26.5 -130.5 -26.5 -184.5zM413.004 1191
l265 275h200l124 -275h-158l-80 178l-165 -178h-186z" />
    <glyph glyph-name="otilde" unicode="&#xf5;" 
d="M100 403c0 207.333 61.002 378.999 183.002 514.999c100.667 112 232.667 168 396 168c128 0 231.167 -40 309.5 -120s117.5 -188 117.5 -324c0 -122 -24.667 -235.5 -74 -340.5s-119.5 -185.5 -210.5 -241.5s-186.833 -84 -287.5 -84
c-82.667 0 -157.834 17.667 -225.501 53s-119.334 85.333 -155.001 150s-53.5 139.334 -53.5 224.001zM281.002 420.999c0 -100 24.002 -175.833 72.002 -227.5s109 -77.5 183 -77.5c38.667 0 77 7.83301 115 23.5s73.333 39.5 106 71.5s60.5 68.5 83.5 109.5
s41.5 85.167 55.5 132.5c20.667 66 31 129.333 31 190c0 96 -24.167 170.5 -72.5 223.5s-109.166 79.5 -182.499 79.5c-56.667 0 -108.334 -13.5 -155.001 -40.5s-88.834 -66.5 -126.501 -118.5s-65.334 -112.5 -83.001 -181.5s-26.5 -130.5 -26.5 -184.5zM388.004 1222
c22 88.667 49.1689 148.168 81.502 178.501s72.833 45.5 121.5 45.5c22 0 43.5 -2.66699 64.5 -8s57.5 -19.5 109.5 -42.5s87.667 -34.5 107 -34.5c15.333 0 29 5.5 41 16.5s22 31.833 30 62.5h121c-6.66699 -68.667 -28.834 -122.334 -66.501 -161.001
s-81.167 -58 -130.5 -58c-26.667 0 -60.334 8.66699 -101.001 26c-92 40 -148.667 60 -170 60s-39 -6.83301 -53 -20.5s-24 -35.167 -30 -64.5h-125z" />
    <glyph glyph-name="odieresis" unicode="&#xf6;" 
d="M100 403c0 207.333 61.002 378.999 183.002 514.999c100.667 112 232.667 168 396 168c128 0 231.167 -40 309.5 -120s117.5 -188 117.5 -324c0 -122 -24.667 -235.5 -74 -340.5s-119.5 -185.5 -210.5 -241.5s-186.833 -84 -287.5 -84
c-82.667 0 -157.834 17.667 -225.501 53s-119.334 85.333 -155.001 150s-53.5 139.334 -53.5 224.001zM281.002 420.999c0 -100 24.002 -175.833 72.002 -227.5s109 -77.5 183 -77.5c38.667 0 77 7.83301 115 23.5s73.333 39.5 106 71.5s60.5 68.5 83.5 109.5
s41.5 85.167 55.5 132.5c20.667 66 31 129.333 31 190c0 96 -24.167 170.5 -72.5 223.5s-109.166 79.5 -182.499 79.5c-56.667 0 -108.334 -13.5 -155.001 -40.5s-88.834 -66.5 -126.501 -118.5s-65.334 -112.5 -83.001 -181.5s-26.5 -130.5 -26.5 -184.5zM427.004 1227
l43 205h189l-43 -205h-189zM796.004 1227l43 205h188l-42 -205h-189z" />
    <glyph glyph-name="divide" unicode="&#xf7;" horiz-adv-x="1124" 
d="M509 922v205h205v-205h-205zM1096 639h-968v168h968v-168zM509 319v205h205v-205h-205z" />
    <glyph glyph-name="oslash" unicode="&#xf8;" horiz-adv-x="1251" 
d="M993 1018l112 140.999l91 -72l-117 -147c62 -78 93 -179.333 93 -304c0 -117.333 -24.333 -228.5 -73 -333.5s-118.667 -185.667 -210 -242s-187.333 -84.5 -288 -84.5c-90.667 0 -172 21 -244 63l-114 -141l-90 69l115 144c-67.333 77.333 -101 179 -101 305
c0 116.667 25 229.834 75 339.501s119.333 192.167 208 247.5s187.334 83 296.001 83c93.333 0 175.666 -22.667 246.999 -68zM893 893.999c-43.333 34.667 -94.666 51.999 -153.999 51.999c-68.667 0 -133.334 -22 -194.001 -66s-108.667 -110 -144 -198s-53 -176 -53 -264
c0 -67.333 11 -122.666 33 -165.999zM455 161.998c43.333 -30.667 92.667 -45.999 148 -45.999c49.333 0 96.166 12 140.499 36s85.833 60.167 124.5 108.5s69.334 108.666 92.001 180.999s34 139.833 34 202.5c0 56 -10 107 -30 153z" />
    <glyph glyph-name="ugrave" unicode="&#xf9;" 
d="M793 192c-127.333 -144 -257.666 -216.001 -390.999 -216.001c-82 0 -148.167 23.5 -198.5 70.5s-75.5 104.5 -75.5 172.5c0 44.667 11.333 121.334 34 230.001l128 613h181l-142 -679c-12 -56.667 -18 -100.667 -18 -132c0 -40 12.167 -71.167 36.5 -93.5
s60.166 -33.5 107.499 -33.5c50.667 0 100.167 12.333 148.5 37s90 58 125 100s63.5 91.667 85.5 149c14.667 36.667 31.667 101 51 193l96 459h181l-222 -1062h-167zM772 1191l-195 275h220l116 -275h-141z" />
    <glyph glyph-name="uacute" unicode="&#xfa;" 
d="M793 192c-127.333 -144 -257.666 -216.001 -390.999 -216.001c-82 0 -148.167 23.5 -198.5 70.5s-75.5 104.5 -75.5 172.5c0 44.667 11.333 121.334 34 230.001l128 613h181l-142 -679c-12 -56.667 -18 -100.667 -18 -132c0 -40 12.167 -71.167 36.5 -93.5
s60.166 -33.5 107.499 -33.5c50.667 0 100.167 12.333 148.5 37s90 58 125 100s63.5 91.667 85.5 149c14.667 36.667 31.667 101 51 193l96 459h181l-222 -1062h-167zM585 1191l188 275h228l-266 -275h-150z" />
    <glyph glyph-name="ucircumflex" unicode="&#xfb;" 
d="M793 192c-127.333 -144 -257.666 -216.001 -390.999 -216.001c-82 0 -148.167 23.5 -198.5 70.5s-75.5 104.5 -75.5 172.5c0 44.667 11.333 121.334 34 230.001l128 613h181l-142 -679c-12 -56.667 -18 -100.667 -18 -132c0 -40 12.167 -71.167 36.5 -93.5
s60.166 -33.5 107.499 -33.5c50.667 0 100.167 12.333 148.5 37s90 58 125 100s63.5 91.667 85.5 149c14.667 36.667 31.667 101 51 193l96 459h181l-222 -1062h-167zM426 1191l265 275h200l124 -275h-158l-80 178l-165 -178h-186z" />
    <glyph glyph-name="udieresis" unicode="&#xfc;" 
d="M793 192c-127.333 -144 -257.666 -216.001 -390.999 -216.001c-82 0 -148.167 23.5 -198.5 70.5s-75.5 104.5 -75.5 172.5c0 44.667 11.333 121.334 34 230.001l128 613h181l-142 -679c-12 -56.667 -18 -100.667 -18 -132c0 -40 12.167 -71.167 36.5 -93.5
s60.166 -33.5 107.499 -33.5c50.667 0 100.167 12.333 148.5 37s90 58 125 100s63.5 91.667 85.5 149c14.667 36.667 31.667 101 51 193l96 459h181l-222 -1062h-167zM452 1227l43 205h189l-43 -205h-189zM821 1227l43 205h188l-42 -205h-189z" />
    <glyph glyph-name="yacute" unicode="&#xfd;" horiz-adv-x="1024" 
d="M0 -410l11 170c37.333 -10.667 73.666 -16 108.999 -16c36.667 0 66.334 8.33301 89.001 25c29.333 22 61.333 63.333 96 124l58 104l-177 1065h178l80 -537c16 -106 29.667 -212 41 -318l475 855h189l-677 -1203c-65.333 -117.333 -123.333 -195 -174 -233
s-109 -57 -175 -57c-42 0 -83 7 -123 21zM523 1191l188 275h228l-266 -275h-150z" />
    <glyph glyph-name="thorn" unicode="&#xfe;" 
d="M-21 -407l393 1873h181l-112 -531c54.667 54.667 106 93.5 154 116.5s97.333 34.5 148 34.5c102 0 186.333 -36.833 253 -110.5s100 -179.167 100 -316.5c0 -110.667 -18.333 -211.5 -55 -302.5s-81.667 -164.167 -135 -219.5s-107.333 -96 -162 -122
s-110.667 -39 -168 -39c-127.333 0 -226 64.667 -296 194l-120 -577h-181zM337 434c0 -79.333 5.66699 -134.334 17 -165.001c16.667 -43.333 44 -78.333 82 -105s82 -40 132 -40c104 0 188 58.5 252 175.5s96 236.5 96 358.5c0 90 -21.5 159.5 -64.5 208.5
s-96.5 73.5 -160.5 73.5c-46 0 -88.667 -12.167 -128 -36.5s-75.833 -60.666 -109.5 -108.999s-61.5 -107.5 -83.5 -177.5s-33 -131 -33 -183z" />
    <glyph glyph-name="ydieresis" unicode="&#xff;" horiz-adv-x="1024" 
d="M0 -410l11 170c37.333 -10.667 73.666 -16 108.999 -16c36.667 0 66.334 8.33301 89.001 25c29.333 22 61.333 63.333 96 124l58 104l-177 1065h178l80 -537c16 -106 29.667 -212 41 -318l475 855h189l-677 -1203c-65.333 -117.333 -123.333 -195 -174 -233
s-109 -57 -175 -57c-42 0 -83 7 -123 21zM408 1227l43 205h189l-43 -205h-189zM777 1227l43 205h188l-42 -205h-189z" />
    <glyph glyph-name="Amacron" unicode="&#x100;" horiz-adv-x="1366" 
d="M-41 0l831 1466h231l242 -1466h-190l-71 422h-593l-235 -422h-215zM493 573h485l-57 368c-22 146 -35.667 267.667 -41 365c-33.333 -84 -82 -183.667 -146 -299zM615 1591l29 139h621l-29 -139h-621z" />
    <glyph glyph-name="amacron" unicode="&#x101;" 
d="M784 132c-62.667 -54 -123.002 -93.499 -181.002 -118.499s-120 -37.5 -186 -37.5c-98 0 -177 28.833 -237 86.5s-90 131.5 -90 221.5c0 59.333 13.5 111.833 40.5 157.5s62.833 82.334 107.5 110.001s99.334 47.5 164.001 59.5c40.667 8 117.834 14.333 231.501 19
s195.167 16.667 244.5 36c14 49.333 21 90.333 21 123c0 42 -15.333 75 -46 99c-42 33.333 -103.333 50 -184 50c-76 0 -138.167 -16.833 -186.5 -50.5s-83.5 -81.5 -105.5 -143.5l-183 16c37.333 105.333 96.5 186 177.5 242s183.167 84 306.5 84
c131.333 0 235.333 -31.333 312 -94c58.667 -46.667 88 -107.334 88 -182.001c0 -56.667 -8.33301 -122.334 -25 -197.001l-59 -264c-18.667 -84 -28 -152.333 -28 -205c0 -33.333 7.33301 -81.333 22 -144h-183c-10 34.667 -17 78.667 -21 132zM850.998 538.001
c-25.333 -10 -52.501 -17.6699 -81.501 -23.0029s-77.5 -11 -145.5 -17c-105.333 -9.33301 -179.666 -21.166 -222.999 -35.499s-76 -37.166 -98 -68.499s-33 -66 -33 -104c0 -50.667 17.5 -92.334 52.5 -125.001s84.833 -49 149.5 -49c60 0 117.667 15.833 173 47.5
s99 75.834 131 132.501s57 137.334 75 242.001zM429.997 1229l29 139h621l-29 -139h-621z" />
    <glyph glyph-name="Abreve" unicode="&#x102;" horiz-adv-x="1366" 
d="M-41 0l831 1466h231l242 -1466h-190l-71 422h-593l-235 -422h-215zM493 573h485l-57 368c-22 146 -35.667 267.667 -41 365c-33.333 -84 -82 -183.667 -146 -299zM644 1815h118.003c7.33301 -48.667 23.666 -84.167 48.999 -106.5s61 -33.5 107 -33.5
c48 0 89.5 12.333 124.5 37s61.833 59 80.5 103h120c-22.667 -80 -63.834 -143.333 -123.501 -190s-128.834 -70 -207.501 -70c-77.333 0 -140.333 23.5 -189 70.5s-75 110.167 -79 189.5z" />
    <glyph glyph-name="abreve" unicode="&#x103;" 
d="M784 132c-62.667 -54 -123.002 -93.499 -181.002 -118.499s-120 -37.5 -186 -37.5c-98 0 -177 28.833 -237 86.5s-90 131.5 -90 221.5c0 59.333 13.5 111.833 40.5 157.5s62.833 82.334 107.5 110.001s99.334 47.5 164.001 59.5c40.667 8 117.834 14.333 231.501 19
s195.167 16.667 244.5 36c14 49.333 21 90.333 21 123c0 42 -15.333 75 -46 99c-42 33.333 -103.333 50 -184 50c-76 0 -138.167 -16.833 -186.5 -50.5s-83.5 -81.5 -105.5 -143.5l-183 16c37.333 105.333 96.5 186 177.5 242s183.167 84 306.5 84
c131.333 0 235.333 -31.333 312 -94c58.667 -46.667 88 -107.334 88 -182.001c0 -56.667 -8.33301 -122.334 -25 -197.001l-59 -264c-18.667 -84 -28 -152.333 -28 -205c0 -33.333 7.33301 -81.333 22 -144h-183c-10 34.667 -17 78.667 -21 132zM850.998 538.001
c-25.333 -10 -52.501 -17.6699 -81.501 -23.0029s-77.5 -11 -145.5 -17c-105.333 -9.33301 -179.666 -21.166 -222.999 -35.499s-76 -37.166 -98 -68.499s-33 -66 -33 -104c0 -50.667 17.5 -92.334 52.5 -125.001s84.833 -49 149.5 -49c60 0 117.667 15.833 173 47.5
s99 75.834 131 132.501s57 137.334 75 242.001zM461.997 1422h118.003c7.33301 -48.667 23.666 -84.167 48.999 -106.5s61 -33.5 107 -33.5c48 0 89.5 12.333 124.5 37s61.833 59 80.5 103h120c-22.667 -80 -63.834 -143.333 -123.501 -190s-128.834 -70 -207.501 -70
c-77.333 0 -140.333 23.5 -189 70.5s-75 110.167 -79 189.5z" />
    <glyph glyph-name="Aogonek" unicode="&#x104;" horiz-adv-x="1366" 
d="M-41 0l831 1466h231l242 -1466h-190l-71 422h-593l-235 -422h-215zM493 573h485l-57 368c-22 146 -35.667 267.667 -41 365c-33.333 -84 -82 -183.667 -146 -299zM1243 -267l-26.999 -128.002c-53.333 -23.333 -101.333 -35 -144 -35c-65.333 0 -112.333 18.333 -141 55
c-18 22.667 -27 51.334 -27 86.001c0 56 22.667 113.333 68 172c32.667 42 75 81 127 117h132c-90.667 -49.333 -144.334 -113 -161.001 -191c-2 -9.33301 -3 -18.666 -3 -27.999c0 -48 26.667 -72 80 -72c31.333 0 63.333 8 96 24z" />
    <glyph glyph-name="aogonek" unicode="&#x105;" 
d="M784 132c-62.667 -54 -123.002 -93.499 -181.002 -118.499s-120 -37.5 -186 -37.5c-98 0 -177 28.833 -237 86.5s-90 131.5 -90 221.5c0 59.333 13.5 111.833 40.5 157.5s62.833 82.334 107.5 110.001s99.334 47.5 164.001 59.5c40.667 8 117.834 14.333 231.501 19
s195.167 16.667 244.5 36c14 49.333 21 90.333 21 123c0 42 -15.333 75 -46 99c-42 33.333 -103.333 50 -184 50c-76 0 -138.167 -16.833 -186.5 -50.5s-83.5 -81.5 -105.5 -143.5l-183 16c37.333 105.333 96.5 186 177.5 242s183.167 84 306.5 84
c131.333 0 235.333 -31.333 312 -94c58.667 -46.667 88 -107.334 88 -182.001c0 -56.667 -8.33301 -122.334 -25 -197.001l-59 -264c-18.667 -84 -28 -152.333 -28 -205c0 -33.333 7.33301 -81.333 22 -144h-183c-10 34.667 -17 78.667 -21 132zM850.998 538.001
c-25.333 -10 -52.501 -17.6699 -81.501 -23.0029s-77.5 -11 -145.5 -17c-105.333 -9.33301 -179.666 -21.166 -222.999 -35.499s-76 -37.166 -98 -68.499s-33 -66 -33 -104c0 -50.667 17.5 -92.334 52.5 -125.001s84.833 -49 149.5 -49c60 0 117.667 15.833 173 47.5
s99 75.834 131 132.501s57 137.334 75 242.001zM972.997 -267.002l-26.999 -128.002c-53.333 -23.333 -101.333 -35 -144 -35c-65.333 0 -112.333 18.333 -141 55c-18 22.667 -27 51.334 -27 86.001c0 56 22.667 113.333 68 172c32.667 42 75 81 127 117h132
c-90.667 -49.333 -144.334 -113 -161.001 -191c-2 -9.33301 -3 -18.666 -3 -27.999c0 -48 26.667 -72 80 -72c31.333 0 63.333 8 96 24z" />
    <glyph glyph-name="Cacute" unicode="&#x106;" horiz-adv-x="1479" 
d="M1235 516l193.999 -27.001c-61.333 -169.333 -150.666 -297.333 -267.999 -384s-249 -130 -395 -130c-178 0 -319.167 54.333 -423.5 163s-156.5 264.334 -156.5 467.001c0 264 79.333 482.333 238 655c141.333 154 317 231 527 231
c155.333 0 281.166 -41.667 377.499 -125s152.166 -195.333 167.499 -336l-183 -17c-19.333 106 -59.166 185.167 -119.499 237.5s-138.166 78.5 -233.499 78.5c-179.333 0 -324.333 -79.667 -435 -239c-96 -137.333 -144 -300.333 -144 -489
c0 -150.667 37 -265.667 111 -345s170.333 -119 289 -119c101.333 0 193 33 275 99s141.667 159.333 179 280zM835.999 1556l188 275h228l-266 -275h-150z" />
    <glyph glyph-name="cacute" unicode="&#x107;" horiz-adv-x="1024" 
d="M801 387l180.998 -18.999c-45.333 -132.667 -109.833 -231.167 -193.5 -295.5s-178.834 -96.5 -285.501 -96.5c-115.333 0 -208.833 37.333 -280.5 112s-107.5 179 -107.5 313c0 116 23 230 69 342s111.833 197.167 197.5 255.5s183.5 87.5 293.5 87.5
c114 0 204.333 -32.167 271 -96.5s100 -149.5 100 -255.5l-178 -12c-0.666992 67.333 -20.167 120 -58.5 158s-88.833 57 -151.5 57c-72.667 0 -135.667 -23 -189 -69s-95.166 -115.833 -125.499 -209.5s-45.5 -183.834 -45.5 -270.501c0 -90.667 20 -158.667 60 -204
s89.333 -68 148 -68s114.834 22.333 168.501 67s95.834 112.667 126.501 204zM584.998 1191l188 275h228l-266 -275h-150z" />
    <glyph glyph-name="Ccircumflex" unicode="&#x108;" horiz-adv-x="1479" 
d="M1235 516l193.999 -27.001c-61.333 -169.333 -150.666 -297.333 -267.999 -384s-249 -130 -395 -130c-178 0 -319.167 54.333 -423.5 163s-156.5 264.334 -156.5 467.001c0 264 79.333 482.333 238 655c141.333 154 317 231 527 231
c155.333 0 281.166 -41.667 377.499 -125s152.166 -195.333 167.499 -336l-183 -17c-19.333 106 -59.166 185.167 -119.499 237.5s-138.166 78.5 -233.499 78.5c-179.333 0 -324.333 -79.667 -435 -239c-96 -137.333 -144 -300.333 -144 -489
c0 -150.667 37 -265.667 111 -345s170.333 -119 289 -119c101.333 0 193 33 275 99s141.667 159.333 179 280zM696.999 1556l265 275h200l124 -275h-158l-80 178l-165 -178h-186z" />
    <glyph glyph-name="ccircumflex" unicode="&#x109;" horiz-adv-x="1024" 
d="M801 387l180.998 -18.999c-45.333 -132.667 -109.833 -231.167 -193.5 -295.5s-178.834 -96.5 -285.501 -96.5c-115.333 0 -208.833 37.333 -280.5 112s-107.5 179 -107.5 313c0 116 23 230 69 342s111.833 197.167 197.5 255.5s183.5 87.5 293.5 87.5
c114 0 204.333 -32.167 271 -96.5s100 -149.5 100 -255.5l-178 -12c-0.666992 67.333 -20.167 120 -58.5 158s-88.833 57 -151.5 57c-72.667 0 -135.667 -23 -189 -69s-95.166 -115.833 -125.499 -209.5s-45.5 -183.834 -45.5 -270.501c0 -90.667 20 -158.667 60 -204
s89.333 -68 148 -68s114.834 22.333 168.501 67s95.834 112.667 126.501 204zM400.998 1191l265 275h200l124 -275h-158l-80 178l-165 -178h-186z" />
    <glyph glyph-name="Cdotaccent" unicode="&#x10a;" horiz-adv-x="1479" 
d="M1235 516l193.999 -27.001c-61.333 -169.333 -150.666 -297.333 -267.999 -384s-249 -130 -395 -130c-178 0 -319.167 54.333 -423.5 163s-156.5 264.334 -156.5 467.001c0 264 79.333 482.333 238 655c141.333 154 317 231 527 231
c155.333 0 281.166 -41.667 377.499 -125s152.166 -195.333 167.499 -336l-183 -17c-19.333 106 -59.166 185.167 -119.499 237.5s-138.166 78.5 -233.499 78.5c-179.333 0 -324.333 -79.667 -435 -239c-96 -137.333 -144 -300.333 -144 -489
c0 -150.667 37 -265.667 111 -345s170.333 -119 289 -119c101.333 0 193 33 275 99s141.667 159.333 179 280zM891.999 1556l47 223h223l-48 -223h-222z" />
    <glyph glyph-name="cdotaccent" unicode="&#x10b;" horiz-adv-x="1024" 
d="M801 387l180.998 -18.999c-45.333 -132.667 -109.833 -231.167 -193.5 -295.5s-178.834 -96.5 -285.501 -96.5c-115.333 0 -208.833 37.333 -280.5 112s-107.5 179 -107.5 313c0 116 23 230 69 342s111.833 197.167 197.5 255.5s183.5 87.5 293.5 87.5
c114 0 204.333 -32.167 271 -96.5s100 -149.5 100 -255.5l-178 -12c-0.666992 67.333 -20.167 120 -58.5 158s-88.833 57 -151.5 57c-72.667 0 -135.667 -23 -189 -69s-95.166 -115.833 -125.499 -209.5s-45.5 -183.834 -45.5 -270.501c0 -90.667 20 -158.667 60 -204
s89.333 -68 148 -68s114.834 22.333 168.501 67s95.834 112.667 126.501 204zM568.998 1209l47 223h223l-48 -223h-222z" />
    <glyph glyph-name="Ccaron" unicode="&#x10c;" horiz-adv-x="1479" 
d="M1235 516l193.999 -27.001c-61.333 -169.333 -150.666 -297.333 -267.999 -384s-249 -130 -395 -130c-178 0 -319.167 54.333 -423.5 163s-156.5 264.334 -156.5 467.001c0 264 79.333 482.333 238 655c141.333 154 317 231 527 231
c155.333 0 281.166 -41.667 377.499 -125s152.166 -195.333 167.499 -336l-183 -17c-19.333 106 -59.166 185.167 -119.499 237.5s-138.166 78.5 -233.499 78.5c-179.333 0 -324.333 -79.667 -435 -239c-96 -137.333 -144 -300.333 -144 -489
c0 -150.667 37 -265.667 111 -345s170.333 -119 289 -119c101.333 0 193 33 275 99s141.667 159.333 179 280zM1321 1831l-265 -275h-200l-123 275h158l76 -178l166 178h188z" />
    <glyph glyph-name="ccaron" unicode="&#x10d;" horiz-adv-x="1024" 
d="M801 387l180.998 -18.999c-45.333 -132.667 -109.833 -231.167 -193.5 -295.5s-178.834 -96.5 -285.501 -96.5c-115.333 0 -208.833 37.333 -280.5 112s-107.5 179 -107.5 313c0 116 23 230 69 342s111.833 197.167 197.5 255.5s183.5 87.5 293.5 87.5
c114 0 204.333 -32.167 271 -96.5s100 -149.5 100 -255.5l-178 -12c-0.666992 67.333 -20.167 120 -58.5 158s-88.833 57 -151.5 57c-72.667 0 -135.667 -23 -189 -69s-95.166 -115.833 -125.499 -209.5s-45.5 -183.834 -45.5 -270.501c0 -90.667 20 -158.667 60 -204
s89.333 -68 148 -68s114.834 22.333 168.501 67s95.834 112.667 126.501 204zM1055 1466l-265 -275h-200l-123 275h158l76 -178l166 178h188z" />
    <glyph glyph-name="Dcaron" unicode="&#x10e;" horiz-adv-x="1479" 
d="M91 0l305.999 1466h442c106 0 187 -7.66699 243 -23c80 -20.667 148.333 -57.5 205 -110.5s99.334 -119.167 128.001 -198.5s43 -168.333 43 -267c0 -118 -17.833 -225.5 -53.5 -322.5s-82.334 -182.333 -140.001 -256s-118 -131.334 -181 -173.001
s-137.5 -72.5 -223.5 -92.5c-65.333 -15.333 -145.666 -23 -240.999 -23h-528zM321.999 166.001l232 -0.00292969c104.667 0 197.667 9.66699 279 29c50.667 12 94 29.667 130 53c47.333 30 90.333 69.667 129 119c50.667 65.333 91.167 139.833 121.5 223.5
s45.5 178.834 45.5 285.501c0 118.667 -20.667 209.834 -62 273.501s-94 105.834 -158 126.501c-47.333 15.333 -121 23 -221 23h-259zM1182 1831l-265 -275h-200l-123 275h158l76 -178l166 178h188z" />
    <glyph glyph-name="dcaron" unicode="&#x10f;" horiz-adv-x="1280" 
d="M788 154c-103.333 -118.667 -211.667 -178 -325 -178c-100 0 -183.5 37.167 -250.5 111.5s-100.5 182.166 -100.5 323.499c0 130.667 26.833 249.334 80.5 356.001s120 186.5 199 239.5s159.167 79.5 240.5 79.5c130.667 0 229.667 -63.667 297 -191l120 571h180
l-306 -1466h-167zM291.999 445c0 -74 7.33594 -132.334 22.0029 -175.001s39.667 -78.167 75 -106.5s77.666 -42.5 126.999 -42.5c82 0 156.333 42.667 223 128c89.333 113.333 134 253.333 134 420c0 84 -22 149.667 -66 197s-98.667 71 -164 71
c-44.667 0 -84.834 -9.66699 -120.501 -29s-70.834 -51.833 -105.501 -97.5s-64.167 -104.167 -88.5 -175.5s-36.5 -134.666 -36.5 -189.999zM1297 1281l39 185.002h186l-34 -162c-20 -96.667 -51.5 -167.334 -94.5 -212.001s-93.5 -70.334 -151.5 -77.001l15 71
c70.667 20 118 85 142 195h-102z" />
    <glyph glyph-name="Dcroat" unicode="&#x110;" horiz-adv-x="1479" 
d="M108 0l141 666.001h-158l28 134h159l141 666h437c92 0 156.667 -3.33301 194 -10c58.667 -10.667 114.334 -30.5 167.001 -59.5s99.167 -70 139.5 -123s70.166 -114.333 89.499 -184s29 -143.834 29 -222.501c0 -118 -18 -225.5 -54 -322.5s-82.667 -182.5 -140 -256.5
s-117.5 -131.667 -180.5 -173s-137.5 -72 -223.5 -92c-65.333 -15.333 -146 -23 -242 -23h-527zM339 166.001l231 -0.00292969c104.667 0 197.667 9.66699 279 29c50.667 12 94 29.667 130 53c47.333 30 90.666 69.667 129.999 119c50.667 65.333 91 139.833 121 223.5
s45 178.834 45 285.501c0 118.667 -20.667 209.834 -62 273.501s-93.666 105.834 -156.999 126.501c-48 15.333 -121.667 23 -221 23h-256l-106 -499h404l-28 -134h-404z" />
    <glyph glyph-name="dcroat" unicode="&#x111;" 
d="M993 1219h-326.001l29 134h325l24 113h180l-23 -113h135l-29 -134h-134l-255 -1219h-167l32 154c-103.333 -118.667 -211.666 -178 -324.999 -178c-100 0 -183.5 37.167 -250.5 111.5s-100.5 182.166 -100.5 323.499c0 130.667 26.833 249.334 80.5 356.001
s120 186.5 199 239.5s159.167 79.5 240.5 79.5c130.667 0 229.667 -63.667 297 -191zM287.999 445c0 -74 7.33594 -132.334 22.0029 -175.001s39.667 -78.167 75 -106.5s77.666 -42.5 126.999 -42.5c82 0 156.333 42.667 223 128c89.333 113.333 134 253.333 134 420
c0 84 -22 149.667 -66 197s-98.667 71 -164 71c-44.667 0 -84.834 -9.66699 -120.501 -29s-70.834 -51.833 -105.501 -97.5s-64.167 -104.167 -88.5 -175.5s-36.5 -134.666 -36.5 -189.999z" />
    <glyph glyph-name="Emacron" unicode="&#x112;" horiz-adv-x="1366" 
d="M92 0l307 1466h1058l-35 -167h-862l-96 -456h840l-35 -167h-840l-106 -510h923l-35 -166h-1119zM636 1591l29 139h621l-29 -139h-621z" />
    <glyph glyph-name="emacron" unicode="&#x113;" 
d="M848 361l176.001 -18c-25.333 -87.333 -83.5 -170.333 -174.5 -249s-199.5 -118 -325.5 -118c-78.667 0 -150.834 18.167 -216.501 54.5s-115.667 89.166 -150 158.499s-51.5 148.333 -51.5 237c0 116 26.833 228.5 80.5 337.5s123.167 190 208.5 243
s177.666 79.5 276.999 79.5c126.667 0 227.834 -39.333 303.501 -118s113.5 -186 113.5 -322c0 -52 -4.66699 -105.333 -14 -160h-782c-2.66699 -20.667 -4 -39.334 -4 -56.001c0 -99.333 22.833 -175.166 68.5 -227.499s101.5 -78.5 167.5 -78.5c62 0 123 20.333 183 61
s106.667 99.334 140 176.001zM322.001 624l595.999 -0.000976562c0.666992 18.667 1 32 1 40c0 90.667 -22.667 160.167 -68 208.5s-103.666 72.5 -174.999 72.5c-77.333 0 -147.833 -26.667 -211.5 -80s-111.167 -133.666 -142.5 -240.999zM419 1229l29 139h621l-29 -139
h-621z" />
    <glyph glyph-name="Ebreve" unicode="&#x114;" horiz-adv-x="1366" 
d="M92 0l307 1466h1058l-35 -167h-862l-96 -456h840l-35 -167h-840l-106 -510h923l-35 -166h-1119zM654 1815h118.003c7.33301 -48.667 23.666 -84.167 48.999 -106.5s61 -33.5 107 -33.5c48 0 89.5 12.333 124.5 37s61.833 59 80.5 103h120
c-22.667 -80 -63.834 -143.333 -123.501 -190s-128.834 -70 -207.501 -70c-77.333 0 -140.333 23.5 -189 70.5s-75 110.167 -79 189.5z" />
    <glyph glyph-name="ebreve" unicode="&#x115;" 
d="M848 361l176.001 -18c-25.333 -87.333 -83.5 -170.333 -174.5 -249s-199.5 -118 -325.5 -118c-78.667 0 -150.834 18.167 -216.501 54.5s-115.667 89.166 -150 158.499s-51.5 148.333 -51.5 237c0 116 26.833 228.5 80.5 337.5s123.167 190 208.5 243
s177.666 79.5 276.999 79.5c126.667 0 227.834 -39.333 303.501 -118s113.5 -186 113.5 -322c0 -52 -4.66699 -105.333 -14 -160h-782c-2.66699 -20.667 -4 -39.334 -4 -56.001c0 -99.333 22.833 -175.166 68.5 -227.499s101.5 -78.5 167.5 -78.5c62 0 123 20.333 183 61
s106.667 99.334 140 176.001zM322.001 624l595.999 -0.000976562c0.666992 18.667 1 32 1 40c0 90.667 -22.667 160.167 -68 208.5s-103.666 72.5 -174.999 72.5c-77.333 0 -147.833 -26.667 -211.5 -80s-111.167 -133.666 -142.5 -240.999zM451 1422h118.003
c7.33301 -48.667 23.666 -84.167 48.999 -106.5s61 -33.5 107 -33.5c48 0 89.5 12.333 124.5 37s61.833 59 80.5 103h120c-22.667 -80 -63.834 -143.333 -123.501 -190s-128.834 -70 -207.501 -70c-77.333 0 -140.333 23.5 -189 70.5s-75 110.167 -79 189.5z" />
    <glyph glyph-name="Edotaccent" unicode="&#x116;" horiz-adv-x="1366" 
d="M92 0l307 1466h1058l-35 -167h-862l-96 -456h840l-35 -167h-840l-106 -510h923l-35 -166h-1119zM835 1556l47 223h223l-48 -223h-222z" />
    <glyph glyph-name="edotaccent" unicode="&#x117;" 
d="M848 361l176.001 -18c-25.333 -87.333 -83.5 -170.333 -174.5 -249s-199.5 -118 -325.5 -118c-78.667 0 -150.834 18.167 -216.501 54.5s-115.667 89.166 -150 158.499s-51.5 148.333 -51.5 237c0 116 26.833 228.5 80.5 337.5s123.167 190 208.5 243
s177.666 79.5 276.999 79.5c126.667 0 227.834 -39.333 303.501 -118s113.5 -186 113.5 -322c0 -52 -4.66699 -105.333 -14 -160h-782c-2.66699 -20.667 -4 -39.334 -4 -56.001c0 -99.333 22.833 -175.166 68.5 -227.499s101.5 -78.5 167.5 -78.5c62 0 123 20.333 183 61
s106.667 99.334 140 176.001zM322.001 624l595.999 -0.000976562c0.666992 18.667 1 32 1 40c0 90.667 -22.667 160.167 -68 208.5s-103.666 72.5 -174.999 72.5c-77.333 0 -147.833 -26.667 -211.5 -80s-111.167 -133.666 -142.5 -240.999zM626 1209l47 223h223l-48 -223
h-222z" />
    <glyph glyph-name="Eogonek" unicode="&#x118;" horiz-adv-x="1366" 
d="M92 0l307 1466h1058l-35 -167h-862l-96 -456h840l-35 -167h-840l-106 -510h923l-35 -166h-1119zM1103 -267l-26.999 -128.002c-53.333 -23.333 -101.333 -35 -144 -35c-65.333 0 -112.333 18.333 -141 55c-18 22.667 -27 51.334 -27 86.001c0 56 22.667 113.333 68 172
c32.667 42 75 81 127 117h132c-90.667 -49.333 -144.334 -113 -161.001 -191c-2 -9.33301 -3 -18.666 -3 -27.999c0 -48 26.667 -72 80 -72c31.333 0 63.333 8 96 24z" />
    <glyph glyph-name="eogonek" unicode="&#x119;" 
d="M848 361l176.001 -18c-25.333 -87.333 -83.5 -170.333 -174.5 -249s-199.5 -118 -325.5 -118c-78.667 0 -150.834 18.167 -216.501 54.5s-115.667 89.166 -150 158.499s-51.5 148.333 -51.5 237c0 116 26.833 228.5 80.5 337.5s123.167 190 208.5 243
s177.666 79.5 276.999 79.5c126.667 0 227.834 -39.333 303.501 -118s113.5 -186 113.5 -322c0 -52 -4.66699 -105.333 -14 -160h-782c-2.66699 -20.667 -4 -39.334 -4 -56.001c0 -99.333 22.833 -175.166 68.5 -227.499s101.5 -78.5 167.5 -78.5c62 0 123 20.333 183 61
s106.667 99.334 140 176.001zM322.001 624l595.999 -0.000976562c0.666992 18.667 1 32 1 40c0 90.667 -22.667 160.167 -68 208.5s-103.666 72.5 -174.999 72.5c-77.333 0 -147.833 -26.667 -211.5 -80s-111.167 -133.666 -142.5 -240.999zM686 -267.001l-26.999 -128.002
c-53.333 -23.333 -101.333 -35 -144 -35c-65.333 0 -112.333 18.333 -141 55c-18 22.667 -27 51.334 -27 86.001c0 56 22.667 113.333 68 172c32.667 42 75 81 127 117h132c-90.667 -49.333 -144.334 -113 -161.001 -191c-2 -9.33301 -3 -18.666 -3 -27.999
c0 -48 26.667 -72 80 -72c31.333 0 63.333 8 96 24z" />
    <glyph glyph-name="Ecaron" unicode="&#x11a;" horiz-adv-x="1366" 
d="M92 0l307 1466h1058l-35 -167h-862l-96 -456h840l-35 -167h-840l-106 -510h923l-35 -166h-1119zM1254 1831l-265 -275h-200l-123 275h158l76 -178l166 178h188z" />
    <glyph glyph-name="ecaron" unicode="&#x11b;" 
d="M848 361l176.001 -18c-25.333 -87.333 -83.5 -170.333 -174.5 -249s-199.5 -118 -325.5 -118c-78.667 0 -150.834 18.167 -216.501 54.5s-115.667 89.166 -150 158.499s-51.5 148.333 -51.5 237c0 116 26.833 228.5 80.5 337.5s123.167 190 208.5 243
s177.666 79.5 276.999 79.5c126.667 0 227.834 -39.333 303.501 -118s113.5 -186 113.5 -322c0 -52 -4.66699 -105.333 -14 -160h-782c-2.66699 -20.667 -4 -39.334 -4 -56.001c0 -99.333 22.833 -175.166 68.5 -227.499s101.5 -78.5 167.5 -78.5c62 0 123 20.333 183 61
s106.667 99.334 140 176.001zM322.001 624l595.999 -0.000976562c0.666992 18.667 1 32 1 40c0 90.667 -22.667 160.167 -68 208.5s-103.666 72.5 -174.999 72.5c-77.333 0 -147.833 -26.667 -211.5 -80s-111.167 -133.666 -142.5 -240.999zM1055 1466l-265 -275h-200
l-123 275h158l76 -178l166 178h188z" />
    <glyph glyph-name="Gcircumflex" unicode="&#x11c;" horiz-adv-x="1593" 
d="M839 578l34.999 165.997h642l-125 -597c-80.667 -50.667 -172.667 -92 -276 -124s-205 -48 -305 -48c-213.333 0 -372.666 64.333 -477.999 193c-88.667 108.667 -133 248.334 -133 419.001c0 176 38.833 336.167 116.5 480.5s175.667 251 294 320
s249.833 103.5 394.5 103.5c104 0 197.333 -18.833 280 -56.5s146 -88 190 -151s75.667 -145.167 95 -246.5l-192 -21c-20.667 100.667 -63.5 177.834 -128.5 231.501s-148.5 80.5 -250.5 80.5c-106 0 -205 -28.833 -297 -86.5s-165.5 -144.667 -220.5 -261
s-82.5 -248.5 -82.5 -396.5c0 -147.333 36.333 -258.666 109 -333.999s173 -113 301 -113c127.333 0 264.333 42 411 126l66 315h-446zM753.999 1556l265 275h200l124 -275h-158l-80 178l-165 -178h-186z" />
    <glyph glyph-name="gcircumflex" unicode="&#x11d;" 
d="M58 -96l183.001 -17c-1.33301 -41.333 3.66699 -72.333 15 -93s29.333 -36.667 54 -48c32.667 -14.667 75 -22 127 -22c109.333 0 188 28.333 236 85c31.333 38 60.333 120.667 87 248l18 86c-94 -95.333 -194 -143 -300 -143c-107.333 0 -197.166 39.5 -269.499 118.5
s-108.5 190.833 -108.5 335.5c0 119.333 28.5 229 85.5 329s124.833 175.5 203.5 226.5s159.667 76.5 243 76.5c139.333 0 246.666 -66 321.999 -198l36 174h166l-214 -1025c-23.333 -112.667 -54 -200.5 -92 -263.5s-90.833 -111.833 -158.5 -146.5
s-145.834 -52 -234.501 -52c-85.333 0 -158.833 11 -220.5 33s-107.667 54.167 -138 96.5s-45.5 90.833 -45.5 145.5c0 16.667 1.66699 34.667 5 54zM284.001 470c0 -72.667 6.99902 -127.333 20.999 -164c20 -51.333 48.5 -90.5 85.5 -117.5s78.167 -40.5 123.5 -40.5
c59.333 0 118.333 20.833 177 62.5s106.167 106.167 142.5 193.5s54.5 170.666 54.5 249.999c0 87.333 -24.167 156.833 -72.5 208.5s-108.166 77.5 -179.499 77.5c-44 0 -86.667 -11.833 -128 -35.5s-79.833 -59.667 -115.5 -108s-62.667 -106.166 -81 -173.499
s-27.5 -118.333 -27.5 -153zM434 1191l265 275h200l124 -275h-158l-80 178l-165 -178h-186z" />
    <glyph glyph-name="Gbreve" unicode="&#x11e;" horiz-adv-x="1593" 
d="M839 578l34.999 165.997h642l-125 -597c-80.667 -50.667 -172.667 -92 -276 -124s-205 -48 -305 -48c-213.333 0 -372.666 64.333 -477.999 193c-88.667 108.667 -133 248.334 -133 419.001c0 176 38.833 336.167 116.5 480.5s175.667 251 294 320
s249.833 103.5 394.5 103.5c104 0 197.333 -18.833 280 -56.5s146 -88 190 -151s75.667 -145.167 95 -246.5l-192 -21c-20.667 100.667 -63.5 177.834 -128.5 231.501s-148.5 80.5 -250.5 80.5c-106 0 -205 -28.833 -297 -86.5s-165.5 -144.667 -220.5 -261
s-82.5 -248.5 -82.5 -396.5c0 -147.333 36.333 -258.666 109 -333.999s173 -113 301 -113c127.333 0 264.333 42 411 126l66 315h-446zM796.999 1815h118.003c7.33301 -48.667 23.666 -84.167 48.999 -106.5s61 -33.5 107 -33.5c48 0 89.5 12.333 124.5 37
s61.833 59 80.5 103h120c-22.667 -80 -63.834 -143.333 -123.501 -190s-128.834 -70 -207.501 -70c-77.333 0 -140.333 23.5 -189 70.5s-75 110.167 -79 189.5z" />
    <glyph glyph-name="gbreve" unicode="&#x11f;" 
d="M58 -96l183.001 -17c-1.33301 -41.333 3.66699 -72.333 15 -93s29.333 -36.667 54 -48c32.667 -14.667 75 -22 127 -22c109.333 0 188 28.333 236 85c31.333 38 60.333 120.667 87 248l18 86c-94 -95.333 -194 -143 -300 -143c-107.333 0 -197.166 39.5 -269.499 118.5
s-108.5 190.833 -108.5 335.5c0 119.333 28.5 229 85.5 329s124.833 175.5 203.5 226.5s159.667 76.5 243 76.5c139.333 0 246.666 -66 321.999 -198l36 174h166l-214 -1025c-23.333 -112.667 -54 -200.5 -92 -263.5s-90.833 -111.833 -158.5 -146.5
s-145.834 -52 -234.501 -52c-85.333 0 -158.833 11 -220.5 33s-107.667 54.167 -138 96.5s-45.5 90.833 -45.5 145.5c0 16.667 1.66699 34.667 5 54zM284.001 470c0 -72.667 6.99902 -127.333 20.999 -164c20 -51.333 48.5 -90.5 85.5 -117.5s78.167 -40.5 123.5 -40.5
c59.333 0 118.333 20.833 177 62.5s106.167 106.167 142.5 193.5s54.5 170.666 54.5 249.999c0 87.333 -24.167 156.833 -72.5 208.5s-108.166 77.5 -179.499 77.5c-44 0 -86.667 -11.833 -128 -35.5s-79.833 -59.667 -115.5 -108s-62.667 -106.166 -81 -173.499
s-27.5 -118.333 -27.5 -153zM483 1422h118.003c7.33301 -48.667 23.666 -84.167 48.999 -106.5s61 -33.5 107 -33.5c48 0 89.5 12.333 124.5 37s61.833 59 80.5 103h120c-22.667 -80 -63.834 -143.333 -123.501 -190s-128.834 -70 -207.501 -70
c-77.333 0 -140.333 23.5 -189 70.5s-75 110.167 -79 189.5z" />
    <glyph glyph-name="Gdotaccent" unicode="&#x120;" horiz-adv-x="1593" 
d="M839 578l34.999 165.997h642l-125 -597c-80.667 -50.667 -172.667 -92 -276 -124s-205 -48 -305 -48c-213.333 0 -372.666 64.333 -477.999 193c-88.667 108.667 -133 248.334 -133 419.001c0 176 38.833 336.167 116.5 480.5s175.667 251 294 320
s249.833 103.5 394.5 103.5c104 0 197.333 -18.833 280 -56.5s146 -88 190 -151s75.667 -145.167 95 -246.5l-192 -21c-20.667 100.667 -63.5 177.834 -128.5 231.501s-148.5 80.5 -250.5 80.5c-106 0 -205 -28.833 -297 -86.5s-165.5 -144.667 -220.5 -261
s-82.5 -248.5 -82.5 -396.5c0 -147.333 36.333 -258.666 109 -333.999s173 -113 301 -113c127.333 0 264.333 42 411 126l66 315h-446zM928.999 1556l47 223h223l-48 -223h-222z" />
    <glyph glyph-name="gdotaccent" unicode="&#x121;" 
d="M58 -96l183.001 -17c-1.33301 -41.333 3.66699 -72.333 15 -93s29.333 -36.667 54 -48c32.667 -14.667 75 -22 127 -22c109.333 0 188 28.333 236 85c31.333 38 60.333 120.667 87 248l18 86c-94 -95.333 -194 -143 -300 -143c-107.333 0 -197.166 39.5 -269.499 118.5
s-108.5 190.833 -108.5 335.5c0 119.333 28.5 229 85.5 329s124.833 175.5 203.5 226.5s159.667 76.5 243 76.5c139.333 0 246.666 -66 321.999 -198l36 174h166l-214 -1025c-23.333 -112.667 -54 -200.5 -92 -263.5s-90.833 -111.833 -158.5 -146.5
s-145.834 -52 -234.501 -52c-85.333 0 -158.833 11 -220.5 33s-107.667 54.167 -138 96.5s-45.5 90.833 -45.5 145.5c0 16.667 1.66699 34.667 5 54zM284.001 470c0 -72.667 6.99902 -127.333 20.999 -164c20 -51.333 48.5 -90.5 85.5 -117.5s78.167 -40.5 123.5 -40.5
c59.333 0 118.333 20.833 177 62.5s106.167 106.167 142.5 193.5s54.5 170.666 54.5 249.999c0 87.333 -24.167 156.833 -72.5 208.5s-108.166 77.5 -179.499 77.5c-44 0 -86.667 -11.833 -128 -35.5s-79.833 -59.667 -115.5 -108s-62.667 -106.166 -81 -173.499
s-27.5 -118.333 -27.5 -153zM627 1209l47 223h223l-48 -223h-222z" />
    <glyph glyph-name="Gcommaaccent" unicode="&#x122;" horiz-adv-x="1593" 
d="M839 578l34.999 165.997h642l-125 -597c-80.667 -50.667 -172.667 -92 -276 -124s-205 -48 -305 -48c-213.333 0 -372.666 64.333 -477.999 193c-88.667 108.667 -133 248.334 -133 419.001c0 176 38.833 336.167 116.5 480.5s175.667 251 294 320
s249.833 103.5 394.5 103.5c104 0 197.333 -18.833 280 -56.5s146 -88 190 -151s75.667 -145.167 95 -246.5l-192 -21c-20.667 100.667 -63.5 177.834 -128.5 231.501s-148.5 80.5 -250.5 80.5c-106 0 -205 -28.833 -297 -86.5s-165.5 -144.667 -220.5 -261
s-82.5 -248.5 -82.5 -396.5c0 -147.333 36.333 -258.666 109 -333.999s173 -113 301 -113c127.333 0 264.333 42 411 126l66 315h-446zM654.999 -296.003l38 175h196l-32 -147c-14 -62 -46.667 -119 -98 -171s-111 -81 -179 -87l18 86c66.667 17.333 116.667 65.333 150 144
h-93z" />
    <glyph glyph-name="gcommaaccent" unicode="&#x123;" 
d="M826 1345l-37 -175h-209l25 117c32 148.667 108.333 245 229 289l37 -83c-67.333 -26 -114.333 -75.333 -141 -148h96zM58 -96l182.999 -17.002c-0.666992 -9.33301 -1 -16.666 -1 -21.999c0 -94 67 -141 201 -141c68 0 123.667 11.333 167 34s74.833 55.334 94.5 98.001
s38.834 109.667 57.501 201l18 86c-94 -95.333 -193 -143 -297 -143c-111.333 0 -202.5 40.167 -273.5 120.5s-106.5 190.833 -106.5 331.5c0 103.333 22.667 203.5 68 300.5s110 176.833 194 239.5s173.667 94 269 94c140 0 247.333 -66 322 -198l36 174h166l-214 -1025
c-40.667 -194 -105.5 -319.5 -194.5 -376.5s-187.167 -85.5 -294.5 -85.5c-125.333 0 -223.333 23 -294 69s-106 115.667 -106 209c0 14.667 1.66699 31.667 5 51zM283.999 426.998c0 -75.333 21 -140.666 63 -195.999s97.667 -83 167 -83
c105.333 0 193.833 52.667 265.5 158s107.5 221 107.5 347c0 89.333 -24.333 159.5 -73 210.5s-106.667 76.5 -174 76.5c-99.333 0 -183.5 -50.833 -252.5 -152.5s-103.5 -221.834 -103.5 -360.501z" />
    <glyph glyph-name="Hcircumflex" unicode="&#x124;" horiz-adv-x="1479" 
d="M86 0l307 1466h195l-127 -609h760l127 609h196l-306 -1466h-196l144 691h-759l-145 -691h-196zM690 1556l265 275h200l124 -275h-158l-80 178l-165 -178h-186z" />
    <glyph glyph-name="hcircumflex" unicode="&#x125;" 
d="M68 0l305.999 1466h181l-117 -563c67.333 65.333 130 112.166 188 140.499s117.667 42.5 179 42.5c88 0 156.333 -23.167 205 -69.5s73 -107.5 73 -183.5c0 -37.333 -10.667 -106 -32 -206l-131 -627h-181l135 643c19.333 93.333 29 152 29 176c0 34.667 -12 63 -36 85
s-58.667 33 -104 33c-65.333 0 -127.666 -17.167 -186.999 -51.5s-105.833 -81.333 -139.5 -141s-64.5 -155.834 -92.5 -288.501l-95 -456h-181zM479.999 1556l265 275h200l124 -275h-158l-80 178l-165 -178h-186z" />
    <glyph glyph-name="Hbar" unicode="&#x126;" horiz-adv-x="1479" 
d="M315 1095h-136l28 134h136l50 237h195l-49 -237h760l49 237h196l-49 -237h137l-28 -134h-137l-229 -1095h-196l144 691h-760l-144 -691h-196zM511 1095l-50 -238h760l50 238h-760z" />
    <glyph glyph-name="hbar" unicode="&#x127;" 
d="M499 1197l-61.0029 -293.999c122 122 246 183 372 183c82.667 0 148.834 -22.167 198.501 -66.5s74.5 -103.833 74.5 -178.5c0 -44 -10.667 -115.333 -32 -214l-131 -627h-181l135 643c19.333 93.333 29 153 29 179c0 33.333 -12.333 60.833 -37 82.5s-60 32.5 -106 32.5
c-70.667 0 -137.167 -20.333 -199.5 -61s-108.166 -93.334 -137.499 -158.001s-55.666 -152 -78.999 -262l-95 -456h-181l250 1197h-127l29 134h126l28 135h181l-28 -135h333l-28 -134h-333z" />
    <glyph glyph-name="Itilde" unicode="&#x128;" horiz-adv-x="569" 
d="M117 0l307 1466h195l-306 -1466h-196zM220 1556c22 88.667 49.1689 148.168 81.502 178.501s72.833 45.5 121.5 45.5c22 0 43.5 -2.66699 64.5 -8s57.5 -19.5 109.5 -42.5s87.667 -34.5 107 -34.5c15.333 0 29 5.5 41 16.5s22 31.833 30 62.5h121
c-6.66699 -68.667 -28.834 -122.334 -66.501 -161.001s-81.167 -58 -130.5 -58c-26.667 0 -60.334 8.66699 -101.001 26c-92 40 -148.667 60 -170 60s-39 -6.83301 -53 -20.5s-24 -35.167 -30 -64.5h-125z" />
    <glyph glyph-name="itilde" unicode="&#x129;" horiz-adv-x="455" 
d="M61 0l222 1062h181l-222 -1062h-181zM99 1222c22 88.667 49.1689 148.168 81.502 178.501s72.833 45.5 121.5 45.5c22 0 43.5 -2.66699 64.5 -8s57.5 -19.5 109.5 -42.5s87.667 -34.5 107 -34.5c15.333 0 29 5.5 41 16.5s22 31.833 30 62.5h121
c-6.66699 -68.667 -28.834 -122.334 -66.501 -161.001s-81.167 -58 -130.5 -58c-26.667 0 -60.334 8.66699 -101.001 26c-92 40 -148.667 60 -170 60s-39 -6.83301 -53 -20.5s-24 -35.167 -30 -64.5h-125z" />
    <glyph glyph-name="Imacron" unicode="&#x12a;" horiz-adv-x="569" 
d="M117 0l307 1466h195l-306 -1466h-196zM231 1591l29 139h621l-29 -139h-621z" />
    <glyph glyph-name="imacron" unicode="&#x12b;" horiz-adv-x="455" 
d="M61 0l222 1062h181l-222 -1062h-181zM105 1229l29 139h621l-29 -139h-621z" />
    <glyph glyph-name="Ibreve" unicode="&#x12c;" horiz-adv-x="569" 
d="M117 0l307 1466h195l-306 -1466h-196zM284 1815h118.003c7.33301 -48.667 23.666 -84.167 48.999 -106.5s61 -33.5 107 -33.5c48 0 89.5 12.333 124.5 37s61.833 59 80.5 103h120c-22.667 -80 -63.834 -143.333 -123.501 -190s-128.834 -70 -207.501 -70
c-77.333 0 -140.333 23.5 -189 70.5s-75 110.167 -79 189.5z" />
    <glyph glyph-name="ibreve" unicode="&#x12d;" horiz-adv-x="455" 
d="M61 0l222 1062h181l-222 -1062h-181zM143 1422h118.003c7.33301 -48.667 23.666 -84.167 48.999 -106.5s61 -33.5 107 -33.5c48 0 89.5 12.333 124.5 37s61.833 59 80.5 103h120c-22.667 -80 -63.834 -143.333 -123.501 -190s-128.834 -70 -207.501 -70
c-77.333 0 -140.333 23.5 -189 70.5s-75 110.167 -79 189.5z" />
    <glyph glyph-name="Iogonek" unicode="&#x12e;" horiz-adv-x="569" 
d="M117 0l307 1466h195l-306 -1466h-196zM303 -267l-26.999 -128.002c-53.333 -23.333 -101.333 -35 -144 -35c-65.333 0 -112.333 18.333 -141 55c-18 22.667 -27 51.334 -27 86.001c0 56 22.667 113.333 68 172c32.667 42 75 81 127 117h132
c-90.667 -49.333 -144.334 -113 -161.001 -191c-2 -9.33301 -3 -18.666 -3 -27.999c0 -48 26.667 -72 80 -72c31.333 0 63.333 8 96 24z" />
    <glyph glyph-name="iogonek" unicode="&#x12f;" horiz-adv-x="455" 
d="M325 1261l43 205h180l-43 -205h-180zM61 0l222 1062h181l-222 -1062h-181zM233 -267l-26.999 -128.002c-53.333 -23.333 -101.333 -35 -144 -35c-65.333 0 -112.333 18.333 -141 55c-18 22.667 -27 51.334 -27 86.001c0 56 22.667 113.333 68 172
c32.667 42 75 81 127 117h132c-90.667 -49.333 -144.334 -113 -161.001 -191c-2 -9.33301 -3 -18.666 -3 -27.999c0 -48 26.667 -72 80 -72c31.333 0 63.333 8 96 24z" />
    <glyph glyph-name="Idotaccent" unicode="&#x130;" horiz-adv-x="569" 
d="M117 0l307 1466h195l-306 -1466h-196zM414 1546l47 223h223l-48 -223h-222z" />
    <glyph glyph-name="dotlessi" unicode="&#x131;" horiz-adv-x="569" 
d="M125 0l222 1062h181l-222 -1062h-181z" />
    <glyph glyph-name="IJ" unicode="&#x132;" horiz-adv-x="1502" 
d="M117 0l307 1466h195l-306 -1466h-196zM561 427l181.999 13.0029c-10.667 -56.667 -16 -98.334 -16 -125.001c0 -54 16.833 -97.167 50.5 -129.5s80.5 -48.5 140.5 -48.5c43.333 0 81.5 9.83301 114.5 29.5s59.833 50.167 80.5 91.5c16 31.333 32.333 87.666 49 168.999
l218 1039h195l-223 -1071c-31.333 -150.667 -83.666 -258.334 -156.999 -323.001s-167 -97 -281 -97c-121.333 0 -213 28 -275 84s-93 134.667 -93 236c0 44.667 5 88.667 15 132z" />
    <glyph glyph-name="ij" unicode="&#x133;" horiz-adv-x="909" 
d="M323 1261l43 205h180l-43 -205h-180zM59 0l222 1062h181l-222 -1062h-181zM789 1261l43 205h179l-43 -205h-179zM216 -399l31.999 153.999c41.333 -11.333 78 -17 110 -17c38.667 0 69.5 12.833 92.5 38.5s46.833 96.834 71.5 213.501l223 1072h181l-230 -1105
c-28.667 -138 -61.667 -232 -99 -282c-50 -66.667 -119.667 -100 -209 -100c-47.333 0 -104.666 8.66699 -171.999 26z" />
    <glyph glyph-name="Jcircumflex" unicode="&#x134;" horiz-adv-x="1024" 
d="M83 427l181.999 13.0029c-10.667 -56.667 -16 -98.334 -16 -125.001c0 -54 16.833 -97.167 50.5 -129.5s80.5 -48.5 140.5 -48.5c43.333 0 81.5 9.83301 114.5 29.5s59.833 50.167 80.5 91.5c16 31.333 32.333 87.666 49 168.999l218 1039h195l-223 -1071
c-31.333 -150.667 -83.666 -258.334 -156.999 -323.001s-167 -97 -281 -97c-121.333 0 -213 28 -275 84s-93 134.667 -93 236c0 44.667 5 88.667 15 132zM691.999 1556l265 275h200l124 -275h-158l-80 178l-165 -178h-186z" />
    <glyph glyph-name="jcircumflex" unicode="&#x135;" horiz-adv-x="455" 
d="M88 1191l265 275h200l124 -275h-158l-80 178l-165 -178h-186zM-248 -399l32.001 153.999c39.333 -11.333 75.666 -17 108.999 -17c44.667 0 77.667 14.833 99 44.5s43.333 98.834 66 207.501l223 1072h181l-230 -1105c-29.333 -138.667 -65.833 -237 -109.5 -295
s-109.834 -87 -198.501 -87c-47.333 0 -104.666 8.66699 -171.999 26z" />
    <glyph glyph-name="Kcommaaccent" unicode="&#x136;" horiz-adv-x="1366" 
d="M91 0l306 1466h196l-147 -706l796 706h276l-681 -597l499 -869h-219l-423 743l-307 -267l-100 -476h-196zM545 -296l38 175h196l-32 -147c-14 -62 -46.667 -119 -98 -171s-111 -81 -179 -87l18 86c66.667 17.333 116.667 65.333 150 144h-93z" />
    <glyph glyph-name="kcommaaccent" unicode="&#x137;" horiz-adv-x="1024" 
d="M70 0l307 1466h180l-190 -909l528 505h239l-453 -396l274 -666h-198l-212 545l-220 -190l-74 -355h-181zM353 -296l38 175h196l-32 -147c-14 -62 -46.667 -119 -98 -171s-111 -81 -179 -87l18 86c66.667 17.333 116.667 65.333 150 144h-93z" />
    <glyph glyph-name="kgreenlandic" unicode="&#x138;" horiz-adv-x="1024" 
d="M70 0l222 1062h181l-105 -505l527 505h239l-453 -396l274 -666h-198l-212 545l-220 -190l-74 -355h-181z" />
    <glyph glyph-name="Lacute" unicode="&#x139;" 
d="M82 0l306 1466h196l-271 -1300h761l-35 -166h-957zM512 1556l188 275h228l-266 -275h-150z" />
    <glyph glyph-name="lacute" unicode="&#x13a;" horiz-adv-x="455" 
d="M54 0l306 1466h181l-306 -1466h-181zM302 1541l188 275h228l-266 -275h-150z" />
    <glyph glyph-name="Lcommaaccent" unicode="&#x13b;" 
d="M82 0l306 1466h196l-271 -1300h761l-35 -166h-957zM453 -296l38 175h196l-32 -147c-14 -62 -46.667 -119 -98 -171s-111 -81 -179 -87l18 86c66.667 17.333 116.667 65.333 150 144h-93z" />
    <glyph glyph-name="lcommaaccent" unicode="&#x13c;" horiz-adv-x="455" 
d="M54 0l306 1466h181l-306 -1466h-181zM-17 -296l38 175h196l-32 -147c-14 -62 -46.667 -119 -98 -171s-111 -81 -179 -87l18 86c66.667 17.333 116.667 65.333 150 144h-93z" />
    <glyph glyph-name="Lcaron" unicode="&#x13d;" 
d="M896 1261l43 205.001h206l-37 -179c-22 -107.333 -56.833 -186 -104.5 -236s-104.167 -78.667 -169.5 -86l17 79c79.333 21.333 132 93.666 158 216.999h-113zM82 0.000976562l306 1466h196l-271 -1300h761l-35 -166h-957z" />
    <glyph glyph-name="lcaron" unicode="&#x13e;" horiz-adv-x="576" 
d="M56 0l306 1466h181l-306 -1466h-181zM594 1281l38.001 185.002h186l-34 -162c-20 -96.667 -51.5 -167.334 -94.5 -212.001s-93.5 -70.334 -151.5 -77.001l15 71c71.333 20 118.666 85 141.999 195h-101z" />
    <glyph glyph-name="Ldot" unicode="&#x13f;" 
d="M82 0l306 1466h196l-271 -1300h761l-35 -166h-957zM538 630l43 205h205l-44 -205h-204z" />
    <glyph glyph-name="ldot" unicode="&#x140;" horiz-adv-x="819" 
d="M54 0l306 1466h181l-306 -1466h-181zM507 630l43 205h205l-44 -205h-204z" />
    <glyph glyph-name="Lslash" unicode="&#x141;" 
d="M211 602l-187 -104l35 169l187 104l145 695h196l-119 -572l390 217l-35 -167l-390 -218l-117 -560h757l-35 -166h-953z" />
    <glyph glyph-name="lslash" unicode="&#x142;" horiz-adv-x="455" 
d="M190 623l-152 -81l33 156l152 80l143 688h181l-121 -580l158 84l-32 -155l-158 -84l-153 -731h-181z" />
    <glyph glyph-name="Nacute" unicode="&#x143;" horiz-adv-x="1479" 
d="M100 0l307.001 1466h190l247 -550c75.333 -168 135 -309.333 179 -424c25.333 -66.667 54.666 -156.667 87.999 -270c18 123.333 40.667 250.666 68 381.999l180 862h191l-306 -1466h-194l-364 847c-64.667 149.333 -115 281 -151 395
c-10 -95.333 -29.333 -212.333 -58 -351l-186 -891h-191zM795.001 1556l188 275h228l-266 -275h-150z" />
    <glyph glyph-name="nacute" unicode="&#x144;" 
d="M68 0l222 1062h164l-39 -185c71.333 72.667 138 125.667 200 159s125.333 50 190 50c86 0 153.5 -23.333 202.5 -70s73.5 -109 73.5 -187c0 -39.333 -8.66699 -101.333 -26 -186l-135 -643h-181l141 673c14 65.333 21 113.666 21 144.999c0 35.333 -12.167 64 -36.5 86
s-59.5 33 -105.5 33c-92.667 0 -175.167 -33.333 -247.5 -100s-125.5 -181 -159.5 -343l-103 -494h-181zM579 1191l188 275h228l-266 -275h-150z" />
    <glyph glyph-name="Ncommaaccent" unicode="&#x145;" horiz-adv-x="1479" 
d="M100 0l307.001 1466h190l247 -550c75.333 -168 135 -309.333 179 -424c25.333 -66.667 54.666 -156.667 87.999 -270c18 123.333 40.667 250.666 68 381.999l180 862h191l-306 -1466h-194l-364 847c-64.667 149.333 -115 281 -151 395
c-10 -95.333 -29.333 -212.333 -58 -351l-186 -891h-191zM533.001 -295.999l38 175h196l-32 -147c-14 -62 -46.667 -119 -98 -171s-111 -81 -179 -87l18 86c66.667 17.333 116.667 65.333 150 144h-93z" />
    <glyph glyph-name="ncommaaccent" unicode="&#x146;" 
d="M68 0l222 1062h164l-39 -185c71.333 72.667 138 125.667 200 159s125.333 50 190 50c86 0 153.5 -23.333 202.5 -70s73.5 -109 73.5 -187c0 -39.333 -8.66699 -101.333 -26 -186l-135 -643h-181l141 673c14 65.333 21 113.666 21 144.999c0 35.333 -12.167 64 -36.5 86
s-59.5 33 -105.5 33c-92.667 0 -175.167 -33.333 -247.5 -100s-125.5 -181 -159.5 -343l-103 -494h-181zM353 -295.999l38 175h196l-32 -147c-14 -62 -46.667 -119 -98 -171s-111 -81 -179 -87l18 86c66.667 17.333 116.667 65.333 150 144h-93z" />
    <glyph glyph-name="Ncaron" unicode="&#x147;" horiz-adv-x="1479" 
d="M100 0l307.001 1466h190l247 -550c75.333 -168 135 -309.333 179 -424c25.333 -66.667 54.666 -156.667 87.999 -270c18 123.333 40.667 250.666 68 381.999l180 862h191l-306 -1466h-194l-364 847c-64.667 149.333 -115 281 -151 395
c-10 -95.333 -29.333 -212.333 -58 -351l-186 -891h-191zM1304 1831l-265 -275h-200l-123 275h158l76 -178l166 178h188z" />
    <glyph glyph-name="ncaron" unicode="&#x148;" 
d="M68 0l222 1062h164l-39 -185c71.333 72.667 138 125.667 200 159s125.333 50 190 50c86 0 153.5 -23.333 202.5 -70s73.5 -109 73.5 -187c0 -39.333 -8.66699 -101.333 -26 -186l-135 -643h-181l141 673c14 65.333 21 113.666 21 144.999c0 35.333 -12.167 64 -36.5 86
s-59.5 33 -105.5 33c-92.667 0 -175.167 -33.333 -247.5 -100s-125.5 -181 -159.5 -343l-103 -494h-181zM1085 1466l-265 -275h-200l-123 275h158l76 -178l166 178h188z" />
    <glyph glyph-name="napostrophe" unicode="&#x149;" horiz-adv-x="1259" 
d="M195 0l222 1062h164l-39 -185c71.333 72.667 138 125.667 200 159s125.333 50 190 50c86 0 153.5 -23.333 202.5 -70s73.5 -109 73.5 -187c0 -39.333 -8.66699 -101.333 -26 -186l-135 -643h-181l141 673c14 65.333 21 113.666 21 144.999c0 35.333 -12.167 64 -36.5 86
s-59.5 33 -105.5 33c-92.667 0 -175.167 -33.333 -247.5 -100s-125.5 -181 -159.5 -343l-103 -494h-181zM163 1255l43.002 205h206l-37 -180c-22.667 -107.333 -57.834 -185.833 -105.501 -235.5s-103.834 -78.5 -168.501 -86.5l17 79c78.667 22 131 94.667 157 218h-112z
" />
    <glyph glyph-name="Eng" unicode="&#x14a;" horiz-adv-x="1481" 
d="M400 1466h195.998l-36 -177c120.667 134.667 264.334 202 431.001 202c146 0 261.333 -50.667 346 -152s127 -239.666 127 -414.999c0 -149.333 -25.667 -306 -77 -470s-118 -285 -200 -363s-182.333 -117 -301 -117c-120 0 -214 24.333 -282 73l96 137
c50.667 -28.667 103.334 -43 158.001 -43c52.667 0 99.334 12.667 140.001 38s81.667 72.333 123 141s74 161.167 98 277.5s36 229.166 36 338.499c0 132.667 -28.5 230.5 -85.5 293.5s-130.5 94.5 -220.5 94.5c-83.333 0 -162.333 -24.833 -237 -74.5
s-129.334 -107.5 -164.001 -173.5s-61.667 -145 -81 -237l-173 -839h-196z" />
    <glyph glyph-name="eng" unicode="&#x14b;" 
d="M1060 643l-142 -686.001c-28.667 -140 -65.167 -238.667 -109.5 -296s-108.833 -86 -193.5 -86c-54 0 -118.333 11.333 -193 34l65 150c34 -14 65.333 -21 94 -21c46 0 79.333 16 100 48s41.667 100 63 204l141 683c14 66.667 21 114 21 142c0 81.333 -48 122 -144 122
c-87.333 0 -167.833 -32.333 -241.5 -97s-128.167 -180 -163.5 -346l-103 -494h-181l222 1062h164l-39 -185c132 139.333 264.333 209 397 209c79.333 0 144 -23.167 194 -69.5s75 -105.166 75 -176.499c0 -45.333 -8.66699 -111 -26 -197z" />
    <glyph glyph-name="Omacron" unicode="&#x14c;" horiz-adv-x="1593" 
d="M187 614c0 261.333 75.499 472.833 226.499 634.5s334.167 242.5 549.5 242.5c182.667 0 331.5 -59.5 446.5 -178.5s172.5 -278.5 172.5 -478.5c0 -142.667 -29 -275 -87 -397c-43.333 -91.333 -98 -170.166 -164 -236.499s-136.667 -117.5 -212 -153.5
c-100 -48 -206 -72 -318 -72c-117.333 0 -224.166 28 -320.499 84s-169.333 134.167 -219 234.5s-74.5 207.166 -74.5 320.499zM379.999 604c0 -86 17.8311 -165.001 53.498 -237.001s88.834 -128.333 159.501 -169s145 -61 223 -61c75.333 0 147 17.833 215 53.5
s128.833 85.334 182.5 149.001s96 142 127 235s46.5 184.5 46.5 274.5c0 146 -40.833 262.333 -122.5 349s-182.5 130 -302.5 130c-153.333 0 -288.666 -65.5 -405.999 -196.5s-176 -306.833 -176 -527.5zM708.997 1591l29 139h621l-29 -139h-621z" />
    <glyph glyph-name="omacron" unicode="&#x14d;" 
d="M100 403c0 207.333 61.002 378.999 183.002 514.999c100.667 112 232.667 168 396 168c128 0 231.167 -40 309.5 -120s117.5 -188 117.5 -324c0 -122 -24.667 -235.5 -74 -340.5s-119.5 -185.5 -210.5 -241.5s-186.833 -84 -287.5 -84
c-82.667 0 -157.834 17.667 -225.501 53s-119.334 85.333 -155.001 150s-53.5 139.334 -53.5 224.001zM281.002 420.999c0 -100 24.002 -175.833 72.002 -227.5s109 -77.5 183 -77.5c38.667 0 77 7.83301 115 23.5s73.333 39.5 106 71.5s60.5 68.5 83.5 109.5
s41.5 85.167 55.5 132.5c20.667 66 31 129.333 31 190c0 96 -24.167 170.5 -72.5 223.5s-109.166 79.5 -182.499 79.5c-56.667 0 -108.334 -13.5 -155.001 -40.5s-88.834 -66.5 -126.501 -118.5s-65.334 -112.5 -83.001 -181.5s-26.5 -130.5 -26.5 -184.5zM429.004 1229
l29 139h621l-29 -139h-621z" />
    <glyph glyph-name="Obreve" unicode="&#x14e;" horiz-adv-x="1593" 
d="M187 614c0 261.333 75.499 472.833 226.499 634.5s334.167 242.5 549.5 242.5c182.667 0 331.5 -59.5 446.5 -178.5s172.5 -278.5 172.5 -478.5c0 -142.667 -29 -275 -87 -397c-43.333 -91.333 -98 -170.166 -164 -236.499s-136.667 -117.5 -212 -153.5
c-100 -48 -206 -72 -318 -72c-117.333 0 -224.166 28 -320.499 84s-169.333 134.167 -219 234.5s-74.5 207.166 -74.5 320.499zM379.999 604c0 -86 17.8311 -165.001 53.498 -237.001s88.834 -128.333 159.501 -169s145 -61 223 -61c75.333 0 147 17.833 215 53.5
s128.833 85.334 182.5 149.001s96 142 127 235s46.5 184.5 46.5 274.5c0 146 -40.833 262.333 -122.5 349s-182.5 130 -302.5 130c-153.333 0 -288.666 -65.5 -405.999 -196.5s-176 -306.833 -176 -527.5zM747.997 1815h118.003
c7.33301 -48.667 23.666 -84.167 48.999 -106.5s61 -33.5 107 -33.5c48 0 89.5 12.333 124.5 37s61.833 59 80.5 103h120c-22.667 -80 -63.834 -143.333 -123.501 -190s-128.834 -70 -207.501 -70c-77.333 0 -140.333 23.5 -189 70.5s-75 110.167 -79 189.5z" />
    <glyph glyph-name="obreve" unicode="&#x14f;" 
d="M100 403c0 207.333 61.002 378.999 183.002 514.999c100.667 112 232.667 168 396 168c128 0 231.167 -40 309.5 -120s117.5 -188 117.5 -324c0 -122 -24.667 -235.5 -74 -340.5s-119.5 -185.5 -210.5 -241.5s-186.833 -84 -287.5 -84
c-82.667 0 -157.834 17.667 -225.501 53s-119.334 85.333 -155.001 150s-53.5 139.334 -53.5 224.001zM281.002 420.999c0 -100 24.002 -175.833 72.002 -227.5s109 -77.5 183 -77.5c38.667 0 77 7.83301 115 23.5s73.333 39.5 106 71.5s60.5 68.5 83.5 109.5
s41.5 85.167 55.5 132.5c20.667 66 31 129.333 31 190c0 96 -24.167 170.5 -72.5 223.5s-109.166 79.5 -182.499 79.5c-56.667 0 -108.334 -13.5 -155.001 -40.5s-88.834 -66.5 -126.501 -118.5s-65.334 -112.5 -83.001 -181.5s-26.5 -130.5 -26.5 -184.5zM466.004 1422
h118.003c7.33301 -48.667 23.666 -84.167 48.999 -106.5s61 -33.5 107 -33.5c48 0 89.5 12.333 124.5 37s61.833 59 80.5 103h120c-22.667 -80 -63.834 -143.333 -123.501 -190s-128.834 -70 -207.501 -70c-77.333 0 -140.333 23.5 -189 70.5s-75 110.167 -79 189.5z" />
    <glyph glyph-name="Ohungarumlaut" unicode="&#x150;" horiz-adv-x="1593" 
d="M187 614c0 261.333 75.499 472.833 226.499 634.5s334.167 242.5 549.5 242.5c182.667 0 331.5 -59.5 446.5 -178.5s172.5 -278.5 172.5 -478.5c0 -142.667 -29 -275 -87 -397c-43.333 -91.333 -98 -170.166 -164 -236.499s-136.667 -117.5 -212 -153.5
c-100 -48 -206 -72 -318 -72c-117.333 0 -224.166 28 -320.499 84s-169.333 134.167 -219 234.5s-74.5 207.166 -74.5 320.499zM379.999 604c0 -86 17.8311 -165.001 53.498 -237.001s88.834 -128.333 159.501 -169s145 -61 223 -61c75.333 0 147 17.833 215 53.5
s128.833 85.334 182.5 149.001s96 142 127 235s46.5 184.5 46.5 274.5c0 146 -40.833 262.333 -122.5 349s-182.5 130 -302.5 130c-153.333 0 -288.666 -65.5 -405.999 -196.5s-176 -306.833 -176 -527.5zM714.997 1556l186 275h231l-268 -275h-149zM1052 1556l183 275h233
l-273 -275h-143z" />
    <glyph glyph-name="ohungarumlaut" unicode="&#x151;" 
d="M100 403c0 207.333 61.002 378.999 183.002 514.999c100.667 112 232.667 168 396 168c128 0 231.167 -40 309.5 -120s117.5 -188 117.5 -324c0 -122 -24.667 -235.5 -74 -340.5s-119.5 -185.5 -210.5 -241.5s-186.833 -84 -287.5 -84
c-82.667 0 -157.834 17.667 -225.501 53s-119.334 85.333 -155.001 150s-53.5 139.334 -53.5 224.001zM281.002 420.999c0 -100 24.002 -175.833 72.002 -227.5s109 -77.5 183 -77.5c38.667 0 77 7.83301 115 23.5s73.333 39.5 106 71.5s60.5 68.5 83.5 109.5
s41.5 85.167 55.5 132.5c20.667 66 31 129.333 31 190c0 96 -24.167 170.5 -72.5 223.5s-109.166 79.5 -182.499 79.5c-56.667 0 -108.334 -13.5 -155.001 -40.5s-88.834 -66.5 -126.501 -118.5s-65.334 -112.5 -83.001 -181.5s-26.5 -130.5 -26.5 -184.5zM438.004 1191
l186 275h231l-268 -275h-149zM775.004 1191l183 275h233l-273 -275h-143z" />
    <glyph glyph-name="OE" unicode="&#x152;" horiz-adv-x="2048" 
d="M1023 108c-48 -45.333 -98.167 -79.001 -150.5 -101.001s-114.833 -33 -187.5 -33c-154.667 0 -280.167 52.833 -376.5 158.5s-144.5 258.834 -144.5 459.501c0 169.333 34.167 325.333 102.5 468s159.333 250.167 273 322.5s231.5 108.5 353.5 108.5
c75.333 0 145.5 -17 210.5 -51s120.833 -83.333 167.5 -148l36 174h831l-34 -167h-636l-97 -463h642l-35 -167h-641l-106 -503h710l-35 -166h-906zM357 614.999c0 -125.333 12.667 -218.833 38 -280.5s65.833 -110 121.5 -145s117.167 -52.5 184.5 -52.5
c94.667 0 180 35 256 105s132.667 185 170 345c46.667 200.667 70 339.667 70 417c0 92.667 -30.667 169.834 -92 231.501s-136.666 92.5 -225.999 92.5c-51.333 0 -99.5 -9.83301 -144.5 -29.5s-87.333 -47.334 -127 -83.001s-74.834 -76.5 -105.501 -122.5
c-40.667 -60.667 -73 -128 -97 -202c-32 -100.667 -48 -192.667 -48 -276z" />
    <glyph glyph-name="oe" unicode="&#x153;" horiz-adv-x="1933" 
d="M965 183c-58.667 -68 -121.498 -119.502 -188.498 -154.502s-143.5 -52.5 -229.5 -52.5c-128 0 -229.667 38.667 -305 116s-113 186.333 -113 327c0 121.333 24.167 234.5 72.5 339.5s115.666 185.833 201.999 242.5s182.166 85 287.499 85
c81.333 0 154.333 -17.333 219 -52s115.334 -84 152.001 -148c62.667 66.667 116.667 112.667 162 138c74 41.333 155 62 243 62c122 0 221.667 -39.833 299 -119.5s116 -186.167 116 -319.5c0 -55.333 -6 -109.666 -18 -162.999h-769c-2 -24 -3 -46.667 -3 -68
c0 -74.667 19.667 -142 59 -202s98.333 -90 177 -90c59.333 0 117 21.833 173 65.5s100 100.5 132 170.5l187 -17c-49.333 -112.667 -119 -202 -209 -268s-185.667 -99 -287 -99c-77.333 0 -147.333 16.833 -210 50.5s-112.334 85.834 -149.001 156.501zM306.002 427.998
c0 -107.333 22.333 -186.165 67 -236.498s103.334 -75.5 176.001 -75.5c64.667 0 128.167 23.667 190.5 71s110.666 118 144.999 212s51.5 181.667 51.5 263c0 73.333 -20.167 139.166 -60.5 197.499s-101.5 87.5 -183.5 87.5c-55.333 0 -107.5 -14.333 -156.5 -43
s-91.5 -69.834 -127.5 -123.501s-62 -116.5 -78 -188.5s-24 -126.667 -24 -164zM1125 622.999l580.999 0.00195312c2 20.667 3 36.667 3 48c0 89.333 -22.167 157.666 -66.5 204.999s-102.166 71 -173.499 71c-66 0 -130.5 -26.333 -193.5 -79
s-113.167 -134.334 -150.5 -245.001z" />
    <glyph glyph-name="Racute" unicode="&#x154;" horiz-adv-x="1479" 
d="M96 0l307.001 1466h615c121.333 0 213.333 -10.167 276 -30.5s111.834 -58.5 147.501 -114.5s53.5 -126.667 53.5 -212c0 -119.333 -39 -218.333 -117 -297s-204 -129.667 -378 -153c53.333 -39.333 93.666 -78 120.999 -116c61.333 -86 110.666 -175 147.999 -267
l112 -276h-219l-105 273c-38 98.667 -81.333 184 -130 256c-33.333 50 -67.333 82.833 -102 98.5s-91 23.5 -169 23.5h-228l-136 -651h-196zM461.001 810l270.998 -0.000976562c125.333 0 207 1.66699 245 5c74 7.33301 134.667 24 182 50s84 61 110 105s39 91.333 39 142
c0 42.667 -9.66699 79.834 -29 111.501s-44.666 53.167 -75.999 64.5s-84.666 17 -159.999 17h-478zM693.999 1556l188 275h228l-266 -275h-150z" />
    <glyph glyph-name="racute" unicode="&#x155;" horiz-adv-x="682" 
d="M68 0l221.999 1062h160l-45 -217c54.667 82 108.167 142.667 160.5 182s105.833 59 160.5 59c36 0 80.333 -13 133 -39l-74 -168c-31.333 22.667 -65.666 34 -102.999 34c-63.333 0 -128.333 -35.333 -195 -106s-119 -197.667 -157 -381l-90 -426h-172zM419.999 1191
l188 275h228l-266 -275h-150z" />
    <glyph glyph-name="Rcommaaccent" unicode="&#x156;" horiz-adv-x="1479" 
d="M96 0l307.001 1466h615c121.333 0 213.333 -10.167 276 -30.5s111.834 -58.5 147.501 -114.5s53.5 -126.667 53.5 -212c0 -119.333 -39 -218.333 -117 -297s-204 -129.667 -378 -153c53.333 -39.333 93.666 -78 120.999 -116c61.333 -86 110.666 -175 147.999 -267
l112 -276h-219l-105 273c-38 98.667 -81.333 184 -130 256c-33.333 50 -67.333 82.833 -102 98.5s-91 23.5 -169 23.5h-228l-136 -651h-196zM461.001 810l270.998 -0.000976562c125.333 0 207 1.66699 245 5c74 7.33301 134.667 24 182 50s84 61 110 105s39 91.333 39 142
c0 42.667 -9.66699 79.834 -29 111.501s-44.666 53.167 -75.999 64.5s-84.666 17 -159.999 17h-478zM552.999 -296.001l38 175h196l-32 -147c-14 -62 -46.667 -119 -98 -171s-111 -81 -179 -87l18 86c66.667 17.333 116.667 65.333 150 144h-93z" />
    <glyph glyph-name="rcommaaccent" unicode="&#x157;" horiz-adv-x="682" 
d="M68 0l221.999 1062h160l-45 -217c54.667 82 108.167 142.667 160.5 182s105.833 59 160.5 59c36 0 80.333 -13 133 -39l-74 -168c-31.333 22.667 -65.666 34 -102.999 34c-63.333 0 -128.333 -35.333 -195 -106s-119 -197.667 -157 -381l-90 -426h-172zM-7.00098 -296
l38 175h196l-32 -147c-14 -62 -46.667 -119 -98 -171s-111 -81 -179 -87l18 86c66.667 17.333 116.667 65.333 150 144h-93z" />
    <glyph glyph-name="Rcaron" unicode="&#x158;" horiz-adv-x="1479" 
d="M96 0l307.001 1466h615c121.333 0 213.333 -10.167 276 -30.5s111.834 -58.5 147.501 -114.5s53.5 -126.667 53.5 -212c0 -119.333 -39 -218.333 -117 -297s-204 -129.667 -378 -153c53.333 -39.333 93.666 -78 120.999 -116c61.333 -86 110.666 -175 147.999 -267
l112 -276h-219l-105 273c-38 98.667 -81.333 184 -130 256c-33.333 50 -67.333 82.833 -102 98.5s-91 23.5 -169 23.5h-228l-136 -651h-196zM461.001 810l270.998 -0.000976562c125.333 0 207 1.66699 245 5c74 7.33301 134.667 24 182 50s84 61 110 105s39 91.333 39 142
c0 42.667 -9.66699 79.834 -29 111.501s-44.666 53.167 -75.999 64.5s-84.666 17 -159.999 17h-478zM1239 1831l-265 -275h-200l-123 275h158l76 -178l166 178h188z" />
    <glyph glyph-name="rcaron" unicode="&#x159;" horiz-adv-x="682" 
d="M68 0l221.999 1062h160l-45 -217c54.667 82 108.167 142.667 160.5 182s105.833 59 160.5 59c36 0 80.333 -13 133 -39l-74 -168c-31.333 22.667 -65.666 34 -102.999 34c-63.333 0 -128.333 -35.333 -195 -106s-119 -197.667 -157 -381l-90 -426h-172zM925.999 1466
l-265 -275h-200l-123 275h158l76 -178l166 178h188z" />
    <glyph glyph-name="Sacute" unicode="&#x15a;" horiz-adv-x="1366" 
d="M144 474l191.998 18.001l-2 -51c0 -56.667 13 -108.5 39 -155.5s69 -83.333 129 -109s131.333 -38.5 214 -38.5c117.333 0 206.833 25.667 268.5 77s92.5 110 92.5 176c0 46 -16.333 88 -49 126c-33.333 37.333 -124.333 88 -273 152c-115.333 50 -194 88.333 -236 115
c-66 43.333 -114.667 90.5 -146 141.5s-47 109.167 -47 174.5c0 75.333 20.667 143.333 62 204s101.833 107 181.5 139s169.5 48 269.5 48c119.333 0 220 -20 302 -60s141.5 -93.333 178.5 -160s55.5 -130.334 55.5 -191.001c0 -6 -0.333008 -16 -1 -30l-189 -15
c0 41.333 -3.66699 73.666 -11 96.999c-13.333 40.667 -34 75 -62 103s-66.5 50.5 -115.5 67.5s-103.833 25.5 -164.5 25.5c-106.667 0 -189.667 -24 -249 -72c-45.333 -36.667 -68 -85.334 -68 -146.001c0 -36 9.33301 -68.167 28 -96.5s52.334 -56.166 101.001 -83.499
c34.667 -19.333 117 -57.666 247 -114.999c105.333 -46.667 178 -83.334 218 -110.001c53.333 -35.333 94.333 -78.166 123 -128.499s43 -107.5 43 -171.5c0 -79.333 -24.167 -152.5 -72.5 -219.5s-115.166 -118.833 -200.499 -155.5s-183 -55 -293 -55
c-166 0 -301.5 36.167 -406.5 108.5s-157.833 202.5 -158.5 390.5zM717.998 1556l188 275h228l-266 -275h-150z" />
    <glyph glyph-name="sacute" unicode="&#x15b;" horiz-adv-x="1024" 
d="M85 363l181.003 10.999c0 -52 8 -96.333 24 -133s45.5 -66.667 88.5 -90s93.167 -35 150.5 -35c80 0 140 16 180 48s60 69.667 60 113c0 31.333 -12 61 -36 89c-24.667 28 -84.834 62.5 -180.501 103.5s-156.834 69.833 -183.501 86.5
c-44.667 27.333 -78.334 59.5 -101.001 96.5s-34 79.5 -34 127.5c0 84 33.333 156 100 216s160 90 280 90c133.333 0 234.833 -30.833 304.5 -92.5s105.834 -142.834 108.501 -243.501l-177 -12c-2.66699 64 -25.334 114.667 -68.001 152s-103 56 -181 56
c-62.667 0 -111.334 -14.333 -146.001 -43s-52 -59.667 -52 -93s15 -62.666 45 -87.999c20 -17.333 71.667 -44 155 -80c138.667 -60 226 -107.333 262 -142c57.333 -55.333 86 -122.666 86 -201.999c0 -52.667 -16.167 -104.334 -48.5 -155.001
s-81.666 -91.167 -147.999 -121.5s-144.5 -45.5 -234.5 -45.5c-122.667 0 -227 30.333 -313 91s-126.667 159.334 -122 296.001zM500.003 1191l188 275h228l-266 -275h-150z" />
    <glyph glyph-name="Scircumflex" unicode="&#x15c;" horiz-adv-x="1366" 
d="M144 474l191.998 18.001l-2 -51c0 -56.667 13 -108.5 39 -155.5s69 -83.333 129 -109s131.333 -38.5 214 -38.5c117.333 0 206.833 25.667 268.5 77s92.5 110 92.5 176c0 46 -16.333 88 -49 126c-33.333 37.333 -124.333 88 -273 152c-115.333 50 -194 88.333 -236 115
c-66 43.333 -114.667 90.5 -146 141.5s-47 109.167 -47 174.5c0 75.333 20.667 143.333 62 204s101.833 107 181.5 139s169.5 48 269.5 48c119.333 0 220 -20 302 -60s141.5 -93.333 178.5 -160s55.5 -130.334 55.5 -191.001c0 -6 -0.333008 -16 -1 -30l-189 -15
c0 41.333 -3.66699 73.666 -11 96.999c-13.333 40.667 -34 75 -62 103s-66.5 50.5 -115.5 67.5s-103.833 25.5 -164.5 25.5c-106.667 0 -189.667 -24 -249 -72c-45.333 -36.667 -68 -85.334 -68 -146.001c0 -36 9.33301 -68.167 28 -96.5s52.334 -56.166 101.001 -83.499
c34.667 -19.333 117 -57.666 247 -114.999c105.333 -46.667 178 -83.334 218 -110.001c53.333 -35.333 94.333 -78.166 123 -128.499s43 -107.5 43 -171.5c0 -79.333 -24.167 -152.5 -72.5 -219.5s-115.166 -118.833 -200.499 -155.5s-183 -55 -293 -55
c-166 0 -301.5 36.167 -406.5 108.5s-157.833 202.5 -158.5 390.5zM624.998 1556l265 275h200l124 -275h-158l-80 178l-165 -178h-186z" />
    <glyph glyph-name="scircumflex" unicode="&#x15d;" horiz-adv-x="1024" 
d="M85 363l181.003 10.999c0 -52 8 -96.333 24 -133s45.5 -66.667 88.5 -90s93.167 -35 150.5 -35c80 0 140 16 180 48s60 69.667 60 113c0 31.333 -12 61 -36 89c-24.667 28 -84.834 62.5 -180.501 103.5s-156.834 69.833 -183.501 86.5
c-44.667 27.333 -78.334 59.5 -101.001 96.5s-34 79.5 -34 127.5c0 84 33.333 156 100 216s160 90 280 90c133.333 0 234.833 -30.833 304.5 -92.5s105.834 -142.834 108.501 -243.501l-177 -12c-2.66699 64 -25.334 114.667 -68.001 152s-103 56 -181 56
c-62.667 0 -111.334 -14.333 -146.001 -43s-52 -59.667 -52 -93s15 -62.666 45 -87.999c20 -17.333 71.667 -44 155 -80c138.667 -60 226 -107.333 262 -142c57.333 -55.333 86 -122.666 86 -201.999c0 -52.667 -16.167 -104.334 -48.5 -155.001
s-81.666 -91.167 -147.999 -121.5s-144.5 -45.5 -234.5 -45.5c-122.667 0 -227 30.333 -313 91s-126.667 159.334 -122 296.001zM397.003 1191l265 275h200l124 -275h-158l-80 178l-165 -178h-186z" />
    <glyph glyph-name="Scedilla" unicode="&#x15e;" horiz-adv-x="1366" 
d="M144 474l191.998 18.001l-2 -51c0 -56.667 13 -108.5 39 -155.5s69 -83.333 129 -109s131.333 -38.5 214 -38.5c117.333 0 206.833 25.667 268.5 77s92.5 110 92.5 176c0 46 -16.333 88 -49 126c-33.333 37.333 -124.333 88 -273 152c-115.333 50 -194 88.333 -236 115
c-66 43.333 -114.667 90.5 -146 141.5s-47 109.167 -47 174.5c0 75.333 20.667 143.333 62 204s101.833 107 181.5 139s169.5 48 269.5 48c119.333 0 220 -20 302 -60s141.5 -93.333 178.5 -160s55.5 -130.334 55.5 -191.001c0 -6 -0.333008 -16 -1 -30l-189 -15
c0 41.333 -3.66699 73.666 -11 96.999c-13.333 40.667 -34 75 -62 103s-66.5 50.5 -115.5 67.5s-103.833 25.5 -164.5 25.5c-106.667 0 -189.667 -24 -249 -72c-45.333 -36.667 -68 -85.334 -68 -146.001c0 -36 9.33301 -68.167 28 -96.5s52.334 -56.166 101.001 -83.499
c34.667 -19.333 117 -57.666 247 -114.999c105.333 -46.667 178 -83.334 218 -110.001c53.333 -35.333 94.333 -78.166 123 -128.499s43 -107.5 43 -171.5c0 -79.333 -24.167 -152.5 -72.5 -219.5s-115.166 -118.833 -200.499 -155.5s-183 -55 -293 -55
c-166 0 -301.5 36.167 -406.5 108.5s-157.833 202.5 -158.5 390.5zM498.998 -154.999l41.001 161h140l-24 -90c58.667 -8 103.334 -28.167 134.001 -60.5s46 -68.833 46 -109.5c0 -48 -20.333 -86.333 -61 -115c-58.667 -41.333 -152.334 -62 -281.001 -62
c-64.667 0 -121.334 4 -170.001 12l22 112c40.667 -2 89.334 -3 146.001 -3c68.667 0 114.167 7.33301 136.5 22s33.5 31 33.5 49c0 21.333 -9.66699 39 -29 53c-28.667 20 -73.334 30.333 -134.001 31z" />
    <glyph glyph-name="scedilla" unicode="&#x15f;" horiz-adv-x="1024" 
d="M85 363l181.003 10.999c0 -52 8 -96.333 24 -133s45.5 -66.667 88.5 -90s93.167 -35 150.5 -35c80 0 140 16 180 48s60 69.667 60 113c0 31.333 -12 61 -36 89c-24.667 28 -84.834 62.5 -180.501 103.5s-156.834 69.833 -183.501 86.5
c-44.667 27.333 -78.334 59.5 -101.001 96.5s-34 79.5 -34 127.5c0 84 33.333 156 100 216s160 90 280 90c133.333 0 234.833 -30.833 304.5 -92.5s105.834 -142.834 108.501 -243.501l-177 -12c-2.66699 64 -25.334 114.667 -68.001 152s-103 56 -181 56
c-62.667 0 -111.334 -14.333 -146.001 -43s-52 -59.667 -52 -93s15 -62.666 45 -87.999c20 -17.333 71.667 -44 155 -80c138.667 -60 226 -107.333 262 -142c57.333 -55.333 86 -122.666 86 -201.999c0 -52.667 -16.167 -104.334 -48.5 -155.001
s-81.666 -91.167 -147.999 -121.5s-144.5 -45.5 -234.5 -45.5c-122.667 0 -227 30.333 -313 91s-126.667 159.334 -122 296.001zM358.003 -131.001l41.001 161h140l-24 -90c58.667 -8 103.334 -28.167 134.001 -60.5s46 -68.833 46 -109.5c0 -48 -20.333 -86.333 -61 -115
c-58.667 -41.333 -152.334 -62 -281.001 -62c-64.667 0 -121.334 4 -170.001 12l22 112c40.667 -2 89.334 -3 146.001 -3c68.667 0 114.167 7.33301 136.5 22s33.5 31 33.5 49c0 21.333 -9.66699 39 -29 53c-28.667 20 -73.334 30.333 -134.001 31z" />
    <glyph glyph-name="Scaron" unicode="&#x160;" horiz-adv-x="1366" 
d="M144 474l191.998 18.001l-2 -51c0 -56.667 13 -108.5 39 -155.5s69 -83.333 129 -109s131.333 -38.5 214 -38.5c117.333 0 206.833 25.667 268.5 77s92.5 110 92.5 176c0 46 -16.333 88 -49 126c-33.333 37.333 -124.333 88 -273 152c-115.333 50 -194 88.333 -236 115
c-66 43.333 -114.667 90.5 -146 141.5s-47 109.167 -47 174.5c0 75.333 20.667 143.333 62 204s101.833 107 181.5 139s169.5 48 269.5 48c119.333 0 220 -20 302 -60s141.5 -93.333 178.5 -160s55.5 -130.334 55.5 -191.001c0 -6 -0.333008 -16 -1 -30l-189 -15
c0 41.333 -3.66699 73.666 -11 96.999c-13.333 40.667 -34 75 -62 103s-66.5 50.5 -115.5 67.5s-103.833 25.5 -164.5 25.5c-106.667 0 -189.667 -24 -249 -72c-45.333 -36.667 -68 -85.334 -68 -146.001c0 -36 9.33301 -68.167 28 -96.5s52.334 -56.166 101.001 -83.499
c34.667 -19.333 117 -57.666 247 -114.999c105.333 -46.667 178 -83.334 218 -110.001c53.333 -35.333 94.333 -78.166 123 -128.499s43 -107.5 43 -171.5c0 -79.333 -24.167 -152.5 -72.5 -219.5s-115.166 -118.833 -200.499 -155.5s-183 -55 -293 -55
c-166 0 -301.5 36.167 -406.5 108.5s-157.833 202.5 -158.5 390.5zM1225 1831l-265 -275h-200l-123 275h158l76 -178l166 178h188z" />
    <glyph glyph-name="scaron" unicode="&#x161;" horiz-adv-x="1024" 
d="M85 363l181.003 10.999c0 -52 8 -96.333 24 -133s45.5 -66.667 88.5 -90s93.167 -35 150.5 -35c80 0 140 16 180 48s60 69.667 60 113c0 31.333 -12 61 -36 89c-24.667 28 -84.834 62.5 -180.501 103.5s-156.834 69.833 -183.501 86.5
c-44.667 27.333 -78.334 59.5 -101.001 96.5s-34 79.5 -34 127.5c0 84 33.333 156 100 216s160 90 280 90c133.333 0 234.833 -30.833 304.5 -92.5s105.834 -142.834 108.501 -243.501l-177 -12c-2.66699 64 -25.334 114.667 -68.001 152s-103 56 -181 56
c-62.667 0 -111.334 -14.333 -146.001 -43s-52 -59.667 -52 -93s15 -62.666 45 -87.999c20 -17.333 71.667 -44 155 -80c138.667 -60 226 -107.333 262 -142c57.333 -55.333 86 -122.666 86 -201.999c0 -52.667 -16.167 -104.334 -48.5 -155.001
s-81.666 -91.167 -147.999 -121.5s-144.5 -45.5 -234.5 -45.5c-122.667 0 -227 30.333 -313 91s-126.667 159.334 -122 296.001zM1032 1466l-265 -275h-200l-123 275h158l76 -178l166 178h188z" />
    <glyph glyph-name="Tcommaaccent" unicode="&#x162;" horiz-adv-x="1251" 
d="M465 0l271 1299h-481l35 167h1154l-35 -167h-477l-271 -1299h-196zM462 -155l41.001 161h140l-24 -90c58.667 -8 103.334 -28.167 134.001 -60.5s46 -68.833 46 -109.5c0 -48 -20.333 -86.333 -61 -115c-58.667 -41.333 -152.334 -62 -281.001 -62
c-64.667 0 -121.334 4 -170.001 12l22 112c40.667 -2 89.334 -3 146.001 -3c68.667 0 114.167 7.33301 136.5 22s33.5 31 33.5 49c0 21.333 -9.66699 39 -29 53c-28.667 20 -73.334 30.333 -134.001 31z" />
    <glyph glyph-name="tcommaaccent" unicode="&#x163;" horiz-adv-x="569" 
d="M491 147l-30 -148c-43.333 -11.333 -85.333 -17 -126 -17c-72 0 -129.333 17.667 -172 53c-32 26.667 -48 63 -48 109c0 23.333 8.66699 77 26 161l129 617h-143l29 140h143l55 261l207 125l-81 -386h178l-30 -140h-177l-123 -587
c-15.333 -74.667 -23 -119.334 -23 -134.001c0 -21.333 6.16699 -37.666 18.5 -48.999s32.5 -17 60.5 -17c40 0 75.667 4 107 12zM202 -155l41.001 161h140l-24 -90c58.667 -8 103.334 -28.167 134.001 -60.5s46 -68.833 46 -109.5c0 -48 -20.333 -86.333 -61 -115
c-58.667 -41.333 -152.334 -62 -281.001 -62c-64.667 0 -121.334 4 -170.001 12l22 112c40.667 -2 89.334 -3 146.001 -3c68.667 0 114.167 7.33301 136.5 22s33.5 31 33.5 49c0 21.333 -9.66699 39 -29 53c-28.667 20 -73.334 30.333 -134.001 31z" />
    <glyph glyph-name="Tcaron" unicode="&#x164;" horiz-adv-x="1251" 
d="M465 0l271 1299h-481l35 167h1154l-35 -167h-477l-271 -1299h-196zM1208 1831l-265 -275h-200l-123 275h158l76 -178l166 178h188z" />
    <glyph glyph-name="tcaron" unicode="&#x165;" horiz-adv-x="725" 
d="M745 1281l39.0029 185.002h185l-33 -162c-20.667 -96.667 -52.334 -167.334 -95.001 -212.001s-93.334 -70.334 -152.001 -77.001l15 71c71.333 20 118.666 85 141.999 195h-101zM485.003 147.002l-30 -148c-43.333 -11.333 -85.333 -17 -126 -17
c-72 0 -129.333 17.667 -172 53c-32 26.667 -48 63 -48 109c0 23.333 8.66699 77 26 161l129 617h-143l29 140h143l55 261l207 125l-81 -386h178l-30 -140h-177l-123 -587c-15.333 -74.667 -23 -119.334 -23 -134.001c0 -21.333 6.16699 -37.666 18.5 -48.999
s32.5 -17 60.5 -17c40 0 75.667 4 107 12z" />
    <glyph glyph-name="Tbar" unicode="&#x166;" horiz-adv-x="1251" 
d="M597 631h-361l28 134h361l111 534h-481l35 167h1154l-35 -167h-477l-111 -534h359l-28 -134h-359l-132 -631h-196z" />
    <glyph glyph-name="tbar" unicode="&#x167;" horiz-adv-x="569" 
d="M359 479l-30 -144c-15.333 -74 -23 -120 -23 -138c0 -41.333 27.667 -62 83 -62c38.667 0 73 4 103 12l-31 -148c-43.333 -11.333 -85.666 -17 -126.999 -17c-64.667 0 -117.334 14.5 -158.001 43.5s-61 66.833 -61 113.5c0 24.667 9 80 27 166l36 174h-154l28 134h154
l64 309h-143l29 140h144l54 261l207 125l-80 -386h177l-29 -140h-178l-64 -309h201l-28 -134h-201z" />
    <glyph glyph-name="Utilde" unicode="&#x168;" horiz-adv-x="1479" 
d="M406 1466l196.001 0.00195312l-188 -901c-15.333 -74.667 -23 -130 -23 -166c0 -78.667 31 -142 93 -190s140 -72 234 -72c74.667 0 144.167 17.167 208.5 51.5s115.166 84.833 152.499 151.5s71 173 101 319l169 807h196l-179 -860
c-30.667 -146.667 -71 -262.834 -121 -348.501s-119.333 -154.334 -208 -206.001s-191.667 -77.5 -309 -77.5c-110.667 0 -206.5 18.333 -287.5 55s-141.667 87.334 -182 152.001s-60.5 138 -60.5 220c0 51.333 13.667 139.666 41 264.999zM681.001 1556
c22 88.667 49.1689 148.168 81.502 178.501s72.833 45.5 121.5 45.5c22 0 43.5 -2.66699 64.5 -8s57.5 -19.5 109.5 -42.5s87.667 -34.5 107 -34.5c15.333 0 29 5.5 41 16.5s22 31.833 30 62.5h121c-6.66699 -68.667 -28.834 -122.334 -66.501 -161.001
s-81.167 -58 -130.5 -58c-26.667 0 -60.334 8.66699 -101.001 26c-92 40 -148.667 60 -170 60s-39 -6.83301 -53 -20.5s-24 -35.167 -30 -64.5h-125z" />
    <glyph glyph-name="utilde" unicode="&#x169;" 
d="M793 192c-127.333 -144 -257.666 -216.001 -390.999 -216.001c-82 0 -148.167 23.5 -198.5 70.5s-75.5 104.5 -75.5 172.5c0 44.667 11.333 121.334 34 230.001l128 613h181l-142 -679c-12 -56.667 -18 -100.667 -18 -132c0 -40 12.167 -71.167 36.5 -93.5
s60.166 -33.5 107.499 -33.5c50.667 0 100.167 12.333 148.5 37s90 58 125 100s63.5 91.667 85.5 149c14.667 36.667 31.667 101 51 193l96 459h181l-222 -1062h-167zM420 1222c22 88.667 49.1689 148.168 81.502 178.501s72.833 45.5 121.5 45.5
c22 0 43.5 -2.66699 64.5 -8s57.5 -19.5 109.5 -42.5s87.667 -34.5 107 -34.5c15.333 0 29 5.5 41 16.5s22 31.833 30 62.5h121c-6.66699 -68.667 -28.834 -122.334 -66.501 -161.001s-81.167 -58 -130.5 -58c-26.667 0 -60.334 8.66699 -101.001 26
c-92 40 -148.667 60 -170 60s-39 -6.83301 -53 -20.5s-24 -35.167 -30 -64.5h-125z" />
    <glyph glyph-name="Umacron" unicode="&#x16a;" horiz-adv-x="1479" 
d="M406 1466l196.001 0.00195312l-188 -901c-15.333 -74.667 -23 -130 -23 -166c0 -78.667 31 -142 93 -190s140 -72 234 -72c74.667 0 144.167 17.167 208.5 51.5s115.166 84.833 152.499 151.5s71 173 101 319l169 807h196l-179 -860
c-30.667 -146.667 -71 -262.834 -121 -348.501s-119.333 -154.334 -208 -206.001s-191.667 -77.5 -309 -77.5c-110.667 0 -206.5 18.333 -287.5 55s-141.667 87.334 -182 152.001s-60.5 138 -60.5 220c0 51.333 13.667 139.666 41 264.999zM683.001 1591l29 139h621
l-29 -139h-621z" />
    <glyph glyph-name="umacron" unicode="&#x16b;" 
d="M793 192c-127.333 -144 -257.666 -216.001 -390.999 -216.001c-82 0 -148.167 23.5 -198.5 70.5s-75.5 104.5 -75.5 172.5c0 44.667 11.333 121.334 34 230.001l128 613h181l-142 -679c-12 -56.667 -18 -100.667 -18 -132c0 -40 12.167 -71.167 36.5 -93.5
s60.166 -33.5 107.499 -33.5c50.667 0 100.167 12.333 148.5 37s90 58 125 100s63.5 91.667 85.5 149c14.667 36.667 31.667 101 51 193l96 459h181l-222 -1062h-167zM429 1229l29 139h621l-29 -139h-621z" />
    <glyph glyph-name="Ubreve" unicode="&#x16c;" horiz-adv-x="1479" 
d="M406 1466l196.001 0.00195312l-188 -901c-15.333 -74.667 -23 -130 -23 -166c0 -78.667 31 -142 93 -190s140 -72 234 -72c74.667 0 144.167 17.167 208.5 51.5s115.166 84.833 152.499 151.5s71 173 101 319l169 807h196l-179 -860
c-30.667 -146.667 -71 -262.834 -121 -348.501s-119.333 -154.334 -208 -206.001s-191.667 -77.5 -309 -77.5c-110.667 0 -206.5 18.333 -287.5 55s-141.667 87.334 -182 152.001s-60.5 138 -60.5 220c0 51.333 13.667 139.666 41 264.999zM723.001 1815h118.003
c7.33301 -48.667 23.666 -84.167 48.999 -106.5s61 -33.5 107 -33.5c48 0 89.5 12.333 124.5 37s61.833 59 80.5 103h120c-22.667 -80 -63.834 -143.333 -123.501 -190s-128.834 -70 -207.501 -70c-77.333 0 -140.333 23.5 -189 70.5s-75 110.167 -79 189.5z" />
    <glyph glyph-name="ubreve" unicode="&#x16d;" 
d="M793 192c-127.333 -144 -257.666 -216.001 -390.999 -216.001c-82 0 -148.167 23.5 -198.5 70.5s-75.5 104.5 -75.5 172.5c0 44.667 11.333 121.334 34 230.001l128 613h181l-142 -679c-12 -56.667 -18 -100.667 -18 -132c0 -40 12.167 -71.167 36.5 -93.5
s60.166 -33.5 107.499 -33.5c50.667 0 100.167 12.333 148.5 37s90 58 125 100s63.5 91.667 85.5 149c14.667 36.667 31.667 101 51 193l96 459h181l-222 -1062h-167zM460 1422h118.003c7.33301 -48.667 23.666 -84.167 48.999 -106.5s61 -33.5 107 -33.5
c48 0 89.5 12.333 124.5 37s61.833 59 80.5 103h120c-22.667 -80 -63.834 -143.333 -123.501 -190s-128.834 -70 -207.501 -70c-77.333 0 -140.333 23.5 -189 70.5s-75 110.167 -79 189.5z" />
    <glyph glyph-name="Uring" unicode="&#x16e;" horiz-adv-x="1479" 
d="M406 1466l196.001 0.00195312l-188 -901c-15.333 -74.667 -23 -130 -23 -166c0 -78.667 31 -142 93 -190s140 -72 234 -72c74.667 0 144.167 17.167 208.5 51.5s115.166 84.833 152.499 151.5s71 173 101 319l169 807h196l-179 -860
c-30.667 -146.667 -71 -262.834 -121 -348.501s-119.333 -154.334 -208 -206.001s-191.667 -77.5 -309 -77.5c-110.667 0 -206.5 18.333 -287.5 55s-141.667 87.334 -182 152.001s-60.5 138 -60.5 220c0 51.333 13.667 139.666 41 264.999zM794.001 1648
c0 50.667 17.833 93.667 53.5 129s78.5 53 128.5 53c50.667 0 93.667 -17.833 129 -53.5s53 -78.5 53 -128.5c0 -50.667 -17.833 -93.667 -53.5 -129s-78.5 -53 -128.5 -53s-92.833 17.667 -128.5 53s-53.5 78.333 -53.5 129zM869.001 1648c0 -30 10.5 -55.5 31.5 -76.5
s46.167 -31.5 75.5 -31.5c30 0 55.5 10.5 76.5 31.5s31.5 46.5 31.5 76.5c0 29.333 -10.5 54.5 -31.5 75.5s-46.5 31.5 -76.5 31.5c-29.333 0 -54.5 -10.5 -75.5 -31.5s-31.5 -46.167 -31.5 -75.5z" />
    <glyph glyph-name="uring" unicode="&#x16f;" 
d="M793 192c-127.333 -144 -257.666 -216.001 -390.999 -216.001c-82 0 -148.167 23.5 -198.5 70.5s-75.5 104.5 -75.5 172.5c0 44.667 11.333 121.334 34 230.001l128 613h181l-142 -679c-12 -56.667 -18 -100.667 -18 -132c0 -40 12.167 -71.167 36.5 -93.5
s60.166 -33.5 107.499 -33.5c50.667 0 100.167 12.333 148.5 37s90 58 125 100s63.5 91.667 85.5 149c14.667 36.667 31.667 101 51 193l96 459h181l-222 -1062h-167zM543 1320c0 50.667 17.833 93.667 53.5 129s78.5 53 128.5 53c50.667 0 93.667 -17.833 129 -53.5
s53 -78.5 53 -128.5c0 -50.667 -17.833 -93.667 -53.5 -129s-78.5 -53 -128.5 -53s-92.833 17.667 -128.5 53s-53.5 78.333 -53.5 129zM618 1320c0 -30 10.5 -55.5 31.5 -76.5s46.167 -31.5 75.5 -31.5c30 0 55.5 10.5 76.5 31.5s31.5 46.5 31.5 76.5
c0 29.333 -10.5 54.5 -31.5 75.5s-46.5 31.5 -76.5 31.5c-29.333 0 -54.5 -10.5 -75.5 -31.5s-31.5 -46.167 -31.5 -75.5z" />
    <glyph glyph-name="Uhungarumlaut" unicode="&#x170;" horiz-adv-x="1479" 
d="M406 1466l196.001 0.00195312l-188 -901c-15.333 -74.667 -23 -130 -23 -166c0 -78.667 31 -142 93 -190s140 -72 234 -72c74.667 0 144.167 17.167 208.5 51.5s115.166 84.833 152.499 151.5s71 173 101 319l169 807h196l-179 -860
c-30.667 -146.667 -71 -262.834 -121 -348.501s-119.333 -154.334 -208 -206.001s-191.667 -77.5 -309 -77.5c-110.667 0 -206.5 18.333 -287.5 55s-141.667 87.334 -182 152.001s-60.5 138 -60.5 220c0 51.333 13.667 139.666 41 264.999zM702.001 1556l186 275h231
l-268 -275h-149zM1039 1556l183 275h233l-273 -275h-143z" />
    <glyph glyph-name="uhungarumlaut" unicode="&#x171;" 
d="M793 192c-127.333 -144 -257.666 -216.001 -390.999 -216.001c-82 0 -148.167 23.5 -198.5 70.5s-75.5 104.5 -75.5 172.5c0 44.667 11.333 121.334 34 230.001l128 613h181l-142 -679c-12 -56.667 -18 -100.667 -18 -132c0 -40 12.167 -71.167 36.5 -93.5
s60.166 -33.5 107.499 -33.5c50.667 0 100.167 12.333 148.5 37s90 58 125 100s63.5 91.667 85.5 149c14.667 36.667 31.667 101 51 193l96 459h181l-222 -1062h-167zM410 1191l186 275h231l-268 -275h-149zM747 1191l183 275h233l-273 -275h-143z" />
    <glyph glyph-name="Uogonek" unicode="&#x172;" horiz-adv-x="1479" 
d="M406 1466l196.001 0.00195312l-188 -901c-15.333 -74.667 -23 -130 -23 -166c0 -78.667 31 -142 93 -190s140 -72 234 -72c74.667 0 144.167 17.167 208.5 51.5s115.166 84.833 152.499 151.5s71 173 101 319l169 807h196l-179 -860
c-30.667 -146.667 -71 -262.834 -121 -348.501s-119.333 -154.334 -208 -206.001s-191.667 -77.5 -309 -77.5c-110.667 0 -206.5 18.333 -287.5 55s-141.667 87.334 -182 152.001s-60.5 138 -60.5 220c0 51.333 13.667 139.666 41 264.999zM903.001 -266.998
l-26.999 -128.002c-53.333 -23.333 -101.333 -35 -144 -35c-65.333 0 -112.333 18.333 -141 55c-18 22.667 -27 51.334 -27 86.001c0 56 22.667 113.333 68 172c32.667 42 75 81 127 117h132c-90.667 -49.333 -144.334 -113 -161.001 -191
c-2 -9.33301 -3 -18.666 -3 -27.999c0 -48 26.667 -72 80 -72c31.333 0 63.333 8 96 24z" />
    <glyph glyph-name="uogonek" unicode="&#x173;" 
d="M793 192c-127.333 -144 -257.666 -216.001 -390.999 -216.001c-82 0 -148.167 23.5 -198.5 70.5s-75.5 104.5 -75.5 172.5c0 44.667 11.333 121.334 34 230.001l128 613h181l-142 -679c-12 -56.667 -18 -100.667 -18 -132c0 -40 12.167 -71.167 36.5 -93.5
s60.166 -33.5 107.499 -33.5c50.667 0 100.167 12.333 148.5 37s90 58 125 100s63.5 91.667 85.5 149c14.667 36.667 31.667 101 51 193l96 459h181l-222 -1062h-167zM913 -267.001l-26.999 -128.002c-53.333 -23.333 -101.333 -35 -144 -35
c-65.333 0 -112.333 18.333 -141 55c-18 22.667 -27 51.334 -27 86.001c0 56 22.667 113.333 68 172c32.667 42 75 81 127 117h132c-90.667 -49.333 -144.334 -113 -161.001 -191c-2 -9.33301 -3 -18.666 -3 -27.999c0 -48 26.667 -72 80 -72c31.333 0 63.333 8 96 24z" />
    <glyph glyph-name="Wcircumflex" unicode="&#x174;" horiz-adv-x="1933" 
d="M346 0l-89.999 1466h199l34 -725c2 -34.667 5.33301 -128.667 10 -282c1.33301 -42.667 2 -72.667 2 -90c0 -11.333 -0.333008 -44.333 -1 -99c81.333 166.667 140 284 176 352l446 844h202l49 -857c5.33301 -98 9 -216 11 -354c12 34 33.333 84.667 64 152
c48.667 108.667 84.667 186.334 108 233.001l418 826h200l-746 -1466h-210l-49 888c-4.66699 76 -8.33398 169.333 -11.001 280c-40.667 -92.667 -74.667 -164.667 -102 -216l-508 -952h-202zM926.001 1556l265 275h200l124 -275h-158l-80 178l-165 -178h-186z" />
    <glyph glyph-name="wcircumflex" unicode="&#x175;" horiz-adv-x="1479" 
d="M270 0l-110.999 1062h174l48 -477l19 -268c1.33301 -20 3.33301 -60.333 6 -121c20 68 37 120.167 51 156.5s36.333 88.166 67 155.499l253 554h197l35 -531c5.33301 -80.667 8.66602 -188.334 9.99902 -323.001c33.333 89.333 87.666 213.333 162.999 372l228 482h181
l-519 -1062h-188l-40 623c-2.66699 38.667 -4.66699 114 -6 226c-27.333 -71.333 -59.666 -148.333 -96.999 -231l-281 -618h-190zM603.001 1191l265 275h200l124 -275h-158l-80 178l-165 -178h-186z" />
    <glyph glyph-name="Ycircumflex" unicode="&#x176;" horiz-adv-x="1366" 
d="M572 0l118.001 567l-451 899h210l216 -428c47.333 -93.333 93.333 -193.333 138 -300c49.333 90.667 116.666 189.667 201.999 297l344 431h234l-700 -914l-115 -552h-196zM627.001 1556l265 275h200l124 -275h-158l-80 178l-165 -178h-186z" />
    <glyph glyph-name="ycircumflex" unicode="&#x177;" horiz-adv-x="1024" 
d="M0 -410l11 170c37.333 -10.667 73.666 -16 108.999 -16c36.667 0 66.334 8.33301 89.001 25c29.333 22 61.333 63.333 96 124l58 104l-177 1065h178l80 -537c16 -106 29.667 -212 41 -318l475 855h189l-677 -1203c-65.333 -117.333 -123.333 -195 -174 -233
s-109 -57 -175 -57c-42 0 -83 7 -123 21zM376 1191l265 275h200l124 -275h-158l-80 178l-165 -178h-186z" />
    <glyph glyph-name="Ydieresis" unicode="&#x178;" horiz-adv-x="1366" 
d="M572 0l118.001 567l-451 899h210l216 -428c47.333 -93.333 93.333 -193.333 138 -300c49.333 90.667 116.666 189.667 201.999 297l344 431h234l-700 -914l-115 -552h-196zM637.001 1553l43 205h189l-43 -205h-189zM1006 1553l43 205h188l-42 -205h-189z" />
    <glyph glyph-name="Zacute" unicode="&#x179;" horiz-adv-x="1251" 
d="M50 0l18.999 147.001l734 877l152 184c30.667 37.333 60.334 71.666 89.001 102.999c-62 -7.33301 -105.333 -11 -130 -11l-48 1l-58 -1l-57 -1h-493l35 167h1011l-17 -153l-787 -935l-184 -217c29.333 4 48.333 6 57 6h799l-35 -167h-1087zM622.999 1556l188 275h228
l-266 -275h-150z" />
    <glyph glyph-name="zacute" unicode="&#x17a;" horiz-adv-x="1024" 
d="M40 0l29.001 140l571 643c40.667 45.333 86 92.333 136 141c-86 -8.66699 -147.667 -13 -185 -13h-395l32 151h821l-24 -114l-576 -647c-32.667 -36.667 -81.334 -87 -146.001 -151c100.667 6 169.667 9 207 9h418l-33 -159h-855zM489.001 1191l188 275h228l-266 -275
h-150z" />
    <glyph glyph-name="Zdotaccent" unicode="&#x17b;" horiz-adv-x="1251" 
d="M50 0l18.999 147.001l734 877l152 184c30.667 37.333 60.334 71.666 89.001 102.999c-62 -7.33301 -105.333 -11 -130 -11l-48 1l-58 -1l-57 -1h-493l35 167h1011l-17 -153l-787 -935l-184 -217c29.333 4 48.333 6 57 6h799l-35 -167h-1087zM661.999 1546l47 223h223
l-48 -223h-222z" />
    <glyph glyph-name="zdotaccent" unicode="&#x17c;" horiz-adv-x="1024" 
d="M40 0l29.001 140l571 643c40.667 45.333 86 92.333 136 141c-86 -8.66699 -147.667 -13 -185 -13h-395l32 151h821l-24 -114l-576 -647c-32.667 -36.667 -81.334 -87 -146.001 -151c100.667 6 169.667 9 207 9h418l-33 -159h-855zM517.001 1209l47 223h223l-48 -223h-222
z" />
    <glyph glyph-name="Zcaron" unicode="&#x17d;" horiz-adv-x="1251" 
d="M50 0l18.999 147.001l734 877l152 184c30.667 37.333 60.334 71.666 89.001 102.999c-62 -7.33301 -105.333 -11 -130 -11l-48 1l-58 -1l-57 -1h-493l35 167h1011l-17 -153l-787 -935l-184 -217c29.333 4 48.333 6 57 6h799l-35 -167h-1087zM1121 1831l-265 -275h-200
l-123 275h158l76 -178l166 178h188z" />
    <glyph glyph-name="zcaron" unicode="&#x17e;" horiz-adv-x="1024" 
d="M40 0l29.001 140l571 643c40.667 45.333 86 92.333 136 141c-86 -8.66699 -147.667 -13 -185 -13h-395l32 151h821l-24 -114l-576 -647c-32.667 -36.667 -81.334 -87 -146.001 -151c100.667 6 169.667 9 207 9h418l-33 -159h-855zM996.001 1466l-265 -275h-200l-123 275
h158l76 -178l166 178h188z" />
    <glyph glyph-name="longs" unicode="&#x17f;" horiz-adv-x="455" 
d="M54 0l252.997 1213c16.667 77.333 34 133.166 52 167.499s46.833 61.333 86.5 81s86.834 29.5 141.501 29.5c51.333 0 121 -9.66699 209 -29l-33 -158c-60 16 -111.333 24 -154 24c-41.333 0 -70.166 -11.167 -86.499 -33.5s-30.166 -61.833 -41.499 -118.5l-246 -1176
h-181z" />
    <glyph glyph-name="uni0180" unicode="&#x180;" 
d="M1096 652c0 -178 -46.335 -329.333 -139.002 -454c-73.333 -98.667 -157 -164.667 -251 -198c-44.667 -16 -87 -24 -127 -24c-147.333 0 -250.666 75 -309.999 225l-42 -201h-159l254 1219h-135l29 134h134l24 113h181l-24 -113h326l-29 -134h-324l-58 -277
c104.667 96 205.334 144 302.001 144c116.667 0 205.667 -45 267 -135c54 -77.333 81 -177 81 -299zM917.998 658c0 77.333 -17.667 141.666 -53 192.999c-40 59.333 -97 89 -171 89c-139.333 0 -245 -102.667 -317 -308c-25.333 -73.333 -39 -138.666 -41 -195.999l-1 -34
c-2.66699 -88 19 -157 65 -207c43.333 -47.333 97.333 -71 162 -71c137.333 0 239 91.333 305 274c34 94 51 180.667 51 260z" />
    <glyph glyph-name="uni0181" unicode="&#x181;" horiz-adv-x="1496" 
d="M1471 1118c0 -172 -89.999 -289.668 -269.999 -353.001c158 -52 237 -152.333 237 -301c0 -83.333 -23.667 -162 -71 -236c-46 -71.333 -107 -127.166 -183 -167.499s-161 -60.5 -255 -60.5h-710l272 1299c-77.333 0 -129 -13 -155 -39s-39 -81.333 -39 -166h-157
c0 133.333 22 226.666 66 279.999c51.333 61.333 146.333 92 285 92h489c83.333 0 144.666 -3.33301 183.999 -10c132.667 -22.667 222.667 -81 270 -175c24.667 -49.333 37 -103.666 37 -162.999zM1288 1106c0 85.333 -35.333 143 -106 173
c-31.333 13.333 -92.333 20 -183 20h-312l-96 -459h297c266.667 0 400 88.667 400 266zM1238 462.999c0 86 -32.001 145 -96.001 177c-45.333 22 -116.666 33 -213.999 33h-372l-106 -507h334c86 0 145.667 3 179 9c118 21.333 198.667 73.333 242 156c22 42 33 86 33 132z
" />
    <glyph glyph-name="uni0182" unicode="&#x182;" horiz-adv-x="1333" 
d="M1346 1466l-36 -167h-753l-96 -457h297c119.333 0 204 -5.66699 254 -17c90 -20 160 -63.333 210 -130c40.667 -54.667 61 -123 61 -205c0 -94 -27.333 -182 -82 -264s-125.667 -140.667 -213 -176c-82.667 -33.333 -216 -50 -400 -50h-501l312 1466h947zM1087 481
c0 98 -47.666 157.999 -142.999 179.999c-42.667 10 -113.334 15 -212.001 15h-307l-107 -510h172c139.333 0 236 4.33301 290 13c118.667 18.667 201.667 61.334 249 128.001c38.667 54 58 112 58 174z" />
    <glyph glyph-name="uni0183" unicode="&#x183;" 
d="M1096 652c0 -178 -46.335 -329.333 -139.002 -454c-73.333 -98.667 -157 -164.667 -251 -198c-44.667 -16 -87 -24 -127 -24c-147.333 0 -250.666 75 -309.999 225l-42 -201h-159l306 1466h622l-32 -147h-440l-78 -377c104.667 96 205.334 144 302.001 144
c116.667 0 205.667 -45 267 -135c54 -77.333 81 -177 81 -299zM917.998 658c0 77.333 -17.667 141.666 -53 192.999c-40 59.333 -97 89 -171 89c-139.333 0 -245 -102.667 -317 -308c-25.333 -73.333 -39 -138.666 -41 -195.999l-1 -34c-2.66699 -88 19 -157 65 -207
c43.333 -47.333 97.333 -71 162 -71c137.333 0 239 91.333 305 274c34 94 51 180.667 51 260z" />
    <glyph glyph-name="uni0184" unicode="&#x184;" horiz-adv-x="1333" 
d="M1283 490c0 -94 -27.333 -182 -82 -264s-125.667 -140.667 -213 -176c-82.667 -33.333 -216 -50 -400 -50h-501l214 996l-120 165l7 33l374 272h31l-132 -624h297c119.333 0 204 -5.66699 254 -17c90 -20 160 -63.333 210 -130c40.667 -54.667 61 -123 61 -205zM1087 481
c0 98 -47.666 157.999 -142.999 179.999c-42.667 10 -113.334 15 -212.001 15h-307l-107 -510h172c139.333 0 236 4.33301 290 13c118.667 18.667 201.667 61.334 249 128.001c38.667 54 58 112 58 174z" />
    <glyph glyph-name="uni0185" unicode="&#x185;" 
d="M1096 652c0 -178 -46.335 -329.333 -139.002 -454c-73.333 -98.667 -157 -164.667 -251 -198c-44.667 -16 -87 -24 -127 -24c-147.333 0 -250.666 75 -309.999 225l-42 -201h-159l227 1086l-91 155l7 33l311 192h33l-109 -524c104.667 96 205.334 144 302.001 144
c116.667 0 205.667 -45 267 -135c54 -77.333 81 -177 81 -299zM917.998 658c0 77.333 -17.667 141.666 -53 192.999c-40 59.333 -97 89 -171 89c-139.333 0 -245 -102.667 -317 -308c-25.333 -73.333 -39 -138.666 -41 -195.999l-1 -34c-2.66699 -88 19 -157 65 -207
c43.333 -47.333 97.333 -71 162 -71c137.333 0 239 91.333 305 274c34 94 51 180.667 51 260z" />
    <glyph glyph-name="uni0186" unicode="&#x186;" horiz-adv-x="1479" 
d="M1470 861c0 -264 -79.335 -482.334 -238.002 -655.001c-141.333 -154 -317 -231 -527 -231c-149.333 0 -272.666 39.333 -369.999 118c-100.667 82.667 -159 197 -175 343l183 17c38.667 -210.667 156.334 -316 353.001 -316c179.333 0 324.333 79.667 435 239
c96 138 144 301 144 489c0 136 -32 245.333 -96 328c-70.667 90.667 -172 136 -304 136c-110.667 0 -207 -37 -289 -111c-75.333 -67.333 -130.333 -156.666 -165 -267.999l-194 27c56.667 156 139.334 279 248.001 369c118 96.667 256.333 145 415 145
c189.333 0 334.666 -58.667 435.999 -176c96 -110.667 144 -262 144 -454z" />
    <glyph glyph-name="uni0187" unicode="&#x187;" horiz-adv-x="1479" 
d="M1876 1635l-33 -157.997c-61.333 16 -112.666 24 -153.999 24c-42.667 0 -73.667 -15 -93 -45c-12.667 -19.333 -24.334 -55 -35.001 -107l-69 -337h-181c-19.333 99.333 -59.666 177 -120.999 233s-138 84 -230 84c-179.333 0 -324.333 -79.667 -435 -239
c-96 -138 -144 -301 -144 -489c0 -136 32 -245.333 96 -328c70.667 -90.667 172 -136 304 -136c110.667 0 207 37 289 111c75.333 67.333 130.333 156.666 165 267.999l194 -27c-56.667 -156 -139.334 -279 -248.001 -369c-118 -96.667 -256.333 -145 -415 -145
c-188.667 0 -333.667 58.667 -435 176c-96.667 111.333 -145 262.666 -145 453.999c0 264 79.333 482.333 238 655c141.333 154 317 231 527 231c181.333 0 322.333 -56.667 423 -170l14 65c22 101.333 50.333 170.666 85 207.999c42 46.667 109.667 70 203 70
c46 0 112.667 -9.66699 200 -29z" />
    <glyph glyph-name="uni0188" unicode="&#x188;" horiz-adv-x="1024" 
d="M1402 1220l-33 -158.001c-61.333 16 -112.666 24 -153.999 24c-42.667 0 -73.667 -15 -93 -45c-12.667 -19.333 -24.334 -55 -35.001 -107l-41 -200l-178 -12c-0.666992 65.333 -19.667 117.5 -57 156.5s-88.333 58.5 -153 58.5c-149.333 0 -254 -92.667 -314 -278
c-30.667 -94.667 -46 -185 -46 -271c0 -75.333 15.333 -137.333 46 -186c37.333 -57.333 91.333 -86 162 -86c136 0 234.333 90.333 295 271l181 -19c-89.333 -261.333 -249 -392 -479 -392c-123.333 0 -219.666 40.667 -288.999 122c-66 76.667 -99 177.667 -99 303
c0 116 21.333 226.667 64 332c48.667 118 116 206.333 202 265s184 88 294 88c99.333 0 181.666 -25.333 246.999 -76c20 84.667 48.333 144.334 85 179.001c42 40 107 60 195 60c46 0 112.667 -9.66699 200 -29z" />
    <glyph glyph-name="uni0189" unicode="&#x189;" horiz-adv-x="1479" 
d="M108 0l141 666.001h-158l28 134h159l141 666h437c92 0 156.667 -3.33301 194 -10c58.667 -10.667 114.334 -30.5 167.001 -59.5s99.167 -70 139.5 -123s70.166 -114.333 89.499 -184s29 -143.834 29 -222.501c0 -118 -18 -225.5 -54 -322.5s-82.667 -182.5 -140 -256.5
s-117.5 -131.667 -180.5 -173s-137.5 -72 -223.5 -92c-65.333 -15.333 -146 -23 -242 -23h-527zM339 166.001l231 -0.00292969c104.667 0 197.667 9.66699 279 29c50.667 12 94 29.667 130 53c47.333 30 90.666 69.667 129.999 119c50.667 65.333 91 139.833 121 223.5
s45 178.834 45 285.501c0 118.667 -20.667 209.834 -62 273.501s-93.666 105.834 -156.999 126.501c-48 15.333 -121.667 23 -221 23h-256l-106 -499h404l-28 -134h-404z" />
    <glyph glyph-name="uni018A" unicode="&#x18a;" horiz-adv-x="1606" 
d="M1585 867c0 -220.667 -64.332 -413.332 -192.999 -577.999c-109.333 -140 -244.333 -228.667 -405 -266c-66 -15.333 -146.333 -23 -241 -23h-528l271 1299c-76.667 0 -127.334 -12.667 -152.001 -38c-26.667 -27.333 -40 -83 -40 -167h-157
c0 133.333 22 226.666 66 279.999c51.333 61.333 146.333 92 285 92h475c104 0 185 -7.66699 243 -23c129.333 -34 226.333 -106.667 291 -218c56.667 -98 85 -217.333 85 -358zM1386 876.002c0 219.333 -73.332 352.667 -219.999 400c-47.333 15.333 -121 23 -221 23h-259
l-237 -1133h232c187.333 0 323.666 27.333 408.999 82c110 70.667 193.667 185 251 343c30 82.667 45 177.667 45 285z" />
    <glyph glyph-name="uni018B" unicode="&#x18b;" horiz-adv-x="1333" 
d="M1398 1466l-311 -1466h-501c-155.333 0 -272.333 17 -351 51c-117.333 50.667 -176 143.667 -176 279c0 164.667 59.667 292 179 382c114 86.667 269.333 130 466 130h367l98 457h-753l35 167h947zM1036 676l-317 0.000976562c-298 0 -447 -101.667 -447 -305
c0 -98.667 50.667 -161.334 152 -188.001c42.667 -11.333 131 -17 265 -17h237z" />
    <glyph glyph-name="uni018C" unicode="&#x18c;" 
d="M1225 1466l-306 -1466h-167l32 154c-103.333 -118.667 -211.333 -178 -324 -178c-116 0 -205.667 45 -269 135c-55.333 78.667 -83 178.667 -83 300c0 116 23 226.667 69 332c50.667 115.333 120.667 203 210 263c79.333 53.333 159 80 239 80
c132 0 231.667 -63.667 299 -191l89 424h-441l32 147h620zM869 669c0 76 -19.332 138.667 -57.999 188c-42 53.333 -100 80 -174 80c-85.333 0 -160 -42.333 -224 -127c-34.667 -46 -64.167 -104.167 -88.5 -174.5s-36.5 -133.833 -36.5 -190.5
c0 -135.333 32.333 -229 97 -281c36 -28.667 78.333 -43 127 -43c81.333 0 155.666 42.667 222.999 128c89.333 114 134 254 134 420z" />
    <glyph glyph-name="uni018D" unicode="&#x18d;" horiz-adv-x="1138" 
d="M1111 648c0 -164.667 -48.334 -308.666 -145.001 -431.999c-103.333 -132.667 -235 -202 -395 -208c124 -117.333 211.333 -216 262 -296l-26 -119h-807l31 151h596c-22.667 27.333 -109.667 112 -261 254c-124 101.333 -197 184.666 -219 249.999
c-27.333 63.333 -41 127 -41 191c0 176 51 325.667 153 449c108.667 132 249.334 198 422.001 198c131.333 0 235.833 -40 313.5 -120s116.5 -186 116.5 -318zM927.999 649.001c0 85.333 -20.333 154.667 -61 208c-45.333 59.333 -109.333 89 -192 89
c-116 0 -211.333 -58.667 -286 -176c-64.667 -102 -97 -214.667 -97 -338c0 -80 20 -146 60 -198c44 -57.333 105 -86 183 -86c120 0 217.667 55.333 293 166c66.667 98 100 209.667 100 335z" />
    <glyph glyph-name="uni018E" unicode="&#x18e;" horiz-adv-x="1366" 
d="M1433 1466l-307 -1466h-1058l35 167h862l96 456h-840l35 167h840l106 510h-923l35 166h1119z" />
    <glyph glyph-name="uni018F" unicode="&#x18f;" horiz-adv-x="1593" 
d="M1523 866c0 -247.333 -71.0029 -457.668 -213.003 -631.001s-330.333 -260 -565 -260c-182.667 0 -321.667 57 -417 171c-90 106.667 -135 255 -135 445c0 93.333 6.66699 177.333 20 252h1116v35c0 130.667 -32.667 236.334 -98 317.001
c-71.333 88 -170.666 132 -297.999 132c-196.667 0 -341 -102.667 -433 -308l-175 46c58.667 129.333 141.334 232 248.001 308c111.333 78.667 236 118 374 118c184.667 0 328.334 -58.667 431.001 -176c96.667 -111.333 145 -261 145 -449zM1311 668.998h-920.999
c-2 -33.333 -3 -64.333 -3 -93c0 -131.333 29.333 -236.333 88 -315c65.333 -86.667 159.666 -130 282.999 -130c145.333 0 268 55.333 368 166c84 94 145.667 218 185 372z" />
    <glyph glyph-name="uni018F" unicode="&#x4d8;" horiz-adv-x="1593" 
d="M1523 866c0 -247.333 -71.0029 -457.668 -213.003 -631.001s-330.333 -260 -565 -260c-182.667 0 -321.667 57 -417 171c-90 106.667 -135 255 -135 445c0 93.333 6.66699 177.333 20 252h1116v35c0 130.667 -32.667 236.334 -98 317.001
c-71.333 88 -170.666 132 -297.999 132c-196.667 0 -341 -102.667 -433 -308l-175 46c58.667 129.333 141.334 232 248.001 308c111.333 78.667 236 118 374 118c184.667 0 328.334 -58.667 431.001 -176c96.667 -111.333 145 -261 145 -449zM1311 668.998h-920.999
c-2 -33.333 -3 -64.333 -3 -93c0 -131.333 29.333 -236.333 88 -315c65.333 -86.667 159.666 -130 282.999 -130c145.333 0 268 55.333 368 166c84 94 145.667 218 185 372z" />
    <glyph glyph-name="uni0190" unicode="&#x190;" horiz-adv-x="1257" 
d="M1295 1078c0 -16.667 -0.666016 -34.668 -1.99902 -54.001l-195 -42c5.33301 24 7.66602 49 6.99902 75c-3.33301 176 -91 264 -263 264c-83.333 0 -158 -25.667 -224 -77c-70.667 -54.667 -106.334 -122.667 -107.001 -204c-0.666992 -42 11.666 -80.167 36.999 -114.5
s58.333 -56.166 99 -65.499c47.333 -10.667 115 -16 203 -16l-36 -169h-93c-109.333 0 -202.333 -25.333 -279 -76c-89.333 -59.333 -134 -141.333 -134 -246c0 -70.667 30.333 -125 91 -163c52 -32.667 115.333 -49 190 -49c90 0 175.667 32.667 257 98
c74.667 60.667 130 135 166 223l175 -48c-145.333 -292.667 -356.666 -439 -633.999 -439c-121.333 0 -223.333 27 -306 81c-96.667 63.333 -145 152.333 -145 267c0 104 33 198.667 99 284s149.333 141 250 167c-92 61.333 -137.333 142.333 -136 243
c2 138 62.667 253.333 182 346c110.667 85.333 237 128 379 128c280.667 0 420.334 -137.667 419.001 -413z" />
    <glyph glyph-name="uni0191" unicode="&#x191;" horiz-adv-x="1251" 
d="M1352 1466l-35.002 -167.001h-757l-97 -467h771l-35 -167h-771l-146 -708c-25.333 -123.333 -53.666 -209.666 -84.999 -258.999c-52 -82 -131.667 -123 -239 -123c-47.333 0 -104.666 8.66699 -171.999 26l32 154c41.333 -11.333 78 -17 110 -17c50 0 89.333 30 118 90
c14.667 32 30 86 46 162l307 1476h953z" />
    <glyph glyph-name="florin" unicode="&#x192;" 
d="M46 -405l35.0029 155.002c67.333 -14.667 118 -22 152 -22c36 0 63.667 9.33301 83 28s34.333 60 45 124l177 1042h-201l24 140h201l24 133c14.667 80 29.667 135 45 165c20.667 41.333 50.167 73.666 88.5 96.999s88.5 35 150.5 35c53.333 0 125 -12.667 215 -38
l-35 -153c-68.667 16 -120 24 -154 24c-37.333 0 -65.333 -9.16699 -84 -27.5s-34.334 -62.5 -47.001 -132.5l-19 -103h204l-25 -140h-204l-191 -1092c-17.333 -98.667 -46.333 -166.834 -87 -204.501s-98.334 -56.5 -173.001 -56.5c-62.667 0 -137.334 8.66699 -224.001 26
z" />
    <glyph glyph-name="uni0193" unicode="&#x193;" horiz-adv-x="1593" 
d="M1947 1635l-33.001 -158.004c-61.333 16 -112.666 24 -153.999 24c-42.667 0 -73.667 -15 -93 -45c-12.667 -19.333 -24.334 -55 -35.001 -107l-69 -337h-181c-20.667 100.667 -64.334 178.5 -131.001 233.5s-151 82.5 -253 82.5
c-235.333 0 -407.666 -115.667 -516.999 -347c-55.333 -117.333 -83 -249.666 -83 -396.999c0 -138.667 33.333 -246.667 100 -324c70.667 -82 174 -123 310 -123c127.333 0 264.333 42 411 126l66 315h-446l35 166h642l-125 -597
c-182.667 -114.667 -376.334 -172 -581.001 -172c-213.333 0 -372.666 64.333 -477.999 193c-88.667 108.667 -133 248.334 -133 419.001c0 160.667 34.333 312.334 103 455.001c74.667 154.667 177.334 270 308.001 346c118 68.667 249.333 103 394 103
c196.667 0 343.667 -58.333 441 -175l14 70c20.667 100.667 48.667 170.334 84 209.001c42 46 110 69 204 69c46 0 112.667 -9.66699 200 -29z" />
    <glyph glyph-name="uni0194" unicode="&#x194;" horiz-adv-x="1017" 
d="M1345 1466l-768.999 -1204l53 -250c8.66699 -39.333 13 -76 13 -110c0.666992 -96.667 -25 -174.667 -77 -234c-54.667 -62 -130.334 -93 -227.001 -93c-132 0 -197.667 55.667 -197 167c0.666992 82.667 32 172.667 94 270l159 250l-257 1204h192l206 -968l618 968h192z
M465.001 -130c0 18 -2.33301 37 -7 57l-22 103l-63 -103c-35.333 -58 -53 -106 -53 -144c0 -45.333 17.667 -68 53 -68c30.667 0 54.667 19 72 57c14 30 20.667 62.667 20 98z" />
    <glyph glyph-name="uni0195" unicode="&#x195;" horiz-adv-x="1801" 
d="M1813 1062l-104.002 -499.001c-26.667 -129.333 -53.667 -226.333 -81 -291c-44.667 -106.667 -105.667 -184 -183 -232c-68.667 -42.667 -149 -64 -241 -64c-110 0 -199.667 28.667 -269 86c-73.333 62 -110 147 -110 255c0 52.667 10 130.334 30 233.001l24 123
c16 82 24 130.667 24 146c0 78.667 -46.667 118 -140 118c-67.333 0 -130.166 -17.333 -188.499 -52s-104.166 -81.334 -137.499 -140.001c-34.667 -61.333 -65.667 -157.666 -93 -288.999l-95 -456h-181l306 1466h181l-117 -563c126 122 248.333 183 367 183
c83.333 0 149.666 -21 198.999 -63c52.667 -45.333 79 -108.666 79 -189.999c0 -34.667 -10.667 -103.334 -32 -206.001l-32 -154c-16 -76.667 -24 -131 -24 -163c0 -58.667 20 -104.667 60 -138c38 -32 86.667 -48 146 -48c112.667 0 195.334 52 248.001 156
c22 44 42 108.333 60 193l123 589h181z" />
    <glyph glyph-name="uni0196" unicode="&#x196;" horiz-adv-x="455" 
d="M54 0l306 1466h181l-306 -1466h-181z" />
    <glyph glyph-name="uni0197" unicode="&#x197;" horiz-adv-x="569" 
d="M639 800l-28 -134h-159l-139 -666h-196l139 666h-158l28 134h159l139 666h195l-139 -666h159z" />
    <glyph glyph-name="uni0198" unicode="&#x198;" horiz-adv-x="1366" 
d="M1518 1466l-681.002 -597.001l499 -869h-219l-423 743l-307 -267l-100 -476h-196l254 1213c20.667 98.667 51 168.334 91 209.001c46 46 116.667 69 212 69c46 0 112.667 -9.66699 200 -29l-33 -158c-61.333 16 -112.666 24 -153.999 24c-44 0 -75.333 -15 -94 -45
c-11.333 -18 -22.666 -53.667 -33.999 -107l-4 -18l-83 -398l796 706h276z" />
    <glyph glyph-name="uni0199" unicode="&#x199;" horiz-adv-x="1024" 
d="M1134 1062l-453.002 -396.001l274 -666h-198l-212 545l-220 -190l-74 -355h-181l253 1213c21.333 100.667 49.333 170.334 84 209.001c42.667 46 111 69 205 69c46 0 112.667 -9.66699 200 -29l-33 -158c-61.333 16 -112.666 24 -153.999 24c-44 0 -75.333 -15 -94 -45
c-11.333 -18 -22.666 -53.667 -33.999 -107l-130 -619l528 505h239z" />
    <glyph glyph-name="uni019A" unicode="&#x19a;" horiz-adv-x="455" 
d="M541 1466l-139 -666h136l-29 -134h-135l-139 -666h-181l139 666h-131l29 134h130l139 666h181z" />
    <glyph glyph-name="uni019B" unicode="&#x19b;" horiz-adv-x="1008" 
d="M919 1364l-202 -80l199 -1284h-181l-125 833l-480 -833h-181l625 1062l-25 155l-272 -108l-18 103l273 108l-24 146h181l12 -79l200 79z" />
    <glyph glyph-name="uni019C" unicode="&#x19c;" horiz-adv-x="1733" 
d="M1824 1466l-306.998 -1466h-191l37 175c-104 -133.333 -221.667 -200 -353 -200c-66 0 -122.333 17.333 -169 52c-48.667 36 -80 85.333 -94 148c-108.667 -133.333 -228.334 -200 -359.001 -200c-184 0 -276 80.333 -276 241c0 34.667 7.66699 88.667 23 162l228 1088
h191l-226 -1088c-12.667 -60.667 -19 -101.667 -19 -123c0 -78.667 41.667 -118 125 -118c191.333 0 315.666 136.667 372.999 410l193 919h191l-233 -1111c-10.667 -50.667 -16 -85.334 -16 -104.001c0 -34.667 11 -62.334 33 -83.001s50.667 -31 86 -31
c108 0 197.333 48.667 268 146c52.667 73.333 90.667 165.666 114 276.999l190 906h191z" />
    <glyph glyph-name="uni019D" unicode="&#x19d;" horiz-adv-x="1479" 
d="M1550 1466l-306.002 -1466h-194l-520 1152l-248 -1195c-24.667 -118 -54.334 -204 -89.001 -258c-53.333 -82.667 -129.666 -124 -228.999 -124c-47.333 0 -104.666 8.66699 -171.999 26l32 154c41.333 -11.333 78 -17 110 -17c50.667 0 89.334 28 116.001 84
c14.667 30.667 30.667 86.667 48 168l309 1476h190l522 -1148l240 1148h191z" />
    <glyph glyph-name="uni019E" unicode="&#x19e;" 
d="M1081 829c0 -41.333 -8.66602 -103.333 -25.999 -186l-220 -1050h-181l226 1080c14 66.667 21 115 21 145c0 79.333 -47.333 119 -142 119c-92 0 -174.5 -33.5 -247.5 -100.5s-126.167 -181.167 -159.5 -342.5l-103 -494h-181l222 1062h164l-39 -185
c136.667 139.333 266.667 209 390 209c83.333 0 150.166 -22.333 200.499 -67s75.5 -108 75.5 -190z" />
    <glyph glyph-name="uni019F" unicode="&#x19f;" horiz-adv-x="1593" 
d="M1582 834c0 -254 -83.667 -465 -251 -633c-150 -150.667 -326.667 -226 -530 -226c-116.667 0 -222 27.333 -316 82c-98 56 -172.167 134.833 -222.5 236.5s-75.5 208.5 -75.5 320.5c0 240.667 68 444 204 610c146 178 336.667 267 572 267
c191.333 0 343.333 -62.333 456 -187c108.667 -120 163 -276.667 163 -470zM1387 869c0 121.333 -36.668 226.667 -110.001 316c-78 95.333 -183 143 -315 143c-153.333 0 -288.666 -65.333 -405.999 -196c-76 -84.667 -127.333 -189 -154 -313h984
c0.666992 17.333 1 34 1 50zM1362 647.001h-981c-0.666992 -18.667 -1 -39.667 -1 -63c0 -175.333 71 -304 213 -386c70.667 -40.667 145 -61 223 -61c151.333 0 284 67.667 398 203c68 80.667 117.333 183 148 307z" />
    <glyph glyph-name="Ohorn" unicode="&#x1a0;" horiz-adv-x="1662" 
d="M380 604c0 -188.667 70.999 -323.999 212.999 -405.999c70.667 -40.667 145 -61 223 -61c151.333 0 284 67.667 398 203c52.667 62.667 94.667 140.5 126 233.5s47 184.833 47 275.5c0 143.333 -40.667 259.666 -122 348.999c-80 86.667 -181 130 -303 130
c-159.333 0 -294.666 -65.667 -405.999 -197c-117.333 -137.333 -176 -313 -176 -527zM1591 1261l42.999 205.001h206l-37 -179c-36.667 -176 -113.667 -280.667 -231 -314c6.66699 -44 10 -90.333 10 -139c0 -142.667 -29 -275 -87 -397
c-86 -181.333 -211.333 -311.333 -376 -390c-100 -48 -206 -72 -318 -72c-118 0 -225 28.167 -321 84.5s-168.833 134.5 -218.5 234.5s-74.5 206.667 -74.5 320c0 257.333 75.667 469 227 635c146.667 161.333 329.667 242 549 242c182.667 0 331.667 -59.333 447 -178
c70.667 -73.333 119.334 -162 146.001 -266c74 25.333 123 96.666 147 213.999h-112z" />
    <glyph glyph-name="ohorn" unicode="&#x1a1;" horiz-adv-x="1238" 
d="M281 421c0 -97.333 24 -173 72 -227c45.333 -52 106.333 -78 183 -78c82.667 0 156.334 31.667 221.001 95c62 60.667 108.333 141.334 139 242.001c20.667 67.333 31 130.666 31 189.999c0 94 -24 168.667 -72 224c-46.667 52.667 -107.667 79 -183 79
c-110.667 0 -204.334 -53 -281.001 -159c-73.333 -100.667 -110 -222.667 -110 -366zM1140 857l43.001 205h206l-37 -179c-38.667 -186 -121.667 -292 -249 -318c-8.66699 -93.333 -32.334 -181 -71.001 -263c-48 -102.667 -118.333 -183.334 -211 -242.001
c-88 -56 -183.667 -84 -287 -84c-179.333 0 -306 67.667 -380 203c-36 64.667 -54 139.334 -54 224.001c0 207.333 61 379 183 515c100.667 112 232.667 168 396 168c128.667 0 232 -40.167 310 -120.5s117 -187.833 117 -322.5c73.333 26 122 97.333 146 214h-112z" />
    <glyph glyph-name="uni01A2" unicode="&#x1a2;" horiz-adv-x="1778" 
d="M1843 1491l-403 -1898h-195l357 1680h-186l-243 -1163c-122 -90 -257.333 -135 -406 -135c-188.667 0 -333.667 58.667 -435 176c-96.667 111.333 -145 262.666 -145 453.999c0 264 79.333 482.333 238 655c141.333 154 317 231 527 231c156 0 282 -41.667 378 -125
l483 125h30zM1211 1235c-61.333 62.667 -144.667 94 -250 94c-179.333 0 -324.333 -79.667 -435 -239c-96 -138 -144 -301 -144 -489c0 -136 32 -245.333 96 -328c70.667 -90.667 172 -136 304 -136c70 0 140 19 210 57z" />
    </font>
</defs>
</svg>
