<?xml version="1.0" standalone="no"?>
<!DOCTYPE svg PUBLIC "-//W3C//DTD SVG 1.1//EN" "http://www.w3.org/Graphics/SVG/1.1/DTD/svg11.dtd" >
<svg>
<metadata>
Created by FontForge 20090914 at Wed Apr 14 18:15:51 2021
 By www-data
Copyright (c) Gophmann A.L., 2005. All rights reserved.
</metadata>
<defs>
<font id="Ariston-Normal" horiz-adv-x="222" >
  <font-face 
    font-family="Ariston"
    font-weight="400"
    font-stretch="normal"
    units-per-em="1000"
    panose-1="3 0 4 0 0 0 0 0 0 0"
    ascent="800"
    descent="-200"
    x-height="386.001"
    cap-height="716.503"
    bbox="-226.997 -269.417 1212 937.003"
    underline-thickness="39"
    underline-position="-127"
    unicode-range="U+0020-U+2122"
  />
<missing-glyph horiz-adv-x="500" 
d="M63 0v897h375v-897h-375zM125 63h250v772h-250v-772z" />
    <glyph glyph-name=".notdef" horiz-adv-x="500" 
d="M63 0v897h375v-897h-375zM125 63h250v772h-250v-772z" />
    <glyph glyph-name="space" unicode=" " 
 />
    <glyph glyph-name="exclam" unicode="!" horiz-adv-x="322" 
d="M346 625l-190 -464l-11 2l118 448zM153 31c0 -23.333 -12 -34.999 -36 -34.999c-22.667 0 -34 11.667 -34 35c0 9.33301 3.33301 17.666 10 24.999s14.667 11 24 11c10 0 18.5 -3.5 25.5 -10.5s10.5 -15.5 10.5 -25.5z" />
    <glyph glyph-name="quotedbl" unicode="&#x22;" horiz-adv-x="327" 
d="M299 696v0.998047l1 4c39.333 18.667 64.333 28 75 28c16 0 24 -12.333 24 -37c0 -26.667 -15.167 -58.5 -45.5 -95.5s-58.833 -60.167 -85.5 -69.5c-3.33301 1.33301 -5 3.33301 -5 6l38 41c24.667 26.667 37 50 37 70c0 6.66699 -6.5 15.334 -19.5 26.001
s-19.5 19.334 -19.5 26.001zM188 644.998c0 15.333 -2.66699 25.999 -8 31.999c-0.666992 0.666992 -10 6.33398 -28 17.001l-2 4c2 4 13.833 10.333 35.5 19s35.5 13 41.5 13c15.333 0 23 -12.333 23 -37c0 -27.333 -15.333 -59.333 -46 -96
c-28 -32.667 -56 -55.667 -84 -69c-4 1.33301 -6 3.33301 -6 6c0 -6.66699 1.33301 -10 4 -10c5.33301 0 16.333 14 33 42c24.667 40.667 37 66.667 37 78v1z" />
    <glyph glyph-name="numbersign" unicode="#" horiz-adv-x="554" 
d="M33 206v67h107l26 193h-107v68h117l29 206h69l-29 -206h124l29 206h69l-29 -206h83v-67h-93l-27 -194h92v-67h-101l-29 -206h-69l29 206h-124l-29 -206h-69l29 206h-97zM209 273h123l27 194h-123z" />
    <glyph glyph-name="dollar" unicode="$" horiz-adv-x="523" 
d="M-8 87c0 11.333 4.66797 17.998 14.001 19.998l62 -58c17.333 -16 41 -28.667 71 -38l104 313c-41.333 26.667 -71.333 51.667 -90 75c-24 31.333 -36 68 -36 110c0 62 27.333 109.667 82 143c47.333 29.333 103.333 43 168 41l11 32l21 -8l-9 -28
c32.667 -8 56 -14.667 70 -20c30 -12 45 -27.667 45 -47c0 -6 -2 -15 -6 -27c-4.66699 -14 -9 -21 -13 -21c-2 0 -6.66699 7.33301 -14 22c-13.333 26.667 -44 49 -92 67l-96 -287c52.667 -36 87 -64.667 103 -86c24 -31.333 36 -73.666 36 -126.999
c0 -50.667 -27.333 -93 -82 -127c-46.667 -29.333 -97.334 -44.666 -152.001 -45.999l-34 -1l-28 -80l-20 7l25 76c-46.667 4.66699 -94 26.667 -142 66c1.33301 2.66699 2 12.667 2 30v-1zM360.001 665.998c-7.33301 2 -25.667 4.66699 -55 8c-40 0 -73.5 -13 -100.5 -39
s-40.5 -59 -40.5 -99c0 -58 33.667 -107.667 101 -149l94 280zM196 0.998047c48.667 0 90.668 14.334 126.001 43.001c38 30.667 57 69.667 57 117c0 31.333 -12.667 60.666 -38 87.999c-16.667 18 -42.334 38 -77.001 60l-102 -304c8.66699 -2.66699 19.667 -4 33 -4h1z
" />
    <glyph glyph-name="percent" unicode="%" horiz-adv-x="764" 
d="M223 603c28.667 0 51.001 -15 67.001 -45c14 -25.333 21 -53.333 21 -84c0 -54 -17 -107.667 -51 -161c-38 -60 -83 -90 -135 -90c-28 0 -49.667 16 -65 48c-12.667 26 -19 54.667 -19 86c0 52 17 104.667 51 158c37.333 58.667 80.666 88 129.999 88h1zM277.001 527
c0 17.333 -4.66699 32.501 -14 45.501s-22.333 19.5 -39 19.5c-39.333 0 -75 -41.333 -107 -124c-27.333 -70.667 -41.333 -129.334 -42 -176.001c0 -14.667 4.66699 -28 14 -40s21 -18 35 -18c39.333 0 76 40 110 120c28.667 67.333 43 125 43 173zM513.001 590.001
l-293 -603l-21 12l291 603zM581.001 373.001c28.667 0 51.333 -15.001 68 -45.001c14.667 -25.333 22 -53.333 22 -84c0 -53.333 -16.667 -107 -50 -161c-37.333 -60.667 -81.333 -91 -132 -91c-30 0 -52.667 16.333 -68 49c-12.667 26 -19 55.667 -19 89
c0 50.667 17 102.334 51 155.001c38 58.667 81 88 129 88h-1zM481 4c40.667 0 78 40.333 112 121c28.667 68 43 126.333 43 175c0 15.333 -4.66699 29.5 -14 42.5s-21.333 19.5 -36 19.5c-40 0 -76.333 -40 -109 -120c-28 -68.667 -42 -127 -42 -175
c0 -16 3.66699 -30 11 -42c8.66699 -14 20.667 -21 36 -21h-1z" />
    <glyph glyph-name="ampersand" unicode="&#x26;" horiz-adv-x="463" 
d="M189 423c0 34 9.33105 64.666 27.998 91.999c20.667 31.333 47.334 47 80.001 47c18.667 0 34.834 -7 48.501 -21s20.5 -30.333 20.5 -49c0 -49.333 -34.667 -95.666 -104 -138.999c34.667 -79.333 65.334 -146 92.001 -200c33.333 51.333 50.666 110 51.999 176l35 2
c-7.33301 -48.667 -33 -113.667 -77 -195l63 -119l-51 -28l-51 94c-62 -64 -125.333 -96 -190 -96c-40.667 0 -73.667 11.333 -99 34s-38 54 -38 94c0 50 22.667 97 68 141c40 39.333 86.333 66.333 139 81c-10 31.333 -15 60 -15 86h-1zM338.998 496.999
c0 16 -4.16797 29.5 -12.501 40.5s-20.166 16.5 -35.499 16.5c-20 0 -35.667 -9.66699 -47 -29c-9.33301 -16.667 -14 -35.667 -14 -57c0 -16.667 8 -50.667 24 -102c56.667 40 85 84 85 132v-1zM57.9971 106.999c0 -68.667 31.333 -102.999 94 -102.999
c59.333 0 114.333 30 165 90c-22.667 41.333 -59 117.666 -109 228.999c-100 -70.667 -150 -142.667 -150 -216z" />
    <glyph glyph-name="quotesingle" unicode="'" horiz-adv-x="204" 
d="M207 563l-0.000976562 -5.99902c-27.333 -16.667 -54.666 -27.334 -81.999 -32.001c-16 4 -24 16.333 -24 37c0 44.667 42.667 100 128 166c1.33301 0.666992 3.33301 1 6 1c2 0 3 -1.33301 3 -4c0 7.33301 -1.33301 11 -4 11c-5.33301 0 -16 -14.667 -32 -44
c-24 -44 -36 -72.667 -36 -86c0 -18 6.5 -29.167 19.5 -33.5s20.167 -7.5 21.5 -9.5z" />
    <glyph glyph-name="parenleft" unicode="(" horiz-adv-x="342" 
d="M96 -164l-10.001 -3c-12.667 74 -19 145.667 -19 215c0 132 30.667 256 92 372c50.667 96 128.334 198.333 233.001 307l8 -4c-91.333 -129.333 -164.333 -270 -219 -422c-60.667 -167.333 -89 -322.333 -85 -465z" />
    <glyph glyph-name="parenright" unicode=")" horiz-adv-x="342" 
d="M231 729c12.667 -72 19 -143.667 19 -215c0 -242 -108 -468 -324 -678l-8 2c134 198 223 393.667 267 587c26.667 118 39 218.333 37 301z" />
    <glyph glyph-name="asterisk" unicode="*" horiz-adv-x="342" 
d="M113 666c0 11.333 4.49902 21.1689 13.499 29.502s19.167 12.5 30.5 12.5c14 0 29.667 -18 47 -54l35 -73v13c0 -0.666992 0.333008 3.66602 1 12.999v29v42c0 36.667 12 55 36 55c28 0 42 -11.333 42 -34c0 -9.33301 -9.66699 -29 -29 -59l-39 -60l61 35
c29.333 16.667 49 25 59 25c23.333 0 35 -14 35 -42c0 -22 -11 -33 -33 -33c-13.333 0 -33.666 0.666992 -60.999 2l-62 3c44 -24.667 67.667 -38.334 71 -41.001c32.667 -21.333 49 -39.666 49 -54.999c0 -9.33301 -4.83301 -18 -14.5 -26s-19.167 -12 -28.5 -12
c-15.333 0 -31.333 18 -48 54c-4.66699 10.667 -16.334 34.667 -35.001 72l-2 -85c-0.666992 -20.667 -2 -35.334 -4 -44.001c-4 -16 -14.333 -24 -31 -24c-29.333 0 -44 11 -44 33c0 7.33301 10.333 27.666 31 60.999l40 64l-63 -36c-28 -16 -49 -24 -63 -24
c-21.333 0 -32 12.667 -32 38c0 8.66699 2.83301 16.667 8.5 24s12.834 11 21.501 11c28 0 70 -2 126 -6c-16 8.66699 -39.667 22.334 -71 41.001s-47 36 -47 52v-1z" />
    <glyph glyph-name="plus" unicode="+" horiz-adv-x="644" 
d="M336 306v264h42v-264h263v-42h-263v-264h-42v264h-263v42h263z" />
    <glyph glyph-name="comma" unicode="," 
d="M31 25v1.99805c-0.666992 0 -1 0.333008 -1 1v3c0.666992 0.666992 1 1.33398 1 2.00098l4 4c42 18.667 67.333 28 76 28c7.33301 0 13.5 -3.83301 18.5 -11.5s7.5 -15.5 7.5 -23.5c0 -25.333 -16 -57.666 -48 -96.999s-60.333 -63.333 -85 -72
c-3.33301 1.33301 -5 3.33301 -5 6l1 3c47.333 46 71 84 71 114c0 24 -13.333 37.667 -40 41z" />
    <glyph glyph-name="hyphen" unicode="-" horiz-adv-x="342" 
d="M277 222l-16 -40h-250l17 40h249z" />
    <glyph glyph-name="hyphen" unicode="&#x2010;" horiz-adv-x="342" 
d="M277 222l-16 -40h-250l17 40h249z" />
    <glyph glyph-name="period" unicode="." 
d="M134 53c3.33301 -8 5 -14.668 5 -20.001c0 -9.33301 -3.33301 -17.666 -10 -24.999s-14.667 -11 -24 -11c-10 0 -18.5 3.5 -25.5 10.5s-10.5 15.5 -10.5 25.5c0 23.333 12 35 36 35c9.33301 0 19 -5 29 -15z" />
    <glyph glyph-name="slash" unicode="/" horiz-adv-x="463" 
d="M446 688l-427 -688h-41l429 688h39z" />
    <glyph glyph-name="zero" unicode="0" horiz-adv-x="503" 
d="M304 603c46 0 82.001 -23.001 108.001 -69.001c22 -38.667 33 -82.667 33 -132c0 -87.333 -26 -174.666 -78 -261.999c-58.667 -98.667 -129.334 -148 -212.001 -148c-48 0 -84 24.667 -108 74c-19.333 38.667 -29 84.667 -29 138c0 80.667 27.333 165 82 253
c60.667 97.333 129 146 205 146h-1zM401.001 482.999c0 32.667 -8 59.001 -24 79.001c-18 22.667 -42.667 34 -74 34c-69.333 0 -136.333 -95.333 -201 -286c-28 -82 -42 -147.333 -42 -196c0 -76 33.667 -114 101 -114c68.667 0 136 100.667 202 302
c25.333 77.333 38 137.666 38 180.999z" />
    <glyph glyph-name="one" unicode="1" horiz-adv-x="503" 
d="M120 437c102.667 54.667 199.333 113.667 290 177l1 -1c1.33301 0 2.33301 -0.666992 3 -2l-215 -598l-71 -23l193 538l-210 -130z" />
    <glyph glyph-name="two" unicode="2" horiz-adv-x="503" 
d="M394 505c0 26 -7.33301 47.332 -22 63.999s-35 25 -61 25c-49.333 0 -90.666 -24.667 -123.999 -74c-30 -43.333 -45 -91 -45 -143c0 -5.33301 1.33301 -13.666 4 -24.999s4 -19.666 4 -24.999c-0.666992 -1.33301 -2 -2 -4 -2l-1 2c-14.667 29.333 -22 62 -22 98
c0 49.333 20 91.833 60 127.5s85 53.5 135 53.5c40.667 0 73.667 -11.833 99 -35.5s38 -55.834 38 -96.501c0 -61.333 -27.667 -117.666 -83 -168.999c-26.667 -24.667 -85.334 -64 -176.001 -118c-79.333 -47.333 -133 -87.333 -161 -120
c-2.66699 -2.66699 -15 -18.334 -37 -47.001c53.333 27.333 102.666 41 147.999 41c22.667 0 56 -3.66699 100 -11s77.333 -11 100 -11c15.333 0 30.333 7 45 21l6 1l4 -5l-2 -2c-41.333 -41.333 -89.333 -62 -144 -62c-23.333 0 -58.166 4.83301 -104.499 14.5
s-81.166 14.5 -104.499 14.5c-8.66699 0 -32.334 -9.66699 -71.001 -29c-2.66699 0 -4 2.33301 -4 7c0 62 36.667 119 110 171l203 145c73.333 54 110 117 110 189v1z" />
    <glyph glyph-name="three" unicode="3" horiz-adv-x="503" 
d="M141 1c47.333 0 89 29.333 125 88c32 52 48 103.333 48 154c0 52 -37.333 78 -112 78c-8 0 -15.333 -0.333008 -22 -1h-23v3l10 20c10.667 -2.66699 24.334 -4 41.001 -4c46.667 0 85.334 21 116.001 63c26.667 38 40 81.333 40 130c0 19.333 -7.66699 34.333 -23 45
s-33 16 -53 16c-18.667 0 -45 -8 -79 -24s-48 -24 -42 -24c-2 0 -3 2 -3 6l14 31c53.333 16 94 24 122 24c35.333 0 64.666 -8.33301 87.999 -25c26 -18.667 39 -45 39 -79c0 -76 -51.667 -132 -155 -168c70.667 -24 106 -64.667 106 -122s-25.333 -108.333 -76 -153
s-105 -67 -163 -67c-50 0 -89.667 12.667 -119 38c0 13.333 -2 23.333 -6 30c0 2 1 3 3 3c33.333 -41.333 74.666 -62 123.999 -62z" />
    <glyph glyph-name="four" unicode="4" horiz-adv-x="503" 
d="M470 612c0 -2 -23 -69.001 -69 -201.001l-81 -232h142l-47 -46l-110 1l-44 -126l-73 -20l52 147l-270 4c-3.33301 3.33301 -5 6 -5 8c0 2.66699 1.33301 4.33398 4 5.00098v1l499 462c1.33301 -0.666992 2 -1.66699 2 -3zM370 505.999l-352 -327h237z" />
    <glyph glyph-name="five" unicode="5" horiz-adv-x="503" 
d="M343 296c0 24 -8.16699 42.3311 -24.5 54.998s-36.833 19 -61.5 19c-18 0 -44 -7.33301 -78 -22s-57.333 -22 -70 -22c-1.33301 0.666992 -2 2.33398 -2 5.00098c0 3.33301 14.333 44.333 43 123l51 140h270l-32 -46h-240l-70 -196c58 24 105.333 36 142 36
c37.333 0 68.5 -13.167 93.5 -39.5s37.5 -58.166 37.5 -95.499c0 -69.333 -26.333 -131 -79 -185s-113.334 -81 -182.001 -81c-27.333 0 -66.666 10.333 -117.999 31l-8 40c30.667 -22 51 -35.333 61 -40c22 -10.667 45.667 -16 71 -16c55.333 0 103.333 36.333 144 109
c34.667 62 52 123.667 52 185z" />
    <glyph glyph-name="six" unicode="6" horiz-adv-x="503" 
d="M460 628c-103.333 -74.667 -190.668 -158.669 -262.001 -252.002c31.333 16 59 24 83 24c40.667 0 73.334 -17.333 98.001 -52c22 -30.667 33 -67 33 -109c0 -62 -21.667 -118.333 -65 -169c-45.333 -52.667 -98.333 -79 -159 -79c-47.333 0 -85.333 16.667 -114 50
c-26.667 30.667 -40 70.334 -40 119.001c0 64.667 30 132.334 90 203.001c31.333 36.667 87.333 89 168 157l128 109h41zM359.998 290.998c0 64 -28.334 96 -85.001 96c-50.667 0 -97 -35.667 -139 -107c-37.333 -64 -56 -123.667 -56 -179c0 -66.667 30.333 -100 91 -100
c50.667 0 96.334 36.667 137.001 110c34.667 62.667 52 122.667 52 180z" />
    <glyph glyph-name="seven" unicode="7" horiz-adv-x="503" 
d="M58 2l119.003 169.999c41.333 59.333 83 114.333 125 165l178 221c-80 -15.333 -141.333 -23 -184 -23c-48 0 -101 2.33301 -159 7c-12 -15.333 -27.667 -32 -47 -50v0c-4 3.33301 -7 7.33301 -9 12c14.667 18.667 33.667 36 57 52l64 43
c26 -0.666992 74.667 -5.66699 146 -15c61.333 -7.33301 110.333 -10.333 147 -9l9 -3c0.666992 -1.33301 1 -4.33301 1 -9c0 -1.33301 -0.666992 -2.66602 -2 -3.99902c-8.66699 -8.66699 -49.667 -68.667 -123 -180l-118 -179
c-46.667 -71.333 -83.334 -132.333 -110.001 -183c-6.66699 -1.33301 -21.334 -6 -44.001 -14c-18.667 -6.66699 -33.334 -10 -44.001 -10c-4 0 -6 1.66699 -6 5v4z" />
    <glyph glyph-name="eight" unicode="8" horiz-adv-x="503" 
d="M153 446c0 45.333 18.667 83.333 56 114c35.333 29.333 76 44 122 44c38 0 69.5 -10.333 94.5 -31s37.5 -49.667 37.5 -87c0 -41.333 -18.333 -78 -55 -110c-32 -28.667 -69.667 -47 -113 -55c55.333 -62.667 83 -116 83 -160c0 -52 -20 -93.667 -60 -125
c-36.667 -29.333 -81.667 -44 -135 -44c-48.667 0 -87.667 14.167 -117 42.5s-44 66.833 -44 115.5c0 68.667 64.667 121.667 194 159c-42 57.333 -63 103.333 -63 138v-1zM338 593c-32.667 0 -62.333 -11.499 -89 -34.499s-40 -50.833 -40 -83.5
s7.33301 -60.334 22 -83.001l57 -66c95.333 46 143 104.667 143 176c0 60.667 -31 91 -93 91zM55.001 121.001c0 -36 12.332 -65.167 36.999 -87.5s55.334 -33.5 92.001 -33.5c41.333 0 75.5 12.667 102.5 38s40.5 58.333 40.5 99c0 40 -29.667 89.667 -89 149
c-2.66699 2 -6.66699 6 -12 12c-48 -13.333 -87 -33.333 -117 -60c-36 -32 -54 -70.667 -54 -116v-1z" />
    <glyph glyph-name="nine" unicode="9" horiz-adv-x="503" 
d="M216 205c-44 0 -78.667 16.667 -104 50c-23.333 30 -35 67.667 -35 113c0 62.667 22.667 118.5 68 167.5s99 73.5 161 73.5c44 0 79.667 -17 107 -51c26 -31.333 39 -69.333 39 -114c0 -103.333 -79.667 -221.333 -239 -354l-165 -132l-20 2
c-2 1.33301 -3.66699 2.33301 -5 3c0 0.666992 0.333008 2 1 4c4.66699 4.66699 51 45.667 139 123c54.667 48 97 93 127 135c-26.667 -13.333 -51 -20 -73 -20h-1zM402 514c0 27.333 -8.66602 48.5 -25.999 63.5s-40 22.5 -68 22.5c-46.667 0 -89.334 -37 -128.001 -111
c-34.667 -66 -52 -124 -52 -174c0 -68.667 26 -103 78 -103c55.333 0 103.333 37.667 144 113c34.667 64.667 52 127.667 52 189z" />
    <glyph glyph-name="colon" unicode=":" horiz-adv-x="262" 
d="M226 315c0 -23.333 -11.666 -34.999 -34.999 -34.999c-24 0 -36 11.667 -36 35c0 9.33301 3.66699 17.666 11 24.999s15.666 11 24.999 11c10 0 18.333 -3.5 25 -10.5s10 -15.5 10 -25.5zM125.001 33.001c0 -10 -3.5 -18.5 -10.5 -25.5s-15.5 -10.5 -25.5 -10.5
c-23.333 0 -35 12 -35 36c0 8.66699 3.66699 16.667 11 24s15.333 11 24 11c24 0 36 -11.667 36 -35z" />
    <glyph glyph-name="semicolon" unicode=";" horiz-adv-x="262" 
d="M93 -15c0 24.667 -13.332 38 -39.999 40l-2 3l2 6c9.33301 7.33301 35.666 18.333 78.999 33c16.667 -4 25 -16 25 -36c0 -26 -15.667 -58.333 -47 -97c-30 -36 -58 -60 -84 -72h-2c-2.66699 0 -4 2 -4 6c0 -6.66699 1.33301 -10 4 -10c5.33301 0 16 14 32 42
c24.667 42.667 37 70.667 37 84v1zM234.001 309c0 -8.66699 -3.83301 -15.667 -11.5 -21s-16.167 -8 -25.5 -8c-10 0 -18.667 3.5 -26 10.5s-11 15.5 -11 25.5c0 8.66699 4 17 12 25s16.333 12 25 12c24.667 0 37 -14.667 37 -44z" />
    <glyph glyph-name="less" unicode="&#x3c;" horiz-adv-x="606" 
d="M129 253l425 -193v-68l-508 230v62l508 230v-68z" />
    <glyph glyph-name="equal" unicode="=" horiz-adv-x="644" 
d="M674 221v-42h-652v42h652zM674 394v-44h-652v44h652z" />
    <glyph glyph-name="greater" unicode="&#x3e;" horiz-adv-x="606" 
d="M477 253l-425 193v68l508 -230v-62l-508 -230v68z" />
    <glyph glyph-name="question" unicode="?" horiz-adv-x="382" 
d="M88 233c0 42.667 25.333 83.999 76 123.999l140 108c50 38.667 75 73.667 75 105c0 18.667 -7.66699 33.5 -23 44.5s-32.666 16.5 -51.999 16.5c-48.667 0 -89.334 -22.333 -122.001 -67c-28 -38 -44.667 -83 -50 -135c-0.666992 -4 -2.66699 -6 -6 -6
c-4.66699 0 -7 8 -7 24c0 54.667 14.667 100.667 44 138c32 41.333 74.333 62 127 62c30 0 56 -10.333 78 -31s33 -46 33 -76c0 -34.667 -17.667 -72.667 -53 -114c-26.667 -30.667 -64.667 -64.667 -114 -102l-105 -76l-2 -2c-10 -6.66699 -15 -17.667 -15 -33
c0 -26.667 18.333 -40 55 -40c9.33301 0 22.333 3 39 9l25 9c2 0 3 -2 3 -6c-3.33301 -7.33301 -5.66602 -13.666 -6.99902 -18.999c-22 -6.66699 -39.333 -10 -52 -10c-24.667 0 -45.334 6.83301 -62.001 20.5s-25 32.5 -25 56.5zM134 31.999
c0 -10 -3.49902 -18.5 -10.499 -25.5s-15.5 -10.5 -25.5 -10.5c-23.333 0 -35 12 -35 36c0 8.66699 3.66699 16.667 11 24s15.333 11 24 11c9.33301 0 17.666 -3.5 24.999 -10.5s11 -15.167 11 -24.5z" />
    <glyph glyph-name="at" unicode="@" horiz-adv-x="1015" 
d="M378 305c0 -27.333 7.33203 -50.333 21.999 -69s35.334 -28 62.001 -28c42 0 78 23.667 108 71c27.333 42 41 85 41 129c0 24 -7.83301 45.333 -23.5 64s-35.167 28 -58.5 28c-43.333 0 -80 -22.333 -110 -67c-27.333 -40 -41 -82.667 -41 -128zM730.999 556
l-72.999 -246.002c-12 -41.333 -18 -68 -18 -80c0 -19.333 7 -29 21 -29c39.333 0 74 27 104 81c25.333 46 38 91 38 135c0 78.667 -27.333 141.667 -82 189c-52 46 -117.667 69 -197 69c-90 0 -163.167 -30.667 -219.5 -92s-84.5 -137.333 -84.5 -228
c0 -89.333 29.667 -163.666 89 -222.999s133.666 -89 222.999 -89c100 0 180.667 38 242 114h67c-32.667 -54.667 -76.834 -97.667 -132.501 -129s-115.5 -47 -179.5 -47c-108 0 -198.667 36.333 -272 109s-110 163 -110 271c0 105.333 36.333 194.333 109 267
s162 109 268 109c93.333 0 173.333 -28.333 240 -85c69.333 -59.333 104 -135 104 -227c0 -69.333 -22.333 -133.666 -67 -192.999c-48 -64 -105.333 -96 -172 -96c-40.667 0 -62 21 -64 63l-2 -1c-37.333 -41.333 -77.333 -62 -120 -62
c-43.333 0 -78.666 15.667 -105.999 47s-41 69 -41 113c0 71.333 20.333 134 61 188c44 58.667 100.667 88 170 88c52.667 0 91 -26 115 -78l20 62h69z" />
    <glyph glyph-name="A" unicode="A" horiz-adv-x="905" 
d="M843 669c0 -32.667 -35.668 -142.002 -107.001 -328.002l6 -1c9.33301 0 23.5 0.666992 42.5 2s33.167 2 42.5 2c8 0 13.333 -0.333008 16 -1c-4 -16.667 -12 -25.334 -24 -26.001l-90 -4l-50 -133c-24 -64 -36 -106.333 -36 -127
c0 -13.333 4.83301 -24.166 14.5 -32.499s21.167 -12.5 34.5 -12.5c47.333 0 112.333 27.333 195 82l-1 -10c-69.333 -53.333 -135.333 -80 -198 -80c-72 0 -108 23.333 -108 70c0 22.667 10.333 63.334 31 122.001l45 127l-88 4l-51 -89
c-20.667 -35.333 -39.667 -63.666 -57 -84.999c-89.333 -107.333 -192.666 -161 -309.999 -161c-53.333 0 -96.333 9.66699 -129 29c-40.667 24 -61 60.667 -61 110c0 46.667 24.667 90 74 130c78.667 64 184 96 316 96c75.333 0 142.333 -2.33301 201 -7l108 215
c52.667 104.667 101.667 157 147 157c24.667 0 37 -16.333 37 -49zM796.999 697.998c0 5.33301 -1.66699 8 -5 8c-4 0 -8.66699 -2.66699 -14 -8c-32 -24 -69.333 -78.667 -112 -164l-92 -189l89 -3zM328.999 345.998c-73.333 0 -139.333 -17.668 -198 -53.001
c-68 -41.333 -102 -96.666 -102 -165.999c0 -42 12.667 -74 38 -96s59.333 -33 102 -33c146 0 270.333 110 373 330c-122 12 -193.333 18 -214 18h1z" />
    <glyph glyph-name="B" unicode="B" horiz-adv-x="785" 
d="M681 221c0 -71.333 -43.334 -129.335 -130.001 -174.002c-68.667 -35.333 -144 -53.666 -226 -54.999c11.333 0 13.666 0.333008 6.99902 1s-21.667 1.33398 -45 2.00098s-61.666 1.66699 -114.999 3c-26 0.666992 -60.333 3.33398 -103 8.00098c-3.33301 0 -5 1 -5 3
c2.66699 0.666992 6.66699 3 12 7c78 20 136 54.667 174 104c29.333 38.667 56 101.334 80 188.001l47 172c24.667 90 44 140.333 58 151c14.667 6.66699 35.334 20.334 62.001 41.001l4 -1c1.33301 -1.33301 2 -3 2 -5c0 -11.333 -9.66699 -44.666 -29 -99.999
c-22.667 -64.667 -35 -101 -37 -109c-35.333 -130.667 -65.666 -217.667 -90.999 -261c-42.667 -72.667 -113.667 -131.334 -213 -176.001c49.333 -10.667 103.333 -16 162 -16c94.667 0 166.667 18.333 216 55c66 49.333 99 108 99 176c0 57.333 -27.667 95.333 -83 114
c-14 4.66699 -29 11 -45 19l-1 4c0 0.666992 0.333008 1.66699 1 3v3l70 40c54 43.333 81 93.333 81 150c0 88 -61.333 132 -184 132c-106.667 0 -207 -31.333 -301 -94c-106 -70.667 -159 -156.334 -159 -257.001c0 -30 13.333 -70.333 40 -121
c0.666992 -4.66699 1 -7.33398 1 -8.00098l-2 -3h-1c-12.667 0 -25 21.667 -37 65c-10.667 38 -16 65.667 -16 83c0 110 48.667 197.333 146 262c86 57.333 186.333 86 301 86c70 0 130 -10.667 180 -32c66.667 -28.667 100 -73.334 100 -134.001
c0 -42 -25.333 -79 -76 -111c-16.667 -10.667 -60.667 -32 -132 -64c49.333 -8 90.666 -23 123.999 -45c42.667 -28 64 -63.667 64 -107v1z" />
    <glyph glyph-name="C" unicode="C" horiz-adv-x="583" 
d="M279 -35c-80.667 0 -148.333 22.335 -203 67.002c-58.667 47.333 -88 110.666 -88 189.999c0 73.333 22.667 149.666 68 228.999c42 74 94 135 156 183c70.667 54.667 141 82 211 82c48.667 0 86.667 -15.667 114 -47s41 -71.666 41 -120.999
c0 -88.667 -33.667 -173 -101 -253c-70.667 -83.333 -149.334 -125 -236.001 -125c-34 0 -61.667 9.16699 -83 27.5s-32 44.166 -32 77.499c0 58.667 30.333 116 91 172c56.667 52.667 115.334 84 176.001 94l7 -1l2 -4c0 -0.666992 -0.333008 -1.66699 -1 -3l-51 -31
c-140 -83.333 -210 -161 -210 -233c0 -54 28 -81 84 -81c74 0 148.667 45 224 135c72.667 87.333 109 169 109 245c0 40.667 -10.833 73 -32.5 97s-52.5 36 -92.5 36c-72 0 -140.333 -36.333 -205 -109c-48 -53.333 -89 -120 -123 -200c-35.333 -84 -53 -160 -53 -228
c0 -61.333 21 -107.333 63 -138c36.667 -27.333 86.667 -41 150 -41c92.667 0 197.667 33.667 315 101v-14c-89.333 -71.333 -189.333 -107 -300 -107z" />
    <glyph glyph-name="D" unicode="D" horiz-adv-x="865" 
d="M586 665c-4.66699 -6.66699 -20.6709 -35.3359 -48.0039 -86.0029c-21.333 -39.333 -48 -105.666 -80 -198.999c-36 -105.333 -63.667 -177 -83 -215c-37.333 -74 -80.666 -126 -129.999 -156c10 -0.666992 33 -1 69 -1c210 0 352 105 426 315
c22 62.667 33 118.667 33 168c0 72 -26.333 126.333 -79 163c-45.333 32 -105.666 48 -180.999 48c-61.333 0 -113.666 -6 -156.999 -18c-47.333 -13.333 -95 -36.333 -143 -69c-54.667 -37.333 -103.667 -84.666 -147 -141.999c-51.333 -68 -77 -128.667 -77 -182
c0 -36.667 12 -70 36 -100c0.666992 -0.666992 1 -2.66699 1 -6c-0.666992 -1.33301 -2.33398 -2 -5.00098 -2c-16 8 -29 27.333 -39 58c-8.66699 25.333 -13 49.333 -13 72c0 76 29.333 147.667 88 215c52 59.333 116.833 104.833 194.5 136.5s163.834 47.5 258.501 47.5
c94 0 169.667 -22.667 227 -68c63.333 -49.333 95 -120 95 -212c0 -80 -28 -158 -84 -234c-99.333 -134.667 -255.666 -202 -468.999 -202c-8 0 -19.5 0.833008 -34.5 2.5s-26.5 2.5 -34.5 2.5c-2 0 -3 0.333008 -3 1l2 2c38 14 66.667 50 86 108l81 245
c34.667 103.333 84.667 191 150 263c24 26.667 42.667 44.334 56 53.001l4 -5v-3z" />
    <glyph glyph-name="E" unicode="E" horiz-adv-x="583" 
d="M531 635c0 -34 -16.333 -72.332 -49 -114.999s-65.334 -68 -98.001 -76h-4c-0.666992 0 -1 0.666992 -1 2c0.666992 2 1 3.33301 1 4c30.667 20.667 59.667 50.667 87 90c30.667 43.333 46 81.333 46 114c0 14.667 -4.66699 26.667 -14 36s-21.333 14 -36 14
c-49.333 0 -92 -52.667 -128 -158l-44 -130c-6.66699 -20 -13.5 -33.833 -20.5 -41.5s-20.167 -16.167 -39.5 -25.5c-111.333 -54 -167 -126 -167 -216c0 -42 14 -74.667 42 -98s63.333 -35 106 -35c63.333 0 131.666 24.333 204.999 73c81.333 54 122 110.333 122 169v6
c-0.666992 2.66699 -1 4.66699 -1 6l3 4l5 -2c6 -18 9 -31 9 -39c0 -70 -39 -127.667 -117 -173c-65.333 -38 -136.333 -57 -213 -57c-60.667 0 -111.334 12.333 -152.001 37c-49.333 29.333 -74 72.333 -74 129c0 86 49.667 148.667 149 188
c16.667 3.33301 44.667 12 84 26c16.667 8 26.334 26.333 29.001 55c0.666992 12.667 2.33398 35.667 5.00098 69c14.667 154 71.334 231 170.001 231c27.333 0 50 -7.83301 68 -23.5s27 -36.834 27 -63.501z" />
    <glyph glyph-name="F" unicode="F" horiz-adv-x="886" 
d="M735 660c61.333 -10.667 120.332 -16.001 176.999 -16.001c6 0 10 -0.333008 12 -1l4 -4c-2 -9.33301 -6.66699 -19.666 -14 -30.999c-8.66699 -13.333 -17 -20 -25 -20h-16c-54 0 -134.333 9.33301 -241 28s-187 28 -241 28c-122 0 -216.333 -37.667 -283 -113
c-64 -72 -96 -169.667 -96 -293c0 -42.667 7 -85.667 21 -129l16 -48v-4c0 -1.33301 -1 -2.33301 -3 -3v-1l-5 3c-40 36 -60 98 -60 186c0 128.667 45.333 237 136 325s200.334 132 329.001 132c42.667 0 91 -4.66699 145 -14zM380.999 273.999c-4 0 -9 2.99902 -15 8.99902
l-2 5c2 11.333 12.667 17.333 32 18l163 4c32.667 122 87.667 211.333 165 268c7.33301 5.33301 11.666 8 12.999 8c0.666992 0 1.33398 -0.333008 2.00098 -1h2l2 -6l-1 -4c-30 -30 -54.667 -71.333 -74 -124c-4.66699 -12.667 -18 -59.667 -40 -141h30h21
c6.66699 -0.666992 9.66699 -1 9 -1h63c14.667 0 36.667 1.16699 66 3.5s51.333 3.5 66 3.5c7.33301 0 11 -4 11 -12c0 -22.667 -18 -34 -54 -34c-28 0 -102 1.66699 -222 5c-32 -120 -60.667 -208 -86 -264c-52.667 -116 -112.667 -174 -180 -174
c-27.333 0 -41 13.333 -41 40c0 34.667 14.667 77.334 44 128.001c4.66699 8.66699 31.667 53.334 81 134.001c29.333 48.667 44 82 44 100c0 17.333 -6.66699 29.666 -20 36.999zM484.999 276.998c6.66699 -12.667 10 -24 10 -34c0 -21.333 -25.167 -79.5 -75.5 -174.5
s-75.5 -157.167 -75.5 -186.5c0 -20 9 -30 27 -30c34 0 72 62.333 114 187c29.333 87.333 51 167 65 239l-64 -2z" />
    <glyph glyph-name="G" unicode="G" horiz-adv-x="826" 
d="M756 631c0 -21.333 -11.667 -50.001 -35 -86.001c-84.667 -130 -272 -251.333 -562 -364v-25c0 -44 12 -81 36 -111c26.667 -32 61.334 -48 104.001 -48c44.667 0 94.334 15.667 149.001 47c46.667 26.667 88.667 59.334 126 98.001l76 248l71 38
c2.66699 0 4 -2.33301 4 -7c0 -31.333 -17 -95.666 -51 -192.999c-32 -92 -58 -155.667 -78 -191c-4 -7.33301 -21 -32.333 -51 -75l140 49c49.333 17.333 93.333 38.333 132 63l-1 -14c-46 -29.333 -96.667 -55.666 -152 -78.999l-159 -66
c-30.667 -34 -52.334 -56.333 -65.001 -67c-30 -25.333 -56.667 -38 -80 -38c-24.667 0 -37 8.66699 -37 26c0 28 26.667 54.333 80 79c12 5.33301 51.333 19 118 41c10 22 18.667 48.333 26 79c9.33301 41.333 16.666 67.666 21.999 78.999
c-98.667 -86 -199 -129 -301 -129c-108 0 -169.333 58.333 -184 175c-69.333 -17.333 -106 -26 -110 -26s-6 1.66699 -6 5c0 9.33301 17.333 18 52 26c2.66699 0.666992 24.334 4.66699 65.001 12c8 143.333 67.167 268.666 177.5 375.999s237.166 161 380.499 161
c75.333 0 113 -27.667 113 -83zM706 599.999c0 31.333 -14.001 55.334 -42.001 72.001c-23.333 14 -51.666 21 -84.999 21c-59.333 0 -122.333 -21.333 -189 -64c-126.667 -81.333 -203.667 -225.333 -231 -432l71 27c102 38.667 197.667 87.667 287 147
c125.333 83.333 188 159.666 188 228.999h1zM332.999 -162c0 -12.667 8.66602 -19 25.999 -19c36.667 0 80.667 30.667 132 92c-11.333 -3.33301 -32.666 -10 -63.999 -20l-16 -5c-41.333 -12.667 -64 -22.667 -68 -30c-6.66699 -4.66699 -10 -10.667 -10 -18z" />
    <glyph glyph-name="H" unicode="H" horiz-adv-x="905" 
d="M778 686c14 4.66699 25.668 6.99805 35.001 6.99805c26 0 39 -13 39 -39c0 -28 -33.667 -62.333 -101 -103c-28 -17.333 -75.333 -41.666 -142 -72.999c-84 -170 -126 -302.667 -126 -398c0 -45.333 20.333 -68 61 -68c70.667 0 135 34.667 193 104
c54.667 65.333 82 134.333 82 207c0 38.667 -11.333 65.334 -34 80.001l-1 6c2 2 4.33301 3.66699 7 5c16 -8.66699 29.833 -24.834 41.5 -48.501s17.5 -45.5 17.5 -65.5c0 -85.333 -38.333 -158.333 -115 -219c-70.667 -56 -150 -84 -238 -84c-54.667 0 -82 28.667 -82 86
c0 42 11.667 100.333 35 175c19.333 62.667 42 118.334 68 167.001l-91 -49c-30.667 -94 -68.667 -173.667 -114 -239c-64 -92 -134.333 -138 -211 -138c-22 0 -39.667 7 -53 21s-20 32 -20 54c0 52.667 41 107.667 123 165c39.333 28 103.666 64 192.999 108
c26 73.333 48 127 66 161c30 57.333 66 102.333 108 135c-10 -3.33301 -22.667 -5 -38 -5c-30 0 -78.667 3.66699 -146 11c-61.333 6.66699 -109.666 10 -144.999 10c-90 0 -152 -38.333 -186 -115c-9.33301 -30.667 -17.333 -46 -24 -46c-2 2 -3.33301 4.33301 -4 7
c0 30 20 65.333 60 106c61.333 62.667 137.666 94 228.999 94c31.333 0 66 -5 104 -15l102 -27c15.333 -2 36.333 -6 63 -12c-10 -16.667 -26 -51 -48 -103l-54 -155l97 50c66 106 128 176.667 186 212zM815.001 679.998c-32 0 -69.667 -23.667 -113 -71
c-30 -32.667 -58.333 -70.667 -85 -114c148.667 72.667 223 127 223 163c0 14.667 -8.33301 22 -25 22zM100.001 6.99805c88.667 0 167.333 104.667 236 314c-62 -37.333 -118.667 -77 -170 -119c-76.667 -63.333 -115 -115 -115 -155c0 -12.667 5.33301 -22.667 16 -30
c8.66699 -6.66699 19.667 -10 33 -10z" />
    <glyph glyph-name="I" unicode="I" horiz-adv-x="624" 
d="M597 648c-36.667 0 -91.499 3.66504 -164.499 10.998s-127.833 11 -164.5 11c-42 0 -74.333 -3.66699 -97 -11c-29.333 -9.33301 -54.666 -28.333 -75.999 -57l-65 -87c-0.666992 -0.666992 -2 -1 -4 -1c0 1.33301 -1.33301 2.33301 -4 3l-1 3c6 22 24.667 50.667 56 86
c62.667 70.667 146 106 250 106c21.333 0 80 -10 176 -30c34.667 -7.33301 76 -16.666 124 -27.999l4 -5v-2c0 -2.66699 -4.66699 -11.334 -14 -26.001c-14.667 -28 -28 -67 -40 -117l-30 -123c-3.33301 -13.333 -7 -26.333 -11 -39c-19.333 -61.333 -42.333 -114 -69 -158
l137 -58c0.666992 -2 1 -7.33301 1 -16l-1 -2l-145 63c-47.333 -61.333 -93 -105.666 -137 -132.999c-53.333 -33.333 -114.333 -50 -183 -50c-44 0 -80.333 10.333 -109 31c-32.667 23.333 -49 56 -49 98c0 44.667 20.667 78.667 62 102c34 19.333 75.333 29 124 29
c57.333 0 136.666 -14.667 237.999 -44c19.333 39.333 39.666 90.333 60.999 153c25.333 72.667 45 124.334 59 155.001c24 52 55.333 97.333 94 136h-22zM204.001 224.998c-52 0 -96.333 -8.66699 -133 -26c-48.667 -22.667 -73 -57 -73 -103c0 -34 15.333 -60 46 -78
c25.333 -15.333 56 -23 92 -23c111.333 0 200 65.333 266 196l-99 22c-36 8 -69.333 12 -100 12h1z" />
    <glyph glyph-name="J" unicode="J" horiz-adv-x="644" 
d="M614 228c0 -14 -12.334 -22.6631 -37.001 -25.9961c-8 -0.666992 -26 -3 -54 -7c-16.667 -4 -44.667 -13 -84 -27c-8.66699 -22.667 -24 -57.334 -46 -104.001c-28.667 -60.667 -68.667 -116.334 -120 -167.001c-59.333 -58.667 -117.666 -88.334 -174.999 -89.001
c-36 -0.666992 -54 16.666 -54 51.999c0 56.667 40.333 115.334 121 176.001c53.333 40 119.333 77.333 198 112c34.667 126 62 217.667 82 275c38.667 109.333 81.334 192.666 128.001 249.999l27 33l-5 -1c-103.333 0 -198.666 -21.333 -285.999 -64
c-90.667 -44.667 -164.334 -108.5 -221.001 -191.5s-84.667 -160.833 -84 -233.5c0.666992 -44 11.334 -89 32.001 -135l-7 -7c-31.333 66 -47 130 -47 192c0 93.333 33.333 176.666 100 249.999c57.333 63.333 133.666 113.666 228.999 150.999c92 36 181 54 267 54
c12 0 22 -1.33301 30 -4l6 -5v-3c0 -3.33301 -3 -9.66602 -9 -18.999c-16 -33.333 -30.667 -72.666 -44 -117.999l-116 -389c29.333 10 85.666 26.667 168.999 50v-5zM93.999 -181.996c56.667 0 112.668 38.668 168.001 116.001c46 64.667 77 130 93 196
c-34.667 -18 -77.334 -42.333 -128.001 -73c-38 -28 -73 -58.667 -105 -92c-44.667 -46.667 -67 -84.334 -67 -113.001c0 -22.667 13 -34 39 -34z" />
    <glyph glyph-name="K" unicode="K" horiz-adv-x="886" 
d="M423 295l52.9961 192.005c18 65.333 50.333 122 97 170l-90 -2c-25.333 -0.666992 -61 0.666016 -107 3.99902c-50 4 -86 6 -108 6c-50 0 -88 -7.33301 -114 -22c-12 -6.66699 -41.333 -31.334 -88 -74.001h-1v-1h-2l-4 6c2 7.33301 8.66699 16.666 20 27.999
c70 70 157.333 105 262 105c22 0 49.333 -3 82 -9c21.333 -4 48.333 -9.33301 81 -16c20.667 -1.33301 50.334 -5.33301 89.001 -12l4 -4c-13.333 -9.33301 -43.666 -116 -90.999 -320c81.333 65.333 173.333 178 276 338h11c2.66699 -0.666992 6 -1 10 -1
c7.33301 0 16 2.33301 26 7c14 4.66699 22.333 7 25 7c2 0 4 -1.66699 6 -5v-2c0 -2.66699 -0.333008 -4.33398 -1 -5.00098c-16 -16 -37.333 -42.667 -64 -80s-46.667 -64 -60 -80c-58.667 -68 -138.334 -135.667 -239.001 -203c-10 -20 -19.333 -45.667 -28 -77
c38 -32.667 69.333 -61.667 94 -87l87 -88c39.333 -32 76.333 -48 111 -48c38 0 80.333 21 127 63c1.33301 0 3 0.333008 5 1c2 -0.666992 3.33301 -2.33398 4 -5.00098l-1 -4c-53.333 -53.333 -116.666 -80 -189.999 -80c-40 0 -76.333 11.667 -109 35
c-24.667 18 -51 46.333 -79 85c-31.333 42.667 -55.666 73.334 -72.999 92.001c-38 -66.667 -88.667 -121.334 -152 -164.001c-67.333 -46 -137.333 -69 -210 -69c-15.333 0 -32.666 2.33301 -51.999 7c-28 6.66699 -42 13.334 -42 20.001
c0 1.33301 0.666992 2.66602 2 3.99902h12c10 0 24.333 -2 43 -6s33 -6 43 -6c82.667 0 150.667 23.333 204 70c46.667 40.667 85.334 102.667 116.001 186l-19 23c7.33301 6.66699 18.666 13.667 33.999 21z" />
    <glyph glyph-name="L" unicode="L" horiz-adv-x="764" 
d="M734 591c0 -80.667 -29.3359 -154.329 -88.0029 -220.996c-51.333 -58.667 -117.666 -104.667 -198.999 -138c-4.66699 -2 -13.667 -5.66699 -27 -11c-10.667 9.33301 -21.667 15.333 -33 18l-5 4h-1v2c0 1.33301 0.666992 2.66602 2 3.99902h5
c3.33301 0 11.333 -0.666992 24 -2c15.333 -2 23.333 -3 24 -3c28 0 63.333 17.667 106 53c34.667 28.667 63 59 85 91c49.333 71.333 74 142.333 74 213c0 25.333 -6 47.666 -18 66.999c-14 22.667 -33 34 -57 34c-83.333 0 -149.333 -92 -198 -276
c-7.33301 -28.667 -22.666 -83.667 -45.999 -165c-13.333 -46 -40 -92.667 -80 -140c52 -8.66699 109.333 -22.334 172 -41.001l80 -25c32 -8.66699 59.333 -13 82 -13c40.667 0 78.334 16.333 113.001 49v-13c-79.333 -52 -135 -78 -167 -78c-43.333 0 -97 9.33301 -161 28
l-161 47c-60.667 -52 -124 -78 -190 -78c-64.667 0 -97 18.667 -97 56c0 30 27.667 52 83 66c37.333 9.33301 78.666 14 123.999 14c17.333 0 52.333 -3 105 -9c20 40.667 35.333 94.667 46 162c13.333 84 23 137 29 159c16.667 59.333 44 111.666 82 156.999
c62.667 74.667 126.334 112 191.001 112c32 0 57.333 -13 76 -39c16.667 -22.667 25 -50.667 25 -84zM-17.0029 51.0049c0 -12 10.668 -21.333 32.001 -28c15.333 -4.66699 31 -7 47 -7c73.333 0 134 21 182 63c-42.667 12 -94.334 18 -155.001 18
c-21.333 0 -42.333 -3 -63 -9c-28.667 -8 -43 -20.333 -43 -37z" />
    <glyph glyph-name="M" unicode="M" horiz-adv-x="1047" 
d="M428 352c32 76 68.333 146.001 109 210.001c62.667 98.667 118.667 148 168 148c22 0 39.333 -8.66699 52 -26c10.667 -14.667 16 -33.667 16 -57c0 -38.667 -17.333 -104.667 -52 -198c-12.667 -33.333 -39.667 -100.333 -81 -201
c66.667 130.667 111.334 214 134.001 250c63.333 101.333 125.333 168.666 186 201.999c31.333 17.333 52.666 26 63.999 26c12.667 0 19 -9.33301 19 -28c0 -4 -18.667 -51.667 -56 -143c-115.333 -281.333 -173 -441 -173 -479c0 -26 13.667 -39 41 -39
c42.667 0 99 19 169 57v-14c-65.333 -37.333 -124.333 -56 -177 -56c-60 0 -90 25.333 -90 76c0 48 32.333 149.667 97 305c60 144 107.667 243.667 143 299c-64.667 -33.333 -134.334 -105.666 -209.001 -216.999c-62.667 -94.667 -112.334 -185.334 -149.001 -272.001
c-4.66699 -12.667 -14 -36 -28 -70l-7 -15c-17.333 -41.333 -31.666 -67.333 -42.999 -78c-22 -7.33301 -41.667 -15.333 -59 -24h-3c-2.66699 0 -4 1.33301 -4 4c4.66699 24.667 12.667 48.667 24 72c33.333 70 78 181.333 134 334c51.333 140 77 223.333 77 250
c0 22 -10 33 -30 33c-45.333 0 -95.666 -62 -150.999 -186c-84 -188 -140 -303.333 -168 -346c-81.333 -124 -175.333 -186 -282 -186c-42.667 0 -89.667 15.333 -141 46c-3.33301 32.667 -7.33301 56.334 -12 71.001c20.667 -24.667 48.667 -46.334 84 -65.001
s68.333 -28 99 -28c54 0 102.667 20.667 146 62c36 34 66 79 90 135c1.33301 2 22.333 51.333 63 148z" />
    <glyph glyph-name="N" unicode="N" horiz-adv-x="925" 
d="M633 117c0 -69.333 30.667 -104.334 92 -105.001c43.333 -0.666992 105.666 28 186.999 86v-14c-69.333 -56.667 -129.333 -85 -180 -85s-89 18.333 -115 55c-22.667 32 -34 74.333 -34 127c0 91.333 31.667 186 95 284c36.667 56.667 101.667 135.334 195 236.001
c-57.333 -12 -121 -36.667 -191 -74c-67.333 -35.333 -124 -73.333 -170 -114c0 -87.333 -18.667 -179 -56 -275c-42 -108.667 -94.333 -184.667 -157 -228c-13.333 -9.33301 -25.666 -14 -36.999 -14c-20.667 0 -31 19.333 -31 58c0 68 26.333 145.667 79 233
c42 69.333 93.333 135 154 197c6 49.333 9 82.333 9 99c0 74 -33 111 -99 111c-60.667 0 -123.667 -28 -189 -84c-52.667 -45.333 -98 -100 -136 -164c-44 -74.667 -66 -143.667 -66 -207c0 -25.333 8 -56 24 -92l-4 -3c-25.333 45.333 -38 92.333 -38 141
c0 102.667 43 198.834 129 288.501s180 134.5 282 134.5c46 0 81.333 -19.333 106 -58c22 -34 32 -74.667 30 -122c144.667 115.333 271.667 177 381 185c-56.667 -70.667 -112.667 -165.334 -168 -284.001c-61.333 -131.333 -92 -235.333 -92 -312zM245 30.999
c0 -15.333 5.00098 -23 15.001 -23c17.333 0 48.666 51.333 93.999 154c49.333 112 83.333 211.667 102 299c-85.333 -92 -146 -196.333 -182 -313c-18.667 -60 -28 -99 -28 -117h-1z" />
    <glyph glyph-name="O" unicode="O" horiz-adv-x="624" 
d="M412 719c56.667 0 100.004 -28.002 130.004 -84.002c24.667 -46 37 -99.667 37 -161c0 -70.667 -19.333 -144 -58 -220c-36.667 -73.333 -83.334 -133.666 -140.001 -180.999c-64 -54 -130.333 -81 -199 -81c-68 0 -120 27.667 -156 83
c-30.667 46.667 -46 105.667 -46 177c0 110 47.333 213 142 309c72 72.667 116 109 132 109c1.33301 -0.666992 1.66602 -2 0.999023 -4c-4 -6 -21.333 -24.333 -52 -55c-46 -46 -84.667 -111.667 -116 -197c-30 -81.333 -45 -156.666 -45 -225.999
c0 -126 45.667 -189 137 -189c69.333 0 132.666 37.333 189.999 112c42 54 77.333 122.667 106 206c30 86.667 45 165.667 45 237c0 102.667 -39.333 154 -118 154c-88.667 0 -162.334 -85.333 -221.001 -256c-1.33301 -2.66699 -2.33301 -4 -3 -4c-2 0 -4 2 -6 6
c14 73.333 38.667 133 74 179c43.333 57.333 98.333 86 165 86h1z" />
    <glyph glyph-name="P" unicode="P" horiz-adv-x="905" 
d="M194 -182l-2.99512 3.00098c6 16.667 21 63.334 45 140.001l68 244c27.333 96.667 55.666 176 84.999 238c39.333 82.667 88.666 150.334 147.999 203.001c22.667 20 36.334 30 41.001 30c2 0 3 -1.33301 3 -4c-2 -4 -11.333 -17.333 -28 -40
c-66 -88 -142.667 -291.333 -230 -610c33.333 -6.66699 59.666 -10 78.999 -10c101.333 0 193 49 275 147c78 93.333 117 191.666 117 294.999c0 75.333 -23.167 134.666 -69.5 177.999s-107.5 65 -183.5 65c-91.333 0 -180.833 -23.333 -268.5 -70
s-158.5 -107.334 -212.5 -182.001c-44.667 -61.333 -67.334 -119.666 -68.001 -174.999c-0.666992 -32.667 11.333 -68.667 36 -108v-2c0 -3.33301 -2.33301 -5 -7 -5c-10 0 -20 22 -30 66c-9.33301 40.667 -14 68 -14 82c0 83.333 33.667 158.666 101 225.999
c54.667 54.667 125.667 99 213 133c84.667 33.333 166.667 50 246 50c87.333 0 161.666 -23 222.999 -69c67.333 -51.333 101 -119.333 101 -204c0 -116.667 -49.667 -220 -149 -310c-96.667 -86.667 -204 -130 -322 -130c-14.667 0 -39.334 2.33301 -74.001 7
c-13.333 -53.333 -25.333 -91.333 -36 -114c-22 -46.667 -50 -71 -84 -73z" />
    <glyph glyph-name="Q" unicode="Q" horiz-adv-x="583" 
d="M576 -42l4.99902 3.00195h3c4 0 6 -5.33301 6 -16c0 -18 -6.33301 -40.333 -19 -67c-14 -30 -28.667 -45 -44 -45c-2.66699 0 -22.667 16 -60 48c-79.333 68 -162.333 115 -249 141c-65.333 -26 -116.666 -39.333 -153.999 -40c-51.333 -0.666992 -77 16.333 -77 51
c0 21.333 17 37 51 47c24 7.33301 49.667 11 77 11c37.333 0 88 -9.33301 152 -28c58 44 108 114.333 150 211c40.667 92 61 176.667 61 254c0 49.333 -10 89.333 -30 120c-24 36.667 -59.333 55 -106 55c-91.333 0 -166.333 -63.333 -225 -190
c-49.333 -106 -74 -209.667 -74 -311c0 -24.667 3.66699 -58 11 -100c-48.667 48 -73 112.333 -73 193c0 94.667 36 187 108 277c76 94.667 160 142 252 142c62.667 0 113 -22.333 151 -67c36 -42 54 -95 54 -159c0 -170 -87.667 -313.333 -263 -430
c99.333 -44.667 191 -101.334 275 -170.001c13.333 29.333 19.333 52.666 18 69.999zM-4.00098 31.002c0 -20.667 23.333 -31 70 -31c39.333 0 85 8.66699 137 26c-60 19.333 -110 29 -150 29c-38 0 -57 -8 -57 -24z" />
    <glyph glyph-name="R" unicode="R" horiz-adv-x="805" 
d="M794 94l0.00195312 -13.002c-42 -26.667 -74 -45 -96 -55c-32.667 -14.667 -68.334 -22 -107.001 -22c-37.333 0 -72 10 -104 30c-18.667 12 -44.334 34.667 -77.001 68c-35.333 36.667 -61.333 61 -78 73c-12 -38 -27.333 -74 -46 -108
c-27.333 -49.333 -52.333 -74 -75 -74l-1 2v2c0 5.33301 8.33301 34.333 25 87l32 101c13.333 49.333 37.666 129.333 72.999 240c24.667 68.667 71.334 138.334 140.001 209.001c27.333 28 44 42 50 42c2 0 3 -0.666992 3 -2v-7l-45 -66
c-43.333 -64 -93 -198.333 -149 -403c2.66699 0.666992 13 1.66699 31 3c82.667 6.66699 160.334 46.834 233.001 120.501s109 151.5 109 233.5c0 51.333 -21.333 89.666 -64 114.999c-35.333 20.667 -80.333 31 -135 31c-130.667 0 -249 -47.667 -355 -143
c-109.333 -98.667 -164 -212.667 -164 -342c0 -13.333 4.66699 -36 14 -68c4.66699 -16 7 -25 7 -27s-2.33301 -3 -7 -3c-26.667 34.667 -40 85.667 -40 153c0 126 60.667 233 182 321c111.333 80.667 232.666 121 363.999 121c72 0 131 -14.667 177 -44
c55.333 -34.667 83 -86 83 -154c0 -62 -26.333 -120 -79 -174c-43.333 -45.333 -97.666 -81.666 -162.999 -108.999c-33.333 -14 -80 -27.667 -140 -41c21.333 -13.333 47.666 -33 78.999 -59l51 -50l21 -21c30 -24 61 -36 93 -36c39.333 0 92 23 158 69z" />
    <glyph glyph-name="S" unicode="S" horiz-adv-x="563" 
d="M238 542c0 47.333 17.6689 86.334 53.002 117.001c33.333 29.333 74 44 122 44c25.333 0 47.5 -6.83301 66.5 -20.5s28.5 -32.834 28.5 -57.501c0 -18 -13.167 -43.667 -39.5 -77s-47.833 -50 -64.5 -50c-1.33301 0.666992 -2 1.66699 -2 3c0 10.667 9.66699 30 29 58
s29 50.333 29 67c0 18 -5 34.167 -15 48.5s-23.667 21.5 -41 21.5c-32 0 -57.5 -11.333 -76.5 -34s-28.5 -50.334 -28.5 -83.001c0 -42.667 19 -98.667 57 -168c42.667 -78 67 -134 73 -168l101 -27l6 -4c4.66699 -10 7 -17.667 7 -23c-47.333 22 -85 36.333 -113 43
c0.666992 -6 1 -18.667 1 -38c0 -35.333 -14.667 -70.333 -44 -105c-26 -30.667 -56.667 -54 -92 -70c-41.333 -18.667 -85 -28 -131 -28c-46.667 0 -86.334 9.66699 -119.001 29c-39.333 22.667 -59 55.667 -59 99c0 56.667 27 98.334 81 125.001
c41.333 20.667 93.666 31 156.999 31c47.333 0 91.333 -5.33301 132 -16l-71 141c-31.333 62 -47 109.667 -47 143v-1zM46.002 102.001c0 -33.333 12 -59 36 -77c22 -16.667 50 -25 84 -25c54 0 100.5 20.5 139.5 61.5s58.5 88.833 58.5 143.5c0 10 -2 25 -6 45
c-38.667 7.33301 -73.667 11 -105 11c-52.667 0 -99 -13 -139 -39c-45.333 -30 -68 -70 -68 -120z" />
    <glyph glyph-name="T" unicode="T" horiz-adv-x="704" 
d="M-18 395c0 92 39.6641 168.333 118.997 229c71.333 54.667 155 84 251 88c16 0.666992 34 1 54 1c44.667 0 111.167 -6.33301 199.5 -19s154.833 -19 199.5 -19c4 -4 6 -7 6 -9c0 -12 -5 -22 -15 -30s-21.333 -12 -34 -12c-49.333 0 -123.166 7.66699 -221.499 23
s-172.166 23 -221.499 23c-88 0 -161 -22 -219 -66c-64.667 -48 -97 -114.667 -97 -200c0 -61.333 22.667 -122.333 68 -183l1 -7l-3 -3l-4 1c-15.333 18 -35.666 45.667 -60.999 83c-14.667 28.667 -22 62 -22 100zM272.997 222c21.333 0 46.335 -2.66602 75.002 -7.99902
c39.333 -7.33301 59 -16.666 59 -27.999c-2 -2.66699 -4.33301 -4 -7 -4c-11.333 0 -27.833 2.5 -49.5 7.5s-37.834 7.5 -48.501 7.5c-50 0 -95.333 -9.66699 -136 -29c-53.333 -25.333 -80 -59.333 -80 -102c0 -62 41.667 -93 125 -93c136 0 230 85.667 282 257l60 201
c7.33301 24.667 23.666 61.334 48.999 110.001c30.667 58 52.667 87 66 87c1.33301 -0.666992 3 -2.33398 5 -5.00098l-1 -5l-85 -275c-34.667 -112.667 -76.667 -199.334 -126 -260.001c-66 -82 -149 -123 -249 -123c-39.333 0 -72 8.33301 -98 25
c-30 19.333 -45 47.666 -45 84.999c0 48.667 22.667 87 68 115c38.667 24 83.667 36 135 36z" />
    <glyph glyph-name="U" unicode="U" horiz-adv-x="865" 
d="M862 705c-4.66699 -22.667 -24.334 -73.666 -59.001 -152.999l-107 -243c-49.333 -112 -74 -192.667 -74 -242c0 -39.333 21 -59 63 -59c39.333 0 94.333 19.667 165 59l1 -13c-54.667 -40 -109 -60 -163 -60c-33.333 0 -60.666 8.66699 -81.999 26
c-23.333 18.667 -35 44 -35 76c0 44.667 22.667 121.667 68 231l101 234c-49.333 -104.667 -114.333 -215 -195 -331c-110 -158.667 -195.333 -238 -256 -238c-17.333 0 -31 7.33301 -41 22c-9.33301 12.667 -14 28 -14 46c0 47.333 28.333 126.333 85 237l123 238
c28 54.667 42 92.667 42 114c0 26.667 -18.333 40 -55 40c-92 0 -186.333 -42.333 -283 -127c-110.667 -96.667 -166 -199 -166 -307c0 -52 19.667 -100.667 59 -146v-5c0 -2.66699 -1.33301 -4 -4 -4c-2 0 -4 1 -6 3c-20.667 16.667 -36.667 42.667 -48 78
c-10 30 -15 60.667 -15 92c0 112 50 212 150 300c96.667 84.667 201.667 127 315 127c27.333 0 49.666 -6 66.999 -18c20 -13.333 30 -33 30 -59c0 -38 -30 -117 -90 -237l-123 -243c-28.667 -57.333 -43 -97 -43 -119c0 -15.333 6.66699 -23 20 -23
c14 0 38.667 15.667 74 47c74 65.333 154 165.666 240 300.999c70 110 132 223.667 186 341c16.667 5.33301 39.334 11.333 68.001 18z" />
    <glyph glyph-name="V" unicode="V" horiz-adv-x="865" 
d="M-44 294c0 127.333 72.6641 230.335 217.997 309.002c120 64.667 250.667 97 392 97c14 0 21 -6 21 -18c0 -3.33301 -12.333 -18.333 -37 -45c-59.333 -64 -109.666 -142.333 -150.999 -235c-44.667 -98.667 -67 -188.334 -67 -269.001c0 -37.333 8.33301 -67.333 25 -90
c18.667 -25.333 46 -38 82 -38c66.667 0 128.667 38.667 186 116c40.667 54.667 74.667 121 102 199c28 81.333 42 154.666 42 219.999s-6 107 -18 125c-6 9.33301 -15 22 -27 38v3l3 4l5 2h2c36 0 63.333 -20.667 82 -62c14.667 -32 22 -68.333 22 -109
c0 -75.333 -20.667 -157 -62 -245c-40.667 -84 -89.667 -153 -147 -207c-69.333 -64.667 -140 -97 -212 -97c-47.333 0 -85.333 16.667 -114 50c-26.667 30.667 -40 70.334 -40 119.001c0 66.667 21.667 141.667 65 225c39.333 76 85.333 140.333 138 193l109 107
c0 3.33301 -7.66699 5 -23 5c-78 0 -163.333 -21.333 -256 -64c-87.333 -40 -160.666 -89 -219.999 -147c-70.667 -69.333 -106 -140.333 -106 -213c0 -50.667 25 -96 75 -136c-1.33301 -14.667 -3.66602 -21.334 -6.99902 -20.001c-54.667 58.667 -82 119.667 -82 183z" />
    <glyph glyph-name="W" unicode="W" horiz-adv-x="1026" 
d="M543 651l-0.00195312 -0.999023c0 -6.66699 -18.333 -10 -55 -10c-14.667 0 -31 -12.667 -49 -38c-14.667 -20.667 -25 -40.334 -31 -59.001l-89 -279c-10 -32.667 -26.667 -78.334 -50 -137.001c-3.33301 -6 -12.666 -24.333 -27.999 -55c-11.333 -22 -18 -41 -20 -57
l1 -5l5 -3h1c2 0 5.16699 2.33301 9.5 7s6.83301 8.33398 7.5 11.001c15.333 20.667 57.666 89.667 126.999 207c83.333 141.333 142.333 238 177 290c65.333 98.667 108.333 148 129 148c10.667 0 16 -5 16 -15c0 -4 -10.667 -24.333 -32 -61
c-35.333 -61.333 -64.5 -133.5 -87.5 -216.5s-34.5 -159.5 -34.5 -229.5c0 -96.667 27.333 -145 82 -145c30 0 64.667 17 104 51c62.667 54.667 111.667 130.334 147 227.001c32 87.333 48 177 48 269c0 76 -18.333 124 -55 144c2 6.66699 8 10 18 10
c9.33301 0 19.333 -3.66699 30 -11c50 -22.667 75.333 -76.334 76 -161.001c0.666992 -92 -21.666 -182.167 -66.999 -270.5s-105.666 -159.833 -180.999 -214.5c-52 -38 -99 -57 -141 -57c-39.333 0 -71.166 12.333 -95.499 37s-36.5 56.667 -36.5 96
c0 64 15.333 138.333 46 223c27.333 76.667 61 145.667 101 207l37 49c16 21.333 26.333 38.666 31 51.999c-1.33301 4 -4 6.66699 -8 8h-3c-30 -16 -106.667 -130.667 -230 -344c-120 -207.333 -193 -314 -219 -320c-10 3.33301 -15 14.333 -15 33v15
c0 97.333 25.667 211 77 341c60 152 127.667 239 203 261c-8.66699 -0.666992 -28.667 -1 -60 -1s-78 2.16699 -140 6.5s-108.667 6.5 -140 6.5c-61.333 0 -109 -27 -143 -81l-15 -30c-8 -16 -13 -24 -15 -24c-4 0 -6 2.66699 -6 8c1.33301 0.666992 2.33301 3 3 7
c0.666992 2 2.66699 7.33301 6 16c8.66699 22.667 29.667 48.667 63 78c48.667 42.667 112 64 190 64c49.333 0 101.666 -5.33301 156.999 -16c6 -1.33301 57.333 -11.666 154 -30.999z" />
    <glyph glyph-name="X" unicode="X" horiz-adv-x="925" 
d="M903 701c-6 -12 -10.333 -18.0039 -13 -18.0039c-10.667 6 -22.667 9 -36 9c-40 0 -87.333 -26.667 -142 -80c-137.333 -133.333 -209 -218 -215 -254h117c2 0 4.66699 -1 8 -3c0 -2.66699 -4.33301 -8.33398 -13 -17.001l-118 -1c-30.667 -96.667 -46 -165.667 -46 -207
c0 -36 9.66699 -66.333 29 -91c20.667 -26.667 48.667 -40 84 -40c72.667 0 138.667 39.333 198 118c55.333 72.667 83 146.667 83 222c0 6.66699 -2 16.834 -6 30.501s-6 23.834 -6 30.501l4 2c4 -2.66699 8.33301 -6.66699 13 -12c19.333 -22 29 -46.333 29 -73
c0 -78 -33.833 -152.5 -101.5 -223.5s-140.5 -106.5 -218.5 -106.5c-53.333 0 -95 15.333 -125 46s-45 72.667 -45 126c0 24.667 4 53 12 85c-86.667 -90.667 -139.667 -144.667 -159 -162c-79.333 -71.333 -140.666 -107 -183.999 -107c-12 0 -24.667 2.33301 -38 7l-9 10
v5c0 7.33301 6 21.333 18 42c4.66699 2.66699 6.66699 4 6 4c24 -32 40 -48 48 -48c29.333 0 82.333 39 159 117c47.333 48 94.666 100.667 141.999 158c17.333 20.667 31.333 38 42 52c0.666992 2 2 6.33301 4 13l-130 -3c-2.66699 2.66699 -4 4.33398 -4 5.00098
c0 1.33301 0.666992 3 2 5l14 10l123 3l43 126c16.667 48.667 25 92 25 130c0 54.667 -35.333 82 -106 82c-90.667 0 -181.167 -43.167 -271.5 -129.5s-135.5 -174.5 -135.5 -264.5c0 -7.33301 1 -18.666 3 -33.999s3 -26.666 3 -33.999l-2 -1l-1 1
c-17.333 30.667 -26 62.667 -26 96c0 99.333 48 187.666 144 264.999c90.667 72.667 187.334 109 290.001 109c42.667 0 79 -9.66699 109 -29c36 -22.667 54 -54 54 -94c0 -14 -2 -31.333 -6 -52c-4 -16.667 -7.66699 -33.667 -11 -51
c129.333 155.333 239.666 233 330.999 233h30c0.666992 -1.33301 1 -3.66602 1 -6.99902z" />
    <glyph glyph-name="Y" unicode="Y" horiz-adv-x="845" 
d="M809 697c2.66699 0 3.99609 -1.66797 3.99609 -5.00098c0 -8.66699 -30.667 -103.334 -92 -284.001c-56.667 -166.667 -93.667 -272.334 -111 -317.001c50 12 118.667 27 206 45c2.66699 0 4 -1 4 -3c0 -8 -4.33301 -16.333 -13 -25
c-87.333 -10 -155.666 -21 -204.999 -33c-36 -65.333 -77.667 -122.666 -125 -171.999c-63.333 -66 -122 -99 -176 -99c-39.333 0 -59 19 -59 57c0 48 38.667 94 116 138c52.667 30 113.334 54.333 182.001 73c19.333 54 77 226.667 173 518
c-95.333 -182.667 -159.666 -300 -192.999 -352c-105.333 -162.667 -195.666 -244 -270.999 -244c-17.333 0 -31.333 7.66699 -42 23c-9.33301 13.333 -14 29.333 -14 48c0 38 26 114.333 78 229l107 236c25.333 56 38 95.333 38 118c0 30 -20.667 45 -62 45
c-32 0 -71.667 -12.667 -119 -38c-37.333 -20 -72.333 -43.667 -105 -71c-95.333 -80 -143 -164.333 -143 -253c0 -55.333 26.333 -118.333 79 -189v-2c0 -1.33301 -0.666992 -2.66602 -2 -3.99902c-0.666992 0.666992 -1.33398 1 -2.00098 1
c-61.333 58 -92 129.333 -92 214c0 134.667 75.333 238.334 226 311.001c62.667 30 121 45 175 45c26.667 0 49 -7 67 -21s27 -34 27 -60c0 -44 -26 -123 -78 -237l-112 -242c-24.667 -53.333 -37 -93.333 -37 -120c0 -14.667 5.66699 -22 17 -22
c62.667 0 154.334 95 275.001 285c93.333 146 162.333 273.667 207 383c32 9.33301 54.667 17.333 68 24h4zM257.996 -150.001c0 -26 14.333 -39.001 43 -39.001c45.333 0 92.666 30.333 141.999 91c34.667 42.667 65.334 94.334 92.001 155.001
c-184 -69.333 -276 -138.333 -276 -207h-1z" />
    <glyph glyph-name="Z" unicode="Z" horiz-adv-x="865" 
d="M483 331c-12 -0.666992 -18.001 0.667969 -18.001 4.00098c0.666992 2.66699 4 8.33398 10 17.001l68 -1c37.333 51.333 80.333 103.666 129 156.999c66.667 73.333 114.667 116 144 128c-22.667 -1.33301 -47.667 -2 -75 -2c-35.333 0 -87.666 7.16699 -156.999 21.5
s-121.666 21.5 -156.999 21.5c-90 0 -166 -41.333 -228 -124c-57.333 -76 -86 -160.333 -86 -253c0 -93.333 29.333 -140 88 -140s109 47 151 141c35.333 79.333 53 152.666 53 219.999c0 6 -1 15.333 -3 28s-3 22 -3 28v6c2 2 3.33301 3 4 3
c7.33301 0 13.666 -13.667 18.999 -41c4.66699 -23.333 7 -40.666 7 -51.999c0 -62.667 -21.333 -132.667 -64 -210c-48 -87.333 -100.333 -131 -157 -131c-42 0 -73.667 17 -95 51c-18 28 -27 64.333 -27 109c0 56.667 20 117 60 181c35.333 57.333 78 105.666 128 144.999
c70 55.333 143 83 219 83c44 0 106.667 -15.667 188 -47c52 -20 89.333 -30 112 -30c16 0 27.333 2 34 6h4c2 0 3 -1.66699 3 -5l-1 -3c-38 -58 -105.667 -154.333 -203 -289c-0.666992 0 4.33301 0.333008 15 1h32h46c2.66699 0 4.66699 -0.666992 6 -2l-1 -4l-17 -13
l-97 1c-110 -124.667 -221.667 -214.667 -335 -270l192 -24c74.667 -9.33301 138.667 -14 192 -14c76.667 0 138.334 19.333 185.001 58c0.666992 -1.33301 1 -4.33301 1 -9v-3c-0.666992 -0.666992 -1 -1.66699 -1 -3c-82.667 -58 -179 -87 -289 -87
c-89.333 0 -212.333 16.333 -369 49c-52 -25.333 -105.333 -38 -160 -38c-45.333 0 -68 10.667 -68 32c0 18.667 18.333 32.667 55 42c24 6 50.333 9 79 9c3.33301 0 55.666 -3.66699 156.999 -11c52 28 102.333 67.667 151 119c24 25.333 65.667 74.333 125 147
c-8 0 -23.333 -0.666992 -46 -2zM26.999 53.002c-33.333 0 -52.333 -8.33301 -57 -25c6 -14 25.333 -21 58 -21c52 0 99 9.66699 141 29c-52.667 10.667 -100 16 -142 16v1z" />
    <glyph glyph-name="bracketleft" unicode="[" horiz-adv-x="342" 
d="M398 704l-5 -13h-77l-294 -837l78 -1l-5 -14l-136 2l302 863h137z" />
    <glyph glyph-name="backslash" unicode="\" horiz-adv-x="278" 
d="M49 737l246 -756h-67l-245 756h66z" />
    <glyph glyph-name="bracketright" unicode="]" horiz-adv-x="342" 
d="M-32 -147l298 836l-78 2l5 14l137 -2l-307 -864h-138l6 14h77z" />
    <glyph glyph-name="asciicircum" unicode="^" horiz-adv-x="0" 
d="M251 768l0.999023 -6.99805l-3 -5l-4 -2c-13.333 0.666992 -44.666 28.667 -93.999 84c-48.667 -48.667 -81.667 -76.334 -99 -83.001h-3c-2.66699 0 -4 2 -4 6c8.66699 10.667 26 30.334 52 59.001c8.66699 9.33301 21 27.666 37 54.999h66
c12 -32.667 19 -51.334 21 -56.001c8.66699 -20.667 18.667 -37.667 30 -51z" />
    <glyph glyph-name="underscore" unicode="_" horiz-adv-x="556" 
d="M0 -75h556v-50h-556v50z" />
    <glyph glyph-name="grave" unicode="`" horiz-adv-x="0" 
d="M92 471l2 -6.99902l-3 -5l-3 -2h-2c-10 0 -39.167 21.667 -87.5 65s-72.5 69.666 -72.5 78.999c0 1.33301 1 3 3 5c4.66699 -0.666992 16 -1 34 -1c3.33301 0 20.333 0.666992 51 2c26.667 -56.667 52.667 -102 78 -136z" />
    <glyph glyph-name="a" unicode="a" horiz-adv-x="483" 
d="M398 387c0 -0.666992 -0.332031 -1.66602 -0.999023 -2.99902l-70 -178c-36.667 -96.667 -55 -152.334 -55 -167.001c0 -20.667 15.333 -31 46 -31c46.667 0 102 20 166 60v-12c-40.667 -21.333 -66.334 -34.333 -77.001 -39c-32 -14 -59.667 -21 -83 -21
c-22 0 -42.333 4.66699 -61 14c-22 10.667 -35 25.667 -39 45c-52 -40 -104.667 -60 -158 -60c-60 0 -90 29 -90 87c0 68.667 27 136.667 81 204c57.333 70.667 119.333 106 186 106c24 0 53 -11 87 -33c39.333 22 60.333 33 63 33c3.33301 0 5 -1.66699 5 -5z
M313.001 345.001l-24 21.001c-24.667 11.333 -44.334 17 -59.001 17c-43.333 0 -87.333 -43 -132 -129c-40.667 -78.667 -61 -142 -61 -190c0 -38 19.333 -57 58 -57c34.667 0 77.667 22.333 129 67c2 27.333 14.667 71 38 131c12.667 33.333 30.334 76.666 53.001 129.999z
" />
    <glyph glyph-name="b" unicode="b" horiz-adv-x="423" 
d="M264 693c-1.33301 -5.33301 -7.33398 -22.9961 -18.001 -52.9961l-40 -106l-98 -257c-50 -131.333 -75 -210 -75 -236c0 -10.667 4.33301 -20 13 -28s18.334 -12 29.001 -12c66.667 0 123.334 52 170.001 156c-33.333 47.333 -50 95.666 -50 144.999c0 26 4 48.667 12 68
c10.667 26 27 39 49 39c21.333 0 37.666 -14.667 48.999 -44c8.66699 -22 13 -45.667 13 -71c0 -40.667 -16.333 -90.334 -49 -149.001c27.333 -30 63.333 -45 108 -45c15.333 0 24 -1 26 -3c-4 -8 -12 -12 -24 -12c-18 0 -38.5 5.16699 -61.5 15.5
s-41.167 22.166 -54.5 35.499c-38 -47.333 -67 -79.333 -87 -96c-39.333 -32.667 -78.333 -49 -117 -49c-20.667 0 -38.667 5.66699 -54 17c-17.333 12.667 -26 28.667 -26 48c0 23.333 8.33301 56.666 25 99.999c7.33301 17.333 20.333 51 39 101l146 405
c5.33301 1.33301 18 7 38 17s32.333 15 37 15v-1zM249.999 395.004l-7 -0.000976562c-19.333 0 -29 -34 -29 -102c0 -36.667 12 -79 36 -127c18 67.333 27 113 27 137c0 46.667 -9 77.334 -27 92.001z" />
    <glyph glyph-name="c" unicode="c" horiz-adv-x="342" 
d="M103 -7c-78.667 0 -118.002 31.668 -118.002 95.001c0 61.333 26.667 125.666 80 192.999c56 71.333 113.667 107 173 107c16 0 29.333 -5.66699 40 -17s16 -25 16 -41c0 -28 -13 -60.667 -39 -98c-27.333 -40 -54.333 -60 -81 -60h-3l-7 3l-6 8l-1 7
c5.33301 22 28.333 47 69 75c37.333 25.333 56 51.666 56 78.999c0 10 -4.66699 18.167 -14 24.5s-19.333 9.5 -30 9.5c-49.333 0 -94 -37.667 -134 -113c-34.667 -65.333 -52 -125.666 -52 -180.999c0 -53.333 25.667 -80 77 -80c32.667 0 70.667 8.66699 114 26
c38.667 15.333 73.334 34 104.001 56v-16c-49.333 -24 -88.666 -41.333 -117.999 -52c-44.667 -16.667 -86.667 -25 -126 -25z" />
    <glyph glyph-name="d" unicode="d" horiz-adv-x="442" 
d="M474 702l6 0.999023l1 -3c0 -34.667 -20 -100.667 -60 -198l-85 -206c-56 -140 -84 -225.333 -84 -256c0 -23.333 14.667 -35 44 -35c42 0 93 18 153 54v-15c-64.667 -32.667 -115 -49 -151 -49c-51.333 0 -82.666 18.667 -93.999 56
c-48.667 -39.333 -91.667 -59 -129 -59c-29.333 0 -52.833 8.16699 -70.5 24.5s-26.5 38.833 -26.5 67.5c0 62 25 127 75 195c53.333 72.667 110 109 170 109c15.333 0 40.666 -9.66699 75.999 -29l105 299c14.667 6.66699 38 21.334 70 44.001zM223 380.999
c-45.333 0 -89.001 -42.667 -131.001 -128c-36.667 -74.667 -55 -138 -55 -190c0 -40 15.333 -60 46 -60c44 0 83.333 23.333 118 70c6.66699 41.333 19 85.333 37 132c2.66699 7.33301 19.334 50 50.001 128c-14 32 -35.667 48 -65 48z" />
    <glyph glyph-name="e" unicode="e" horiz-adv-x="301" 
d="M45 88c0 -55.333 25.3359 -83.333 76.0029 -84c31.333 -0.666992 64.666 7 99.999 23c33.333 14.667 61.666 33.667 84.999 57v-16c-65.333 -49.333 -128 -74 -188 -74c-44 0 -76.333 7 -97 21c-25.333 17.333 -38 47 -38 89c-0.666992 102 39.666 185 120.999 249
c31.333 24.667 55 37 71 37s28.667 -6.16699 38 -18.5s14 -26.833 14 -43.5c0 -64.667 -60.667 -138 -182 -220v-20zM205.003 365c-4 3.33301 -8.33398 5.33301 -13.001 6c-39.333 0 -74.666 -33 -105.999 -99c-24 -50.667 -38 -101 -42 -151c36 24.667 71 58.667 105 102
c39.333 50.667 59 93.667 59 129c0 2.66699 -1 7 -3 13z" />
    <glyph glyph-name="f" unicode="f" horiz-adv-x="342" 
d="M341 660c0 -78.667 -17.999 -159.332 -53.999 -241.999c-35.333 -80 -81.666 -148.667 -138.999 -206l-58 -203c14 -1.33301 30 -2 48 -2c71.333 0 140.666 26.667 207.999 80c0.666992 -0.666992 1 -3 1 -7c0 -4.66699 -0.666992 -8 -2 -10
c-64.667 -50 -138 -75.333 -220 -76c-12 0 -24.667 1 -38 3l-20 -74c-5.33301 -22.667 -10.333 -45.334 -15 -68.001c-9.33301 -32 -21.333 -48 -36 -48c-14 0 -21 9 -21 27c0 44.667 12.667 102.667 38 174c-34 13.333 -51 35.333 -51 66c0 30 7 68.667 21 116
c17.333 58.667 36.333 88 57 88c12 0 19.667 -7.33301 23 -22l8 -34c35.333 110.667 62 189 80 235c40.667 103.333 80 172.333 118 207c15.333 14 26.666 21 33.999 21c12 0 18 -8.33301 18 -25zM319.001 676.002c-28.667 -12 -60.332 -78.665 -94.999 -199.998l-68 -238
c35.333 35.333 74.666 109.666 117.999 222.999c36.667 97.333 55 165.666 55 204.999c0 6.66699 -3.33301 10 -10 10zM82.0029 197.004c0 17.333 -5.66797 27.666 -17.001 30.999l-6 -4c-18 -27.333 -31.333 -70.666 -40 -129.999c13.333 12.667 30 27 50 43
c0.666992 4 3.33398 14 8.00098 30c3.33301 12 5 22 5 30zM18.002 80.0039c-1.33301 -12 -2 -19.001 -2 -21.001c0 -21.333 7 -33.666 21 -36.999l29 97z" />
    <glyph glyph-name="g" unicode="g" horiz-adv-x="483" 
d="M397 394c2 0 3.00098 -1.33203 3.00098 -3.99902l-21 -51c-6.66699 -16 -24 -63.667 -52 -143l-72 -205l127 43l101 44l1 -14c-28 -13.333 -66.667 -29 -116 -47l-118 -43c-17.333 -36 -41.333 -70.333 -72 -103c-38.667 -41.333 -72.667 -62 -102 -62
c-27.333 0 -41 10.667 -41 32c0 35.333 49.333 76.333 148 123l32 82c-48.667 -35.333 -95.334 -53 -140.001 -53c-27.333 0 -50 8.33301 -68 25s-27 38.667 -27 66c0 63.333 26.667 129.666 80 198.999c56 73.333 114.667 110 176 110c32 0 63.667 -10.667 95 -32
c16 9.33301 37.333 20.333 64 33h2zM321.001 340.001c-18 29.333 -45.333 44 -82 44c-48 0 -94 -42 -138 -126c-38.667 -74 -58 -138.333 -58 -193c0 -40 19 -60 57 -60c38.667 0 79 21.333 121 64l99 271h1zM74.001 -182.999c38 0 72 42.333 102 127
c-86.667 -38 -130 -71.667 -130 -101c0 -17.333 9.33301 -26 28 -26z" />
    <glyph glyph-name="h" unicode="h" horiz-adv-x="442" 
d="M250 704c1.33301 -1.33301 2 -2.66797 2 -4.00098c0 -2 -6.66699 -23 -20 -63c-38.667 -116.667 -97 -271.334 -175 -464.001l-39 -91c-8 -22.667 -14 -44.667 -18 -66c1.33301 -5.33301 3.66602 -8 6.99902 -8c2.66699 0 19 28 49 84c34 64 69.667 121.667 107 173
c58.667 81.333 105.334 122 140.001 122c26.667 0 40 -17.333 40 -52c0 -29.333 -16 -78.166 -48 -146.499s-48 -115.5 -48 -141.5c0 -28 19 -42 57 -42s83.667 20.667 137 62v-12c-50.667 -40 -98 -60 -142 -60c-30 0 -54.333 8.33301 -73 25s-28 40 -28 70
c0 24 17 72.833 51 146.5s50.667 118.5 50 134.5l1 3c-0.666992 2.66699 -2.33398 4 -5.00098 4c-30 0 -75.333 -44.667 -136 -134c-42.667 -62.667 -78.667 -123 -108 -181c-7.33301 -15.333 -17.666 -34.333 -30.999 -57c-4 -4 -9 -6 -15 -6s-11 4 -15 12
c-8 28 -12 49 -12 63c0 26 10 66.333 30 121l172 470c12.667 4.66699 35.667 17.334 69 38.001h1z" />
    <glyph glyph-name="i" unicode="i" 
d="M140 388c1.33301 0.666992 4.33203 1.00098 8.99902 1.00098c2.66699 0 4 -2 4 -6c0 -30 -19.667 -86 -59 -168s-59 -139 -59 -171c0 -26 15.333 -39 46 -39c33.333 0 82.333 22.667 147 68v-13c-54.667 -44.667 -104.667 -67 -150 -67
c-25.333 0 -46.666 6.66699 -63.999 20s-26 32.333 -26 57c0 31.333 11 77.666 33 138.999l52 140c29.333 12 52 25 68 39h-1zM189.999 513.001c0 -10.667 -3.66699 -19.832 -11 -27.499s-16.333 -11.5 -27 -11.5c-26.667 0 -40 13 -40 39s13.333 39 40 39
c10.667 0 19.667 -3.83301 27 -11.5s11 -16.834 11 -27.501z" />
    <glyph glyph-name="j" unicode="j" horiz-adv-x="301" 
d="M154 350c-55.333 -23.333 -89.334 -40.999 -102.001 -52.999c-17.333 -16 -36.333 -49 -57 -99c-3.33301 14.667 -5 20.334 -5 17.001c0 10 5.66699 25.667 17 47c16 30 37.333 52.333 64 67c14 8 40.333 17.667 79 29c34.667 10.667 60.334 21.667 77.001 33h3
c3.33301 0 5 -2.66699 5 -8c0 -4.66699 -28.333 -83 -85 -235c33.333 -3.33301 62 -8.33301 86 -15c42.667 -12 65 -25.667 67 -41c-0.666992 -4 -2.33398 -6 -5.00098 -6c-4.66699 2.66699 -15 8 -31 16c-34 18 -75 28 -123 30l-54 -143l-45 -123
c-3.33301 -14 -8.33301 -29.333 -15 -46l-6 -2c-1.33301 0 -3.66602 0.666992 -6.99902 2c-10 5.33301 -18 34.666 -24 87.999c-4 36 -6 71 -6 105c0 49.333 4 80.666 12 93.999c10.667 17.333 38.667 31 84 41zM-3.00098 -53.999c0 -16.667 5.00098 -47.999 15.001 -93.999
c7.33301 77.333 28.666 169.666 63.999 276.999c-32 -13.333 -54.333 -39 -67 -77c-7.33301 -22.667 -11.333 -58 -12 -106zM281 514.002c0 -10.667 -3.66699 -19.667 -11 -27s-16.333 -11 -27 -11s-20 3.66699 -28 11s-12 16.333 -12 27s4 20 12 28s17.333 12 28 12
s19.667 -4 27 -12s11 -17.333 11 -28z" />
    <glyph glyph-name="k" unicode="k" horiz-adv-x="442" 
d="M245 698c0 -0.666992 0.500977 -0.999023 1.50098 -0.999023s1.5 -0.666992 1.5 -2c0 -56.667 -18 -124.334 -54 -203.001c-18 -36 -47 -102 -87 -198l-50 -137l-28.5 -73.5c-15 -39 -22.5 -63.167 -22.5 -72.5c0 -2 2 -3.66699 6 -5
c1.33301 0.666992 3.33301 2.33398 6 5.00098c5.33301 8 20.666 37.667 45.999 89c42 84.667 74.667 144 98 178c51.333 74 102.333 111 153 111c16.667 0 30.834 -5.66699 42.501 -17s17.5 -25.333 17.5 -42c0 -48 -30 -89.667 -90 -125
c-46.667 -27.333 -98.334 -46.666 -155.001 -57.999c28 -14 47.333 -25.167 58 -33.5s24 -23.5 40 -45.5s28.667 -37 38 -45c15.333 -13.333 31.333 -20 48 -20c26 0 50.667 7 74 21c12 6.66699 32.667 22.667 62 48v-14c-27.333 -22.667 -49.333 -38.334 -66 -47.001
c-24 -12.667 -50 -19 -78 -19c-42.667 0 -83 15.667 -121 47c-23.333 19.333 -52.666 52.666 -87.999 99.999l-35 -77c-16.667 -36 -31 -57.667 -43 -65c-0.666992 -0.666992 -4.33398 -1 -11.001 -1c-8 0 -14.667 10.667 -20 32c-4 16 -6 30 -6 42c0 36 8 75 24 117
c8 19.333 22.667 57 44 113c25.333 66 67 187 125 363c25.333 10 48.333 21.667 69 35h1zM289.001 370.001c-29.333 0 -65 -29 -107 -87c-28 -39.333 -53.667 -82.333 -77 -129c5.33301 0 12.333 0.666992 21 2c36.667 5.33301 77.5 28.833 122.5 70.5
s67.5 80.167 67.5 115.5c0 18.667 -9 28 -27 28z" />
    <glyph glyph-name="l" unicode="l" 
d="M257 701c1.33301 0 1.99902 -0.664062 1.99902 -1.99707c0 -0.666992 -0.333008 -1.66699 -1 -3l-129 -380c-3.33301 -10 -21 -58.667 -53 -146c-28 -76.667 -42 -120.334 -42 -131.001c0 -24.667 15.333 -37.334 46 -38.001
c38.667 -0.666992 88.334 17.666 149.001 54.999v-14c-61.333 -33.333 -111 -50 -149 -50c-27.333 0 -49.333 7.16699 -66 21.5s-25 34.833 -25 61.5c0 32 9.33301 72.667 28 122c8.66699 20.667 24 61 46 121l125 350l66 33h3z" />
    <glyph glyph-name="m" unicode="m" horiz-adv-x="664" 
d="M661 54c-51.333 -36.667 -98.3311 -55.0039 -140.998 -55.0039c-30 0 -54.167 8.16699 -72.5 24.5s-27.5 39.5 -27.5 69.5c0 26 9.66699 62.333 29 109c7.33301 18.667 22.333 54.667 45 108c11.333 26.667 17 47.334 17 62.001c0 0.666992 -0.666992 1.66699 -2 3h-4
l-18 -9c-28 -12.667 -68.667 -59 -122 -139c-46 -68.667 -79.167 -124.167 -99.5 -166.5s-35.5 -63.5 -45.5 -63.5c-10.667 0 -19.334 7 -26.001 21c-5.33301 12 -8 24 -8 36c0 30 13.667 81.667 41 155l59 159h1v2l-1 2l-3 2h-1c-29.333 0 -74.333 -45.333 -135 -136
c-44 -66 -80 -128.333 -108 -187c-18 -37.333 -33.333 -56 -46 -56c-14.667 0 -22.334 23.667 -23.001 71c-0.666992 38.667 8.33301 85 27 139c6 17.333 23.667 61.333 53 132c3.33301 8.66699 5.33301 13.334 6 14.001s5.33398 3.33398 14.001 8.00098
c21.333 12 40 21.333 56 28c2.66699 -0.666992 4 -2.66699 4 -6c0 -2.66699 -2 -9.33398 -6 -20.001l-134 -351c0.666992 -1.33301 2.66699 -2 6 -2c11.333 11.333 37.666 58 78.999 140c24 48 54.667 95.667 92 143c50 64 91.667 96 125 96
c11.333 0 20.5 -6.16699 27.5 -18.5s10.5 -24.5 10.5 -36.5c0 -33.333 -11.333 -75.666 -34 -126.999l-56 -124c-16 -36 -24 -59.667 -24 -71c0 -1.33301 0.666992 -2 2 -2h7c0 2 13.333 27.333 40 76c111.333 203.333 194.666 305 249.999 305
c12.667 0 22.5 -5.66699 29.5 -17s10.5 -23.666 10.5 -36.999c0 -31.333 -14.333 -80 -43 -146s-43 -114 -43 -144c0 -23.333 17 -35 51 -35c34.667 0 81.334 19 140.001 57v-14z" />
    <glyph glyph-name="n" unicode="n" horiz-adv-x="442" 
d="M140 385l1.99805 -3.00195c-4 -12.667 -30.333 -77 -79 -193c-42.667 -101.333 -64 -157.333 -64 -168c0 -2.66699 1.33301 -4 4 -4l5 2c10.667 10.667 21 26.334 31 47.001c4 9.33301 12.333 26.333 25 51c21.333 40.667 56.666 92 105.999 154
c58.667 74 102.334 111 131.001 111c10.667 0 19.834 -5.66699 27.501 -17s11.5 -22.666 11.5 -33.999c0 -30 -15.5 -78.667 -46.5 -146s-46.5 -116 -46.5 -146c0 -20.667 16.667 -31 50 -31c26 0 51.667 6 77 18c11.333 5.33301 33.666 19.333 66.999 42l1 -13
c-48.667 -40 -98 -60 -148 -60c-27.333 0 -50 7.83301 -68 23.5s-27 37.167 -27 64.5c0 26.667 16.667 75 50 145s50 116.333 50 139c-0.666992 0.666992 -2 1 -4 1c-9.33301 0 -30 -15 -62 -45c-65.333 -61.333 -123.666 -141.666 -174.999 -240.999l-29 -60
c-5.33301 -10.667 -12.666 -17.667 -21.999 -21c-19.333 0 -29 19 -29 57c0 39.333 11 88.666 33 147.999l54 146c18 10.667 42.333 22 73 34z" />
    <glyph glyph-name="o" unicode="o" horiz-adv-x="423" 
d="M38 90c0 -54.667 17.668 -82.002 53.001 -82.002c58 0 106 53.333 144 160c-37.333 53.333 -56 106.333 -56 159c0 66.667 17.667 100 53 100c25.333 0 44.333 -14.333 57 -43c9.33301 -21.333 14.333 -46.666 15 -75.999c0.666992 -41.333 -11 -91 -35 -149
c25.333 -21.333 53.333 -32 84 -32c22.667 0 45.334 6 68.001 18l-1 -13c-20.667 -11.333 -44.334 -17 -71.001 -17c-29.333 0 -58 9.33301 -86 28c-58.667 -100 -119.334 -150 -182.001 -150c-33.333 0 -59.333 9.33301 -78 28s-28 44.667 -28 78c0 46 13 92.667 39 140
c24 44.667 55 82.334 93 113.001c28 22.667 48 34 60 34c3.33301 0 5 -1.33301 5 -4c0 -2 -5 -8.33301 -15 -19c-78.667 -83.333 -118 -174 -118 -272zM224.001 406.998l-5 0.999023c-15.333 -4 -23 -25.333 -23 -64c0 -51.333 15 -102.666 45 -153.999
c7.33301 35.333 11 73 11 113c0 55.333 -9.33301 90 -28 104z" />
    <glyph glyph-name="p" unicode="p" horiz-adv-x="503" 
d="M153 352c-84.667 -46.667 -137.664 -109.667 -158.997 -189c-2.66699 -9.33301 -5.33398 -14 -8.00098 -14c-2 0 -3 1 -3 3c0 8 4.33301 25 13 51c24 72 78.667 126.667 164 164l16 39c18 6 39 11.667 63 17c0.666992 -0.666992 1 -2.66699 1 -6
c0 -5.33301 -3 -15 -9 -29c14.667 1.33301 23 2 25 2c94 0 141 -38.333 141 -115c0 -78.667 -51.667 -156.667 -155 -234c33.333 -22.667 64.666 -34 93.999 -34c28 0 53.333 4.66699 76 14c15.333 6 37.666 18.333 66.999 37v-13c-54.667 -33.333 -101.667 -50 -141 -50
c-30.667 0 -73.334 9.66699 -128.001 29c-43.333 -18.667 -84.666 -28 -123.999 -28c-16 -44.667 -32.333 -98 -49 -160l-60 -34c0 24 17.667 90.667 53 200c-36.667 12.667 -55 32.667 -55 60c0 34 22.667 51 68 51c1.33301 0 9.33301 -0.666992 24 -2zM219.003 55
c73.333 67.333 110.332 138.332 110.999 212.999c0 32 -8.66699 57.667 -26 77s-41.666 29 -72.999 29h-7c-22.667 -57.333 -56 -149.333 -100 -276c31.333 -13.333 63 -27.666 95 -42.999zM64.002 100.999c-39.333 -5.33301 -59 -21.667 -59 -49c0 -18 9 -32.667 27 -44z
M190.002 32.998c-15.333 14.667 -39 31.667 -71 51l-30 -82c29.333 4.66699 63 15 101 31z" />
    <glyph glyph-name="q" unicode="q" horiz-adv-x="463" 
d="M389 393l2.99902 -3.00098l-29 -78c-120.667 -316 -181 -479.333 -181 -490c0 -2 1.33301 -3 4 -3c0.666992 0 1.66699 0.333008 3 1c2.66699 4.66699 17.667 33.334 45 86.001c17.333 34.667 50.333 66.334 99 95.001c24.667 14.667 67.334 35 128.001 61l1 -14
c-79.333 -32 -131 -58 -155 -78c-27.333 -22.667 -61.333 -69.667 -102 -141c-6.66699 -12 -13.667 -18.333 -21 -19c-15.333 6 -23 28 -23 66c0 40 13.333 93 40 159c-56 -26 -98 -39 -126 -39c-65.333 0 -98 28 -98 84c0 69.333 26 137.666 78 204.999
c56 72.667 117.333 109 184 109c23.333 0 52.333 -9.33301 87 -28zM235.999 385.999c-50 0 -96.667 -40.333 -140 -121c-38.667 -72 -58 -135.667 -58 -191c0 -44.667 22 -67 66 -67c14.667 0 33.667 6.33301 57 19c21.333 12 37.333 24 48 36l104 280
c-27.333 29.333 -53 44 -77 44z" />
    <glyph glyph-name="r" unicode="r" horiz-adv-x="322" 
d="M157 382l0.00195312 -6.00098c-11.333 -35.333 -28.666 -80.666 -51.999 -135.999l-51 -120c-24.667 -58.667 -37 -96.334 -37 -113.001c1.33301 -1.33301 2.66602 -2 3.99902 -2c2 0 13.333 19.333 34 58c25.333 47.333 56.333 101.333 93 162v6
c0 13.333 0.333008 24.333 1 33c2 26.667 16.167 55.334 42.5 86.001s52.166 46 77.499 46c16.667 0 25 -8.66699 25 -26l-60 -60c-40 -40 -60 -69.333 -60 -88c0 -34 11.667 -60.5 35 -79.5s52.333 -28.5 87 -28.5c16.667 0 30 1.33301 40 4l10 -13
c-10.667 -2 -27.667 -3 -51 -3c-62.667 0 -110 35.667 -142 107c-20 -31.333 -55.667 -93 -107 -185c-2.66699 -8 -9.33398 -18.667 -20.001 -32h-8c0.666992 0 -1 0.333008 -5 1c-19.333 16 -29 37.333 -29 64c0 32 12.333 80.667 37 146l57 150c20.667 12 45.667 23 75 33
z" />
    <glyph glyph-name="s" unicode="s" horiz-adv-x="322" 
d="M176 403c23.333 0 34.998 -15 34.998 -45c0 -31.333 -16 -71 -48 -119c15.333 -55.333 23 -90.333 23 -105c0 -44 -23.667 -84 -71 -120c22 -7.33301 43 -11 63 -11c44.667 0 93.334 22.333 146.001 67v-16c-53.333 -41.333 -101 -62 -143 -62c-20 0 -45.667 5 -77 15
c-16.667 -10.667 -35.667 -16 -57 -16c-42.667 0 -64 17.333 -64 52c0 15.333 5.66699 29.666 17 42.999c30.667 24 67 58.667 109 104c-6.66699 24.667 -10 52.334 -10 83.001c0 27.333 6 54.333 18 81c14.667 32.667 34.334 49 59.001 49zM193.998 351
c0 18.667 -5.33301 30.999 -16 36.999c-8 0 -15.167 -6.5 -21.5 -19.5s-9.5 -24.167 -9.5 -33.5v-25c0 -15.333 4 -34.666 12 -57.999c23.333 41.333 35 74 35 98v1zM131.998 80.999c0 14 -2.33398 30.667 -7.00098 50l-12 50c-10 -13.333 -27.5 -31 -52.5 -53
s-43.167 -39.333 -54.5 -52c10.667 -4 25.834 -13.5 45.501 -28.5s35.5 -24.5 47.5 -28.5c22 20 33 40.667 33 62z" />
    <glyph glyph-name="t" unicode="t" horiz-adv-x="262" 
d="M38 352l32.001 0.000976562l65 181l69 10l-71 -191h119l-19 -24h-108l-52 -144c-25.333 -70 -38 -115.667 -38 -137c0 -30.667 18.333 -46 55 -46c44.667 0 104 31 178 93v-15c-74 -58.667 -135 -88 -183 -88c-24.667 0 -46.334 5.66699 -65.001 17
c-22 13.333 -33 31.666 -33 54.999c0 36 9.33301 80.667 28 134l47 132h-41z" />
    <glyph glyph-name="u" unicode="u" horiz-adv-x="463" 
d="M148 390l-0.00195312 -2.99902c0 -4 -26.333 -72.667 -79 -206c-28 -71.333 -42 -118.333 -42 -141c0 -14 9 -24.667 27 -32c3.33301 0 6.33301 -0.333008 9 -1h9c18.667 0 40.667 7.66699 66 23c12.667 7.33301 32.667 21 60 41
c8.66699 45.333 23.334 95.333 44.001 150l56 146c18 7.33301 42 14.666 72 21.999l4 -3v-3c-15.333 -32.667 -38.333 -91.334 -69 -176.001c-34 -94 -51 -150 -51 -168c0 -22.667 16.667 -34 50 -34c42.667 0 94.334 23.333 155.001 70v-16
c-58.667 -44 -110.667 -66 -156 -66c-20.667 0 -41 5.33301 -61 16c-22.667 12 -36 27.333 -40 46c-46.667 -39.333 -91 -59 -133 -59c-24 0 -44.667 6.33301 -62 19c-19.333 14 -29 32.333 -29 55c0 26 13.333 75.333 40 148l56 151c32.667 12.667 56 20.334 70 23.001z
" />
    <glyph glyph-name="v" unicode="v" horiz-adv-x="442" 
d="M30 42c0 -26 15.6641 -38.998 46.9971 -38.998c36.667 0 73.334 18.333 110.001 55c32 32 55 67.333 69 106c-32.667 56.667 -49 103.667 -49 141c0 71.333 20.667 107 62 107c18 0 32.333 -11.667 43 -35c8.66699 -19.333 13 -39.333 13 -60
c0.666992 -47.333 -13.666 -101 -42.999 -161c27.333 -28 64 -42 110 -42c8.66699 0 19.334 1.33301 32.001 4l4 -6l-1 -5c-1.33301 -6.66699 -10 -10 -26 -10c-57.333 0 -99.333 16.333 -126 49c-64.667 -102.667 -133.667 -154.334 -207 -155.001
c-26 0 -47.667 6.66699 -65 20s-26 32.666 -26 57.999c0 18.667 12.667 64.667 38 138l51 147l78 32l-66 -177c-32 -86 -48 -141.667 -48 -167zM281.997 335.002c0 28.667 -4.66699 49 -14 61l-8 4c-20 -4.66699 -30 -34 -30 -88c0 -35.333 10.667 -79 32 -131
c13.333 44 20 86.333 20 127v27z" />
    <glyph glyph-name="w" unicode="w" horiz-adv-x="644" 
d="M138 390l-67 -177.998c-34.667 -92 -52 -146.333 -52 -163c0 -29.333 16 -44 48 -44c25.333 0 63 19 113 57v2c0 24.667 32.667 122 98 292l73 37l2 -4c-79.333 -206 -119 -320.667 -119 -344c0 -25.333 15 -38 45 -38c36.667 0 72.334 19.333 107.001 58
c26 29.333 48.333 65 67 107c-30 53.333 -45 99 -45 137c0 70.667 19.333 106 58 106c36.667 0 55 -33.667 55 -101c0 -35.333 -15.667 -87.333 -47 -156c28 -29.333 64 -44 108 -44c4 0.666992 16 2 36 4l1 -15c-4.66699 -0.666992 -14.667 -1 -30 -1
c-41.333 0 -81.666 15.667 -120.999 47c-17.333 -38 -46 -72.333 -86 -103c-42.667 -33.333 -83.334 -50 -122.001 -50c-36.667 0 -63.334 18.333 -80.001 55c-49.333 -36.667 -93 -55.334 -131 -56.001c-22.667 -0.666992 -41.667 5.16602 -57 17.499s-23 29.5 -23 51.5
c0 25.333 12.667 73 38 143l56 147c48 24 72.667 36.667 74 38zM456 403.002c-18 -4 -27 -28.333 -27 -73c0 -60.667 9.33301 -109.667 28 -147c14.667 67.333 22 119.333 22 156c0 38.667 -7.66699 60 -23 64z" />
    <glyph glyph-name="x" unicode="x" horiz-adv-x="483" 
d="M131 369c-23.333 0 -55.832 -11.499 -97.499 -34.499s-58.834 -34.5 -51.501 -34.5c-2 0 -3 1.66699 -3 5c0 13.333 22 30 66 50c40 18 68.667 27 86 27c21.333 0 43.333 -8.66699 66 -26c24 -19.333 36 -39.333 36 -60c0 -2 -0.666992 -6.33301 -2 -13
c58.667 68.667 112 103 160 103c30 0 45 -15.333 45 -46c0 -56 -67.667 -105 -203 -147c-18 -36.667 -27 -71.667 -27 -105c0 -25.333 7.5 -46 22.5 -62s35.167 -24 60.5 -24c52.667 0 110.667 26.667 174 80l1 -15c-58.667 -49.333 -119 -74 -181 -74
c-69.333 0 -106.666 32.667 -111.999 98c-44.667 -64 -93.334 -96 -146.001 -96c-14 0 -25.667 5 -35 15s-14 22 -14 36c0 36 23.667 67.667 71 95c41.333 24 81.333 37 120 39c20 51.333 30 91.666 30 120.999c0 20 -6 36.333 -18 49s-28 19 -48 19zM413.001 348.001
c0 17.333 -8.66797 26 -26.001 26c-31.333 0 -63 -21 -95 -63c-23.333 -30.667 -42.666 -66 -57.999 -106c119.333 43.333 179 91.333 179 144v-1zM29 3.00098c29.333 0 57 20.667 83 62c9.33301 15.333 25.333 49.333 48 102c-110.667 -36.667 -166 -78.667 -166 -126
c0 -25.333 11.667 -38 35 -38z" />
    <glyph glyph-name="y" unicode="y" horiz-adv-x="442" 
d="M145 384c-76.667 -188 -115.001 -298.334 -115.001 -331.001c0 -30 13.333 -45 40 -45s67 18 121 54l103 290c5.33301 2.66699 29.333 16 72 40c2 0 3 -1 3 -3c0 -7.33301 -24 -74.666 -72 -201.999c-46.667 -123.333 -76 -198 -88 -224c34.667 9.33301 76 24.333 124 45
c54 23.333 92.333 44 115 62l-1 -14c-70 -36.667 -150.667 -71.667 -242 -105c-50 -94 -98.333 -141 -145 -141c-9.33301 0 -17.666 3.66699 -24.999 11c-2.66699 7.33301 -4 12 -4 14c0 41.333 38 76 114 104l37 102c-43.333 -29.333 -82.333 -44 -117 -44
c-53.333 0 -80 27.333 -80 82c0 30.667 11.667 76.667 35 138l54 139l69 33c1.33301 -1.33301 2 -3 2 -5zM44.999 -170.001l4.00195 -8c4.66699 -2.66699 8.66699 -4 12 -4c19.333 0 36 14 50 42c9.33301 18 18.666 40 27.999 66c-36.667 -22 -56.334 -34 -59.001 -36
c-24 -18 -36 -35.667 -36 -53v-4c0.666992 -0.666992 1 -1.66699 1 -3z" />
    <glyph glyph-name="z" unicode="z" horiz-adv-x="363" 
d="M196 374c-85.333 0 -127.999 -41.666 -127.999 -124.999c0 -9.33301 0.333008 -16.333 1 -21c-16.667 25.333 -25 46.666 -25 63.999c0 28 11.333 51.333 34 70c20.667 17.333 45.334 26 74.001 26c13.333 0 33 -2.16699 59 -6.5s45.667 -6.5 59 -6.5
c5.33301 0 13.666 1.16699 24.999 3.5s19.666 3.5 24.999 3.5c4 0 6 -1.66699 6 -5c0 -14.667 -20.667 -42.334 -62 -83.001c-28 -28 -54.667 -52 -80 -72c-54 -43.333 -91 -75.666 -111 -96.999c-37.333 -39.333 -60.333 -78.333 -69 -117
c6.66699 16 20.167 31.333 40.5 46s39.166 22 56.499 22c16.667 0 42.667 -10.667 78 -32s59.333 -32 72 -32c28.667 0 66 18 112 54v-12c-54.667 -38 -102.334 -57 -143.001 -57c-20.667 0 -49 9.83301 -85 29.5s-57 29.5 -63 29.5c-9.33301 0 -31.666 -19 -66.999 -57
c-1.33301 -0.666992 -3 -1 -5 -1c-6 0 -10.667 9.33301 -14 28c-2.66699 14.667 -4 26.334 -4 35.001c0 43.333 29.667 89.666 89 138.999c18.667 16 67 49 145 99c46.667 30 76.334 54 89.001 72c-12.667 -2.66699 -29 -4 -49 -4c-6.66699 0 -16.667 1.16699 -30 3.5
s-23.333 3.5 -30 3.5z" />
    <glyph glyph-name="braceleft" unicode="{" horiz-adv-x="334" 
d="M122 473l-1.00195 43c-1.33301 57.333 2.33398 101 11.001 131c14.667 50 45.667 75 93 75h67v-65h-44c-30.667 0 -46 -27.333 -46 -82v-113c0 -32 -1 -56 -3 -72c-3.33301 -28 -12 -53 -26 -75c-15.333 -26.667 -35 -43.334 -59 -50.001v-2
c60 -18 89.333 -84.333 88 -199l-1 -87c-0.666992 -72 15 -108 47 -108h44v-65h-67c-32 0 -57.667 14 -77 42c-16.667 24 -25 53 -25 87v171c0 30.667 -6 58.334 -18 83.001c-14.667 31.333 -35.667 47 -63 47v60c36.667 0 60.667 22.667 72 68
c6.66699 25.333 9.33398 62.333 8.00098 111z" />
    <glyph glyph-name="bar" unicode="|" horiz-adv-x="260" 
d="M167 737v-756h-73v756h73z" />
    <glyph glyph-name="braceright" unicode="}" horiz-adv-x="334" 
d="M211 104v-171c0 -34 -8.33301 -63 -25 -87c-19.333 -28 -45 -42 -77 -42h-67v65h44c32 0 47.333 36 46 108c-0.666992 36 -1 64.667 -1 86c0 51.333 4.33301 90.666 13 117.999c14 44 39.333 71.333 76 82l-1 2c-25.333 7.33301 -46.333 26 -63 56
c-16 27.333 -24 55 -24 83v171c0 54.667 -15.333 82 -46 82h-44v65h67c69.333 0 104 -62 104 -186c0 0.666992 0 -2.66602 0 -9.99902c-0.666992 -7.33301 -1 -14.666 -1 -21.999v-31c0 -52.667 2.66699 -90 8 -112c10.667 -44.667 34.667 -67 72 -67v-60
c-27.333 0 -48.333 -15.667 -63 -47c-12 -24.667 -18 -52.334 -18 -83.001z" />
    <glyph glyph-name="asciitilde" unicode="~" horiz-adv-x="0" 
d="M20 779c0 2 3.00098 7.99902 9.00098 17.999c26 44 55 66 87 66c13.333 0 35.666 -8.33301 66.999 -25s51.333 -25 60 -25c14.667 0 26.667 6.33301 36 19c12 16.667 21 27.334 27 32.001h4c0.666992 -0.666992 1.66699 -1 3 -1c2 -2 3 -4.66699 3 -8
c0 -16 -12.5 -34.5 -37.5 -55.5s-45.5 -31.5 -61.5 -31.5c-15.333 0 -39 8.5 -71 25.5s-51.667 25.5 -59 25.5c-12 0 -24.667 -8.16699 -38 -24.5s-22 -24.5 -26 -24.5c-2 0 -3 3 -3 9z" />
    <glyph glyph-name="Euro" horiz-adv-x="583" 
d="M557 568c0 40.667 -10.833 73.001 -32.5 97.001s-52.5 36 -92.5 36c-67.333 0 -132 -32.667 -194 -98c-32 -33.333 -59.333 -70 -82 -110l361 -123l-32 -8l-282 94l-58 19c-17.333 -32.667 -30.666 -60.334 -39.999 -83.001l362 -123l-32 -8l-282 94l-56 18
c-30.667 -80 -46 -149.667 -46 -209c0 -61.333 21 -107.333 63 -138c36.667 -27.333 86.667 -41 150 -41c92.667 0 197.667 33.667 315 101v-14c-89.333 -71.333 -189.333 -107 -300 -107c-80.667 0 -148.334 22.333 -203.001 67c-58.667 47.333 -88 110.666 -88 189.999
c0 56.667 13.333 114.667 40 174l-156 53l27 13l138 -47c16 31.333 31.667 58 47 80l-163 55l28 14l147 -50c34 46.667 72.667 86.667 116 120c70.667 54.667 141 82 211 82c48.667 0 86.667 -15.667 114 -47s41 -71.666 41 -120.999z" />
    <glyph glyph-name="nonbreakingspace" unicode="&#xa0;" 
 />
    <glyph glyph-name="exclamdown" unicode="&#xa1;" horiz-adv-x="322" 
d="M206 453l-118 -448l-83 -15l191 464zM269 584c0 -16 -5.33203 -25.333 -15.999 -28c-6.66699 -4.66699 -13.334 -7 -20.001 -7c-8 0 -14.333 2.33301 -19 7c-10.667 2.66699 -16 12 -16 28c0 23.333 14 35 42 35c7.33301 0 14 -4 20 -12s9 -15.667 9 -23z" />
    <glyph glyph-name="cent" unicode="&#xa2;" horiz-adv-x="342" 
d="M211 374c-42.667 -14.667 -80.667 -55.666 -114 -122.999c-30 -60.667 -45 -116.334 -45 -167.001c0 -36.667 13 -61 39 -73zM188 237.001c33.333 23.333 53.333 38.332 60 44.999c22.667 20.667 34 41.334 34 62.001c0 22.667 -14.667 34 -44 34h-4zM270 487
l-33.002 -99.001c16.667 0 30.334 -5.66699 41.001 -17s16 -25.333 16 -42c0 -24 -13.333 -56 -40 -96c-28 -42.667 -53 -64 -75 -64c-4.66699 0 -8.66699 1.66699 -12 5l-56 -169c2.66699 -0.666992 8.66699 -1 18 -1c66 0 138.667 27.333 218 82v-16
c-49.333 -24 -88 -41 -116 -51c-47.333 -17.333 -88.666 -26 -123.999 -26l-27 -82h-22l27 82c-66.667 4.66699 -100 36.334 -100 95.001s24.333 120.5 73 185.5s101 102.5 157 112.5l33 101h22z" />
    <glyph glyph-name="sterling" unicode="&#xa3;" horiz-adv-x="644" 
d="M295 185c0 34.667 -8.66699 86.668 -26 156.001h-144v24h141c-4.66699 22.667 -7 49 -7 79c0 66.667 20.333 123.5 61 170.5s94 70.5 160 70.5c44.667 0 82.667 -11 114 -33c36 -24.667 54 -58.334 54 -101.001c0 -15.333 -2.33301 -27.333 -7 -36
c-2 -1.33301 -3.66699 -3 -5 -5c-0.666992 0 -1.5 0.833008 -2.5 2.5s-4.16699 13.5 -9.5 35.5l-2 9c-19.333 78 -70 117 -152 117c-50 0 -89.167 -15.667 -117.5 -47s-42.5 -72.333 -42.5 -123c0 -51.333 7 -97.666 21 -138.999h179v-24h-174
c6.66699 -44.667 10 -72.667 10 -84c0 -60.667 -24.333 -119.334 -73 -176.001c16.667 -3.33301 50 -11.666 100 -24.999c40.667 -10.667 74.334 -16 101.001 -16c5.33301 0 12.666 1.33301 21.999 4s16.666 4 21.999 4c2.66699 0 4.33398 -1.33301 5.00098 -4
c-16 -22.667 -25.667 -35.667 -29 -39c-9.33301 -7.33301 -25 -11 -47 -11c-47.333 0 -123 14 -227 42c-50.667 -28.667 -97 -43 -139 -43c-16.667 0 -34 3 -52 9c-23.333 7.33301 -35 17.666 -35 30.999c0 49.333 30.333 74 91 74c27.333 0 84.333 -7 171 -21
c26 18 39 50.667 39 98v1zM59 62.001c-33.333 0 -52.002 -7.66797 -56.002 -23.001c4 -20 30 -30 78 -30c24.667 0 45.667 3.33301 63 10c2.66699 0.666992 22.334 8.33398 59.001 23.001c-65.333 13.333 -113.666 20 -144.999 20h1z" />
    <glyph glyph-name="currency" unicode="&#xa4;" horiz-adv-x="0" 
d="M283 869v-3c-100.667 -73.333 -160.667 -110 -180 -110l-4 6l87 114c16 -1.33301 24.667 -2 26 -2c7.33301 0 18.333 0.5 33 1.5s25.667 1.5 33 1.5c3.33301 0 5 -2.66699 5 -8z" />
    <glyph glyph-name="yen" unicode="&#xa5;" horiz-adv-x="0" 
d="M274 875c4.66699 0 6.99902 -1.66699 6.99902 -5c-3.33301 -8 -22.666 -30 -57.999 -66c-1.33301 -1.33301 -11.666 -17.333 -30.999 -48h-66c-20.667 62 -38.334 98.667 -53.001 110v4l3 4l3 2h4c13.333 0 43.333 -27.333 90 -82c14.667 16.667 48 43.667 100 81h1z" />
    <glyph glyph-name="section" unicode="&#xa7;" horiz-adv-x="442" 
d="M359 728c24 0 44.168 -7.16406 60.501 -21.4971s24.833 -33.166 25.5 -56.499c0.666992 -18 -7.66602 -38.667 -24.999 -62h-3c-2.66699 0 -4 1 -4 3c0 5.33301 1.33301 12.666 4 21.999s4 16.666 4 21.999c0 22 -8.5 40.333 -25.5 55s-36.833 22 -59.5 22
c-30.667 0 -55.667 -10.667 -75 -32s-29 -47.333 -29 -78c0 -29.333 21.167 -82 63.5 -158s63.5 -127.667 63.5 -155c0 -88 -47.667 -152 -143 -192c10 -28 15 -56.667 15 -86c0 -46.667 -17.333 -86.334 -52 -119.001s-75.667 -49 -123 -49c-30 0 -54.667 5.66699 -74 17
c-24 14 -36 34.667 -36 62c0 8 2.16699 18.167 6.5 30.5s9.16602 19.5 14.499 21.5c3.33301 -2 7.16602 -15.333 11.499 -40s9.5 -40.334 15.5 -47.001c14.667 -16.667 40.667 -25 78 -25c35.333 0 62.833 10 82.5 30s29.5 47.667 29.5 83c0 28.667 -21.5 80 -64.5 154
s-64.5 124.667 -64.5 152c0 87.333 49.333 150.333 148 189c-14 36 -21 64.333 -21 85c0 48 17.5 88.833 52.5 122.5s76.5 50.5 124.5 50.5zM211.001 454.003c-30 -4.66699 -55.333 -16.666 -76 -35.999c-22.667 -20.667 -34 -45.334 -34 -74.001c0 -28 14.333 -67 43 -117
l65 -113c30 6 54.667 20 74 42s29 48 29 78s-13 67.667 -39 113z" />
    <glyph glyph-name="dieresis" unicode="&#xa8;" horiz-adv-x="0" 
d="M116 537c8.66699 0 16 -4.16699 22 -12.5s9 -16.833 9 -25.5s-3.16699 -17 -9.5 -25s-13.5 -12 -21.5 -12h-14c-8 0 -15.333 4 -22 12s-10 16.333 -10 25c0 8 3.33301 16.333 10 25s14 13 22 13h14zM-3 498c0 -10.667 -3.66699 -19.5 -11 -26.5s-16.333 -10.5 -27 -10.5
s-19.667 3.5 -27 10.5s-11 15.833 -11 26.5s3.66699 19.834 11 27.501s16.333 11.5 27 11.5s19.667 -3.83301 27 -11.5s11 -16.834 11 -27.501z" />
    <glyph glyph-name="copyright" unicode="&#xa9;" horiz-adv-x="748" 
d="M676 310c0 -91.333 -31.333 -168.168 -94 -230.501s-139.667 -93.5 -231 -93.5c-92 0 -169 31 -231 93s-93 139 -93 231s31 169 93 231s139 93 231 93c91.333 0 168.333 -31.167 231 -93.5s94 -139.166 94 -230.499zM638 309.998c0 80 -27.833 147.833 -83.5 203.5
s-123.5 83.5 -203.5 83.5c-80.667 0 -148.5 -27.667 -203.5 -83s-82.5 -123.333 -82.5 -204s27.5 -148.5 82.5 -203.5s122.833 -82.5 203.5 -82.5s148.667 27.5 204 82.5s83 122.833 83 203.5zM494 366.998h-18.002c-4 28 -16.667 51.167 -38 69.5s-46.333 27.5 -75 27.5
c-39.333 0 -71 -17.333 -95 -52c-21.333 -30.667 -32 -66.667 -32 -108c0 -43.333 10.333 -78 31 -104c22.667 -28.667 55.334 -43 98.001 -43c42 0 82.333 16.667 121 50l10 -17c-44 -46 -91 -69 -141 -69c-54 0 -97.5 16.833 -130.5 50.5s-49.5 77.5 -49.5 131.5
c0 52 16.333 96 49 132s75 54 127 54c11.333 0 27.833 -2.83301 49.5 -8.5s38.167 -8.5 49.5 -8.5c12.667 0 20.334 5 23.001 15h17z" />
    <glyph glyph-name="ordfeminine" unicode="&#xaa;" horiz-adv-x="0" 
d="M265 783c0 -10.667 -3.66699 -19.834 -11 -27.501s-16.333 -11.5 -27 -11.5s-19.667 3.83301 -27 11.5s-11 16.834 -11 27.501c0 9.33301 4 18 12 26s16.667 12 26 12s18 -4 26 -12s12 -16.667 12 -26zM116 781c0 -8.66699 -3.00098 -17 -9.00098 -25
s-13.333 -12 -22 -12h-8c-25.333 0 -38 12.333 -38 37c0 10.667 3.66699 19.834 11 27.501s16.333 11.5 27 11.5s19.834 -3.83301 27.501 -11.5s11.5 -16.834 11.5 -27.501z" />
    <glyph glyph-name="guillemotleft" unicode="&#xab;" horiz-adv-x="382" 
d="M201 330c-40.667 -36 -89.334 -72.332 -146.001 -108.999l106 -137h-73l-85 119c62.667 43.333 111.334 85.666 146.001 126.999h52zM320 331.001c-56.667 -48.667 -103.668 -85.332 -141.001 -109.999l107 -137h-73l-85 120
c50.667 33.333 97.334 75.666 140.001 126.999h52z" />
    <glyph glyph-name="logicalnot" unicode="&#xac;" horiz-adv-x="675" 
d="M621 271v-271h-51v219h-574v52h625z" />
    <glyph glyph-name="registered" unicode="&#xae;" horiz-adv-x="748" 
d="M26 306c0 90.667 31.3311 167.334 93.998 230.001s139.334 94 230.001 94s167.5 -31.333 230.5 -94s94.5 -139.334 94.5 -230.001c0 -91.333 -31.333 -168.333 -94 -231s-139.667 -94 -231 -94s-168.166 31.333 -230.499 94s-93.5 139.667 -93.5 231zM63.998 305
c0 -81.333 27.333 -149.333 82 -204s122.667 -82 204 -82c80.667 0 148.667 27.667 204 83s83 123.333 83 204c0 81.333 -27.667 149.333 -83 204s-123.666 82 -204.999 82c-80.667 0 -148.334 -27.667 -203.001 -83s-82 -123.333 -82 -204zM345.998 159v-17h-151v17
c30.667 0 46 8 46 24v271c0 15.333 -3.66699 24 -11 26c-1.33301 1.33301 -11.333 2 -30 2v17h161c84.667 0 127 -29.333 127 -88c0 -26 -9.16699 -47.833 -27.5 -65.5s-40.5 -27.167 -66.5 -28.5l112 -145c6.66699 -8.66699 18 -13 34 -13v-17h-89l-125 166h-25v-122
c0 -18 15 -27 45 -27zM425.998 406c0 31.333 -10.666 52 -31.999 62c-14.667 7.33301 -39.334 11 -74.001 11c-13.333 0 -20 -6 -20 -18l1 -131c38.667 1.33301 66 5.33301 82 12c28.667 12 43 33.333 43 64z" />
    <glyph glyph-name="degree" unicode="&#xb0;" 
d="M105 502c0 39.333 13.6689 72.666 41.002 99.999s60.666 41 99.999 41s72.666 -13.667 99.999 -41s41 -60.666 41 -99.999c0 -38.667 -13.833 -71.667 -41.5 -99s-60.834 -41 -99.501 -41c-39.333 0 -72.666 13.5 -99.999 40.5s-41 60.167 -41 99.5zM143.002 502
c0 -28.667 10.001 -52.834 30.001 -72.501s44.333 -29.5 73 -29.5s53 9.83301 73 29.5s30 43.834 30 72.501s-10.167 53 -30.5 73s-44.833 30 -73.5 30s-52.834 -10 -72.501 -30s-29.5 -44.333 -29.5 -73z" />
    <glyph glyph-name="plusminus" unicode="&#xb1;" horiz-adv-x="520" 
d="M218 606h52v-222h223v-52h-223v-223h-52v223h-223v52h223v222zM-5 52h498v-52h-498v52z" />
    <glyph glyph-name="acute" unicode="&#xb4;" horiz-adv-x="0" 
d="M156 605l1.99902 -3l-1 -4c-11.333 -15.333 -37.666 -42 -78.999 -80c-44.667 -41.333 -72.667 -62 -84 -62c-2.66699 4 -4 6.33301 -4 7c0 4 16.667 32.333 50 85c3.33301 6 13.333 25.667 30 59c10.667 -1.33301 22 -2 34 -2c16 0 32 0.666992 48 2z" />
    <glyph glyph-name="paragraph" unicode="&#xb6;" horiz-adv-x="667" 
d="M539 652h-33.999v-819h-58v819h-144v-819h-58v486c-49.333 8 -87.833 28.833 -115.5 62.5s-41.5 75.5 -41.5 125.5c0 64 21.333 113.667 64 149c39.333 33.333 91.666 50 156.999 50h230v-54z" />
    <glyph glyph-name="periodcentered" unicode="&#xb7;" horiz-adv-x="163" 
d="M184 286c0 -14.667 -4.66797 -26.999 -14.001 -36.999s-21.333 -15 -36 -15c-14 0 -26 5.16699 -36 15.5s-15 22.5 -15 36.5s4.83301 26 14.5 36s21.5 15 35.5 15c14.667 0 26.834 -4.83301 36.501 -14.5s14.5 -21.834 14.5 -36.501z" />
    <glyph glyph-name="periodcentered" unicode="&#x2219;" horiz-adv-x="163" 
d="M184 286c0 -14.667 -4.66797 -26.999 -14.001 -36.999s-21.333 -15 -36 -15c-14 0 -26 5.16699 -36 15.5s-15 22.5 -15 36.5s4.83301 26 14.5 36s21.5 15 35.5 15c14.667 0 26.834 -4.83301 36.501 -14.5s14.5 -21.834 14.5 -36.501z" />
    <glyph glyph-name="cedilla" unicode="&#xb8;" horiz-adv-x="0" 
d="M-146 -56c-3.33301 0 -5 1.66504 -5 4.99805c2 4.66699 14 13.334 36 26.001s36 19 42 19c10 0 18.667 -7 26 -21c6.66699 -11.333 10 -22.666 10 -33.999c0 -18 -13.333 -40.333 -40 -67c-20.667 -20.667 -42 -37.667 -64 -51c-16 -9.33301 -26.667 -14 -32 -14
c-3.33301 0 -5 3 -5 9c1.33301 2 8.33301 8 21 18c39.333 30.667 59 60 59 88c0 12 -5.66699 19 -17 21c-2 0.666992 -12.333 1 -31 1z" />
    <glyph glyph-name="ordmasculine" unicode="&#xba;" horiz-adv-x="0" 
d="M20 779c0 2 3.00098 7.99902 9.00098 17.999c26 44 55 66 87 66c13.333 0 35.666 -8.33301 66.999 -25s51.333 -25 60 -25c14.667 0 26.667 6.33301 36 19c12 16.667 21 27.334 27 32.001h4c0.666992 -0.666992 1.66699 -1 3 -1c2 -2 3 -4.66699 3 -8
c0 -16 -12.5 -34.5 -37.5 -55.5s-45.5 -31.5 -61.5 -31.5c-15.333 0 -39 8.5 -71 25.5s-51.667 25.5 -59 25.5c-12 0 -24.667 -8.16699 -38 -24.5s-22 -24.5 -26 -24.5c-2 0 -3 3 -3 9z" />
    <glyph glyph-name="guillemotright" unicode="&#xbb;" horiz-adv-x="382" 
d="M160 332l73 -0.000976562l84 -119c-66.667 -49.333 -114.667 -91.666 -144 -126.999h-51c48 40.667 96 77 144 109zM36 331.999h73l85 -119c-38 -25.333 -85 -67.666 -141 -126.999h-51c17.333 17.333 64.333 53.666 141 108.999z" />
    <glyph glyph-name="questiondown" unicode="&#xbf;" horiz-adv-x="382" 
d="M231 483c57.333 0 86.001 -29.002 86.001 -87.002c0 -30.667 -21.667 -65 -65 -103l-101 -82c-28.667 -24 -50 -40.667 -64 -50l-40 -39c-14.667 -14 -22 -30.333 -22 -49c0 -21.333 9.33301 -38 28 -50c16 -10 35.333 -15 58 -15c34 0 69.333 19 106 57
c19.333 20 32.333 43.667 39 71c2 6.66699 8 32.667 18 78l3 2h3c4.66699 0 7 -8 7 -24c0 -55.333 -15.333 -101.666 -46 -138.999c-32.667 -40.667 -76 -61 -130 -61c-28.667 0 -53.667 10.667 -75 32s-32 46.333 -32 75c0 44.667 25 90 75 136
c18.667 17.333 65 53 139 107c50 36.667 75 64.334 75 83.001c0 27.333 -18.333 41.333 -55 42c-12 0 -33.667 -6.33301 -65 -19l-2 3l7 22c15.333 6.66699 32.666 10 51.999 10h1zM343.001 606.998c0 -23.333 -12 -35 -36 -35c-9.33301 0 -17.333 3.5 -24 10.5
s-10 15.167 -10 24.5c0 24 11.333 36 34 36c24 0 36 -12 36 -36z" />
    <glyph glyph-name="Agrave" unicode="&#xc0;" horiz-adv-x="905" 
d="M599 756l-22.001 12.001c-101.333 55.333 -152 89.666 -152 102.999c0 2.66699 3.66699 4 11 4c2.66699 0 7 -0.333008 13 -1s10.333 -1 13 -1c19.333 0 38.333 1 57 3c25.333 -28 55.333 -65 90 -111v-4c-3.33301 -3.33301 -6.66602 -5 -9.99902 -5zM842.999 669.001
c0 -32.667 -35.668 -142.002 -107.001 -328.002l6 -1c9.33301 0 23.5 0.666992 42.5 2s33.167 2 42.5 2c8 0 13.333 -0.333008 16 -1c-4 -16.667 -12 -25.334 -24 -26.001l-90 -4l-50 -133c-24 -64 -36 -106.333 -36 -127c0 -13.333 4.83301 -24.166 14.5 -32.499
s21.167 -12.5 34.5 -12.5c47.333 0 112.333 27.333 195 82l-1 -10c-69.333 -53.333 -135.333 -80 -198 -80c-72 0 -108 23.333 -108 70c0 22.667 10.333 63.334 31 122.001l45 127l-88 4l-51 -89c-20.667 -35.333 -39.667 -63.666 -57 -84.999
c-89.333 -107.333 -192.666 -161 -309.999 -161c-53.333 0 -96.333 9.66699 -129 29c-40.667 24 -61 60.667 -61 110c0 46.667 24.667 90 74 130c78.667 64 184 96 316 96c75.333 0 142.333 -2.33301 201 -7l108 215c52.667 104.667 101.667 157 147 157
c24.667 0 37 -16.333 37 -49zM796.998 697.999c0 5.33301 -1.66699 8 -5 8c-4 0 -8.66699 -2.66699 -14 -8c-32 -24 -69.333 -78.667 -112 -164l-92 -189l89 -3zM328.998 345.999c-73.333 0 -139.333 -17.668 -198 -53.001c-68 -41.333 -102 -96.666 -102 -165.999
c0 -42 12.667 -74 38 -96s59.333 -33 102 -33c146 0 270.333 110 373 330c-122 12 -193.333 18 -214 18h1z" />
    <glyph glyph-name="Aacute" unicode="&#xc1;" horiz-adv-x="905" 
d="M683 871v-4c-96 -74 -155.667 -111 -179 -111c-3.33301 0 -5 2 -5 6c4.66699 7.33301 18 25 40 53l48 61c16 -1.33301 24.667 -2 26 -2c7.33301 0 18.333 0.5 33 1.5s25.667 1.5 33 1.5c2.66699 0 4 -2 4 -6zM843 669c0 -32.667 -35.668 -142.002 -107.001 -328.002l6 -1
c9.33301 0 23.5 0.666992 42.5 2s33.167 2 42.5 2c8 0 13.333 -0.333008 16 -1c-4 -16.667 -12 -25.334 -24 -26.001l-90 -4l-50 -133c-24 -64 -36 -106.333 -36 -127c0 -13.333 4.83301 -24.166 14.5 -32.499s21.167 -12.5 34.5 -12.5c47.333 0 112.333 27.333 195 82
l-1 -10c-69.333 -53.333 -135.333 -80 -198 -80c-72 0 -108 23.333 -108 70c0 22.667 10.333 63.334 31 122.001l45 127l-88 4l-51 -89c-20.667 -35.333 -39.667 -63.666 -57 -84.999c-89.333 -107.333 -192.666 -161 -309.999 -161c-53.333 0 -96.333 9.66699 -129 29
c-40.667 24 -61 60.667 -61 110c0 46.667 24.667 90 74 130c78.667 64 184 96 316 96c75.333 0 142.333 -2.33301 201 -7l108 215c52.667 104.667 101.667 157 147 157c24.667 0 37 -16.333 37 -49zM796.999 697.998c0 5.33301 -1.66699 8 -5 8
c-4 0 -8.66699 -2.66699 -14 -8c-32 -24 -69.333 -78.667 -112 -164l-92 -189l89 -3zM328.999 345.998c-73.333 0 -139.333 -17.668 -198 -53.001c-68 -41.333 -102 -96.666 -102 -165.999c0 -42 12.667 -74 38 -96s59.333 -33 102 -33c146 0 270.333 110 373 330
c-122 12 -193.333 18 -214 18h1z" />
    <glyph glyph-name="Acircumflex" unicode="&#xc2;" horiz-adv-x="905" 
d="M602 876c14.667 -49.333 31.333 -85.333 50 -108v-9l-2 -3l-5 -3c-8.66699 0 -25 12 -49 36c-16.667 16.667 -31 33.334 -43 50.001c-44 -46 -77.667 -74 -101 -84h-3l-2 6v3c4 5.33301 20.667 23.666 50 54.999c5.33301 6 18 24.667 38 56h66zM843.999 670
c0 -32.667 -35.668 -142 -107.001 -328l6 -1c9.33301 0 23.5 0.666992 42.5 2s33.167 2 42.5 2c8 0 13.333 -0.333008 16 -1c-4 -16.667 -12 -25.334 -24 -26.001l-90 -4l-50 -133c-24 -64 -36 -106.333 -36 -127c0 -30 16.333 -45 49 -45c47.333 0 112.333 27.333 195 82
l-1 -10c-69.333 -53.333 -135.333 -80 -198 -80c-72 0 -108 23.333 -108 70c0 23.333 10.333 64.333 31 123l45 126l-88 4l-51 -89c-20.667 -35.333 -39.667 -63.666 -57 -84.999c-89.333 -107.333 -192.666 -161 -309.999 -161c-53.333 0 -96.333 9.66699 -129 29
c-40.667 24 -61 60.667 -61 110c0 46.667 24.667 90 74 130c78.667 64 184 96 316 96c75.333 0 142.333 -2.33301 201 -7l108 215c52.667 104.667 101.667 157 147 157c24.667 0 37 -16.333 37 -49zM797.998 699c0 5.33301 -1.66797 8 -5.00098 8
c-4 0 -8.66699 -2.66699 -14 -8c-31.333 -23.333 -68.666 -78 -111.999 -164l-92 -189l89 -3zM329.997 347c-73.333 0 -139.333 -17.668 -198 -53.001c-68 -41.333 -102 -96.666 -102 -165.999c0 -42 12.667 -74 38 -96s59.333 -33 102 -33c146 0 270.333 110 373 330
c-122 12 -193.333 18 -214 18h1z" />
    <glyph glyph-name="Atilde" unicode="&#xc3;" horiz-adv-x="905" 
d="M420 780c2 2.66699 4.33789 7.33301 7.00488 14c28 46 57.667 69 89 69c13.333 0 35.666 -8.33301 66.999 -25s51.666 -25 60.999 -25c16 0 29.333 7.33301 40 22c13.333 18.667 21 28.334 23 29.001h4c3.33301 0 5 -3 5 -9c0 -16.667 -12.333 -35.334 -37 -56.001
s-45.334 -31 -62.001 -31c-14 0 -37.333 8.5 -70 25.5s-52.334 25.5 -59.001 25.5c-11.333 0 -24.333 -8.16699 -39 -24.5s-23.334 -24.5 -26.001 -24.5c-2 0 -3 3.33301 -3 10zM843.005 668.999c0 -32.667 -35.668 -142.002 -107.001 -328.002l6 -1
c9.33301 0 23.5 0.666992 42.5 2s33.167 2 42.5 2c8 0 13.333 -0.333008 16 -1c-4 -16.667 -12 -25.334 -24 -26.001l-90 -4l-50 -133c-24 -64 -36 -106.333 -36 -127c0 -13.333 4.83301 -24.166 14.5 -32.499s21.167 -12.5 34.5 -12.5c47.333 0 112.333 27.333 195 82
l-1 -10c-69.333 -53.333 -135.333 -80 -198 -80c-72 0 -108 23.333 -108 70c0 22.667 10.333 63.334 31 122.001l45 127l-88 4l-51 -89c-20.667 -35.333 -39.667 -63.666 -57 -84.999c-89.333 -107.333 -192.666 -161 -309.999 -161c-53.333 0 -96.333 9.66699 -129 29
c-40.667 24 -61 60.667 -61 110c0 46.667 24.667 90 74 130c78.667 64 184 96 316 96c75.333 0 142.333 -2.33301 201 -7l108 215c52.667 104.667 101.667 157 147 157c24.667 0 37 -16.333 37 -49zM797.004 697.997c0 5.33301 -1.66699 8 -5 8
c-4 0 -8.66699 -2.66699 -14 -8c-32 -24 -69.333 -78.667 -112 -164l-92 -189l89 -3zM329.004 345.997c-73.333 0 -139.333 -17.668 -198 -53.001c-68 -41.333 -102 -96.666 -102 -165.999c0 -42 12.667 -74 38 -96s59.333 -33 102 -33c146 0 270.333 110 373 330
c-122 12 -193.333 18 -214 18h1z" />
    <glyph glyph-name="Adieresis" unicode="&#xc4;" horiz-adv-x="905" 
d="M929 796v-15c0 -8 -4.33301 -15 -13 -21s-17 -9 -25 -9c-9.33301 0 -18 4 -26 12s-12 16.667 -12 26s4 18 12 26s16.667 12 26 12c8 0 16.333 -3.33301 25 -10s13 -13.667 13 -21zM780 787c0 -9.33301 -4 -18 -12 -26s-16.667 -12 -26 -12
c-10.667 0 -19.667 3.66699 -27 11s-11 16.333 -11 27s3.66699 19.667 11 27s16.333 11 27 11c9.33301 0 18 -4 26 -12s12 -16.667 12 -26zM843 669c0 -32.667 -35.665 -142.001 -106.998 -328.001l6 -1c9.33301 0 23.5 0.666992 42.5 2s33.167 2 42.5 2
c8 0 13.333 -0.333008 16 -1c-4 -16.667 -12 -25.334 -24 -26.001l-90 -4l-50 -133c-24 -64 -36 -106.333 -36 -127c0 -13.333 4.66699 -24.166 14 -32.499s20.666 -12.5 33.999 -12.5c48 0 113.333 27.333 196 82l-1 -10c-68.667 -53.333 -132.334 -80 -191.001 -80
c-76.667 0 -115 23.333 -115 70c0 22.667 10.333 63.334 31 122.001l45 127l-88 4l-50 -89c-20 -34.667 -39 -63 -57 -85c-88 -107.333 -191.667 -161 -311 -161c-53.333 0 -96.333 9.66699 -129 29c-40.667 24 -61 60.667 -61 110c0 46.667 24.667 90 74 130
c78.667 64 184 96 316 96c75.333 0 142.333 -2.33301 201 -7l108 215c52.667 104.667 101.667 157 147 157c24.667 0 37 -16.333 37 -49zM797.002 697.999c0 5.33301 -1.66699 8 -5 8c-4 0 -8.66699 -2.66699 -14 -8c-32 -24 -69.333 -78.667 -112 -164l-92 -189l89 -3z
M329.002 345.999c-73.333 0 -139.333 -17.668 -198 -53.001c-68 -41.333 -102 -96.666 -102 -165.999c0 -42 12.667 -74 38 -96s59.333 -33 102 -33c146 0 270.333 110 373 330c-122 12 -193.333 18 -214 18h1z" />
    <glyph glyph-name="Aring" unicode="&#xc5;" horiz-adv-x="905" 
d="M903 821c0 -22 -7.50098 -40.333 -22.501 -55s-33.5 -22 -55.5 -22c-21.333 0 -39.333 7.5 -54 22.5s-22 33.167 -22 54.5c0 20 7.66699 37.667 23 53s33 23 53 23c20.667 0 38.834 -7.5 54.501 -22.5s23.5 -32.833 23.5 -53.5zM875.999 821
c0 14.667 -4.83105 26.668 -14.498 36.001s-21.834 14 -36.501 14c-13.333 0 -25 -5 -35 -15s-15 -21.667 -15 -35c0 -34 16.667 -51 50 -51c15.333 0 27.666 4.66699 36.999 14s14 21.666 14 36.999zM843.001 669.001c0 -32.667 -35.665 -142.001 -106.998 -328.001l6 -1
c9.33301 0 23.5 0.666992 42.5 2s33.167 2 42.5 2c8 0 13.333 -0.333008 16 -1c-4 -16.667 -12 -25.334 -24 -26.001l-90 -4l-50 -133c-24 -64 -36 -106.333 -36 -127c0 -13.333 4.66699 -24.166 14 -32.499s20.666 -12.5 33.999 -12.5c48 0 113.333 27.333 196 82l-1 -10
c-68.667 -53.333 -132.334 -80 -191.001 -80c-76.667 -0 -115 23.333 -115 70c0 22.667 10.333 63.334 31 122.001l45 127l-88 4l-50 -89c-20 -34.667 -39 -63 -57 -85c-88 -107.333 -191.667 -161 -311 -161c-53.333 0 -96.333 9.66699 -129 29
c-40.667 24 -61 60.667 -61 110c0 46.667 24.667 90 74 130c78.667 64 184 96 316 96c75.333 0 142.333 -2.33301 201 -7l108 215c52.667 104.667 101.667 157 147 157c24.667 0 37 -16.333 37 -49zM797.003 698c0 5.33301 -1.66699 8 -5 8c-4 0 -8.66699 -2.66699 -14 -8
c-32 -24 -69.333 -78.667 -112 -164l-92 -189l89 -3zM329.003 346c-73.333 0 -139.333 -17.668 -198 -53.001c-68 -41.333 -102 -96.666 -102 -165.999c0 -42 12.667 -74 38 -96s59.333 -33 102 -33c146 0 270.333 110 373 330c-122 12 -193.333 18 -214 18h1z" />
    <glyph glyph-name="AE" unicode="&#xc6;" horiz-adv-x="1087" 
d="M715 671c0 -34.667 -12.999 -90.002 -38.999 -166.002l-60 -170l106 34c16 10 24 44.667 24 104c0 68.667 11.667 125.667 35 171c30 58.667 76 88.334 138 89.001c25.333 0 47.333 -8.83301 66 -26.5s28 -39.167 28 -64.5c0 -38.667 -15.667 -76 -47 -112
c-20.667 -23.333 -52.667 -50.333 -96 -81c-4 -2.66699 -7.33301 -4 -10 -4l-2 4c2.66699 4.66699 14 16.667 34 36c64.667 64 97 120.667 97 170c0 39.333 -16.667 59 -50 59c-28.667 0 -58.667 -29 -90 -87c-16 -30 -29 -62.667 -39 -98l-28 -102
c-6 -22 -12.833 -37.833 -20.5 -47.5s-21.5 -19.5 -41.5 -29.5c-107.333 -53.333 -161 -127.333 -161 -222c0 -41.333 14.333 -73 43 -95c26 -20 60 -30 102 -30c71.333 0 141.666 27 210.999 81c75.333 58.667 111 122.334 107 191.001c1.33301 1.33301 3 2 5 2l3 -3
c0 2.66699 2.33301 -7.33301 7 -30c2.66699 -12.667 4 -22.667 4 -30c0 -69.333 -40 -125.666 -120 -168.999c-67.333 -36.667 -138.333 -55 -213 -55c-58 0 -105.667 12 -143 36c-44 28 -66 69.333 -66 124c0 42 12.333 98 37 168l-87 3
c-50.667 -115.333 -89 -191.333 -115 -228c-58 -80 -128 -120 -210 -120c-45.333 0 -83 11.333 -113 34c-33.333 24.667 -50 59 -50 103c0 80 49.667 142.333 149 187c84.667 38 169.667 55.667 255 53l66 -2c33.333 77.333 68.333 148.666 105 213.999
c60.667 107.333 107.667 161 141 161c25.333 0 38 -17.333 38 -52zM667.001 703.998c0 2.66699 -1.66797 3.99902 -5.00098 3.99902c-29.333 -10.667 -68.666 -65 -117.999 -163c-32.667 -65.333 -61.667 -131.666 -87 -198.999l87 -4c82 227.333 123 348 123 362z
M33 112.997c0 -35.333 10.499 -64.333 31.499 -87s49.167 -34 84.5 -34c69.333 0 129 40 179 120c10.667 17.333 23 41 37 71c1.33301 4 20.333 50.333 57 139c-50.667 6 -85 9 -103 9c-71.333 0 -134.666 -18 -189.999 -54c-64 -41.333 -96 -96 -96 -164z" />
    <glyph glyph-name="Ccedilla" unicode="&#xc7;" horiz-adv-x="583" 
d="M279 -35c-22.667 0 -45.6641 2.00098 -68.9971 6.00098c6.66699 -11.333 10 -23 10 -35c0 -18 -18.167 -44 -54.5 -78s-63.5 -51 -81.5 -51c-4 0 -6 2.66699 -6 8l2 5c52.667 38 79 72 79 102c0 12 -6 19 -18 21c-1.33301 0.666992 -11.666 1 -30.999 1h-2
c-0.666992 0.666992 -1.33398 1 -2.00098 1v8c21.333 13.333 39.333 23.666 54 30.999c-53.333 18.667 -95.333 49 -126 91s-46 91 -46 147c0 73.333 22.667 149.666 68 228.999c42 74 94 135 156 183c70.667 54.667 141 82 211 82c48.667 0 86.667 -15.667 114 -47
s41 -71.666 41 -120.999c0 -88.667 -33.667 -173 -101 -253c-70.667 -83.333 -149.334 -125 -236.001 -125c-33.333 0 -60.666 9.33301 -81.999 28s-32 44.334 -32 77.001c0 58.667 30.333 116 91 172c55.333 51.333 113.666 82.666 174.999 93.999l7 -1
c0 -1.33301 0.666992 -4 2 -8c-44 -26 -88.333 -53.667 -133 -83c-86 -56 -129.333 -116 -130 -180c-0.666992 -54 27.666 -81 84.999 -81c74 0 148.667 45 224 135c72.667 87.333 109 169 109 245c0 40.667 -10.833 73 -32.5 97s-52.5 36 -92.5 36
c-72 0 -140.333 -36.333 -205 -109c-48 -53.333 -89 -120 -123 -200c-35.333 -84 -53 -160 -53 -228c0 -61.333 21 -107.333 63 -138c37.333 -27.333 87.666 -41 150.999 -41c92 0 196.667 33.667 314 101v-14c-89.333 -71.333 -189.333 -107 -300 -107z" />
    <glyph glyph-name="Egrave" unicode="&#xc8;" horiz-adv-x="583" 
d="M458 756c-12.667 8 -20.334 12 -23.001 12c-100.667 58 -151 92.333 -151 103c0 2.66699 3.66699 4 11 4c2.66699 0 7 -0.333008 13 -1s10.333 -1 13 -1c4.66699 0 23.667 0.666992 57 2c24.667 -32 44.334 -55.667 59.001 -71l29 -33c1.33301 -4 2 -6.66699 2 -8
c0 -4.66699 -3.33301 -7 -10 -7zM531 635c0 -34 -16.333 -72.332 -49 -114.999s-65.334 -68 -98.001 -76h-4c-0.666992 0 -1 0.666992 -1 2c0.666992 2 1 3.33301 1 4c30.667 20.667 59.667 50.667 87 90c30.667 43.333 46 81.333 46 114c0 14.667 -4.66699 26.667 -14 36
s-21.333 14 -36 14c-49.333 0 -92 -52.667 -128 -158l-44 -130c-6.66699 -20 -13.5 -33.833 -20.5 -41.5s-20.167 -16.167 -39.5 -25.5c-111.333 -54 -167 -126 -167 -216c0 -42 14 -74.667 42 -98s63.333 -35 106 -35c63.333 0 131.666 24.333 204.999 73
c81.333 54 122 110.333 122 169v6c-0.666992 2.66699 -1 4.66699 -1 6l3 4l5 -2c6 -18 9 -31 9 -39c0 -70 -39 -127.667 -117 -173c-65.333 -38 -136.333 -57 -213 -57c-60.667 0 -111.334 12.333 -152.001 37c-49.333 29.333 -74 72.333 -74 129
c0 86 49.667 148.667 149 188c16.667 3.33301 44.667 12 84 26c16.667 8 26.334 26.333 29.001 55c0.666992 12.667 2.33398 35.667 5.00098 69c14.667 154 71.334 231 170.001 231c27.333 0 50 -7.83301 68 -23.5s27 -36.834 27 -63.501z" />
    <glyph glyph-name="Eacute" unicode="&#xc9;" horiz-adv-x="583" 
d="M543 869c-16 -16 -45.334 -37.999 -88.001 -65.999c-47.333 -31.333 -78 -47 -92 -47c-2.66699 0 -4 3.33301 -4 10c2.66699 5.33301 31.334 41.666 86.001 108.999c4 -0.666992 13 -1 27 -1c7.33301 0 18.333 0.5 33 1.5s25.667 1.5 33 1.5c3.33301 0 5 -2.66699 5 -8z
M530.999 635.001c0 -34 -16.333 -72.332 -49 -114.999s-65.334 -68 -98.001 -76h-4c-0.666992 0 -1 0.666992 -1 2c0.666992 2 1 3.33301 1 4c30.667 20.667 59.667 50.667 87 90c30.667 43.333 46 81.333 46 114c0 14.667 -4.66699 26.667 -14 36s-21.333 14 -36 14
c-49.333 0 -92 -52.667 -128 -158l-44 -130c-6.66699 -20 -13.5 -33.833 -20.5 -41.5s-20.167 -16.167 -39.5 -25.5c-111.333 -54 -167 -126 -167 -216c0 -42 14 -74.667 42 -98s63.333 -35 106 -35c63.333 0 131.666 24.333 204.999 73c81.333 54 122 110.333 122 169v6
c-0.666992 2.66699 -1 4.66699 -1 6l3 4l5 -2c6 -18 9 -31 9 -39c0 -70 -39 -127.667 -117 -173c-65.333 -38 -136.333 -57 -213 -57c-60.667 0 -111.334 12.333 -152.001 37c-49.333 29.333 -74 72.333 -74 129c0 86 49.667 148.667 149 188
c16.667 3.33301 44.667 12 84 26c16.667 8 26.334 26.333 29.001 55c0.666992 12.667 2.33398 35.667 5.00098 69c14.667 154 71.334 231 170.001 231c27.333 0 50 -7.83301 68 -23.5s27 -36.834 27 -63.501z" />
    <glyph glyph-name="Ecircumflex" unicode="&#xca;" horiz-adv-x="583" 
d="M461 874c13.333 -40 25.667 -69 37 -87c5.33301 -8 10 -16.667 14 -26l-3 -5l-6 -3c-24 8 -54.333 36.333 -91 85c-48 -48 -81.333 -75.667 -100 -83h-3c-3.33301 0 -5 2 -5 6c0.666992 0.666992 1 1.66699 1 3c23.333 26.667 53 63.667 89 111h66zM532.001 634
c0 -33.333 -16.499 -71.667 -49.499 -115s-65.5 -68.666 -97.5 -75.999h-4c-0.666992 0 -1 0.666992 -1 2c0.666992 2 1 3.33301 1 4c30.667 20.667 59.667 50.667 87 90c30.667 43.333 46 81.333 46 114c0 14.667 -4.66699 26.667 -14 36s-21.333 14 -36 14
c-48.667 0 -91.334 -52.667 -128.001 -158l-44 -130c-6.66699 -20 -13.334 -33.833 -20.001 -41.5s-20 -16.167 -40 -25.5c-111.333 -54 -167 -126 -167 -216c0 -42 14.333 -75 43 -99c26.667 -22.667 61.667 -34 105 -34c63.333 0 131.666 24.333 204.999 73
c81.333 54 122 110.333 122 169v6c-0.666992 2.66699 -1 4.66699 -1 6l3 4l5 -2c6 -18 9 -31 9 -39c0 -70 -39 -127.667 -117 -173c-65.333 -38 -136.333 -57 -213 -57c-60.667 0 -111.334 12.333 -152.001 37c-49.333 29.333 -74 72.333 -74 129
c0 86 49.667 148.667 149 188c16.667 3.33301 44.667 12 84 26c16.667 8 26.334 26.333 29.001 55c0.666992 12.667 2.33398 35.667 5.00098 69c14.667 154 71.334 231 170.001 231c27.333 0 50 -7.83301 68 -23.5s27 -36.834 27 -63.501z" />
    <glyph glyph-name="Edieresis" unicode="&#xcb;" horiz-adv-x="583" 
d="M524 791v-15.001c0 -8.66699 -4 -16.167 -12 -22.5s-16.667 -9.5 -26 -9.5c-10.667 0 -19.667 3.83301 -27 11.5s-11 16.834 -11 27.501s3.66699 19.667 11 27s16.333 11 27 11c8.66699 0 17.167 -3 25.5 -9s12.5 -13 12.5 -21zM376 780.999
c0 -10 -4.00098 -18.668 -12.001 -26.001s-17 -11 -27 -11s-19 3.66699 -27 11s-12 16 -12 26c0 10.667 3.83301 19.834 11.5 27.501s16.834 11.5 27.501 11.5c10 0 19 -4 27 -12s12 -17 12 -27zM530.999 634.998c0 -34 -16.333 -72.332 -49 -114.999
s-65.334 -68 -98.001 -76h-4c-0.666992 0 -1 0.666992 -1 2c0.666992 2 1 3.33301 1 4c30.667 20.667 59.667 50.667 87 90c30.667 43.333 46 81.333 46 114c0 14.667 -4.66699 26.667 -14 36s-21.333 14 -36 14c-49.333 0 -92 -52.667 -128 -158l-44 -130
c-6.66699 -20 -13.5 -33.833 -20.5 -41.5s-20.167 -16.167 -39.5 -25.5c-111.333 -54 -167 -126 -167 -216c0 -42 14 -74.667 42 -98s63.333 -35 106 -35c63.333 0 131.666 24.333 204.999 73c81.333 54 122 110.333 122 169v6c-0.666992 2.66699 -1 4.66699 -1 6l3 4l5 -2
c6 -18 9 -31 9 -39c0 -70 -39 -127.667 -117 -173c-65.333 -38 -136.333 -57 -213 -57c-60.667 0 -111.334 12.333 -152.001 37c-49.333 29.333 -74 72.333 -74 129c0 86 49.667 148.667 149 188c16.667 3.33301 44.667 12 84 26c16.667 8 26.334 26.333 29.001 55
c0.666992 12.667 2.33398 35.667 5.00098 69c14.667 154 71.334 231 170.001 231c27.333 0 50 -7.83301 68 -23.5s27 -36.834 27 -63.501z" />
    <glyph glyph-name="Igrave" unicode="&#xcc;" horiz-adv-x="624" 
d="M476 756h-2.00098c-116.667 62.667 -175 101 -175 115c0 2.66699 3.66699 4 11 4c2.66699 0 7 -0.333008 13 -1s10.333 -1 13 -1c19.333 0 38.333 1 57 3c25.333 -28 55.333 -65 90 -111v-4c-3.33301 -3.33301 -5.66602 -5 -6.99902 -5zM596.999 648
c-36.667 0 -91.499 3.66504 -164.499 10.998s-127.833 11 -164.5 11c-42 0 -74.333 -3.66699 -97 -11c-29.333 -9.33301 -54.666 -28.333 -75.999 -57l-65 -87c-0.666992 -0.666992 -2 -1 -4 -1c0 1.33301 -1.33301 2.33301 -4 3l-1 3c6 22 24.667 50.667 56 86
c62.667 70.667 146 106 250 106c21.333 0 80 -10 176 -30c34.667 -7.33301 76 -16.666 124 -27.999l4 -5v-2c0 -2.66699 -4.66699 -11.334 -14 -26.001c-14.667 -28 -28 -67 -40 -117l-30 -123c-3.33301 -13.333 -7 -26.333 -11 -39c-19.333 -61.333 -42.333 -114 -69 -158
l137 -58c0.666992 -2 1 -7.33301 1 -16l-1 -2l-145 63c-47.333 -61.333 -93 -105.666 -137 -132.999c-53.333 -33.333 -114.333 -50 -183 -50c-44 0 -80.333 10.333 -109 31c-32.667 23.333 -49 56 -49 98c0 44.667 20.667 78.667 62 102c34 19.333 75.333 29 124 29
c57.333 0 136.666 -14.667 237.999 -44c19.333 39.333 39.666 90.333 60.999 153c25.333 72.667 45 124.334 59 155.001c24 52 55.333 97.333 94 136h-22zM204 224.998c-52 0 -96.333 -8.66699 -133 -26c-48.667 -22.667 -73 -57 -73 -103c0 -34 15.333 -60 46 -78
c25.333 -15.333 56 -23 92 -23c111.333 0 200 65.333 266 196l-99 22c-36 8 -69.333 12 -100 12h1z" />
    <glyph glyph-name="Iacute" unicode="&#xcd;" horiz-adv-x="624" 
d="M558 869l-1 -2c-96 -74 -155.667 -111 -179 -111c-3.33301 0 -5 2 -5 6c4.66699 7.33301 18 25 40 53l48 61c16 -1.33301 24.667 -2 26 -2c7.33301 0 18.333 0.5 33 1.5s25.667 1.5 33 1.5c3.33301 0 5 -2.66699 5 -8zM597 648
c-36.667 0 -91.499 3.66504 -164.499 10.998s-127.833 11 -164.5 11c-42 0 -74.333 -3.66699 -97 -11c-29.333 -9.33301 -54.666 -28.333 -75.999 -57l-65 -87c-0.666992 -0.666992 -2 -1 -4 -1c0 1.33301 -1.33301 2.33301 -4 3l-1 3c6 22 24.667 50.667 56 86
c62.667 70.667 146 106 250 106c21.333 0 80 -10 176 -30c34.667 -7.33301 76 -16.666 124 -27.999l4 -5v-2c0 -2.66699 -4.66699 -11.334 -14 -26.001c-14.667 -28 -28 -67 -40 -117l-30 -123c-3.33301 -13.333 -7 -26.333 -11 -39c-19.333 -61.333 -42.333 -114 -69 -158
l137 -58c0.666992 -2 1 -7.33301 1 -16l-1 -2l-145 63c-47.333 -61.333 -93 -105.666 -137 -132.999c-53.333 -33.333 -114.333 -50 -183 -50c-44 0 -80.333 10.333 -109 31c-32.667 23.333 -49 56 -49 98c0 44.667 20.667 78.667 62 102c34 19.333 75.333 29 124 29
c57.333 0 136.666 -14.667 237.999 -44c19.333 39.333 39.666 90.333 60.999 153c25.333 72.667 45 124.334 59 155.001c24 52 55.333 97.333 94 136h-22zM204.001 224.998c-52 0 -96.333 -8.66699 -133 -26c-48.667 -22.667 -73 -57 -73 -103c0 -34 15.333 -60 46 -78
c25.333 -15.333 56 -23 92 -23c111.333 0 200 65.333 266 196l-99 22c-36 8 -69.333 12 -100 12h1z" />
    <glyph glyph-name="Icircumflex" unicode="&#xce;" horiz-adv-x="624" 
d="M475 876c14 -48 30.998 -83.999 50.998 -107.999l1 -7c-1.33301 -3.33301 -3.66602 -5.66602 -6.99902 -6.99902c-18 1.33301 -49 29.666 -93 84.999c-52 -54.667 -86.667 -82.667 -104 -84l-3 6l2 3c0 2 16.333 20.667 49 56
c6.66699 7.33301 19.334 25.666 38.001 54.999h66v1zM596.998 649.001c-36.667 0 -91.499 3.66504 -164.499 10.998s-127.833 11 -164.5 11c-42 0 -74.333 -3.66699 -97 -11c-29.333 -9.33301 -54.666 -28.333 -75.999 -57l-65 -87c-0.666992 -0.666992 -2 -1 -4 -1
c0 1.33301 -1.33301 2.33301 -4 3l-1 3c6.66699 22.667 25.334 51.334 56.001 86.001c62.667 70.667 146 106 250 106c21.333 0 80 -10 176 -30c34.667 -7.33301 76 -16.666 124 -27.999l4 -5v-2c0 -2.66699 -4.66699 -11.334 -14 -26.001
c-12 -23.333 -24.333 -60.666 -37 -111.999c-20.667 -84.667 -35.334 -140.334 -44.001 -167.001c-19.333 -60.667 -42.333 -113.334 -69 -158.001l137 -58c0.666992 -2 1 -7.33301 1 -16l-1 -2l-145 63c-47.333 -61.333 -93 -105.666 -137 -132.999
c-53.333 -33.333 -114.333 -50 -183 -50c-44 0 -80.333 10.333 -109 31c-32.667 23.333 -49 56 -49 98c0 44.667 20.667 78.667 62 102c34 19.333 75.333 29 124 29c57.333 0 136.666 -14.667 237.999 -44c19.333 39.333 39.666 90.333 60.999 153
c25.333 72.667 45 124.334 59 155.001c24 52 55.333 97.333 94 136h-22zM203.999 225.999c-52 0 -96.333 -8.66699 -133 -26c-48.667 -22.667 -73 -57 -73 -103c0 -34 15.333 -60 46 -78c25.333 -15.333 56 -23 92 -23c111.333 0 200 65.333 266 196l-99 22
c-36 8 -69.333 12 -100 12h1z" />
    <glyph glyph-name="Idieresis" unicode="&#xcf;" horiz-adv-x="624" 
d="M540 783c0 -10.667 -3.83203 -19.833 -11.499 -27.5s-16.834 -11.5 -27.501 -11.5c-24.667 0 -37 13 -37 39c0 10.667 3.5 19.667 10.5 27s15.833 11 26.5 11c26 0 39 -12.667 39 -38zM390.001 781.001c0 -24.667 -12.667 -37 -38 -37c-10.667 0 -19.667 3.5 -27 10.5
s-11 15.833 -11 26.5s3.66699 19.834 11 27.501s16.333 11.5 27 11.5s19.667 -3.83301 27 -11.5s11 -16.834 11 -27.501zM597.001 648.001c-36.667 0 -91.499 3.66504 -164.499 10.998s-127.833 11 -164.5 11c-42 0 -74.333 -3.66699 -97 -11
c-29.333 -9.33301 -54.666 -28.333 -75.999 -57l-65 -87c-0.666992 -0.666992 -2 -1 -4 -1c0 1.33301 -1.33301 2.33301 -4 3l-1 3c6 22 24.667 50.667 56 86c62.667 70.667 146 106 250 106c21.333 0 80 -10 176 -30c34.667 -7.33301 76 -16.666 124 -27.999l4 -5v-2
c0 -2.66699 -4.66699 -11.334 -14 -26.001c-14.667 -28 -28 -67 -40 -117l-30 -123c-3.33301 -13.333 -7 -26.333 -11 -39c-19.333 -61.333 -42.333 -114 -69 -158l137 -58c0.666992 -2 1 -7.33301 1 -16l-1 -2l-145 63c-47.333 -61.333 -93 -105.666 -137 -132.999
c-53.333 -33.333 -114.333 -50 -183 -50c-44 0 -80.333 10.333 -109 31c-32.667 23.333 -49 56 -49 98c0 44.667 20.667 78.667 62 102c34 19.333 75.333 29 124 29c57.333 0 136.666 -14.667 237.999 -44c19.333 39.333 39.666 90.333 60.999 153
c25.333 72.667 45 124.334 59 155.001c24 52 55.333 97.333 94 136h-22zM204.002 224.999c-52 0 -96.333 -8.66699 -133 -26c-48.667 -22.667 -73 -57 -73 -103c0 -34 15.333 -60 46 -78c25.333 -15.333 56 -23 92 -23c111.333 0 200 65.333 266 196l-99 22
c-36 8 -69.333 12 -100 12h1z" />
    <glyph glyph-name="Ntilde" unicode="&#xd1;" horiz-adv-x="925" 
d="M431 775c2 17.333 14.1689 36.334 36.502 57.001s42.5 31 60.5 31c14 0 36.333 -8.33301 67 -25s50.334 -25 59.001 -25c14.667 0 27 6.33301 37 19c15.333 19.333 24.333 30 27 32h4c0.666992 -0.666992 1.66699 -1 3 -1c2 -2 3 -4.66699 3 -8
c0 -16 -12.5 -34.5 -37.5 -55.5s-45.5 -31.5 -61.5 -31.5c-14.667 0 -38.334 8.5 -71.001 25.5s-52.334 25.5 -59.001 25.5c-13.333 0 -24 -5.33301 -32 -16l-7 -10c-5.33301 -6.66699 -10.333 -13.334 -15 -20.001c-4.66699 -1.33301 -8.33398 -2.33301 -11.001 -3z
M633.002 117.001c0 -69.333 30.667 -104.334 92 -105.001c43.333 -0.666992 105.666 28 186.999 86v-14c-69.333 -56.667 -129.333 -85 -180 -85s-89 18.333 -115 55c-22.667 32 -34 74.333 -34 127c0 91.333 31.667 186 95 284c36.667 56.667 101.667 135.334 195 236.001
c-57.333 -12 -121 -36.667 -191 -74c-67.333 -35.333 -124 -73.333 -170 -114c0 -87.333 -18.667 -179 -56 -275c-42 -108.667 -94.333 -184.667 -157 -228c-13.333 -9.33301 -25.666 -14 -36.999 -14c-20.667 0 -31 19.333 -31 58c0 68 26.333 145.667 79 233
c42 69.333 93.333 135 154 197c6 49.333 9 82.333 9 99c0 74 -33 111 -99 111c-60.667 0 -123.667 -28 -189 -84c-52.667 -45.333 -98 -100 -136 -164c-44 -74.667 -66 -143.667 -66 -207c0 -25.333 8 -56 24 -92l-4 -3c-25.333 45.333 -38 92.333 -38 141
c0 102.667 43 198.834 129 288.501s180 134.5 282 134.5c46 0 81.333 -19.333 106 -58c22 -34 32 -74.667 30 -122c144.667 115.333 271.667 177 381 185c-56.667 -70.667 -112.667 -165.334 -168 -284.001c-61.333 -131.333 -92 -235.333 -92 -312zM245.002 31
c0 -15.333 5.00098 -23 15.001 -23c17.333 0 48.666 51.333 93.999 154c49.333 112 83.333 211.667 102 299c-85.333 -92 -146 -196.333 -182 -313c-18.667 -60 -28 -99 -28 -117h-1z" />
    <glyph glyph-name="Ograve" unicode="&#xd2;" horiz-adv-x="624" 
d="M475 756h-2.00098c-116.667 62.667 -175 101 -175 115c0 2.66699 3.66699 4 11 4c2.66699 0 7 -0.333008 13 -1s10.333 -1 13 -1c19.333 0 38.333 1 57 3c25.333 -28 55.333 -65 90 -111v-4c-3.33301 -3.33301 -5.66602 -5 -6.99902 -5zM411.999 719
c56.667 0 100.004 -28.002 130.004 -84.002c24.667 -46 37 -99.667 37 -161c0 -70.667 -19.333 -144 -58 -220c-36.667 -73.333 -83.334 -133.666 -140.001 -180.999c-64 -54 -130.333 -81 -199 -81c-68 0 -120 27.667 -156 83c-30.667 46.667 -46 105.667 -46 177
c0 110 47.333 213 142 309c72 72.667 116 109 132 109c1.33301 -0.666992 1.66602 -2 0.999023 -4c-4 -6 -21.333 -24.333 -52 -55c-46 -46 -84.667 -111.667 -116 -197c-30 -81.333 -45 -156.666 -45 -225.999c0 -126 45.667 -189 137 -189
c69.333 0 132.666 37.333 189.999 112c42 54 77.333 122.667 106 206c30 86.667 45 165.667 45 237c0 102.667 -39.333 154 -118 154c-88.667 0 -162.334 -85.333 -221.001 -256c-1.33301 -2.66699 -2.33301 -4 -3 -4c-2 0 -4 2 -6 6c14 73.333 38.667 133 74 179
c43.333 57.333 98.333 86 165 86h1z" />
    <glyph glyph-name="Oacute" unicode="&#xd3;" horiz-adv-x="624" 
d="M557 869l-1 -2c-96 -74 -155.667 -111 -179 -111c-3.33301 0 -5 2 -5 6c4.66699 7.33301 18 25 40 53l48 61c16 -1.33301 24.667 -2 26 -2c7.33301 0 18.333 0.5 33 1.5s25.667 1.5 33 1.5c3.33301 0 5 -2.66699 5 -8zM412 719c56.667 0 100.004 -28.002 130.004 -84.002
c24.667 -46 37 -99.667 37 -161c0 -70.667 -19.333 -144 -58 -220c-36.667 -73.333 -83.334 -133.666 -140.001 -180.999c-64 -54 -130.333 -81 -199 -81c-68 0 -120 27.667 -156 83c-30.667 46.667 -46 105.667 -46 177c0 110 47.333 213 142 309
c72 72.667 116 109 132 109c1.33301 -0.666992 1.66602 -2 0.999023 -4c-4 -6 -21.333 -24.333 -52 -55c-46 -46 -84.667 -111.667 -116 -197c-30 -81.333 -45 -156.666 -45 -225.999c0 -126 45.667 -189 137 -189c69.333 0 132.666 37.333 189.999 112
c42 54 77.333 122.667 106 206c30 86.667 45 165.667 45 237c0 102.667 -39.333 154 -118 154c-88.667 0 -162.334 -85.333 -221.001 -256c-1.33301 -2.66699 -2.33301 -4 -3 -4c-2 0 -4 2 -6 6c14 73.333 38.667 133 74 179c43.333 57.333 98.333 86 165 86h1z" />
    <glyph glyph-name="Ocircumflex" unicode="&#xd4;" horiz-adv-x="624" 
d="M474 876c14 -48 30.998 -83.999 50.998 -107.999l1 -7c-1.33301 -3.33301 -3.66602 -5.66602 -6.99902 -6.99902c-18 1.33301 -49 29.666 -93 84.999c-52 -54.667 -86.667 -82.667 -104 -84l-3 6l2 3c0 2 16.333 20.667 49 56
c6.66699 7.33301 19.334 25.666 38.001 54.999h66v1zM411.998 720.001c56.667 0 100.003 -28.002 130.003 -84.002c24.667 -46 37 -99.667 37 -161c0 -70.667 -19.333 -144 -58 -220c-36.667 -73.333 -83.334 -133.666 -140.001 -180.999c-64 -54 -130.333 -81 -199 -81
c-68 0 -120 27.667 -156 83c-30.667 46.667 -46 105.667 -46 177c0 110 47.333 213 142 309c72 72.667 116 109 132 109c1.33301 0 2 -0.666992 2 -2l-1 -2c-6 -8.66699 -23.333 -27 -52 -55c-46 -45.333 -84.667 -111 -116 -197c-30 -81.333 -45 -156.666 -45 -225.999
c0 -126 45.667 -189 137 -189c69.333 0 132.666 37.333 189.999 112c42 54 77.333 122.667 106 206c30 86.667 45 165.667 45 237c0 102.667 -39.333 154 -118 154c-88.667 0 -162.334 -85.333 -221.001 -256c-0.666992 -2.66699 -1.66699 -4 -3 -4c-2 0 -4 2 -6 6
c14 73.333 38.667 133 74 179c43.333 57.333 98.333 86 165 86h1z" />
    <glyph glyph-name="Otilde" unicode="&#xd5;" horiz-adv-x="624" 
d="M293 780c2 2.66699 4.33594 7.33203 7.00293 13.999c28 46 57.667 69 89 69c13.333 0 35.666 -8.33301 66.999 -25s51.666 -25 60.999 -25c16 0 29.333 7.33301 40 22c13.333 18.667 21 28.334 23 29.001h4c0.666992 -0.666992 1.66699 -1 3 -1l2 -3v-3
c0 -17.333 -12.167 -36.5 -36.5 -57.5s-45.166 -31.5 -62.499 -31.5c-14 0 -37.333 8.5 -70 25.5s-52.334 25.5 -59.001 25.5c-22 0 -40 -15.333 -54 -46c-2.66699 -2 -6.33398 -3 -11.001 -3c-2 0 -3 3.33301 -3 10zM412.003 718.998
c56.667 0 100.004 -28.002 130.004 -84.002c24.667 -46 37 -99.667 37 -161c0 -70.667 -19.333 -144 -58 -220c-36.667 -73.333 -83.334 -133.666 -140.001 -180.999c-64 -54 -130.333 -81 -199 -81c-68 0 -120 27.667 -156 83c-30.667 46.667 -46 105.667 -46 177
c0 110 47.333 213 142 309c72 72.667 116 109 132 109c1.33301 -0.666992 1.66602 -2 0.999023 -4c-4 -6 -21.333 -24.333 -52 -55c-46 -46 -84.667 -111.667 -116 -197c-30 -81.333 -45 -156.666 -45 -225.999c0 -126 45.667 -189 137 -189
c69.333 0 132.666 37.333 189.999 112c42 54 77.333 122.667 106 206c30 86.667 45 165.667 45 237c0 102.667 -39.333 154 -118 154c-88.667 0 -162.334 -85.333 -221.001 -256c-1.33301 -2.66699 -2.33301 -4 -3 -4c-2 0 -4 2 -6 6c14 73.333 38.667 133 74 179
c43.333 57.333 98.333 86 165 86h1z" />
    <glyph glyph-name="Odieresis" unicode="&#xd6;" horiz-adv-x="624" 
d="M412 719c56.667 0 100.004 -28.002 130.004 -84.002c24.667 -46 37 -99.667 37 -161c0 -70.667 -19.333 -144 -58 -220c-36.667 -73.333 -83.334 -133.666 -140.001 -180.999c-64 -54 -130.333 -81 -199 -81c-68 0 -120 27.667 -156 83
c-30.667 46.667 -46 105.667 -46 177c0 110 47.333 213 142 309c72 72.667 116 109 132 109c1.33301 -0.666992 1.66602 -2 0.999023 -4c-4 -6 -21.333 -24.333 -52 -55c-46 -46 -84.667 -111.667 -116 -197c-30 -81.333 -45 -156.666 -45 -225.999
c0 -126 45.667 -189 137 -189c69.333 0 132.666 37.333 189.999 112c42 54 77.333 122.667 106 206c30 86.667 45 165.667 45 237c0 102.667 -39.333 154 -118 154c-88.667 0 -162.334 -85.333 -221.001 -256c-1.33301 -2.66699 -2.33301 -4 -3 -4c-2 0 -4 2 -6 6
c14 73.333 38.667 133 74 179c43.333 57.333 98.333 86 165 86h1zM519.004 783.998c0 -10.667 -3.83301 -19.834 -11.5 -27.501s-16.834 -11.5 -27.501 -11.5s-19.667 3.83301 -27 11.5s-11 16.834 -11 27.501c0 9.33301 4 18 12 26s16.667 12 26 12
c10.667 0 19.834 -3.66699 27.501 -11s11.5 -16.333 11.5 -27zM371.004 783.998c0 -8 -3.33301 -16.333 -10 -25s-14 -13 -22 -13h-15c-8 0 -15.167 4.33301 -21.5 13s-9.5 17 -9.5 25c0 25.333 15.333 38 46 38c8 0 15.333 -4.33301 22 -13s10 -17 10 -25z" />
    <glyph glyph-name="Oslash" unicode="&#xd8;" horiz-adv-x="624" 
d="M27 78c-32 49.333 -47.998 105.334 -47.998 168.001c0 130 61.333 249.333 184 358c50 44 80 66 90 66c1.33301 -0.666992 2 -1.66699 2 -3c-16.667 -33.333 -46.334 -84 -89.001 -152c-39.333 -62.667 -68 -114.334 -86 -155.001c-26 -58.667 -39 -115 -39 -169
c0 -19.333 4 -47.666 12 -84.999l454 535c-24 40.667 -55 61 -93 61c-40.667 0 -78.667 -18.333 -114 -55c-30 -30.667 -53.333 -67.667 -70 -111c-3.33301 -9.33301 -7.33301 -26 -12 -50c-4 -21.333 -8.66699 -37.666 -14 -48.999l-3 -2h-3c-2.66699 0 -4 2.33301 -4 7
c0 23.333 4 49.666 12 78.999c15.333 56 40 101 74 135c38.667 39.333 85 59 139 59c33.333 0 68.666 -17.667 105.999 -53l42 50l19 -15l-47 -57c27.333 -64.667 41 -118.334 41 -161.001c0 -73.333 -18 -146.333 -54 -219s-83 -133 -141 -181c-70 -58 -134 -87 -192 -87
c-50.667 0 -100 23 -148 69l-52 -62l-19 15l54 64h-1zM523.002 550.001c0 20 -2.66602 41.667 -7.99902 65l-454 -535c24 -52 67.333 -78 130 -78c68 0 130.667 40 188 120c39.333 54.667 73.166 123.5 101.499 206.5s42.5 156.833 42.5 221.5z" />
    <glyph glyph-name="Ugrave" unicode="&#xd9;" horiz-adv-x="865" 
d="M592 759l-5 -3h-4c-116.667 62.667 -175 101 -175 115c0 2.66699 3.66699 4 11 4c3.33301 0 7.83301 -0.333008 13.5 -1s10.167 -1 13.5 -1c19.333 0 38.333 1 57 3c1.33301 -2 17.333 -22 48 -60l42 -52v-3zM862 705c-4.66699 -22.667 -24.334 -73.666 -59.001 -152.999
l-107 -243c-49.333 -112 -74 -192.667 -74 -242c0 -39.333 21 -59 63 -59c39.333 0 94.333 19.667 165 59l1 -13c-54.667 -40 -109 -60 -163 -60c-33.333 0 -60.666 8.66699 -81.999 26c-23.333 18.667 -35 44 -35 76c0 44.667 22.667 121.667 68 231l101 234
c-49.333 -104.667 -114.333 -215 -195 -331c-110 -158.667 -195.333 -238 -256 -238c-17.333 0 -31 7.33301 -41 22c-9.33301 12.667 -14 28 -14 46c0 47.333 28.333 126.333 85 237l123 238c28 54.667 42 92.667 42 114c0 26.667 -18.333 40 -55 40
c-92 0 -186.333 -42.333 -283 -127c-110.667 -96.667 -166 -199 -166 -307c0 -52 19.667 -100.667 59 -146v-5c0 -2.66699 -1.33301 -4 -4 -4c-2 0 -4 1 -6 3c-20.667 16.667 -36.667 42.667 -48 78c-10 30 -15 60.667 -15 92c0 112 50 212 150 300
c96.667 84.667 201.667 127 315 127c27.333 0 49.666 -6 66.999 -18c20 -13.333 30 -33 30 -59c0 -38 -30 -117 -90 -237l-123 -243c-28.667 -57.333 -43 -97 -43 -119c0 -15.333 6.66699 -23 20 -23c14 0 38.667 15.667 74 47c74 65.333 154 165.666 240 300.999
c70 110 132 223.667 186 341c16.667 5.33301 39.334 11.333 68.001 18z" />
    <glyph glyph-name="Uacute" unicode="&#xda;" horiz-adv-x="865" 
d="M668 871c-5.33301 -12 -33.501 -34.167 -84.501 -66.5s-83.167 -48.5 -96.5 -48.5c-1.33301 0 -2.66602 1.66699 -3.99902 5c0 2 13.333 20 40 54l47 61c16 -1.33301 25 -2 27 -2c7.33301 0 18.333 0.5 33 1.5s25.667 1.5 33 1.5c3.33301 0 5 -2 5 -6zM861.999 705
c-4.66699 -22.667 -24.334 -73.666 -59.001 -152.999l-107 -243c-49.333 -112 -74 -192.667 -74 -242c0 -39.333 21 -59 63 -59c39.333 0 94.333 19.667 165 59l1 -13c-54.667 -40 -109 -60 -163 -60c-33.333 0 -60.666 8.66699 -81.999 26c-23.333 18.667 -35 44 -35 76
c0 44.667 22.667 121.667 68 231l101 234c-49.333 -104.667 -114.333 -215 -195 -331c-110 -158.667 -195.333 -238 -256 -238c-17.333 0 -31 7.33301 -41 22c-9.33301 12.667 -14 28 -14 46c0 47.333 28.333 126.333 85 237l123 238c28 54.667 42 92.667 42 114
c0 26.667 -18.333 40 -55 40c-92 0 -186.333 -42.333 -283 -127c-110.667 -96.667 -166 -199 -166 -307c0 -52 19.667 -100.667 59 -146v-5c0 -2.66699 -1.33301 -4 -4 -4c-2 0 -4 1 -6 3c-20.667 16.667 -36.667 42.667 -48 78c-10 30 -15 60.667 -15 92
c0 112 50 212 150 300c96.667 84.667 201.667 127 315 127c27.333 0 49.666 -6 66.999 -18c20 -13.333 30 -33 30 -59c0 -38 -30 -117 -90 -237l-123 -243c-28.667 -57.333 -43 -97 -43 -119c0 -15.333 6.66699 -23 20 -23c14 0 38.667 15.667 74 47
c74 65.333 154 165.666 240 300.999c70 110 132 223.667 186 341c16.667 5.33301 39.334 11.333 68.001 18z" />
    <glyph glyph-name="Ucircumflex" unicode="&#xdb;" horiz-adv-x="865" 
d="M585 876c8 -29.333 20.667 -58.999 38 -88.999l13 -22v-6l-2 -3l-5 -2c-20 6.66699 -50.667 34.667 -92 84c-44 -46 -77.333 -73.667 -100 -83h-3c-3.33301 0 -5 1.66699 -5 5c0 2 17.333 22 52 60c10 11.333 22.333 29.666 37 54.999h67v1zM862 706.001
c-7.33301 -36 -32.334 -101.666 -75.001 -196.999l-91 -199c-49.333 -113.333 -74 -194 -74 -242c0 -39.333 21 -59 63 -59c41.333 0 96.333 19.667 165 59l1 -13c-54.667 -40 -109 -60 -163 -60c-33.333 0 -60.666 8.66699 -81.999 26c-23.333 18.667 -35 44 -35 76
c0 44.667 22.667 121.667 68 231l101 234c-49.333 -104.667 -114.333 -215 -195 -331c-110 -158.667 -195.333 -238 -256 -238c-17.333 0 -31 7.33301 -41 22c-9.33301 12.667 -14 28 -14 46c0 47.333 28.333 126.333 85 237l123 238c28 54.667 42 92.667 42 114
c0 26.667 -18.333 40 -55 40c-92 0 -186.333 -42.333 -283 -127c-110.667 -96.667 -166 -199 -166 -307c0 -52 19.667 -100.667 59 -146v-5c0 -2.66699 -1.33301 -4 -4 -4c-2 0 -4 1 -6 3c-20.667 16.667 -36.667 42.667 -48 78c-10 30 -15 60.667 -15 92
c0 112 50 212 150 300c96.667 84.667 201.667 127 315 127c27.333 0 49.666 -6 66.999 -18c20 -13.333 30 -33 30 -59c0 -38 -30 -117 -90 -237l-123 -243c-28.667 -57.333 -43 -97 -43 -119c0 -15.333 6.66699 -23 20 -23c14 0 38.667 15.667 74 47
c74 65.333 154 165.666 240 300.999c70 110 132 223.667 186 341c16.667 5.33301 39.334 11.333 68.001 18z" />
    <glyph glyph-name="Udieresis" unicode="&#xdc;" horiz-adv-x="865" 
d="M859 705c-5.33301 -26 -24.333 -76.3301 -57 -150.997l-107 -245c-50 -114.667 -75 -195.334 -75 -242.001c0 -39.333 21 -59 63 -59c40 0 95.333 19.667 166 59l1 -13c-54.667 -40 -109 -60 -163 -60c-32.667 0 -60.334 9 -83.001 27s-34.334 43 -35.001 75
c-0.666992 38 18 102.333 56 193l114 272c-49.333 -104.667 -114.333 -215 -195 -331c-110 -158.667 -195.333 -238 -256 -238c-16.667 0 -30 7 -40 21s-15 29.667 -15 47c0 47.333 28.333 126.666 85 237.999l123 239c28 55.333 42 92.666 42 111.999
c0 26.667 -19 40 -57 40c-94 0 -188.5 -42 -283.5 -126s-148.5 -172.667 -160.5 -266c-2 -15.333 -3 -29.333 -3 -42c0 -52 19.667 -100.667 59 -146v-5c0 -2.66699 -1.33301 -4 -4 -4c-17.333 0 -33.666 24 -48.999 72c-13.333 41.333 -20 73.666 -20 96.999
c0 114.667 49.333 216 148 304c95.333 84.667 201 127 317 127c26.667 0 49 -5.66699 67 -17c20.667 -13.333 31 -32.666 31 -57.999c0 -40.667 -30 -119.667 -90 -237l-125 -244c-28 -55.333 -42 -95.333 -42 -120c0 -15.333 6.66699 -23 20 -23c14 0 38.333 15.333 73 46
c76.667 68 157 168.333 241 301c71.333 112.667 133.333 226.667 186 342c16.667 5.33301 39.334 11.333 68.001 18v-3zM799 792.003v-15c0 -6 -3.66699 -12.5 -11 -19.5s-14 -10.5 -20 -10.5h-14c-8 0 -15.167 4.33301 -21.5 13s-9.5 17 -9.5 25c0 25.333 13 38 39 38
c8 0 16.167 -3.16699 24.5 -9.5s12.5 -13.5 12.5 -21.5zM651 785.003c0 -9.33301 -3.16699 -18 -9.5 -26s-13.833 -12 -22.5 -12h-14c-8 0 -15.167 4.33301 -21.5 13s-9.5 17 -9.5 25c0 10 3.83301 18.833 11.5 26.5s16.5 11.5 26.5 11.5c26 0 39 -12.667 39 -38z" />
    <glyph glyph-name="germandbls" unicode="&#xdf;" horiz-adv-x="544" 
d="M448 643c0 -34.667 -20.333 -76.666 -61 -125.999c-26 -31.333 -63.667 -69 -113 -113c-40.667 -36 -61 -55 -61 -57c0.666992 -2 1.66699 -3.66699 3 -5c18.667 -6.66699 62.334 -12 131.001 -16c24 -4.66699 45.333 -17.667 64 -39s28 -44.333 28 -69
c0 -45.333 -18.333 -89 -55 -131c54.667 -10 97 -14.667 127 -14l-1 -10c2 0 -8.66699 -0.666992 -32 -2c-8.66699 -0.666992 -43 4.66602 -103 15.999c-68.667 -56.667 -149.667 -85 -243 -85c-22.667 0 -42 1.33301 -58 4c-38.667 -104.667 -67 -157.334 -85 -158.001
l-1 4c1.33301 14 4.66602 32 9.99902 54l27 114c-31.333 17.333 -47 36 -47 56c0 26 24.667 43.667 74 53c58 290.667 137.667 474.334 239 551.001c33.333 25.333 63.333 38 90 38c44.667 0 67 -21.667 67 -65zM375 210.001c0 81.333 -47.667 122 -143 122
c-20 0 -30 5.66699 -30 17c0 0.666992 32.833 47.667 98.5 141s98.5 153.666 98.5 180.999c0 17.333 -10 26 -30 26c-44.667 0 -89.667 -53 -135 -159c-26 -60 -50 -132.667 -72 -218l-50 -196c76 0 150.333 -8 223 -24c26.667 38.667 40 75.334 40 110.001zM141 1.00098
c74.667 0 136.667 28.668 186 86.001c-89.333 19.333 -153 28.333 -191 27l-27 -1c-6.66699 -28.667 -16 -63.334 -28 -104.001c28.667 -4.66699 48.667 -7 60 -7v-1zM50 109.002c-34.667 -10 -52 -24.667 -52 -44c0 -14.667 10 -27 30 -37l21 81h1z" />
    <glyph glyph-name="agrave" unicode="&#xe0;" horiz-adv-x="483" 
d="M301 471l2 -7l-3 -5l-3 -2h-2c-10.667 0 -54.667 37.333 -132 112l-27 26c-0.666992 0.666992 -1 2.66699 -1 6c0.666992 1.33301 2 3 4 5c4.66699 -0.666992 14.667 -1 30 -1c4 0 22 0.666992 54 2c26.667 -56.667 52.667 -102 78 -136zM398 387
c0 -0.666992 -0.332031 -1.66602 -0.999023 -2.99902l-70 -178c-36.667 -96.667 -55 -152.334 -55 -167.001c0 -20.667 15.333 -31 46 -31c46.667 0 102 20 166 60v-12c-40.667 -21.333 -66.334 -34.333 -77.001 -39c-32 -14 -59.667 -21 -83 -21
c-22 0 -42.333 4.66699 -61 14c-22 10.667 -35 25.667 -39 45c-52 -40 -104.667 -60 -158 -60c-60 0 -90 29 -90 87c0 68.667 27 136.667 81 204c57.333 70.667 119.333 106 186 106c24 0 53 -11 87 -33c39.333 22 60.333 33 63 33c3.33301 0 5 -1.66699 5 -5z
M313.001 345.001l-24 21.001c-24.667 11.333 -44.334 17 -59.001 17c-43.333 0 -87.333 -43 -132 -129c-40.667 -78.667 -61 -142 -61 -190c0 -38 19.333 -57 58 -57c34.667 0 77.667 22.333 129 67c2 27.333 14.667 71 38 131c12.667 33.333 30.334 76.666 53.001 129.999z
" />
    <glyph glyph-name="aacute" unicode="&#xe1;" horiz-adv-x="483" 
d="M365 605l2 -3c0 -10.667 -23.667 -36 -71 -76c-41.333 -35.333 -71 -58.333 -89 -69l-4 -1c-1.33301 2 -3 4.33301 -5 7c3.33301 12 21 40.333 53 85c4.66699 6 13.667 25.667 27 59c10.667 -1.33301 22 -2 34 -2c16 0 32 0.666992 48 2zM398 387
c0 -0.666992 -0.332031 -1.66602 -0.999023 -2.99902l-70 -178c-36.667 -96.667 -55 -152.334 -55 -167.001c0 -20.667 15.333 -31 46 -31c46.667 0 102 20 166 60v-12c-40.667 -21.333 -66.334 -34.333 -77.001 -39c-32 -14 -59.667 -21 -83 -21
c-22 0 -42.333 4.66699 -61 14c-22 10.667 -35 25.667 -39 45c-52 -40 -104.667 -60 -158 -60c-60 0 -90 29 -90 87c0 68.667 27 136.667 81 204c57.333 70.667 119.333 106 186 106c24 0 53 -11 87 -33c39.333 22 60.333 33 63 33c3.33301 0 5 -1.66699 5 -5z
M313.001 345.001l-24 21.001c-24.667 11.333 -44.334 17 -59.001 17c-43.333 0 -87.333 -43 -132 -129c-40.667 -78.667 -61 -142 -61 -190c0 -38 19.333 -57 58 -57c34.667 0 77.667 22.333 129 67c2 27.333 14.667 71 38 131c12.667 33.333 30.334 76.666 53.001 129.999z
" />
    <glyph glyph-name="acircumflex" unicode="&#xe2;" horiz-adv-x="483" 
d="M347 471l-0.000976562 -4c-2 -3.33301 -4.33301 -5 -7 -5c-11.333 0 -28.333 13 -51 39s-35.667 45.333 -39 58c-58 -64.667 -91.667 -97 -101 -97c-2.66699 0 -4 2.66699 -4 8l2 8c34.667 36.667 64.334 78.667 89.001 126h66c1.33301 -18.667 5 -40.667 11 -66
c2.66699 -10 7.66699 -21.667 15 -35c12 -20 18.333 -30.667 19 -32zM397.999 387c0 -0.666992 -0.332031 -1.66602 -0.999023 -2.99902l-70 -178c-36.667 -96.667 -55 -152.334 -55 -167.001c0 -20.667 15.333 -31 46 -31c46.667 0 102 20 166 60v-12
c-40.667 -21.333 -66.334 -34.333 -77.001 -39c-32 -14 -59.667 -21 -83 -21c-22 0 -42.333 4.66699 -61 14c-22 10.667 -35 25.667 -39 45c-52 -40 -104.667 -60 -158 -60c-60 0 -90 29 -90 87c0 68.667 27 136.667 81 204c57.333 70.667 119.333 106 186 106
c24 0 53 -11 87 -33c39.333 22 60.333 33 63 33c3.33301 0 5 -1.66699 5 -5zM313 345.001l-24 21.001c-24.667 11.333 -44.334 17 -59.001 17c-43.333 0 -87.333 -43 -132 -129c-40.667 -78.667 -61 -142 -61 -190c0 -38 19.333 -57 58 -57c34.667 0 77.667 22.333 129 67
c2 27.333 14.667 71 38 131c12.667 33.333 30.334 76.666 53.001 129.999z" />
    <glyph glyph-name="atilde" unicode="&#xe3;" horiz-adv-x="483" 
d="M109 491c0 18 12.167 37.166 36.5 57.499s45.833 30.5 64.5 30.5c12.667 0 34 -8.33301 64 -25s48.667 -25 56 -25c14.667 0 27.334 5 38.001 15c7.33301 8.66699 15.666 20.334 24.999 35.001l3 2h4l6 -4l1 -4c-8 -21.333 -21.333 -41 -40 -59
c-21.333 -20.667 -42 -31 -62 -31c-13.333 0 -36 8.66699 -68 26s-52.333 26 -61 26c-12 0 -31.667 -16.667 -59 -50c-5.33301 0 -8 2 -8 6zM398 386.999c0 -0.666992 -0.332031 -1.66602 -0.999023 -2.99902l-70 -178c-36.667 -96.667 -55 -152.334 -55 -167.001
c0 -20.667 15.333 -31 46 -31c46.667 0 102 20 166 60v-12c-40.667 -21.333 -66.334 -34.333 -77.001 -39c-32 -14 -59.667 -21 -83 -21c-22 0 -42.333 4.66699 -61 14c-22 10.667 -35 25.667 -39 45c-52 -40 -104.667 -60 -158 -60c-60 0 -90 29 -90 87
c0 68.667 27 136.667 81 204c57.333 70.667 119.333 106 186 106c24 0 53 -11 87 -33c39.333 22 60.333 33 63 33c3.33301 0 5 -1.66699 5 -5zM313.001 345l-24 21.001c-24.667 11.333 -44.334 17 -59.001 17c-43.333 0 -87.333 -43 -132 -129
c-40.667 -78.667 -61 -142 -61 -190c0 -38 19.333 -57 58 -57c34.667 0 77.667 22.333 129 67c2 27.333 14.667 71 38 131c12.667 33.333 30.334 76.666 53.001 129.999z" />
    <glyph glyph-name="adieresis" unicode="&#xe4;" horiz-adv-x="483" 
d="M387 500c0 -8 -3.33301 -16.333 -10 -25s-13.667 -13 -21 -13h-14c-8.66699 0 -16 4.16699 -22 12.5s-9 16.833 -9 25.5c0 25.333 15 38 45 38c8 0 15.167 -4.16699 21.5 -12.5s9.5 -16.833 9.5 -25.5zM206 537c8 0 15.167 -4.16699 21.5 -12.5s9.5 -16.833 9.5 -25.5
s-3 -17 -9 -25s-13.333 -12 -22 -12h-14c-8.66699 0 -16 4 -22 12s-9 16.333 -9 25s3 17.167 9 25.5s13.333 12.5 22 12.5h14zM398 387c0 -0.666992 -0.332031 -1.66602 -0.999023 -2.99902l-70 -178c-36.667 -96.667 -55 -152.334 -55 -167.001
c0 -20.667 15.333 -31 46 -31c46.667 0 102 20 166 60v-12c-40.667 -21.333 -66.334 -34.333 -77.001 -39c-32 -14 -59.667 -21 -83 -21c-22 0 -42.333 4.66699 -61 14c-22 10.667 -35 25.667 -39 45c-52 -40 -104.667 -60 -158 -60c-60 0 -90 29 -90 87
c0 68.667 27 136.667 81 204c57.333 70.667 119.333 106 186 106c24 0 53 -11 87 -33c39.333 22 60.333 33 63 33c3.33301 0 5 -1.66699 5 -5zM313.001 345.001l-24 21.001c-24.667 11.333 -44.334 17 -59.001 17c-43.333 0 -87.333 -43 -132 -129
c-40.667 -78.667 -61 -142 -61 -190c0 -38 19.333 -57 58 -57c34.667 0 77.667 22.333 129 67c2 27.333 14.667 71 38 131c12.667 33.333 30.334 76.666 53.001 129.999z" />
    <glyph glyph-name="aring" unicode="&#xe5;" horiz-adv-x="483" 
d="M359 532c0 -20.667 -7.66699 -38.667 -23 -54s-33.333 -23 -54 -23s-38.667 7.66699 -54 23s-23 33.333 -23 54s7.66699 38.5 23 53.5s33.333 22.5 54 22.5s38.667 -7.5 54 -22.5s23 -32.833 23 -53.5zM332 531c0 14 -4.83203 26.166 -14.499 36.499
s-21.5 15.5 -35.5 15.5c-14.667 0 -26.834 -5 -36.501 -15s-14.5 -22.333 -14.5 -37c0 -14 5 -26 15 -36s22 -15 36 -15c14.667 0 26.667 4.83301 36 14.5s14 21.834 14 36.501zM398.001 386.999c0 -0.666992 -0.332031 -1.66602 -0.999023 -2.99902l-70 -178
c-36.667 -96.667 -55 -152.334 -55 -167.001c0 -20.667 15.333 -31 46 -31c46.667 0 102 20 166 60v-12c-40.667 -21.333 -66.334 -34.333 -77.001 -39c-32 -14 -59.667 -21 -83 -21c-22 0 -42.333 4.66699 -61 14c-22 10.667 -35 25.667 -39 45
c-52 -40 -104.667 -60 -158 -60c-60 0 -90 29 -90 87c0 68.667 27 136.667 81 204c57.333 70.667 119.333 106 186 106c24 0 53 -11 87 -33c39.333 22 60.333 33 63 33c3.33301 0 5 -1.66699 5 -5zM313.002 345l-24 21.001c-24.667 11.333 -44.334 17 -59.001 17
c-43.333 0 -87.333 -43 -132 -129c-40.667 -78.667 -61 -142 -61 -190c0 -38 19.333 -57 58 -57c34.667 0 77.667 22.333 129 67c2 27.333 14.667 71 38 131c12.667 33.333 30.334 76.666 53.001 129.999z" />
    <glyph glyph-name="ae" unicode="&#xe6;" horiz-adv-x="583" 
d="M373 388l5.99902 0.000976562c0.666992 -0.666992 1.33398 -1 2.00098 -1l2 -4v-5l-17 -47c36 39.333 68.333 59 97 59c33.333 0 50 -20 50 -60c0 -48.667 -27 -95 -81 -139c-40 -32 -89.333 -59.333 -148 -82c-4.66699 -16.667 -7 -32 -7 -46c0 -40.667 29 -61 87 -61
c32.667 0 71 8 115 24c46.667 16.667 80.667 35.667 102 57v-16c-25.333 -22 -60.666 -40.667 -105.999 -56c-42.667 -14 -82 -21 -118 -21c-35.333 0 -62.333 3.33301 -81 10c-26.667 9.33301 -45.334 27.666 -56.001 54.999c-60 -44.667 -111.667 -67 -155 -67
c-28 0 -50.167 8.5 -66.5 25.5s-24.5 39.5 -24.5 67.5c0 66 26.667 133.333 80 202c57.333 72 118 108 182 108c21.333 0 46.333 -8.66699 75 -26l4 8c14 2 33.333 7 58 15zM229.999 382.001c-48 0 -93.667 -42.999 -137 -128.999c-38.667 -76.667 -58 -141.667 -58 -195
c0 -39.333 17.667 -59 53 -59c37.333 0 80.333 24.333 129 73c1.33301 33.333 13 77.666 35 132.999l52 133c-21.333 29.333 -46 44 -74 44zM477.999 353.002c0 17.333 -7.33301 26.001 -22 26.001c-31.333 0 -66 -35.667 -104 -107c-26.667 -50 -47.667 -100.667 -63 -152
c126 73.333 189 150.666 189 231.999v1z" />
    <glyph glyph-name="ccedilla" unicode="&#xe7;" horiz-adv-x="342" 
d="M11 -56c-3.33301 0 -5.00098 1.66797 -5.00098 5.00098c0.666992 0.666992 1 1.66699 1 3c40 28 65.333 42 76 42c9.33301 0 17.833 -6.66699 25.5 -20s11.5 -25 11.5 -35c0 -20.667 -17.5 -47.834 -52.5 -81.501s-62.833 -50.5 -83.5 -50.5c-3.33301 0 -5 2.66699 -5 8
l2 5c22.667 17.333 39.667 32 51 44c18 20 27 39.333 27 58c0 12 -5.66699 19 -17 21c-1.33301 0.666992 -11.666 1 -30.999 1zM113.999 -6.99902c-78.667 0 -118.002 31.667 -118.002 95c0 60.667 26.667 125 80 193c56.667 71.333 114.334 107 173.001 107
c17.333 0 31 -5.33301 41 -16s15 -24.667 15 -42c0 -28 -13 -60.667 -39 -98c-27.333 -40 -54.333 -60 -81 -60h-3l-7 3l-6 8l-1 7c5.33301 22 28.333 47 69 75c37.333 25.333 56 51.666 56 78.999c0 22.667 -14.667 34 -44 34c-49.333 0 -94 -37.667 -134 -113
c-34.667 -65.333 -52 -125.666 -52 -180.999c0 -53.333 25.667 -80 77 -80c32.667 0 70.667 8.66699 114 26c38.667 15.333 73.334 34 104.001 56v-16c-56.667 -26.667 -96 -44 -118 -52c-48 -16.667 -90 -25 -126 -25z" />
    <glyph glyph-name="egrave" unicode="&#xe8;" horiz-adv-x="301" 
d="M141 607c26 -56 51.667 -101.333 77 -136l2 -7l-3 -5l-3 -2h-3c-10 0 -39 21.833 -87 65.5s-72 70.167 -72 79.5c0 2 1 3.33301 3 4c4.66699 -0.666992 15 -1 31 -1c6 0 15 0.333008 27 1s21 1 27 1h1zM46 88c0 -55.333 25.3359 -83.333 76.0029 -84
c31.333 -0.666992 64.666 7 99.999 23c33.333 14.667 61.666 33.667 84.999 57v-16c-65.333 -49.333 -128 -74 -188 -74c-44 0 -76.333 7 -97 21c-25.333 17.333 -38 47 -38 89c-0.666992 102.667 39.666 185.667 120.999 249c32 24.667 55.667 37 71 37
c16 0 28.667 -6.16699 38 -18.5s14 -26.833 14 -43.5c0 -64.667 -60.667 -138 -182 -220v-20zM206.003 365c-4 3.33301 -8.33398 5.33301 -13.001 6c-39.333 0 -74.666 -33 -105.999 -99c-24 -50.667 -38 -101 -42 -151c36 24.667 71 58.667 105 102
c39.333 50.667 59 93.667 59 129c0 2.66699 -1 7 -3 13z" />
    <glyph glyph-name="eacute" unicode="&#xe9;" horiz-adv-x="301" 
d="M282 605l1.99902 -3c0 -10.667 -23.667 -36 -71 -76c-41.333 -35.333 -71 -58.333 -89 -69h-4l-3 2l-2 4c4 12.667 21 41 51 85c4.66699 7.33301 14.334 27 29.001 59c10.667 -1.33301 22 -2 34 -2c16 0 32 0.666992 48 2zM44.999 88
c0 -55.333 25.3359 -83.333 76.0029 -84c31.333 -0.666992 64.666 7 99.999 23c33.333 14.667 61.666 33.667 84.999 57v-16c-65.333 -49.333 -128 -74 -188 -74c-44 0 -76.333 7 -97 21c-25.333 17.333 -38 47 -38 89c-0.666992 102 39.666 185 120.999 249
c31.333 24.667 55 37 71 37s28.667 -6.16699 38 -18.5s14 -26.833 14 -43.5c0 -64.667 -60.667 -138 -182 -220v-20zM205.002 365c-4 3.33301 -8.33398 5.33301 -13.001 6c-39.333 0 -74.666 -33 -105.999 -99c-24 -50.667 -38 -101 -42 -151c36 24.667 71 58.667 105 102
c39.333 50.667 59 93.667 59 129c0 2.66699 -1 7 -3 13z" />
    <glyph glyph-name="ecircumflex" unicode="&#xea;" horiz-adv-x="301" 
d="M264 471l0.000976562 -3.99707c-2 -3.33301 -4.66699 -5 -8 -5c-10.667 0 -27.334 13.333 -50.001 40c-19.333 22.667 -32.666 41.667 -39.999 57c-54 -64.667 -87.333 -97 -100 -97c-2.66699 0 -4 2.66699 -4 8l3 7c31.333 33.333 60.666 75.666 87.999 126.999h66
c2 -16.667 5.66699 -38.667 11 -66c2 -10.667 7 -22.334 15 -35.001c10.667 -16.667 17 -27.334 19 -32.001zM45.001 88.0029c0 -55.333 25.3359 -83.333 76.0029 -84c31.333 -0.666992 64.666 7 99.999 23c33.333 14.667 61.666 33.667 84.999 57v-16
c-65.333 -49.333 -128 -74 -188 -74c-44 0 -76.333 7 -97 21c-25.333 17.333 -38 47 -38 89c-0.666992 102 39.666 185 120.999 249c31.333 24.667 55 37 71 37s28.667 -6.16699 38 -18.5s14 -26.833 14 -43.5c0 -64.667 -60.667 -138 -182 -220v-20zM205.004 365.003
c-4 3.33301 -8.33398 5.33301 -13.001 6c-39.333 0 -74.666 -33 -105.999 -99c-24 -50.667 -38 -101 -42 -151c36 24.667 71 58.667 105 102c39.333 50.667 59 93.667 59 129c0 2.66699 -1 7 -3 13z" />
    <glyph glyph-name="edieresis" unicode="&#xeb;" horiz-adv-x="301" 
d="M242 537c8.66699 0 16 -4.16699 22 -12.5s9 -16.833 9 -25.5s-3.16699 -17 -9.5 -25s-13.5 -12 -21.5 -12h-15c-8.66699 0 -16 4 -22 12s-9 16.333 -9 25s3.16699 17.167 9.5 25.5s13.5 12.5 21.5 12.5h15zM123 498c0 -10.667 -3.66699 -19.5 -11 -26.5
s-16.333 -10.5 -27 -10.5c-25.333 0 -38 12.333 -38 37c0 10.667 3.66699 19.834 11 27.501s16.333 11.5 27 11.5s19.667 -3.83301 27 -11.5s11 -16.834 11 -27.501zM45 88c0 -55.333 25.3359 -83.333 76.0029 -84c31.333 -0.666992 64.666 7 99.999 23
c33.333 14.667 61.666 33.667 84.999 57v-16c-65.333 -49.333 -128 -74 -188 -74c-44 0 -76.333 7 -97 21c-25.333 17.333 -38 47 -38 89c-0.666992 102 39.666 185 120.999 249c31.333 24.667 55 37 71 37s28.667 -6.16699 38 -18.5s14 -26.833 14 -43.5
c0 -64.667 -60.667 -138 -182 -220v-20zM205.003 365c-4 3.33301 -8.33398 5.33301 -13.001 6c-39.333 0 -74.666 -33 -105.999 -99c-24 -50.667 -38 -101 -42 -151c36 24.667 71 58.667 105 102c39.333 50.667 59 93.667 59 129c0 2.66699 -1 7 -3 13z" />
    <glyph glyph-name="igrave" unicode="&#xec;" 
d="M183 471l2 -7.00098l-3 -5l-3 -2h-3c-14 0 -58 37.333 -132 112c-2.66699 2.66699 -8.66699 8.33398 -18 17.001l-9 8c-0.666992 1.33301 -1 3.66602 -1 6.99902c0.666992 1.33301 2 3 4 5c4.66699 -0.666992 15 -1 31 -1c4 0 22 0.666992 54 2
c21.333 -49.333 47.333 -94.666 78 -135.999zM140 387.999c1.33301 0.666992 4.33203 1.00098 8.99902 1.00098c2.66699 0 4 -2 4 -6c0 -30 -19.667 -86 -59 -168s-59 -139 -59 -171c0 -26 15.333 -39 46 -39c33.333 0 82.333 22.667 147 68v-13
c-54.667 -44.667 -104.667 -67 -150 -67c-25.333 0 -46.666 6.66699 -63.999 20s-26 32.333 -26 57c0 31.333 11 77.666 33 138.999l52 140c29.333 12 52 25 68 39h-1z" />
    <glyph glyph-name="iacute" unicode="&#xed;" 
d="M247 605l0.999023 -2.99902l-2 -4c-3.33301 -10.667 -27.333 -35.667 -72 -75c-39.333 -34.667 -67.666 -56.667 -84.999 -66h-4c-2.66699 1.33301 -4.66699 3.33301 -6 6c4 14 21.333 42.333 52 85c4.66699 6 13.667 25.667 27 59
c2 -0.666992 14.333 -1.33398 37 -2.00098c12 -0.666992 28 0 48 2zM139.999 388.001c1.33301 0.666992 4.33203 1.00098 8.99902 1.00098c2.66699 0 4 -2 4 -6c0 -30 -19.667 -86 -59 -168s-59 -139 -59 -171c0 -26 15.333 -39 46 -39c33.333 0 82.333 22.667 147 68v-13
c-54.667 -44.667 -104.667 -67 -150 -67c-25.333 0 -46.666 6.66699 -63.999 20s-26 32.333 -26 57c0 31.333 11 77.666 33 138.999l52 140c29.333 12 52 25 68 39h-1z" />
    <glyph glyph-name="icircumflex" unicode="&#xee;" 
d="M184 605l7.00195 -52.998c2 -16.667 8.66699 -33.334 20 -50.001c8 -12 14 -22.333 18 -31v-4l-5 -5h-4c-10.667 0 -27.334 13.333 -50.001 40c-20.667 24 -33.667 43 -39 57c-54.667 -64.667 -88.334 -97 -101.001 -97c-2 0 -3 2 -3 6c0 1.33301 0.666992 4.33301 2 9
c33.333 33.333 63 75.666 89 126.999h66v1zM140.002 389.002c1.33301 0.666992 4.33203 1.00098 8.99902 1.00098c2.66699 0 4 -2 4 -6c0 -30 -19.667 -86 -59 -168s-59 -139 -59 -171c0 -26 15.333 -39 46 -39c33.333 0 82.333 22.667 147 68v-13
c-54.667 -44.667 -104.667 -67 -150 -67c-25.333 0 -46.666 6.66699 -63.999 20s-26 32.333 -26 57c0 31.333 11 77.666 33 138.999l52 140c29.333 12 52 25 68 39h-1z" />
    <glyph glyph-name="idieresis" unicode="&#xef;" 
d="M206 537c8 0 15.167 -4.16699 21.5 -12.5s9.5 -16.833 9.5 -25.5s-3 -17 -9 -25s-13.333 -12 -22 -12h-15c-8 0 -15 4 -21 12s-9 16.333 -9 25c0 8 3 16.333 9 25s13 13 21 13h15zM88 498c0 -24.667 -13 -37 -39 -37c-24.667 0 -37 12.333 -37 37c0 26 12.333 39 37 39
c10 0 19 -4 27 -12s12 -17 12 -27zM140 388c1.33301 0.666992 4.33203 1.00098 8.99902 1.00098c2.66699 0 4 -2 4 -6c0 -30 -19.667 -86 -59 -168s-59 -139 -59 -171c0 -26 15.333 -39 46 -39c33.333 0 82.333 22.667 147 68v-13c-54.667 -44.667 -104.667 -67 -150 -67
c-25.333 0 -46.666 6.66699 -63.999 20s-26 32.333 -26 57c0 31.333 11 77.666 33 138.999l52 140c29.333 12 52 25 68 39h-1z" />
    <glyph glyph-name="ntilde" unicode="&#xf1;" horiz-adv-x="442" 
d="M91 491c4 20 16.667 39.667 38 59s42 29 62 29c12 0 33.167 -8.16699 63.5 -24.5s49.166 -24.5 56.499 -24.5c18.667 0 33 7 43 21c13.333 18 21.333 28 24 30h3l7 -4l1 -3c-8 -21.333 -21.333 -41 -40 -59c-21.333 -21.333 -42 -32 -62 -32c-14 0 -37 8.66699 -69 26
s-52 26 -60 26c-12.667 0 -32.667 -16.667 -60 -50c-3.33301 0 -5.66602 2 -6.99902 6zM140 385l1.99805 -3.00195c-4 -12.667 -30.333 -77 -79 -193c-42.667 -101.333 -64 -157.333 -64 -168c0 -2.66699 1.33301 -4 4 -4l5 2c10.667 10.667 21 26.334 31 47.001
c4 9.33301 12.333 26.333 25 51c21.333 40.667 56.666 92 105.999 154c58.667 74 102.334 111 131.001 111c10.667 0 19.834 -5.66699 27.501 -17s11.5 -22.666 11.5 -33.999c0 -30 -15.5 -78.667 -46.5 -146s-46.5 -116 -46.5 -146c0 -20.667 16.667 -31 50 -31
c26 0 51.667 6 77 18c11.333 5.33301 33.666 19.333 66.999 42l1 -13c-48.667 -40 -98 -60 -148 -60c-27.333 0 -50 7.83301 -68 23.5s-27 37.167 -27 64.5c0 26.667 16.667 75 50 145s50 116.333 50 139c-0.666992 0.666992 -2 1 -4 1c-9.33301 0 -30 -15 -62 -45
c-65.333 -61.333 -123.666 -141.666 -174.999 -240.999l-29 -60c-5.33301 -10.667 -12.666 -17.667 -21.999 -21c-19.333 0 -29 19 -29 57c0 39.333 11 88.666 33 147.999l54 146c18 10.667 42.333 22 73 34z" />
    <glyph glyph-name="ograve" unicode="&#xf2;" horiz-adv-x="423" 
d="M197 607c26 -56 51.666 -101.332 76.999 -135.999l2 -7l-3 -5l-3 -2h-2c-10 0 -39.333 21.667 -88 65s-73 69.666 -73 78.999c0.666992 1.33301 2.33398 3 5.00098 5c4.66699 -0.666992 14.667 -1 30 -1c6 0 15 0.333008 27 1s21 1 27 1h1zM38.999 90.001
c0 -54.667 17.668 -82.002 53.001 -82.002c58 0 106 53.333 144 160c-37.333 53.333 -56 106.333 -56 159c0 66.667 17.667 100 53 100c25.333 0 44.333 -14.333 57 -43c9.33301 -21.333 14.333 -46.666 15 -75.999c0.666992 -41.333 -11 -91 -35 -149
c25.333 -21.333 53.333 -32 84 -32c22.667 0 45.334 6 68.001 18l-1 -13c-20.667 -11.333 -44.334 -17 -71.001 -17c-29.333 0 -58 9.33301 -86 28c-58.667 -100 -119.334 -150 -182.001 -150c-33.333 0 -59.333 9.33301 -78 28s-28 44.667 -28 78c0 46 13 92.667 39 140
c24 44.667 55 82.334 93 113.001c28 22.667 48 34 60 34c3.33301 0 5 -1.33301 5 -4c0 -2 -5 -8.33301 -15 -19c-78.667 -83.333 -118 -174 -118 -272zM225 406.999l-5 0.999023c-15.333 -4 -23 -25.333 -23 -64c0 -51.333 15 -102.666 45 -153.999
c7.33301 35.333 11 73 11 113c0 55.333 -9.33301 90 -28 104z" />
    <glyph glyph-name="oacute" unicode="&#xf3;" horiz-adv-x="423" 
d="M338 605l1 -2.00098c0 -10.667 -24.333 -37.667 -73 -81s-78.667 -65 -90 -65l-5 5c1.33301 6 18.333 34.667 51 86c3.33301 4.66699 13 24.334 29 59.001c10.667 -1.33301 22 -2 34 -2c16 0 32 0.666992 48 2zM38 89.999c0 -54.667 17.668 -82.002 53.001 -82.002
c58 0 106 53.333 144 160c-37.333 53.333 -56 106.333 -56 159c0 66.667 17.667 100 53 100c25.333 0 44.333 -14.333 57 -43c9.33301 -21.333 14.333 -46.666 15 -75.999c0.666992 -41.333 -11 -91 -35 -149c25.333 -21.333 53.333 -32 84 -32c22.667 0 45.334 6 68.001 18
l-1 -13c-20.667 -11.333 -44.334 -17 -71.001 -17c-29.333 0 -58 9.33301 -86 28c-58.667 -100 -119.334 -150 -182.001 -150c-33.333 0 -59.333 9.33301 -78 28s-28 44.667 -28 78c0 46 13 92.667 39 140c24 44.667 55 82.334 93 113.001c28 22.667 48 34 60 34
c3.33301 0 5 -1.33301 5 -4c0 -2 -5 -8.33301 -15 -19c-78.667 -83.333 -118 -174 -118 -272zM224.001 406.997l-5 0.999023c-15.333 -4 -23 -25.333 -23 -64c0 -51.333 15 -102.666 45 -153.999c7.33301 35.333 11 73 11 113c0 55.333 -9.33301 90 -28 104z" />
    <glyph glyph-name="ocircumflex" unicode="&#xf4;" horiz-adv-x="423" 
d="M295 519l17.001 -28c3.33301 -5.33301 6 -12 8 -20v-4c-2 -3.33301 -4.66699 -5 -8 -5c-12.667 0 -29.667 13 -51 39c-14.667 18 -27.667 37.333 -39 58c-54 -64.667 -87.333 -97 -100 -97c-3.33301 0 -5 1.66699 -5 5c0 2.66699 1.66699 6 5 10s11.666 13.333 24.999 28
c27.333 30 46 58 56 84c1.33301 2.66699 3.33301 7.66699 6 15h66c0 -34.667 6.66699 -63 20 -85zM38.001 90c0 -54.667 17.668 -82.002 53.001 -82.002c58 0 106 53.333 144 160c-37.333 53.333 -56 106.333 -56 159c0 66.667 17.667 100 53 100
c25.333 0 44.333 -14.333 57 -43c9.33301 -21.333 14.333 -46.666 15 -75.999c0.666992 -41.333 -11 -91 -35 -149c25.333 -21.333 53.333 -32 84 -32c22.667 0 45.334 6 68.001 18l-1 -13c-20.667 -11.333 -44.334 -17 -71.001 -17c-29.333 0 -58 9.33301 -86 28
c-58.667 -100 -119.334 -150 -182.001 -150c-33.333 0 -59.333 9.33301 -78 28s-28 44.667 -28 78c0 46 13 92.667 39 140c24 44.667 55 82.334 93 113.001c28 22.667 48 34 60 34c3.33301 0 5 -1.33301 5 -4c0 -2 -5 -8.33301 -15 -19c-78.667 -83.333 -118 -174 -118 -272
zM224.002 406.998l-5 0.999023c-15.333 -4 -23 -25.333 -23 -64c0 -51.333 15 -102.666 45 -153.999c7.33301 35.333 11 73 11 113c0 55.333 -9.33301 90 -28 104z" />
    <glyph glyph-name="otilde" unicode="&#xf5;" horiz-adv-x="423" 
d="M81 491c15.333 28 28.6689 47.667 40.002 59c18.667 19.333 39.334 29 62.001 29c11.333 0 32.166 -8.16699 62.499 -24.5s49.166 -24.5 56.499 -24.5c15.333 0 28 5.66699 38 17l29 34h4l6 -4v-4c0 -16 -12.5 -35 -37.5 -57s-45.833 -33 -62.5 -33
c-13.333 0 -36.333 8.66699 -69 26s-53 26 -61 26c-10.667 0 -23.334 -8.33301 -38.001 -25l-22 -25c-5.33301 0 -8 2 -8 6zM38.0029 90c0 -54.667 17.668 -82.002 53.001 -82.002c58 0 106 53.333 144 160c-37.333 53.333 -56 106.333 -56 159c0 66.667 17.667 100 53 100
c25.333 0 44.333 -14.333 57 -43c9.33301 -21.333 14.333 -46.666 15 -75.999c0.666992 -41.333 -11 -91 -35 -149c25.333 -21.333 53.333 -32 84 -32c22.667 0 45.334 6 68.001 18l-1 -13c-20.667 -11.333 -44.334 -17 -71.001 -17c-29.333 0 -58 9.33301 -86 28
c-58.667 -100 -119.334 -150 -182.001 -150c-33.333 0 -59.333 9.33301 -78 28s-28 44.667 -28 78c0 46 13 92.667 39 140c24 44.667 55 82.334 93 113.001c28 22.667 48 34 60 34c3.33301 0 5 -1.33301 5 -4c0 -2 -5 -8.33301 -15 -19c-78.667 -83.333 -118 -174 -118 -272
zM224.004 406.998l-5 0.999023c-15.333 -4 -23 -25.333 -23 -64c0 -51.333 15 -102.666 45 -153.999c7.33301 35.333 11 73 11 113c0 55.333 -9.33301 90 -28 104z" />
    <glyph glyph-name="odieresis" unicode="&#xf6;" horiz-adv-x="423" 
d="M38 90c0 -54.667 17.668 -82.002 53.001 -82.002c58 0 106 53.333 144 160c-37.333 53.333 -56 106.333 -56 159c0 66.667 17.667 100 53 100c25.333 0 44.333 -14.333 57 -43c9.33301 -21.333 14.333 -46.666 15 -75.999c0.666992 -41.333 -11 -91 -35 -149
c25.333 -21.333 53.333 -32 84 -32c22.667 0 45.334 6 68.001 18l-1 -13c-20.667 -11.333 -44.334 -17 -71.001 -17c-29.333 0 -58 9.33301 -86 28c-58.667 -100 -119.334 -150 -182.001 -150c-33.333 0 -59.333 9.33301 -78 28s-28 44.667 -28 78c0 46 13 92.667 39 140
c24 44.667 55 82.334 93 113.001c28 22.667 48 34 60 34c3.33301 0 5 -1.33301 5 -4c0 -2 -5 -8.33301 -15 -19c-78.667 -83.333 -118 -174 -118 -272zM224.001 406.998l-5 0.999023c-15.333 -4 -23 -25.333 -23 -64c0 -51.333 15 -102.666 45 -153.999
c7.33301 35.333 11 73 11 113c0 55.333 -9.33301 90 -28 104zM298.001 536.997c10 0 18.834 -3.83301 26.501 -11.5s11.5 -16.5 11.5 -26.5c0 -8 -3.16699 -16.333 -9.5 -25s-13.5 -13 -21.5 -13h-15c-6.66699 0 -13.334 3.5 -20.001 10.5s-10 13.833 -10 20.5v14
c0 8.66699 4.16699 16 12.5 22s16.833 9 25.5 9zM187.002 497.997c0 -8.66699 -3.33301 -17.001 -10 -25.001s-14 -12 -22 -12h-14c-8 0 -15.167 4.16699 -21.5 12.5s-9.5 16.5 -9.5 24.5c0 10.667 3.66699 19.834 11 27.501s16.333 11.5 27 11.5c10 0 19 -4 27 -12
s12 -17 12 -27z" />
    <glyph glyph-name="divide" unicode="&#xf7;" horiz-adv-x="520" 
d="M490 274v-52h-495v52h495zM291 376c0 -14.667 -5.16699 -27.167 -15.5 -37.5s-22.833 -15.5 -37.5 -15.5s-27.167 5.16699 -37.5 15.5s-15.5 22.833 -15.5 37.5s5.16699 27.167 15.5 37.5s22.833 15.5 37.5 15.5s27.167 -5.16699 37.5 -15.5s15.5 -22.833 15.5 -37.5z
M291 119c0 -14.667 -5.16699 -27 -15.5 -37s-22.833 -15 -37.5 -15s-27.167 5 -37.5 15s-15.5 22.333 -15.5 37s5.16699 27.167 15.5 37.5s22.833 15.5 37.5 15.5s27.167 -5.16699 37.5 -15.5s15.5 -22.833 15.5 -37.5z" />
    <glyph glyph-name="oslash" unicode="&#xf8;" horiz-adv-x="423" 
d="M43 96c0 -12 1.33301 -27 4 -45l148 207c-8.66699 34 -13 58.333 -13 73c0 64.667 20.667 97 62 97c15.333 0 31.666 -10.667 48.999 -32l25 34l4 2h4c2 0 4 -0.666992 6 -2l2 -3v-3c0 -0.666992 -0.333008 -1.66699 -1 -3v-2l-31 -44c5.33301 -30.667 8 -52.667 8 -66
c0 -48.667 -10 -99.667 -30 -153c18.667 -20.667 44.667 -31 78 -31c17.333 0 31.333 3.33301 42 10l2 -4v-3c0 -8 -9 -12 -27 -12c-41.333 0 -75.333 8.66699 -102 26c-15.333 -38 -41.666 -73 -78.999 -105c-40 -34.667 -79 -52 -117 -52c-12.667 0 -28.667 3 -48 9
c-14.667 -22 -24.667 -33 -30 -33h-6c-2 2 -3 4.33301 -3 7c1.33301 3.33301 9 15.666 23 36.999c-14 17.333 -23 31.333 -27 42s-6 26.334 -6 47.001c0 58 24.333 121 73 189c21.333 29.333 58.333 63 111 101h3c0 0.666992 0.666992 1 2 1c3.33301 0 5 -1.33301 5 -4
l-1 -3c-36.667 -36.667 -67 -79.667 -91 -129c-26 -53.333 -39 -104 -39 -152v-1zM260 348c-4 40.667 -15 61 -33 61s-27 -18.667 -27 -56c0 -8.66699 1.5 -21.167 4.5 -37.5s4.5 -28.833 4.5 -37.5zM263 319l-48 -66c4 -12.667 15.333 -33.667 34 -63
c7.33301 40.667 12 83.667 14 129zM107 -1c56 0 101.667 55.668 137 167.001c-20.667 23.333 -35 45.666 -43 66.999l-147 -206c14 -18.667 31.333 -28 52 -28h1z" />
    <glyph glyph-name="ugrave" unicode="&#xf9;" horiz-adv-x="463" 
d="M292 471l2 -7.00195l-3 -5l-3 -2h-3c-18 0 -71 46 -159 138v6c0 2.66699 1 4.33398 3 5.00098c4.66699 -0.666992 16 -1 34 -1c3.33301 0 20.333 0.666992 51 2c28.667 -59.333 54.667 -104.666 78 -135.999zM148 389.998l-0.00195312 -2.99902
c0 -4 -26.333 -72.667 -79 -206c-28 -71.333 -42 -118.333 -42 -141c0 -14 9 -24.667 27 -32c3.33301 0 6.33301 -0.333008 9 -1h9c18.667 0 40.667 7.66699 66 23c12.667 7.33301 32.667 21 60 41c8.66699 45.333 23.334 95.333 44.001 150l56 146
c18 7.33301 42 14.666 72 21.999l4 -3v-3c-15.333 -32.667 -38.333 -91.334 -69 -176.001c-34 -94 -51 -150 -51 -168c0 -22.667 16.667 -34 50 -34c42.667 0 94.334 23.333 155.001 70v-16c-58.667 -44 -110.667 -66 -156 -66c-20.667 0 -41 5.33301 -61 16
c-22.667 12 -36 27.333 -40 46c-46.667 -39.333 -91 -59 -133 -59c-24 0 -44.667 6.33301 -62 19c-19.333 14 -29 32.333 -29 55c0 26 13.333 75.333 40 148l56 151c32.667 12.667 56 20.334 70 23.001z" />
    <glyph glyph-name="uacute" unicode="&#xfa;" horiz-adv-x="463" 
d="M356 605l2 -3c-2 -11.333 -27.167 -38.5 -75.5 -81.5s-77.833 -64.167 -88.5 -63.5c-3.33301 2 -5 3.66699 -5 5c0 4.66699 17 33.334 51 86.001c6.66699 10 15.667 29.667 27 59c2 -0.666992 14.333 -1.33398 37 -2.00098c12 -0.666992 28 0 48 2zM148 390
l-0.00195312 -2.99902c0 -4 -26.333 -72.667 -79 -206c-28 -71.333 -42 -118.333 -42 -141c0 -14 9 -24.667 27 -32c3.33301 0 6.33301 -0.333008 9 -1h9c18.667 0 40.667 7.66699 66 23c12.667 7.33301 32.667 21 60 41c8.66699 45.333 23.334 95.333 44.001 150l56 146
c18 7.33301 42 14.666 72 21.999l4 -3v-3c-15.333 -32.667 -38.333 -91.334 -69 -176.001c-34 -94 -51 -150 -51 -168c0 -22.667 16.667 -34 50 -34c42.667 0 94.334 23.333 155.001 70v-16c-58.667 -44 -110.667 -66 -156 -66c-20.667 0 -41 5.33301 -61 16
c-22.667 12 -36 27.333 -40 46c-46.667 -39.333 -91 -59 -133 -59c-24 0 -44.667 6.33301 -62 19c-19.333 14 -29 32.333 -29 55c0 26 13.333 75.333 40 148l56 151c32.667 12.667 56 20.334 70 23.001z" />
    <glyph glyph-name="ucircumflex" unicode="&#xfb;" horiz-adv-x="463" 
d="M320 502c4 -5.33301 9.99902 -15.667 17.999 -31v-4l-2 -3l-3 -2h-4c-11.333 0 -28 13.333 -50 40c-18 22 -31 41 -39 57c-54 -64.667 -87.333 -97 -100 -97c-2.66699 0 -4 2.66699 -4 8c0 2 10 13.667 30 35c14 15.333 34.333 48.333 61 99h66l7 -53
c4.66699 -18.667 11.334 -35 20.001 -49zM147.999 389.999l-0.00195312 -2.99902c0 -4 -26.333 -72.667 -79 -206c-28 -71.333 -42 -118.333 -42 -141c0 -14 9 -24.667 27 -32c3.33301 0 6.33301 -0.333008 9 -1h9c18.667 0 40.667 7.66699 66 23
c12.667 7.33301 32.667 21 60 41c8.66699 45.333 23.334 95.333 44.001 150l56 146c18 7.33301 42 14.666 72 21.999l4 -3v-3c-15.333 -32.667 -38.333 -91.334 -69 -176.001c-34 -94 -51 -150 -51 -168c0 -22.667 16.667 -34 50 -34c42.667 0 94.334 23.333 155.001 70v-16
c-58.667 -44 -110.667 -66 -156 -66c-20.667 0 -41 5.33301 -61 16c-22.667 12 -36 27.333 -40 46c-46.667 -39.333 -91 -59 -133 -59c-24 0 -44.667 6.33301 -62 19c-19.333 14 -29 32.333 -29 55c0 26 13.333 75.333 40 148l56 151c32.667 12.667 56 20.334 70 23.001z
" />
    <glyph glyph-name="udieresis" unicode="&#xfc;" horiz-adv-x="463" 
d="M148 390l-0.00195312 -2.99902c0 -4 -26.333 -72.667 -79 -206c-28 -71.333 -42 -118.333 -42 -141c0 -14 9 -24.667 27 -32c3.33301 0 6.33301 -0.333008 9 -1h9c18.667 0 40.667 7.66699 66 23c12.667 7.33301 32.667 21 60 41
c8.66699 45.333 23.334 95.333 44.001 150l56 146c18 7.33301 42 14.666 72 21.999l4 -3v-3c-15.333 -32.667 -38.333 -91.334 -69 -176.001c-34 -94 -51 -150 -51 -168c0 -22.667 16.667 -34 50 -34c42.667 0 94.334 23.333 155.001 70v-16
c-58.667 -44 -110.667 -66 -156 -66c-20.667 0 -41 5.33301 -61 16c-22.667 12 -36 27.333 -40 46c-46.667 -39.333 -91 -59 -133 -59c-24 0 -44.667 6.33301 -62 19c-19.333 14 -29 32.333 -29 55c0 26 13.333 75.333 40 148l56 151c32.667 12.667 56 20.334 70 23.001z
M358.998 500.001c0 -8.66699 -3.16797 -17.167 -9.50098 -25.5s-13.5 -12.5 -21.5 -12.5h-15c-8.66699 0 -16 4.16699 -22 12.5s-9 16.833 -9 25.5c0 9.33301 4 18 12 26s16.667 12 26 12c10.667 0 19.834 -3.66699 27.501 -11s11.5 -16.333 11.5 -27zM208.997 499.001
c0 -9.33301 -4 -18 -12 -26s-16.667 -12 -26 -12s-18 4 -26 12s-12 16.667 -12 26c0 25.333 15 38 45 38c8.66699 0 16 -4.16699 22 -12.5s9 -16.833 9 -25.5z" />
    <glyph glyph-name="ydieresis" unicode="&#xff;" horiz-adv-x="442" 
d="M307 537c8 0 15.167 -4.16699 21.5 -12.5s9.5 -16.833 9.5 -25.5s-3 -17 -9 -25s-13.333 -12 -22 -12h-14c-8.66699 0 -16 4 -22 12s-9 16.333 -9 25s3.16699 17.167 9.5 25.5s13.5 12.5 21.5 12.5h14zM189 506l0.000976562 -13.999c0 -8 -4.16699 -15.167 -12.5 -21.5
s-16.833 -9.5 -25.5 -9.5c-10 0 -19 3.66699 -27 11s-12 16 -12 26c0 11.333 3.66699 20.666 11 27.999s16.666 11 27.999 11c8 0 16.333 -3.16699 25 -9.5s13 -13.5 13 -21.5zM145.001 384.001c-76.667 -188 -115.001 -298.334 -115.001 -331.001c0 -30 13.333 -45 40 -45
s67 18 121 54l103 290c5.33301 2.66699 29.333 16 72 40c2 0 3 -1 3 -3c0 -7.33301 -24 -74.666 -72 -201.999c-46.667 -123.333 -76 -198 -88 -224c34.667 9.33301 76 24.333 124 45c54 23.333 92.333 44 115 62l-1 -14c-70 -36.667 -150.667 -71.667 -242 -105
c-50 -94 -98.333 -141 -145 -141c-9.33301 0 -17.666 3.66699 -24.999 11c-2.66699 7.33301 -4 12 -4 14c0 41.333 38 76 114 104l37 102c-43.333 -29.333 -82.333 -44 -117 -44c-53.333 0 -80 27.333 -80 82c0 30.667 11.667 76.667 35 138l54 139l69 33
c1.33301 -1.33301 2 -3 2 -5zM45 -170l4.00195 -8c4.66699 -2.66699 8.66699 -4 12 -4c19.333 0 36 14 50 42c9.33301 18 18.666 40 27.999 66c-36.667 -22 -56.334 -34 -59.001 -36c-24 -18 -36 -35.667 -36 -53v-4c0.666992 -0.666992 1 -1.66699 1 -3z" />
    <glyph glyph-name="OE" unicode="&#x152;" horiz-adv-x="1006" 
d="M556 477c0 -33.333 -5.33105 -79.668 -15.998 -139.001c9.33301 6.66699 26.666 13 51.999 19c28 6 46.667 11.833 56 17.5s15.333 24.167 18 55.5l4 62c2.66699 38 5.33398 64 8.00098 78c5.33301 29.333 14.333 54 27 74c35.333 56.667 80 85 134 85
c28 0 51.333 -7.66699 70 -23s28 -36.666 28 -63.999c0 -60.667 -48.667 -126 -146 -196c-3.33301 2 -5.33301 3.66699 -6 5v5c34 27.333 63 57.333 87 90c30.667 41.333 46 79 46 113c0 34.667 -16.333 52 -49 52c-52.667 0 -99.667 -66.333 -141 -199
c-4 -14.667 -12.333 -42.667 -25 -84c-12 -37.333 -27.333 -60.666 -46 -69.999l-40 -20c-38.667 -20 -72 -47.667 -100 -83c-30.667 -40 -46 -80 -46 -120c0 -41.333 13.333 -73.5 40 -96.5s61 -34.5 103 -34.5c72.667 0 144 25 214 75c76.667 54.667 115 116.667 115 186
c0 1.33301 0.666992 2 2 2c3.33301 0 7 -8.16699 11 -24.5s6 -27.833 6 -34.5c0 -40 -21.667 -80.667 -65 -122c-68 -64.667 -158 -97 -270 -97c-106 0 -179 38.667 -219 116c-42.667 -36.667 -77.667 -63 -105 -79c-43.333 -25.333 -84.333 -38 -123 -38
c-72.667 0 -128.334 26 -167.001 78c-34.667 46 -52 106.667 -52 182c0 136.667 70 263.667 210 381c31.333 26 52.666 40.333 63.999 43l3 -4c-10.667 -20.667 -29.667 -46.667 -57 -78c-30 -34 -50 -59.333 -60 -76c-64.667 -109.333 -97 -220 -97 -332
c0 -50.667 9.33301 -91.667 28 -123c22.667 -38.667 57.667 -58 105 -58c72 0 137.333 38.667 196 116c41.333 54 76.166 123.167 104.499 207.5s42.5 160.5 42.5 228.5c0 94.667 -32.667 142 -98 142c-68 0 -129.333 -51.667 -184 -155l-41 -109
c-2 0 -3.66699 1.66699 -5 5c7.33301 72 29 133.333 65 184c42.667 60 97.334 90 164.001 90c53.333 0 94 -27 122 -81c22 -42.667 33 -93.334 33 -152.001z" />
    <glyph glyph-name="oe" unicode="&#x153;" horiz-adv-x="583" 
d="M447 393c18 0 32.332 -5.99902 42.999 -17.999s16 -27 16 -45c0 -42.667 -24.667 -86 -74 -130c-36 -32.667 -80 -61.667 -132 -87v-12c0 -30 8 -54 24 -72s38.667 -27 68 -27c51.333 0 115 28 191 84v-14c-69.333 -53.333 -143 -80 -221 -80c-32 0 -59.667 8 -83 24
c-26.667 18 -40 42.333 -40 73c-52 -64.667 -106.667 -97 -164 -97c-30 0 -54.667 8.16699 -74 24.5s-29 39.166 -29 68.499c0 60.667 28.667 126.667 86 198c60 75.333 119.333 113 178 113c46.667 0 76.334 -26 89.001 -78c32 29.333 50.333 46 55 50
c23.333 16.667 46 25 68 25h-1zM237.999 386.001c-46.667 0 -93.667 -39.334 -141 -118.001c-44 -73.333 -66 -134.666 -66 -183.999c0 -54 19.333 -81 58 -81c53.333 0 101 41.333 143 124c36.667 72 55 138 55 198c0 15.333 -4.5 29.333 -13.5 42s-20.833 19 -35.5 19z
M451.999 382c-24.667 0 -53.333 -28 -86 -84c-28 -48 -45.333 -87.667 -52 -119c-2 -10.667 -6.33301 -29.667 -13 -57c54 37.333 93 72.333 117 105c38.667 52.667 58 93 58 121c0 22.667 -8 34 -24 34z" />
    <glyph glyph-name="Ydieresis" unicode="&#x178;" horiz-adv-x="845" 
d="M642 783c0 -10.667 -3.66699 -19.834 -11 -27.501s-16.333 -11.5 -27 -11.5s-19.834 3.83301 -27.501 11.5s-11.5 16.834 -11.5 27.501s3.83301 19.667 11.5 27s16.834 11 27.501 11c9.33301 0 18 -4 26 -12s12 -16.667 12 -26zM492 789l-0.000976562 -15.001
c0 -8 -4 -15 -12 -21s-16.333 -9 -25 -9c-26 0 -39 12.333 -39 37c0 10.667 3.83301 19.834 11.5 27.501s16.834 11.5 27.501 11.5c7.33301 0 15.333 -3.33301 24 -10s13 -13.667 13 -21zM808.999 696.999c2.66699 0 3.99609 -1.66797 3.99609 -5.00098
c0 -8.66699 -30.667 -103.334 -92 -284.001c-56.667 -166.667 -93.667 -272.334 -111 -317.001c50 12 118.667 27 206 45c2.66699 0 4 -1 4 -3c0 -8 -4.33301 -16.333 -13 -25c-87.333 -10 -155.666 -21 -204.999 -33c-36 -65.333 -77.667 -122.666 -125 -171.999
c-63.333 -66 -122 -99 -176 -99c-39.333 0 -59 19 -59 57c0 48 38.667 94 116 138c52.667 30 113.334 54.333 182.001 73c19.333 54 77 226.667 173 518c-95.333 -182.667 -159.666 -300 -192.999 -352c-105.333 -162.667 -195.666 -244 -270.999 -244
c-17.333 0 -31.333 7.66699 -42 23c-9.33301 13.333 -14 29.333 -14 48c0 38 26 114.333 78 229l107 236c25.333 56 38 95.333 38 118c0 30 -20.667 45 -62 45c-32 0 -71.667 -12.667 -119 -38c-37.333 -20 -72.333 -43.667 -105 -71c-95.333 -80 -143 -164.333 -143 -253
c0 -55.333 26.333 -118.333 79 -189v-2c0 -1.33301 -0.666992 -2.66602 -2 -3.99902c-0.666992 0.666992 -1.33398 1 -2.00098 1c-61.333 58 -92 129.333 -92 214c0 134.667 75.333 238.334 226 311.001c62.667 30 121 45 175 45c26.667 0 49 -7 67 -21s27 -34 27 -60
c0 -44 -26 -123 -78 -237l-112 -242c-24.667 -53.333 -37 -93.333 -37 -120c0 -14.667 5.66699 -22 17 -22c62.667 0 154.334 95 275.001 285c93.333 146 162.333 273.667 207 383c32 9.33301 54.667 17.333 68 24h4zM257.995 -150.002c0 -26 14.333 -39.001 43 -39.001
c45.333 0 92.666 30.333 141.999 91c34.667 42.667 65.334 94.334 92.001 155.001c-184 -69.333 -276 -138.333 -276 -207h-1z" />
    <glyph glyph-name="florin" unicode="&#x192;" horiz-adv-x="0" 
d="M251 768l0.999023 -6.99805l-3 -5l-4 -2c-13.333 0.666992 -44.666 28.667 -93.999 84c-48.667 -48.667 -81.667 -76.334 -99 -83.001h-3c-2.66699 0 -4 2 -4 6c8.66699 10.667 26 30.334 52 59.001c8.66699 9.33301 21 27.666 37 54.999h66
c12 -32.667 19 -51.334 21 -56.001c8.66699 -20.667 18.667 -37.667 30 -51z" />
    <glyph glyph-name="circumflex" unicode="&#x2c6;" horiz-adv-x="0" 
d="M93 600c0 -38 8.66602 -70.333 25.999 -97c13.333 -20.667 19.666 -32.667 18.999 -36l-2 -3l-3 -2h-3c-11.333 0 -28.166 13 -50.499 39s-35.166 45.333 -38.499 58c-58 -64.667 -91.667 -97 -101 -97c-2.66699 0 -4 2.66699 -4 8c0 20.667 12.333 43.667 37 69
c28.667 29.333 46.667 51 54 65h67z" />
    <glyph glyph-name="tilde" unicode="&#x2dc;" horiz-adv-x="0" 
d="M-91 485c-5.33301 0 -8.00195 2 -8.00195 6c2.66699 20 14.834 39.667 36.501 59s42.834 29 63.501 29c12.667 0 34 -8.33301 64 -25s48.667 -25 56 -25c14.667 0 27.667 5.66699 39 17c1.33301 2 10.333 13.667 27 35h4c4.66699 0 7 -2.66699 7 -8
c-8 -21.333 -21.333 -41 -40 -59c-21.333 -20.667 -42 -31 -62 -31c-13.333 0 -36 8.66699 -68 26s-52 26 -60 26c-16.667 0 -35 -16 -55 -48l-3 -2h-1z" />
    <glyph glyph-name="afii10023" unicode="&#x401;" horiz-adv-x="583" 
d="M524 791v-15.001c0 -8.66699 -4 -16.167 -12 -22.5s-16.667 -9.5 -26 -9.5c-10.667 0 -19.667 3.83301 -27 11.5s-11 16.834 -11 27.501s3.66699 19.667 11 27s16.333 11 27 11c8.66699 0 17.167 -3 25.5 -9s12.5 -13 12.5 -21zM376 780.999
c0 -10 -4.00098 -18.668 -12.001 -26.001s-17 -11 -27 -11s-19 3.66699 -27 11s-12 16 -12 26c0 10.667 3.83301 19.834 11.5 27.501s16.834 11.5 27.501 11.5c10 0 19 -4 27 -12s12 -17 12 -27zM530.999 634.998c0 -34 -16.333 -72.332 -49 -114.999
s-65.334 -68 -98.001 -76h-4c-0.666992 0 -1 0.666992 -1 2c0.666992 2 1 3.33301 1 4c30.667 20.667 59.667 50.667 87 90c30.667 43.333 46 81.333 46 114c0 14.667 -4.66699 26.667 -14 36s-21.333 14 -36 14c-49.333 0 -92 -52.667 -128 -158l-44 -130
c-6.66699 -20 -13.5 -33.833 -20.5 -41.5s-20.167 -16.167 -39.5 -25.5c-111.333 -54 -167 -126 -167 -216c0 -42 14 -74.667 42 -98s63.333 -35 106 -35c63.333 0 131.666 24.333 204.999 73c81.333 54 122 110.333 122 169v6c-0.666992 2.66699 -1 4.66699 -1 6l3 4l5 -2
c6 -18 9 -31 9 -39c0 -70 -39 -127.667 -117 -173c-65.333 -38 -136.333 -57 -213 -57c-60.667 0 -111.334 12.333 -152.001 37c-49.333 29.333 -74 72.333 -74 129c0 86 49.667 148.667 149 188c16.667 3.33301 44.667 12 84 26c16.667 8 26.334 26.333 29.001 55
c0.666992 12.667 2.33398 35.667 5.00098 69c14.667 154 71.334 231 170.001 231c27.333 0 50 -7.83301 68 -23.5s27 -36.834 27 -63.501z" />
    <glyph glyph-name="afii10053" unicode="&#x404;" horiz-adv-x="583" 
d="M97 373c-30.667 -79.333 -46.001 -148.999 -46.001 -208.999c0 -58 18.667 -102.333 56 -133s89.666 -46 156.999 -46c92.667 0 197.667 33.667 315 101v-14c-89.333 -71.333 -189.333 -107 -300 -107c-41.333 0 -79.666 6.16699 -114.999 18.5s-66 29.833 -92 52.5
s-46.5 49.834 -61.5 81.501s-22.5 66.5 -22.5 104.5c0 58 13.333 116 40 174c23.333 50 49.5 94.167 78.5 132.5s64.167 73.5 105.5 105.5c70.667 54.667 141 82 211 82c24 0 45.667 -4.16699 65 -12.5s35.666 -19.833 48.999 -34.5s23.5 -32.334 30.5 -53.001
s10.5 -43.334 10.5 -68.001l-21 20c0 40.667 -10.833 73 -32.5 97s-52.5 36 -92.5 36c-31.333 0 -62.666 -7.66699 -93.999 -23s-61.666 -37.333 -90.999 -66s-56.833 -63.167 -82.5 -103.5s-48.167 -85.5 -67.5 -135.5zM94.999 387.001l18 0.000976562h17
c5.33301 0 11.5 -0.5 18.5 -1.5s15.667 -2.33301 26 -4s23.166 -4.16699 38.499 -7.5l64 -12c2.66699 0 5 -0.166992 7 -0.5s3.66699 -0.5 5 -0.5c22 0 42.333 8.66699 61 26l9 -6c-18.667 -13.333 -41 -23.5 -67 -30.5s-55.333 -10.5 -88 -10.5
c-5.33301 0 -12.166 0.5 -20.499 1.5s-17 2.16699 -26 3.5l-26.5 4c-8.66699 1.33301 -15.667 2.66602 -21 3.99902l-26 8z" />
    <glyph glyph-name="uni0406" unicode="&#x406;" horiz-adv-x="624" 
d="M597 648c-36.667 0 -91.499 3.66504 -164.499 10.998s-127.833 11 -164.5 11c-42 0 -74.333 -3.66699 -97 -11c-29.333 -9.33301 -54.666 -28.333 -75.999 -57l-65 -87c-0.666992 -0.666992 -2 -1 -4 -1c0 1.33301 -1.33301 2.33301 -4 3l-1 3c6 22 24.667 50.667 56 86
c62.667 70.667 146 106 250 106c21.333 0 80 -10 176 -30c34.667 -7.33301 76 -16.666 124 -27.999l4 -5v-2c0 -2.66699 -4.66699 -11.334 -14 -26.001c-14.667 -28 -28 -67 -40 -117l-30 -123c-3.33301 -13.333 -7 -26.333 -11 -39c-19.333 -61.333 -42.333 -114 -69 -158
l137 -58c0.666992 -2 1 -7.33301 1 -16l-1 -2l-145 63c-47.333 -61.333 -93 -105.666 -137 -132.999c-53.333 -33.333 -114.333 -50 -183 -50c-44 0 -80.333 10.333 -109 31c-32.667 23.333 -49 56 -49 98c0 44.667 20.667 78.667 62 102c34 19.333 75.333 29 124 29
c57.333 0 136.666 -14.667 237.999 -44c19.333 39.333 39.666 90.333 60.999 153c25.333 72.667 45 124.334 59 155.001c24 52 55.333 97.333 94 136h-22zM204.001 224.998c-52 0 -96.333 -8.66699 -133 -26c-48.667 -22.667 -73 -57 -73 -103c0 -34 15.333 -60 46 -78
c25.333 -15.333 56 -23 92 -23c111.333 0 200 65.333 266 196l-99 22c-36 8 -69.333 12 -100 12h1z" />
    <glyph glyph-name="afii10056" unicode="&#x407;" horiz-adv-x="624" 
d="M540 783c0 -10.667 -3.83203 -19.833 -11.499 -27.5s-16.834 -11.5 -27.501 -11.5c-24.667 0 -37 13 -37 39c0 10.667 3.5 19.667 10.5 27s15.833 11 26.5 11c26 0 39 -12.667 39 -38zM390.001 781.001c0 -24.667 -12.667 -37 -38 -37c-10.667 0 -19.667 3.5 -27 10.5
s-11 15.833 -11 26.5s3.66699 19.834 11 27.501s16.333 11.5 27 11.5s19.667 -3.83301 27 -11.5s11 -16.834 11 -27.501zM597.001 648.001c-36.667 0 -91.499 3.66504 -164.499 10.998s-127.833 11 -164.5 11c-42 0 -74.333 -3.66699 -97 -11
c-29.333 -9.33301 -54.666 -28.333 -75.999 -57l-65 -87c-0.666992 -0.666992 -2 -1 -4 -1c0 1.33301 -1.33301 2.33301 -4 3l-1 3c6 22 24.667 50.667 56 86c62.667 70.667 146 106 250 106c21.333 0 80 -10 176 -30c34.667 -7.33301 76 -16.666 124 -27.999l4 -5v-2
c0 -2.66699 -4.66699 -11.334 -14 -26.001c-14.667 -28 -28 -67 -40 -117l-30 -123c-3.33301 -13.333 -7 -26.333 -11 -39c-19.333 -61.333 -42.333 -114 -69 -158l137 -58c0.666992 -2 1 -7.33301 1 -16l-1 -2l-145 63c-47.333 -61.333 -93 -105.666 -137 -132.999
c-53.333 -33.333 -114.333 -50 -183 -50c-44 0 -80.333 10.333 -109 31c-32.667 23.333 -49 56 -49 98c0 44.667 20.667 78.667 62 102c34 19.333 75.333 29 124 29c57.333 0 136.666 -14.667 237.999 -44c19.333 39.333 39.666 90.333 60.999 153
c25.333 72.667 45 124.334 59 155.001c24 52 55.333 97.333 94 136h-22zM204.002 224.999c-52 0 -96.333 -8.66699 -133 -26c-48.667 -22.667 -73 -57 -73 -103c0 -34 15.333 -60 46 -78c25.333 -15.333 56 -23 92 -23c111.333 0 200 65.333 266 196l-99 22
c-36 8 -69.333 12 -100 12h1z" />
    <glyph glyph-name="afii10062" unicode="&#x40e;" horiz-adv-x="845" 
d="M809 697c2.66699 0 3.99609 -1.66797 3.99609 -5.00098c0 -8.66699 -30.667 -103.334 -92 -284.001c-56.667 -166.667 -93.667 -272.334 -111 -317.001c50 12 118.667 27 206 45c2.66699 0 4 -1 4 -3c0 -8 -4.33301 -16.333 -13 -25
c-87.333 -10 -155.666 -21 -204.999 -33c-36 -65.333 -77.667 -122.666 -125 -171.999c-63.333 -66 -122 -99 -176 -99c-39.333 0 -59 19 -59 57c0 48 38.667 94 116 138c52.667 30 113.334 54.333 182.001 73c19.333 54 77 226.667 173 518
c-95.333 -182.667 -159.666 -300 -192.999 -352c-105.333 -162.667 -195.666 -244 -270.999 -244c-17.333 0 -31.333 7.66699 -42 23c-9.33301 13.333 -14 29.333 -14 48c0 38 26 114.333 78 229l107 236c25.333 56 38 95.333 38 118c0 30 -20.667 45 -62 45
c-32 0 -71.667 -12.667 -119 -38c-37.333 -20 -72.333 -43.667 -105 -71c-95.333 -80 -143 -164.333 -143 -253c0 -55.333 26.333 -118.333 79 -189v-2c0 -1.33301 -0.666992 -2.66602 -2 -3.99902c-0.666992 0.666992 -1.33398 1 -2.00098 1
c-61.333 58 -92 129.333 -92 214c0 134.667 75.333 238.334 226 311.001c62.667 30 121 45 175 45c26.667 0 49 -7 67 -21s27 -34 27 -60c0 -44 -26 -123 -78 -237l-112 -242c-24.667 -53.333 -37 -93.333 -37 -120c0 -14.667 5.66699 -22 17 -22
c62.667 0 154.334 95 275.001 285c93.333 146 162.333 273.667 207 383c32 9.33301 54.667 17.333 68 24h4zM257.996 -150.001c0 -26 14.333 -39.001 43 -39.001c45.333 0 92.666 30.333 141.999 91c34.667 42.667 65.334 94.334 92.001 155.001
c-184 -69.333 -276 -138.333 -276 -207h-1zM642.996 724.998c-5.33301 19.333 -3.00195 42.5039 6.99805 69.5039s24 45.167 42 54.5c10.667 5.33301 33.167 7.66602 67.5 6.99902s54.833 0.666016 61.5 3.99902c16.667 8 26.334 20.667 29.001 38c3.33301 22 6 34.333 8 37
l2 2l8 -1l3 -2c2 -22.667 -1 -46.334 -9 -71.001c-9.33301 -28.667 -23 -47.334 -41 -56.001c-12.667 -6.66699 -37.167 -9.5 -73.5 -8.5s-57.833 -0.5 -64.5 -4.5c-11.333 -5.33301 -21.666 -29 -30.999 -71c-3.33301 -2 -6.33301 -1.33301 -9 2z" />
    <glyph glyph-name="afii10017" unicode="&#x410;" horiz-adv-x="905" 
d="M843 669c0 -32.667 -35.668 -142.002 -107.001 -328.002l6 -1c9.33301 0 23.5 0.666992 42.5 2s33.167 2 42.5 2c8 0 13.333 -0.333008 16 -1c-4 -16.667 -12 -25.334 -24 -26.001l-90 -4l-50 -133c-24 -64 -36 -106.333 -36 -127
c0 -13.333 4.83301 -24.166 14.5 -32.499s21.167 -12.5 34.5 -12.5c47.333 0 112.333 27.333 195 82l-1 -10c-69.333 -53.333 -135.333 -80 -198 -80c-72 0 -108 23.333 -108 70c0 22.667 10.333 63.334 31 122.001l45 127l-88 4l-51 -89
c-20.667 -35.333 -39.667 -63.666 -57 -84.999c-89.333 -107.333 -192.666 -161 -309.999 -161c-53.333 0 -96.333 9.66699 -129 29c-40.667 24 -61 60.667 -61 110c0 46.667 24.667 90 74 130c78.667 64 184 96 316 96c75.333 0 142.333 -2.33301 201 -7l108 215
c52.667 104.667 101.667 157 147 157c24.667 0 37 -16.333 37 -49zM796.999 697.998c0 5.33301 -1.66699 8 -5 8c-4 0 -8.66699 -2.66699 -14 -8c-32 -24 -69.333 -78.667 -112 -164l-92 -189l89 -3zM328.999 345.998c-73.333 0 -139.333 -17.668 -198 -53.001
c-68 -41.333 -102 -96.666 -102 -165.999c0 -42 12.667 -74 38 -96s59.333 -33 102 -33c146 0 270.333 110 373 330c-122 12 -193.333 18 -214 18h1z" />
    <glyph glyph-name="afii10018" unicode="&#x411;" horiz-adv-x="785" 
d="M440 396c1.33301 0.666992 3.82812 2.8291 7.49512 6.49609s7.16699 5.5 10.5 5.5c14 0 33.167 -2.5 57.5 -7.5s48.333 -14.333 72 -28s44.5 -32.667 62.5 -57s28.333 -56.166 31 -95.499v1c0 -31.333 -9.66699 -60.666 -29 -87.999s-45.333 -51.333 -78 -72
s-70.5 -37.167 -113.5 -49.5s-88.167 -18.833 -135.5 -19.5h11c0 0.666992 -6.66699 1.16699 -20 1.5s-30.166 0.666016 -50.499 0.999023s-42.166 0.833008 -65.499 1.5s-45.166 1.5 -65.499 2.5s-37.166 2.33301 -50.499 4s-20 3.83398 -20 6.50098
c42 14 78.167 29 108.5 45s56.166 38 77.499 66c30 40 56.667 102.667 80 188l47 172c8 30 15 54.167 21 72.5s11.5 33.166 16.5 44.499s10 19.833 15 25.5s10.667 10.667 17 15s13.5 8.83301 21.5 13.5s17.667 11.667 29 21l4 -1c1.33301 -1.33301 2 -3 2 -5
s-1.66699 -8.5 -5 -19.5l-12 -39.5c-4.66699 -15.333 -10 -31.666 -16 -48.999s-11.333 -33.5 -16 -48.5l-12 -37.5l-5 -15c-17.333 -66.667 -33.666 -121.5 -48.999 -164.5s-29.333 -75.167 -42 -96.5c-42.667 -72 -113.667 -130.667 -213 -176
c43.333 -10.667 97.333 -16 162 -16c55.333 0 102.833 6.83301 142.5 20.5s72.334 31.334 98.001 53.001s44.5 46.334 56.5 74.001s18 55.5 18 83.5c0 30 -5 55 -15 75s-23 36.167 -39 48.5s-34.167 21.333 -54.5 27s-40.833 9.16699 -61.5 10.5zM-18.0049 394.995
c0 43.333 9.82715 83.8359 29.4941 121.503s46.334 70.667 80.001 99s72.834 51 117.501 68s92.334 26.5 143.001 28.5c8 0.666992 16.5 1 25.5 1h28.5c12 0 28.5 -1 49.5 -3l70 -7c25.667 -2.66699 52.334 -5.66699 80.001 -9s54.334 -6.33301 80.001 -9l70 -7
c21 -2 37.5 -3 49.5 -3c4 -4 6 -7 6 -9c0 -12 -5 -22 -15 -30s-21.333 -12 -34 -12c-13.333 0 -31.666 1.16699 -54.999 3.5s-49.166 5.16602 -77.499 8.49902s-57.833 7 -88.5 11s-60.167 7.66699 -88.5 11s-54.333 6.16602 -78 8.49902s-42.167 3.5 -55.5 3.5
c-46 0 -88.333 -6.33301 -127 -19s-72 -30.5 -100 -53.5s-49.833 -51 -65.5 -84s-23.5 -69.5 -23.5 -109.5c0 -60.667 22.667 -121.667 68 -183l1 -7l-3 -3l-4 1l-23.5 28c-9.66699 11.333 -18.834 24.5 -27.501 39.5s-16.167 32.167 -22.5 51.5s-9.5 40.666 -9.5 63.999z
" />
    <glyph glyph-name="afii10019" unicode="&#x412;" horiz-adv-x="785" 
d="M681 221c0 -71.333 -43.334 -129.335 -130.001 -174.002c-68.667 -35.333 -144 -53.666 -226 -54.999c11.333 0 13.666 0.333008 6.99902 1s-21.667 1.33398 -45 2.00098s-61.666 1.66699 -114.999 3c-26 0.666992 -60.333 3.33398 -103 8.00098c-3.33301 0 -5 1 -5 3
c2.66699 0.666992 6.66699 3 12 7c78 20 136 54.667 174 104c29.333 38.667 56 101.334 80 188.001l47 172c24.667 90 44 140.333 58 151c14.667 6.66699 35.334 20.334 62.001 41.001l4 -1c1.33301 -1.33301 2 -3 2 -5c0 -11.333 -9.66699 -44.666 -29 -99.999
c-22.667 -64.667 -35 -101 -37 -109c-35.333 -130.667 -65.666 -217.667 -90.999 -261c-42.667 -72.667 -113.667 -131.334 -213 -176.001c49.333 -10.667 103.333 -16 162 -16c94.667 0 166.667 18.333 216 55c66 49.333 99 108 99 176c0 57.333 -27.667 95.333 -83 114
c-14 4.66699 -29 11 -45 19l-1 4c0 0.666992 0.333008 1.66699 1 3v3l70 40c54 43.333 81 93.333 81 150c0 88 -61.333 132 -184 132c-106.667 0 -207 -31.333 -301 -94c-106 -70.667 -159 -156.334 -159 -257.001c0 -30 13.333 -70.333 40 -121
c0.666992 -4.66699 1 -7.33398 1 -8.00098l-2 -3h-1c-12.667 0 -25 21.667 -37 65c-10.667 38 -16 65.667 -16 83c0 110 48.667 197.333 146 262c86 57.333 186.333 86 301 86c70 0 130 -10.667 180 -32c66.667 -28.667 100 -73.334 100 -134.001
c0 -42 -25.333 -79 -76 -111c-16.667 -10.667 -60.667 -32 -132 -64c49.333 -8 90.666 -23 123.999 -45c42.667 -28 64 -63.667 64 -107v1z" />
    <glyph glyph-name="afii10020" unicode="&#x413;" horiz-adv-x="704" 
d="M-18 395c0 92 39.6641 168.333 118.997 229c71.333 54.667 155 84 251 88c16 0.666992 34 1 54 1c44.667 0 111.167 -6.33301 199.5 -19s154.833 -19 199.5 -19c4 -4 6 -7 6 -9c0 -12 -5 -22 -15 -30s-21.333 -12 -34 -12c-49.333 0 -123.166 7.66699 -221.499 23
s-172.166 23 -221.499 23c-88 0 -161 -22 -219 -66c-64.667 -48 -97 -114.667 -97 -200c0 -61.333 22.667 -122.333 68 -183l1 -7l-3 -3l-4 1c-15.333 18 -35.666 45.667 -60.999 83c-14.667 28.667 -22 62 -22 100zM272.997 222c21.333 0 46.335 -2.66602 75.002 -7.99902
c39.333 -7.33301 59 -16.666 59 -27.999c-2 -2.66699 -4.33301 -4 -7 -4c-11.333 0 -27.833 2.5 -49.5 7.5s-37.834 7.5 -48.501 7.5c-50 0 -95.333 -9.66699 -136 -29c-53.333 -25.333 -80 -59.333 -80 -102c0 -62 41.667 -93 125 -93c136 0 230 85.667 282 257l60 201
c7.33301 24.667 23.666 61.334 48.999 110.001c30.667 58 52.667 87 66 87c1.33301 -0.666992 3 -2.33398 5 -5.00098l-1 -5l-85 -275c-34.667 -112.667 -76.667 -199.334 -126 -260.001c-66 -82 -149 -123 -249 -123c-39.333 0 -72 8.33301 -98 25
c-30 19.333 -45 47.666 -45 84.999c0 48.667 22.667 87 68 115c38.667 24 83.667 36 135 36z" />
    <glyph glyph-name="afii10021" unicode="&#x414;" horiz-adv-x="865" 
d="M586 665c-4.66699 -6.66699 -20.6709 -35.3359 -48.0039 -86.0029c-21.333 -39.333 -48 -105.666 -80 -198.999c-36 -105.333 -63.667 -177 -83 -215c-37.333 -74 -80.666 -126 -129.999 -156c10 -0.666992 33 -1 69 -1c210 0 352 105 426 315
c22 62.667 33 118.667 33 168c0 72 -26.333 126.333 -79 163c-45.333 32 -105.666 48 -180.999 48c-61.333 0 -113.666 -6 -156.999 -18c-47.333 -13.333 -95 -36.333 -143 -69c-54.667 -37.333 -103.667 -84.666 -147 -141.999c-51.333 -68 -77 -128.667 -77 -182
c0 -36.667 12 -70 36 -100c0.666992 -0.666992 1 -2.66699 1 -6c-0.666992 -1.33301 -2.33398 -2 -5.00098 -2c-16 8 -29 27.333 -39 58c-8.66699 25.333 -13 49.333 -13 72c0 76 29.333 147.667 88 215c52 59.333 116.833 104.833 194.5 136.5s163.834 47.5 258.501 47.5
c94 0 169.667 -22.667 227 -68c63.333 -49.333 95 -120 95 -212c0 -80 -28 -158 -84 -234c-99.333 -134.667 -255.666 -202 -468.999 -202c-8 0 -19.5 0.833008 -34.5 2.5s-26.5 2.5 -34.5 2.5c-2 0 -3 0.333008 -3 1l2 2c38 14 66.667 50 86 108l81 245
c34.667 103.333 84.667 191 150 263c24 26.667 42.667 44.334 56 53.001l4 -5v-3z" />
    <glyph glyph-name="afii10022" unicode="&#x415;" horiz-adv-x="583" 
d="M531 635c0 -34 -16.333 -72.332 -49 -114.999s-65.334 -68 -98.001 -76h-4c-0.666992 0 -1 0.666992 -1 2c0.666992 2 1 3.33301 1 4c30.667 20.667 59.667 50.667 87 90c30.667 43.333 46 81.333 46 114c0 14.667 -4.66699 26.667 -14 36s-21.333 14 -36 14
c-49.333 0 -92 -52.667 -128 -158l-44 -130c-6.66699 -20 -13.5 -33.833 -20.5 -41.5s-20.167 -16.167 -39.5 -25.5c-111.333 -54 -167 -126 -167 -216c0 -42 14 -74.667 42 -98s63.333 -35 106 -35c63.333 0 131.666 24.333 204.999 73c81.333 54 122 110.333 122 169v6
c-0.666992 2.66699 -1 4.66699 -1 6l3 4l5 -2c6 -18 9 -31 9 -39c0 -70 -39 -127.667 -117 -173c-65.333 -38 -136.333 -57 -213 -57c-60.667 0 -111.334 12.333 -152.001 37c-49.333 29.333 -74 72.333 -74 129c0 86 49.667 148.667 149 188
c16.667 3.33301 44.667 12 84 26c16.667 8 26.334 26.333 29.001 55c0.666992 12.667 2.33398 35.667 5.00098 69c14.667 154 71.334 231 170.001 231c27.333 0 50 -7.83301 68 -23.5s27 -36.834 27 -63.501z" />
    <glyph glyph-name="afii10024" unicode="&#x416;" horiz-adv-x="1111" 
d="M687 245l51.9951 -46.499l42 -40.5l87 -88c38.667 -32 75.667 -48 111 -48c37.333 0 79.666 21 126.999 63c2 0 3.66699 0.333008 5 1c2 -0.666992 3.33301 -2.33398 4 -5.00098l-1 -4c-53.333 -53.333 -116.666 -80 -189.999 -80c-39.333 0 -75.666 11.667 -108.999 35
c-24.667 18 -51 46.333 -79 85l-39 52c-11.333 14.667 -21.333 26.667 -30 36c1.33301 2.66699 3 7.16699 5 13.5l6 18.5c-5.33301 -9.33301 -10.333 -18.666 -15 -27.999v-1l-21 -36c-38 -62 -65.667 -104 -83 -126c-18 -22.667 -39 -39.334 -63 -50.001l-6 18
c25.333 36 51.333 90.333 78 163l26 67c-3.33301 -2 -6.5 -4.33301 -9.5 -7s-3.83301 -7.66699 -2.5 -15l-122 -108c-36 -30.667 -69.667 -56.5 -101 -77.5s-61.666 -36.667 -90.999 -47s-59.666 -15.5 -90.999 -15.5c-34 0 -64.167 5.16699 -90.5 15.5
s-51.166 27.5 -74.499 51.5l19 17l14.5 -14.5c4.33301 -4.33301 8.83301 -8.16602 13.5 -11.499c22.667 -18 43.167 -28.833 61.5 -32.5s37.166 -2 56.499 5s40.5 18.667 63.5 35l83.5 58.5l79 57c24.667 18.667 47.334 33.667 68.001 45c20 10.667 41.333 22.834 64 36.501
s45.334 23.167 68.001 28.5l25 64c-37.333 7.33301 -71.166 21.333 -101.499 42s-54.5 47.667 -72.5 81c-17.333 32.667 -30.333 68.667 -39 108s-13 81 -13 125l71 -10c5.33301 -54 12 -99.333 20 -136s16.5 -66.834 25.5 -90.501s18.5 -42 28.5 -55
s20.167 -22.667 30.5 -29s20.5 -10.333 30.5 -12l28 -4.5l16 41c28 73.333 57.833 137.166 89.5 191.499s70.167 99.5 115.5 135.5l3 -15c-15.333 -34 -39 -94.667 -71 -182l-60 -160c30 10.667 56.5 26.5 79.5 47.5s44.833 45.833 65.5 74.5s41.167 60.167 61.5 94.5
l66.5 108.5h11c2 -0.666992 5.33301 -1 10 -1c8 0 16.667 2.33301 26 7c13.333 4.66699 21.666 7 24.999 7c2 0 4 -1.66699 6 -5v-2c0 -2.66699 -0.333008 -4.33398 -1 -5.00098c-8 -8 -17.333 -18.667 -28 -32s-22.667 -29.333 -36 -48l-35 -48
c-10 -13.333 -18.333 -24 -25 -32l-42.5 -50c-15 -18 -31.833 -35.667 -50.5 -53s-39.5 -33.666 -62.5 -48.999s-49.5 -28 -79.5 -38c-2 -6 -4 -11.667 -6 -17c-8.66699 -22 -18.667 -44.667 -30 -68c0.666992 0.666992 1.66699 -1 3 -5zM689.995 326.001
c-2.66699 -1.33301 -4.99902 -2 -6.99902 -2c0.666992 -5.33301 1.66699 -7.33301 3 -6s2.66602 4 3.99902 8zM662.996 209.001l0.00195312 -0.999023c0.666992 -4.66699 2 -5.66699 4 -3c-0.666992 0.666992 -1.33398 1.16699 -2.00098 1.5
s-1.33398 1.16602 -2.00098 2.49902z" />
    <glyph glyph-name="afii10025" unicode="&#x417;" horiz-adv-x="583" 
d="M307 328c23.333 -12.667 42.498 -25.165 57.498 -37.498s27 -24 36 -35s15.667 -21.5 20 -31.5s7.5 -19 9.5 -27l92 -28c11.333 -2.66699 21.333 -5.33398 30 -8.00098s16 -5.33398 22 -8.00098l9 -41c-8 4.66699 -18.167 10 -30.5 16s-25.333 12 -39 18l-41 17.5
c-13.667 5.66699 -26.167 10.5 -37.5 14.5c-1.33301 -27.333 -8.5 -54.5 -21.5 -81.5s-30.167 -51.167 -51.5 -72.5s-46.166 -38.833 -74.499 -52.5s-58.5 -20.5 -90.5 -20.5c-57.333 0 -102.333 11.333 -135 34s-49 53.334 -49 92.001c0 50 21 85.667 63 107
c42.667 22.667 90.334 34 143.001 34c22.667 0 46.667 -0.166992 72 -0.5s45.666 -1.83301 60.999 -4.5l-82 115c30 13.333 58.333 28.666 85 45.999s50 36.333 70 57s35.833 43 47.5 67s17.5 49.667 17.5 77c0 42 -14 74.667 -42 98s-63.333 35 -106 35
c-64 0 -132.333 -24.333 -205 -73c-81.333 -54 -122 -110.333 -122 -169v-6c0.666992 -2 1 -4 1 -6l-3 -4l-5 2c-6 18 -9 31 -9 39c0 70 39 127.667 117 173c64.667 38 135.667 57 213 57c60.667 0 111.334 -12.333 152.001 -37c49.333 -29.333 74 -72.333 74 -129
c0 -86 -49.667 -148.667 -149 -188c-8.66699 -1.33301 -22.5 -6.33301 -41.5 -15s-38.167 -16.667 -57.5 -24zM356.998 191.002l-43.999 4.00098l-46 2c-58.667 0 -110.334 -14 -155.001 -42c-43.333 -26.667 -65 -59.334 -65 -98.001c0 -26 11.667 -48.667 35 -68
c24 -16.667 54 -25 90 -25c26.667 0 52.167 4.5 76.5 13.5s45.5 21.167 63.5 36.5s32.333 33 43 53s16 40.667 16 62c0 19.333 -4.66699 40 -14 62z" />
    <glyph glyph-name="afii10026" unicode="&#x418;" horiz-adv-x="865" 
d="M862 705c-4.66699 -22.667 -24.334 -73.666 -59.001 -152.999l-107 -243c-49.333 -112 -74 -192.667 -74 -242c0 -39.333 21 -59 63 -59c39.333 0 94.333 19.667 165 59l1 -13c-54.667 -40 -109 -60 -163 -60c-33.333 0 -60.666 8.66699 -81.999 26
c-23.333 18.667 -35 44 -35 76c0 44.667 22.667 121.667 68 231l101 234c-49.333 -104.667 -114.333 -215 -195 -331c-110 -158.667 -195.333 -238 -256 -238c-17.333 0 -31 7.33301 -41 22c-9.33301 12.667 -14 28 -14 46c0 47.333 28.333 126.333 85 237l123 238
c28 54.667 42 92.667 42 114c0 26.667 -18.333 40 -55 40c-92 0 -186.333 -42.333 -283 -127c-110.667 -96.667 -166 -199 -166 -307c0 -52 19.667 -100.667 59 -146v-5c0 -2.66699 -1.33301 -4 -4 -4c-2 0 -4 1 -6 3c-20.667 16.667 -36.667 42.667 -48 78
c-10 30 -15 60.667 -15 92c0 112 50 212 150 300c96.667 84.667 201.667 127 315 127c27.333 0 49.666 -6 66.999 -18c20 -13.333 30 -33 30 -59c0 -38 -30 -117 -90 -237l-123 -243c-28.667 -57.333 -43 -97 -43 -119c0 -15.333 6.66699 -23 20 -23
c14 0 38.667 15.667 74 47c74 65.333 154 165.666 240 300.999c70 110 132 223.667 186 341c16.667 5.33301 39.334 11.333 68.001 18z" />
    <glyph glyph-name="afii10027" unicode="&#x419;" horiz-adv-x="865" 
d="M862 705c-4.66699 -22.667 -24.334 -73.666 -59.001 -152.999l-107 -243c-49.333 -112 -74 -192.667 -74 -242c0 -39.333 21 -59 63 -59c39.333 0 94.333 19.667 165 59l1 -13c-54.667 -40 -109 -60 -163 -60c-33.333 0 -60.666 8.66699 -81.999 26
c-23.333 18.667 -35 44 -35 76c0 44.667 22.667 121.667 68 231l101 234c-49.333 -104.667 -114.333 -215 -195 -331c-110 -158.667 -195.333 -238 -256 -238c-17.333 0 -31 7.33301 -41 22c-9.33301 12.667 -14 28 -14 46c0 47.333 28.333 126.333 85 237l123 238
c28 54.667 42 92.667 42 114c0 26.667 -18.333 40 -55 40c-92 0 -186.333 -42.333 -283 -127c-110.667 -96.667 -166 -199 -166 -307c0 -52 19.667 -100.667 59 -146v-5c0 -2.66699 -1.33301 -4 -4 -4c-2 0 -4 1 -6 3c-20.667 16.667 -36.667 42.667 -48 78
c-10 30 -15 60.667 -15 92c0 112 50 212 150 300c96.667 84.667 201.667 127 315 127c27.333 0 49.666 -6 66.999 -18c20 -13.333 30 -33 30 -59c0 -38 -30 -117 -90 -237l-123 -243c-28.667 -57.333 -43 -97 -43 -119c0 -15.333 6.66699 -23 20 -23
c14 0 38.667 15.667 74 47c74 65.333 154 165.666 240 300.999c70 110 132 223.667 186 341c16.667 5.33301 39.334 11.333 68.001 18zM643 725.001c-5.33301 19.333 -3.00195 42.5039 6.99805 69.5039s24 45.167 42 54.5c10.667 5.33301 33.167 7.66602 67.5 6.99902
s54.833 0.666016 61.5 3.99902c16.667 8 26.334 20.667 29.001 38c3.33301 22 6 34.333 8 37l2 2l8 -1l3 -2c2 -22.667 -1 -46.334 -9 -71.001c-9.33301 -28.667 -23 -47.334 -41 -56.001c-12.667 -6.66699 -37.167 -9.5 -73.5 -8.5s-57.833 -0.5 -64.5 -4.5
c-11.333 -5.33301 -21.666 -29 -30.999 -71c-3.33301 -2 -6.33301 -1.33301 -9 2z" />
    <glyph glyph-name="afii10028" unicode="&#x41a;" horiz-adv-x="886" 
d="M423 295l52.9961 192.005c18 65.333 50.333 122 97 170l-90 -2c-25.333 -0.666992 -61 0.666016 -107 3.99902c-50 4 -86 6 -108 6c-50 0 -88 -7.33301 -114 -22c-12 -6.66699 -41.333 -31.334 -88 -74.001h-1v-1h-2l-4 6c2 7.33301 8.66699 16.666 20 27.999
c70 70 157.333 105 262 105c22 0 49.333 -3 82 -9c21.333 -4 48.333 -9.33301 81 -16c20.667 -1.33301 50.334 -5.33301 89.001 -12l4 -4c-13.333 -9.33301 -43.666 -116 -90.999 -320c81.333 65.333 173.333 178 276 338h11c2.66699 -0.666992 6 -1 10 -1
c7.33301 0 16 2.33301 26 7c14 4.66699 22.333 7 25 7c2 0 4 -1.66699 6 -5v-2c0 -2.66699 -0.333008 -4.33398 -1 -5.00098c-16 -16 -37.333 -42.667 -64 -80s-46.667 -64 -60 -80c-58.667 -68 -138.334 -135.667 -239.001 -203c-10 -20 -19.333 -45.667 -28 -77
c38 -32.667 69.333 -61.667 94 -87l87 -88c39.333 -32 76.333 -48 111 -48c38 0 80.333 21 127 63c1.33301 0 3 0.333008 5 1c2 -0.666992 3.33301 -2.33398 4 -5.00098l-1 -4c-53.333 -53.333 -116.666 -80 -189.999 -80c-40 0 -76.333 11.667 -109 35
c-24.667 18 -51 46.333 -79 85c-31.333 42.667 -55.666 73.334 -72.999 92.001c-38 -66.667 -88.667 -121.334 -152 -164.001c-67.333 -46 -137.333 -69 -210 -69c-15.333 0 -32.666 2.33301 -51.999 7c-28 6.66699 -42 13.334 -42 20.001
c0 1.33301 0.666992 2.66602 2 3.99902h12c10 0 24.333 -2 43 -6s33 -6 43 -6c82.667 0 150.667 23.333 204 70c46.667 40.667 85.334 102.667 116.001 186l-19 23c7.33301 6.66699 18.666 13.667 33.999 21z" />
    <glyph glyph-name="afii10029" unicode="&#x41b;" horiz-adv-x="797" 
d="M757 684c4.66699 -7.33301 5.83496 -21.3311 3.50195 -41.998s-7.16602 -45.5 -14.499 -74.5s-16.333 -60.833 -27 -95.5l-34 -106l-36 -106l-32 -94c-9.33301 -28 -16.833 -51.833 -22.5 -71.5s-8.16699 -32.5 -7.5 -38.5
c1.33301 -12.667 5.16602 -22.334 11.499 -29.001s16.166 -10 29.499 -10c42.667 0 99 19 169 57v-14c-65.333 -37.333 -124.333 -56 -177 -56c-60 0 -90 25.333 -90 76c0 49.333 32.333 151 97 305l48 115c16 38 28.5 71.833 37.5 101.5s13.167 53.667 12.5 72
s-9 27.5 -25 27.5c-46 0 -96.333 -62 -151 -186c-83.333 -186.667 -139.333 -302 -168 -346c-81.333 -124 -175.333 -186 -282 -186c-43.333 0 -90.333 15.333 -141 46c-2.66699 32 -6.66699 55.667 -12 71c20 -24 48 -45.667 84 -65c34.667 -18.667 67.667 -28 99 -28
c54 0 102.667 20.667 146 62c36 34 66 79 90 135c0.666992 1.33301 6.16699 14.166 16.5 38.499l46.5 109.5c32.667 77.333 69 147.333 109 210c62.667 98.667 118.667 148 168 148c21.333 0 38.666 -8.66699 51.999 -26z" />
    <glyph glyph-name="afii10030" unicode="&#x41c;" horiz-adv-x="1047" 
d="M428 352c32 76 68.333 146.001 109 210.001c62.667 98.667 118.667 148 168 148c22 0 39.333 -8.66699 52 -26c10.667 -14.667 16 -33.667 16 -57c0 -38.667 -17.333 -104.667 -52 -198c-12.667 -33.333 -39.667 -100.333 -81 -201
c66.667 130.667 111.334 214 134.001 250c63.333 101.333 125.333 168.666 186 201.999c31.333 17.333 52.666 26 63.999 26c12.667 0 19 -9.33301 19 -28c0 -4 -18.667 -51.667 -56 -143c-115.333 -281.333 -173 -441 -173 -479c0 -26 13.667 -39 41 -39
c42.667 0 99 19 169 57v-14c-65.333 -37.333 -124.333 -56 -177 -56c-60 0 -90 25.333 -90 76c0 48 32.333 149.667 97 305c60 144 107.667 243.667 143 299c-64.667 -33.333 -134.334 -105.666 -209.001 -216.999c-62.667 -94.667 -112.334 -185.334 -149.001 -272.001
c-4.66699 -12.667 -14 -36 -28 -70l-7 -15c-17.333 -41.333 -31.666 -67.333 -42.999 -78c-22 -7.33301 -41.667 -15.333 -59 -24h-3c-2.66699 0 -4 1.33301 -4 4c4.66699 24.667 12.667 48.667 24 72c33.333 70 78 181.333 134 334c51.333 140 77 223.333 77 250
c0 22 -10 33 -30 33c-45.333 0 -95.666 -62 -150.999 -186c-84 -188 -140 -303.333 -168 -346c-81.333 -124 -175.333 -186 -282 -186c-42.667 0 -89.667 15.333 -141 46c-3.33301 32.667 -7.33301 56.334 -12 71.001c20.667 -24.667 48.667 -46.334 84 -65.001
s68.333 -28 99 -28c54 0 102.667 20.667 146 62c36 34 66 79 90 135c1.33301 2 22.333 51.333 63 148z" />
    <glyph glyph-name="afii10031" unicode="&#x41d;" horiz-adv-x="905" 
d="M778 686c14 4.66699 25.668 6.99805 35.001 6.99805c26 0 39 -13 39 -39c0 -28 -33.667 -62.333 -101 -103c-28 -17.333 -75.333 -41.666 -142 -72.999c-84 -170 -126 -302.667 -126 -398c0 -45.333 20.333 -68 61 -68c70.667 0 135 34.667 193 104
c54.667 65.333 82 134.333 82 207c0 38.667 -11.333 65.334 -34 80.001l-1 6c2 2 4.33301 3.66699 7 5c16 -8.66699 29.833 -24.834 41.5 -48.501s17.5 -45.5 17.5 -65.5c0 -85.333 -38.333 -158.333 -115 -219c-70.667 -56 -150 -84 -238 -84c-54.667 0 -82 28.667 -82 86
c0 42 11.667 100.333 35 175c19.333 62.667 42 118.334 68 167.001l-91 -49c-30.667 -94 -68.667 -173.667 -114 -239c-64 -92 -134.333 -138 -211 -138c-22 0 -39.667 7 -53 21s-20 32 -20 54c0 52.667 41 107.667 123 165c39.333 28 103.666 64 192.999 108
c26 73.333 48 127 66 161c30 57.333 66 102.333 108 135c-10 -3.33301 -22.667 -5 -38 -5c-30 0 -78.667 3.66699 -146 11c-61.333 6.66699 -109.666 10 -144.999 10c-90 0 -152 -38.333 -186 -115c-9.33301 -30.667 -17.333 -46 -24 -46c-2 2 -3.33301 4.33301 -4 7
c0 30 20 65.333 60 106c61.333 62.667 137.666 94 228.999 94c31.333 0 66 -5 104 -15l102 -27c15.333 -2 36.333 -6 63 -12c-10 -16.667 -26 -51 -48 -103l-54 -155l97 50c66 106 128 176.667 186 212zM815.001 679.998c-32 0 -69.667 -23.667 -113 -71
c-30 -32.667 -58.333 -70.667 -85 -114c148.667 72.667 223 127 223 163c0 14.667 -8.33301 22 -25 22zM100.001 6.99805c88.667 0 167.333 104.667 236 314c-62 -37.333 -118.667 -77 -170 -119c-76.667 -63.333 -115 -115 -115 -155c0 -12.667 5.33301 -22.667 16 -30
c8.66699 -6.66699 19.667 -10 33 -10z" />
    <glyph glyph-name="afii10032" unicode="&#x41e;" horiz-adv-x="624" 
d="M412 719c56.667 0 100.004 -28.002 130.004 -84.002c24.667 -46 37 -99.667 37 -161c0 -70.667 -19.333 -144 -58 -220c-36.667 -73.333 -83.334 -133.666 -140.001 -180.999c-64 -54 -130.333 -81 -199 -81c-68 0 -120 27.667 -156 83
c-30.667 46.667 -46 105.667 -46 177c0 110 47.333 213 142 309c72 72.667 116 109 132 109c1.33301 -0.666992 1.66602 -2 0.999023 -4c-4 -6 -21.333 -24.333 -52 -55c-46 -46 -84.667 -111.667 -116 -197c-30 -81.333 -45 -156.666 -45 -225.999
c0 -126 45.667 -189 137 -189c69.333 0 132.666 37.333 189.999 112c42 54 77.333 122.667 106 206c30 86.667 45 165.667 45 237c0 102.667 -39.333 154 -118 154c-88.667 0 -162.334 -85.333 -221.001 -256c-1.33301 -2.66699 -2.33301 -4 -3 -4c-2 0 -4 2 -6 6
c14 73.333 38.667 133 74 179c43.333 57.333 98.333 86 165 86h1z" />
    <glyph glyph-name="afii10033" unicode="&#x41f;" horiz-adv-x="905" 
d="M76 410c-4.66699 82 28.334 152.336 99.001 211.003c32.667 26 68.334 46.833 107.001 62.5s80.667 25.5 126 29.5c14.667 0.666992 31.667 1.66699 51 3c21.333 1.33301 47.666 1.5 78.999 0.5s68.333 -3.16699 111 -6.5c14 -1.33301 31.833 -2.33301 53.5 -3
s45 -1.5 70 -2.5s51 -1.83301 78 -2.5l77.5 -2c24.667 -0.666992 47.5 -1.33398 68.5 -2.00098s37.833 -1.33398 50.5 -2.00098c2 -2 3.16699 -3.66699 3.5 -5s1.16602 -2.33301 2.49902 -3c11.333 -9.33301 8.5 -16.333 -8.5 -21s-41.667 -8 -74 -10
s-69.166 -2.83301 -110.499 -2.5s-81 1.16602 -119 2.49902s-71.167 2.66602 -99.5 3.99902s-45.5 2.33301 -51.5 3c-47.333 4 -88.5 6.83301 -123.5 8.5s-64.167 1.83398 -87.5 0.500977c-82 -4 -150 -27.333 -204 -70c-58.667 -46 -85.334 -107.333 -80.001 -184
c2.66699 -54.667 27.667 -108 75 -160l1 -6l-3 -3l-4 1c-15.333 15.333 -36 39 -62 71c-15.333 24 -24 53.333 -26 88zM853.001 626.003c21.333 9.33301 36.6641 7.33398 45.9971 -5.99902c0 -1.33301 -0.166992 -2.83301 -0.5 -4.5s-1.66602 -5.5 -3.99902 -11.5l-11 -28
l-21.5 -53c-115.333 -282 -173 -441.667 -173 -479c0 -26 13.667 -39 41 -39c42.667 0 99 19 169 57v-14c-65.333 -37.333 -124.333 -56 -177 -56c-60 0 -90 25.333 -90 76c0 49.333 32.333 151 97 305c14.667 36 27.834 66.833 39.501 92.5s22.334 48.167 32.001 67.5
s18.667 36.166 27 50.499zM272.999 246.004c10.667 -0.666992 21.999 -1.99902 33.999 -3.99902s25 -4.66699 39 -8c38.667 -8.66699 58 -18.667 58 -30c-2 -2 -4.33301 -3 -7 -3c-5.33301 0.666992 -12.166 1.66699 -20.499 3s-18.166 3.66602 -29.499 6.99902
c-21.333 6 -37 9 -47 9c-48.667 2.66699 -94.334 -4 -137.001 -20c-54 -22 -82 -53 -84 -93c-3.33301 -59.333 36.334 -91.333 119.001 -96c135.333 -7.33301 233 69.334 293 230.001l26.5 71.5l43.5 117.5c8 22 26 56 54 102c8.66699 13.333 15.5 24.166 20.5 32.499
s9.33301 14.833 13 19.5s6.66699 7.83398 9 9.50098s5.16602 2.5 8.49902 2.5l2 -2l3 -3l-1 -5l-79 -242c-20.667 -52.667 -42.5 -99 -65.5 -139s-47.5 -74 -73.5 -102c-70 -74.667 -154.333 -109.334 -253 -104.001c-19.333 1.33301 -37.166 4.33301 -53.499 9
s-30.5 11.667 -42.5 21c-29.333 19.333 -43 47 -41 83c3.33301 46.667 28 82 74 106c39.333 21.333 84.666 30.333 135.999 27z" />
    <glyph glyph-name="afii10034" unicode="&#x420;" horiz-adv-x="905" 
d="M194 -182l-2.99512 3.00098c6 16.667 21 63.334 45 140.001l68 244c27.333 96.667 55.666 176 84.999 238c39.333 82.667 88.666 150.334 147.999 203.001c22.667 20 36.334 30 41.001 30c2 0 3 -1.33301 3 -4c-2 -4 -11.333 -17.333 -28 -40
c-66 -88 -142.667 -291.333 -230 -610c33.333 -6.66699 59.666 -10 78.999 -10c101.333 0 193 49 275 147c78 93.333 117 191.666 117 294.999c0 75.333 -23.167 134.666 -69.5 177.999s-107.5 65 -183.5 65c-91.333 0 -180.833 -23.333 -268.5 -70
s-158.5 -107.334 -212.5 -182.001c-44.667 -61.333 -67.334 -119.666 -68.001 -174.999c-0.666992 -32.667 11.333 -68.667 36 -108v-2c0 -3.33301 -2.33301 -5 -7 -5c-10 0 -20 22 -30 66c-9.33301 40.667 -14 68 -14 82c0 83.333 33.667 158.666 101 225.999
c54.667 54.667 125.667 99 213 133c84.667 33.333 166.667 50 246 50c87.333 0 161.666 -23 222.999 -69c67.333 -51.333 101 -119.333 101 -204c0 -116.667 -49.667 -220 -149 -310c-96.667 -86.667 -204 -130 -322 -130c-14.667 0 -39.334 2.33301 -74.001 7
c-13.333 -53.333 -25.333 -91.333 -36 -114c-22 -46.667 -50 -71 -84 -73z" />
    <glyph glyph-name="afii10035" unicode="&#x421;" horiz-adv-x="583" 
d="M279 -35c-80.667 0 -148.333 22.335 -203 67.002c-58.667 47.333 -88 110.666 -88 189.999c0 73.333 22.667 149.666 68 228.999c42 74 94 135 156 183c70.667 54.667 141 82 211 82c48.667 0 86.667 -15.667 114 -47s41 -71.666 41 -120.999
c0 -88.667 -33.667 -173 -101 -253c-70.667 -83.333 -149.334 -125 -236.001 -125c-34 0 -61.667 9.16699 -83 27.5s-32 44.166 -32 77.499c0 58.667 30.333 116 91 172c56.667 52.667 115.334 84 176.001 94l7 -1l2 -4c0 -0.666992 -0.333008 -1.66699 -1 -3l-51 -31
c-140 -83.333 -210 -161 -210 -233c0 -54 28 -81 84 -81c74 0 148.667 45 224 135c72.667 87.333 109 169 109 245c0 40.667 -10.833 73 -32.5 97s-52.5 36 -92.5 36c-72 0 -140.333 -36.333 -205 -109c-48 -53.333 -89 -120 -123 -200c-35.333 -84 -53 -160 -53 -228
c0 -61.333 21 -107.333 63 -138c36.667 -27.333 86.667 -41 150 -41c92.667 0 197.667 33.667 315 101v-14c-89.333 -71.333 -189.333 -107 -300 -107z" />
    <glyph glyph-name="afii10036" unicode="&#x422;" horiz-adv-x="996" 
d="M76 401c-4.66699 82 28.334 152.336 99.001 211.003c32.667 26 68.334 46.833 107.001 62.5s80.667 25.5 126 29.5c14.667 0.666992 31.667 1.66699 51 3c21.333 1.33301 47.666 1.5 78.999 0.5s68.333 -3.16699 111 -6.5c14 -1.33301 31.833 -2.33301 53.5 -3
s45 -1.5 70 -2.5s51 -1.83301 78 -2.5l77.5 -2c24.667 -0.666992 47.5 -1.33398 68.5 -2.00098s37.833 -1.33398 50.5 -2.00098c2 -2 3.16699 -3.66699 3.5 -5s1.16602 -2.33301 2.49902 -3c11.333 -9.33301 8.5 -16.333 -8.5 -21s-41.667 -8 -74 -10
s-69.166 -2.83301 -110.499 -2.5s-81 1.16602 -119 2.49902s-71.167 2.66602 -99.5 3.99902s-45.5 2.33301 -51.5 3c-47.333 4 -88.5 6.83301 -123.5 8.5s-64.167 1.83398 -87.5 0.500977c-82 -4 -150 -27.333 -204 -70c-58.667 -46 -85.334 -107.333 -80.001 -184
c2.66699 -54.667 27.667 -108 75 -160l1 -6l-3 -3l-4 1c-15.333 15.333 -36 39 -62 71c-15.333 24 -24 53.333 -26 88zM942.001 600.003c21.333 9.33301 36.6641 7.33301 45.9971 -6c0 -1.33301 -0.166992 -1.33301 -0.5 0s-1.66602 0.5 -3.99902 -2.5s-6 -9.5 -11 -19.5
s-12.167 -26.333 -21.5 -49c-115.333 -282 -173 -441.667 -173 -479c0 -26 13.667 -39 41 -39c42.667 0 99 19 169 57v-14c-65.333 -37.333 -124.333 -56 -177 -56c-60 0 -90 25.333 -90 76c0 49.333 32.333 151 97 305c14.667 36 27.834 65.5 39.501 88.5
s22.334 42.5 32.001 58.5s18.667 29.833 27 41.5s16.833 24.5 25.5 38.5zM272.999 246.003c10.667 -0.666992 21.999 -1.99902 33.999 -3.99902s25 -4.66699 39 -8c38.667 -8.66699 58 -18.667 58 -30c-2 -2 -4.33301 -3 -7 -3c-5.33301 0.666992 -12.166 1.66699 -20.499 3
s-18.166 3.66602 -29.499 6.99902c-21.333 6 -37 9 -47 9c-48.667 2.66699 -94.334 -4 -137.001 -20c-54 -22 -82 -53 -84 -93c-3.33301 -59.333 36.334 -91.333 119.001 -96c135.333 -7.33301 233 69.334 293 230.001l26.5 71.5l43.5 117.5c8 22 26 56 54 102
c8.66699 13.333 15.5 24.166 20.5 32.499s9.33301 14.833 13 19.5s6.66699 7.83398 9 9.50098s5.16602 2.5 8.49902 2.5l2 -2l3 -3l-1 -5l-79 -242c-20.667 -52.667 -42.5 -99 -65.5 -139s-47.5 -74 -73.5 -102c-70 -74.667 -154.333 -109.334 -253 -104.001
c-19.333 1.33301 -37.166 4.33301 -53.499 9s-30.5 11.667 -42.5 21c-29.333 19.333 -43 47 -41 83c3.33301 46.667 28 82 74 106c39.333 21.333 84.666 30.333 135.999 27zM541.998 13.0039l-3.99902 13c17.333 26 35.333 64.667 54 116l57 152
c18.667 52.667 39 98.5 61 137.5s48.333 71.167 79 96.5l2 -10c-10.667 -24.667 -26.834 -68.167 -48.501 -130.5l-51 -144c-12.333 -33.667 -28.833 -68.5 -49.5 -104.5c-26 -44.667 -45 -74.667 -57 -90c-12 -16.667 -26.333 -28.667 -43 -36z" />
    <glyph glyph-name="afii10037" unicode="&#x423;" horiz-adv-x="845" 
d="M809 697c2.66699 0 3.99609 -1.66797 3.99609 -5.00098c0 -8.66699 -30.667 -103.334 -92 -284.001c-56.667 -166.667 -93.667 -272.334 -111 -317.001c50 12 118.667 27 206 45c2.66699 0 4 -1 4 -3c0 -8 -4.33301 -16.333 -13 -25
c-87.333 -10 -155.666 -21 -204.999 -33c-36 -65.333 -77.667 -122.666 -125 -171.999c-63.333 -66 -122 -99 -176 -99c-39.333 0 -59 19 -59 57c0 48 38.667 94 116 138c52.667 30 113.334 54.333 182.001 73c19.333 54 77 226.667 173 518
c-95.333 -182.667 -159.666 -300 -192.999 -352c-105.333 -162.667 -195.666 -244 -270.999 -244c-17.333 0 -31.333 7.66699 -42 23c-9.33301 13.333 -14 29.333 -14 48c0 38 26 114.333 78 229l107 236c25.333 56 38 95.333 38 118c0 30 -20.667 45 -62 45
c-32 0 -71.667 -12.667 -119 -38c-37.333 -20 -72.333 -43.667 -105 -71c-95.333 -80 -143 -164.333 -143 -253c0 -55.333 26.333 -118.333 79 -189v-2c0 -1.33301 -0.666992 -2.66602 -2 -3.99902c-0.666992 0.666992 -1.33398 1 -2.00098 1
c-61.333 58 -92 129.333 -92 214c0 134.667 75.333 238.334 226 311.001c62.667 30 121 45 175 45c26.667 0 49 -7 67 -21s27 -34 27 -60c0 -44 -26 -123 -78 -237l-112 -242c-24.667 -53.333 -37 -93.333 -37 -120c0 -14.667 5.66699 -22 17 -22
c62.667 0 154.334 95 275.001 285c93.333 146 162.333 273.667 207 383c32 9.33301 54.667 17.333 68 24h4zM257.996 -150.001c0 -26 14.333 -39.001 43 -39.001c45.333 0 92.666 30.333 141.999 91c34.667 42.667 65.334 94.334 92.001 155.001
c-184 -69.333 -276 -138.333 -276 -207h-1z" />
    <glyph glyph-name="afii10038" unicode="&#x424;" horiz-adv-x="881" 
d="M660 650c-36.667 0 -91.4961 3.66406 -164.496 10.9971s-127.833 11 -164.5 11c-42 0 -74.333 -3.66699 -97 -11c-29.333 -9.33301 -54.666 -28.333 -75.999 -57l-65 -87c-0.666992 -0.666992 -2 -1 -4 -1c0 1.33301 -1.33301 2.33301 -4 3l-1 3
c6 22 24.667 50.667 56 86c62.667 70.667 146 106 250 106c21.333 0 80 -10 176 -30c34.667 -7.33301 76 -16.666 124 -27.999l-12 -3c0.666992 -0.666992 1.33398 -1.16699 2.00098 -1.5s1.66699 -1.16602 3 -2.49902l-1 -5l-51 -161c22 19.333 44.167 32.333 66.5 39
s43.166 8.66699 62.499 6s36.666 -8.5 51.999 -17.5s27 -19.167 35 -30.5c28 -42.667 44 -86.334 48 -131.001c3.33301 -48 -9.16699 -91.167 -37.5 -129.5s-67.5 -68.833 -117.5 -91.5c-10 -4.66699 -25.167 -7.16699 -45.5 -7.5s-41.5 1.83398 -63.5 6.50098
s-42.667 11.5 -62 20.5s-33 20.833 -41 35.5l12 -5c26 -20 53.167 -30.167 81.5 -30.5s55.5 6.16699 81.5 19.5s49.833 32 71.5 56s38.667 50.333 51 79s19 58.334 20 89.001s-5.83301 59 -20.5 85c-6.66699 12 -16.5 22.167 -29.5 30.5s-28.333 13 -46 14
s-37.167 -2.83301 -58.5 -11.5s-43.333 -24 -66 -46l-38 -120c-34.667 -112 -76.667 -198.667 -126 -260c-66 -82 -149 -123 -249 -123c-40 0 -72.667 8.33301 -98 25c-30 18.667 -45 47 -45 85c0 48.667 22.667 87 68 115c30.667 18.667 65.667 30 105 34
c-14.667 31.333 -23 61.666 -25 90.999c-3.33301 46.667 9 89.334 37 128.001s67 69.667 117 93c9.33301 4 23.166 6.33301 41.499 7s37.666 -0.666016 57.999 -3.99902s40.166 -8.83301 59.499 -16.5s34.333 -17.834 45 -30.501l27 54c14 26.667 27.667 51 41 73
s23.666 35 30.999 39zM273.004 221.997c19.333 0 44.334 -2.66895 75.001 -8.00195c39.333 -7.33301 59 -16.666 59 -27.999c-2 -2.66699 -4.33301 -4 -7 -4c-12.667 0 -29.334 2.33301 -50.001 7c-22.667 5.33301 -38.667 8 -48 8h-10.5
c-3.66699 0 -7.16699 -0.333008 -10.5 -1c2.66699 -6.66699 5 -11.334 7 -14.001c6 -11.333 15.167 -21.166 27.5 -29.499s26.833 -13.166 43.5 -14.499s35.167 1.5 55.5 8.5s41.5 20.167 63.5 39.5c2.66699 7.33301 5.16699 14.666 7.5 21.999s4.83301 14.666 7.5 21.999
l60 201c2 6.66699 4.5 14.167 7.5 22.5s6.83301 17.5 11.5 27.5l-1 1c-24 18 -49 27.833 -75 29.5s-51.167 -2.83301 -75.5 -13.5s-47 -26.167 -68 -46.5s-38.5 -43.166 -52.5 -68.499s-23.833 -52.166 -29.5 -80.499s-5.16699 -55.5 1.5 -81.5zM166.005 167.995
c-53.333 -25.333 -80.002 -59.334 -80.002 -102.001c0 -62 41.667 -93 125 -93c117.333 0 203.666 64.333 258.999 193c-21.333 -16 -42.5 -26.5 -63.5 -31.5s-40.667 -6.16699 -59 -3.5s-34.666 8.33398 -48.999 17.001s-25.166 18.667 -32.499 30
c-3.33301 4.66699 -6.66602 10 -9.99902 16c-16 -2.66699 -31.5 -6 -46.5 -10s-29.5 -9.33301 -43.5 -16z" />
    </font>
</defs>
</svg>
