<svg xmlns="http://www.w3.org/2000/svg">
<defs>
<font id="BadScript-Regular" horiz-adv-x="1438" >
  <font-face 
    font-family="Bad Script"
    font-weight="400"
    font-stretch="normal"
    units-per-em="2048"
    panose-1="2 0 0 0 0 0 0 0 0 0"
    ascent="1638"
    descent="-410"
    x-height="1032"
    cap-height="2005"
    bbox="-2103 -1327 3465 2710"
    underline-thickness="102"
    underline-position="-103"
    unicode-range="U+000D-U+2212"
  />
<missing-glyph horiz-adv-x="1976" 
d="M1227 553l149 199c-30 26 -55.333 43.667 -76 53l-151 -191c-72.667 58 -139 108 -199 150c-27.333 -31.333 -45 -58 -53 -80l186 -147l-147 -191c1.33301 -6 12 -16.833 32 -32.5s32.667 -23.167 38 -22.5l159 180l191 -147c5.33301 1.33301 16 12 32 32
s23.667 32.333 23 37c-10 9.33301 -36 32 -78 68zM924 -57c19.333 15.333 48.667 23 88 23c1.33301 0 6.16602 0.166992 14.499 0.5s12.833 0.5 13.5 0.5c-18 15.333 -48 36.333 -90 63s-63 44 -63 52s3.5 14.333 10.5 19s12.167 8.66699 15.5 12c-10 10 -15 21.667 -15 35
s0.333008 23.333 1 30c-108.667 59.333 -200.334 135.666 -275.001 228.999c-54 67.333 -94.167 123.166 -120.5 167.499s-40.5 67.833 -42.5 70.5l-86 29l-57 19.5c-22.667 7.66699 -38.667 13.5 -48 17.5s-34.166 14 -74.499 30s-71.5 33.167 -93.5 51.5
s-33 33.5 -33 45.5s7.66699 18 23 18l524 -45l160 31.5l138 26.5c102.667 20.667 169.667 34.667 201 42c103.333 25.333 167.333 57 192 95c75.333 133.333 161.666 200 258.999 200c46.667 0 85 -4.66699 115 -14v2l152 53c4 0 6 -1.33301 6 -4v-2l-51 -141l143 6
c3.33301 0 5 -0.666992 5 -2s-0.333008 -2.66602 -1 -3.99902l-131 -135l-2 2c-3.33301 -323.333 -167.666 -595.666 -492.999 -816.999c0 -16 -3.83301 -28.333 -11.5 -37s-16.167 -13 -25.5 -13l-25 -24c88 -31.333 153 -57.333 195 -78l43 1c50 0 92.333 -12.667 127 -38
v-5c0 -2 -1.16699 -3.83301 -3.5 -5.5s-3.83301 -2.83398 -4.5 -3.50098c-38 17.333 -64.5 26.333 -79.5 27s-28.167 0.333984 -39.5 -0.999023c36 -19.333 61.333 -39.666 76 -60.999c-2 -6 -8.33301 -10 -19 -12c-43.333 43.333 -85.666 65 -126.999 65

<glyph glyph-name=".notdef" horiz-adv-x="1976" 
d="M1227 553l149 199c-30 26 -55.333 43.667 -76 53l-151 -191c-72.667 58 -139 108 -199 150c-27.333 -31.333 -45 -58 -53 -80l186 -147l-147 -191c1.33301 -6 12 -16.833 32 -32.5s32.667 -23.167 38 -22.5l159 180l191 -147c5.33301 1.33301 16 12 32 32
s23.667 32.333 23 37c-10 9.33301 -36 32 -78 68zM924 -57c19.333 15.333 48.667 23 88 23c1.33301 0 6.16602 0.166992 14.499 0.5s12.833 0.5 13.5 0.5c-18 15.333 -48 36.333 -90 63s-63 44 -63 52s3.5 14.333 10.5 19s12.167 8.66699 15.5 12c-10 10 -15 21.667 -15 35
s0.333008 23.333 1 30c-108.667 59.333 -200.334 135.666 -275.001 228.999c-54 67.333 -94.167 123.166 -120.5 167.499s-40.5 67.833 -42.5 70.5l-86 29l-57 19.5c-22.667 7.66699 -38.667 13.5 -48 17.5s-34.166 14 -74.499 30s-71.5 33.167 -93.5 51.5
s-33 33.5 -33 45.5s7.66699 18 23 18l524 -45l160 31.5l138 26.5c102.667 20.667 169.667 34.667 201 42c103.333 25.333 167.333 57 192 95c75.333 133.333 161.666 200 258.999 200c46.667 0 85 -4.66699 115 -14v2l152 53c4 0 6 -1.33301 6 -4v-2l-51 -141l143 6
c3.33301 0 5 -0.666992 5 -2s-0.333008 -2.66602 -1 -3.99902l-131 -135l-2 2c-3.33301 -323.333 -167.666 -595.666 -492.999 -816.999c0 -16 -3.83301 -28.333 -11.5 -37s-16.167 -13 -25.5 -13l-25 -24c88 -31.333 153 -57.333 195 -78l43 1c50 0 92.333 -12.667 127 -38
v-5c0 -2 -1.16699 -3.83301 -3.5 -5.5s-3.83301 -2.83398 -4.5 -3.50098c-38 17.333 -64.5 26.333 -79.5 27s-28.167 0.333984 -39.5 -0.999023c36 -19.333 61.333 -39.666 76 -60.999c-2 -6 -8.33301 -10 -19 -12c-43.333 43.333 -85.666 65 -126.999 65
c-16 0 -27.333 -0.666992 -34 -2s-11.5 -2.16602 -14.5 -2.49902s-7.5 -1.66602 -13.5 -3.99902s-10.167 -4 -12.5 -5s-7.5 -3.33301 -15.5 -7s-13.667 -5.5 -17 -5.5h-7c-4 0 -6.33301 3.33301 -7 10c13.333 14.667 24.333 23.334 33 26.001l28.5 8.5
c10.333 3 19.166 5.83301 26.499 8.5c-32 17.333 -69.667 33.5 -113 48.5s-65 24.833 -65 29.5c0 8 7.66699 18 23 30c-10 0 -18.5 4.66699 -25.5 14s-11.5 17.666 -13.5 24.999h-55c-40.667 0 -78.334 2.66699 -113.001 8c-12 -32 -27.667 -48 -47 -48
c-2.66699 0 -5.33398 0.333008 -8.00098 1c-16 -8.66699 -26.333 -15.334 -31 -20.001c88 -56 145.333 -95 172 -117c4.66699 -1.33301 15.834 -3.33301 33.501 -6s31.167 -5.33398 40.5 -8.00098c28.667 -8 53 -25.667 73 -53c0 -5.33301 -1.33301 -8.83301 -4 -10.5
s-4.66699 -3.16699 -6 -4.5c-17.333 16 -31.666 26.833 -42.999 32.5s-30.333 10.5 -57 14.5c26.667 -16.667 45 -43.334 55 -80.001c-2 -5.33301 -4.83301 -8 -8.5 -8h-7.5c-35.333 56 -71.666 88.333 -108.999 97c-12.667 2 -30.667 3 -54 3s-53 -4.66699 -89 -14
c-4 6 -6 11.667 -6 17z" />
    <glyph glyph-name=".null" horiz-adv-x="0" 
 />
    <glyph glyph-name=".null" horiz-adv-x="0" 
 />
    <glyph glyph-name="nonmarkingreturn" unicode="&#xd;" horiz-adv-x="0" 
 />
    <glyph glyph-name="space" unicode=" " horiz-adv-x="850" 
 />
    <glyph glyph-name="exclam" unicode="!" horiz-adv-x="670" 
d="M557 2253c17.333 0 29 -11.667 35 -35c-2 -54.667 -10.667 -127.334 -26 -218.001s-31 -205.5 -47 -344.5s-46.667 -328.5 -92 -568.5s-96.333 -479.333 -153 -718c-12.667 -27.333 -31.667 -41 -57 -41c-20.667 0 -32.334 13.667 -35.001 41
c124 528 210.667 1004.33 260 1429c8.66699 68.667 19.334 136.334 32.001 203.001s20.667 134.334 24 203c4 13.333 11.667 24.833 23 34.5s23.333 14.5 36 14.5zM150 -47c-27.333 10 -41 29.833 -41 59.5s12.167 54.5 36.5 74.5s48 30 71 30s40.5 -7.66699 52.5 -23
s18 -34.833 18 -58.5s-9.5 -52.167 -28.5 -85.5s-43.833 -50 -74.5 -50c-11.333 0 -20.333 3.5 -27 10.5s-10 14.667 -10 23s1 14.833 3 19.5z" />
    <glyph glyph-name="quotedbl" unicode="&#x22;" horiz-adv-x="532" 
d="M260 1640c-23.333 0 -34.999 12.667 -34.999 38c0 69.333 29.333 169.333 88 300c14 27.333 33.333 41 58 41s37 -10 37 -30v-10c0 -3.33301 -10.167 -27.833 -30.5 -73.5s-39.833 -117.5 -58.5 -215.5c-3.33301 -15.333 -11.333 -27.5 -24 -36.5
s-24.334 -13.5 -35.001 -13.5zM522.001 1987c14.667 16 32.999 24 54.999 24s33 -11.667 33 -35v-7c0 -2.66699 -6.5 -14.667 -19.5 -36s-25.167 -50.333 -36.5 -87l-29.5 -98c-8.33301 -28.667 -17.166 -51.667 -26.499 -69s-25 -26 -47 -26s-33 12.333 -33 37
c0 82.667 34.667 181.667 104 297z" />
    <glyph glyph-name="numbersign" unicode="#" horiz-adv-x="1411" 
d="M1245 743l-361.993 1.99902h-17c-45.333 -272 -86.333 -465.667 -123 -581c-12.667 -27.333 -31.667 -41 -57 -41c-20.667 0 -32.334 13.667 -35.001 41c27.333 85.333 50.333 177.333 69 276l56 305l-156.5 -4c-52.333 -1.33301 -104.5 -4 -156.5 -8
c-21.333 -75.333 -55 -206.333 -101 -393c-12 -50 -18.667 -102 -20 -156c-2 -16 -9.33301 -29.5 -22 -40.5s-24 -16.5 -34 -16.5c-25.333 0 -38 14.333 -38 43c0 86 40.333 271 121 555c-54.667 -7.33301 -108.834 -16.5 -162.501 -27.5s-108.167 -17.5 -163.5 -19.5
c-28.667 2.66699 -43 14.334 -43 35.001c0 11.333 5.5 23.666 16.5 36.999s27.667 20.666 50 21.999s47.666 4 75.999 8s56.5 8.33301 84.5 13l84 14c28 4.66699 56 8.66699 84 12l48.5 180c19 69.333 30.167 115.333 33.5 138c-40 -3.33301 -81.5 -8.83301 -124.5 -16.5
s-80.5 -14 -112.5 -19s-63 -13.833 -93 -26.5c-12.667 -10.667 -24.334 -16 -35.001 -16c-22.667 0 -35.334 13.667 -38.001 41c19.333 60 94 95.667 224 107c31.333 2.66699 57.333 5.83398 78 9.50098s40.5 6.5 59.5 8.5l56.5 6c4 32 7.83301 66.5 11.5 103.5
s9.5 87.333 17.5 151s20.167 119.334 36.5 167.001s38.833 71.5 67.5 71.5s43 -19.667 43 -59c-2 -16 -10.333 -30.333 -25 -43c-11.333 -48 -21 -114.667 -29 -200s-15.333 -147 -22 -185l98 2c57.333 0 116 -1.33301 176 -4c40.667 178.667 83.667 318.667 129 420
c16 22 34.667 33 56 33s32 -16.667 32 -50c-48 -110 -90.333 -245.667 -127 -407c105.333 -6.66699 200.666 -10 285.999 -10s145 1.33301 179 4c23.333 -6 35 -17.667 35 -35c0 -44 -45 -66 -135 -66s-218.333 4.33301 -385 13
c-24.667 -131.333 -42.334 -230.333 -53.001 -297h14l363 -2c22.667 -6 34 -17.667 34 -35c0 -12.667 -4.83301 -24.667 -14.5 -36s-21.167 -19.333 -34.5 -24zM846.007 1139c-58.667 2.66699 -106.333 3.99902 -143 3.99902h-81c-17.333 0 -34.333 -0.666992 -51 -2
c-8 -36.667 -20.333 -85.667 -37 -147l-45 -165c52.667 3.33301 154 7 304 11c11.333 70.667 29 170.334 53 299.001z" />
    <glyph glyph-name="dollar" unicode="$" horiz-adv-x="1147" 
d="M862 1980c10.667 0 32.002 -2 64.002 -6c14.667 42 25.334 83.667 32.001 125c5.33301 14.667 14.166 26.5 26.499 35.5s23.5 13.5 33.5 13.5c22 0 33 -12.333 33 -37c0 -40.667 -12.333 -95.667 -37 -165c76 -42.667 130.667 -117.334 164 -224.001
c5.33301 -8.66699 8 -19.167 8 -31.5s-5.83301 -23.833 -17.5 -34.5s-23.5 -16 -35.5 -16c-20.667 0 -33.334 15 -38.001 45s-16.334 61.833 -35.001 95.5s-45.667 60.834 -81 81.501c-16 -39.333 -36 -104.333 -60 -195l-128 -469l72 -169c90.667 -208 136 -378 136 -510
s-33 -247.667 -99 -347c-84.667 -130 -218 -195 -400 -195c-18.667 0 -42 1.66699 -70 5l-24 -95c-15.333 -27.333 -34 -41 -56 -41s-34.333 13.667 -37 41l29 107c-164 34 -273.333 114 -328 240c-18.667 43.333 -28 89.666 -28 138.999c0 92.667 16.5 172.5 49.5 239.5
s89.5 135.833 169.5 206.5c13.333 11.333 26 17 38 17c26.667 0 40 -11 40 -33c0 -11.333 -3 -21.666 -9 -30.999c-68 -62.667 -113 -114.667 -135 -156c-36.667 -72 -55 -148 -55 -228s26.333 -146.667 79 -200s120.667 -89.333 204 -108l325 1100
c-82 196.667 -123 343 -123 439s24 180.167 72 252.5s121.667 108.5 221 108.5zM804.002 212c64.667 81.333 97.002 185.333 97.002 312c0 60.667 -13.333 133 -40 217s-65.334 186.667 -116.001 308l-144 -491l-144 -490h37c131.333 0 234.666 48 309.999 144z
M895.004 1890c-14.667 2.66699 -33.3311 3.99902 -55.998 3.99902c-48.667 0 -89.334 -22.333 -122.001 -67s-49 -95.667 -49 -153c0 -95.333 22.333 -208.333 67 -339c44.667 156.667 76.667 273.834 96 351.501s40.666 145.5 63.999 203.5z" />
    <glyph glyph-name="percent" unicode="%" horiz-adv-x="1028" 
d="M844 1931c12.667 11.333 25 17 37 17c27.333 0 41 -11 41 -33c0 -11.333 -9.66699 -31 -29 -59s-45.5 -85.667 -78.5 -173s-67.5 -187.5 -103.5 -300.5s-77.667 -231.167 -125 -354.5c-145.333 -383.333 -271.666 -751.333 -378.999 -1104c-14 -27.333 -33 -41 -57 -41
c-20.667 0 -32.334 13.667 -35.001 41c85.333 285.333 213 656 383 1112c45.333 120 75.333 201.333 90 244c114.667 330.667 200 547.667 256 651zM94 1678c0 76 20.332 134.833 60.999 176.5s90.5 62.5 149.5 62.5s107 -18.5 144 -55.5s55.5 -85 55.5 -144
s-18.167 -106.667 -54.5 -143s-84.666 -54.5 -144.999 -54.5s-110.5 15.667 -150.5 47s-60 68.333 -60 111zM728.999 86l69.998 -4.00195c22.667 0 43 7.83301 61 23.5s27 41.334 27 77.001s-12.667 70.834 -38 105.501s-54.5 52 -87.5 52s-57.833 -8.66699 -74.5 -26
c-29.333 -30.667 -44 -56.667 -44 -78c0 -39.333 13.667 -69 41 -89c5.33301 -8.66699 8 -19.167 8 -31.5s-5.66699 -23.666 -17 -33.999s-27.666 -15.5 -48.999 -15.5s-39.5 15.333 -54.5 46s-22.5 60 -22.5 88c0 58.667 21.667 112.667 65 162s95.5 74 156.5 74
s110.333 -23.833 148 -71.5s56.5 -97.167 56.5 -148.5c0 -85.333 -19.833 -144 -59.5 -176s-90.167 -48 -151.5 -48c-30 0 -52.833 1.66699 -68.5 5s-23.5 12.166 -23.5 26.499s5.33301 27.833 16 40.5s24.334 20 41.001 22zM407.997 1712
c0 76.667 -36.332 115 -108.999 115c-34 0 -61 -11.167 -81 -33.5s-30 -50.333 -30 -84s9.16699 -57 27.5 -70s44.166 -19.5 77.499 -19.5c76.667 0 115 30.667 115 92z" />
    <glyph glyph-name="ampersand" unicode="&#x26;" horiz-adv-x="1563" 
d="M514 1348c-110.667 93.333 -165.998 203.995 -165.998 331.995c0 39.333 10.833 79.333 32.5 120s50.834 74.667 87.501 102c73.333 56.667 165.666 85 276.999 85c154 0 275.667 -39.667 365 -119c31.333 -27.333 56.666 -60.333 75.999 -99l2 -12
c0 -24 -12.667 -42 -38 -54c-6.66699 -3.33301 -13.334 -5 -20.001 -5c-15.333 0 -27.333 11 -36 33c-17.333 47.333 -55.666 86 -114.999 116s-130.5 45 -213.5 45s-158.333 -20 -226 -60s-101.5 -96.333 -101.5 -169c0 -92.667 38 -170 114 -232
c27.333 -22.667 61 -41 101 -55h19c65.333 0 113.666 -14.667 144.999 -44c11.333 -10.667 17 -23.667 17 -39s-6.33301 -28.166 -19 -38.499s-27.667 -15.5 -45 -15.5c-82.667 16 -134 29 -154 39c-116 -13.333 -215.5 -70.833 -298.5 -172.5
s-124.5 -220.167 -124.5 -355.5c0 -193.333 54 -354.333 162 -483s244.667 -193 410 -193s310.333 50 435 150c81.333 64.667 138.666 144.667 171.999 240c16.667 48 25 96 25 144c0 89.333 -17.167 160.833 -51.5 214.5s-88.166 98.834 -161.499 135.501
c-110 -48 -186.333 -126.667 -229 -236c-14 -36 -21 -74.667 -21 -116s12.333 -78 37 -110c5.33301 -7.33301 8 -17.5 8 -30.5s-5.5 -25.167 -16.5 -36.5s-23.833 -17 -38.5 -17c-26.667 0 -48 22.667 -64 68c-13.333 34 -20 71 -20 111c0 80.667 25.5 158.834 76.5 234.501
s114.833 139.834 191.5 192.501c27.333 18.667 72.5 39.334 135.5 62.001s110.833 41 143.5 55c116 50 174 123 174 219l-19 166c4 13.333 11.833 24.833 23.5 34.5s22.5 14.5 32.5 14.5c36.667 0 55 -76.333 55 -229c0 -22.667 -7.33301 -51 -22 -85s-37 -67 -67 -99
c-67.333 -69.333 -160 -121.666 -278 -156.999c112.667 -62.667 178 -151 196 -265c6 -34.667 9 -76.667 9 -126c0 -106.667 -35.167 -209.334 -105.5 -308.001s-162.333 -177.5 -276 -236.5s-224.167 -88.5 -331.5 -88.5c-202.667 0 -367 73.167 -493 219.5
s-189 327.833 -189 544.5c0 104.667 20.833 197.667 62.5 279s81.5 141 119.5 179c66 66 144.667 116.333 236 151z" />
    <glyph glyph-name="quotesingle" unicode="'" horiz-adv-x="289" 
d="M225 1677c0 143.333 16.999 257.999 50.999 343.999c15.333 22 30.833 33 46.5 33s27 -3.16699 34 -9.5s10.5 -12.5 10.5 -18.5v-14c0 -2.66699 -1.66699 -7.66699 -5 -15s-6.66602 -19.166 -9.99902 -35.499s-6.5 -36.5 -9.5 -60.5s-6.16699 -53 -9.5 -87
s-7 -67 -11 -99s-12.167 -53.5 -24.5 -64.5s-23.5 -16.5 -33.5 -16.5c-26 0 -39 14.333 -39 43z" />
    <glyph glyph-name="parenleft" unicode="(" horiz-adv-x="582" 
d="M677 1864c84.667 83.333 135.334 125.001 152.001 125.001c12 6.66699 23 10 33 10c16.667 0 25 -7.66699 25 -23s-6.33301 -30.333 -19 -45s-27.834 -29.334 -45.501 -44.001l-55 -45c-19 -15.333 -35.167 -30.666 -48.5 -45.999
c-254 -290.667 -414.333 -643.334 -481 -1058c-20.667 -128.667 -31 -256 -31 -382c0 -256 41.667 -486.667 125 -692c14 -35.333 35.5 -76.833 64.5 -124.5s43.5 -76.167 43.5 -85.5v-7c0 -16.667 -6.66699 -32.167 -20 -46.5s-26.333 -21.5 -39 -21.5
c-20.667 0 -47 29 -79 87c-130.667 235.333 -196 519 -196 851c0 400 93.333 777 280 1131c60 112.667 118 204.667 174 276s95 118 117 140z" />
    <glyph glyph-name="parenright" unicode=")" horiz-adv-x="555" 
d="M303 1919c4.66699 26.667 20.334 47.0039 47.001 61.0039c7.33301 3.33301 16 5 26 5s18.333 -7.66699 25 -23c4.66699 -48.667 22.5 -115 53.5 -199s49.833 -150.667 56.5 -200c21.333 -157.333 32 -267 32 -329c0 -126.667 -22.833 -278.667 -68.5 -456
s-105.667 -348.5 -180 -513.5s-151.5 -293.5 -231.5 -385.5l-89.5 -101l-60 -66.5c-17 -18.333 -32.5 -34.333 -46.5 -48s-30.333 -28.834 -49 -45.501l-68 -60l-102 -90c-14.667 -8.66699 -27.667 -13 -39 -13c-19.333 0 -29 10 -29 30s31 56.333 93 109l76.5 64
c33 27.333 67.833 59.166 104.5 95.499s82.667 93.166 138 170.499c162.667 227.333 285.334 489.333 368.001 786c53.333 190 80 353.667 80 491s-10.333 244.666 -31 321.999s-42.834 150.333 -66.501 219s-36.834 127.667 -39.501 177z" />
    <glyph glyph-name="asterisk" unicode="*" horiz-adv-x="686" 
d="M287 1204c-24.667 0 -37 11.6641 -37 34.9971c0 6 1.33301 13.667 4 23l102 161c-55.333 -12 -106.333 -34.333 -153 -67c-16 -8.66699 -28.667 -13 -38 -13s-17.333 3.66699 -24 11s-10 17.5 -10 30.5s8.33301 26.5 25 40.5c60.667 39.333 119.334 67.333 176.001 84
c-10 13.333 -24.5 39.833 -43.5 79.5s-35.167 67.834 -48.5 84.501c-2.66699 6.66699 -4 15.667 -4 27s5.16699 22.666 15.5 33.999s22.333 17 36 17s26.667 -7.16699 39 -21.5s24.5 -32 36.5 -53s23.667 -43.333 35 -67s22 -44.834 32 -63.501v-2
c40 64 71.333 118.667 94 164c14 20.667 31 31 51 31c24.667 0 37 -11.667 37 -35c0 -14.667 -11.333 -41.167 -34 -79.5l-54 -92.5c82 8.66699 125.667 13.334 131 14.001c33.333 0 50 -10 50 -30c0 -11.333 -4.66699 -23.166 -14 -35.499s-21.333 -21.166 -36 -26.499
c-30 -4 -57.833 -6.83301 -83.5 -8.5s-50.834 -3.5 -75.501 -5.5c30 -48 76.333 -104.667 139 -170c5.33301 -6.66699 8 -16.667 8 -30s-5.5 -25.666 -16.5 -36.999s-23 -17 -36 -17s-24.167 4.66699 -33.5 14c-60 66 -105.667 121.333 -137 166l-86 -137
c-11.333 -16.667 -27 -25 -47 -25z" />
    <glyph glyph-name="plus" unicode="+" horiz-adv-x="903" 
d="M375 299c-23.333 0 -35.002 29.332 -35.002 87.999s13.667 148 41 268c-7.33301 0 -17.666 -1.33301 -30.999 -4l-43.5 -8.5l-58.5 -11.5c-50.667 -23.333 -89.667 -35 -117 -35s-41 10.333 -41 31c0 9.33301 2 16 6 20c8.66699 14.667 20 26.5 34 35.5
s25.167 13.5 33.5 13.5s13.833 -1.33301 16.5 -4c62 28.667 128.333 45 199 49h16c2 18 5.66699 37.333 11 58l14 61c2.66699 12.667 4 30.334 4 53.001v45c0 35.333 13.333 61.333 40 78c8 5.33301 17.333 8 28 8c25.333 0 38 -16.5 38 -49.5s-1.5 -60 -4.5 -81
s-6.66699 -41 -11 -60s-8.83301 -37.333 -13.5 -55s-8.66699 -35.5 -12 -53.5h15c31.333 0 67.5 -3.33301 108.5 -10s72.833 -10 95.5 -10s45.334 1.33301 68.001 4c19.333 -5.33301 29 -16.5 29 -33.5s-13.667 -33.833 -41 -50.5c-8 -4.66699 -15.667 -8 -23 -10l-268 22
c-20.667 -112 -31 -198 -31 -258v-28c-10 -48 -32.333 -72 -67 -72z" />
    <glyph glyph-name="comma" unicode="," horiz-adv-x="330" 
d="M-41 -381c-24.667 0 -37.001 12.332 -37.001 36.999c0 10 4 21.667 12 35c30.667 34.667 62.834 85.334 96.501 152.001s53.5 107.334 59.5 122.001c0 4.66699 -2.33301 8.16699 -7 10.5s-7 7.16602 -7 14.499c-12 -5.33301 -23.667 -8 -35 -8
c-27.333 0 -41 14.333 -41 43c0 24 9.16699 47.667 27.5 71s43.5 35 75.5 35c58 0 87 -37 87 -111c0 -54.667 -22.5 -121.167 -67.5 -199.5s-87.833 -141.5 -128.5 -189.5c-12 -8 -23.667 -12 -35 -12z" />
    <glyph glyph-name="hyphen" unicode="-" horiz-adv-x="870" 
d="M127 547c-24.667 0 -36.999 12.668 -36.999 38.001c0 21.333 11.667 37.666 35 48.999s52.333 17 87 17s78.167 -3.33301 130.5 -10s108.666 -10 168.999 -10s128.833 10.333 205.5 31h12c12.667 0 22 -3.16699 28 -9.5s9 -13.5 9 -21.5c0 -64 -136 -96 -408 -96
c-63.333 0 -105 4.66699 -125 14l-57 2l-39 -6c-2.66699 0 -4 0.666992 -4 2h-6z" />
    <glyph glyph-name="period" unicode="." horiz-adv-x="256" 
d="M-18 -25c-40 0 -60 23.667 -60 71c0 23.333 9.83301 44.333 29.5 63s41 28 64 28s45.167 -8 66.5 -24c23.333 -22.667 35 -45 35 -67s-8.33301 -40.667 -25 -56s-34.667 -23 -54 -23s-35.333 2.66699 -48 8h-8z" />
    <glyph glyph-name="slash" unicode="/" horiz-adv-x="815" 
d="M-236 -887c0 5.33301 12.665 39.168 37.998 101.501s72 183.833 140 364.5l164 423l185 459c56.667 142.667 129.334 315.167 218.001 517.5l195 437.5c74 158.667 117.333 270 130 334c25.333 125.333 48.333 211.666 69 258.999s48 74 82 80h12
c24.667 0 37 -10.667 37 -32s-12.333 -40 -37 -56c-15.333 -30 -26.166 -63 -32.499 -99l-15 -86c-3.66699 -21.333 -14.667 -60.5 -33 -117.5s-83.166 -209.5 -194.499 -457.5s-188.5 -423.5 -231.5 -526.5l-116 -282l-104.5 -262l-107 -272.5l-131 -336l-175 -443
c-10.667 -26 -28.834 -39 -54.501 -39s-38.5 11 -38.5 33z" />
    <glyph glyph-name="zero" unicode="0" horiz-adv-x="932" 
d="M795 862c38 -44 57 -112.832 57 -206.499s-20 -194.334 -60 -302.001s-96.5 -197.334 -169.5 -269.001s-155.167 -107.5 -246.5 -107.5s-160.666 42.333 -207.999 127c-39.333 70.667 -59 159 -59 265c0 170 33.667 323 101 459c50.667 102 120.667 174.667 210 218
c46.667 22 91.167 33 133.5 33s73.666 -4.83301 93.999 -14.5s39.833 -21.5 58.5 -35.5s37 -29.167 55 -45.5s37.333 -31.5 58 -45.5c5.33301 -8.66699 8 -21.167 8 -37.5s-10.667 -29.166 -32 -38.499zM741 868.001c-10.667 8 -22.332 18.3311 -34.999 30.998
c-56.667 54.667 -106 82 -148 82c-81.333 0 -149.5 -32.167 -204.5 -96.5s-94.167 -143.666 -117.5 -237.999s-35 -183.5 -35 -267.5s9.16699 -148.167 27.5 -192.5s38.833 -77.333 61.5 -99s53.334 -32.5 92.001 -32.5c75.333 0 141.666 34.5 198.999 103.5
s100.166 150.167 128.499 243.5s42.5 168.833 42.5 226.5s-11 113.834 -33 168.501c-2.66699 6.66699 -4 16.667 -4 30s8.66699 27 26 41z" />
    <glyph glyph-name="one" unicode="1" horiz-adv-x="733" 
d="M-102 16c0 37.333 8.00098 55.999 24.001 55.999c90.667 0 155.334 1.66699 194.001 5s69 5.66602 91 6.99902c20.667 198.667 38.667 332.834 54 402.501s32.666 136.834 51.999 201.501c-58.667 -88.667 -128.334 -171.334 -209.001 -248.001
c-12 -8 -23.333 -12 -34 -12c-24.667 0 -37 12.333 -37 37c0 10 4 21.667 12 35c70 71.333 114.833 120 134.5 146l57 76c18.333 24.667 36.833 55.334 55.5 92.001l54 104.5c17.333 33 34.5 60.833 51.5 83.5s34.167 34 51.5 34s26 -10.667 26 -32v-10
c0 -3.33301 -0.666992 -7 -2 -11l-6 -20h2l-4 -7c-86 -324.667 -141.333 -614 -166 -868c60 2.66699 116.333 4 169 4h86c6 0 15.5 -0.5 28.5 -1.5s26.5 -1.83301 40.5 -2.5c22.667 -6 34 -19.5 34 -40.5s-12.333 -38.167 -37 -51.5c-8 -4 -16 -6 -24 -6l-141 10l-486 -8
c-14 -8 -25.667 -12 -35 -12c-24 0 -36 12 -36 36z" />
    <glyph glyph-name="two" unicode="2" horiz-adv-x="1032" 
d="M159 715c-24 0 -36.0049 12.334 -36.0049 37.001c0 46 20.667 91.167 62 135.5s93 81.166 155 110.499s123.333 44 184 44c190 0 285 -80.5 285 -241.5s-125.667 -367.167 -377 -618.5c86 -50 145.667 -79.167 179 -87.5s62.5 -12.5 87.5 -12.5s45.167 7.33301 60.5 22
s27.5 33.167 36.5 55.5s15.833 46.333 20.5 72s9.83398 49.667 15.501 72s12.834 40.833 21.501 55.5s22.167 22 40.5 22s30.5 -12.333 36.5 -37c-8 -104 -24.667 -178.833 -50 -224.5s-52.833 -79 -82.5 -100s-61.334 -31.5 -95.001 -31.5s-63.167 4.16699 -88.5 12.5
s-51.166 19 -77.499 32s-53.166 27.5 -80.499 43.5l-83 47c-7.33301 -8.66699 -14.5 -16.167 -21.5 -22.5s-20.833 -19.833 -41.5 -40.5c-52 -52 -116.333 -78 -193 -78c-43.333 0 -81 13.333 -113 40c-31.333 26.667 -47 56 -47 88c0 56 16.833 99.5 50.5 130.5
s75.334 46.5 125.001 46.5s116.167 -17 199.5 -51c3.33301 -2.66699 6.33301 -4.5 9 -5.5l9 -3.5c244.667 244.667 367 433.334 367 566.001c0 103.333 -68.333 155 -205 155c-76.667 0 -145.334 -19.333 -206.001 -58s-91 -83.334 -91 -134.001
c-5.33301 -12.667 -13.666 -22.667 -24.999 -30s-21.666 -11 -30.999 -11zM46.9951 132.001c0 -34.667 25.3311 -52 75.998 -52s105.334 28 164.001 84c-54.667 23.333 -98.667 35 -132 35s-59.666 -7 -78.999 -21s-29 -29.333 -29 -46z" />
    <glyph glyph-name="three" unicode="3" horiz-adv-x="930" 
d="M209 227c-27.333 2.66699 -40.999 14.501 -40.999 35.501s19.667 42.833 59 65.5s81.666 39 126.999 49l66 41c56.667 33.333 119.334 87 188.001 161s103 138.333 103 193s-6.66699 92.667 -20 114c-28.667 46.667 -78.667 70 -150 70c-136 0 -257 -62 -363 -186
c-14.667 -16.667 -28.334 -25 -41.001 -25c-27.333 0 -41 12.333 -41 37c0 53.333 51.5 110.333 154.5 171s198.333 91 286 91s154.667 -23.833 201 -71.5s69.5 -100 69.5 -157s-17 -115.167 -51 -174.5c-38 -61.333 -94 -128 -168 -200
c-24 -23.333 -49.333 -45.333 -76 -66c109.333 -23.333 196 -82.5 260 -177.5s96 -205.833 96 -332.5c0 -198 -53.333 -361 -160 -489c-121.333 -145.333 -302 -218 -542 -218c-127.333 0 -254.666 40.667 -381.999 122c-86.667 55.333 -149 124 -187 206
c-19.333 42.667 -29 80.667 -29 114c0 136.667 26.667 205 80 205c17.333 0 29 -11.333 35 -34c-2.66699 -22.667 -5.83398 -45.167 -9.50098 -67.5s-5.5 -49.5 -5.5 -81.5c0 -68.667 26.333 -132.167 79 -190.5s119.5 -102.833 200.5 -133.5s166.667 -46 257 -46
s172 17.5 245 52.5s133.167 81.5 180.5 139.5c93.333 114.667 140 259 140 433c0 104 -35 200.667 -105 290s-152.333 134 -247 134h-12c-70 -40.667 -135.667 -65.334 -197 -74.001z" />
    <glyph glyph-name="four" unicode="4" horiz-adv-x="1022" 
d="M643 -29c-344 -4 -530.998 -6.00098 -560.998 -6.00098s-45 12.333 -45 37c0 12.667 4 25 12 37l160.5 183.5l173 190.5c67 74 133 154.5 198 241.5s137.167 199.833 216.5 338.5c15.333 22 33.833 33 55.5 33s32.5 -16.333 32.5 -49
c-20.667 -37.333 -38.667 -67.333 -54 -90c11.333 -6 17 -15.667 17 -29l-4 -39c-8 -200.667 -41 -452.667 -99 -756c107.333 9.33301 169.666 15 186.999 17c32.667 0 49 -10.333 49 -31s-11.5 -38.834 -34.5 -54.501s-55.167 -23.5 -96.5 -23.5h-123
c-52.667 -288 -84 -500.333 -94 -637l-5 -48c-8.66699 -84 -38.334 -126 -89.001 -126c-23.333 0 -35 12.333 -35 37c0 8.66699 2.66699 16 8 22s8.33301 14.833 9 26.5s1.16699 25.834 1.5 42.501s15 102.334 44 257.001s54.5 296.667 76.5 426zM284.002 54.999
l118.001 0.000976562c112 0 197 1.33301 255 4c42 266.667 76.333 505 103 715c-86 -130.667 -191.333 -265.834 -316 -405.501l-272 -311.5c37.333 -1.33301 74.666 -2 111.999 -2z" />
    <glyph glyph-name="five" unicode="5" horiz-adv-x="1335" 
d="M229 78c-24 0 -35.999 12.333 -35.999 37c0 8.66699 1.33301 15.334 4 20.001c106 148.667 177 262.667 213 342c70.667 157.333 106 322 106 494c4.66699 15.333 13.667 27.666 27 36.999c13.333 16 28 24 44 24s28.833 -4.66699 38.5 -14s19.5 -18.333 29.5 -27
c57.333 -28.667 172 -43 344 -43c107.333 0 199.666 26.667 276.999 80c22.667 15.333 39 23 49 23c23.333 0 35 -12.333 35 -37c0 -35.333 -44 -72 -132 -110c-58.667 -26 -106.167 -39.833 -142.5 -41.5s-64.5 -2.5 -84.5 -2.5c-194.667 0 -325.667 13.667 -393 41
c-11.333 -220 -83 -431 -215 -633c74.667 36 181.5 54 320.5 54s266.167 -50.167 381.5 -150.5s173 -233.666 173 -399.999s-51.667 -306.833 -155 -421.5c-118.667 -130.667 -285.667 -196 -501 -196c-158.667 0 -297.334 42.667 -416.001 128c-136 98 -204 231 -204 399
c0 69.333 19 104 57 104c14 0 25.667 -7.66699 35 -23v-28c0 -154.667 50 -273.667 150 -357s225.333 -125 376 -125c255.333 0 425.333 95.333 510 286c30 68 45 141 45 219c0 139.333 -45.167 253.166 -135.5 341.499s-200.833 132.5 -331.5 132.5
c-88 0 -161.167 -10 -219.5 -30s-129.166 -57 -212.499 -111c-12 -8 -24.333 -12 -37 -12z" />
    <glyph glyph-name="six" unicode="6" horiz-adv-x="1126" 
d="M1048 1916c28.667 -24 59.667 -63.8311 93 -119.498s50 -93.5 50 -113.5c0 -36.667 -19.333 -55 -58 -55c-21.333 0 -33.666 4.66699 -36.999 14c-41.333 107.333 -80.666 176.166 -117.999 206.499s-88 45.5 -152 45.5s-118.167 -15.333 -162.5 -46
s-86.166 -72 -125.499 -124c-72.667 -98.667 -137 -231.834 -193 -399.501s-96 -338.167 -120 -511.5c84.667 125.333 188.667 208 312 248c41.333 13.333 84 20 128 20c88 0 159.333 -38.667 214 -116s82 -181.333 82 -312c0 -182 -41.667 -336 -125 -462
c-94 -140.667 -227.333 -211 -400 -211c-108 0 -191.667 44 -251 132s-89 204.333 -89 349c0 100 17.667 244.167 53 432.5s80.666 362.5 135.999 522.5s127.166 295.167 215.499 405.5s187.166 165.5 296.499 165.5s193 -23.667 251 -71zM201 494.002
c0 -194.667 41.668 -325 125.001 -391c30.667 -24.667 70.667 -37 120 -37c96 0 176.167 29.5 240.5 88.5s110.666 133 138.999 222s42.5 173.167 42.5 252.5c0 132 -22.833 224 -68.5 276s-107 78 -184 78s-162.167 -45 -255.5 -135s-146.333 -207.333 -159 -352v-2z" />
    <glyph glyph-name="seven" unicode="7" horiz-adv-x="971" 
d="M819 1024c44 0 66.001 -29.666 66.001 -88.999c0 -29.333 -13 -64.333 -39 -105c-110 -167.333 -226 -418 -348 -752h268c23.333 0 35 -12.333 35 -37c0 -14.667 -6.33301 -27.834 -19 -39.501s-27.667 -17.5 -45 -17.5c-106.667 10.667 -194 16 -262 16h-6
c-49.333 -130.667 -102.5 -283.167 -159.5 -457.5s-91.833 -276.5 -104.5 -306.5s-25.167 -52.333 -37.5 -67s-27.833 -23.667 -46.5 -27c-22.667 2.66699 -37 12.334 -43 29.001l-4 22c0 40.667 10.667 64 32 70c37.333 68 83.166 187.167 137.499 357.5l123.5 377.5h-54
c-80.667 0 -148.667 2 -204 6c-9.33301 -2.66699 -17 -4 -23 -4c-23.333 0 -35 12.333 -35 37c0 20 8.33301 35.667 25 47l191 -1l130 -1c102.667 294 215.334 548.667 338.001 764c5.33301 9.33301 12.333 20.166 21 32.499s16 26.833 22 43.5l-518 8
c-12.667 0 -36 -5.16699 -70 -15.5s-58.333 -15.5 -73 -15.5c-49.333 0 -74 23 -74 69c0 25.333 11.667 42 35 50s60.666 12 111.999 12z" />
    <glyph glyph-name="eight" unicode="8" horiz-adv-x="1018" 
d="M45 408c0 168.667 101.002 346.331 303.002 532.998l176 163c-48 52.667 -87.333 111.334 -118 176.001c-56 118.667 -84 210 -84 274c0 129.333 33.333 232.333 100 309s157.334 115 272.001 115c94 0 165.333 -49.333 214 -148c36.667 -74.667 55 -144.167 55 -208.5
s-6.83301 -116.166 -20.5 -155.499s-31.834 -76 -54.501 -110c-38.667 -58.667 -122.334 -146.667 -251.001 -264l84 -148c120 -204.667 180 -372.5 180 -503.5s-38.667 -244 -116 -339s-182 -142.5 -314 -142.5c-104.667 0 -201.834 40.5 -291.501 121.5
s-134.5 190.167 -134.5 327.5zM727.002 745.997c-25.333 56 -77.999 150.666 -157.999 283.999l-150 -134c-184 -167.333 -276 -315.666 -276 -444.999c0 -115.333 28.667 -208.833 86 -280.5s132.166 -107.5 224.499 -107.5s173.333 35.5 243 106.5
s104.5 157.167 104.5 258.5s-24.667 207.333 -74 318zM682.003 1884c-181.333 0 -272.001 -102.333 -272.001 -307c0 -56.667 19.667 -126.834 59 -210.501s77 -144.5 113 -182.5l10 -17l67 66c24 26.667 48.5 51.834 73.5 75.501s47.833 48.167 68.5 73.5
c47.333 58 71 119.333 71 184c0 108.667 -22 192 -66 250c-33.333 45.333 -74.666 68 -123.999 68z" />
    <glyph glyph-name="nine" unicode="9" horiz-adv-x="952" 
d="M962 880l-0.998047 -77.998c0 -37.333 -11.667 -96 -35 -176s-55 -157 -95 -231c-13.333 -57.333 -26.333 -119.5 -39 -186.5s-32 -162.167 -58 -285.5c-66 -318.667 -168 -545 -306 -679c-84.667 -83.333 -193.334 -125 -326.001 -125c-100.667 0 -179 21.667 -235 65
s-116.667 121.333 -182 234c-1.33301 3.33301 -2 6.66602 -2 9.99902v11c2 15.333 9 29 21 41s22.333 18 31 18s14.334 -1.83301 17.001 -5.5s6.66699 -9.83398 12 -18.501s9 -13.667 11 -15c68.667 -149.333 149.667 -231.666 243 -246.999c26 -4.66699 51.333 -7 76 -7
c110 0 209.333 51.667 298 155c114.667 134.667 200 334 256 598c16 77.333 28 153.333 36 228c-114.667 -124 -235.334 -186 -362.001 -186c-96.667 0 -169.334 46.667 -218.001 140c-38.667 74 -58 147 -58 219c0 18.667 1.33301 37 4 55c22 160.667 69.333 290 142 388
c112.667 148 278 222 496 222c63.333 0 122 -15.333 176 -46c18 -10 33.667 -22 47 -36c21.333 -2.66699 34.333 -7.33398 39 -14.001c8 -11.333 12 -27.333 12 -48zM827.002 874.002c-37.333 34.667 -81.002 52 -131.002 52c-96 0 -180.5 -14.167 -253.5 -42.5
s-136.5 -81.166 -190.5 -158.499s-90.333 -183 -109 -317c-2.66699 -19.333 -4 -46.333 -4 -81s9.66699 -74.334 29 -119.001c34.667 -76 95.334 -114 182.001 -114c104.667 0 205.334 60.667 302.001 182c28 35.333 53.667 73 77 113c14.667 52 31 132.667 49 242
s34.333 190.333 49 243z" />
    <glyph glyph-name="colon" unicode=":" horiz-adv-x="485" 
d="M301 699.5c-16.667 -7.66699 -34.334 -11.501 -53.001 -11.501s-37 8.33301 -55 25s-27 40.834 -27 72.501s11 63 33 94s46.5 46.5 73.5 46.5s53.5 -10.833 79.5 -32.5s39 -43.5 39 -65.5s-4.16699 -40.833 -12.5 -56.5s-19.166 -29.667 -32.499 -42
s-28.333 -22.333 -45 -30zM76 -39.001c-14.667 2 -24.334 4.66699 -29.001 8h-2c-12.667 0 -26.334 14.667 -41.001 44s-22 57.333 -22 84s9 47.167 27 61.5s40.833 21.5 68.5 21.5s55.834 -10.167 84.501 -30.5s43 -42.833 43 -67.5s-7.66699 -46 -23 -64
c-31.333 -34.667 -66.666 -53.667 -105.999 -57z" />
    <glyph glyph-name="semicolon" unicode=";" horiz-adv-x="506" 
d="M-55 -246c57.333 70.667 96.4961 129.003 117.496 175.003s31.5 79.333 31.5 100v2c-3.33301 -12.667 -11.166 -23.667 -23.499 -33s-26.666 -14 -42.999 -14s-29.166 7.33301 -38.499 22s-14 32.167 -14 52.5s13.5 44 40.5 71s53.333 40.5 79 40.5
s48.834 -12.167 69.501 -36.5s31 -46.833 31 -67.5c0 -52.667 -32.333 -135.334 -97 -248.001c-30 -52.667 -55.667 -88.334 -77 -107.001s-37.833 -28 -49.5 -28s-21.167 3.16699 -28.5 9.5s-11 14.166 -11 23.499s4.33301 22 13 38zM243.996 707.003
c-6 -4.66699 -13.666 -7 -22.999 -7c-16 0 -28.833 14.833 -38.5 44.5s-14.5 58.167 -14.5 85.5s9.16699 50.5 27.5 69.5s42.166 28.5 71.499 28.5s56 -9.83301 80 -29.5s36 -44.5 36 -74.5s-12 -57.333 -36 -82s-51 -37 -81 -37h-10c-4 0 -8 0.666992 -12 2z" />
    <glyph glyph-name="less" unicode="&#x3c;" horiz-adv-x="934" 
d="M809 1020c21.333 0 31.998 -6.33105 31.998 -18.998c0 -30.667 -12.167 -51.667 -36.5 -63s-113.833 -98 -268.5 -260l-30 -29c-1.33301 0 -15.833 -11 -43.5 -33s-49.834 -40.5 -66.501 -55.5s-25.334 -27.667 -26.001 -38s4.33301 -25 15 -44s24 -39.833 40 -62.5
s33.667 -46 53 -70l55.5 -67.5l47 -55.5c13.667 -16 22.334 -26.833 26.001 -32.5s5.5 -14.5 5.5 -26.5s-7.16699 -24.167 -21.5 -36.5s-27.666 -18.5 -39.999 -18.5s-21.833 1.33301 -28.5 4c-7.33301 9.33301 -18.666 22.666 -33.999 39.999
c-148 163.333 -222 272.833 -222 328.5s45.333 116.5 136 182.5c22 16 41 31 57 45l114 108c2.66699 2 5.83398 5.66699 9.50098 11s6.16699 8 7.5 8c0 -1.33301 -0.333008 -2.5 -1 -3.5s-1 -2.16699 -1 -3.5l46 55c57.333 69.333 112.333 114.666 165 135.999h10z" />
    <glyph glyph-name="equal" unicode="=" horiz-adv-x="934" 
d="M705 709c-177.333 9.33301 -289.999 14 -337.999 14c-114.667 0 -180.334 -9.66699 -197.001 -29c-12 -8 -23.667 -12 -35 -12c-24.667 0 -37 12.333 -37 37c0 68 109.333 102 328 102s328 -17.667 328 -53c0 -12.667 -4.83301 -24.667 -14.5 -36s-21.167 -19 -34.5 -23z
M791.001 469l-299.001 12.001c-141.333 0 -246.666 -21 -315.999 -63c-8 -2.66699 -15.333 -4 -22 -4c-23.333 0 -35 12.333 -35 37c0 30 25 55.667 75 77c72 30 175.333 45 310 45c51.333 0 102.5 -1.33301 153.5 -4s100.167 -4.66699 147.5 -6
c23.333 -6.66699 35 -18.334 35 -35.001c0 -12 -4.83301 -23.833 -14.5 -35.5s-21.167 -19.5 -34.5 -23.5z" />
    <glyph glyph-name="greater" unicode="&#x3e;" horiz-adv-x="934" 
d="M537 891l2 2.00195c0 -4 2 -6 6 -6l4 -4l4 -15c86 -146 156.667 -235.667 212 -269c41.333 -24.667 62 -47.167 62 -67.5s-7.16699 -38.166 -21.5 -53.499s-29.166 -30 -44.499 -44l-49.5 -45l-52 -47l-47.5 -42.5c-14.667 -13 -32.334 -30.167 -53.001 -51.5
c-63.333 -64 -129 -114.667 -197 -152c-8 -2.66699 -15.333 -4 -22 -4c-19.333 0 -29 10.167 -29 30.5s12.833 38.166 38.5 53.499s50 32.666 73 51.999s45 39.5 66 60.5l62 63.5c20.333 21.333 41.5 42 63.5 62l97 86c-18.667 17.333 -38.167 33.666 -58.5 48.999
s-42.333 35.5 -66 60.5s-46.5 56.833 -68.5 95.5s-44.333 76 -67 112v8c0 18.667 6.66699 35 20 49s26.5 21 39.5 21s21.833 -1.33301 26.5 -4z" />
    <glyph glyph-name="question" unicode="?" horiz-adv-x="913" 
d="M180 1473c0 -16.667 -9.33691 -24.998 -28.0039 -24.998c-60.667 0 -91 59 -91 177s56.333 211.333 169 280c94.667 57.333 199.667 86 315 86c158 0 264.333 -72.667 319 -218c19.333 -52.667 29 -110.667 29 -174s-4 -114.333 -12 -153s-19.167 -74.5 -33.5 -107.5
s-31.166 -63.833 -50.499 -92.5s-40.166 -57.667 -62.499 -87l-70.5 -91c-63.333 -83.333 -114.166 -166.333 -152.499 -249s-72.166 -232.667 -101.499 -450c-2 -16.667 -9.33301 -30.5 -22 -41.5s-24.667 -16.5 -36 -16.5c-22 0 -34.333 14.333 -37 43
c34 192.667 60 320.167 78 382.5s41.5 119.166 70.5 170.499s84.5 134.666 166.5 249.999c111.333 159.333 167 299 167 419s-28.333 206.667 -85 260c-42.667 38.667 -94.667 58 -156 58c-117.333 0 -214.833 -25.333 -292.5 -76s-116.5 -118 -116.5 -202
c0 -14.667 5.5 -40 16.5 -76s16.5 -58.333 16.5 -67zM353.996 172.002c48 0 72.001 -20.001 72.001 -60.001c0 -18.667 -4.66699 -43.667 -14 -75c-20.667 -39.333 -46.667 -64 -78 -74c-42 0 -70.667 15.333 -86 46c-5.33301 10.667 -8 29.334 -8 56.001
s13.167 51.167 39.5 73.5s51.166 33.5 74.499 33.5z" />
    <glyph glyph-name="at" unicode="@" horiz-adv-x="1706" 
d="M666 293c-90.667 0 -135.997 82.168 -135.997 246.501s21.333 317.166 64 458.499c90.667 296 204.667 444 342 444c20 0 38.333 -5.16699 55 -15.5l39.5 -25c9.66699 -6.33301 20.167 -11.5 31.5 -15.5c22.667 -6.66699 34 -20 34 -40s-12.667 -36 -38 -48
c-8 -4 -17.333 -6 -28 -6s-29.667 9 -57 27s-50.833 27 -70.5 27s-40.834 -11.167 -63.501 -33.5s-46.667 -57 -72 -104s-55.333 -134.167 -90 -261.5s-52 -250.5 -52 -369.5s18.333 -178.5 55 -178.5c68 0 163 157.667 285 473c7.33301 20 15 45.333 23 76
c32 127.333 71.333 191 118 191c31.333 0 47 -64.333 47 -193l-2 -198c0 -120 13.333 -198.667 40 -236c11.333 -15.333 26.666 -23 45.999 -23c85.333 0 161.333 29.667 228 89c115.333 102 173 248.667 173 440c0 53.333 -7.16699 115.5 -21.5 186.5
s-35.166 137.5 -62.499 199.5c-54.667 128 -131.834 229.833 -231.501 305.5s-212.834 113.5 -339.501 113.5c-175.333 0 -327.833 -43.333 -457.5 -130s-229.167 -202 -298.5 -346s-104 -299.333 -104 -466c0 -434.667 129 -723 387 -865c106 -58.667 227.333 -88 364 -88
c175.333 0 328 53.333 458 160c70 57.333 130.333 116.833 181 178.5l125 149.5c13.333 10.667 27 16 41 16c23.333 0 35 -11.667 35 -35c0 -14 -5.33301 -27.667 -16 -41l-108.5 -128c-35 -42.667 -71.167 -83.334 -108.5 -122.001c-84 -88 -175.833 -156 -275.5 -204
s-220 -72 -361 -72s-271.167 36 -390.5 108c-202.667 122 -336 320.667 -400 596c-22.667 97.333 -34 198 -34 302c0 198 36.5 378.333 109.5 541s181.333 294.334 325 395.001s316.5 151 518.5 151c226 0 407 -85.333 543 -256s204 -409 204 -715
c0 -109.333 -36.667 -223 -110 -341c-54 -87.333 -124 -150 -210 -188c-45.333 -20 -93.333 -30 -144 -30c-86 0 -143.667 42.333 -173 127c-18.667 54 -28 135.333 -28 244v72c-99.333 -278.667 -203 -451.667 -311 -519c-25.333 -16 -51.333 -24 -78 -24z" />
    <glyph glyph-name="A" unicode="A" 
d="M211 653c52.667 -6.66699 141.331 -12.667 265.998 -18c115.333 174 263 430.333 443 769c112.667 212 185.667 394.667 219 548c5.33301 14 14 25.667 26 35s23.667 14 35 14c17.333 0 27 -10.333 29 -31c10.667 -10.667 15.5 -22.667 14.5 -36
s-5.16699 -23.666 -12.5 -30.999c-15.333 -54 -26.166 -110.5 -32.499 -169.5s-19.333 -168.167 -39 -327.5s-29.5 -293.333 -29.5 -402s8.33301 -240.667 25 -396c82 -8.66699 126.333 -17.667 133 -27s10 -19.666 10 -30.999s-6.16699 -22.833 -18.5 -34.5
s-25.666 -17 -39.999 -16s-26.833 2.33301 -37.5 4s-21.667 3.16699 -33 4.5v-10c0 -4 1.16699 -14.333 3.5 -31s3.66602 -39.667 3.99902 -69s1.66602 -55.5 3.99902 -78.5s6.16602 -46.833 11.499 -71.5l23.5 -106.5c10.333 -46.333 15.5 -76.833 15.5 -91.5
s-5.5 -27.667 -16.5 -39s-23.333 -17 -37 -17s-25.5 9.83301 -35.5 29.5s-18.333 44.834 -25 75.501s-12.167 65 -16.5 103s-8.16602 75.5 -11.499 112.5s-6.16602 71.333 -8.49902 103s-4.83301 56.5 -7.5 74.5l-6 28c-90.667 9.33301 -182.334 14.666 -275.001 15.999
s-185.334 3 -278.001 5c-176 -266.667 -342 -435.334 -498 -506.001c-52 -26 -92.667 -39 -122 -39c-36 0 -54 17 -54 51c0 17.333 6 32.333 18 45s24.5 19 37.5 19s23.167 -5.66699 30.5 -17l2 2c142.667 55.333 277.334 167.333 404.001 336l47 63
c12 15.333 23.667 31.333 35 48c-103.333 5.33301 -180.666 10.666 -231.999 15.999c-18.667 7.33301 -28 18.333 -28 33s5.83301 28 17.5 40s24.834 19 39.501 21zM1057 618c-11.333 89.333 -17.001 210.501 -17.001 363.501s14.333 338.5 43 556.5
c-80.667 -167.333 -170.167 -336.833 -268.5 -508.5s-177.166 -303.834 -236.499 -396.501c80 -1.33301 160.167 -2.5 240.5 -3.5s159.833 -4.83301 238.5 -11.5z" />
    <glyph glyph-name="B" unicode="B" horiz-adv-x="1053" 
d="M6 -82c2.66699 21.333 7.33301 48.665 14 81.998l-58 12c-82.667 16.667 -125.334 38.667 -128.001 66c-0.666992 3.33301 -1 8.83301 -1 16.5s3.83301 16 11.5 25s15 13.5 22 13.5s14.167 -1 21.5 -3c9.33301 -3.33301 25 -10.166 47 -20.499s57.333 -15.5 106 -15.5
l53 223c20.667 105.333 43.834 211.166 69.501 317.499l76.5 323.5l-62 3c-20.667 0 -31 11.333 -31 34c0 32.667 37 49 111 49c30 127.333 56.667 265.666 80 414.999s53.333 282.333 90 399c-24.667 -10.667 -47.334 -25 -68.001 -43c-12 -24.667 -29.667 -37 -53 -37
c-6 0 -13.333 2.83301 -22 8.5s-13 16.5 -13 32.5c0 31.333 20 59.166 60 83.499s85.667 41.5 137 51.5c8.66699 14 19.167 21 31.5 21s22.833 -5.66699 31.5 -17c126.667 -4 228.334 -47.5 305.001 -130.5s115 -193.833 115 -332.5c0 -113.333 -41.833 -218 -125.5 -314
s-177.5 -151 -281.5 -165c116 -7.33301 217.667 -58.166 305 -152.499s131 -192.166 131 -293.499c0 -194.667 -74.5 -341 -223.5 -439s-350.833 -147 -605.5 -147l-43 2c-4.66699 -19.333 -7 -35.666 -7 -48.999c-3.33301 -17.333 -10.833 -31.666 -22.5 -42.999
s-22.834 -17 -33.501 -17c-23.333 0 -36.666 13.667 -39.999 41zM126.999 79.999c18 -2.66699 44.667 -3.99805 80 -3.99805c218 0 385.833 43.667 503.5 131s176.5 204 176.5 350c0 102 -46.667 193 -140 273s-197 120 -311 120c-29.333 0 -65.333 1.33301 -108 4
c-64.667 -280.667 -105.167 -459.334 -121.5 -536.001s-26.833 -123.834 -31.5 -141.501l-15 -58.5l-17 -68c-6 -24 -11.333 -47.333 -16 -70zM757.499 1772c-63 62.667 -144.834 95.332 -245.501 97.999c-33.333 -110 -65.5 -258.833 -96.5 -446.5
s-53.5 -313.167 -67.5 -376.5c140.667 9.33301 259.834 55.5 357.501 138.5s146.5 185.833 146.5 308.5s-31.5 215.334 -94.5 278.001z" />
    <glyph glyph-name="C" unicode="C" horiz-adv-x="1098" 
d="M887 256c23.333 0 35 -12.334 35 -37.001c0 -18.667 -10.333 -35.667 -31 -51l-95 -68c-116 -86.667 -222.667 -130 -320 -130c-54.667 0 -106.667 14 -156 42c-104.667 58.667 -179.667 164.334 -225 317.001c-22.667 76.667 -34 149.667 -34 219
c0 114 18.167 249.833 54.5 407.5s88.5 316.667 156.5 477s149.333 294.166 244 401.499s195.334 161 302.001 161s196.334 -44.5 269.001 -133.5s109 -179.833 109 -272.5c-2 -14 -9 -27 -21 -39s-24 -18 -36 -18s-21 4 -27 12c-8.66699 12 -14.667 34 -18 66
c-10.667 84.667 -41 153.5 -91 206.5s-112.333 79.5 -187 79.5s-154.334 -50.333 -239.001 -151c-112.667 -133.333 -209.334 -322.166 -290.001 -566.499s-121 -437.333 -121 -579s24 -260.167 72 -355.5c58.667 -116 143.334 -174 254.001 -174
c81.333 0 174.666 38 279.999 114l71 52c18 13.333 32.667 20 44 20z" />
    <glyph glyph-name="D" unicode="D" horiz-adv-x="1370" 
d="M43 -72c0 13.333 1.33203 32.666 3.99902 57.999c-19.333 4 -39 7.66699 -59 11c-86.667 14 -131.334 34.333 -134.001 61c-0.666992 3.33301 -1 8.83301 -1 16.5s3.83301 16 11.5 25s15 13.5 22 13.5s14.167 -1 21.5 -3c9.33301 -3.33301 25.833 -10.5 49.5 -21.5
s57.5 -16.5 101.5 -16.5c152 748 299.667 1335.67 443 1763c-83.333 -28 -158.666 -63.333 -225.999 -106c-8.66699 -3.33301 -16 -5 -22 -5c-23.333 0 -35 12.333 -35 37c0 20 8.33301 35.667 25 47c99.333 61.333 198.333 106 297 134c12.667 17.333 25.834 26 39.501 26
s22.834 -3.33301 27.501 -10c64 14.667 135.833 22 215.5 22s153.834 -17 222.501 -51c194 -96.667 291 -311 291 -643c0 -383.333 -95.667 -692 -287 -926c-132.667 -161.333 -308 -272.666 -526 -333.999c-110.667 -30.667 -233.334 -46 -368.001 -46h-13
c-4.66699 -44.667 -15.334 -73 -32.001 -85c-7.33301 -5.33301 -17 -8 -29 -8c-26 0 -39 13.667 -39 41zM1241 1262c0 413.333 -155.668 619.998 -467.001 619.998c-64 0 -122 -6.66699 -174 -20c-115.333 -361.333 -225 -780.666 -329 -1258l-113 -536
c238.667 0 439.334 53.833 602.001 161.5s283.5 251.834 362.5 432.501s118.5 380.667 118.5 600z" />
    <glyph glyph-name="E" unicode="E" horiz-adv-x="1145" 
d="M504 1931c133.333 34 341.332 51.002 623.999 51.002c40 0 73 -2 99 -6s39 -14 39 -30c0 -23.333 -9.33301 -41.333 -28 -54c-6 -4 -13 -6 -21 -6h-138c-287.333 0 -484 -17.667 -590 -53c-26 -92 -57.167 -227.333 -93.5 -406s-62.5 -300.667 -78.5 -366
c44 -5.33301 137.333 -8 280 -8s238 1.33301 286 4c23.333 -6.66699 35 -17.667 35 -33c0 -27.333 -13.5 -45.5 -40.5 -54.5s-70.167 -13.5 -129.5 -13.5l-451 11c-23.333 -82.667 -56.666 -224.5 -99.999 -425.5s-79.666 -350.833 -108.999 -449.5l791 -16
c68 0 115 1.33301 141 4c23.333 -6.66699 35 -18 35 -34c0 -28 -15.333 -46.333 -46 -55c-20.667 -6 -61.5 -9 -122.5 -9s-130.667 1.16699 -209 3.5s-154 4.83301 -227 7.5l-202 7.5c-61.667 2.33301 -112.5 3.5 -152.5 3.5l-69 -6c-23.333 0 -38.833 4.83301 -46.5 14.5
s-11.5 18.834 -11.5 27.501s2.33301 16.667 7 24s10.667 19.166 18 35.499s15.666 38.166 24.999 65.499c17.333 51.333 35.5 118 54.5 200s55 249.667 108 503l199.5 922c-22 2 -33 15.167 -33 39.5s20 47.166 60 68.499c0 42.667 20.333 64 61 64
c20 0 31.667 -10.333 35 -31z" />
    <glyph glyph-name="F" unicode="F" horiz-adv-x="975" 
d="M209 1094c20 -2.66699 37.666 -3.99609 52.999 -3.99609h39c10 0 20.333 0.666992 31 2l6 51c20.667 174 52.667 361.667 96 563c-230.667 -61.333 -366.334 -115.333 -407.001 -162c-13.333 -8 -25 -12 -35 -12c-24.667 0 -37 12.333 -37 37c0 66 140 137 420 213l82 22
c12.667 53.333 24.334 98.333 35.001 135c14 20.667 31 31 51 31c24.667 0 37 -11.667 37 -35c0 -9.33301 -3 -18.666 -9 -27.999l-16 -76c318 80 684 123 1098 129c23.333 -6.66699 35 -18.334 35 -35.001c0 -12 -5 -23.833 -15 -35.5s-21.667 -19.5 -35 -23.5
c-414 -6 -781.667 -50.333 -1103 -133l-58 -286.5c-19.333 -95 -34.333 -191.5 -45 -289.5l-6 -55l113 12c104 9.33301 205.833 15.166 305.5 17.499s167.834 4.16602 204.501 5.49902c20 -8 30 -19 30 -33s-5.5 -26.833 -16.5 -38.5s-23.833 -18.834 -38.5 -21.501
c-53.333 -2.66699 -124 -4.83398 -212 -6.50098s-182 -6.16699 -282 -13.5l-116 -14c-32 -242 -80.667 -516 -146 -822l-43 -200c-12.667 -27.333 -31.667 -41 -57 -41c-20.667 0 -32.334 13.667 -35.001 41c76 360.667 123.5 603.167 142.5 727.5
s32.833 218.833 41.5 283.5c-11.333 -1.33301 -22.333 -2 -33 -2h-34c-29.333 0 -54.166 2.33301 -74.499 7s-30.5 15.334 -30.5 32.001c0 12.667 6.33301 25.167 19 37.5s27.667 19.166 45 20.499z" />
    <glyph glyph-name="G" unicode="G" horiz-adv-x="1374" 
d="M981 117c-120 -98.667 -277 -147.997 -471 -147.997c-101.333 0 -189.333 32.667 -264 98c-97.333 84.667 -159.333 207.334 -186 368.001c-7.33301 46.667 -11 92 -11 136c0 155.333 40.667 353.666 122 594.999c56 166 127.333 317.833 214 455.5
s185.667 235.5 297 293.5c58 30 117.333 45 178 45c115.333 0 207 -34.667 275 -104s112.333 -162.333 133 -279c-2 -14.667 -9.16699 -27.834 -21.5 -39.501s-25.666 -17.5 -39.999 -17.5s-25.166 9.33301 -32.499 28c-16 44.667 -32 86 -48 124
c-52 128 -140.667 192 -266 192c-100.667 0 -198.667 -48 -294 -144c-122.667 -125.333 -223.834 -304.666 -303.501 -537.999s-119.5 -422.333 -119.5 -567s23.667 -265.334 71 -362.001c62.667 -128 166 -192 310 -192c236.667 0 397.667 65.667 483 197
c30.667 47.333 50.667 100.666 60 159.999c-2 7.33301 -3.16699 14.666 -3.5 21.999s-8.5 21 -24.5 41s-48.833 54.5 -98.5 103.5s-95.5 88.167 -137.5 117.5c-88 -18 -187.667 -34.333 -299 -49c-27.333 2.66699 -41 15 -41 37c0 17.333 8 33 24 47
c90.667 64.667 168 97 232 97c38.667 0 77 -10.333 115 -31c164 36 349.667 87 557 153c32.667 0 49 -11.333 49 -34c0 -6.66699 -2.66699 -17 -8 -31c-174.667 -286 -307.334 -599.333 -398.001 -940c-45.333 -171.333 -81.5 -329.5 -108.5 -474.5
s-48.833 -257.167 -65.5 -336.5c-2 -16.667 -9.33301 -30.5 -22 -41.5s-24.334 -16.5 -35.001 -16.5c-22 0 -34.333 14.667 -37 44c45.333 288 83.833 495.167 115.5 621.5s64.834 249.5 99.501 369.5zM932 729.003c61.333 -58.667 96.833 -93 106.5 -103
s23.5 -23.333 41.5 -40s34 -34.667 48 -54c25.333 52.667 52.5 103.667 81.5 153l86.5 149c-120.667 -41.333 -242 -76.333 -364 -105z" />
    <glyph glyph-name="H" unicode="H" horiz-adv-x="1460" 
d="M-211 608l4.00488 -18.0029c0 -15.333 -5.5 -28.833 -16.5 -40.5s-23.167 -17.5 -36.5 -17.5c-28.667 0 -43 20 -43 60c0 80.667 80.667 169.334 242 266.001c55.333 32.667 100.166 55.334 134.499 68.001s69.666 27 105.999 43s67.333 28.167 93 36.5
s42.167 13.833 49.5 16.5c28.667 120 50.667 244.667 66 374s27.166 232.166 35.499 308.499s17.5 152.5 27.5 228.5c4 32.667 23.667 49 59 49c14.667 0 24.5 -2.66699 29.5 -8s6.83301 -14 5.5 -26c-16 -191.333 -57 -491 -123 -899c205.333 52.667 465.333 86 780 100
c44.667 338.667 71.667 527 81 565c29.333 118.667 45.333 198.667 48 240c4 13.333 11.833 24.833 23.5 34.5s23.834 14.5 36.501 14.5c16.667 0 28 -11.667 34 -35c-2 -36.667 -8.33301 -78 -19 -124l-25 -108c-12 -52 -26.333 -141.167 -43 -267.5l-42 -317.5l467 14
c23.333 -6 35 -17.667 35 -35c0 -12 -4.83301 -23.833 -14.5 -35.5s-21.167 -19.5 -34.5 -23.5c-77.333 -3.33301 -154.666 -5.66602 -231.999 -6.99902s-155.666 -3 -234.999 -5c-12 -97.333 -29.667 -204.666 -53 -321.999l-66.5 -349.5
c-21 -115.667 -33.833 -233.167 -38.5 -352.5c-2 -16.667 -9.16699 -30.5 -21.5 -41.5s-24.833 -16.5 -37.5 -16.5c-20.667 0 -32.334 14.333 -35.001 43c4.66699 123.333 17.667 243.5 39 360.5s39 210.667 53 281s27 141.166 39 212.499l29 181
c-316.667 -12.667 -581 -47.667 -793 -105c-41.333 -167.333 -85.5 -332.666 -132.5 -495.999s-90.167 -324.333 -129.5 -483c-14 -27.333 -33 -41 -57 -41c-20.667 0 -32.334 13.667 -35.001 41c37.333 153.333 78.666 309.5 123.999 468.5s88.666 319.833 129.999 482.5
c-174.667 -58 -313.334 -127.667 -416.001 -209l-23 -17c-46 -34 -69 -62 -69 -84v-4z" />
    <glyph glyph-name="I" unicode="I" horiz-adv-x="555" 
d="M315 1874c-26 0 -39.002 12.666 -39.002 37.999c0 11.333 6.33301 22.833 19 34.5s27.667 18.167 45 19.5h175c69.333 0 146 -0.666992 230 -2c20.667 -7.33301 31 -18 31 -32s-5.33301 -26.667 -16 -38s-23.667 -18.666 -39 -21.999h-65
c-18.667 0 -44.667 0.666992 -78 2c-197.333 -793.333 -332 -1387.33 -404 -1782c126 -3.33301 194.667 -16 206 -38c3.33301 -5.33301 5 -12.333 5 -21s-5.83301 -19.167 -17.5 -31.5s-25.5 -19.5 -41.5 -21.5c-37.333 0 -76.166 3 -116.499 9s-71.5 10.333 -93.5 13
s-48.667 4 -80 4s-64.333 -5.33301 -99 -16h-11c-14 0 -24.333 3.5 -31 10.5s-10 15.167 -10 24.5c0 46 64.333 69 193 69h8c56.667 304 128.334 640.333 215.001 1009l180 771c-10 -0.666992 -18.333 -1 -25 -1h-54z" />
    <glyph glyph-name="J" unicode="J" horiz-adv-x="1044" 
d="M983 1962c8.66699 5.33301 17.167 7.99902 25.5 7.99902s16.833 -2.66699 25.5 -8c7.33301 5.33301 15.333 8 24 8c19.333 0 32 -11.667 38 -35c-40 -149.333 -81.333 -335.833 -124 -559.5l-83 -433.5l-48.5 -252.5c-19.667 -103 -50.167 -210.667 -91.5 -323
s-98.333 -203.166 -171 -272.499c-87.333 -80.667 -199.166 -121 -335.499 -121s-241.833 79.333 -316.5 238c-39.333 83.333 -59 134.833 -59 154.5s5.5 35.667 16.5 48s21.167 18.5 30.5 18.5c24 0 38 -9 42 -27c10.667 -46.667 29.667 -97 57 -151
s62.166 -99.667 104.499 -137s95.666 -56 159.999 -56s123.5 18.167 177.5 54.5s100.333 85.833 139 148.5c64 104.667 120 270 168 496l34.5 166.5l40.5 194l43 206.5l43 203.5l39.5 185.5l32.5 152c-48 -27.333 -97.333 -41 -148 -41s-114 10.167 -190 30.5
s-134.667 32.5 -176 36.5c-18.667 8.66699 -28 20 -28 34s5.83301 27.167 17.5 39.5s24.834 19.5 39.501 21.5c34.667 -4 88.5 -16 161.5 -36s132 -30 177 -30s89.833 13 134.5 39z" />
    <glyph glyph-name="K" unicode="K" horiz-adv-x="1255" 
d="M1241 1980c23.333 0 35 -11.3311 35 -33.998c0 -14 -5.33301 -27.667 -16 -41l-465.5 -535l-415.5 -473c18.667 -191.333 74.667 -370.333 168 -537c65.333 -116 143.666 -198.667 234.999 -248c46.667 -25.333 94.667 -38 144 -38s87.333 5 114 15s52.667 34.333 78 73
c13.333 10.667 26 16 38 16c26.667 0 40 -12 40 -36s-20.333 -53.667 -61 -89s-78.334 -56 -113.001 -62s-74.834 -9 -120.501 -9s-95.167 13.167 -148.5 39.5s-101.666 61.833 -144.999 106.5c-79.333 80 -145.5 183.667 -198.5 311s-90.5 254.666 -112.5 381.999
c-14.667 -16.667 -28.667 -31 -42 -43s-24.666 -25.667 -33.999 -41c-69.333 -312.667 -116.333 -545.334 -141 -698.001c-3.33301 -16.667 -11 -30.334 -23 -41.001s-23.667 -16 -35 -16c-21.333 0 -33.333 14.333 -36 43c61.333 339.333 137.833 706 229.5 1100l190.5 825
c5.33301 14 14 25.667 26 35s22.667 14 32 14c22.667 0 34 -12.333 34 -37v-12c-33.333 -171.333 -70.166 -344.166 -110.499 -518.499l-119.5 -522.5l430 481l502 574c13.333 10.667 27 16 41 16z" />
    <glyph glyph-name="L" unicode="L" horiz-adv-x="928" 
d="M37 2c-6.66699 -2.66699 -13.502 -3.99902 -20.502 -3.99902s-13.5 4.5 -19.5 13.5s-9 23.667 -9 44s10 46.166 30 77.499s33.667 62.5 41 93.5s25.333 96.5 54 196.5s55.334 217.333 80.001 352s61.334 315.167 110.001 541.5l125 594.5c4 13.333 12 24.833 24 34.5
s23.667 14.5 35 14.5c18 0 29.667 -11.667 35 -35c-30.667 -135.333 -73.667 -345.5 -129 -630.5s-95.333 -478.5 -120 -580.5s-47.167 -205 -67.5 -309s-44.5 -202 -72.5 -294c145.333 -24.667 263.333 -37 354 -37h43l180 8c25.333 0 70 4 134 12
c23.333 -6 35 -17.667 35 -35c0 -11.333 -5 -23 -15 -35s-21.667 -20 -35 -24c-94.667 -9.33301 -186 -14 -274 -14z" />
    <glyph glyph-name="M" unicode="M" horiz-adv-x="1753" 
d="M1567 1933c18 32.667 37.833 49.002 59.5 49.002s32.5 -10 32.5 -30v-6c-40.667 -678 -63.334 -1301.33 -68.001 -1870c8.66699 -17.333 8.33398 -34.666 -0.999023 -51.999c-16 -32.667 -34.667 -49 -56 -49c-26 0 -40 23 -42 69c-0.666992 13.333 -1 55.666 -1 126.999
s1.83301 172.666 5.5 303.999s8 263.166 13 395.499l15.5 396c5.33301 131.667 9.66602 261.834 12.999 390.501c-66 -147.333 -180.5 -376.166 -343.5 -686.499l-328.5 -634.5c-15.333 -28.667 -32.666 -43 -51.999 -43s-32.666 9.66699 -39.999 29l-158 715
c-70.667 316.667 -119 539.667 -145 669c-44.667 -226.667 -115.334 -539.334 -212.001 -938.001s-156.334 -648.667 -179.001 -750c-13.333 -27.333 -32.333 -41 -57 -41c-20.667 0 -32.334 13.667 -35.001 41c43.333 238 117 572.833 221 1004.5l215 908.5
c4 13.333 11.833 24.833 23.5 34.5s22.5 14.5 32.5 14.5c19.333 0 32 -11.333 38 -34c56.667 -245.333 113.834 -507 171.501 -785s104.834 -495 141.501 -651c91.333 157.333 176 313.666 254 468.999l230.5 460z" />
    <glyph glyph-name="N" unicode="N" horiz-adv-x="1329" 
d="M439 1985c15.333 0 27.168 -4.66797 35.501 -14.001s14.833 -26.333 19.5 -51c22.667 -111.333 91.5 -386.666 206.5 -825.999s198.833 -751.333 251.5 -936c31.333 177.333 84.666 461.833 159.999 853.5l174 927.5c4.66699 14.667 14.5 26.667 29.5 36
s28.833 14 41.5 14s19.334 -4.16699 20.001 -12.5s1 -20.833 1 -37.5c-84.667 -408.667 -160 -799 -226 -1171l-115.5 -649.5c-11 -61 -18.167 -95 -21.5 -102s-9.83301 -15.333 -19.5 -25s-22.667 -14.5 -39 -14.5s-33.833 15.667 -52.5 47
c-18 32.667 -39.333 98.667 -64 198s-82.5 320.833 -173.5 664.5s-162.833 625.167 -215.5 844.5l-165.5 -788c-79 -382 -146.833 -689.667 -203.5 -923c-6 -26.667 -23.5 -40 -52.5 -40s-43.5 12.333 -43.5 37c0 8 23.167 107.5 69.5 298.5s115.166 510.167 206.499 957.5
s139.833 677.833 145.5 691.5s16.167 20.5 31.5 20.5z" />
    <glyph glyph-name="O" unicode="O" horiz-adv-x="1270" 
d="M426 -45c-243.333 0 -364.997 216.334 -364.997 649.001c0 292.667 56.333 562.667 169 810c122 270 281 405 477 405c76 0 147.667 -27.333 215 -82c12 -13.333 18 -27 18 -41c0 -32.667 -11 -49 -33 -49c-5.33301 0 -21 7 -47 21
c-60.667 33.333 -122.334 50 -185.001 50c-82 0 -164 -53.5 -246 -160.5s-148.333 -244.5 -199 -412.5s-76 -334 -76 -498c0 -316.667 58.667 -508.334 176 -575.001c28 -15.333 65.667 -23 113 -23s97 11.667 149 35c143.333 66 263.666 205.333 360.999 418
c61.333 134 108 276.667 140 428s48 297.833 48 439.5s-26.333 266.5 -79 374.5c-38 76 -87.333 122.667 -148 140c-30.667 8 -59.834 14.667 -87.501 20s-51.167 11.333 -70.5 18s-29 16.667 -29 30c0 25.333 17 40.333 51 45c267.333 0 417.333 -175 450 -525
c6 -59.333 9 -123.333 9 -192c0 -146.667 -19.833 -298.167 -59.5 -454.5s-96 -300.833 -169 -433.5s-159.333 -238.667 -259 -318s-207.5 -119 -323.5 -119z" />
    <glyph glyph-name="P" unicode="P" horiz-adv-x="1096" 
d="M268 809c-116 37.333 -174 70.6719 -174 100.005c0 16.667 5.66699 29 17 37s23.333 12 36 12s25 -1.66699 37 -5s24 -7.33301 36 -12s24 -9.83398 36 -15.501s23 -10.5 33 -14.5l205 961c-60.667 -18.667 -105.334 -53.667 -134.001 -105c-12 -16 -27.667 -24 -47 -24
c-24.667 0 -37 11.667 -37 35c0 4.66699 1.66699 12 5 22c48 91.333 129 148 243 170c14.667 27.333 31.834 41 51.501 41s31.167 -10.333 34.5 -31h8c152.667 0 272.5 -50.833 359.5 -152.5s130.5 -215.167 130.5 -340.5c0 -210.667 -53.667 -379.667 -161 -507
c-116 -138.667 -279.333 -208 -490 -208c-32.667 0 -67 4.66699 -103 14c-15.333 -76.667 -39.5 -191.334 -72.5 -344.001s-59.167 -284.334 -78.5 -395.001c-3.33301 -16.667 -11 -30.334 -23 -41.001s-23.333 -16 -34 -16c-22 0 -34.333 14.333 -37 43
c22.667 131.333 51.5 277.166 86.5 437.499zM375 881.006c32 -8.66699 80.499 -12.999 145.499 -12.999s129.333 15.333 193 46s118.5 72 164.5 124c96 110.667 144 244 144 400c0 121.333 -38.667 226.666 -116 315.999s-182.666 134 -315.999 134z" />
    <glyph glyph-name="Q" unicode="Q" horiz-adv-x="1321" 
d="M2277 -549c33.333 0 50.002 -10.334 50.002 -31.001c0 -11.333 -4.66699 -23 -14 -35s-21.333 -20.667 -36 -26c-141.333 -26.667 -273.833 -49.334 -397.5 -68.001s-237.5 -28 -341.5 -28c-220 0 -426 51.667 -618 155c-232 124.667 -454.667 324 -668 598
c-68 56 -116.833 137.5 -146.5 244.5s-44.5 213.5 -44.5 319.5c0 218 23.5 421.5 70.5 610.5s119.167 340.167 216.5 453.5c114 132.667 253.333 199 418 199c29.333 0 59.166 -4 89.499 -12s48.166 -13.333 53.499 -16c3.33301 -5.33301 7 -9.16602 11 -11.499
s6 -8.16602 6 -17.499s-5.83301 -19.166 -17.5 -29.499s-24.5 -15.5 -38.5 -15.5s-36.333 4.66699 -67 14s-52.667 14 -66 14c-118 0 -222.333 -59 -313 -177c-126.667 -164 -208.334 -402 -245.001 -714c-11.333 -96 -17 -192 -17 -288c0 -362 101.667 -543 305 -543
c99.333 0 199 50 299 150c190 192.667 319.333 456.667 388 792c26.667 133.333 40 265.666 40 396.999s-29 250 -87 356c-66 120.667 -153.667 181 -263 181c-54 0 -104 -6.66699 -150 -20c-27.333 2.66699 -41 14 -41 34c0 52 63.333 78 190 78
s232.167 -61.5 316.5 -184.5s126.5 -248.5 126.5 -376.5c0 -251.333 -33.333 -491 -100 -719s-163.667 -415.667 -291 -563s-277.666 -221 -450.999 -221c-4 0 -7.66699 0.333008 -11 1s-7 1 -11 1c347.333 -397.333 722.666 -596 1126 -596
c110.667 0 225.834 9.33301 345.501 28s247.5 40.667 383.5 66z" />
    <glyph glyph-name="R" unicode="R" horiz-adv-x="948" 
d="M334 934c0 40.667 11.332 60.999 33.999 60.999c13.333 0 22 -2 26 -6s11.5 -10.167 22.5 -18.5s42.333 -12.5 94 -12.5s105.334 14.667 161.001 44s103.834 68.666 144.501 117.999c85.333 104.667 128 229 128 373c0 112 -27.167 206.833 -81.5 284.5
s-125.5 116.5 -213.5 116.5c-70 0 -123.333 -5.33301 -160 -16l-378 -1847c-7.33301 -23.333 -26.333 -35 -57 -35s-46 11 -46 33c0 6 1 12.833 3 20.5s6 26.5 12 56.5c14.667 75.333 64.5 315.833 149.5 721.5l216.5 1003.5c-20 -12.667 -44 -31.667 -72 -57
c-1.33301 -14.667 -8.33301 -27.334 -21 -38.001s-27.334 -16 -44.001 -16l-25 6c-18.667 8.66699 -28 22.667 -28 42c0 37.333 21.833 71.833 65.5 103.5s98.167 55.834 163.5 72.501c24 57.333 46 86 66 86c16 0 28 -22.667 36 -68c28.667 4 56 6 82 6
c143.333 0 251.666 -50.667 324.999 -152c60.667 -84 91 -195 91 -333c0 -177.333 -52.167 -325.166 -156.5 -443.499s-250.166 -177.5 -437.499 -177.5c0 -228 38.667 -450.333 116 -667c90 -255.333 226.667 -443.666 410 -564.999c140 -93.333 305 -140 495 -140
s363.667 64 521 192l148 128c5.33301 5.33301 14 8 26 8c24.667 0 37 -12.333 37 -37c0 -14 -5.33301 -27.667 -16 -41c-101.333 -104.667 -200.333 -183 -297 -235c-132 -71.333 -281.167 -107 -447.5 -107s-327.833 48 -484.5 144c-282.667 174.667 -469 468.667 -559 882
c-32.667 150 -49 320 -49 510z" />
    <glyph glyph-name="S" unicode="S" horiz-adv-x="1147" 
d="M862 1980c159.333 0 264.666 -85.9961 315.999 -257.996c5.33301 -8.66699 8 -19.167 8 -31.5s-5.83301 -23.833 -17.5 -34.5s-23.5 -16 -35.5 -16c-20.667 0 -33 12.667 -37 38c-9.33301 60 -34.666 111 -75.999 153s-94 63 -158 63s-112.333 -22.333 -145 -67
s-49 -97.334 -49 -158.001s8.16699 -123 24.5 -187s36.833 -128 61.5 -192s51.167 -128 79.5 -192s54.833 -128.333 79.5 -193c57.333 -150 86 -284.833 86 -404.5s-33 -229.167 -99 -328.5c-84.667 -130 -218 -195 -400 -195c-139.333 0 -259.833 34.667 -361.5 104
s-152.5 168.666 -152.5 297.999s38.667 241 116 335c28 34 62.333 69 103 105c13.333 11.333 26 17 38 17c26.667 0 40 -11 40 -33c0 -11.333 -3 -21.666 -9 -30.999c-68 -62.667 -113 -114.667 -135 -156c-36.667 -72 -55 -141.333 -55 -208s11.667 -120 35 -160
s54.333 -73.333 93 -100c76 -53.333 174.833 -80 296.5 -80s220.167 48 295.5 144c64.667 82 97 182.167 97 300.5s-55.333 306.166 -166 563.499s-166 436.166 -166 536.499s24 186.666 72 258.999s121.667 108.5 221 108.5z" />
    <glyph glyph-name="T" unicode="T" horiz-adv-x="1186" 
d="M717 1862c-156 4 -263.496 5.99805 -322.496 5.99805s-122.833 -2 -191.5 -6c-28.667 2.66699 -43 14 -43 34c0 38 34.667 59.333 104 64c19.333 1.33301 38.666 2 57.999 2l419 -8c19.333 57.333 45.333 86 78 86c19.333 0 31 -11.667 35 -35l4 -41l-2 -10
c38 1.33301 71.833 3 101.5 5l83 5.5c25.667 1.66699 64.167 4.33398 115.5 8.00098s108 5.5 170 5.5h74c8.66699 0 17.667 0.666992 27 2c23.333 -6 35 -17.333 35 -34c0 -41.333 -33.333 -62 -100 -62c-86.667 0 -179.334 -3.33301 -278.001 -10
s-188.334 -10.667 -269.001 -12c-22.667 -112.667 -50.167 -239.5 -82.5 -380.5s-80.5 -373.167 -144.5 -696.5s-113.333 -591.666 -148 -804.999c-3.33301 -16.667 -10.833 -30.5 -22.5 -41.5s-22.834 -16.5 -33.501 -16.5c-22.667 0 -35.334 14.333 -38.001 43
c40.667 337.333 130.667 802.666 270 1396c20 86.667 35.333 150 46 190s17.667 70.667 21 92l10.5 68.5l11 75c3.66699 25.667 7.83398 50.834 12.501 75.501z" />
    <glyph glyph-name="U" unicode="U" horiz-adv-x="1309" 
d="M1346 1968c24 0 36.001 -11.667 36.001 -35c0 -14 -7.33301 -38.5 -22 -73.5s-27 -70.5 -37 -106.5s-23.167 -89 -39.5 -159l-51 -225.5l-54.5 -248.5c-67.333 -316 -119 -528 -155 -636s-68.333 -189 -97 -243c-92 -174 -242 -261 -450 -261
c-112 0 -202.667 38.667 -272 116s-104 169.666 -104 276.999c0 46.667 5.66699 86.334 17 119.001l65.5 377.5l82 461c34.333 187.667 81.5 389.834 141.5 606.501c14 20.667 28.667 31 44 31c29.333 0 44 -11.667 44 -35c-1.33301 -8 -3.5 -16.167 -6.5 -24.5l-8.5 -24.5
l-39 -125c-29.333 -142 -66.5 -337.833 -111.5 -587.5s-80 -435.667 -105 -558s-37.5 -209.5 -37.5 -261.5c0 -78.667 25.333 -144.667 76 -198s122.334 -80 215.001 -80c145.333 0 253.666 44 324.999 132c39.333 48 68 98.667 86 152l44 129
c45.333 138 103.166 371.167 173.499 699.5s126.5 562.166 168.5 701.499c7.33301 24.667 18 44.167 32 58.5s27.333 21.5 40 21.5z" />
    <glyph glyph-name="V" unicode="V" horiz-adv-x="1094" 
d="M162 1927c4 13.333 11.835 24.835 23.502 34.502s22.5 14.5 32.5 14.5c19.333 0 32 -11.333 38 -34c20.667 -214.667 62.834 -520.334 126.501 -917.001s106.834 -690.667 129.501 -882c237.333 374.667 403.333 702 498 982c70.667 209.333 106 399 106 569
c0 48 -4.66699 100 -14 156s-16.333 101 -21 135c0 17.333 6 32.166 18 44.499s23.667 18.5 35 18.5c23.333 0 37.333 -11.667 42 -35l22.5 -147c7.66699 -48.667 11.5 -110.334 11.5 -185.001c0 -156 -35.333 -339.5 -106 -550.5s-158.334 -414.333 -263.001 -610
s-215.334 -369.167 -332.001 -520.5c-16.667 -22 -31.834 -33 -45.501 -33s-24.167 9.66699 -31.5 29c-11.333 74.667 -22.333 164.667 -33 270s-45.334 348.333 -104.001 729s-103 691.334 -133 932.001z" />
    <glyph glyph-name="W" unicode="W" horiz-adv-x="1559" 
d="M928 1440c2.66699 -80 3.99902 -134.669 3.99902 -164.002v-178c0 -329.333 18 -583.333 54 -762c16.667 -80.667 39 -153 67 -217c206.667 374 345 684.333 415 931c52 182 78 358.667 78 530s-46.667 348 -140 530c-67.333 130 -154.333 223.333 -261 280
c-55.333 28.667 -116.666 43 -183.999 43c-20 0 -37.167 -4.16699 -51.5 -12.5l-32.5 -18.5l-31 -94c-13.333 -27.333 -32.666 -41 -57.999 -41c-20 0 -31.333 13.667 -34 41c4 12.667 7.33301 25.834 10 39.501s6 27.167 10 40.5c25.333 94 97.5 141 216.5 141
s229.167 -48.5 330.5 -145.5s180.666 -217.5 237.999 -361.5s86 -272 86 -384c0 -490.667 -166.667 -1007.33 -500 -1550c-44 -72 -81.333 -108 -112 -108s-65.667 69.333 -105 208c-60 222.667 -90 531.334 -90 926.001c-103.333 -360.667 -214.666 -661 -333.999 -901
l-62 -123c-40.667 -80.667 -83 -121 -127 -121c-12 0 -22.167 5.83301 -30.5 17.5s-12.5 27.834 -12.5 48.501c0 192 -8.83301 370 -26.5 534s-32.667 294 -45 390s-27.333 224.833 -45 386.5s-26.5 334.5 -26.5 518.5c0 42 8.5 69.167 25.5 81.5s31.167 18.5 42.5 18.5
c20 0 30 -12.333 30 -37l-10 -127c0 -42.667 2.83301 -96.167 8.5 -160.5s10.667 -144 15 -239s25.166 -288.667 62.499 -581s60 -517.833 68 -676.5l83.5 179.5l73.5 164.5c91.333 214.667 193.333 533 306 955c-2 68 -3 147.333 -3 238s6.5 158.667 19.5 204
s35.5 68 67.5 68c38 0 57 -61.667 57 -185c0 -82 -15.667 -191 -47 -327z" />
    <glyph glyph-name="X" unicode="X" horiz-adv-x="1286" 
d="M395 1880c-18.667 0 -28 11.6641 -28 34.9971s8.83301 43.833 26.5 61.5s31.167 26.5 40.5 26.5h18c2.66699 0 7 -1.16699 13 -3.5s16.833 -26.166 32.5 -71.499s33.834 -105.166 54.501 -179.499l69 -257.5l81 -307c216 306 399.333 542.667 550 710
c46 50.667 76 78 90 82s25.667 6 35 6s17.666 -3 24.999 -9s11 -14 11 -24s-9 -26.333 -27 -49s-72.167 -86.667 -162.5 -192s-252.5 -323 -486.5 -653c143.333 -522 258.666 -869 345.999 -1041c0 -19.333 -6.83301 -36 -20.5 -50s-28.167 -21 -43.5 -21
s-26 4.66699 -32 14c-1.33301 0 -2 -0.666992 -2 -2c-8 32 -15.333 63.833 -22 95.5s-15 62.5 -25 92.5c-83.333 186 -175.333 453.667 -276 803l-320.5 -466.5l-345.5 -479.5c-11.333 -18 -26.666 -27 -45.999 -27c-43.333 0 -65 16.667 -65 50l2 10
c140.667 178.667 327 438.334 559 779.001l181 263l-108.5 388c-35 128 -72.5 254 -112.5 378l-9 39h-2z" />
    <glyph glyph-name="Y" unicode="Y" horiz-adv-x="881" 
d="M172 -61c-4.66699 -11.333 -17.001 -16.9971 -37.001 -16.9971c-24.667 0 -37 12.333 -37 37c0 32.667 24 54.667 72 66l77.5 17.5c25 5.66699 50.5 11.167 76.5 16.5c31.333 87.333 53.333 170.166 66 248.499s22.334 143.666 29.001 195.999
s14.334 109.166 23.001 170.499c-58.667 76 -134 376 -226 900c-23.333 134.667 -41.333 249 -54 343c0 17.333 5 32.5 15 45.5s22.667 19.5 38 19.5s30.333 -6 45 -18c5.33301 -7.33301 8 -16.5 8 -27.5s-3.33301 -20.833 -10 -29.5l25 -182
c59.333 -437.333 128 -753 206 -947c30.667 68 80.667 192.5 150 373.5s136.166 335.667 200.499 464s139.5 244.5 225.5 348.5c8.66699 10.667 20.334 16 35.001 16c27.333 0 41 -11.333 41 -34c0 -14.667 -5.66699 -28.334 -17 -41.001
c-110.667 -118.667 -223.667 -325 -339 -619l-122.5 -319c-50.333 -133.333 -87.5 -223.666 -111.5 -270.999c-20.667 -80 -43 -184.333 -67 -313s-46 -231.667 -66 -309c34.667 4 68.667 6 102 6c132.667 0 199 -18.333 199 -55c0 -14.667 -6.83301 -27.667 -20.5 -39
s-28.834 -17 -45.501 -17c-42 11.333 -96.167 17 -162.5 17s-133 -8.16699 -200 -24.5s-104.5 -24.5 -112.5 -24.5h-6v2z" />
    <glyph glyph-name="Z" unicode="Z" horiz-adv-x="981" 
d="M1247 1952c0 -13.333 -2.66699 -24.333 -8 -33c-366.667 -582 -766 -1171.67 -1198 -1769c16 5.33301 43 8 81 8c66.667 0 162.167 -61.167 286.5 -183.5s247.833 -217 370.5 -284s245.667 -100.5 369 -100.5s239 33.667 347 101c14 8.66699 29.833 20.334 47.5 35.001
l72 59c30.333 24.667 55.5 37 75.5 37s30 -11 30 -33s-16.667 -47.333 -50 -76c-58 -48.667 -106 -82.667 -144 -102c-164 -79.333 -303.333 -119 -418 -119c-165.333 0 -349 74 -551 222c-106.667 78.667 -178 137.5 -214 176.5s-67 70.167 -93 93.5
c-63.333 56 -124 84 -182 84c-22.667 0 -48.834 -8.66699 -78.501 -26l-66 -38c-14.333 -8 -27.166 -12 -38.499 -12c-24.667 0 -37 12.333 -37 37c0 10.667 4.33301 23 13 37l285 400.5l320 439.5c271.333 378 486.666 707.333 645.999 988l-45 -4
c-178.667 -13.333 -365.667 -20 -561 -20h-150c-81.333 0 -144.666 4 -189.999 12c-19.333 7.33301 -29 20.666 -29 39.999s12.333 35 37 47c7.33301 3.33301 15 5 23 5l338 -12c176.667 0 311.5 5.16699 404.5 15.5s167.5 15.5 223.5 15.5s84 -13.667 84 -41z" />
    <glyph glyph-name="bracketleft" unicode="[" horiz-adv-x="588" 
d="M766 1853c-9.33301 0 -84.334 6.33398 -225.001 19.001l-313 -1488.5l-109.5 -541c-26.333 -129 -46.833 -257.5 -61.5 -385.5c8.66699 -4 27.334 -6 56.001 -6s88.667 11.333 180 34s146.166 34 164.499 34s27.5 -7.66699 27.5 -23
c-1.33301 -11.333 -7.5 -24.333 -18.5 -39s-27.667 -25 -50 -31l-137.5 -38c-69.333 -19.333 -127.666 -29 -174.999 -29s-82.5 2.5 -105.5 7.5s-37.5 16.833 -43.5 35.5c14.667 136 35.667 271.333 63 406l443 2121c6 13.333 16 24.833 30 34.5s26.333 14.5 37 14.5
s17.667 -3.33301 21 -10c43.333 -2 85.333 -5.5 126 -10.5s82.667 -8.16699 126 -9.5c17.333 -3.33301 26 -13.833 26 -31.5s-12.667 -35.167 -38 -52.5c-7.33301 -4.66699 -15 -8.33398 -23 -11.001z" />
    <glyph glyph-name="backslash" unicode="\" horiz-adv-x="815" 
d="M997 -922c-27.333 4.66699 -48 15.333 -62 32s-26.333 37.334 -37 62.001s-19.667 51.834 -27 81.501s-14 58.667 -20 87l-16.5 79.5c-5 24.667 -17.5 64 -37.5 118s-50.833 125.667 -92.5 215l-200.5 449.5c-92 210.333 -163 379.166 -213 506.499l-185 458l-105 270.5
l-132 346c-38.667 101 -65.834 170.167 -81.501 207.5s-23.5 58.333 -23.5 63c0 23.333 12.833 35 38.5 35s43.834 -13 54.501 -39l341 -870c162 -416.667 290.167 -730.167 384.5 -940.5l246.5 -553.5c70 -158.667 110.333 -270 121 -334
c4 -20.667 8.83301 -48.834 14.5 -84.501s16.5 -69.5 32.5 -101.5c24.667 -14 37 -32.167 37 -54.5s-12.333 -33.5 -37 -33.5z" />
    <glyph glyph-name="bracketright" unicode="]" horiz-adv-x="674" 
d="M-25 -356c-24 0 -36.002 12.334 -36.002 37.001c0 19.333 17.667 47.166 53 83.499l85 85.5c68.667 66.667 129 149 181 247c138 258 207 521.167 207 789.5s-64.333 523.166 -193 764.499l-61.5 113.5c-29.667 54.333 -51.5 105.833 -65.5 154.5
c0 16.667 5.66699 31.834 17 45.501s23.833 20.5 37.5 20.5s25.834 -7.66699 36.501 -23c14.667 -51.333 46.334 -119 95.001 -203s81 -149 97 -195c48 -136.667 82.333 -246.667 103 -330s31 -171 31 -263v-9c0 -176 -20 -343.667 -60 -503s-95.5 -292.333 -166.5 -399
s-115.833 -171.5 -134.5 -194.5s-35.667 -42.833 -51 -59.5l-56 -60l-84 -90c-12 -8 -23.667 -12 -35 -12z" />
    <glyph glyph-name="asciicircum" unicode="^" horiz-adv-x="1067" 
d="M905 2554c0 -6 -1.33301 -13.667 -4 -23l-22 -41c-1.33301 -2.66699 -2 -6 -2 -10l28 -99c10 -36 25 -85.5 45 -148.5s47.333 -121.5 82 -175.5c44 -70.667 94 -116 150 -136c10.667 -8.66699 16 -19.167 16 -31.5s-8.5 -25.166 -25.5 -38.499s-34.5 -20 -52.5 -20
c-90.667 34 -164 115.667 -220 245l-44.5 106l-44 103c-15 34 -24.833 69 -29.5 105l-61 -66l-101 -114c-138.667 -159.333 -260.667 -260.333 -366 -303c-8 -2.66699 -15.667 -4 -23 -4c-17.333 0 -26 8 -26 24c0 30.667 19.667 53.667 59 69
c80.667 33.333 228.667 175.666 444 426.999l66 76l41 45c0 1.33301 4.5 7.66602 13.5 19c9 11.333 24 17 45 17s31.5 -8.66699 31.5 -26z" />
    <glyph glyph-name="underscore" unicode="_" horiz-adv-x="1335" 
d="M176 -86c-129.333 0 -194 15.668 -194 47.001c0 18 6.16699 33.167 18.5 45.5s28 18.5 47 18.5s40.833 -2.83301 65.5 -8.5s51.667 -8.5 81 -8.5s60 1 92 3s79.833 4.16699 143.5 6.5s198 3.5 403 3.5s365.833 4 482.5 12c23.333 -6.66699 35 -18.334 35 -35.001
c0 -12.667 -5 -24.667 -15 -36s-21.667 -19 -35 -23c-102.667 -7.33301 -250.667 -11 -444 -11z" />
    <glyph glyph-name="grave" unicode="`" horiz-adv-x="567" 
d="M113 2494c0 17.333 5.83203 32.333 17.499 45s23.167 19 34.5 19c24 0 38 -11.667 42 -35c14.667 -81.333 75.334 -190.666 182.001 -328c5.33301 -6.66699 8 -16.5 8 -29.5s-5.5 -25.333 -16.5 -37s-22.667 -17.5 -35 -17.5s-23.833 5 -34.5 15
c-110.667 144 -176.667 266.667 -198 368z" />
    <glyph glyph-name="a" unicode="a" horiz-adv-x="920" 
d="M150 0c-78 0 -117 49.002 -117 147.002s36.5 218.167 109.5 360.5s158.833 265.333 257.5 369s179.167 155.5 241.5 155.5s97.833 -27.333 106.5 -82c2.66699 -16.667 4.66699 -34.334 6 -53.001c6 4 13.333 6 22 6c31.333 0 47 -15 47 -45v-8c0 -2 -8.33301 -32 -25 -90
s-35.667 -154.667 -57 -290s-32 -251 -32 -347l21 -13.5c8 -5 18 -12.667 30 -23s18 -22.5 18 -36.5s-4.33301 -26.5 -13 -37.5s-21 -16.5 -37 -16.5c-32.667 0 -62.167 16.667 -88.5 50s-39.5 69.333 -39.5 108c0 83.333 22.667 226.666 68 429.999
c-56.667 -118.667 -130 -233 -220 -343s-152.167 -177.667 -186.5 -203s-71.5 -38 -111.5 -38zM135 143.002c0 -24.667 10.333 -37.001 31 -37.001c14.667 0 27 5 37 15c138 118.667 261.667 283 371 493c62 120 94.833 189 98.5 207s5.5 33.333 5.5 46
s-3.33301 24.667 -10 36s-16 17 -28 17s-29.667 -6.33301 -53 -19c-51.333 -28 -114.5 -87.667 -189.5 -179s-137.5 -190.666 -187.5 -297.999s-75 -201 -75 -281z" />
    <glyph glyph-name="b" unicode="b" horiz-adv-x="805" 
d="M530 1921l-4 -13.999c-35.333 -232 -73.5 -440.667 -114.5 -626l-108.5 -505c42 75.333 77.333 128.666 106 159.999c57.333 62.667 113 94 167 94s95.333 -20.667 124 -62s43 -84.666 43 -129.999c0 -98.667 -15.5 -215.834 -46.5 -351.501
s-73.5 -248.167 -127.5 -337.5c-67.333 -112.667 -144.333 -169 -231 -169c-62.667 0 -109.334 28 -140.001 84s-46 120.667 -46 194s5.16699 144 15.5 212l33.5 216c12 76 23.5 145.5 34.5 208.5l31.5 174.5l30.5 155.5l55.5 269c26.667 129 54.334 275.5 83.001 439.5
c11.333 22 25 33 41 33c35.333 0 53 -15 53 -45zM256 258.001c0 -116 27.332 -174 81.999 -174c50 0 99.333 40.667 148 122c66 110 112 246.333 138 409c7.33301 46 11 94.833 11 146.5s-4.66699 92.667 -14 123s-28.666 45.5 -57.999 45.5
c-43.333 0 -100.333 -51 -171 -153s-111 -202.5 -121 -301.5s-15 -171.5 -15 -217.5z" />
    <glyph glyph-name="c" unicode="c" horiz-adv-x="694" 
d="M162 258c0 -121.333 44.333 -181.998 133 -181.998c44 0 85.333 21.333 124 64l41 45c12.667 13.333 25.667 20 39 20c26.667 0 40 -11.667 40 -35c0 -42.667 -27.333 -85.834 -82 -129.501s-116.5 -65.5 -185.5 -65.5s-121.333 25.5 -157 76.5s-53.5 108.5 -53.5 172.5
c0 119.333 22.167 243 66.5 371s102.666 235.333 174.999 322s148.833 130 229.5 130c58.667 0 97.334 -21 116.001 -63c4.66699 -11.333 10.167 -25.833 16.5 -43.5s13.5 -28.834 21.5 -33.501c5.33301 -8.66699 8 -19.167 8 -31.5s-5.66699 -23.833 -17 -34.5
s-24 -16 -38 -16c-28.667 0 -47 21.167 -55 63.5s-30.333 63.5 -67 63.5c-51.333 0 -104.5 -39 -159.5 -117s-101.333 -172.667 -139 -284s-56.5 -209 -56.5 -293z" />
    <glyph glyph-name="d" unicode="d" horiz-adv-x="899" 
d="M676 942l97.998 430.001c6.66699 30.667 22.834 109.834 48.501 237.501s44.5 216.5 56.5 266.5l4 25c0 17.333 5.83301 32.166 17.5 44.499s23.834 18.5 36.501 18.5c29.333 0 44 -15.667 44 -47v-9c0 -32.667 -23.5 -157 -70.5 -373s-77.5 -368 -91.5 -456
s-40.5 -211 -79.5 -369s-63.5 -264.667 -73.5 -320s-19.667 -102.166 -29 -140.499s-14 -76.5 -14 -114.5s6 -76.333 18 -115c-2 -16 -9.33301 -29.5 -22 -40.5s-24.334 -16.5 -35.001 -16.5c-17.333 0 -32.333 20.5 -45 61.5s-19 75.333 -19 103s4 60.167 12 97.5
c-27.333 -82.667 -62.666 -143.834 -105.999 -183.501s-100.166 -59.5 -170.499 -59.5s-120.333 28.833 -150 86.5s-44.5 114.167 -44.5 169.5c0 204 38.667 376.667 116 518c36 65.333 67.833 113.666 95.5 144.999s63.167 61.333 106.5 90s96.666 43 159.999 43
s109 -30.667 137 -92zM622.498 724.501c3 15 4.49805 39.666 4.49805 73.999s-10 67.833 -30 100.5s-48.333 49 -85 49c-65.333 0 -125.166 -41.167 -179.499 -123.5s-97.666 -178.333 -129.999 -288s-48.5 -202.167 -48.5 -277.5s21.333 -129 64 -161
c14 -10.667 32.667 -16 56 -16c47.333 0 98 40.333 152 121s94.333 156.834 121 228.501s45.167 134.667 55.5 189z" />
    <glyph glyph-name="e" unicode="e" horiz-adv-x="664" 
d="M518 168c23.333 0 35.002 -12.3291 35.002 -36.9961c0 -28.667 -35 -61 -105 -97s-128.333 -54 -175 -54s-81.667 7.66699 -105 23s-42.333 36.666 -57 63.999c-28.667 53.333 -43 117.666 -43 192.999c0 133.333 20 259 60 377s93.333 215.833 160 293.5
s138.667 116.5 216 116.5c41.333 0 73.833 -17.167 97.5 -51.5s35.5 -74.833 35.5 -121.5c0 -87.333 -22.833 -161.333 -68.5 -222s-101.834 -110.334 -168.501 -149.001s-143.334 -75.334 -230.001 -110.001l-4 -147c0 -114.667 34.667 -172 104 -172
c37.333 0 76.5 10.833 117.5 32.5l88.5 47c18 9.66699 32 14.5 42 14.5zM543.002 870.004c0 53.333 -22.333 80 -67 80c-40 0 -87 -36 -141 -108s-98.667 -167 -134 -285c-8.66699 -28.667 -13.667 -50.334 -15 -65.001c26.667 14.667 54 28.667 82 42s55.333 27.333 82 42
c61.333 34 108.833 73.833 142.5 119.5s50.5 103.834 50.5 174.501z" />
    <glyph glyph-name="f" unicode="f" horiz-adv-x="700" 
d="M206 936l-136 -5.99609c-27.333 2 -41 14.333 -41 37c0 35.333 38.667 54 116 56c24.667 0.666992 52 1 82 1h54c37.333 154 67.333 262.667 90 326c46 129.333 101.833 228.166 167.5 296.499s155.167 102.5 268.5 102.5s170 -20.333 170 -61c0 -22 -13.667 -42 -41 -60
c-93.333 6.66699 -148 10 -164 10c-99.333 0 -182.833 -58.833 -250.5 -176.5s-114.5 -263.5 -140.5 -437.5c44 -1.33301 73 -2 87 -2l45 1l81 1h22c6.66699 0 15 -0.666992 25 -2c38 0 57 -13 57 -39c0 -33.333 -32.667 -51.333 -98 -54c-18 -0.666992 -37.333 -1 -58 -1
h-74c-28 0 -64 0.666992 -108 2c-26 -143.333 -47.167 -270.166 -63.5 -380.499s-28.333 -188.333 -36 -234s-15.667 -101.334 -24 -167.001s-21.5 -155.167 -39.5 -268.5c-47.333 -292 -142.333 -496.667 -285 -614c-88.667 -72 -206 -108 -352 -108
c-103.333 0 -198 24.667 -284 74c-34 20 -60.333 39.667 -79 59s-28 34.666 -28 45.999s6 21.666 18 30.999s25.667 14 41 14l12 -3c76 -54.667 133.667 -88.667 173 -102s91 -20 155 -20s121.167 10.667 171.5 32s94.333 50.333 132 87s70.167 79.834 97.5 129.501
s50.5 102.667 69.5 159s35 114.666 48 174.999s24.333 119.833 34 178.5s18.334 115 26.001 169s16.167 103 25.5 147c14.667 99.333 28.667 199.666 42 300.999s28.666 201 45.999 299c-21.333 1.33301 -39.333 2 -54 2z" />
    <glyph glyph-name="g" unicode="g" horiz-adv-x="778" 
d="M715 1016c22 0 32.9971 -11.168 32.9971 -33.501s-4 -44.166 -12 -65.499s-16.5 -48.833 -25.5 -82.5s-21.833 -85.167 -38.5 -154.5l-49 -210.5l-46.5 -212.5l-44.5 -204c25.333 17.333 50.5 37.333 75.5 60s46 40.834 63 54.501s31.5 20.5 43.5 20.5
c25.333 0 38 -11.333 38 -34c0 -18 -5.66699 -31.667 -17 -41l-215 -160l-59 -301c-40 -203.333 -91 -340 -153 -410c-49.333 -54.667 -106.5 -82 -171.5 -82s-119.667 22.167 -164 66.5s-66.5 103.5 -66.5 177.5c0 106.667 55 208 165 304
c44.667 38.667 104.834 85.667 180.501 141s135.167 101 178.5 137c6 30 13.167 62.833 21.5 98.5l22.5 97.5l20 87l18.5 82c5.66699 26 10.834 48.333 15.501 67c-36.667 -118 -74.667 -207.333 -114 -268c-72.667 -110.667 -134.167 -166 -184.5 -166s-91 19 -122 57
s-46.5 88.667 -46.5 152c0 116.667 22 240.167 66 370.5s104.667 242.666 182 336.999s162 141.5 254 141.5c46.667 0 88.334 -10.667 125.001 -32c8 4 17 6 27 6zM153.997 227.499c0 -97 25.3311 -145.5 75.998 -145.5c44.667 0 96.167 43 154.5 129s105 188.833 140 308.5
s61.5 212.667 79.5 279l37 135.5c-21.333 18 -47.666 27 -78.999 27c-60.667 0 -122.667 -39.667 -186 -119s-116.166 -177.333 -158.499 -294s-63.5 -223.5 -63.5 -320.5zM413.995 -125.001l-148.499 -117.501c-49 -37 -92.833 -73.833 -131.5 -110.5
c-85.333 -82 -128 -159.5 -128 -232.5s16 -119.167 48 -138.5c14 -8.66699 35.333 -13 64 -13c58.667 0 108.167 31.833 148.5 95.5s79.166 181.834 116.499 354.501z" />
    <glyph glyph-name="h" unicode="h" horiz-adv-x="958" 
d="M193 31c0 -31.333 -25.334 -47 -76.001 -47c-23.333 0 -35 11.333 -35 34s66.667 340 200 952c99.333 468.667 162.333 785 189 949l8 27c6 20 18 30 36 30c34 0 55.667 -17 65 -51l-21.5 -106l-31.5 -155l-39 -188l-43 -205l-67 -318l-77 -359
c139.333 286.667 271 430 395 430c50.667 0 88.334 -19.833 113.001 -59.5s37 -83.5 37 -131.5s-8.66699 -115 -26 -201l-34 -172c-37.333 -188.667 -56 -301.334 -56 -338.001l3 -78c0 -17.333 -5.83301 -31.333 -17.5 -42s-27.167 -16 -46.5 -16s-33.5 6.83301 -42.5 20.5
s-13.5 26.834 -13.5 39.501s1 24 3 34l119 665c4 21.333 6 46 6 74c0 68.667 -19 103 -57 103c-72 0 -170 -107.667 -294 -323c-70 -122 -113 -206.5 -129 -253.5s-31.667 -101 -47 -162s-23 -100.167 -23 -117.5z" />
    <glyph glyph-name="i" unicode="i" horiz-adv-x="438" 
d="M383 1376c39.333 0 58.998 -19.668 58.998 -59.001c0 -57.333 -20 -89.666 -60 -96.999c-11.333 -2 -23.666 -3 -36.999 -3s-26.666 6.66699 -39.999 20s-20 30.5 -20 51.5s10.333 40.833 31 59.5s43 28 67 28zM241.998 908.999l0.000976562 20.002
c0 9.33301 -5 32 -15 68c0 16.667 5.66699 31.834 17 45.501s25.166 20.5 41.499 20.5s29.833 -10.333 40.5 -31s16 -43.334 16 -68.001s-31.333 -172 -94 -442s-94 -412.167 -94 -426.5s6.66699 -21.5 20 -21.5c8.66699 0 21 8.5 37 25.5s29.667 25.5 41 25.5
c22 0 33 -13.833 33 -41.5s-20.667 -51.834 -62 -72.501s-71.333 -31 -90 -31c-46.667 0 -70 37.333 -70 112c0 15.333 3.16699 32.5 9.5 51.5s13 45.333 20 79l30 137.5l40 180l50 225.5c19.667 88.333 29.5 136.166 29.5 143.499z" />
    <glyph glyph-name="j" unicode="j" horiz-adv-x="412" 
d="M412.5 1338c13 -17.333 19.5 -37 19.5 -59s-8.83301 -39 -26.5 -51s-36.167 -18 -55.5 -18s-36 9 -50 27s-21 36.5 -21 55.5s6.66699 35.667 20 50s32.333 21.5 57 21.5s43.5 -8.66699 56.5 -26zM-633 -719c44 -17.333 102.333 -26.001 175 -26.001
c266 0 432.333 174.667 499 524c98.667 521.333 167.667 926 207 1214c3.33301 15.333 10.833 27 22.5 35s23.167 12 34.5 12c23.333 0 35 -12 35 -36l-44 -308c-74 -529.333 -144 -895.333 -210 -1098c-55.333 -169.333 -137.666 -289.666 -246.999 -360.999
c-86.667 -56.667 -192 -85 -316 -85c-74 0 -135.333 13.333 -184 40c-15.333 8 -23 18 -23 30s5.16699 24 15.5 36s22.166 19.667 35.499 23z" />
    <glyph glyph-name="k" unicode="k" horiz-adv-x="893" 
d="M807 201c35.333 0 53.0029 -22.3291 53.0029 -66.9961c0 -26.667 -11.333 -53 -34 -79c-44.667 -50 -90.334 -75 -137.001 -75c-78.667 0 -148.167 25 -208.5 75s-109.5 110 -147.5 180s-61.333 129.333 -70 178l-5 -3c-4.66699 -34.667 -19.334 -102.167 -44.001 -202.5
s-39 -160.5 -43 -180.5c-6.66699 -34.667 -22.667 -52 -48 -52c-20.667 0 -35.334 3.66699 -44.001 11s-13 13.333 -13 18v8c0 38.667 30.833 187.667 92.5 447l115.5 491c76.667 328.667 128.667 574.167 156 736.5s44.5 250.833 51.5 265.5s15.167 22 24.5 22
c44 0 66 -22.667 66 -68c0 -16 -7.83301 -61.667 -23.5 -137l-44 -212.5l-67.5 -315l-62 -285.5c56 58.667 111.333 88 166 88s92.167 -18.833 112.5 -56.5s30.5 -77.834 30.5 -120.501c0 -80.667 -28.333 -151.334 -85 -212.001s-142.334 -125.667 -257.001 -195
c18.667 -102.667 61.667 -192.334 129 -269.001s137 -115 209 -115c33.333 0 58 15.667 74 47c7.33301 13.333 14.333 29.666 21 48.999s17.334 29 32.001 29zM518.003 950.004c-52 0 -96.834 -23.1689 -134.501 -69.502s-65.167 -116.833 -82.5 -211.5
c-3.33301 -19.333 -9.66602 -50.333 -18.999 -93l-14 -72c6.66699 5.33301 19 13.5 37 24.5s48 30.833 90 59.5s83.333 66.334 124 113.001s61 99.834 61 159.501s-20.667 89.5 -62 89.5z" />
    <glyph glyph-name="l" unicode="l" horiz-adv-x="535" 
d="M391 125c30 0 44.999 -15.165 44.999 -45.498s-19.833 -53.833 -59.5 -70.5s-85 -25 -136 -25s-88.5 13.667 -112.5 41s-36 60.666 -36 99.999s2.16699 75.5 6.5 108.5s11.833 78.833 22.5 137.5l37 198l47 236l53 257l54.5 260l52.5 245.5l46 214l35 164.5
c6 21.333 21.333 32 46 32c28.667 0 43 -15.667 43 -47v-26l-77 -364l-129.5 -614c-61 -291.333 -100.333 -488.333 -118 -591s-26.5 -164.334 -26.5 -185.001s6.33301 -39 19 -55s27.5 -24 44.5 -24s32.5 2.83301 46.5 8.5s27.667 11.667 41 18s25.333 12.333 36 18
s17.334 8.5 20.001 8.5z" />
    <glyph glyph-name="m" unicode="m" horiz-adv-x="1409" 
d="M82 0c10.667 32 20.166 71.1709 28.499 117.504s19.166 89.166 32.499 128.499c56.667 226 103.334 465.667 140.001 719c2 12 3.5 23.333 4.5 34s10.833 26.667 29.5 48c14 5.33301 24.333 8 31 8c18.667 0 31 -11.667 37 -35v-16
c-2.66699 -97.333 -17.667 -203.333 -45 -318l-51 -215c14.667 30.667 30.667 66 48 106c73.333 169.333 141.666 289.166 204.999 359.499s132 105.5 206 105.5c40.667 0 74 -16.5 100 -49.5s39 -71.5 39 -115.5c0 -6.66699 -0.333008 -12.5 -1 -17.5s-1 -10.167 -1 -15.5
c74 90 151 151.333 231 184c24.667 10.667 49.5 16 74.5 16s48.833 -11.833 71.5 -35.5s34 -55.5 34 -95.5s-4.33301 -83 -13 -129s-19.5 -92.333 -32.5 -139s-27.667 -93.834 -44 -141.501s-37.5 -113.834 -63.5 -198.501s-41.333 -149.5 -46 -194.5
s-8.5 -71.833 -11.5 -80.5s-9 -18.834 -18 -30.501s-21.5 -17.5 -37.5 -17.5c-31.333 0 -47 33.333 -47 100c0 42 7.66699 87.333 23 136s27.833 89.667 37.5 123s22.834 73.333 39.501 120s37.334 108 62.001 184s41 157.333 49 244c0 28 -3.5 44.5 -10.5 49.5
s-19.5 7.5 -37.5 7.5s-45.167 -11.667 -81.5 -35s-73.166 -56.333 -110.499 -99c-83.333 -98 -146 -218.333 -188 -361c-12 -42.667 -23.333 -79.334 -34 -110.001l-42.5 -126c-17.667 -53.333 -31.667 -100.166 -42 -140.499s-19.333 -65.833 -27 -76.5
s-20.167 -16 -37.5 -16c-31.333 0 -48.333 17 -51 51c16 112 40 211 72 297l78 205c20 50.667 39.333 107.834 58 171.501s28 118.5 28 164.5s-14.333 69 -43 69c-78.667 0 -182 -129.333 -310 -388c-68.667 -138 -110.334 -229 -125.001 -273l-34 -101
c-44 -138 -85.667 -207 -125 -207c-13.333 0 -24.833 2.83301 -34.5 8.5s-14.5 12.5 -14.5 20.5z" />
    <glyph glyph-name="n" unicode="n" horiz-adv-x="913" 
d="M698 810c0 66 -17.998 99.002 -53.998 99.002c-48 0 -139.667 -137.667 -275 -413c-61.333 -124.667 -104.166 -218.834 -128.499 -282.501s-42.5 -108.5 -54.5 -134.5s-23.833 -45.667 -35.5 -59s-24.667 -20 -39 -20s-22.833 3.5 -25.5 10.5s-4 19.667 -4 38
s26.833 175.666 80.5 471.999s84.667 452.166 93 467.499s15.833 25.166 22.5 29.499s18.667 6.5 36 6.5s30.833 -6.66699 40.5 -20s14.5 -25.166 14.5 -35.499s-1.33301 -20.5 -4 -30.5c-4.66699 -18 -11.667 -40.333 -21 -67c-32 -91.333 -62.667 -220.666 -92 -387.999
l-21 -121c15.333 32 32.666 70.5 51.999 115.5l86 193.5c38 84 80.333 159 127 225c60 86.667 116 130 168 130c91.333 0 137 -73.667 137 -221c0 -55.333 -7.83301 -124.333 -23.5 -207l-52 -271c-19 -98 -29.5 -179 -31.5 -243l-12 -55
c0 -14.667 -2.16699 -25.167 -6.5 -31.5s-17.333 -9.5 -39 -9.5s-37.334 4 -47.001 12s-12.834 22.333 -9.50098 43l100 598c12 74 18 130.333 18 169z" />
    <glyph glyph-name="o" unicode="o" horiz-adv-x="780" 
d="M530 1034c126 0 188.999 -95.3311 188.999 -285.998c0 -148.667 -41 -308.334 -123 -479.001c-55.333 -114.667 -122 -197.334 -200 -248.001c-40 -26 -81.333 -39 -124 -39c-75.333 0 -129.333 30 -162 90s-49 124.667 -49 194c0 124 20.833 244.333 62.5 361
s98.334 213.667 170.001 291s150.5 116 236.5 116zM261.999 703.002c-72 -144 -108.001 -284.668 -108.001 -422.001c0 -95.333 26.333 -159.333 79 -192c16 -10 34.333 -15 55 -15c42.667 0 90.334 37 143.001 111s97 165.167 133 273.5s54 201.333 54 279
s-4.5 126.834 -13.5 147.501s-19.333 35 -31 43s-31 12 -58 12s-56.5 -10.667 -88.5 -32c-62 -40 -117 -108.333 -165 -205z" />
    <glyph glyph-name="p" unicode="p" horiz-adv-x="856" 
d="M326 758c97.333 186.667 202.67 280.003 316.003 280.003c59.333 0 102 -17.5 128 -52.5s39 -86.833 39 -155.5c0 -126 -18 -254.5 -54 -385.5s-89.833 -242.333 -161.5 -334s-156.167 -137.5 -253.5 -137.5c-37.333 0 -67.333 8 -90 24s-41 43 -55 81
c-34 -154.667 -66.167 -308.5 -96.5 -461.5s-61.833 -291.5 -94.5 -415.5c-13.333 -27.333 -32.333 -41 -57 -41c-20.667 0 -32.334 13.667 -35.001 41c44 172.667 79.333 328.667 106 468l61.5 321l61 321.5l127.5 655.5v45c0 13.333 6.16699 26.166 18.5 38.499
s26.666 18.5 42.999 18.5s28.333 -6.33301 36 -19s11.5 -24.834 11.5 -36.501s-1 -22.167 -3 -31.5s-4.33301 -18.5 -7 -27.5l-8 -26.5c-2.66699 -8.66699 -4.33398 -16.334 -5.00098 -23.001zM238.004 227.003c0 -104.667 38.665 -157.002 115.998 -157.002
c72 0 138 44.667 198 134c76.667 114.667 127.334 267.334 152.001 458.001c7.33301 52.667 11 103.334 11 152.001c0 88 -21.667 132 -65 132s-93.666 -31.667 -150.999 -95c-80 -88.667 -143.5 -193.667 -190.5 -315s-70.5 -224.333 -70.5 -309z" />
    <glyph glyph-name="q" unicode="q" horiz-adv-x="764" 
d="M682 752c-2 -13.333 -8.66602 -29.999 -19.999 -49.999c-3.33301 -79.333 -56.333 -361.333 -159 -846l-52.5 -248l-88.5 -411c-6.66699 -27.333 -23.667 -41 -51 -41c-10 0 -19.333 3.16699 -28 9.5s-13 13.666 -13 21.999s3.83301 31.333 11.5 69l26.5 135l27.5 143
l23.5 119l21.5 106.5l22 105l24.5 114.5l29 135.5l36 168c-12 -18 -23.667 -38 -35 -60s-28 -52.5 -50 -91.5s-49.333 -73.333 -82 -103s-72.334 -44.5 -119.001 -44.5s-82.5 19.5 -107.5 58.5s-37.5 84.833 -37.5 137.5c0 115.333 13 238.333 39 369
s66.667 240.667 122 330c69.333 110 155 165 257 165c59.333 0 108 -28.667 146 -86s57 -126 57 -206zM154.001 225.001c0 -94 21.001 -140.999 63.001 -140.999c48.667 0 123.667 105.333 225 316c68 139.333 104 231 108 275c2 16 4.16699 38.667 6.5 68
s7.83301 52.666 16.5 69.999l7 6c-18.667 87.333 -52.334 131 -101.001 131c-98 0 -180.333 -99.667 -247 -299c-52 -156 -78 -298 -78 -426z" />
    <glyph glyph-name="r" unicode="r" horiz-adv-x="727" 
d="M82 4l45.999 244c24 124.667 40.333 213.167 49 265.5l29.5 173c11 63 33.5 153.5 67.5 271.5c-1.33301 3.33301 -2 6.33301 -2 9v10c0 32 12.333 55 37 69c7.33301 4.66699 15 7 23 7c28.667 0 43 -20.667 43 -62c0 -24 -9.66699 -67.167 -29 -129.5
s-34.333 -120.166 -45 -173.499l34.5 58c13.667 23.333 35.334 57.333 65.001 102s67 87.167 112 127.5s91 60.5 138 60.5s82.833 -12.667 107.5 -38c9.33301 -8.66699 14 -19.667 14 -33s-6 -25.333 -18 -36s-24.333 -16 -37 -16s-25 3.5 -37 10.5s-25.333 10.5 -40 10.5
s-38 -12 -70 -36c-127.333 -92.667 -232.333 -276.334 -315 -551.001c-22 -73.333 -35.333 -123.833 -40 -151.5s-8.66699 -50.167 -12 -67.5c-20 -107.333 -50.667 -161 -92 -161c-19.333 0 -29 12.333 -29 37z" />
    <glyph glyph-name="s" unicode="s" horiz-adv-x="633" 
d="M387 956c-66.667 0 -99.9971 -38.666 -99.9971 -115.999c0 -51.333 12 -104.333 36 -159s44.333 -98.334 61 -131.001c64.667 -128.667 97 -227.167 97 -295.5s-20.667 -126.5 -62 -174.5s-101 -76.667 -179 -86h-13c-75.333 0 -130 46.333 -164 139
c-1.33301 3.33301 -2 6.33301 -2 9v10c0 14 4.33301 25.5 13 34.5s18 14.5 28 16.5h11c13.333 0 24.166 -5.33301 32.499 -16s16.166 -22.5 23.499 -35.5s15.333 -24.833 24 -35.5s23.667 -16 45 -16c45.333 0 81.5 14.167 108.5 42.5s40.5 59.833 40.5 94.5s-5 67 -15 97
c-16.667 51.333 -45.334 115.333 -86.001 192c-68 126 -102 224 -102 294s17.667 127.333 53 172s85.333 67 150 67c40 0 74.333 -8.33301 103 -25c54 -31.333 81 -66.5 81 -105.5s-16.333 -58.5 -49 -58.5c-12 0 -21.833 4.5 -29.5 13.5l-24.5 29.5
c-23.333 28.667 -50.333 43 -81 43z" />
    <glyph glyph-name="t" unicode="t" horiz-adv-x="647" 
d="M272 942c-56.667 0 -105.669 -3.33496 -147.002 -10.002c-27.333 2.66699 -41 14.334 -41 35.001c0 12 5 24.333 15 37s23.333 20 40 22l148 -4c2.66699 14 5.5 30.833 8.5 50.5s8.33301 48.334 16 86.001s18.334 71.834 32.001 102.501s31.5 46 53.5 46
s33 -12.333 33 -37v-13c-19.333 -82.667 -35.666 -160.334 -48.999 -233.001h147c52 0 83.833 -4 95.5 -12s17.5 -18 17.5 -30c0 -23.333 -14.333 -38.666 -43 -45.999c-14.667 -4 -44.167 -6 -88.5 -6s-92.5 2 -144.5 6c-12.667 -66.667 -40.834 -191.334 -84.501 -374.001
s-65.5 -300.5 -65.5 -353.5s6 -87.833 18 -104.5c8.66699 -10.667 23.334 -16 44.001 -16s38.334 6 53.001 18s28 25.167 40 39.5s23.833 27.5 35.5 39.5s24.5 18 38.5 18c27.333 0 41 -13.667 41 -41c0 -14 -13.833 -37.167 -41.5 -69.5s-53.167 -57.166 -76.5 -74.499
s-57.333 -26 -102 -26s-75.334 7.66699 -92.001 23c-34.667 30.667 -52 79.667 -52 147c0 34.667 4 75.667 12 123l19 116l34 150.5l26 113.5l29 127.5c12 52.333 22.333 102.166 31 149.499z" />
    <glyph glyph-name="u" unicode="u" horiz-adv-x="870" 
d="M598 -49c-40.667 0 -61 54.666 -61 163.999c0 70.667 6.83301 143 20.5 217s27.834 146.333 42.501 217c-24.667 -44 -48 -89.167 -70 -135.5s-41.333 -83.666 -58 -111.999s-30 -52.166 -40 -71.499c-86 -164 -165.833 -246 -239.5 -246s-110.5 73 -110.5 219
c0 187.333 29.667 399.666 89 636.999l31 124c12.667 45.333 34 68 64 68c17.333 0 29 -11.667 35 -35c-2 -21.333 -7.33301 -41 -16 -59s-15 -38 -19 -60c-58.667 -296 -88 -498 -88 -606l-2 -96c0 -54.667 9 -82 27 -82c52 0 140.333 122.667 265 368l71 141
c28 56.667 50 99.834 66 129.501s30.333 58.167 43 85.5c52.667 115.333 98 173 136 173c23.333 0 35 -12.833 35 -38.5s-13 -67.834 -39 -126.501s-47.333 -118.667 -64 -180c-48 -171.333 -77.667 -350.333 -89 -537v-11c0 -20 4.16699 -34.833 12.5 -44.5l18.5 -21
c4 -4.33301 6 -13.333 6 -27s-7.83301 -26.167 -23.5 -37.5s-29.834 -17 -42.501 -17z" />
    <glyph glyph-name="v" unicode="v" horiz-adv-x="700" 
d="M426 1378c190 -14.667 284.999 -131.166 284.999 -349.499s-75 -463.5 -225 -735.5c-49.333 -88.667 -105.666 -174.667 -168.999 -258c-20.667 -27.333 -39 -41 -55 -41c-34 0 -53 14.333 -57 43c-24 169.333 -43.333 323.833 -58 463.5s-35.667 310.167 -63 511.5
c4 13.333 11.833 24.833 23.5 34.5s22.5 14.5 32.5 14.5c19.333 0 32 -11.667 38 -35c14.667 -134 31.334 -273.667 50.001 -419l57 -464c99.333 156.667 168.666 280 207.999 370c80.667 187.333 121 353.166 121 497.499s-42 232.5 -126 264.5
c-24 9.33301 -46 15.333 -66 18s-33.833 6 -41.5 10s-11.5 12 -11.5 24c0 29.333 19 46.333 57 51z" />
    <glyph glyph-name="w" unicode="w" horiz-adv-x="1178" 
d="M268 -6c-28.667 0 -42.998 27.999 -42.998 83.999c-22.667 95.333 -47.167 245.333 -73.5 450s-44.166 327.834 -53.499 369.501s-14 67.334 -14 77.001s5.5 20.667 16.5 33s22.5 18.5 34.5 18.5s23.167 -5 33.5 -15s18 -26.833 23 -50.5s13.5 -75.334 25.5 -155.001
s28.5 -196.834 49.5 -351.501s34.5 -237.667 40.5 -249c22.667 64 47.667 131 75 201c110.667 288 176 484.333 196 589c4.66699 26 20.334 39 47.001 39c15.333 0 26.166 -4 32.499 -12s10.5 -19.667 12.5 -35c31.333 -318 68 -589 110 -813
c203.333 326.667 305 587.334 305 782.001c0 97.333 -31.333 179.333 -94 246c-9.33301 10 -21.833 19.5 -37.5 28.5l-46.5 27.5c-38 22 -57 41.667 -57 59c0 13.333 5.66699 25.5 17 36.5s25 16.5 41 16.5s48.667 -15.667 98 -47s90 -77 122 -137s48 -131.333 48 -214
c0 -140 -27.833 -277.667 -83.5 -413s-126.167 -267 -211.5 -395c-10.667 -16 -21.334 -34.333 -32.001 -55c-42 -82 -80.667 -123 -116 -123c-31.333 0 -47 27.333 -47 82c0 10 0.833008 20 2.5 30s0.166992 28.667 -4.5 56c-46.667 250 -77.334 438.333 -92.001 565
c-20 -45.333 -60.333 -150.5 -121 -315.5s-112.667 -292.833 -156 -383.5c-12.667 -17.333 -28.334 -26 -47.001 -26z" />
    <glyph glyph-name="x" unicode="x" horiz-adv-x="700" 
d="M-57 18c0 13.333 6.33203 29.6709 18.999 49.0039l122 194.5l188 291.5c-4 9.33301 -7.83301 19.5 -11.5 30.5l-24.5 71.5l-45 128.5c-17.333 49 -28.833 82.167 -34.5 99.5l-16.5 51.5l-14.5 44.5c-4.33301 12.667 -6.5 23.167 -6.5 31.5s5 17.833 15 28.5
s23.167 16 39.5 16s29.333 -6.5 39 -19.5s17.5 -28.5 23.5 -46.5s10.833 -36.5 14.5 -55.5s8.16699 -36.833 13.5 -53.5s11.333 -34.334 18 -53.001l20 -55.5l21 -56l23 -60.5c27.333 33.333 68.833 89.833 124.5 169.5s91.334 129.5 107.001 149.5s34.834 36.667 57.501 50
c10 4 19.667 6 29 6c21.333 -4 32 -14.833 32 -32.5s-3.33301 -32.834 -10 -45.501c-10 -20 -27.833 -45.333 -53.5 -76s-63.5 -82.667 -113.5 -156s-92.667 -131 -128 -173c74 -181.333 117.667 -291.833 131 -331.5s27.333 -73.334 42 -101.001s22 -54.167 22 -79.5
c-2 -14.667 -9.16699 -26.834 -21.5 -36.501s-26.5 -14.5 -42.5 -14.5s-27 10.667 -33 32c-2 22.667 -8.83301 44.167 -20.5 64.5s-23.5 48 -35.5 83s-28.667 77.333 -50 127l-64 155.5l-280 -430c-12.667 -20 -31.834 -30 -57.501 -30s-38.5 10.667 -38.5 32z" />
    <glyph glyph-name="y" unicode="y" horiz-adv-x="860" 
d="M710 1009.5c11.333 16.333 28.002 24.5039 50.002 24.5039s33 -8 33 -24s-29.833 -155.5 -89.5 -418.5l-121.5 -540.5c26.667 23.333 50.334 45.333 71.001 66s39 38 55 52s30 21 42 21c25.333 0 38 -11.333 38 -34c0 -14 -5.33301 -27.667 -16 -41
c-74.667 -66.667 -145.667 -125.334 -213 -176.001c-57.333 -315.333 -112 -523 -164 -623c-14 -27.333 -32.333 -53.333 -55 -78c-54 -61.333 -115.667 -92 -185 -92s-123 25.5 -161 76.5s-57 100.667 -57 149s6 90.166 18 125.499s28.333 67.666 49 96.999
s45 56.5 73 81.5s58 49.167 90 72.5s65.167 46.333 99.5 69s68.5 46.667 102.5 72l100 76c7.33301 29.333 32.666 114 75.999 254s68.666 223.333 75.999 250c-57.333 -167.333 -127.666 -297.666 -210.999 -390.999c-56 -62.667 -109.333 -94 -160 -94
s-92.334 20.333 -125.001 61s-49 98 -49 172c0 114.667 32.667 295.334 98 542.001c32.667 122.667 49 189.334 49 200.001c-2.66699 19.333 -1.33398 32.666 3.99902 39.999c19.333 26 42 39 68 39s39 -13.333 39 -40c0 -24.667 -25.333 -139.667 -76 -345
s-76 -342.833 -76 -412.5s8.5 -113.5 25.5 -131.5s37.833 -27 62.5 -27c52.667 0 108 43.667 166 131s107.833 207.666 149.5 360.999s70 260.166 85 320.499s28.167 98.666 39.5 114.999zM444.002 -153.996c-54.667 -42 -106.503 -79.6689 -155.503 -113.002
s-91.833 -66.666 -128.5 -99.999c-79.333 -72 -119 -152.333 -119 -241c0 -56 18.333 -99.333 55 -130c15.333 -12 35.833 -18 61.5 -18s49.334 8.66699 71.001 26s41.167 39.666 58.5 66.999s32.833 58.333 46.5 93s25.834 69.334 36.501 104.001
s19.834 67.834 27.501 99.501s14.5 58.167 20.5 79.5z" />
    <glyph glyph-name="z" unicode="z" horiz-adv-x="817" 
d="M215 1033l86.0029 -7l440 -2c34.667 0 53 -6.66699 55 -20c0.666992 -4.66699 1 -10.834 1 -18.501s-1.83301 -15 -5.5 -22s-7.66699 -13.167 -12 -18.5s-8.66602 -9.83301 -12.999 -13.5s-29 -36.334 -74 -98.001l-251.5 -335l-281 -375.5
c27.333 0 66.333 -9.16699 117 -27.5s97 -27.5 139 -27.5c132 0 198 37.333 198 112c0 14.667 -6 31.334 -18 50.001s-18 33.834 -18 45.501s5.33301 24.334 16 38.001s23.667 20.5 39 20.5c25.333 0 45 -17.167 59 -51.5s21 -63.5 21 -87.5
c0 -67.333 -23.833 -120.5 -71.5 -159.5s-116.834 -58.5 -207.501 -58.5c-46.667 0 -90.334 7.5 -131.001 22.5l-90.5 33c-19.667 7 -39.334 10.5 -59.001 10.5s-44.834 -9.16699 -75.501 -27.5s-52 -27.5 -64 -27.5c-24.667 0 -37 12.333 -37 37
c0 9.33301 4.33301 20.666 13 33.999l368 483.5l297 389.5l-245 10l-138 -10h-34c-62 0 -93 16.833 -93 50.5s23.333 50.5 70 50.5z" />
    <glyph glyph-name="braceleft" unicode="{" horiz-adv-x="565" 
d="M137 -608c-69.333 0 -104.002 89.0039 -104.002 267.004s39.667 414.667 119 710c15.333 61.333 28 110.333 38 147l8 34c4.66699 19.333 7.83398 34.166 9.50098 44.499s3.66699 20.166 6 29.499s3.5 15.333 3.5 18v7c0 8.66699 -3 13 -9 13l-65 -9
c-18 0 -28.333 2.5 -31 7.5s-4.66699 9.5 -6 13.5s-4 8.66699 -8 14c6 27.333 28 50.666 66 69.999l46 22c15.333 7.33301 30 20.333 44 39s25.167 42.334 33.5 71.001s14.333 58 18 88s5.5 59.667 5.5 89c0 174 5.33301 310.333 16 409c30.667 284.667 131 450 301 496
c6.66699 1.33301 13 2 19 2c28.667 0 43 -11.833 43 -35.5s-16 -41.834 -48 -54.501c-8.66699 -4 -17.334 -6 -26.001 -6h-8c-46.667 -9.33301 -82.667 -35.333 -108 -78v-2c-38 -66 -60.667 -168.667 -68 -308c-3.33301 -60.667 -6.16602 -146.334 -8.49902 -257.001
s-10 -195.5 -23 -254.5s-27.5 -105.833 -43.5 -140.5s-39.333 -65.667 -70 -93c20 -12 30 -39 30 -81s-20.333 -132 -61 -270c-86 -288 -129 -520.333 -129 -697c0 -77.333 10.333 -135.333 31 -174c4 -7.33301 9.83301 -13 17.5 -17s14.834 -8.66699 21.501 -14l75 21
c28.667 0 43 -9 43 -27c0 -24 -20.5 -45.667 -61.5 -65s-79.833 -29 -116.5 -29zM163.998 674.004h2h-2zM499.998 1800v-2v2z" />
    <glyph glyph-name="bar" unicode="|" horiz-adv-x="580" 
d="M45 -305c-15.333 0 -24.334 9.66797 -27.001 29.001c0 6.66699 0.666992 11.334 2 14.001h-2v1l2 1c8.66699 66 27.834 165.5 57.501 298.5s98.667 490.167 207 1071.5s191.833 1012.67 250.5 1294c7.33301 13.333 17.833 25 31.5 35s26.167 15 37.5 15
c17.333 0 27 -11.667 29 -35c-53.333 -253.333 -135.833 -678.833 -247.5 -1276.5s-182 -959.667 -211 -1086s-47.5 -221.5 -55.5 -285.5v-7c0 -24.667 -15.667 -45.334 -47 -62.001c-8.66699 -4.66699 -17.667 -7 -27 -7z" />
    <glyph glyph-name="braceright" unicode="}" horiz-adv-x="655" 
d="M408 1858l-89.002 -5.00195c-22.667 2.66699 -34 11 -34 25c0 50.667 56.667 76 170 76c108.667 0 163 -78 163 -234c0 -116.667 -23 -251.667 -69 -405c-20 -66.667 -41.333 -133.167 -64 -199.5s-44 -132.5 -64 -198.5c-46 -152 -69 -284.333 -69 -397
c0 -7.33301 0.333008 -14.5 1 -21.5s1 -14.167 1 -21.5c18.667 6.66699 37.334 10 56.001 10s28 -10.667 28 -32s-14.667 -40.166 -44 -56.499s-46.666 -26.833 -51.999 -31.5c-38.667 -45.333 -72.834 -189.666 -102.501 -432.999s-55.5 -406.666 -77.5 -489.999
c-40.667 -156.667 -90.5 -273.834 -149.5 -351.501s-135.5 -116.5 -229.5 -116.5s-175.667 22.667 -245 68c-40 26 -60 47.667 -60 65s7.66699 33 23 47s29.5 21 42.5 21s23.167 -2.66699 30.5 -8c70 -68.667 150.667 -103 242 -103c98 0 164.667 66.667 200 200
c30.667 116.667 58 251 82 403s42.667 260.333 56 325c-1.33301 -6.66699 -4.33301 -15.667 -9 -27c4 31.333 8 65.333 12 102c16 145.333 51.667 252.666 107 321.999c-17.333 15.333 -26 45.5 -26 90.5s4.83301 89.5 14.5 133.5s17.334 82.833 23.001 116.5
s16.5 77 32.5 130s33.167 105.667 51.5 158l55.5 157.5c18.667 52.667 40.167 123.334 64.5 212.001s36.5 182 36.5 280s-18.333 157 -55 177c-14 8 -31.667 12 -53 12z" />
    <glyph glyph-name="asciitilde" unicode="~" horiz-adv-x="1239" 
d="M1157 684c0 -9.33301 -2.66602 -18.9971 -7.99902 -28.9971l-82 -149c-26 -48.667 -69 -74.667 -129 -78c-62.667 0 -148.667 33.333 -258 100l-107 66.5c-42.667 27 -74 43.5 -94 49.5s-42.333 9 -67 9c-57.333 0 -113.666 -22.333 -168.999 -67
s-84.333 -97.334 -87 -158.001c-2 -16.667 -9.33301 -30.334 -22 -41.001s-25.334 -16 -38.001 -16c-20.667 0 -32.334 14.333 -35.001 43c8.66699 83.333 49.834 161.5 123.501 234.5s152.834 109.5 237.501 109.5c34.667 0 66.167 -6.66699 94.5 -20
s97.166 -52 206.499 -116s177.166 -96 203.499 -96s48.5 6.66699 66.5 20s34.333 38.666 49 75.999c23.333 64.667 50 97 80 97c23.333 0 35 -11.667 35 -35z" />
    <glyph glyph-name="nonbreakingspace" unicode="&#xa0;" horiz-adv-x="850" 
 />
    <glyph glyph-name="exclamdown" unicode="&#xa1;" horiz-adv-x="406" 
d="M-123 -1327c-17.333 0 -29 11.667 -35 35c3.33301 68.667 11.333 136.167 24 202.5s23.334 133.833 32.001 202.5c48 430 135.333 911.333 262 1444c5.33301 12.667 13.666 22.667 24.999 30s21.666 11 30.999 11c21.333 0 33.333 -13.667 36 -41
c-124 -528 -210.667 -1004.33 -260 -1429c-8.66699 -69.333 -19.167 -137.333 -31.5 -204s-20.166 -134 -23.499 -202c-4.66699 -13.333 -12.667 -24.833 -24 -34.5s-23.333 -14.5 -36 -14.5zM283 975c27.333 -10.667 41 -31 41 -61s-12.167 -55 -36.5 -75
s-47.833 -30 -70.5 -30s-40 7.66699 -52 23s-18 34 -18 56c0 48 22.667 90 68 126c10 6.66699 21 10 33 10c24.667 0 37 -11.667 37 -35v-7c0 -2.66699 -0.666992 -5 -2 -7z" />
    <glyph glyph-name="cent" unicode="&#xa2;" horiz-adv-x="694" 
d="M184 -236c-22.667 0 -34 11.0029 -34 33.0029c0 18 9.5 46.167 28.5 84.5s32.5 71.166 40.5 98.499c-48 10 -86.333 39.5 -115 88.5s-43 102.167 -43 159.5c0 107.333 19.167 220.333 57.5 339s89.333 222 153 310s132.834 141.667 207.501 161
c31.333 72 50.333 119.333 57 142c11.333 36.667 33.333 57 66 61c8 0 15.167 -3 21.5 -9s9.5 -15.333 9.5 -28c0 -42.667 -18.333 -97.334 -55 -164.001c34.667 -8 59.667 -30.667 75 -68c6 -14.667 11 -28.167 15 -40.5s10 -20.5 18 -24.5
c5.33301 -8.66699 8 -19.167 8 -31.5s-5.66699 -23.833 -17 -34.5s-24 -16 -38 -16c-28.667 0 -47 21.167 -55 63.5s-31.333 63.5 -70 63.5c-56 0 -112.333 -39.167 -169 -117.5s-103 -173 -139 -284s-54 -203.333 -54 -277s17.333 -128.5 52 -164.5
c12.667 -12.667 28 -21.667 46 -27c13.333 13.333 27.166 20 41.499 20s25.166 -8 32.499 -24c43.333 6 80.333 29.333 111 70l31.5 39.5c9.66699 11.667 20.834 17.5 33.501 17.5c26 0 39 -14.333 39 -43s-23 -63.334 -69 -104.001s-99 -66 -159 -76
c-24 -91.333 -54.333 -157.333 -91 -198c-12 -13.333 -24 -20 -36 -20z" />
    <glyph glyph-name="sterling" unicode="&#xa3;" horiz-adv-x="1077" 
d="M588 973c88.667 -30 146.66 -44.999 173.993 -44.999c51.333 0 119 28 203 84c8.66699 5.33301 18.667 8 30 8c22 0 33 -12.333 33 -37c0 -32.667 -34.833 -66.167 -104.5 -100.5s-128.334 -51.5 -176.001 -51.5s-108.5 12.333 -182.5 37
c-7.33301 -34.667 -14.166 -68.834 -20.499 -102.501s-13.166 -65.5 -20.499 -95.5s-18.166 -84.833 -32.499 -164.5s-30.166 -142.5 -47.499 -188.5l112.5 -61.5c37 -20.333 75 -38.5 114 -54.5s77.333 -33.333 115 -52s87 -41.334 148 -68.001s113.333 -40 157 -40
s83.5 10.833 119.5 32.5s63.667 37.334 83 47.001s39.666 14.5 60.999 14.5s32 -10.333 32 -31c0 -39.333 -36 -75.666 -108 -108.999s-132.5 -50 -181.5 -50s-93.333 5.66699 -133 17s-79.167 25.5 -118.5 42.5s-78.333 35.667 -117 56s-75.5 38.333 -110.5 54
s-69.667 34.334 -104 56.001s-69.5 42.5 -105.5 62.5c-32.667 -56 -73 -104.333 -121 -145c-94.667 -79.333 -168.167 -119 -220.5 -119s-91.166 17 -116.499 51s-38 69.667 -38 107c0 71.333 22.667 137.333 68 198s100 91 164 91s137.667 -19.333 221 -58
c14 50 25.333 100 34 150s19 102 31 156l49 235c-86 28.667 -144.667 43 -176 43s-54.166 -0.833008 -68.499 -2.5s-26.166 -9.83398 -35.499 -24.501c-13.333 -16 -29 -24 -47 -24c-24.667 0 -37 11.333 -37 34c0 38.667 20.333 68.667 61 90
c28.667 15.333 57.5 23 86.5 23s57.833 -3.16699 86.5 -9.5s59 -12.5 91 -18.5l60 -13c33.333 169.333 62.166 297.333 86.499 384s38.5 139.167 42.5 157.5s9.83301 42.833 17.5 73.5s16.334 56.834 26.001 78.501s18.334 42 26.001 61s16.167 38.5 25.5 58.5
c48.667 109.333 106.334 164 173.001 164c51.333 0 107.333 -32.5 168 -97.5s95.334 -121.833 104.001 -170.5c-2 -14.667 -9 -27.834 -21 -39.501s-25.333 -17.5 -40 -17.5s-25.667 9.33301 -33 28c-6 40.667 -32 82 -78 124s-82 67.667 -108 77h-2
c-72.667 -52.667 -132.334 -178.667 -179.001 -378l-39.5 -170.5c-9 -39.667 -18.833 -80.834 -29.5 -123.501zM329.993 274.001c-62.667 30 -117.332 45.001 -163.999 45.001s-85.334 -15.333 -116.001 -46s-46 -65.834 -46 -105.501s14 -71.5 42 -95.5
c10 -8.66699 22.667 -13 38 -13c32.667 0 74.5 24.833 125.5 74.5s91.167 96.5 120.5 140.5z" />
    <glyph glyph-name="currency" unicode="&#xa4;" horiz-adv-x="1010" 
d="M213 692c-35.333 51.333 -53.001 104.166 -53.001 158.499s19 112.166 57 173.499c-35.333 20 -63.333 42.167 -84 66.5s-33 40.333 -37 48s-6 17.167 -6 28.5s5.5 23.166 16.5 35.499s23.333 18.5 37 18.5s24 -6.16699 31 -18.5s15 -22.666 24 -30.999
s18.5 -16.166 28.5 -23.499l30.5 -22c10.333 -7.33301 19.5 -14.666 27.5 -21.999c58 52 122 78 192 78c31.333 0 57 -5.83301 77 -17.5s33.833 -20 41.5 -25s23.5 -11.5 47.5 -19.5c13.333 24.667 47.333 56.834 102 96.501s94 59.5 118 59.5s36 -12.333 36 -37
c0 -20.667 -23.667 -47 -71 -79l-62 -39c-21.333 -13.333 -37.666 -24.5 -48.999 -33.5s-19.666 -14.5 -24.999 -16.5c28.667 -35.333 43 -78 43 -128c0 -83.333 -19 -158.666 -57 -225.999c-2 -12 -6 -21 -12 -27c9.33301 -28.667 32.666 -62.334 69.999 -101.001l79 -83
c15.333 -16.667 23 -31.167 23 -43.5s-5.66699 -24.166 -17 -35.499s-24.5 -17 -39.5 -17s-45.5 22.167 -91.5 66.5s-80.667 90.166 -104 137.499c-39.333 -27.333 -87 -41 -143 -41s-108.667 16.667 -158 50c-32.667 -60 -60 -100.333 -82 -121s-37 -31 -45 -31
c-24.667 0 -37 12.667 -37 38s12.333 58.666 37 99.999s43 69 55 83zM564.999 1026c-16.667 5.33301 -26 14.332 -28 26.999l-41 25.5c-12 7.66699 -28.333 11.5 -49 11.5c-44.667 0 -87.667 -23 -129 -69s-62 -95 -62 -147s17.5 -98.333 52.5 -139s81 -61 138 -61
s105.667 24.667 146 74s60.5 103.333 60.5 162s-29.333 97.334 -88 116.001z" />
    <glyph glyph-name="yen" unicode="&#xa5;" horiz-adv-x="881" 
d="M135 -78c-24.667 0 -36.999 12.3301 -36.999 36.9971c0 32.667 24 54.667 72 66l77.5 17.5c25 5.66699 50.5 11.167 76.5 16.5c12 44 24 82.833 36 116.5s26.5 77.5 43.5 131.5s26.5 124.333 28.5 211c-96.667 -8 -171 -27.667 -223 -59
c-6.66699 -2.66699 -14.334 -4 -23.001 -4s-16.5 3.33301 -23.5 10s-10.5 17.667 -10.5 33c0 30.667 27.833 55.334 83.5 74.001s122.5 31.334 200.5 38.001l6 64c-12 18 -25.667 48 -41 90c-116 -3.33301 -182 -13 -198 -29c-13.333 -8 -25 -12 -35 -12
c-24.667 0 -37 12.333 -37 37c0 56 80 89.333 240 100c-62 210.667 -123.667 509 -185 895c-9.33301 58.667 -17.333 112.667 -24 162c0 17.333 5 32.5 15 45.5s22.667 19.5 38 19.5s28 -4.16699 38 -12.5s15 -18.666 15 -30.999s-3.33301 -22.833 -10 -31.5
c33.333 -246.667 86.666 -523 159.999 -829c22.667 -96 43.667 -168 63 -216h19c14 36 32.667 76.333 56 121s68 147.834 134 309.501s127.5 297.334 184.5 407.001s120.5 197.834 190.5 264.501c13.333 10.667 26 16 38 16c25.333 0 38 -11.333 38 -34
c0 -14.667 -5.66699 -28.334 -17 -41.001c-94 -91.333 -188.667 -248.333 -284 -471l-101.5 -249c-41.667 -104 -74.167 -178.833 -97.5 -224.5s-39 -79.834 -47 -102.501c128 -6.66699 192 -23 192 -49c0 -12.667 -4.83301 -24.667 -14.5 -36s-21.167 -19 -34.5 -23
c-48.667 4 -108.667 7.33301 -180 10c-4.66699 -6.66699 -10.667 -55.334 -18 -146.001c51.333 0 102 -1.33301 152 -4s99 -4.66699 147 -6c22.667 -6 34 -17.667 34 -35c0 -12 -4.83301 -23.833 -14.5 -35.5s-21.167 -19.5 -34.5 -23.5l-295 12
c-11.333 -84 -29.666 -168.167 -54.999 -252.5s-43.666 -149.5 -54.999 -195.5c34.667 4 68.667 6 102 6c132.667 0 199 -18.333 199 -55c0 -14.667 -6.83301 -27.667 -20.5 -39s-28.834 -17 -45.501 -17c-42 11.333 -96.167 17 -162.5 17s-129.333 -7.5 -189 -22.5
s-97.667 -25.667 -114 -32s-33.833 -9.5 -52.5 -9.5z" />
    <glyph glyph-name="brokenbar" unicode="&#xa6;" horiz-adv-x="664" 
d="M350 809c-17.333 0 -25.999 10.334 -25.999 31.001c0 5.33301 9 36.5 27 93.5s49.333 179.833 94 368.5s79.667 330 105 424s48 188.333 68 283c19.333 32.667 40.166 49 62.499 49s34.5 -11.667 36.5 -35c-21.333 -94.667 -44.5 -188.834 -69.5 -282.501l-73.5 -286
l-70.5 -293c-23 -98.333 -50.167 -196.833 -81.5 -295.5c-5.33301 -16 -15.5 -29.5 -30.5 -40.5s-28.833 -16.5 -41.5 -16.5zM18.001 -763.999l92 488c40.667 200.667 67 341.334 79 422.001s20.667 124.667 26 132c18 26 37.5 39 58.5 39s31.5 -11.333 31.5 -34
c-16 -138 -38.667 -278.833 -68 -422.5l-70.5 -344c-17.667 -85.667 -33.5 -170.834 -47.5 -255.501c-6.66699 -16.667 -17.167 -30.5 -31.5 -41.5s-27.833 -16.5 -40.5 -16.5c-19.333 0 -29 11 -29 33z" />
    <glyph glyph-name="section" unicode="&#xa7;" horiz-adv-x="1071" 
d="M524 1653c-136.667 149.333 -205.001 283.667 -205.001 403c0 64.667 9.66699 114.5 29 149.5s43.666 63.167 72.999 84.5c53.333 38 111.666 57 174.999 57c114.667 0 214 -34.333 298 -103s126 -146.334 126 -233.001c0 -66.667 -2.66699 -111.667 -8 -135
c-11.333 -53.333 -35.333 -80 -72 -80c-15.333 0 -25 9.66699 -29 29l9 141c0 81.333 -32.667 150.833 -98 208.499c-65.333 57.667 -145.333 86.5 -240 86.5s-147.667 -42.667 -159 -128c-3.33301 -25.333 -5 -50.333 -5 -75c0 -117.333 65 -242.666 195 -375.999
c112 -116 185.333 -197.333 220 -244c60.667 -82 91 -154.333 91 -217c0 -107.333 -57 -198.333 -171 -273c-97.333 -64 -187.333 -97.333 -270 -100c96.667 -141.333 159 -237.666 187 -288.999c61.333 -114.667 92 -214.334 92 -299.001
c0 -151.333 -39.167 -277.666 -117.5 -378.999s-175.166 -177.5 -290.499 -228.5s-222.333 -76.5 -321 -76.5s-191.667 20.833 -279 62.5s-143.333 97.167 -168 166.5c0 32.667 14 57 42 73c8.66699 4.66699 18.334 7 29.001 7s19.334 -7.33301 26.001 -22
c20 -60 67.5 -106.167 142.5 -138.5s144.5 -48.5 208.5 -48.5c111.333 0 213.833 26.167 307.5 78.5s170 121.5 229 207.5s88.5 179.167 88.5 279.5s-39.667 212.5 -119 336.5c-34 52.667 -70.667 104.5 -110 155.5s-76 101.833 -110 152.5
c-79.333 119.333 -119 219.5 -119 300.5s8.33301 145.333 25 193s39.667 88 69 121s63.5 60.833 102.5 83.5s81.167 45.667 126.5 69zM772.499 1373.5c-36.333 54.333 -91.834 119.5 -166.501 195.5c-108 -40.667 -178 -77 -210 -109c-58 -58 -87 -122.333 -87 -193
s12.333 -133 37 -187s60.334 -116.333 107.001 -187c10.667 26 54.167 56 130.5 90s127.833 59.667 154.5 77c59.333 40.667 89 89.5 89 146.5s-18.167 112.667 -54.5 167z" />
    <glyph glyph-name="dieresis" unicode="&#xa8;" horiz-adv-x="1706" 
d="M782 2174c-32.667 11.333 -49.001 33.5 -49.001 66.5s9 58.167 27 75.5c32.667 31.333 58.334 47 77.001 47c42.667 0 64 -21 64 -63c0 -29.333 -10.667 -58.166 -32 -86.5c-21.333 -28.333 -44.666 -42.5 -69.999 -42.5c-4.66699 0 -10.334 1 -17.001 3zM474.999 2347
l0.000976562 2c22 -26 33 -49.5 33 -70.5s-15 -46.167 -45 -75.5s-54 -44 -72 -44s-32 11.167 -42 33.5s-15 42.833 -15 61.5s2.5 34.667 7.5 48s11.667 25 20 35s17.833 18 28.5 24s23.667 9 39 9s30.666 -7.66699 45.999 -23z" />
    <glyph glyph-name="copyright" unicode="&#xa9;" horiz-adv-x="1090" 
d="M848 1853l-87.9971 12.9941c-86 0 -176.667 -26 -272 -78c-130.667 -70.667 -206.667 -156.667 -228 -258c-6.66699 -29.333 -10 -65.166 -10 -107.499s9 -85.833 27 -130.5s43 -83.334 75 -116.001c67.333 -68.667 156.166 -103 266.499 -103s215.166 47 314.499 141
c60 56.667 103 122.334 129 197.001c12.667 36.667 19 73.334 19 110.001s-3 66.334 -9 89.001s-14.833 42.834 -26.5 60.501s-26.167 35.334 -43.5 53.001s-37.333 39.834 -60 66.501c-2.66699 6.66699 -4 15.5 -4 26.5s5.33301 22.333 16 34s23.5 17.5 38.5 17.5
s40.833 -19.167 77.5 -57.5s61 -71.166 73 -98.499c18.667 -50.667 28 -100.667 28 -150c0 -98.667 -24.5 -192.667 -73.5 -282s-117 -162.166 -204 -218.499s-184.833 -84.5 -293.5 -84.5c-138 0 -246.167 42.333 -324.5 127s-117.5 185.167 -117.5 301.5
s32.333 215.666 97 297.999s147.167 146.333 247.5 192s203.166 69.167 308.499 70.5c13.333 0 26.333 -2.66699 39 -8s25.667 -10 39 -14c14.667 -10 22 -21.833 22 -35.5s-6.5 -26.334 -19.5 -38.001s-27.5 -17.5 -43.5 -17.5zM725.003 1267.99
c0 -41.333 -33.3369 -61.999 -100.004 -61.999s-118.167 24.333 -154.5 73s-54.5 94.334 -54.5 137.001c0 81.333 34.667 156.166 104 224.499s143 102.5 221 102.5c48.667 0 89.667 -13 123 -39c5.33301 -8.66699 8 -19.167 8 -31.5s-5.66699 -23.833 -17 -34.5
s-22.666 -16 -33.999 -16s-27.666 4.83301 -48.999 14.5s-41.166 14.5 -59.499 14.5s-40.166 -7 -65.499 -21s-48.333 -32 -69 -54c-45.333 -48 -68 -98.667 -68 -152s32 -90 96 -110c23.333 -6.66699 51.333 -10.334 84 -11.001c23.333 -6 35 -17.667 35 -35z" />
    <glyph glyph-name="ordfeminine" unicode="&#xaa;" horiz-adv-x="575" 
d="M465 1288c-39.333 -27.333 -84.165 -40.999 -134.498 -40.999s-91.666 16.333 -123.999 49s-48.5 82.334 -48.5 149.001s33 127.5 99 182.5s137.333 82.5 214 82.5h2c4 26.667 6 56.334 6 89.001c0 69.333 -34 104 -102 104c-52.667 0 -94.334 -15.667 -125.001 -47
c-9.33301 -10 -16.333 -21.333 -21 -34c-10 -26.667 -28.333 -40 -55 -40c-20.667 0 -32.334 13.667 -35.001 41c3.33301 11.333 6.5 23.666 9.5 36.999s9.5 25.333 19.5 36c22 26 56 49.333 102 70s86 31 120 31c63.333 0 109.333 -15.833 138 -47.5
s43 -74.334 43 -128.001s-7.83301 -121.834 -23.5 -204.501s-23.5 -139.5 -23.5 -170.5s3.16699 -53.5 9.5 -67.5s14.166 -24.833 23.499 -32.5s19.5 -13.167 30.5 -16.5s21.167 -6.66602 30.5 -9.99902c22 -6.66699 33 -19.834 33 -39.501s-13 -35.167 -39 -46.5
c-8 -3.33301 -16 -5 -24 -5c-55.333 0 -97 19.667 -125 59zM430.001 1394v52.002c0 26.667 8.33301 82.667 25 168h-15c-56 0 -101.667 -18.833 -137 -56.5s-53 -73.834 -53 -108.501c0 -68.667 30 -103 90 -103c44 0 74.667 8.66699 92 26
c-1.33301 7.33301 -2 14.666 -2 21.999z" />
    <glyph glyph-name="guillemotleft" unicode="&#xab;" horiz-adv-x="668" 
d="M281 494c-24.667 0 -36.998 9.33203 -36.998 27.999c0 9.33301 7 21.333 21 36c101.333 106 177.666 202.667 228.999 290c20.667 22 39.667 33 57 33s27.666 -5.66699 30.999 -17s0 -25.333 -10 -42c-77.333 -129.333 -141 -216.333 -191 -261
c48 -30 95.833 -75.333 143.5 -136s71.5 -101.667 71.5 -123s-7.16699 -39.166 -21.5 -53.499s-28.5 -21.5 -42.5 -21.5s-24.667 5 -32 15c-65.333 115.333 -138.333 199.333 -219 252zM287.002 318.999c0 -30 -17.001 -44.999 -51.001 -44.999
c-19.333 0 -38.666 12.667 -57.999 38c-68 87.333 -119.5 139.166 -154.5 155.499s-52.5 30.333 -52.5 42s3.66699 21.334 11 29.001s18.666 17.167 33.999 28.5c86 76.667 169.333 162.667 250 258c8 8 15 15.667 21 23s14 15.666 24 24.999s23.167 14 39.5 14
s24.5 -9 24.5 -27c-1.33301 -3.33301 -3.66602 -10 -6.99902 -20c-14 -38.667 -87.333 -128 -220 -268c-22.667 -24 -42.667 -44 -60 -60c26 -19.333 56 -46.5 90 -81.5s60.667 -59.667 80 -74s29 -26.833 29 -37.5z" />
    <glyph glyph-name="logicalnot" unicode="&#xac;" horiz-adv-x="991" 
d="M723 465c2 11.333 12.6631 44.1689 31.9961 98.502s35.333 95.833 48 124.5h-17c-79.333 0 -190.166 4 -332.499 12s-249.833 12.333 -322.5 13c-23.333 2 -35 10.667 -35 26c0 23.333 14.667 43 44 59c8 4.66699 16.667 7.66699 26 9c72.667 -0.666992 181 -5 325 -13
s255.333 -12 334 -12l68 2c20.667 0 31 -9.33301 31 -28c0 -10 -2 -18.333 -6 -25s-5.5 -10.834 -4.5 -12.501s-0.166992 -4.83398 -3.5 -9.50098l-11 -15.5c-4 -5.66699 -8.16699 -11.167 -12.5 -16.5s-8.16602 -12 -11.499 -20s-6.16602 -18 -8.49902 -30
s-7.16602 -23 -14.499 -33c-14 -52 -25.333 -86.333 -34 -103c-18 -36.667 -38.333 -55 -61 -55s-34 9.66699 -34 29z" />
    <glyph glyph-name="uni00AD" unicode="&#xad;" horiz-adv-x="870" 
d="M127 547c-24.667 0 -36.999 12.668 -36.999 38.001c0 21.333 11.667 37.666 35 48.999s52.333 17 87 17s78.167 -3.33301 130.5 -10s108.666 -10 168.999 -10s128.833 10.333 205.5 31h12c12.667 0 22 -3.16699 28 -9.5s9 -13.5 9 -21.5c0 -64 -136 -96 -408 -96
c-38 0 -74.667 2.66699 -110 8s-59.333 8 -72 8l-39 -6c-2.66699 0 -4 0.666992 -4 2h-6z" />
    <glyph glyph-name="registered" unicode="&#xae;" horiz-adv-x="1085" 
d="M1028 1796c92.667 -84.667 139.001 -189.5 139.001 -314.5s-61.833 -232.5 -185.5 -322.5s-258.834 -135 -405.501 -135c-50 0 -101 10.333 -153 31s-97.667 49.667 -137 87c-85.333 80 -128 178.667 -128 296c0 85.333 24.333 157 73 215
c121.333 139.333 251 233 389 281c54 18.667 101.167 28 141.5 28s70.833 -3 91.5 -9s40.5 -13.833 59.5 -23.5s37.5 -20.167 55.5 -31.5s36 -22 54 -32c14.667 -10 22 -22.167 22 -36.5s-5.33301 -25.5 -16 -33.5zM537.001 1214c-36 0 -54.001 100.665 -54.001 301.998
c0 91.333 11.667 165 35 221c15.333 21.333 33.666 32 54.999 32c12 6 20.667 9 26 9h12c9.33301 0 33.333 -2.66699 72 -8c126 -17.333 189 -62.666 189 -135.999c0 -67.333 -34 -112 -102 -134c-18.667 -6.66699 -45.667 -15 -81 -25s-59.666 -20.333 -72.999 -31
c88.667 -88.667 185.667 -133 291 -133h16c5.33301 0 11 0.666992 17 2c23.333 -6 35 -17.667 35 -35c0 -7.33301 -1.33301 -14.333 -4 -21c66.667 65.333 100 136 100 212s-25 144.333 -75 205s-82.333 109.667 -97 147c-52.667 27.333 -100.334 41 -143.001 41
c-79.333 0 -156.833 -19.333 -232.5 -58s-138.834 -90.167 -189.501 -154.5s-76 -132.666 -76 -204.999s33 -144.833 99 -217.5s155.333 -109 268 -109s214.334 35 305.001 105c-15.333 -4 -32.333 -6 -51 -6c-47.333 0 -99.666 15.167 -156.999 45.5
s-100.666 73.833 -129.999 130.5l4 -121c-2 -16.667 -9.33301 -30.5 -22 -41.5s-25 -16.5 -37 -16.5zM590 1679c-11.333 -40 -16.999 -84.3301 -16.999 -132.997v-33c19.333 10 40.666 19.167 63.999 27.5s52 19.166 86 32.499s51 27.666 51 42.999
c0 27.333 -15.833 44.666 -47.5 51.999s-77.167 11 -136.5 11z" />
    <glyph glyph-name="macron" unicode="&#xaf;" horiz-adv-x="1706" 
d="M1059 2318c22 -7.33301 33.001 -19 33.001 -35c0 -30 -18 -49.667 -54 -59c-28 -8 -95.833 -12 -203.5 -12s-183.5 1.5 -227.5 4.5s-82.333 12.5 -115 28.5c-8.66699 9.33301 -13 20 -13 32s6.16699 23.333 18.5 34s25.666 16 39.999 16s29.833 -2.5 46.5 -7.5
s33.667 -7.5 51 -7.5l61 2c82.667 -2.66699 140.5 -4 173.5 -4s96.167 2.66699 189.5 8z" />
    <glyph glyph-name="degree" unicode="&#xb0;" horiz-adv-x="483" 
d="M535 2064c104.667 -26 156.998 -71.332 156.998 -135.999c0 -60.667 -27.333 -114.834 -82 -162.501s-115.667 -71.5 -183 -71.5s-116 15.667 -146 47s-45 67 -45 107c0 74 19.333 137.5 58 190.5s84.834 79.5 138.501 79.5s87.834 -18 102.501 -54zM528.498 1982
c-46.333 26 -83.499 38.998 -111.499 38.998s-48.5 -11.667 -61.5 -35s-19.5 -51.666 -19.5 -84.999s7.83301 -61.166 23.5 -83.499s41.167 -33.5 76.5 -33.5s71.166 11.333 107.499 34s54.5 49.167 54.5 79.5s-23.167 58.5 -69.5 84.5z" />
    <glyph glyph-name="plusminus" unicode="&#xb1;" horiz-adv-x="864" 
d="M119 594c8 24 20.1689 41.332 36.502 51.999s28.5 16 36.5 16s14.333 -1.66699 19 -5c57.333 27.333 123.666 44 198.999 50h16c2.66699 20.667 6 39.667 10 57l13 61c2.66699 12.667 4 30.667 4 54v45c0 35.333 13 61.333 39 78c8 5.33301 17.333 8 28 8
c26 0 39 -21.333 39 -64c0 -22.667 -3.16699 -48 -9.5 -76s-11.5 -54.167 -15.5 -78.5s-9.33301 -51.166 -16 -80.499h14c24 0 52.333 -2.33301 85 -7l73 -10c16.667 -2.66699 34.667 -4 54 -4s40.333 1.33301 63 4c18 -6 27 -15 27 -27s-6.16699 -25.167 -18.5 -39.5
s-26.833 -23.5 -43.5 -27.5l-270 23c-20.667 -103.333 -31 -189.333 -31 -258v-29c-8.66699 -48 -31.334 -72 -68.001 -72c-22.667 0 -34 28 -34 84s13.667 147 41 273c-4 0 -13.5 -1.5 -28.5 -4.5l-46 -9l-59.5 -11.5l-48 -20c-24 -10 -48.167 -15 -72.5 -15
s-36.5 11 -36.5 33zM713.002 69.999l-297.002 12.001c-142 0 -252 -21.333 -330 -64c-8 -2.66699 -15.667 -4 -23 -4c-18.667 0 -28 9 -28 27c0 32.667 27.667 60.334 83 83.001c40.667 16.667 94.334 29.167 161.001 37.5s124.5 12.5 173.5 12.5s98.5 -1.33301 148.5 -4
s99 -4.66699 147 -6c17.333 -3.33301 26 -13.833 26 -31.5s-13 -34.834 -39 -51.501c-7.33301 -4.66699 -14.666 -8.33398 -21.999 -11.001z" />
    <glyph glyph-name="twosuperior" unicode="&#xb2;" horiz-adv-x="600" 
d="M63 1069c-28.667 0 -42.9951 17.332 -42.9951 51.999s22 72.334 66 113.001c18 16.667 37.833 30.5 59.5 41.5s38.667 16.5 51 16.5s21.833 -1.33301 28.5 -4c101.333 124 186 282.333 254 475c-38 -6.66699 -77 -28.334 -117 -65.001
c-3.33301 -15.333 -11.333 -29.166 -24 -41.499s-26.334 -18.5 -41.001 -18.5c-23.333 0 -35 15 -35 45s31.333 67 94 111c63.333 44 116.5 66 159.5 66s64.5 -22.667 64.5 -68s-55.333 -164.333 -166 -357c-38.667 -68 -81.667 -130.667 -129 -188
c13.333 -16.667 25.666 -34.167 36.999 -52.5s29.166 -35.333 53.499 -51s45.166 -23.5 62.499 -23.5s40.666 2 69.999 6c19.333 -6 29 -17 29 -33s-10.5 -30.5 -31.5 -43.5s-43.5 -19.5 -67.5 -19.5c-96 0 -175 42.333 -237 127c-63.333 -58.667 -109.333 -88 -138 -88z
" />
    <glyph glyph-name="threesuperior" unicode="&#xb3;" horiz-adv-x="569" 
d="M432 1880c109.333 0 164.002 -31.333 164.002 -94c0 -82 -63.333 -171.333 -190 -268c55.333 -26.667 83 -85 83 -175s-18 -167 -54 -231c-58 -102.667 -134.667 -184.334 -230 -245.001c-68.667 -44 -132 -66 -190 -66s-112.333 19 -163 57
c-64 47.333 -97.333 112.333 -100 195c2.66699 14.667 11.167 29.167 25.5 43.5s28.666 21.5 42.999 21.5s24.166 -7.33301 29.499 -22c2.66699 -126 66.667 -189 192 -189c32.667 0 70 9.16699 112 27.5s80.667 44.833 116 79.5c79.333 78 119 175.667 119 293
c0 80.667 -21.667 124.334 -65 131.001c-16 -2 -30 -3 -42 -3c-35.333 0 -53 9.16699 -53 27.5s23 43.5 69 75.5l64.5 44c23 15.333 44.333 31.666 64 48.999s36.167 35.833 49.5 55.5s20 40.834 20 63.501s-23.333 34 -70 34c-26 0 -47.5 -3.5 -64.5 -10.5
s-28.167 -10.5 -33.5 -10.5c-8.66699 -6.66699 -19 -10 -31 -10c-19.333 0 -29 8.33301 -29 25c0 30 19.5 54.5 58.5 73.5s74.167 28.5 105.5 28.5zM285.002 1442c4 0 7.33301 1.33301 10 4c-2 -1.33301 -3.83301 -2 -5.5 -2s-3.16699 -0.666992 -4.5 -2z" />
    <glyph glyph-name="acute" unicode="&#xb4;" horiz-adv-x="1706" 
d="M806 2107c-30.667 0 -46 15.667 -46 47c0 10 7.16699 25 21.5 45s30 45.167 47 75.5s33.167 61.333 48.5 93l45 94.5l45 92c15.333 20.667 32.333 31 51 31c24.667 0 37 -11.667 37 -35c0 -10.667 -5.16699 -25.667 -15.5 -45s-22.833 -44.833 -37.5 -76.5l-61 -127.5
c-26 -53.333 -55.667 -101.333 -89 -144c-2 -13.333 -8 -25 -18 -35s-19.333 -15 -28 -15z" />
    <glyph glyph-name="mu" unicode="&#xb5;" horiz-adv-x="932" 
d="M-152 -1133c-17.333 0 -26.0039 9.66797 -26.0039 29.001v12.5c0 6.33301 39.833 186 119.5 539s138.167 655.167 175.5 906.5c-1.33301 -2.66699 -3.16602 -12.334 -5.49902 -29.001s-4.16602 -26 -5.49902 -28l10 68.5c3.33301 23 7 45.833 11 68.5
c3.33301 151.333 26 331.666 68 540.999c9.33301 14.667 17.333 25 24 31c22 28.667 44.667 43 68 43c16 0 25.333 -11.667 28 -35c-20.667 -110 -50 -297.667 -88 -563v-57c0 -205.333 44.333 -308 133 -308c32 0 66.667 28.667 104 86
c15.333 22.667 28.5 45.334 39.5 68.001s31.333 62.334 61 119.001s63.5 139.667 101.5 249c4 33.333 7.83301 67.333 11.5 102s10 74 19 118s26 90.667 51 140s54.5 74 88.5 74c17.333 0 26 -10 26 -30c0 -6.66699 -6.16699 -39.334 -18.5 -98.001
s-38.166 -147.667 -77.499 -267l-6 -49l-46 -288.5c-16 -97 -28.667 -193.5 -38 -289.5c-2 -15.333 -10.5 -28.666 -25.5 -39.999s-29.833 -17 -44.5 -17s-24 9.66699 -28 29c6 91.333 16 182.666 30 273.999c-60.667 -119.333 -112.334 -193 -155.001 -221
c-55.333 -35.333 -104.666 -53 -147.999 -53c-62 0 -107 34 -135 102c-49.333 -248 -132.666 -637.667 -249.999 -1169c-5.33301 -16.667 -15.5 -30.5 -30.5 -41.5s-28.833 -16.5 -41.5 -16.5z" />
    <glyph glyph-name="paragraph" unicode="&#xb6;" horiz-adv-x="1098" 
d="M141 -395c-21.333 0 -31.999 11.3359 -31.999 34.0029s2.5 47.5 7.5 74.5s10.667 54.167 17 81.5s12.5 52.5 18.5 75.5s12.667 52.5 20 88.5l33 164l45.5 226.5l46.5 234.5l44 226.5l38.5 202.5l30.5 163c-86 0 -166.667 29.5 -242 88.5s-113 125.833 -113 200.5
c0 131.333 51.667 243.666 155 336.999c172.667 156 416.667 234 732 234c76.667 0 151.5 -3 224.5 -9s142.167 -11.333 207.5 -16c19.333 -5.33301 29 -16.5 29 -33.5s-13.667 -33.833 -41 -50.5c-7.33301 -4.66699 -15 -8 -23 -10c-58 2 -139 8 -243 18
c-64 -304.667 -133.333 -670.167 -208 -1096.5s-155.667 -819.833 -243 -1180.5c-6 -16.667 -16.333 -30.334 -31 -41.001s-28.334 -16 -41.001 -16c-17.333 0 -26 10 -26 30v6c0 2.66699 7.5 34.167 22.5 94.5s33.833 142.166 56.5 245.499c62.667 291.333 126 620 190 986
s126.667 692.333 188 979c-43.333 4 -95 6 -155 6s-127.333 -6.33301 -202 -19c-69.333 -342 -113 -562.333 -131 -661l29 6c17.333 -3.33301 26 -13 26 -29c0 -28 -23.667 -51 -71 -69c-40 -240 -126.667 -690 -260 -1350l-31 -154c0 -16 -7.16699 -31.167 -21.5 -45.5
s-29.833 -21.5 -46.5 -21.5zM422.001 1266c49.333 266 91 478.333 125 637c-96.667 -26.667 -188.167 -79.334 -274.5 -158.001s-129.5 -162 -129.5 -250c0 -111.333 61.667 -180.666 185 -207.999z" />
    <glyph glyph-name="periodcentered" unicode="&#xb7;" horiz-adv-x="909" 
d="M348.5 634c-15 32 -22.501 62.334 -22.501 91.001s4 49.5 12 62.5s22 26.667 42 41s46.5 21.5 79.5 21.5s63.333 -9.5 91 -28.5s41.5 -41.5 41.5 -67.5c0 -44.667 -18.667 -83.834 -56 -117.501s-74.166 -50.5 -110.499 -50.5s-62 16 -77 48z" />
    <glyph glyph-name="cedilla" unicode="&#xb8;" horiz-adv-x="1272" 
d="M502 -272c-24.667 0 -36.998 10.835 -36.998 32.502s9 42.834 27 63.501c17.333 32.667 33.666 66 48.999 100s33.666 65.333 54.999 94c12.667 11.333 26.334 17 41.001 17c24.667 0 37 -11 37 -33c0 -10.667 -4.16699 -22.334 -12.5 -35.001
s-21.833 -39.334 -40.5 -80.001c56 -2.66699 107.5 -29.334 154.5 -80.001s70.5 -103.667 70.5 -159s-23 -108.833 -69 -160.5s-111 -77.5 -195 -77.5c-36 0 -70.667 5.33301 -104 16c-64.667 22 -97 45.333 -97 70c0 13.333 5.66699 25.5 17 36.5s24.666 16.5 39.999 16.5
l15 -2c57.333 -28.667 106 -43 146 -43s75.167 12.333 105.5 37s45.5 52.5 45.5 83.5s-10 60.5 -30 88.5c-38 54.667 -76.667 82 -116 82c-22.667 0 -41 -14.333 -55 -43l-4 2c-16 -17.333 -30.333 -26 -43 -26z" />
    <glyph glyph-name="onesuperior" unicode="&#xb9;" horiz-adv-x="580" 
d="M332 1204c139.333 0 209.002 -14.334 209.002 -43.001c0 -14 -8 -28.333 -24 -43s-35 -22 -57 -22s-48 2.66699 -78 8s-70 8 -120 8s-97 -11 -141 -33c-8 -2.66699 -15.667 -4 -23 -4c-20 0 -30 9 -30 27c0 46 56.667 78 170 96c43.333 153.333 82 305 116 455
c-52 -52 -105 -83.333 -159 -94c-22 2 -33 10.667 -33 26c0 11.333 5 23.5 15 36.5s22.667 22.833 38 29.5c51.333 10.667 100.333 57.334 147 140.001c12 20.667 21.167 35.5 27.5 44.5s9.16602 14 8.49902 15s-0.333984 2.5 0.999023 4.5h4c21.333 30.667 43.333 46 66 46
c18 0 27 -11.667 27 -35c-56 -265.333 -111.333 -486 -166 -662h2z" />
    <glyph glyph-name="ordmasculine" unicode="&#xba;" horiz-adv-x="524" 
d="M608 1830c8.66699 -8 12.998 -18.999 12.998 -32.999s-10.333 -28 -31 -42c0 -258 -46.667 -445.667 -140 -563c-56.667 -71.333 -129 -107 -217 -107c-35.333 0 -66.666 16.833 -93.999 50.5s-41 71.167 -41 112.5c0 81.333 20.667 169 62 263s94 174.667 158 242
s128 103.666 192 108.999c40.667 0 73.334 -10.667 98.001 -32zM501.998 1765c-2 1.33301 -4.00098 2 -6.00098 2h-4c-79.333 -32 -149 -96 -209 -192s-90 -196.333 -90 -301c0 -40 10.333 -68 31 -84c8 -6.66699 22.833 -10 44.5 -10s45 8 70 24s51.333 43.667 79 83
s50.334 99.833 68.001 181.5s26.5 165.5 26.5 251.5z" />
    <glyph glyph-name="guillemotright" unicode="&#xbb;" horiz-adv-x="676" 
d="M-63 178c-24.667 2.66699 -37.0049 14.999 -37.0049 36.999c2 14.667 8.83301 28.167 20.5 40.5s23.834 20.166 36.501 23.499l31 30c7.33301 6.66699 17.833 17.334 31.5 32.001s57.834 50.167 132.501 106.5s112.667 88.166 114 95.499
c-10.667 15.333 -29.5 29.5 -56.5 42.5s-47.5 25.167 -61.5 36.5c-52 42 -78 104 -78 186c0 38 6.66699 66.167 20 84.5s30 27.5 50 27.5s29.333 -13.5 28 -40.5s-2 -50.167 -2 -69.5s5 -37.666 15 -54.999s22.667 -32.833 38 -46.5s31.833 -26 49.5 -37l64.5 -42
c25.333 -17 38 -34.167 38 -51.5s-6.66699 -34.5 -20 -51.5s-31.666 -35.833 -54.999 -56.5s-51.5 -43.667 -84.5 -69l-87.5 -69.5c-25.333 -21 -44.166 -38.667 -56.499 -53s-30.666 -33.666 -54.999 -57.999s-49.5 -38.5 -75.5 -42.5zM478.995 734.499
c12.667 -18.333 34.668 -45.001 66.001 -80.001s53.833 -55.833 67.5 -62.5s20.5 -16.167 20.5 -28.5s-6.33301 -24.833 -19 -37.5c-22.667 -22.667 -73.167 -54.334 -151.5 -95.001s-131.5 -80 -159.5 -118c-16 -16 -33.667 -24 -53 -24s-29 8.66699 -29 26
c0 10 2.66699 20.333 8 31c40.667 52 104.667 101.667 192 149l73 40c-67.333 56 -116 125 -146 207c-8.66699 23.333 -13 43.333 -13 60s5.5 33.334 16.5 50.001s27.5 25 49.5 25s33.167 -10 33.5 -30s4.66602 -39.167 12.999 -57.5s18.833 -36.666 31.5 -54.999z" />
    <glyph glyph-name="onequarter" unicode="&#xbc;" horiz-adv-x="1397" 
d="M150 -129c0 9.33301 8.16699 32.167 24.5 68.5l69.5 159.5c30 70 61.333 138.667 94 206l467 985l401 813h2c37.333 0 56 -10.667 56 -32c0 -12 -5.66699 -23.667 -17 -35c0 -1.33301 0.333008 -2 1 -2h1c0 -46 -36.333 -141.333 -109 -286l-39 -79
c-266 -532 -487.667 -992.667 -665 -1382l-188 -414c-11.333 -23.333 -30.5 -35 -57.5 -35s-40.5 11 -40.5 33zM1090 432.001c-114 -22 -191.331 -32.9961 -231.998 -32.9961s-61 11.667 -61 35s12.833 51.5 38.5 84.5l61.5 77c15.333 18.333 27.666 34.166 36.999 47.499
v-2l38 79c66.667 138.667 120.667 212 162 220c4.66699 1.33301 9.66699 2 15 2c22 0 33 -12.333 33 -37c0 -14.667 -5.66699 -28.334 -17 -41.001c-24 -16 -51.167 -58.667 -81.5 -128s-76.166 -144.666 -137.499 -225.999c-2.66699 -2.66699 -4 -4.66699 -4 -6
c17.333 2.66699 33.5 5 48.5 7l43.5 6c14 2 27.833 3.83301 41.5 5.5s28.5 4.16699 44.5 7.5c19.333 61.333 40 113.333 62 156c0 -2 -0.666992 -5 -2 -9c5.33301 17.333 11.666 39 18.999 65c32 112.667 70 169 114 169c22 0 33 -12.333 33 -37
c0 -18 -6.83301 -41.5 -20.5 -70.5s-24 -74 -31 -135s-16.5 -115.833 -28.5 -164.5c-11.333 -22.667 -33.333 -38.334 -66 -47.001c-44.667 -128.667 -87.667 -230.334 -129 -305.001v4c-24.667 -54.667 -38.167 -93.334 -40.5 -116.001s-9.83301 -39.5 -22.5 -50.5
s-25 -16.5 -37 -16.5c-20.667 0 -32.334 14.333 -35.001 43c5.33301 52 25.333 113.833 60 185.5s66 148.5 94 230.5zM446.002 1358c139.333 0 209.003 -14.333 209.003 -43c0 -14.667 -8 -29.334 -24 -44.001s-35 -22 -57 -22s-48 2.83301 -78 8.5s-69.167 8.5 -117.5 8.5
s-95.833 -11 -142.5 -33c-9.33301 -2.66699 -17 -4 -23 -4c-20.667 0 -31 8 -31 24c0 28 18 50.333 54 67c26.667 13.333 65.334 24 116.001 32c44.667 155.333 83.667 306.666 117 453.999c-52 -52 -105.333 -83.333 -160 -94c-22 2.66699 -33 11.667 -33 27
c0 11.333 5.16699 23.5 15.5 36.5s23.166 22.5 38.499 28.5c52.667 12.667 102 59.334 148 140.001c11.333 20.667 20.166 35.667 26.499 45s9.16602 14.5 8.49902 15.5s-0.333984 2.5 0.999023 4.5h4c21.333 30 43.333 45 66 45c17.333 0 26 -11.667 26 -35
c-56 -263.333 -111.333 -483.666 -166 -660.999h2z" />
    <glyph glyph-name="onehalf" unicode="&#xbd;" horiz-adv-x="1397" 
d="M150 -129c0 9.33301 8.16699 32.167 24.5 68.5l79 178.5c36.333 82.667 64.5 145 84.5 187l264 578c32 68.667 65.5 136.5 100.5 203.5l102.5 203.5l401 813h2c37.333 0 56 -10.667 56 -32c0 -12 -5.66699 -23.667 -17 -35c0 -1.33301 0.333008 -2 1 -2h1
c0 -46 -36.333 -141.333 -109 -286l-39 -79c-266 -532 -487.667 -992.667 -665 -1382l-188 -414c-11.333 -23.333 -30.5 -35 -57.5 -35s-40.5 11 -40.5 33zM782 59.001c-28.667 0 -43.001 17.5 -43.001 52.5s21.667 72.5 65 112.5c18.667 17.333 38.834 31.5 60.501 42.5
s38.667 16.5 51 16.5s21.833 -1.33301 28.5 -4c101.333 124 186 282.333 254 475c-37.333 -6.66699 -76.333 -28.667 -117 -66c-3.33301 -15.333 -11.5 -29 -24.5 -41s-26.5 -18 -40.5 -18c-23.333 0 -35 14.833 -35 44.5s31 66.5 93 110.5c64 44 119 66 165 66
c39.333 0 59 -21.333 59 -64c0 -32.667 -11.333 -71.334 -34 -116.001c-100.667 -200 -187.334 -344 -260.001 -432c6.66699 -8 13 -16.667 19 -26l18 -27c20.667 -29.333 49 -51.666 85 -66.999c10.667 -4.66699 22.834 -7 36.501 -7s35.167 2 64.5 6
c18.667 -6 28 -17.167 28 -33.5s-10.167 -31 -30.5 -44s-42.833 -19.5 -67.5 -19.5c-95.333 0 -174.333 42.333 -237 127c-63.333 -58.667 -109.333 -88 -138 -88zM445.999 1358c139.333 0 209.003 -14.333 209.003 -43c0 -14.667 -8 -29.334 -24 -44.001s-35 -22 -57 -22
s-48 2.83301 -78 8.5s-69.167 8.5 -117.5 8.5s-95.833 -11 -142.5 -33c-9.33301 -2.66699 -17 -4 -23 -4c-20.667 0 -31 8 -31 24c0 28 18 50.333 54 67c26.667 13.333 65.334 24 116.001 32c44.667 155.333 83.667 306.666 117 453.999c-52 -52 -105.333 -83.333 -160 -94
c-22 2.66699 -33 11.667 -33 27c0 11.333 5.16699 23.5 15.5 36.5s23.166 22.5 38.499 28.5c52.667 12.667 102 59.334 148 140.001c11.333 20.667 20.166 35.667 26.499 45s9.16602 14.5 8.49902 15.5s-0.333984 2.5 0.999023 4.5h4c21.333 30 43.333 45 66 45
c17.333 0 26 -11.667 26 -35c-56 -263.333 -111.333 -483.666 -166 -660.999h2z" />
    <glyph glyph-name="threequarters" unicode="&#xbe;" horiz-adv-x="1397" 
d="M150 -129c0 9.33301 8.16699 32.167 24.5 68.5l69.5 159.5c30 70 61.333 138.667 94 206l467 985l401 813h2c37.333 0 56 -10.667 56 -32c0 -12 -5.66699 -23.667 -17 -35c0 -1.33301 0.333008 -2 1 -2h1c0 -46 -36.333 -141.333 -109 -286l-39 -79
c-266 -532 -487.667 -992.667 -665 -1382l-188 -414c-11.333 -23.333 -30.5 -35 -57.5 -35s-40.5 11 -40.5 33zM731 1912c0 -86.667 -63.3359 -178.003 -190.003 -274.003c56 -26.667 84 -88 84 -184c0 -143.333 -65 -275.333 -195 -396
c-97.333 -90.667 -190.666 -136 -279.999 -136c-58 0 -115.5 21.333 -172.5 64s-87.167 105.334 -90.5 188.001c6.66699 28 22.334 48 47.001 60c8 3.33301 17.167 5 27.5 5s18.5 -7.33301 24.5 -22c1.33301 -61.333 18.333 -108.166 51 -140.499
s72.334 -48.5 119.001 -48.5c94 0 178.833 37.333 254.5 112s113.5 170.334 113.5 287.001c0 81.333 -21.667 125.333 -65 132c-19.333 -2.66699 -34 -4 -44 -4s-17.667 0.333008 -23 1c-18 1.33301 -27 11 -27 29s16.5 38.333 49.5 61l83.5 57
c22.667 15.333 44 31.666 64 48.999s36.5 35.833 49.5 55.5s19.5 40.834 19.5 63.501s-23.333 34 -70 34c-26 0 -47.5 -3.5 -64.5 -10.5s-28.167 -10.5 -33.5 -10.5c-8.66699 -6.66699 -19 -10 -31 -10c-19.333 0 -29 8.33301 -29 25c0 30 19.5 54.5 58.5 73.5
s80 28.5 123 28.5s78.167 -8 105.5 -24s41 -37.667 41 -65zM1090 431.998c-114 -22 -191.331 -32.9961 -231.998 -32.9961s-61 11.667 -61 35s12.833 51.5 38.5 84.5l61.5 77c15.333 18.333 27.666 34.166 36.999 47.499v-2l38 79c66.667 138.667 120.667 212 162 220
c4.66699 1.33301 9.66699 2 15 2c22 0 33 -12.333 33 -37c0 -14.667 -5.66699 -28.334 -17 -41.001c-24 -16 -51.167 -58.667 -81.5 -128s-76.166 -144.666 -137.499 -225.999c-2.66699 -2.66699 -4 -4.66699 -4 -6c17.333 2.66699 33.5 5 48.5 7l43.5 6
c14 2 27.833 3.83301 41.5 5.5s28.5 4.16699 44.5 7.5c19.333 61.333 40 113.333 62 156c0 -2 -0.666992 -5 -2 -9c5.33301 17.333 11.666 39 18.999 65c32 112.667 70 169 114 169c22 0 33 -12.333 33 -37c0 -18 -6.83301 -41.5 -20.5 -70.5s-24 -74 -31 -135
s-16.5 -115.833 -28.5 -164.5c-11.333 -22.667 -33.333 -38.334 -66 -47.001c-44.667 -128.667 -87.667 -230.334 -129 -305.001v4c-24.667 -54.667 -38.167 -93.334 -40.5 -116.001s-9.83301 -39.5 -22.5 -50.5s-25 -16.5 -37 -16.5c-20.667 0 -32.334 14.333 -35.001 43
c5.33301 52 25.333 113.833 60 185.5s66 148.5 94 230.5zM419.999 1563c4 0 7.33301 1.33301 10 4c-2 -1.33301 -3.83301 -2 -5.5 -2s-3.16699 -0.666992 -4.5 -2z" />
    <glyph glyph-name="questiondown" unicode="&#xbf;" horiz-adv-x="481" 
d="M461.011 -497.91c0 16.665 9.33203 25.001 27.998 25.001c60.6631 0 90.9941 -58.9961 90.9941 -176.988c0 -117.993 -56.3301 -211.321 -168.99 -279.984c-94.6611 -57.3301 -199.654 -85.9951 -314.98 -85.9951c-157.99 0 -264.317 72.6621 -318.98 217.987
c-19.332 52.6631 -28.998 110.659 -28.998 173.988s4 114.326 11.999 152.99c7.99902 38.665 19.165 74.4961 33.498 107.494c14.333 32.9971 31.165 63.8281 50.4971 92.4932s40.1641 57.6631 62.4961 86.9941l70.4961 90.9951
c63.3291 83.3281 114.159 166.323 152.49 248.984s72.1621 232.652 101.494 449.973c1.99902 16.666 9.33203 30.498 21.998 41.4971s24.665 16.499 35.998 16.499c21.999 0 34.332 -14.332 36.999 -42.9971c-33.998 -192.655 -59.9961 -320.147 -77.9951 -382.477
s-41.498 -119.159 -70.4961 -170.489s-84.4951 -134.658 -166.49 -249.985c-111.326 -159.323 -166.989 -298.981 -166.989 -418.975c0 -119.992 28.3311 -206.653 84.9941 -259.983c42.6641 -38.665 94.6611 -57.9971 155.991 -57.9971
c117.326 0 214.82 25.332 292.481 75.9961c77.6621 50.6631 116.493 117.992 116.493 201.987c0 14.666 -5.5 39.998 -16.499 75.9951c-10.999 35.998 -16.499 58.3301 -16.499 66.9961zM287.021 803.014c-47.9971 0 -71.9941 20.001 -71.9941 59.998
c0 18.665 4.66602 43.6631 13.999 74.9941c20.665 39.3311 46.6631 63.9961 77.9941 73.9951c41.9971 0 70.6621 -15.332 85.9951 -45.9971c5.33301 -10.666 7.99902 -29.332 7.99902 -55.9971s-13.166 -51.1631 -39.498 -73.4951
c-26.3311 -22.332 -51.1631 -33.498 -74.4951 -33.498z" />
    <glyph glyph-name="Agrave" unicode="&#xc0;" 
d="M211 653c52.667 -6.66699 141.331 -12.667 265.998 -18c115.333 174 263 430.333 443 769c112.667 212 185.667 394.667 219 548c5.33301 14 14 25.667 26 35s23.667 14 35 14c17.333 0 27 -10.333 29 -31c10.667 -10.667 15.5 -22.667 14.5 -36
s-5.16699 -23.666 -12.5 -30.999c-15.333 -54 -26.166 -110.5 -32.499 -169.5s-19.333 -168.167 -39 -327.5s-29.5 -293.333 -29.5 -402s8.33301 -240.667 25 -396c82 -8.66699 126.333 -17.667 133 -27s10 -19.666 10 -30.999s-6.16699 -22.833 -18.5 -34.5
s-25.666 -17 -39.999 -16s-26.833 2.33301 -37.5 4s-21.667 3.16699 -33 4.5v-10c0 -4 1.16699 -14.333 3.5 -31s3.66602 -39.667 3.99902 -69s1.66602 -55.5 3.99902 -78.5s6.16602 -46.833 11.499 -71.5l23.5 -106.5c10.333 -46.333 15.5 -76.833 15.5 -91.5
s-5.5 -27.667 -16.5 -39s-23.333 -17 -37 -17s-25.5 9.83301 -35.5 29.5s-18.333 44.834 -25 75.501s-12.167 65 -16.5 103s-8.16602 75.5 -11.499 112.5s-6.16602 71.333 -8.49902 103s-4.83301 56.5 -7.5 74.5l-6 28c-90.667 9.33301 -182.334 14.666 -275.001 15.999
s-185.334 3 -278.001 5c-176 -266.667 -342 -435.334 -498 -506.001c-52 -26 -92.667 -39 -122 -39c-36 0 -54 17 -54 51c0 17.333 6 32.333 18 45s24.5 19 37.5 19s23.167 -5.66699 30.5 -17l2 2c142.667 55.333 277.334 167.333 404.001 336l47 63
c12 15.333 23.667 31.333 35 48c-103.333 5.33301 -180.666 10.666 -231.999 15.999c-18.667 7.33301 -28 18.333 -28 33s5.83301 28 17.5 40s24.834 19 39.501 21zM1057 618c-11.333 89.333 -17.001 210.501 -17.001 363.501s14.333 338.5 43 556.5
c-80.667 -167.333 -170.167 -336.833 -268.5 -508.5s-177.166 -303.834 -236.499 -396.501c80 -1.33301 160.167 -2.5 240.5 -3.5s159.833 -4.83301 238.5 -11.5zM972.996 2494c0 17.333 5.83203 32.332 17.499 44.999s23.167 19 34.5 19c24 0 38 -11.667 42 -35
c14.667 -81.333 75.334 -190.666 182.001 -327.999c5.33301 -6.66699 8 -16.5 8 -29.5s-5.5 -25.333 -16.5 -37s-22.667 -17.5 -35 -17.5s-23.833 5 -34.5 15c-110.667 144 -176.667 266.667 -198 368z" />
    <glyph glyph-name="Aacute" unicode="&#xc1;" 
d="M211 653c52.667 -6.66699 141.331 -12.667 265.998 -18c115.333 174 263 430.333 443 769c112.667 212 185.667 394.667 219 548c5.33301 14 14 25.667 26 35s23.667 14 35 14c17.333 0 27 -10.333 29 -31c10.667 -10.667 15.5 -22.667 14.5 -36
s-5.16699 -23.666 -12.5 -30.999c-15.333 -54 -26.166 -110.5 -32.499 -169.5s-19.333 -168.167 -39 -327.5s-29.5 -293.333 -29.5 -402s8.33301 -240.667 25 -396c82 -8.66699 126.333 -17.667 133 -27s10 -19.666 10 -30.999s-6.16699 -22.833 -18.5 -34.5
s-25.666 -17 -39.999 -16s-26.833 2.33301 -37.5 4s-21.667 3.16699 -33 4.5v-10c0 -4 1.16699 -14.333 3.5 -31s3.66602 -39.667 3.99902 -69s1.66602 -55.5 3.99902 -78.5s6.16602 -46.833 11.499 -71.5l23.5 -106.5c10.333 -46.333 15.5 -76.833 15.5 -91.5
s-5.5 -27.667 -16.5 -39s-23.333 -17 -37 -17s-25.5 9.83301 -35.5 29.5s-18.333 44.834 -25 75.501s-12.167 65 -16.5 103s-8.16602 75.5 -11.499 112.5s-6.16602 71.333 -8.49902 103s-4.83301 56.5 -7.5 74.5l-6 28c-90.667 9.33301 -182.334 14.666 -275.001 15.999
s-185.334 3 -278.001 5c-176 -266.667 -342 -435.334 -498 -506.001c-52 -26 -92.667 -39 -122 -39c-36 0 -54 17 -54 51c0 17.333 6 32.333 18 45s24.5 19 37.5 19s23.167 -5.66699 30.5 -17l2 2c142.667 55.333 277.334 167.333 404.001 336l47 63
c12 15.333 23.667 31.333 35 48c-103.333 5.33301 -180.666 10.666 -231.999 15.999c-18.667 7.33301 -28 18.333 -28 33s5.83301 28 17.5 40s24.834 19 39.501 21zM1057 618c-11.333 89.333 -17.001 210.501 -17.001 363.501s14.333 338.5 43 556.5
c-80.667 -167.333 -170.167 -336.833 -268.5 -508.5s-177.166 -303.834 -236.499 -396.501c80 -1.33301 160.167 -2.5 240.5 -3.5s159.833 -4.83301 238.5 -11.5zM1218 2109c-30.667 0 -46 15.667 -46 47c0 10 7.16699 25 21.5 45s30 45.167 47 75.5s33.167 61.333 48.5 93
l45 94.5l45 92c15.333 20.667 32.333 31 51 31c24.667 0 37 -11.667 37 -35c0 -10.667 -5.16699 -25.667 -15.5 -45s-22.833 -44.833 -37.5 -76.5l-61 -127.5c-26 -53.333 -55.667 -101.333 -89 -144c-2 -13.333 -8 -25 -18 -35s-19.333 -15 -28 -15z" />
    <glyph glyph-name="Acircumflex" unicode="&#xc2;" 
d="M211 653c52.667 -6.66699 141.331 -12.667 265.998 -18c115.333 174 263 430.333 443 769c112.667 212 185.667 394.667 219 548c5.33301 14 14 25.667 26 35s23.667 14 35 14c17.333 0 27 -10.333 29 -31c10.667 -10.667 15.5 -22.667 14.5 -36
s-5.16699 -23.666 -12.5 -30.999c-15.333 -54 -26.166 -110.5 -32.499 -169.5s-19.333 -168.167 -39 -327.5s-29.5 -293.333 -29.5 -402s8.33301 -240.667 25 -396c82 -8.66699 126.333 -17.667 133 -27s10 -19.666 10 -30.999s-6.16699 -22.833 -18.5 -34.5
s-25.666 -17 -39.999 -16s-26.833 2.33301 -37.5 4s-21.667 3.16699 -33 4.5v-10c0 -4 1.16699 -14.333 3.5 -31s3.66602 -39.667 3.99902 -69s1.66602 -55.5 3.99902 -78.5s6.16602 -46.833 11.499 -71.5l23.5 -106.5c10.333 -46.333 15.5 -76.833 15.5 -91.5
s-5.5 -27.667 -16.5 -39s-23.333 -17 -37 -17s-25.5 9.83301 -35.5 29.5s-18.333 44.834 -25 75.501s-12.167 65 -16.5 103s-8.16602 75.5 -11.499 112.5s-6.16602 71.333 -8.49902 103s-4.83301 56.5 -7.5 74.5l-6 28c-90.667 9.33301 -182.334 14.666 -275.001 15.999
s-185.334 3 -278.001 5c-176 -266.667 -342 -435.334 -498 -506.001c-52 -26 -92.667 -39 -122 -39c-36 0 -54 17 -54 51c0 17.333 6 32.333 18 45s24.5 19 37.5 19s23.167 -5.66699 30.5 -17l2 2c142.667 55.333 277.334 167.333 404.001 336l47 63
c12 15.333 23.667 31.333 35 48c-103.333 5.33301 -180.666 10.666 -231.999 15.999c-18.667 7.33301 -28 18.333 -28 33s5.83301 28 17.5 40s24.834 19 39.501 21zM1057 618c-11.333 89.333 -17.001 210.501 -17.001 363.501s14.333 338.5 43 556.5
c-80.667 -167.333 -170.167 -336.833 -268.5 -508.5s-177.166 -303.834 -236.499 -396.501c80 -1.33301 160.167 -2.5 240.5 -3.5s159.833 -4.83301 238.5 -11.5zM1292 2435l-2 -24.999c0 -31.333 16 -75.833 48 -133.5s67.333 -99.834 106 -126.5
c5.33301 -8.66699 8 -19.167 8 -31.5s-5.66699 -23.833 -17 -34.5s-24.666 -16 -39.999 -16c-28.667 0 -62 25.667 -100 77s-67 105.666 -87 162.999c-5.33301 -8 -10 -16 -14 -24c-19.333 -38.667 -72 -105.667 -158 -201c-12 -8 -23.667 -12 -35 -12
c-24 0 -36 10.833 -36 32.5s24.167 60 72.5 115s80.166 96.167 95.499 123.5s29 50 41 68c29.333 42.667 56.333 64 81 64s37 -13 37 -39z" />
    <glyph glyph-name="Atilde" unicode="&#xc3;" 
d="M211 653c52.667 -6.66699 141.331 -12.667 265.998 -18c115.333 174 263 430.333 443 769c112.667 212 185.667 394.667 219 548c5.33301 14 14 25.667 26 35s23.667 14 35 14c17.333 0 27 -10.333 29 -31c10.667 -10.667 15.5 -22.667 14.5 -36
s-5.16699 -23.666 -12.5 -30.999c-15.333 -54 -26.166 -110.5 -32.499 -169.5s-19.333 -168.167 -39 -327.5s-29.5 -293.333 -29.5 -402s8.33301 -240.667 25 -396c82 -8.66699 126.333 -17.667 133 -27s10 -19.666 10 -30.999s-6.16699 -22.833 -18.5 -34.5
s-25.666 -17 -39.999 -16s-26.833 2.33301 -37.5 4s-21.667 3.16699 -33 4.5v-10c0 -4 1.16699 -14.333 3.5 -31s3.66602 -39.667 3.99902 -69s1.66602 -55.5 3.99902 -78.5s6.16602 -46.833 11.499 -71.5l23.5 -106.5c10.333 -46.333 15.5 -76.833 15.5 -91.5
s-5.5 -27.667 -16.5 -39s-23.333 -17 -37 -17s-25.5 9.83301 -35.5 29.5s-18.333 44.834 -25 75.501s-12.167 65 -16.5 103s-8.16602 75.5 -11.499 112.5s-6.16602 71.333 -8.49902 103s-4.83301 56.5 -7.5 74.5l-6 28c-90.667 9.33301 -182.334 14.666 -275.001 15.999
s-185.334 3 -278.001 5c-176 -266.667 -342 -435.334 -498 -506.001c-52 -26 -92.667 -39 -122 -39c-36 0 -54 17 -54 51c0 17.333 6 32.333 18 45s24.5 19 37.5 19s23.167 -5.66699 30.5 -17l2 2c142.667 55.333 277.334 167.333 404.001 336l47 63
c12 15.333 23.667 31.333 35 48c-103.333 5.33301 -180.666 10.666 -231.999 15.999c-18.667 7.33301 -28 18.333 -28 33s5.83301 28 17.5 40s24.834 19 39.501 21zM1057 618c-11.333 89.333 -17.001 210.501 -17.001 363.501s14.333 338.5 43 556.5
c-80.667 -167.333 -170.167 -336.833 -268.5 -508.5s-177.166 -303.834 -236.499 -396.501c80 -1.33301 160.167 -2.5 240.5 -3.5s159.833 -4.83301 238.5 -11.5zM1458 2392c27.333 0 41.001 -32.332 41.001 -96.999s-28.333 -108.667 -85 -132
c-21.333 -8.66699 -46.5 -13 -75.5 -13s-54.333 6.16699 -76 18.5s-42.334 25.666 -62.001 40l-56.5 40c-18 12.333 -34.667 18.5 -50 18.5c-32.667 0 -60.667 -24.667 -84 -74c-13.333 -16 -29 -24 -47 -24c-24.667 0 -37 11.667 -37 35c0 6.66699 1.33301 14 4 22
c46.667 92.667 98.334 139 155.001 139c30.667 0 67.667 -12.833 111 -38.5s77.166 -44.334 101.499 -56c24.333 -11.667 49.333 -17.5 75 -17.5s38.5 2.66699 38.5 8v12l-10 56c0 17.333 6 32.166 18 44.499s25 18.5 39 18.5z" />
    <glyph glyph-name="Adieresis" unicode="&#xc4;" 
d="M211 653c52.667 -6.66699 141.331 -12.667 265.998 -18c115.333 174 263 430.333 443 769c112.667 212 185.667 394.667 219 548c5.33301 14 14 25.667 26 35s23.667 14 35 14c17.333 0 27 -10.333 29 -31c10.667 -10.667 15.5 -22.667 14.5 -36
s-5.16699 -23.666 -12.5 -30.999c-15.333 -54 -26.166 -110.5 -32.499 -169.5s-19.333 -168.167 -39 -327.5s-29.5 -293.333 -29.5 -402s8.33301 -240.667 25 -396c82 -8.66699 126.333 -17.667 133 -27s10 -19.666 10 -30.999s-6.16699 -22.833 -18.5 -34.5
s-25.666 -17 -39.999 -16s-26.833 2.33301 -37.5 4s-21.667 3.16699 -33 4.5v-10c0 -4 1.16699 -14.333 3.5 -31s3.66602 -39.667 3.99902 -69s1.66602 -55.5 3.99902 -78.5s6.16602 -46.833 11.499 -71.5l23.5 -106.5c10.333 -46.333 15.5 -76.833 15.5 -91.5
s-5.5 -27.667 -16.5 -39s-23.333 -17 -37 -17s-25.5 9.83301 -35.5 29.5s-18.333 44.834 -25 75.501s-12.167 65 -16.5 103s-8.16602 75.5 -11.499 112.5s-6.16602 71.333 -8.49902 103s-4.83301 56.5 -7.5 74.5l-6 28c-90.667 9.33301 -182.334 14.666 -275.001 15.999
s-185.334 3 -278.001 5c-176 -266.667 -342 -435.334 -498 -506.001c-52 -26 -92.667 -39 -122 -39c-36 0 -54 17 -54 51c0 17.333 6 32.333 18 45s24.5 19 37.5 19s23.167 -5.66699 30.5 -17l2 2c142.667 55.333 277.334 167.333 404.001 336l47 63
c12 15.333 23.667 31.333 35 48c-103.333 5.33301 -180.666 10.666 -231.999 15.999c-18.667 7.33301 -28 18.333 -28 33s5.83301 28 17.5 40s24.834 19 39.501 21zM1057 618c-11.333 89.333 -17.001 210.501 -17.001 363.501s14.333 338.5 43 556.5
c-80.667 -167.333 -170.167 -336.833 -268.5 -508.5s-177.166 -303.834 -236.499 -396.501c80 -1.33301 160.167 -2.5 240.5 -3.5s159.833 -4.83301 238.5 -11.5zM1380 2174c-32.667 11.333 -49.001 33.499 -49.001 66.499s9 58.167 27 75.5
c32.667 31.333 58.334 47 77.001 47c42.667 0 64 -21 64 -63c0 -29.333 -10.667 -58.166 -32 -86.499s-44.666 -42.5 -69.999 -42.5c-4.66699 0 -10.334 1 -17.001 3zM1073 2347l0.000976562 2c22 -26 33 -49.5 33 -70.5s-15 -46.167 -45 -75.5s-54 -44 -72 -44
s-32 11.167 -42 33.5s-15 42.833 -15 61.5s2.5 34.667 7.5 48s11.667 25 20 35s17.833 18 28.5 24s23.667 9 39 9s30.666 -7.66699 45.999 -23z" />
    <glyph glyph-name="Aring" unicode="&#xc5;" 
d="M211 653c52.667 -6.66699 141.331 -12.667 265.998 -18c115.333 174 263 430.333 443 769c112.667 212 185.667 394.667 219 548c5.33301 14 14 25.667 26 35s23.667 14 35 14c17.333 0 27 -10.333 29 -31c10.667 -10.667 15.5 -22.667 14.5 -36
s-5.16699 -23.666 -12.5 -30.999c-15.333 -54 -26.166 -110.5 -32.499 -169.5s-19.333 -168.167 -39 -327.5s-29.5 -293.333 -29.5 -402s8.33301 -240.667 25 -396c82 -8.66699 126.333 -17.667 133 -27s10 -19.666 10 -30.999s-6.16699 -22.833 -18.5 -34.5
s-25.666 -17 -39.999 -16s-26.833 2.33301 -37.5 4s-21.667 3.16699 -33 4.5v-10c0 -4 1.16699 -14.333 3.5 -31s3.66602 -39.667 3.99902 -69s1.66602 -55.5 3.99902 -78.5s6.16602 -46.833 11.499 -71.5l23.5 -106.5c10.333 -46.333 15.5 -76.833 15.5 -91.5
s-5.5 -27.667 -16.5 -39s-23.333 -17 -37 -17s-25.5 9.83301 -35.5 29.5s-18.333 44.834 -25 75.501s-12.167 65 -16.5 103s-8.16602 75.5 -11.499 112.5s-6.16602 71.333 -8.49902 103s-4.83301 56.5 -7.5 74.5l-6 28c-90.667 9.33301 -182.334 14.666 -275.001 15.999
s-185.334 3 -278.001 5c-176 -266.667 -342 -435.334 -498 -506.001c-52 -26 -92.667 -39 -122 -39c-36 0 -54 17 -54 51c0 17.333 6 32.333 18 45s24.5 19 37.5 19s23.167 -5.66699 30.5 -17l2 2c142.667 55.333 277.334 167.333 404.001 336l47 63
c12 15.333 23.667 31.333 35 48c-103.333 5.33301 -180.666 10.666 -231.999 15.999c-18.667 7.33301 -28 18.333 -28 33s5.83301 28 17.5 40s24.834 19 39.501 21zM1057 618c-11.333 89.333 -17.001 210.501 -17.001 363.501s14.333 338.5 43 556.5
c-80.667 -167.333 -170.167 -336.833 -268.5 -508.5s-177.166 -303.834 -236.499 -396.501c80 -1.33301 160.167 -2.5 240.5 -3.5s159.833 -4.83301 238.5 -11.5zM1211 2408c5.33301 4.66699 13 7.00098 23 7.00098s18.667 -3 26 -9c73.333 -52 110 -112 110 -180
c0 -43.333 -15.5 -80.5 -46.5 -111.5s-70.5 -46.5 -118.5 -46.5c-76 0 -132.667 25.667 -170 77c-14 19.333 -21 42 -21 68s3.83301 50.667 11.5 74s18.5 44.666 32.5 64c14 19.333 30.667 35.166 50 47.499s38 18.5 56 18.5s33.667 -3 47 -9zM1215 2157
c39.333 0 59.001 20.333 59.001 61c0 22 -15.667 48.667 -47 80h-12c-11.333 0 -22 3.33301 -32 10s-20.667 10 -32 10s-21 -6.83301 -29 -20.5s-12 -32.5 -12 -56.5s12.167 -44 36.5 -60s47.166 -24 68.499 -24z" />
    <glyph glyph-name="AE" unicode="&#xc6;" horiz-adv-x="1878" 
d="M1898 1982c67.333 0 100.995 -11.332 100.995 -33.999c0 -14 -4.83301 -26.833 -14.5 -38.5s-21.167 -19.5 -34.5 -23.5h-138c-286.667 0 -483 -17.667 -589 -53l-15.5 -44c-5 -14 -14 -51.167 -27 -111.5s-33.167 -148.833 -60.5 -265.5l-82 -351
c39.333 -5.33301 87.666 -8 144.999 -8h126c162 0 264.333 1.33301 307 4c23.333 -6.66699 35 -17.667 35 -33c0 -28 -13.5 -46.333 -40.5 -55s-70.167 -13 -129.5 -13l-172 2h-33c-135.333 0 -221.333 3 -258 9c-26 -115.333 -43.333 -197 -52 -245l-18 -98
c213.333 -10.667 327.333 -26 342 -46c5.33301 -7.33301 8 -16.666 8 -27.999s-6.16699 -22.833 -18.5 -34.5s-27.166 -17.5 -44.499 -17.5c-83.333 16 -183.666 27 -300.999 33c-22.667 -146.667 -43.167 -248.5 -61.5 -305.5s-35.5 -101.5 -51.5 -133.5l791 -16
c68 0 115 1.33301 141 4c23.333 -6 35 -20.167 35 -42.5s-13 -37.166 -39 -44.499s-63 -11 -111 -11h-14c-102.667 0 -250.834 3.66699 -444.501 11s-310.5 11 -350.5 11l-69 -6c-23.333 0 -38.833 4.83301 -46.5 14.5s-11.5 18.834 -11.5 27.501s2.33301 16.667 7 24
s18.834 37.833 42.501 91.5s52.834 180.167 87.501 379.5l-325 6c-176 -266.667 -342 -435.334 -498 -506.001c-52 -26 -92.667 -39 -122 -39c-36 0 -54 17 -54 51c0 17.333 6 32.333 18 45s24.833 19 38.5 19s23.5 -5.66699 29.5 -17l2 2
c142.667 55.333 277.334 167.333 404.001 336l47 63c12 15.333 23.667 31.333 35 48c-103.333 5.33301 -180.666 10.666 -231.999 15.999c-18.667 7.33301 -28 18.333 -28 33s5.83301 28 17.5 40s24.834 19 39.501 21c52.667 -6.66699 141.334 -12.667 266.001 -18
c138.667 209.333 303.667 499.666 495 870.999c48.667 94 89.667 190.667 123 290c-9.33301 7.33301 -14 20 -14 38s14 35.667 42 53c3.33301 11.333 6.16602 22.166 8.49902 32.499s5.5 21.833 9.5 34.5s12 23.667 24 33s23.667 14 35 14c20.667 0 31 -16.333 31 -49l-1 -4
c4 -8 6.33301 -13.667 7 -17c133.333 34 335 51 605 51h56zM854.995 628.001c3.33301 16 6.5 31.999 9.5 47.999l9.5 49l60 285v6c0 8 2.66699 18.333 8 31l86 379c-177.333 -337.333 -327.333 -601.666 -450 -792.999z" />
    <glyph glyph-name="Ccedilla" unicode="&#xc7;" horiz-adv-x="1098" 
d="M501 -30l-22 -1.00098c-116 0 -214.667 56.667 -296 170s-122 263.666 -122 450.999c0 146.667 41.667 351.834 125 615.501s189.333 468.834 318 615.501c102.667 116 207.334 174 314.001 174s196.334 -44.5 269.001 -133.5s109 -179.833 109 -272.5
c-2 -14 -9 -27 -21 -39s-24 -18 -36 -18s-21 4 -27 12c-8.66699 12 -14.667 34 -18 66c-10.667 84.667 -41 153.5 -91 206.5s-112.333 79.5 -187 79.5s-154.334 -50.333 -239.001 -151c-112.667 -133.333 -209.334 -322.166 -290.001 -566.499s-121 -437.333 -121 -579
s24 -260.167 72 -355.5c58.667 -116 143.334 -174 254.001 -174c81.333 0 174.666 38 279.999 114l71 52c18 13.333 32.667 20 44 20c23.333 0 35 -12.333 35 -37c0 -18.667 -10.667 -35.667 -32 -51l-66 -47.5l-91 -63.5c-38 -26 -79 -47 -123 -63
c-1.33301 -8.66699 -5.66602 -18.334 -12.999 -29.001s-20.333 -36.667 -39 -78c56 -2.66699 107.5 -29.334 154.5 -80.001s70.5 -103.667 70.5 -159s-23 -108.833 -69 -160.5s-111 -77.5 -195 -77.5c-36 0 -70.333 5.33301 -103 16c-65.333 22 -98 45.333 -98 70
c0 13.333 5.66699 25.5 17 36.5s24.666 16.5 39.999 16.5l15 -2c57.333 -28.667 106 -43 146 -43s75.167 12.333 105.5 37s45.5 52.5 45.5 83.5s-9.66699 60.5 -29 88.5c-38.667 54.667 -77.667 82 -117 82c-22.667 0 -41 -14.333 -55 -43l-4 2
c-16 -17.333 -30.333 -26 -43 -26c-24.667 0 -37 10.833 -37 32.5s9 42.834 27 63.501c12.667 24 24.5 48.5 35.5 73.5s23.167 49.167 36.5 72.5z" />
    <glyph glyph-name="Egrave" unicode="&#xc8;" horiz-adv-x="1145" 
d="M504 1931c133.333 34 341.332 51.002 623.999 51.002c40 0 73 -2 99 -6s39 -14 39 -30c0 -23.333 -9.33301 -41.333 -28 -54c-6 -4 -13 -6 -21 -6h-138c-287.333 0 -484 -17.667 -590 -53c-26 -92 -57.167 -227.333 -93.5 -406s-62.5 -300.667 -78.5 -366
c44 -5.33301 137.333 -8 280 -8s238 1.33301 286 4c23.333 -6.66699 35 -17.667 35 -33c0 -27.333 -13.5 -45.5 -40.5 -54.5s-70.167 -13.5 -129.5 -13.5l-451 11c-23.333 -82.667 -56.666 -224.5 -99.999 -425.5s-79.666 -350.833 -108.999 -449.5l791 -16
c68 0 115 1.33301 141 4c23.333 -6.66699 35 -18 35 -34c0 -28 -15.333 -46.333 -46 -55c-20.667 -6 -61.5 -9 -122.5 -9s-130.667 1.16699 -209 3.5s-154 4.83301 -227 7.5l-202 7.5c-61.667 2.33301 -112.5 3.5 -152.5 3.5l-69 -6c-23.333 0 -38.833 4.83301 -46.5 14.5
s-11.5 18.834 -11.5 27.501s2.33301 16.667 7 24s10.667 19.166 18 35.499s15.666 38.166 24.999 65.499c17.333 51.333 35.5 118 54.5 200s55 249.667 108 503l199.5 922c-22 2 -33 15.167 -33 39.5s20 47.166 60 68.499c0 42.667 20.333 64 61 64
c20 0 31.667 -10.333 35 -31zM616.999 2496c0 17.333 5.83203 32.333 17.499 45s23.167 19 34.5 19c24 0 38 -11.667 42 -35c14.667 -81.333 75.334 -190.666 182.001 -328c5.33301 -6.66699 8 -16.5 8 -29.5s-5.5 -25.333 -16.5 -37s-22.667 -17.5 -35 -17.5
s-23.833 5 -34.5 15c-110.667 144 -176.667 266.667 -198 368z" />
    <glyph glyph-name="Eacute" unicode="&#xc9;" horiz-adv-x="1145" 
d="M504 1931c133.333 34 341.332 51.002 623.999 51.002c40 0 73 -2 99 -6s39 -14 39 -30c0 -23.333 -9.33301 -41.333 -28 -54c-6 -4 -13 -6 -21 -6h-138c-287.333 0 -484 -17.667 -590 -53c-26 -92 -57.167 -227.333 -93.5 -406s-62.5 -300.667 -78.5 -366
c44 -5.33301 137.333 -8 280 -8s238 1.33301 286 4c23.333 -6.66699 35 -17.667 35 -33c0 -27.333 -13.5 -45.5 -40.5 -54.5s-70.167 -13.5 -129.5 -13.5l-451 11c-23.333 -82.667 -56.666 -224.5 -99.999 -425.5s-79.666 -350.833 -108.999 -449.5l791 -16
c68 0 115 1.33301 141 4c23.333 -6.66699 35 -18 35 -34c0 -28 -15.333 -46.333 -46 -55c-20.667 -6 -61.5 -9 -122.5 -9s-130.667 1.16699 -209 3.5s-154 4.83301 -227 7.5l-202 7.5c-61.667 2.33301 -112.5 3.5 -152.5 3.5l-69 -6c-23.333 0 -38.833 4.83301 -46.5 14.5
s-11.5 18.834 -11.5 27.501s2.33301 16.667 7 24s10.667 19.166 18 35.499s15.666 38.166 24.999 65.499c17.333 51.333 35.5 118 54.5 200s55 249.667 108 503l199.5 922c-22 2 -33 15.167 -33 39.5s20 47.166 60 68.499c0 42.667 20.333 64 61 64
c20 0 31.667 -10.333 35 -31zM860.999 2113c-30.667 0 -46 15.667 -46 47c0 10 7.16699 25 21.5 45s30 45.167 47 75.5s33.167 61.333 48.5 93l45 94.5l45 92c15.333 20.667 32.333 31 51 31c24.667 0 37 -11.667 37 -35c0 -10.667 -5.16699 -25.667 -15.5 -45
s-22.833 -44.833 -37.5 -76.5l-61 -127.5c-26 -53.333 -55.667 -101.333 -89 -144c-2 -13.333 -8 -25 -18 -35s-19.333 -15 -28 -15z" />
    <glyph glyph-name="Ecircumflex" unicode="&#xca;" horiz-adv-x="1145" 
d="M504 1931c133.333 34 341.332 51.002 623.999 51.002c40 0 73 -2 99 -6s39 -14 39 -30c0 -23.333 -9.33301 -41.333 -28 -54c-6 -4 -13 -6 -21 -6h-138c-287.333 0 -484 -17.667 -590 -53c-26 -92 -57.167 -227.333 -93.5 -406s-62.5 -300.667 -78.5 -366
c44 -5.33301 137.333 -8 280 -8s238 1.33301 286 4c23.333 -6.66699 35 -17.667 35 -33c0 -27.333 -13.5 -45.5 -40.5 -54.5s-70.167 -13.5 -129.5 -13.5l-451 11c-23.333 -82.667 -56.666 -224.5 -99.999 -425.5s-79.666 -350.833 -108.999 -449.5l791 -16
c68 0 115 1.33301 141 4c23.333 -6.66699 35 -18 35 -34c0 -28 -15.333 -46.333 -46 -55c-20.667 -6 -61.5 -9 -122.5 -9s-130.667 1.16699 -209 3.5s-154 4.83301 -227 7.5l-202 7.5c-61.667 2.33301 -112.5 3.5 -152.5 3.5l-69 -6c-23.333 0 -38.833 4.83301 -46.5 14.5
s-11.5 18.834 -11.5 27.501s2.33301 16.667 7 24s10.667 19.166 18 35.499s15.666 38.166 24.999 65.499c17.333 51.333 35.5 118 54.5 200s55 249.667 108 503l199.5 922c-22 2 -33 15.167 -33 39.5s20 47.166 60 68.499c0 42.667 20.333 64 61 64
c20 0 31.667 -10.333 35 -31zM935.999 2439l-2 -25c0 -31.333 16 -75.833 48 -133.5s67.333 -99.834 106 -126.5c5.33301 -8.66699 8 -19.167 8 -31.5s-5.66699 -23.833 -17 -34.5s-24.666 -16 -39.999 -16c-28.667 0 -62 25.667 -100 77s-67 105.666 -87 163
c-5.33301 -8 -10 -16 -14 -24c-19.333 -38.667 -72 -105.667 -158 -201c-12 -8 -23.667 -12 -35 -12c-24 0 -36 10.833 -36 32.5s24.167 60 72.5 115s80.166 96.167 95.499 123.5s29 50 41 68c29.333 42.667 56.333 64 81 64s37 -13 37 -39z" />
    <glyph glyph-name="Edieresis" unicode="&#xcb;" horiz-adv-x="1145" 
d="M504 1931c133.333 34 341.332 51.002 623.999 51.002c40 0 73 -2 99 -6s39 -14 39 -30c0 -23.333 -9.33301 -41.333 -28 -54c-6 -4 -13 -6 -21 -6h-138c-287.333 0 -484 -17.667 -590 -53c-26 -92 -57.167 -227.333 -93.5 -406s-62.5 -300.667 -78.5 -366
c44 -5.33301 137.333 -8 280 -8s238 1.33301 286 4c23.333 -6.66699 35 -17.667 35 -33c0 -27.333 -13.5 -45.5 -40.5 -54.5s-70.167 -13.5 -129.5 -13.5l-451 11c-23.333 -82.667 -56.666 -224.5 -99.999 -425.5s-79.666 -350.833 -108.999 -449.5l791 -16
c68 0 115 1.33301 141 4c23.333 -6.66699 35 -18 35 -34c0 -28 -15.333 -46.333 -46 -55c-20.667 -6 -61.5 -9 -122.5 -9s-130.667 1.16699 -209 3.5s-154 4.83301 -227 7.5l-202 7.5c-61.667 2.33301 -112.5 3.5 -152.5 3.5l-69 -6c-23.333 0 -38.833 4.83301 -46.5 14.5
s-11.5 18.834 -11.5 27.501s2.33301 16.667 7 24s10.667 19.166 18 35.499s15.666 38.166 24.999 65.499c17.333 51.333 35.5 118 54.5 200s55 249.667 108 503l199.5 922c-22 2 -33 15.167 -33 39.5s20 47.166 60 68.499c0 42.667 20.333 64 61 64
c20 0 31.667 -10.333 35 -31zM1024 2178c-32.667 11.333 -49.001 33.5 -49.001 66.5s9 58.167 27 75.5c32.667 31.333 58.334 47 77.001 47c42.667 0 64 -21 64 -63c0 -29.333 -10.667 -58.166 -32 -86.5c-21.333 -28.333 -44.666 -42.5 -69.999 -42.5
c-4.66699 0 -10.334 1 -17.001 3zM716.998 2351l0.000976562 2c22 -26 33 -49.5 33 -70.5s-15 -46.167 -45 -75.5s-54 -44 -72 -44s-32 11.167 -42 33.5s-15 42.833 -15 61.5s2.5 34.667 7.5 48s11.667 25 20 35s17.833 18 28.5 24s23.667 9 39 9
s30.666 -7.66699 45.999 -23z" />
    <glyph glyph-name="Igrave" unicode="&#xcc;" horiz-adv-x="555" 
d="M315 1874c-26 0 -39.002 12.666 -39.002 37.999c0 11.333 6.33301 22.833 19 34.5s27.667 18.167 45 19.5h175c69.333 0 146 -0.666992 230 -2c20.667 -7.33301 31 -18 31 -32s-5.33301 -26.667 -16 -38s-23.667 -18.666 -39 -21.999h-65
c-18.667 0 -44.667 0.666992 -78 2c-197.333 -793.333 -332 -1387.33 -404 -1782c126 -3.33301 194.667 -16 206 -38c3.33301 -5.33301 5 -12.333 5 -21s-5.83301 -19.167 -17.5 -31.5s-25.5 -19.5 -41.5 -21.5c-37.333 0 -76.166 3 -116.499 9s-71.5 10.333 -93.5 13
s-48.667 4 -80 4s-64.333 -5.33301 -99 -16h-11c-14 0 -24.333 3.5 -31 10.5s-10 15.167 -10 24.5c0 46 64.333 69 193 69h8c56.667 304 128.334 640.333 215.001 1009l180 771c-10 -0.666992 -18.333 -1 -25 -1h-54zM360.998 2496c0 17.333 5.83203 32.332 17.499 44.999
s23.167 19 34.5 19c24 0 38 -11.667 42 -35c14.667 -81.333 75.334 -190.666 182.001 -327.999c5.33301 -6.66699 8 -16.5 8 -29.5s-5.5 -25.333 -16.5 -37s-22.667 -17.5 -35 -17.5s-23.833 5 -34.5 15c-110.667 144 -176.667 266.667 -198 368z" />
    <glyph glyph-name="Iacute" unicode="&#xcd;" horiz-adv-x="555" 
d="M315 1874c-26 0 -39.002 12.666 -39.002 37.999c0 11.333 6.33301 22.833 19 34.5s27.667 18.167 45 19.5h175c69.333 0 146 -0.666992 230 -2c20.667 -7.33301 31 -18 31 -32s-5.33301 -26.667 -16 -38s-23.667 -18.666 -39 -21.999h-65
c-18.667 0 -44.667 0.666992 -78 2c-197.333 -793.333 -332 -1387.33 -404 -1782c126 -3.33301 194.667 -16 206 -38c3.33301 -5.33301 5 -12.333 5 -21s-5.83301 -19.167 -17.5 -31.5s-25.5 -19.5 -41.5 -21.5c-37.333 0 -76.166 3 -116.499 9s-71.5 10.333 -93.5 13
s-48.667 4 -80 4s-64.333 -5.33301 -99 -16h-11c-14 0 -24.333 3.5 -31 10.5s-10 15.167 -10 24.5c0 46 64.333 69 193 69h8c56.667 304 128.334 640.333 215.001 1009l180 771c-10 -0.666992 -18.333 -1 -25 -1h-54zM606.998 2113c-30.667 0 -46 15.667 -46 47
c0 10 7.16699 25 21.5 45s30 45.167 47 75.5s33.167 61.333 48.5 93l45 94.5l45 92c15.333 20.667 32.333 31 51 31c24.667 0 37 -11.667 37 -35c0 -10.667 -5.16699 -25.667 -15.5 -45s-22.833 -44.833 -37.5 -76.5l-61 -127.5c-26 -53.333 -55.667 -101.333 -89 -144
c-2 -13.333 -8 -25 -18 -35s-19.333 -15 -28 -15z" />
    <glyph glyph-name="Icircumflex" unicode="&#xce;" horiz-adv-x="555" 
d="M315 1874c-26 0 -39.002 12.666 -39.002 37.999c0 11.333 6.33301 22.833 19 34.5s27.667 18.167 45 19.5h175c69.333 0 146 -0.666992 230 -2c20.667 -7.33301 31 -18 31 -32s-5.33301 -26.667 -16 -38s-23.667 -18.666 -39 -21.999h-65
c-18.667 0 -44.667 0.666992 -78 2c-197.333 -793.333 -332 -1387.33 -404 -1782c126 -3.33301 194.667 -16 206 -38c3.33301 -5.33301 5 -12.333 5 -21s-5.83301 -19.167 -17.5 -31.5s-25.5 -19.5 -41.5 -21.5c-37.333 0 -76.166 3 -116.499 9s-71.5 10.333 -93.5 13
s-48.667 4 -80 4s-64.333 -5.33301 -99 -16h-11c-14 0 -24.333 3.5 -31 10.5s-10 15.167 -10 24.5c0 46 64.333 69 193 69h8c56.667 304 128.334 640.333 215.001 1009l180 771c-10 -0.666992 -18.333 -1 -25 -1h-54zM681.998 2439l-2 -24.999
c0 -31.333 16 -75.833 48 -133.5s67.333 -99.834 106 -126.5c5.33301 -8.66699 8 -19.167 8 -31.5s-5.66699 -23.833 -17 -34.5s-24.666 -16 -39.999 -16c-28.667 0 -62 25.667 -100 77s-67 105.666 -87 162.999c-5.33301 -8 -10 -16 -14 -24
c-19.333 -38.667 -72 -105.667 -158 -201c-12 -8 -23.667 -12 -35 -12c-24 0 -36 10.833 -36 32.5s24.167 60 72.5 115s80.166 96.167 95.499 123.5s29 50 41 68c29.333 42.667 56.333 64 81 64s37 -13 37 -39z" />
    <glyph glyph-name="Idieresis" unicode="&#xcf;" horiz-adv-x="555" 
d="M315 1874c-26 0 -39.002 12.666 -39.002 37.999c0 11.333 6.33301 22.833 19 34.5s27.667 18.167 45 19.5h175c69.333 0 146 -0.666992 230 -2c20.667 -7.33301 31 -18 31 -32s-5.33301 -26.667 -16 -38s-23.667 -18.666 -39 -21.999h-65
c-18.667 0 -44.667 0.666992 -78 2c-197.333 -793.333 -332 -1387.33 -404 -1782c126 -3.33301 194.667 -16 206 -38c3.33301 -5.33301 5 -12.333 5 -21s-5.83301 -19.167 -17.5 -31.5s-25.5 -19.5 -41.5 -21.5c-37.333 0 -76.166 3 -116.499 9s-71.5 10.333 -93.5 13
s-48.667 4 -80 4s-64.333 -5.33301 -99 -16h-11c-14 0 -24.333 3.5 -31 10.5s-10 15.167 -10 24.5c0 46 64.333 69 193 69h8c56.667 304 128.334 640.333 215.001 1009l180 771c-10 -0.666992 -18.333 -1 -25 -1h-54zM769.998 2178
c-32.667 11.333 -49.001 33.499 -49.001 66.499s9 58.167 27 75.5c32.667 31.333 58.334 47 77.001 47c42.667 0 64 -21 64 -63c0 -29.333 -10.667 -58.166 -32 -86.499s-44.666 -42.5 -69.999 -42.5c-4.66699 0 -10.334 1 -17.001 3zM462.997 2351l0.000976562 2
c22 -26 33 -49.5 33 -70.5s-15 -46.167 -45 -75.5s-54 -44 -72 -44s-32 11.167 -42 33.5s-15 42.833 -15 61.5s2.5 34.667 7.5 48s11.667 25 20 35s17.833 18 28.5 24s23.667 9 39 9s30.666 -7.66699 45.999 -23z" />
    <glyph glyph-name="Eth" unicode="&#xd0;" horiz-adv-x="1370" 
d="M-489 469c3.33301 45.333 13.999 68.002 31.999 68.002c22.667 0 37.667 -8.33301 45 -25c24 -60.667 47.833 -116.334 71.5 -167.001s52.5 -95 86.5 -133c72.667 -81.333 177 -128 313 -140c8.66699 54.667 34.5 180.667 77.5 378s83.5 374.666 121.5 531.999l-70 -7
c-76 -9.33301 -130 -14 -162 -14s-54.167 0.5 -66.5 1.5s-24 2.5 -35 4.5s-20.333 4.33301 -28 7s-10.834 5.66699 -9.50098 9c-6.66699 8.66699 -10 19 -10 31s5.66699 23.5 17 34.5s23.166 16.5 35.499 16.5s21.5 -2 27.5 -6c6 0.666992 35.167 1 87.5 1s96.833 2 133.5 6
l103 11c72 294 145.667 546.667 221 758c-83.333 -28 -158.666 -63.333 -225.999 -106c-8.66699 -3.33301 -16 -5 -22 -5c-23.333 0 -35 12.333 -35 37c0 20 8.33301 35.667 25 47c99.333 61.333 198.333 106 297 134c12.667 17.333 25.834 26 39.501 26
s22.834 -3.33301 27.501 -10c64 14.667 135.833 22 215.5 22s153.834 -17 222.501 -51c194 -96.667 291 -311 291 -643c0 -389.333 -90.333 -698 -271 -926c-128.667 -161.333 -304 -272.666 -526 -333.999c-114 -30.667 -242 -46 -384 -46h-13
c-4.66699 -44.667 -15.334 -73 -32.001 -85c-7.33301 -5.33301 -17 -8 -29 -8c-26 0 -39 13.667 -39 41c0 13.333 1.33301 32.666 4 57.999c-189.333 22 -335 112 -437 270c-38 58.667 -71 129.667 -99 213zM1241 1262c0 413.333 -155.667 620.001 -467 620.001
c-64 0 -122 -6.66699 -174 -20c-81.333 -231.333 -157.666 -490.333 -228.999 -777c177.333 15.333 361.666 23 552.999 23c22.667 -6 34 -17.667 34 -35c0 -12 -4.83301 -23.833 -14.5 -35.5s-21.167 -19.5 -34.5 -23.5c-188 0 -375 -8 -561 -24
c-58.667 -242 -124 -549.333 -196 -922h6c232 0 429.5 54 592.5 162s285.5 252.667 367.5 434s123 380.666 123 597.999z" />
    <glyph glyph-name="Ntilde" unicode="&#xd1;" horiz-adv-x="1329" 
d="M439 1985c15.333 0 27.168 -4.66797 35.501 -14.001s14.833 -26.333 19.5 -51c22.667 -111.333 91.5 -386.666 206.5 -825.999s198.833 -751.333 251.5 -936c31.333 177.333 84.666 461.833 159.999 853.5l174 927.5c4.66699 14.667 14.5 26.667 29.5 36
s28.833 14 41.5 14s19.334 -4.16699 20.001 -12.5s1 -20.833 1 -37.5c-84.667 -408.667 -160 -799 -226 -1171l-115.5 -649.5c-11 -61 -18.167 -95 -21.5 -102s-9.83301 -15.333 -19.5 -25s-22.667 -14.5 -39 -14.5s-33.833 15.667 -52.5 47
c-18 32.667 -39.333 98.667 -64 198s-82.5 320.833 -173.5 664.5s-162.833 625.167 -215.5 844.5l-165.5 -788c-79 -382 -146.833 -689.667 -203.5 -923c-6 -26.667 -23.5 -40 -52.5 -40s-43.5 12.333 -43.5 37c0 8 23.167 107.5 69.5 298.5s115.166 510.167 206.499 957.5
s139.833 677.833 145.5 691.5s16.167 20.5 31.5 20.5zM1171 2396c27.333 0 41.001 -32.332 41.001 -96.999s-28.333 -108.667 -85 -132c-21.333 -8.66699 -46.5 -13 -75.5 -13s-54.333 6.16699 -76 18.5s-42.334 25.666 -62.001 40l-56.5 40
c-18 12.333 -34.667 18.5 -50 18.5c-32.667 0 -60.667 -24.667 -84 -74c-13.333 -16 -29 -24 -47 -24c-24.667 0 -37 11.667 -37 35c0 6.66699 1.33301 14 4 22c46.667 92.667 98.334 139 155.001 139c30.667 0 67.667 -12.833 111 -38.5s77.166 -44.334 101.499 -56
c24.333 -11.667 49.333 -17.5 75 -17.5s38.5 2.66699 38.5 8v12l-10 56c0 17.333 6 32.166 18 44.499s25 18.5 39 18.5z" />
    <glyph glyph-name="Ograve" unicode="&#xd2;" horiz-adv-x="1270" 
d="M426 -45c-243.333 0 -364.997 216.334 -364.997 649.001c0 292.667 56.333 562.667 169 810c122 270 281 405 477 405c76 0 147.667 -27.333 215 -82c12 -13.333 18 -27 18 -41c0 -32.667 -11 -49 -33 -49c-5.33301 0 -21 7 -47 21
c-60.667 33.333 -122.334 50 -185.001 50c-82 0 -164 -53.5 -246 -160.5s-148.333 -244.5 -199 -412.5s-76 -334 -76 -498c0 -316.667 58.667 -508.334 176 -575.001c28 -15.333 65.667 -23 113 -23s97 11.667 149 35c143.333 66 263.666 205.333 360.999 418
c61.333 134 108 276.667 140 428s48 297.833 48 439.5s-26.333 266.5 -79 374.5c-38 76 -87.333 122.667 -148 140c-30.667 8 -59.834 14.667 -87.501 20s-51.167 11.333 -70.5 18s-29 16.667 -29 30c0 25.333 17 40.333 51 45c267.333 0 417.333 -175 450 -525
c6 -59.333 9 -123.333 9 -192c0 -146.667 -19.833 -298.167 -59.5 -454.5s-96 -300.833 -169 -433.5s-159.333 -238.667 -259 -318s-207.5 -119 -323.5 -119zM648.003 2615c0 17.333 5.83203 32.332 17.499 44.999s23.167 19 34.5 19c24 0 38 -11.667 42 -35
c14.667 -81.333 75.334 -190.666 182.001 -327.999c5.33301 -6.66699 8 -16.5 8 -29.5s-5.5 -25.333 -16.5 -37s-22.667 -17.5 -35 -17.5s-23.833 5 -34.5 15c-110.667 144 -176.667 266.667 -198 368z" />
    <glyph glyph-name="Oacute" unicode="&#xd3;" horiz-adv-x="1270" 
d="M426 -45c-243.333 0 -364.997 216.334 -364.997 649.001c0 292.667 56.333 562.667 169 810c122 270 281 405 477 405c76 0 147.667 -27.333 215 -82c12 -13.333 18 -27 18 -41c0 -32.667 -11 -49 -33 -49c-5.33301 0 -21 7 -47 21
c-60.667 33.333 -122.334 50 -185.001 50c-82 0 -164 -53.5 -246 -160.5s-148.333 -244.5 -199 -412.5s-76 -334 -76 -498c0 -316.667 58.667 -508.334 176 -575.001c28 -15.333 65.667 -23 113 -23s97 11.667 149 35c143.333 66 263.666 205.333 360.999 418
c61.333 134 108 276.667 140 428s48 297.833 48 439.5s-26.333 266.5 -79 374.5c-38 76 -87.333 122.667 -148 140c-30.667 8 -59.834 14.667 -87.501 20s-51.167 11.333 -70.5 18s-29 16.667 -29 30c0 25.333 17 40.333 51 45c267.333 0 417.333 -175 450 -525
c6 -59.333 9 -123.333 9 -192c0 -146.667 -19.833 -298.167 -59.5 -454.5s-96 -300.833 -169 -433.5s-159.333 -238.667 -259 -318s-207.5 -119 -323.5 -119zM892.003 2232c-30.667 0 -46 15.667 -46 47c0 10 7.16699 25 21.5 45s30 45.167 47 75.5s33.167 61.333 48.5 93
l45 94.5l45 92c15.333 20.667 32.333 31 51 31c24.667 0 37 -11.667 37 -35c0 -10.667 -5.16699 -25.667 -15.5 -45s-22.833 -44.833 -37.5 -76.5l-61 -127.5c-26 -53.333 -55.667 -101.333 -89 -144c-2 -13.333 -8 -25 -18 -35s-19.333 -15 -28 -15z" />
    <glyph glyph-name="Ocircumflex" unicode="&#xd4;" horiz-adv-x="1270" 
d="M426 -45c-243.333 0 -364.997 216.334 -364.997 649.001c0 292.667 56.333 562.667 169 810c122 270 281 405 477 405c76 0 147.667 -27.333 215 -82c12 -13.333 18 -27 18 -41c0 -32.667 -11 -49 -33 -49c-5.33301 0 -21 7 -47 21
c-60.667 33.333 -122.334 50 -185.001 50c-82 0 -164 -53.5 -246 -160.5s-148.333 -244.5 -199 -412.5s-76 -334 -76 -498c0 -316.667 58.667 -508.334 176 -575.001c28 -15.333 65.667 -23 113 -23s97 11.667 149 35c143.333 66 263.666 205.333 360.999 418
c61.333 134 108 276.667 140 428s48 297.833 48 439.5s-26.333 266.5 -79 374.5c-38 76 -87.333 122.667 -148 140c-30.667 8 -59.834 14.667 -87.501 20s-51.167 11.333 -70.5 18s-29 16.667 -29 30c0 25.333 17 40.333 51 45c267.333 0 417.333 -175 450 -525
c6 -59.333 9 -123.333 9 -192c0 -146.667 -19.833 -298.167 -59.5 -454.5s-96 -300.833 -169 -433.5s-159.333 -238.667 -259 -318s-207.5 -119 -323.5 -119zM966.003 2558l-2 -24.999c0 -31.333 16 -75.833 48 -133.5s67.333 -99.834 106 -126.5
c5.33301 -8.66699 8 -19.167 8 -31.5s-5.66699 -23.833 -17 -34.5s-24.666 -16 -39.999 -16c-28.667 0 -62 25.667 -100 77s-67 105.666 -87 162.999c-5.33301 -8 -10 -16 -14 -24c-19.333 -38.667 -72 -105.667 -158 -201c-12 -8 -23.667 -12 -35 -12
c-24 0 -36 10.833 -36 32.5s24.167 60 72.5 115s80.166 96.167 95.499 123.5s29 50 41 68c29.333 42.667 56.333 64 81 64s37 -13 37 -39z" />
    <glyph glyph-name="Otilde" unicode="&#xd5;" horiz-adv-x="1270" 
d="M426 -45c-243.333 0 -364.997 216.334 -364.997 649.001c0 292.667 56.333 562.667 169 810c122 270 281 405 477 405c76 0 147.667 -27.333 215 -82c12 -13.333 18 -27 18 -41c0 -32.667 -11 -49 -33 -49c-5.33301 0 -21 7 -47 21
c-60.667 33.333 -122.334 50 -185.001 50c-82 0 -164 -53.5 -246 -160.5s-148.333 -244.5 -199 -412.5s-76 -334 -76 -498c0 -316.667 58.667 -508.334 176 -575.001c28 -15.333 65.667 -23 113 -23s97 11.667 149 35c143.333 66 263.666 205.333 360.999 418
c61.333 134 108 276.667 140 428s48 297.833 48 439.5s-26.333 266.5 -79 374.5c-38 76 -87.333 122.667 -148 140c-30.667 8 -59.834 14.667 -87.501 20s-51.167 11.333 -70.5 18s-29 16.667 -29 30c0 25.333 17 40.333 51 45c267.333 0 417.333 -175 450 -525
c6 -59.333 9 -123.333 9 -192c0 -146.667 -19.833 -298.167 -59.5 -454.5s-96 -300.833 -169 -433.5s-159.333 -238.667 -259 -318s-207.5 -119 -323.5 -119zM1132 2515c27.333 0 41.001 -32.332 41.001 -96.999s-28.333 -108.667 -85 -132
c-21.333 -8.66699 -46.5 -13 -75.5 -13s-54.333 6.16699 -76 18.5s-42.334 25.666 -62.001 40l-56.5 40c-18 12.333 -34.667 18.5 -50 18.5c-32.667 0 -60.667 -24.667 -84 -74c-13.333 -16 -29 -24 -47 -24c-24.667 0 -37 11.667 -37 35c0 6.66699 1.33301 14 4 22
c46.667 92.667 98.334 139 155.001 139c30.667 0 67.667 -12.833 111 -38.5s77.166 -44.334 101.499 -56c24.333 -11.667 49.333 -17.5 75 -17.5s38.5 2.66699 38.5 8v12l-10 56c0 17.333 6 32.166 18 44.499s25 18.5 39 18.5z" />
    <glyph glyph-name="Odieresis" unicode="&#xd6;" horiz-adv-x="1270" 
d="M426 -45c-243.333 0 -364.997 216.334 -364.997 649.001c0 292.667 56.333 562.667 169 810c122 270 281 405 477 405c76 0 147.667 -27.333 215 -82c12 -13.333 18 -27 18 -41c0 -32.667 -11 -49 -33 -49c-5.33301 0 -21 7 -47 21
c-60.667 33.333 -122.334 50 -185.001 50c-82 0 -164 -53.5 -246 -160.5s-148.333 -244.5 -199 -412.5s-76 -334 -76 -498c0 -316.667 58.667 -508.334 176 -575.001c28 -15.333 65.667 -23 113 -23s97 11.667 149 35c143.333 66 263.666 205.333 360.999 418
c61.333 134 108 276.667 140 428s48 297.833 48 439.5s-26.333 266.5 -79 374.5c-38 76 -87.333 122.667 -148 140c-30.667 8 -59.834 14.667 -87.501 20s-51.167 11.333 -70.5 18s-29 16.667 -29 30c0 25.333 17 40.333 51 45c267.333 0 417.333 -175 450 -525
c6 -59.333 9 -123.333 9 -192c0 -146.667 -19.833 -298.167 -59.5 -454.5s-96 -300.833 -169 -433.5s-159.333 -238.667 -259 -318s-207.5 -119 -323.5 -119zM1054 2297c-32.667 11.333 -49.001 33.499 -49.001 66.499s9 58.167 27 75.5c32.667 31.333 58.334 47 77.001 47
c42.667 0 64 -21 64 -63c0 -29.333 -10.667 -58.166 -32 -86.499s-44.666 -42.5 -69.999 -42.5c-4.66699 0 -10.334 1 -17.001 3zM747.002 2470l0.000976562 2c22 -26 33 -49.5 33 -70.5s-15 -46.167 -45 -75.5s-54 -44 -72 -44s-32 11.167 -42 33.5s-15 42.833 -15 61.5
s2.5 34.667 7.5 48s11.667 25 20 35s17.833 18 28.5 24s23.667 9 39 9s30.666 -7.66699 45.999 -23z" />
    <glyph glyph-name="multiply" unicode="&#xd7;" horiz-adv-x="745" 
d="M377 748c106.667 92.667 204.331 167.668 292.998 225.001c10 4 20.5 6 31.5 6s20.333 -4.5 28 -13.5s11.5 -20.667 11.5 -35s-7.33301 -28.833 -22 -43.5c-70.667 -44.667 -169.667 -118.334 -297 -221.001c46.667 -83.333 85 -140 115 -170s53.5 -50.5 70.5 -61.5
s25.5 -22.5 25.5 -34.5s-5.83301 -22.667 -17.5 -32s-23.5 -14 -35.5 -14s-20.333 1.33301 -25 4c-57.333 39.333 -110.666 99.333 -159.999 180l-41 70c-158.667 -130.667 -249.334 -199 -272.001 -205c-5.33301 -1.33301 -12.166 -2 -20.499 -2s-15.833 3.5 -22.5 10.5
s-10 18 -10 33s10.667 30.833 32 47.5c62.667 43.333 145.334 109.333 248.001 198l-60 93.5c-20.667 31 -38 64.167 -52 99.5v8c0 17.333 5.83301 32.5 17.5 45.5s22.167 19.5 31.5 19.5s19 -7.33301 29 -22s20.833 -32.667 32.5 -54l36 -68z" />
    <glyph glyph-name="Oslash" unicode="&#xd8;" horiz-adv-x="1270" 
d="M1043 1912c26.667 114 63.3369 173.998 110.004 179.998h10c20 0 30 -7.83301 30 -23.5s-10 -29.167 -30 -40.5c-15.333 -25.333 -26.5 -58.166 -33.5 -98.499s-12.167 -64.5 -15.5 -72.5s-5 -12.667 -5 -14c85.333 -118.667 128 -298.5 128 -539.5
s-44.167 -476.667 -132.5 -707s-204.5 -402.833 -348.5 -517.5c-104 -82.667 -214 -124 -330 -124c-67.333 0 -125.333 16.667 -174 50l-39 -87c-10 -19.333 -25.5 -29 -46.5 -29s-31.5 8.33301 -31.5 25c0 4 1.66699 9.33301 5 16l57 124
c-90.667 102 -136 292.333 -136 571s56.333 541.667 169 789c122 270 281 405 477 405c76 0 147.667 -27.333 215 -82c12 -13.333 18 -27 18 -41c0 -32.667 -11 -49 -33 -49c-5.33301 0 -21 7 -47 21c-60.667 33.333 -122.334 50 -185.001 50
c-82 0 -163.333 -53.5 -244 -160.5s-145.667 -244.5 -195 -412.5s-74 -334 -74 -498c0 -223.333 27.667 -384.666 83 -483.999l47 108.5l46.5 106.5l43 99.5l38.5 86.5l154 337c100.667 222.667 197.167 421 289.5 595s143.833 279.333 154.5 316
c-26.667 36 -58.334 59 -95.001 69s-68.834 17.667 -96.501 23s-51.167 11.333 -70.5 18s-29 16.667 -29 30c0 25.333 17 40.333 51 45c107.333 0 195.666 -28.333 264.999 -85zM295.003 98.998c36 -33.333 81.667 -50.001 137 -50.001c106.667 0 205 44 295 132
s165.5 200.333 226.5 337s107.5 279.834 139.5 429.501s48 293 48 430s-25.667 256.833 -77 359.5c-16 -36 -64.833 -134.667 -146.5 -296l-181.5 -365.5l-113 -242.5l-109.5 -243.5l-111 -249.5z" />
    <glyph glyph-name="Ugrave" unicode="&#xd9;" horiz-adv-x="1309" 
d="M1346 1968c24 0 36.001 -11.667 36.001 -35c0 -14 -7.33301 -38.5 -22 -73.5s-27 -70.5 -37 -106.5s-23.167 -89 -39.5 -159l-51 -225.5l-54.5 -248.5c-67.333 -316 -119 -528 -155 -636s-68.333 -189 -97 -243c-92 -174 -242 -261 -450 -261
c-112 0 -202.667 38.667 -272 116s-104 169.666 -104 276.999c0 46.667 5.66699 86.334 17 119.001l65.5 377.5l82 461c34.333 187.667 81.5 389.834 141.5 606.501c14 20.667 28.667 31 44 31c29.333 0 44 -11.667 44 -35c-1.33301 -8 -3.5 -16.167 -6.5 -24.5l-8.5 -24.5
l-39 -125c-29.333 -142 -66.5 -337.833 -111.5 -587.5s-80 -435.667 -105 -558s-37.5 -209.5 -37.5 -261.5c0 -78.667 25.333 -144.667 76 -198s122.334 -80 215.001 -80c145.333 0 253.666 44 324.999 132c39.333 48 68 98.667 86 152l44 129
c45.333 138 103.166 371.167 173.499 699.5s126.5 562.166 168.5 701.499c7.33301 24.667 18 44.167 32 58.5s27.333 21.5 40 21.5zM684.001 2496c0 17.333 5.83203 32.333 17.499 45s23.167 19 34.5 19c24 0 38 -11.667 42 -35
c14.667 -81.333 75.334 -190.666 182.001 -328c5.33301 -6.66699 8 -16.5 8 -29.5s-5.5 -25.333 -16.5 -37s-22.667 -17.5 -35 -17.5s-23.833 5 -34.5 15c-110.667 144 -176.667 266.667 -198 368z" />
    <glyph glyph-name="Uacute" unicode="&#xda;" horiz-adv-x="1309" 
d="M1346 1968c24 0 36.001 -11.667 36.001 -35c0 -14 -7.33301 -38.5 -22 -73.5s-27 -70.5 -37 -106.5s-23.167 -89 -39.5 -159l-51 -225.5l-54.5 -248.5c-67.333 -316 -119 -528 -155 -636s-68.333 -189 -97 -243c-92 -174 -242 -261 -450 -261
c-112 0 -202.667 38.667 -272 116s-104 169.666 -104 276.999c0 46.667 5.66699 86.334 17 119.001l65.5 377.5l82 461c34.333 187.667 81.5 389.834 141.5 606.501c14 20.667 28.667 31 44 31c29.333 0 44 -11.667 44 -35c-1.33301 -8 -3.5 -16.167 -6.5 -24.5l-8.5 -24.5
l-39 -125c-29.333 -142 -66.5 -337.833 -111.5 -587.5s-80 -435.667 -105 -558s-37.5 -209.5 -37.5 -261.5c0 -78.667 25.333 -144.667 76 -198s122.334 -80 215.001 -80c145.333 0 253.666 44 324.999 132c39.333 48 68 98.667 86 152l44 129
c45.333 138 103.166 371.167 173.499 699.5s126.5 562.166 168.5 701.499c7.33301 24.667 18 44.167 32 58.5s27.333 21.5 40 21.5zM929.001 2113c-30.667 0 -46 15.667 -46 47c0 10 7.16699 25 21.5 45s30 45.167 47 75.5s33.167 61.333 48.5 93l45 94.5l45 92
c15.333 20.667 32.333 31 51 31c24.667 0 37 -11.667 37 -35c0 -10.667 -5.16699 -25.667 -15.5 -45s-22.833 -44.833 -37.5 -76.5l-61 -127.5c-26 -53.333 -55.667 -101.333 -89 -144c-2 -13.333 -8 -25 -18 -35s-19.333 -15 -28 -15z" />
    <glyph glyph-name="Ucircumflex" unicode="&#xdb;" horiz-adv-x="1309" 
d="M1346 1968c24 0 36.001 -11.667 36.001 -35c0 -14 -7.33301 -38.5 -22 -73.5s-27 -70.5 -37 -106.5s-23.167 -89 -39.5 -159l-51 -225.5l-54.5 -248.5c-67.333 -316 -119 -528 -155 -636s-68.333 -189 -97 -243c-92 -174 -242 -261 -450 -261
c-112 0 -202.667 38.667 -272 116s-104 169.666 -104 276.999c0 46.667 5.66699 86.334 17 119.001l65.5 377.5l82 461c34.333 187.667 81.5 389.834 141.5 606.501c14 20.667 28.667 31 44 31c29.333 0 44 -11.667 44 -35c-1.33301 -8 -3.5 -16.167 -6.5 -24.5l-8.5 -24.5
l-39 -125c-29.333 -142 -66.5 -337.833 -111.5 -587.5s-80 -435.667 -105 -558s-37.5 -209.5 -37.5 -261.5c0 -78.667 25.333 -144.667 76 -198s122.334 -80 215.001 -80c145.333 0 253.666 44 324.999 132c39.333 48 68 98.667 86 152l44 129
c45.333 138 103.166 371.167 173.499 699.5s126.5 562.166 168.5 701.499c7.33301 24.667 18 44.167 32 58.5s27.333 21.5 40 21.5zM1003 2439l-2 -25c0 -31.333 16 -75.833 48 -133.5s67.333 -99.834 106 -126.5c5.33301 -8.66699 8 -19.167 8 -31.5
s-5.66699 -23.833 -17 -34.5s-24.666 -16 -39.999 -16c-28.667 0 -62 25.667 -100 77s-67 105.666 -87 163c-5.33301 -8 -10 -16 -14 -24c-19.333 -38.667 -72 -105.667 -158 -201c-12 -8 -23.667 -12 -35 -12c-24 0 -36 10.833 -36 32.5s24.167 60 72.5 115
s80.166 96.167 95.499 123.5s29 50 41 68c29.333 42.667 56.333 64 81 64s37 -13 37 -39z" />
    <glyph glyph-name="Udieresis" unicode="&#xdc;" horiz-adv-x="1309" 
d="M1346 1968c24 0 36.001 -11.667 36.001 -35c0 -14 -7.33301 -38.5 -22 -73.5s-27 -70.5 -37 -106.5s-23.167 -89 -39.5 -159l-51 -225.5l-54.5 -248.5c-67.333 -316 -119 -528 -155 -636s-68.333 -189 -97 -243c-92 -174 -242 -261 -450 -261
c-112 0 -202.667 38.667 -272 116s-104 169.666 -104 276.999c0 46.667 5.66699 86.334 17 119.001l65.5 377.5l82 461c34.333 187.667 81.5 389.834 141.5 606.501c14 20.667 28.667 31 44 31c29.333 0 44 -11.667 44 -35c-1.33301 -8 -3.5 -16.167 -6.5 -24.5l-8.5 -24.5
l-39 -125c-29.333 -142 -66.5 -337.833 -111.5 -587.5s-80 -435.667 -105 -558s-37.5 -209.5 -37.5 -261.5c0 -78.667 25.333 -144.667 76 -198s122.334 -80 215.001 -80c145.333 0 253.666 44 324.999 132c39.333 48 68 98.667 86 152l44 129
c45.333 138 103.166 371.167 173.499 699.5s126.5 562.166 168.5 701.499c7.33301 24.667 18 44.167 32 58.5s27.333 21.5 40 21.5zM1091 2178c-32.667 11.333 -49.001 33.5 -49.001 66.5s9 58.167 27 75.5c32.667 31.333 58.334 47 77.001 47c42.667 0 64 -21 64 -63
c0 -29.333 -10.667 -58.166 -32 -86.5c-21.333 -28.333 -44.666 -42.5 -69.999 -42.5c-4.66699 0 -10.334 1 -17.001 3zM784 2351l0.000976562 2c22 -26 33 -49.5 33 -70.5s-15 -46.167 -45 -75.5s-54 -44 -72 -44s-32 11.167 -42 33.5s-15 42.833 -15 61.5
s2.5 34.667 7.5 48s11.667 25 20 35s17.833 18 28.5 24s23.667 9 39 9s30.666 -7.66699 45.999 -23z" />
    <glyph glyph-name="Yacute" unicode="&#xdd;" horiz-adv-x="881" 
d="M172 -61c-4.66699 -11.333 -17.001 -16.9971 -37.001 -16.9971c-24.667 0 -37 12.333 -37 37c0 32.667 24 54.667 72 66l77.5 17.5c25 5.66699 50.5 11.167 76.5 16.5c31.333 87.333 53.333 170.166 66 248.499s22.334 143.666 29.001 195.999
s14.334 109.166 23.001 170.499c-58.667 76 -134 376 -226 900c-23.333 134.667 -41.333 249 -54 343c0 17.333 5 32.5 15 45.5s22.667 19.5 38 19.5s30.333 -6 45 -18c5.33301 -7.33301 8 -16.5 8 -27.5s-3.33301 -20.833 -10 -29.5l25 -182
c59.333 -437.333 128 -753 206 -947c30.667 68 80.667 192.5 150 373.5s136.166 335.667 200.499 464s139.5 244.5 225.5 348.5c8.66699 10.667 20.334 16 35.001 16c27.333 0 41 -11.333 41 -34c0 -14.667 -5.66699 -28.334 -17 -41.001
c-110.667 -118.667 -223.667 -325 -339 -619l-122.5 -319c-50.333 -133.333 -87.5 -223.666 -111.5 -270.999c-20.667 -80 -43 -184.333 -67 -313s-46 -231.667 -66 -309c34.667 4 68.667 6 102 6c132.667 0 199 -18.333 199 -55c0 -14.667 -6.83301 -27.667 -20.5 -39
s-28.834 -17 -45.501 -17c-42 11.333 -96.167 17 -162.5 17s-133 -8.16699 -200 -24.5s-104.5 -24.5 -112.5 -24.5h-6v2zM668.999 2113c-30.667 0 -46 15.667 -46 47c0 10 7.16699 25 21.5 45s30 45.167 47 75.5s33.167 61.333 48.5 93l45 94.5l45 92
c15.333 20.667 32.333 31 51 31c24.667 0 37 -11.667 37 -35c0 -10.667 -5.16699 -25.667 -15.5 -45s-22.833 -44.833 -37.5 -76.5l-61 -127.5c-26 -53.333 -55.667 -101.333 -89 -144c-2 -13.333 -8 -25 -18 -35s-19.333 -15 -28 -15z" />
    <glyph glyph-name="Thorn" unicode="&#xde;" horiz-adv-x="1286" 
d="M584 2327c24.667 0 36.998 -11 36.998 -33c0 -8 -1 -14.333 -3 -19l-6 -22c0 -47.333 -7.66699 -100.166 -23 -158.5l-37.5 -142.5c-9.66699 -36.667 -17.5 -75 -23.5 -115c121.333 105.333 232 158 332 158c204 0 343.333 -112.333 418 -337c30 -91.333 45 -194 45 -308
c0 -224 -44.333 -399.5 -133 -526.5s-216.667 -215.5 -384 -265.5c-143.333 -44 -330.666 -66 -561.999 -66l-103 -472c-5.33301 -16 -15.166 -29.167 -29.499 -39.5s-27.5 -15.5 -39.5 -15.5c-16.667 0 -25 9 -25 27v6c0 2 0.666992 4.66699 2 8l459 2204
c5.33301 21.333 8 40 8 56s7.5 30.167 22.5 42.5s30.167 18.5 45.5 18.5zM261.998 584c202.667 0 351.332 11.834 445.999 35.501s172 52.5 232 86.5c195.333 109.333 293 317.666 293 624.999c0 271.333 -63.333 445.666 -190 522.999c-48 29.333 -111.833 44 -191.5 44
s-169.167 -32 -268.5 -96c-29.333 -19.333 -53.666 -39.666 -72.999 -60.999z" />
    <glyph glyph-name="germandbls" unicode="&#xdf;" horiz-adv-x="981" 
d="M463 1057c-23.333 2 -34.9951 11.334 -34.9951 28.001c0 20 12.333 39.333 37 58l31 16l2 12h16c104 69.333 219.667 175.333 347 318c78.667 88 132 158 160 210s42 88.333 42 109s-6.33301 39.167 -19 55.5s-28.334 24.5 -47.001 24.5
c-199.333 0 -369.333 -180 -510 -540c-134 -341.333 -245.667 -726 -335 -1154c-42.667 -202.667 -81.834 -402.334 -117.501 -599.001l-83.5 -455c-5.33301 -16.667 -15.5 -30.5 -30.5 -41.5s-28.833 -16.5 -41.5 -16.5c-17.333 0 -26 9.66699 -26 29v7c0 2 7 41 21 117
l59.5 335.5c25.667 147.667 51.167 280 76.5 397l89 391.5c86 366 162.5 638 229.5 816s118.833 304.333 155.5 379c139.333 284 318.666 426 537.999 426c96.667 0 145 -38.667 145 -116c0 -65.333 -58.667 -174.5 -176 -327.5s-239.333 -280.167 -366 -381.5
c94 -24.667 162.167 -74.167 204.5 -148.5s63.5 -149.166 63.5 -224.499c0 -318 -75.333 -547.333 -226 -688c-78.667 -73.333 -179.334 -110 -302.001 -110c-40.667 0 -76.667 9.33301 -108 28c-60.667 36 -91 72.5 -91 109.5s13.333 62.5 40 76.5
c8.66699 4.66699 18 7 28 7s18.667 -2.66699 26 -8l22 -44c6.66699 -14 14.667 -26.667 24 -38c20 -24.667 52.667 -37 98 -37c92.667 0 168.167 33.167 226.5 99.5s98.166 148.833 119.499 247.5s32 186.167 32 262.5s-3.33301 134.166 -10 173.499s-17.5 74 -32.5 104
s-34.5 54.167 -58.5 72.5s-51.167 27.5 -81.5 27.5s-75.833 -2.66699 -136.5 -8z" />
    <glyph glyph-name="agrave" unicode="&#xe0;" horiz-adv-x="920" 
d="M150 0c-78 0 -117 49.002 -117 147.002s36.5 218.167 109.5 360.5s158.833 265.333 257.5 369s179.167 155.5 241.5 155.5s97.833 -27.333 106.5 -82c2.66699 -16.667 4.66699 -34.334 6 -53.001c6 4 13.333 6 22 6c31.333 0 47 -15 47 -45v-8c0 -2 -8.33301 -32 -25 -90
s-35.667 -154.667 -57 -290s-32 -251 -32 -347l21 -13.5c8 -5 18 -12.667 30 -23s18 -22.5 18 -36.5s-4.33301 -26.5 -13 -37.5s-21 -16.5 -37 -16.5c-32.667 0 -62.167 16.667 -88.5 50s-39.5 69.333 -39.5 108c0 83.333 22.667 226.666 68 429.999
c-56.667 -118.667 -130 -233 -220 -343s-152.167 -177.667 -186.5 -203s-71.5 -38 -111.5 -38zM135 143.002c0 -24.667 10.333 -37.001 31 -37.001c14.667 0 27 5 37 15c138 118.667 261.667 283 371 493c62 120 94.833 189 98.5 207s5.5 33.333 5.5 46
s-3.33301 24.667 -10 36s-16 17 -28 17s-29.667 -6.33301 -53 -19c-51.333 -28 -114.5 -87.667 -189.5 -179s-137.5 -190.666 -187.5 -297.999s-75 -201 -75 -281zM445 1581c0 17.333 5.83203 32.332 17.499 44.999s23.167 19 34.5 19c24 0 38 -11.667 42 -35
c14.667 -81.333 75.334 -190.666 182.001 -327.999c5.33301 -6.66699 8 -16.5 8 -29.5s-5.5 -25.333 -16.5 -37s-22.667 -17.5 -35 -17.5s-23.833 5 -34.5 15c-110.667 144 -176.667 266.667 -198 368z" />
    <glyph glyph-name="aacute" unicode="&#xe1;" horiz-adv-x="920" 
d="M150 0c-78 0 -117 49.002 -117 147.002s36.5 218.167 109.5 360.5s158.833 265.333 257.5 369s179.167 155.5 241.5 155.5s97.833 -27.333 106.5 -82c2.66699 -16.667 4.66699 -34.334 6 -53.001c6 4 13.333 6 22 6c31.333 0 47 -15 47 -45v-8c0 -2 -8.33301 -32 -25 -90
s-35.667 -154.667 -57 -290s-32 -251 -32 -347l21 -13.5c8 -5 18 -12.667 30 -23s18 -22.5 18 -36.5s-4.33301 -26.5 -13 -37.5s-21 -16.5 -37 -16.5c-32.667 0 -62.167 16.667 -88.5 50s-39.5 69.333 -39.5 108c0 83.333 22.667 226.666 68 429.999
c-56.667 -118.667 -130 -233 -220 -343s-152.167 -177.667 -186.5 -203s-71.5 -38 -111.5 -38zM135 143.002c0 -24.667 10.333 -37.001 31 -37.001c14.667 0 27 5 37 15c138 118.667 261.667 283 371 493c62 120 94.833 189 98.5 207s5.5 33.333 5.5 46
s-3.33301 24.667 -10 36s-16 17 -28 17s-29.667 -6.33301 -53 -19c-51.333 -28 -114.5 -87.667 -189.5 -179s-137.5 -190.666 -187.5 -297.999s-75 -201 -75 -281zM691 1198c-30.667 0 -46 15.667 -46 47c0 10 7.16699 25 21.5 45s30 45.167 47 75.5s33.167 61.333 48.5 93
l45 94.5l45 92c15.333 20.667 32.333 31 51 31c24.667 0 37 -11.667 37 -35c0 -10.667 -5.16699 -25.667 -15.5 -45s-22.833 -44.833 -37.5 -76.5l-61 -127.5c-26 -53.333 -55.667 -101.333 -89 -144c-2 -13.333 -8 -25 -18 -35s-19.333 -15 -28 -15z" />
    <glyph glyph-name="acircumflex" unicode="&#xe2;" horiz-adv-x="920" 
d="M150 0c-78 0 -117 49.002 -117 147.002s36.5 218.167 109.5 360.5s158.833 265.333 257.5 369s179.167 155.5 241.5 155.5s97.833 -27.333 106.5 -82c2.66699 -16.667 4.66699 -34.334 6 -53.001c6 4 13.333 6 22 6c31.333 0 47 -15 47 -45v-8c0 -2 -8.33301 -32 -25 -90
s-35.667 -154.667 -57 -290s-32 -251 -32 -347l21 -13.5c8 -5 18 -12.667 30 -23s18 -22.5 18 -36.5s-4.33301 -26.5 -13 -37.5s-21 -16.5 -37 -16.5c-32.667 0 -62.167 16.667 -88.5 50s-39.5 69.333 -39.5 108c0 83.333 22.667 226.666 68 429.999
c-56.667 -118.667 -130 -233 -220 -343s-152.167 -177.667 -186.5 -203s-71.5 -38 -111.5 -38zM135 143.002c0 -24.667 10.333 -37.001 31 -37.001c14.667 0 27 5 37 15c138 118.667 261.667 283 371 493c62 120 94.833 189 98.5 207s5.5 33.333 5.5 46
s-3.33301 24.667 -10 36s-16 17 -28 17s-29.667 -6.33301 -53 -19c-51.333 -28 -114.5 -87.667 -189.5 -179s-137.5 -190.666 -187.5 -297.999s-75 -201 -75 -281zM766 1524l-2 -24.998c0 -31.333 16 -75.833 48 -133.5s67.333 -99.834 106 -126.501
c5.33301 -8.66699 8 -19.167 8 -31.5s-5.66699 -23.833 -17 -34.5s-24.666 -16 -39.999 -16c-28.667 0 -62 25.667 -100 77s-67 105.666 -87 162.999c-5.33301 -8 -10 -16 -14 -24c-19.333 -38.667 -72 -105.667 -158 -201c-12 -8 -23.667 -12 -35 -12
c-24 0 -36 10.833 -36 32.5s24.167 60 72.5 115s80.166 96.167 95.499 123.5s29 50 41 68c29.333 42.667 56.333 64 81 64s37 -13 37 -39z" />
    <glyph glyph-name="atilde" unicode="&#xe3;" horiz-adv-x="920" 
d="M150 0c-78 0 -117 49.002 -117 147.002s36.5 218.167 109.5 360.5s158.833 265.333 257.5 369s179.167 155.5 241.5 155.5s97.833 -27.333 106.5 -82c2.66699 -16.667 4.66699 -34.334 6 -53.001c6 4 13.333 6 22 6c31.333 0 47 -15 47 -45v-8c0 -2 -8.33301 -32 -25 -90
s-35.667 -154.667 -57 -290s-32 -251 -32 -347l21 -13.5c8 -5 18 -12.667 30 -23s18 -22.5 18 -36.5s-4.33301 -26.5 -13 -37.5s-21 -16.5 -37 -16.5c-32.667 0 -62.167 16.667 -88.5 50s-39.5 69.333 -39.5 108c0 83.333 22.667 226.666 68 429.999
c-56.667 -118.667 -130 -233 -220 -343s-152.167 -177.667 -186.5 -203s-71.5 -38 -111.5 -38zM135 143.002c0 -24.667 10.333 -37.001 31 -37.001c14.667 0 27 5 37 15c138 118.667 261.667 283 371 493c62 120 94.833 189 98.5 207s5.5 33.333 5.5 46
s-3.33301 24.667 -10 36s-16 17 -28 17s-29.667 -6.33301 -53 -19c-51.333 -28 -114.5 -87.667 -189.5 -179s-137.5 -190.666 -187.5 -297.999s-75 -201 -75 -281zM932 1481c27.333 0 41.001 -32.3301 41.001 -96.9971s-28.333 -108.667 -85 -132
c-21.333 -8.66699 -46.5 -13 -75.5 -13s-54.333 6.16699 -76 18.5s-42.334 25.666 -62.001 39.999l-56.5 40c-18 12.333 -34.667 18.5 -50 18.5c-32.667 0 -60.667 -24.667 -84 -74c-13.333 -16 -29 -24 -47 -24c-24.667 0 -37 11.667 -37 35c0 6.66699 1.33301 14 4 22
c46.667 92.667 98.334 139 155.001 139c30.667 0 67.667 -12.833 111 -38.5s77.166 -44.334 101.499 -56.001s49.333 -17.5 75 -17.5s38.5 2.66699 38.5 8v12l-10 56c0 17.333 6 32.166 18 44.499s25 18.5 39 18.5z" />
    <glyph glyph-name="adieresis" unicode="&#xe4;" horiz-adv-x="920" 
d="M150 0c-78 0 -117 49.002 -117 147.002s36.5 218.167 109.5 360.5s158.833 265.333 257.5 369s179.167 155.5 241.5 155.5s97.833 -27.333 106.5 -82c2.66699 -16.667 4.66699 -34.334 6 -53.001c6 4 13.333 6 22 6c31.333 0 47 -15 47 -45v-8c0 -2 -8.33301 -32 -25 -90
s-35.667 -154.667 -57 -290s-32 -251 -32 -347l21 -13.5c8 -5 18 -12.667 30 -23s18 -22.5 18 -36.5s-4.33301 -26.5 -13 -37.5s-21 -16.5 -37 -16.5c-32.667 0 -62.167 16.667 -88.5 50s-39.5 69.333 -39.5 108c0 83.333 22.667 226.666 68 429.999
c-56.667 -118.667 -130 -233 -220 -343s-152.167 -177.667 -186.5 -203s-71.5 -38 -111.5 -38zM135 143.002c0 -24.667 10.333 -37.001 31 -37.001c14.667 0 27 5 37 15c138 118.667 261.667 283 371 493c62 120 94.833 189 98.5 207s5.5 33.333 5.5 46
s-3.33301 24.667 -10 36s-16 17 -28 17s-29.667 -6.33301 -53 -19c-51.333 -28 -114.5 -87.667 -189.5 -179s-137.5 -190.666 -187.5 -297.999s-75 -201 -75 -281zM852 1263c-32.667 11.333 -49.001 33.499 -49.001 66.499s9 58.167 27 75.5
c32.667 31.333 58.334 47 77.001 47c42.667 0 64 -21 64 -63c0 -29.333 -10.667 -58.166 -32 -86.499s-44.666 -42.5 -69.999 -42.5c-4.66699 0 -10.334 1 -17.001 3zM544.999 1436l0.000976562 2c22 -26 33 -49.5 33 -70.5s-15 -46.167 -45 -75.5s-54 -44 -72 -44
s-32 11.167 -42 33.5s-15 42.833 -15 61.5s2.5 34.667 7.5 48s11.667 25 20 35s17.833 18 28.5 24s23.667 9 39 9s30.666 -7.66699 45.999 -23z" />
    <glyph glyph-name="aring" unicode="&#xe5;" horiz-adv-x="920" 
d="M150 0c-78 0 -117 49.002 -117 147.002s36.5 218.167 109.5 360.5s158.833 265.333 257.5 369s179.167 155.5 241.5 155.5s97.833 -27.333 106.5 -82c2.66699 -16.667 4.66699 -34.334 6 -53.001c6 4 13.333 6 22 6c31.333 0 47 -15 47 -45v-8c0 -2 -8.33301 -32 -25 -90
s-35.667 -154.667 -57 -290s-32 -251 -32 -347l21 -13.5c8 -5 18 -12.667 30 -23s18 -22.5 18 -36.5s-4.33301 -26.5 -13 -37.5s-21 -16.5 -37 -16.5c-32.667 0 -62.167 16.667 -88.5 50s-39.5 69.333 -39.5 108c0 83.333 22.667 226.666 68 429.999
c-56.667 -118.667 -130 -233 -220 -343s-152.167 -177.667 -186.5 -203s-71.5 -38 -111.5 -38zM135 143.002c0 -24.667 10.333 -37.001 31 -37.001c14.667 0 27 5 37 15c138 118.667 261.667 283 371 493c62 120 94.833 189 98.5 207s5.5 33.333 5.5 46
s-3.33301 24.667 -10 36s-16 17 -28 17s-29.667 -6.33301 -53 -19c-51.333 -28 -114.5 -87.667 -189.5 -179s-137.5 -190.666 -187.5 -297.999s-75 -201 -75 -281zM684 1497c5.33301 4.66699 13 7.00195 23 7.00195s18.667 -3 26 -9c73.333 -52 110 -112 110 -180
c0 -43.333 -15.5 -80.5 -46.5 -111.5s-70.5 -46.5 -118.5 -46.5c-76 0 -132.667 25.667 -170 77c-14 19.333 -21 42 -21 68s3.83301 50.667 11.5 74s18.5 44.666 32.5 63.999s30.667 35.166 50 47.499s38 18.5 56 18.5s33.667 -3 47 -9zM688 1246
c39.333 0 59.001 20.333 59.001 61c0 22 -15.667 48.667 -47 80h-12c-11.333 0 -22 3.33301 -32 10s-20.667 10 -32 10s-21 -6.83301 -29 -20.5s-12 -32.5 -12 -56.5s12.167 -44 36.5 -60s47.166 -24 68.499 -24z" />
    <glyph glyph-name="ae" unicode="&#xe6;" horiz-adv-x="1120" 
d="M750 937c69.333 73.333 139.668 110.001 211.001 110.001c41.333 0 73.833 -17.167 97.5 -51.5s35.5 -74.833 35.5 -121.5c0 -86.667 -22.833 -160.5 -68.5 -221.5s-101.834 -110.833 -168.501 -149.5s-143.334 -75.334 -230.001 -110.001l-4 -147
c0 -114.667 34.667 -172 104 -172c38 0 77.167 10.833 117.5 32.5l88 47c18.333 9.66699 32.5 14.5 42.5 14.5c23.333 0 35 -12.333 35 -37c0 -28.667 -35 -61 -105 -97s-128.333 -54 -175 -54s-81.667 7.66699 -105 23c-67.333 44 -101 138.667 -101 284
c0 18.667 0.666992 37.334 2 56.001c-68.667 -96.667 -139.667 -183.334 -213 -260.001c-53.333 -55.333 -103.666 -83 -150.999 -83s-80.666 12.5 -99.999 37.5s-29 61.167 -29 108.5c0 99.333 36.5 220 109.5 362s158.833 264.833 257.5 368.5s181 155.5 247 155.5
c49.333 0 80.666 -19 93.999 -57c4 -11.333 7 -24 9 -38zM135.002 143.001c0 -24.667 10.332 -37.001 30.999 -37.001c14.667 0 27 5 37 15c139.333 120.667 265.333 290 378 508c26.667 79.333 58.334 148.333 95.001 207c1.33301 9.33301 2 20 2 32
s-3.33301 23.667 -10 35s-16 17 -28 17s-29.667 -6.33301 -53 -19c-51.333 -28 -114.5 -87.667 -189.5 -179s-137.5 -190.666 -187.5 -297.999s-75 -201 -75 -281zM935.001 950c-35.333 0 -74.334 -25.001 -117.001 -75.001c3.33301 -8 5 -15.167 5 -21.5
s-0.666992 -10.166 -2 -11.499c-35.333 -37.333 -63.666 -68.333 -84.999 -93c-50.667 -101.333 -81.667 -187 -93 -257c40 21.333 81 42 123 62s80.333 43.667 115 71s63 60.333 85 99s33 86 33 142s-21.333 84 -64 84z" />
    <glyph glyph-name="ccedilla" unicode="&#xe7;" horiz-adv-x="694" 
d="M236 -272c-24.667 0 -37 10.8359 -37 32.5029s9 42.834 27 63.501c13.333 25.333 25.833 51.333 37.5 78s24.834 52 39.501 76c-14 -2 -33 -3 -57 -3c-51.333 0 -95 25.5 -131 76.5s-54 108.5 -54 172.5c0 119.333 22.167 243 66.5 371s102.666 235.333 174.999 322
s148.833 130 229.5 130c58.667 0 97.334 -21 116.001 -63c4.66699 -11.333 10.167 -25.833 16.5 -43.5s13.5 -28.834 21.5 -33.501c5.33301 -8.66699 8 -19.167 8 -31.5s-5.66699 -23.833 -17 -34.5s-24 -16 -38 -16c-28.667 0 -47 21.167 -55 63.5s-30.333 63.5 -67 63.5
c-51.333 0 -104.5 -39 -159.5 -117s-101.333 -172.667 -139 -284s-56.5 -209 -56.5 -293c0 -121.333 44.333 -182 133 -182c44 0 85.333 21.333 124 64l41 45c12.667 13.333 25.667 20 39 20c26.667 0 40 -11.667 40 -35c0 -42 -25.667 -83.667 -77 -125
c-16 -13.333 -34.333 -25.333 -55 -36l1 -7c0 -10.667 -4.16699 -22.334 -12.5 -35.001s-21.833 -39.334 -40.5 -80.001c56 -2.66699 107.5 -29.334 154.5 -80.001s70.5 -103.667 70.5 -159s-23 -108.833 -69 -160.5s-111 -77.5 -195 -77.5c-36 0 -70.667 5.33301 -104 16
c-64.667 22 -97 45.333 -97 70c0 13.333 5.66699 25.5 17 36.5s24.666 16.5 39.999 16.5l15 -2c57.333 -28.667 106 -43 146 -43s75.167 12.333 105.5 37s45.5 52.5 45.5 83.5s-10 60.5 -30 88.5c-38 54.667 -76.667 82 -116 82c-22.667 0 -41 -14.333 -55 -43l-4 2
c-16 -17.333 -30.333 -26 -43 -26z" />
    <glyph glyph-name="egrave" unicode="&#xe8;" horiz-adv-x="664" 
d="M518 168c23.333 0 35.002 -12.3291 35.002 -36.9961c0 -28.667 -35 -61 -105 -97s-128.333 -54 -175 -54s-81.667 7.66699 -105 23s-42.333 36.666 -57 63.999c-28.667 53.333 -43 117.666 -43 192.999c0 133.333 20 259 60 377s93.333 215.833 160 293.5
s138.667 116.5 216 116.5c41.333 0 73.833 -17.167 97.5 -51.5s35.5 -74.833 35.5 -121.5c0 -87.333 -22.833 -161.333 -68.5 -222s-101.834 -110.334 -168.501 -149.001s-143.334 -75.334 -230.001 -110.001l-4 -147c0 -114.667 34.667 -172 104 -172
c37.333 0 76.5 10.833 117.5 32.5l88.5 47c18 9.66699 32 14.5 42 14.5zM543.002 870.004c0 53.333 -22.333 80 -67 80c-40 0 -87 -36 -141 -108s-98.667 -167 -134 -285c-8.66699 -28.667 -13.667 -50.334 -15 -65.001c26.667 14.667 54 28.667 82 42s55.333 27.333 82 42
c61.333 34 108.833 73.833 142.5 119.5s50.5 103.834 50.5 174.501zM314.002 1581c0 17.333 5.83203 32.332 17.499 44.999s23.167 19 34.5 19c24 0 38 -11.667 42 -35c14.667 -81.333 75.334 -190.666 182.001 -327.999c5.33301 -6.66699 8 -16.5 8 -29.5
s-5.5 -25.333 -16.5 -37s-22.667 -17.5 -35 -17.5s-23.833 5 -34.5 15c-110.667 144 -176.667 266.667 -198 368z" />
    <glyph glyph-name="eacute" unicode="&#xe9;" horiz-adv-x="664" 
d="M518 168c23.333 0 35.002 -12.3291 35.002 -36.9961c0 -28.667 -35 -61 -105 -97s-128.333 -54 -175 -54s-81.667 7.66699 -105 23s-42.333 36.666 -57 63.999c-28.667 53.333 -43 117.666 -43 192.999c0 133.333 20 259 60 377s93.333 215.833 160 293.5
s138.667 116.5 216 116.5c41.333 0 73.833 -17.167 97.5 -51.5s35.5 -74.833 35.5 -121.5c0 -87.333 -22.833 -161.333 -68.5 -222s-101.834 -110.334 -168.501 -149.001s-143.334 -75.334 -230.001 -110.001l-4 -147c0 -114.667 34.667 -172 104 -172
c37.333 0 76.5 10.833 117.5 32.5l88.5 47c18 9.66699 32 14.5 42 14.5zM543.002 870.004c0 53.333 -22.333 80 -67 80c-40 0 -87 -36 -141 -108s-98.667 -167 -134 -285c-8.66699 -28.667 -13.667 -50.334 -15 -65.001c26.667 14.667 54 28.667 82 42s55.333 27.333 82 42
c61.333 34 108.833 73.833 142.5 119.5s50.5 103.834 50.5 174.501zM560.002 1198c-30.667 0 -46 15.667 -46 47c0 10 7.16699 25 21.5 45s30 45.167 47 75.5s33.167 61.333 48.5 93l45 94.5l45 92c15.333 20.667 32.333 31 51 31c24.667 0 37 -11.667 37 -35
c0 -10.667 -5.16699 -25.667 -15.5 -45s-22.833 -44.833 -37.5 -76.5l-61 -127.5c-26 -53.333 -55.667 -101.333 -89 -144c-2 -13.333 -8 -25 -18 -35s-19.333 -15 -28 -15z" />
    <glyph glyph-name="ecircumflex" unicode="&#xea;" horiz-adv-x="664" 
d="M518 168c23.333 0 35.002 -12.3291 35.002 -36.9961c0 -28.667 -35 -61 -105 -97s-128.333 -54 -175 -54s-81.667 7.66699 -105 23s-42.333 36.666 -57 63.999c-28.667 53.333 -43 117.666 -43 192.999c0 133.333 20 259 60 377s93.333 215.833 160 293.5
s138.667 116.5 216 116.5c41.333 0 73.833 -17.167 97.5 -51.5s35.5 -74.833 35.5 -121.5c0 -87.333 -22.833 -161.333 -68.5 -222s-101.834 -110.334 -168.501 -149.001s-143.334 -75.334 -230.001 -110.001l-4 -147c0 -114.667 34.667 -172 104 -172
c37.333 0 76.5 10.833 117.5 32.5l88.5 47c18 9.66699 32 14.5 42 14.5zM543.002 870.004c0 53.333 -22.333 80 -67 80c-40 0 -87 -36 -141 -108s-98.667 -167 -134 -285c-8.66699 -28.667 -13.667 -50.334 -15 -65.001c26.667 14.667 54 28.667 82 42s55.333 27.333 82 42
c61.333 34 108.833 73.833 142.5 119.5s50.5 103.834 50.5 174.501zM635.002 1524l-2 -24.998c0 -31.333 16 -75.833 48 -133.5s67.333 -99.834 106 -126.501c5.33301 -8.66699 8 -19.167 8 -31.5s-5.66699 -23.833 -17 -34.5s-24.666 -16 -39.999 -16
c-28.667 0 -62 25.667 -100 77s-67 105.666 -87 162.999c-5.33301 -8 -10 -16 -14 -24c-19.333 -38.667 -72 -105.667 -158 -201c-12 -8 -23.667 -12 -35 -12c-24 0 -36 10.833 -36 32.5s24.167 60 72.5 115s80.166 96.167 95.499 123.5s29 50 41 68
c29.333 42.667 56.333 64 81 64s37 -13 37 -39z" />
    <glyph glyph-name="edieresis" unicode="&#xeb;" horiz-adv-x="664" 
d="M518 168c23.333 0 35.002 -12.3291 35.002 -36.9961c0 -28.667 -35 -61 -105 -97s-128.333 -54 -175 -54s-81.667 7.66699 -105 23s-42.333 36.666 -57 63.999c-28.667 53.333 -43 117.666 -43 192.999c0 133.333 20 259 60 377s93.333 215.833 160 293.5
s138.667 116.5 216 116.5c41.333 0 73.833 -17.167 97.5 -51.5s35.5 -74.833 35.5 -121.5c0 -87.333 -22.833 -161.333 -68.5 -222s-101.834 -110.334 -168.501 -149.001s-143.334 -75.334 -230.001 -110.001l-4 -147c0 -114.667 34.667 -172 104 -172
c37.333 0 76.5 10.833 117.5 32.5l88.5 47c18 9.66699 32 14.5 42 14.5zM543.002 870.004c0 53.333 -22.333 80 -67 80c-40 0 -87 -36 -141 -108s-98.667 -167 -134 -285c-8.66699 -28.667 -13.667 -50.334 -15 -65.001c26.667 14.667 54 28.667 82 42s55.333 27.333 82 42
c61.333 34 108.833 73.833 142.5 119.5s50.5 103.834 50.5 174.501zM723.002 1263c-32.667 11.333 -49.001 33.499 -49.001 66.499s9 58.167 27 75.5c32.667 31.333 58.334 47 77.001 47c42.667 0 64 -21 64 -63c0 -29.333 -10.667 -58.166 -32 -86.499
s-44.666 -42.5 -69.999 -42.5c-4.66699 0 -10.334 1 -17.001 3zM416.001 1436l0.000976562 2c22 -26 33 -49.5 33 -70.5s-15 -46.167 -45 -75.5s-54 -44 -72 -44s-32 11.167 -42 33.5s-15 42.833 -15 61.5s2.5 34.667 7.5 48s11.667 25 20 35s17.833 18 28.5 24
s23.667 9 39 9s30.666 -7.66699 45.999 -23z" />
    <glyph glyph-name="igrave" unicode="&#xec;" horiz-adv-x="487" 
d="M65 1581c0 17.333 5.83203 32.332 17.499 44.999s23.167 19 34.5 19c24 0 38 -11.667 42 -35c14.667 -81.333 75.334 -190.666 182.001 -327.999c5.33301 -6.66699 8 -16.5 8 -29.5s-5.5 -25.333 -16.5 -37s-22.667 -17.5 -35 -17.5s-23.833 5 -34.5 15
c-110.667 144 -176.667 266.667 -198 368zM241.999 908.999l0.000976562 20.002c0 9.33301 -5 32 -15 68c0 16.667 5.66699 31.834 17 45.501s25.166 20.5 41.499 20.5s29.833 -10.333 40.5 -31s16 -43.334 16 -68.001s-31.333 -172 -94 -442s-94 -412.167 -94 -426.5
s6.66699 -21.5 20 -21.5c8.66699 0 21 8.5 37 25.5s29.667 25.5 41 25.5c22 0 33 -13.833 33 -41.5s-20.667 -51.834 -62 -72.501s-71.333 -31 -90 -31c-46.667 0 -70 37.333 -70 112c0 15.333 3.16699 32.5 9.5 51.5s13 45.333 20 79l30 137.5l40 180l50 225.5
c19.667 88.333 29.5 136.166 29.5 143.499z" />
    <glyph glyph-name="iacute" unicode="&#xed;" horiz-adv-x="487" 
d="M394 1148c-30.667 0 -46 15.667 -46 47c0 10 7.16699 25 21.5 45s30 45.167 47 75.5s33.167 61.333 48.5 93l45 94.5l45 92c15.333 20.667 32.333 31 51 31c24.667 0 37 -11.667 37 -35c0 -10.667 -5.16699 -25.667 -15.5 -45s-22.833 -44.833 -37.5 -76.5l-61 -127.5
c-26 -53.333 -55.667 -101.333 -89 -144c-2 -13.333 -8 -25 -18 -35s-19.333 -15 -28 -15zM242 909l0.000976562 20.002c0 9.33301 -5 32 -15 68c0 16.667 5.66699 31.834 17 45.501s25.166 20.5 41.499 20.5s29.833 -10.333 40.5 -31s16 -43.334 16 -68.001
s-31.333 -172 -94 -442s-94 -412.167 -94 -426.5s6.66699 -21.5 20 -21.5c8.66699 0 21 8.5 37 25.5s29.667 25.5 41 25.5c22 0 33 -13.833 33 -41.5s-20.667 -51.834 -62 -72.501s-71.333 -31 -90 -31c-46.667 0 -70 37.333 -70 112c0 15.333 3.16699 32.5 9.5 51.5
s13 45.333 20 79l30 137.5l40 180l50 225.5c19.667 88.333 29.5 136.166 29.5 143.499z" />
    <glyph glyph-name="icircumflex" unicode="&#xee;" horiz-adv-x="487" 
d="M452 1528l-2 -24.998c0 -31.333 16 -75.833 48 -133.5s67.333 -99.834 106 -126.501c5.33301 -8.66699 8 -19.167 8 -31.5s-5.66699 -23.833 -17 -34.5s-24.666 -16 -39.999 -16c-28.667 0 -62 25.667 -100 77s-67 105.666 -87 162.999c-5.33301 -8 -10 -16 -14 -24
c-19.333 -38.667 -72 -105.667 -158 -201c-12 -8 -23.667 -12 -35 -12c-24 0 -36 10.833 -36 32.5s24.167 60 72.5 115s80.166 96.167 95.499 123.5s29 50 41 68c29.333 42.667 56.333 64 81 64s37 -13 37 -39zM242 909.002l0.000976562 20.002c0 9.33301 -5 32 -15 68
c0 16.667 5.66699 31.834 17 45.501s25.166 20.5 41.499 20.5s29.833 -10.333 40.5 -31s16 -43.334 16 -68.001s-31.333 -172 -94 -442s-94 -412.167 -94 -426.5s6.66699 -21.5 20 -21.5c8.66699 0 21 8.5 37 25.5s29.667 25.5 41 25.5c22 0 33 -13.833 33 -41.5
s-20.667 -51.834 -62 -72.501s-71.333 -31 -90 -31c-46.667 0 -70 37.333 -70 112c0 15.333 3.16699 32.5 9.5 51.5s13 45.333 20 79l30 137.5l40 180l50 225.5c19.667 88.333 29.5 136.166 29.5 143.499z" />
    <glyph glyph-name="idieresis" unicode="&#xef;" horiz-adv-x="487" 
d="M242 909l0.000976562 20.002c0 9.33301 -5 32 -15 68c0 16.667 5.66699 31.834 17 45.501s25.166 20.5 41.499 20.5s29.833 -10.333 40.5 -31s16 -43.334 16 -68.001s-31.333 -172 -94 -442s-94 -412.167 -94 -426.5s6.66699 -21.5 20 -21.5c8.66699 0 21 8.5 37 25.5
s29.667 25.5 41 25.5c22 0 33 -13.833 33 -41.5s-20.667 -51.834 -62 -72.501s-71.333 -31 -90 -31c-46.667 0 -70 37.333 -70 112c0 15.333 3.16699 32.5 9.5 51.5s13 45.333 20 79l30 137.5l40 180l50 225.5c19.667 88.333 29.5 136.166 29.5 143.499zM506.001 1210
c-32.667 11.333 -49.001 33.499 -49.001 66.499s9 58.167 27 75.5c32.667 31.333 58.334 47 77.001 47c42.667 0 64 -21 64 -63c0 -29.333 -10.667 -58.166 -32 -86.499s-44.666 -42.5 -69.999 -42.5c-4.66699 0 -10.334 1 -17.001 3zM199 1383l0.000976562 2
c22 -26 33 -49.5 33 -70.5s-15 -46.167 -45 -75.5s-54 -44 -72 -44s-32 11.167 -42 33.5s-15 42.833 -15 61.5s2.5 34.667 7.5 48s11.667 25 20 35s17.833 18 28.5 24s23.667 9 39 9s30.666 -7.66699 45.999 -23z" />
    <glyph glyph-name="eth" unicode="&#xf0;" horiz-adv-x="891" 
d="M572 934c-14.667 9.33301 -35.667 14 -63 14s-56.333 -12.167 -87 -36.5s-65.167 -65.5 -103.5 -123.5s-73.666 -141.833 -105.999 -251.5s-48.5 -202.167 -48.5 -277.5s21.333 -129 64 -161c14 -10.667 32.667 -16 56 -16c48 0 98.167 38.833 150.5 116.5
s99.166 170 140.499 277s62 203.167 62 288.5s-21.667 142 -65 170zM905 1677c24.667 0 36.999 -13.9971 36.999 -41.9971s-14.333 -48 -43 -60l-111 -51c36 -83.333 54 -178.333 54 -285c0 -39.333 -6.66699 -90.333 -20 -153s-23 -110.834 -29 -144.501
s-18.833 -96.334 -38.5 -188.001s-50.667 -197.334 -93 -317.001s-98.5 -225.334 -168.5 -317.001s-151.333 -137.5 -244 -137.5c-61.333 0 -107.666 32.333 -138.999 97c-25.333 51.333 -38 104.333 -38 159c0 206 38 378.333 114 517c36.667 66 68.834 114.667 96.501 146
s63.167 61.333 106.5 90s96.666 43 159.999 43s109 -30.667 137 -92l37 143c15.333 62 23 126.5 23 193.5s-14.667 133.833 -44 200.5l-192 -101l-12 -2c-24.667 0 -37 12.833 -37 38.5s8.66699 45.834 26 60.501c69.333 25.333 127.666 51 174.999 77
c-70.667 105.333 -178 186.666 -322 243.999c-22 8.66699 -33 22.334 -33 41.001s6 31.167 18 37.5s22.833 9.5 32.5 9.5s19.834 -3 30.501 -9s37.5 -19.667 80.5 -41s90.5 -52 142.5 -92s96 -86 132 -138c26 14 58.5 29.667 97.5 47s60.5 26 64.5 26z" />
    <glyph glyph-name="ntilde" unicode="&#xf1;" horiz-adv-x="913" 
d="M698 810c0 66 -17.998 99.002 -53.998 99.002c-48 0 -139.667 -137.667 -275 -413c-61.333 -124.667 -104.166 -218.834 -128.499 -282.501s-42.5 -108.5 -54.5 -134.5s-23.833 -45.667 -35.5 -59s-24.667 -20 -39 -20s-22.833 3.5 -25.5 10.5s-4 19.667 -4 38
s26.833 175.666 80.5 471.999s84.667 452.166 93 467.499s15.833 25.166 22.5 29.499s18.667 6.5 36 6.5s30.833 -6.66699 40.5 -20s14.5 -25.166 14.5 -35.499s-1.33301 -20.5 -4 -30.5c-4.66699 -18 -11.667 -40.333 -21 -67c-32 -91.333 -62.667 -220.666 -92 -387.999
l-21 -121c15.333 32 32.666 70.5 51.999 115.5l86 193.5c38 84 80.333 159 127 225c60 86.667 116 130 168 130c91.333 0 137 -73.667 137 -221c0 -55.333 -7.83301 -124.333 -23.5 -207l-52 -271c-19 -98 -29.5 -179 -31.5 -243l-12 -55
c0 -14.667 -2.16699 -25.167 -6.5 -31.5s-17.333 -9.5 -39 -9.5s-37.334 4 -47.001 12s-12.834 22.333 -9.50098 43l100 598c12 74 18 130.333 18 169zM839.002 1481c27.333 0 41.001 -32.3301 41.001 -96.9971s-28.333 -108.667 -85 -132
c-21.333 -8.66699 -46.5 -13 -75.5 -13s-54.333 6.16699 -76 18.5s-42.334 25.666 -62.001 39.999l-56.5 40c-18 12.333 -34.667 18.5 -50 18.5c-32.667 0 -60.667 -24.667 -84 -74c-13.333 -16 -29 -24 -47 -24c-24.667 0 -37 11.667 -37 35c0 6.66699 1.33301 14 4 22
c46.667 92.667 98.334 139 155.001 139c30.667 0 67.667 -12.833 111 -38.5s77.166 -44.334 101.499 -56.001s49.333 -17.5 75 -17.5s38.5 2.66699 38.5 8v12l-10 56c0 17.333 6 32.166 18 44.499s25 18.5 39 18.5z" />
    <glyph glyph-name="ograve" unicode="&#xf2;" horiz-adv-x="780" 
d="M530 1034c126 0 188.999 -95.3311 188.999 -285.998c0 -148.667 -41 -308.334 -123 -479.001c-55.333 -114.667 -122 -197.334 -200 -248.001c-40 -26 -81.333 -39 -124 -39c-75.333 0 -129.333 30 -162 90s-49 124.667 -49 194c0 124 20.833 244.333 62.5 361
s98.334 213.667 170.001 291s150.5 116 236.5 116zM261.999 703.002c-72 -144 -108.001 -284.668 -108.001 -422.001c0 -95.333 26.333 -159.333 79 -192c16 -10 34.333 -15 55 -15c42.667 0 90.334 37 143.001 111s97 165.167 133 273.5s54 201.333 54 279
s-4.5 126.834 -13.5 147.501s-19.333 35 -31 43s-31 12 -58 12s-56.5 -10.667 -88.5 -32c-62 -40 -117 -108.333 -165 -205zM343.998 1581c0 17.333 5.83203 32.332 17.499 44.999s23.167 19 34.5 19c24 0 38 -11.667 42 -35
c14.667 -81.333 75.334 -190.666 182.001 -327.999c5.33301 -6.66699 8 -16.5 8 -29.5s-5.5 -25.333 -16.5 -37s-22.667 -17.5 -35 -17.5s-23.833 5 -34.5 15c-110.667 144 -176.667 266.667 -198 368z" />
    </font>
</defs>
</svg>
