<?xml version="1.0" standalone="no"?>
<!DOCTYPE svg PUBLIC "-//W3C//DTD SVG 1.1//EN" "http://www.w3.org/Graphics/SVG/1.1/DTD/svg11.dtd" >
<svg>
<metadata>
Created by FontForge 20090914 at Thu Apr 15 00:09:57 2021
 By www-data
Copyright (c) Gophmann A.L. (cyr.code page), 2000. All rights reserved.
</metadata>
<defs>
<font id="Maya" horiz-adv-x="500" >
  <font-face 
    font-family="Maya"
    font-weight="400"
    font-stretch="normal"
    units-per-em="1000"
    panose-1="2 0 0 0 0 0 0 0 0 0"
    ascent="800"
    descent="-200"
    x-height="317.001"
    cap-height="870"
    bbox="-257.996 -513.999 1337.08 991.004"
    underline-thickness="50"
    underline-position="-50"
    unicode-range="U+0020-U+2122"
  />
<missing-glyph horiz-adv-x="320" 
 />
    <glyph glyph-name=".notdef" horiz-adv-x="320" 
 />
    <glyph glyph-name="space" unicode=" " horiz-adv-x="320" 
 />
    <glyph glyph-name="space" unicode="&#xa0;" horiz-adv-x="320" 
 />
    <glyph glyph-name="exclam" unicode="!" horiz-adv-x="304" 
d="M192 81l-12 -108l-82 10l12 108zM137 157l54 668l113 -16l-121 -658z" />
    <glyph glyph-name="quotedbl" unicode="&#x22;" horiz-adv-x="434" 
d="M196 758l-20 -272h-52l-16 272h88zM330 758l-20 -272h-52l-16 272h88z" />
    <glyph glyph-name="numbersign" unicode="#" horiz-adv-x="701" 
d="M127 482h109l39 198l80 -16l-36 -182h159l39 198l80 -16l-36 -182h89v-82h-105l-23 -122h85v-82h-101l-38 -194l-80 16l34 178h-158l-38 -194l-80 16l34 178h-96v82h112l24 122h-93v82zM280 278h158l24 122h-159z" />
    <glyph glyph-name="dollar" unicode="$" 
d="M359 588c-10 0 -17.3311 -2.66602 -21.998 -7.99902s-7 -10.666 -7 -15.999c0 -8 1.83301 -13.833 5.5 -17.5s7.83398 -5.5 12.501 -5.5c11.333 0 20.333 6.33301 27 19s10 32.667 10 60c0 8.66699 -1.33301 17.5 -4 26.5s-7 17 -13 24s-13.833 12.667 -23.5 17
s-21.167 6.5 -34.5 6.5c-34 0 -60.5 -12.167 -79.5 -36.5s-28.5 -54.833 -28.5 -91.5c0 -16.667 3 -31.667 9 -45s14 -25.666 24 -36.999s21.5 -21.833 34.5 -31.5l39.5 -29.5l22 -15l42 -31c13.333 -10 25 -20.833 35 -32.5s18 -24.167 24 -37.5s9 -28.666 9 -45.999
c0 -25.333 -5 -50 -15 -74s-24.333 -45.167 -43 -63.5s-41.334 -33 -68.001 -44s-56.667 -16.5 -90 -16.5c-26 0 -49.5 4.33301 -70.5 13s-38.667 20.5 -53 35.5s-25.333 32.333 -33 52s-11.5 40.834 -11.5 63.501c0 18.667 2.83301 37.167 8.5 55.5s14 34.666 25 48.999
s25 26 42 35s36.5 13.5 58.5 13.5c29.333 0 53.5 -7.33301 72.5 -22s28.5 -35.667 28.5 -63c0 -14 -2.66699 -26.333 -8 -37s-12.166 -19.667 -20.499 -27s-17.833 -12.833 -28.5 -16.5s-21.334 -5.5 -32.001 -5.5c-23.333 0 -42.333 9.33301 -57 28l25 25
c5.33301 -6.66699 10.5 -11.167 15.5 -13.5s9.16699 -3.5 12.5 -3.5c9.33301 0 16.833 4.83301 22.5 14.5s8.5 20.167 8.5 31.5c0 5.33301 -0.666992 11.333 -2 18s-3.5 13.167 -6.5 19.5s-7.16699 11.666 -12.5 15.999s-12.333 6.5 -21 6.5c-10.667 0 -20 -4.66699 -28 -14
s-14.5 -20.333 -19.5 -33s-8.66699 -25.834 -11 -39.501s-3.5 -24.834 -3.5 -33.501c0 -13.333 2.16699 -28 6.5 -44s10.666 -30.833 18.999 -44.5s18.5 -25.167 30.5 -34.5s25.667 -14 41 -14c20 0 38.333 4 55 12s31 19 43 33s21.333 30.667 28 50s10 40.333 10 63
c0 13.333 -3.16699 26 -9.5 38s-14.833 23.5 -25.5 34.5s-22.667 21.833 -36 32.5s-27 21 -41 31l-46.5 35c-15.667 12 -29.667 25 -42 39s-22.5 28.833 -30.5 44.5s-12 32.5 -12 50.5c0 26 6.16699 49.5 18.5 70.5s28 38.833 47 53.5s40 26 63 34s45.167 12 66.5 12
c22 0 42 -3 60 -9s33.5 -13.833 46.5 -23.5s23 -20.667 30 -33s10.5 -25.166 10.5 -38.499c0 -17.333 -3 -32.833 -9 -46.5s-14.333 -25.334 -25 -35.001s-22.834 -17.167 -36.501 -22.5s-28.5 -8 -44.5 -8c-19.333 0 -33.833 5.66699 -43.5 17s-14.5 23.666 -14.5 36.999
s6 25.833 18 37.5s30.333 17.5 55 17.5zM255.002 28.001l-10 -103l-77 8l10 103zM373.002 857.001l-10 -103l-77 8l10 103z" />
    <glyph glyph-name="percent" unicode="%" horiz-adv-x="787" 
d="M250 -41c-10 21.333 -18.0029 43.3291 -24.0029 65.9961s-9 46 -9 70c0 35.333 7.33301 71 22 107s39 72 73 108c26 28 49.833 56.667 71.5 86s40.5 58 56.5 86s28.5 54.833 37.5 80.5s13.5 48.834 13.5 69.501c-12 -11.333 -29.167 -20.333 -51.5 -27
s-45.166 -10 -68.499 -10c-24 0 -45 4 -63 12c1.33301 -6.66699 2.66602 -14.167 3.99902 -22.5s2 -19.166 2 -32.499v-12.5c0 -4.33301 -0.333008 -9.16602 -1 -14.499c-2 -28 -7.83301 -54.333 -17.5 -79s-22 -46.334 -37 -65.001s-32 -33.5 -51 -44.5
s-38.5 -16.5 -58.5 -16.5c-16 0 -30.667 3.66699 -44 11s-24.666 17.5 -33.999 30.5s-16.666 28.333 -21.999 46s-8 36.5 -8 56.5c0 27.333 4.5 54.333 13.5 81s21 50.5 36 71.5s32.333 38 52 51s40.167 19.5 61.5 19.5c13.333 0 25.833 -2.66699 37.5 -8l37.5 -17.5
c13.333 -6.33301 28.333 -12.166 45 -17.499s36.667 -8 60 -8c12.667 0 26.667 2.83301 42 8.5s29.833 12.334 43.5 20.001s25.834 15.667 36.501 24s18 15.166 22 20.499l62 -37c-8 -66 -32.167 -130.167 -72.5 -192.5s-90.833 -125.166 -151.5 -188.499
c-23.333 -24 -40 -50.5 -50 -79.5s-15 -57.833 -15 -86.5c0 -24.667 3.33301 -48.167 10 -70.5s15.667 -41.833 27 -58.5zM701.997 196.996c-2 -28 -7.83301 -54.332 -17.5 -78.999s-22.167 -46.334 -37.5 -65.001s-32.333 -33.5 -51 -44.5s-38 -16.5 -58 -16.5
c-16 0 -30.667 3.66699 -44 11s-24.833 17.5 -34.5 30.5s-17 28.333 -22 46s-7.5 36.5 -7.5 56.5c0 27.333 4.33301 54.333 13 81s20.5 50.5 35.5 71.5s32.333 38 52 51s40.167 19.5 61.5 19.5c16.667 0 31.667 -3.66699 45 -11s24.833 -17.5 34.5 -30.5
s17.167 -28.5 22.5 -46.5s8 -37.333 8 -58v-16zM117.997 443.997c0 -10 0.334961 -20.498 1.00195 -31.498s2.16699 -21 4.5 -30s5.66602 -16.333 9.99902 -22s10.166 -8.5 17.499 -8.5c16 0 29.333 8.66699 40 26s19.5 37.166 26.5 59.499s12 44.166 15 65.499
s4.5 36.333 4.5 45c0 11.333 -0.333008 23.166 -1 35.499s-2.16699 23.5 -4.5 33.5s-5.5 18.333 -9.5 25s-9.66699 10 -17 10c-16 0 -29.5 -8.66699 -40.5 -26s-20 -37.5 -27 -60.5s-12 -46.167 -15 -69.5s-4.5 -40.666 -4.5 -51.999zM505.999 115.999
c0 -10.667 0.333984 -21.332 1.00098 -31.999s2 -20.334 4 -29.001s5 -15.667 9 -21s9.66699 -8 17 -8c15.333 0 28.666 8.5 39.999 25.5s20.666 36.5 27.999 58.5s12.666 43.667 15.999 65s5 36.333 5 45c0 11.333 -0.5 23.166 -1.5 35.499s-2.66699 23.5 -5 33.5
s-5.66602 18.333 -9.99902 25s-10.166 10 -17.499 10c-15.333 0 -28.5 -8.66699 -39.5 -26s-20 -37.5 -27 -60.5s-12 -46.167 -15 -69.5s-4.5 -40.666 -4.5 -51.999z" />
    <glyph glyph-name="ampersand" unicode="&#x26;" horiz-adv-x="693" 
d="M688 534c0 -26.667 -2.16797 -54.3291 -6.50098 -82.9961s-12.833 -58.334 -25.5 -89.001s-30.5 -62.834 -53.5 -96.501s-53.5 -69.167 -91.5 -106.5l8.5 -14c5.66699 -9.33301 13 -19.5 22 -30.5s19 -21.167 30 -30.5s21.833 -14 32.5 -14c8.66699 0 17.5 2.5 26.5 7.5
s17.167 10.167 24.5 15.5c8.66699 6.66699 17.334 14 26.001 22l12 -42c-0.666992 0 -4.16699 -2.83301 -10.5 -8.5s-14.833 -11.667 -25.5 -18s-22.834 -12.333 -36.501 -18s-28.167 -8.5 -43.5 -8.5c-24 0 -47.667 7.66699 -71 23s-46 35.666 -68 60.999
c-40.667 -32 -83.5 -57.333 -128.5 -76s-90.5 -28 -136.5 -28c-22.667 0 -44.5 4.5 -65.5 13.5s-39.5 21.667 -55.5 38s-28.667 36.166 -38 59.499s-14 49.333 -14 78c0 56.667 20.333 111.834 61 165.501s101.334 108.5 182.001 164.5
c-3.33301 15.333 -5.5 30.166 -6.5 44.499s-1.5 27.5 -1.5 39.5c0 33.333 4.16699 62.333 12.5 87s19 45.334 32 62.001s27.167 29 42.5 37s30.333 12 45 12c24 0 44.667 -8.33301 62 -25s26 -38.334 26 -65.001c0 -15.333 -2.33301 -29.833 -7 -43.5
s-12 -27.334 -22 -41.001s-22.5 -27.834 -37.5 -42.501s-32.833 -30.667 -53.5 -48c8 -28.667 17.167 -57.667 27.5 -87s21.5 -58.166 33.5 -86.499s24.833 -55.666 38.5 -81.999s27.834 -50.5 42.501 -72.5c25.333 29.333 45.166 59 59.499 89s25 58.667 32 86
s11.5 52.5 13.5 75.5s3 41.833 3 56.5zM404.999 145.005c-16.667 24 -32.8311 50.0029 -48.498 78.0029s-30.167 56.5 -43.5 85.5s-25.333 57.833 -36 86.5s-19.334 56 -26.001 82c-50 -39.333 -85.167 -81 -105.5 -125s-30.5 -93 -30.5 -147c0 -28 3.16699 -52.333 9.5 -73
s14.5 -37.834 24.5 -51.501s21.667 -23.834 35 -30.501s27 -10 41 -10c23.333 0 51.166 9.66699 83.499 29s64.5 44.666 96.5 75.999zM317.002 660.008c0 -12 0.499023 -24.6689 1.49902 -38.002s3.16699 -26.666 6.5 -39.999c12.667 14.667 22.5 28.834 29.5 42.501
s12.167 26.167 15.5 37.5s5.33301 21 6 29s1 13.667 1 17c0 16 -1.33301 30.833 -4 44.5s-7.33398 20.5 -14.001 20.5c-7.33301 0 -13.666 -3.16699 -18.999 -9.5s-9.66602 -14.666 -12.999 -24.999s-5.83301 -22.333 -7.5 -36s-2.5 -27.834 -2.5 -42.501z" />
    <glyph glyph-name="quotesingle" unicode="'" horiz-adv-x="301" 
d="M196 758l-20 -272h-52l-16 272h88z" />
    <glyph glyph-name="parenleft" unicode="(" horiz-adv-x="410" 
d="M262 -123c-12 0.666992 -26.167 6.33203 -42.5 16.999s-33 25.167 -50 43.5s-33.833 39.833 -50.5 64.5s-31.667 51.5 -45 80.5s-24 59.833 -32 92.5s-12 65.667 -12 99c0 58.667 6.33301 117.834 19 177.501s33.167 116.167 61.5 169.5s65.333 101.5 111 144.5
s101.5 77.167 167.5 102.5l21 -75c-54 -31.333 -99.5 -68.333 -136.5 -111s-66.833 -87.5 -89.5 -134.5s-39 -94.333 -49 -142s-15 -92.167 -15 -133.5c0 -25.333 2.33301 -54.333 7 -87s12.834 -65.667 24.501 -99s27.167 -65.333 46.5 -96s43.666 -56.667 72.999 -78z" />
    <glyph glyph-name="parenright" unicode=")" 
d="M144 854c12 -0.666992 26.167 -6.33203 42.5 -16.999s33 -25.167 50 -43.5s33.833 -39.833 50.5 -64.5s31.667 -51.5 45 -80.5s24 -59.833 32 -92.5s12 -65.667 12 -99c0 -58.667 -6.33301 -117.834 -19 -177.501s-33.167 -116.167 -61.5 -169.5
s-65.333 -101.5 -111 -144.5s-101.5 -77.167 -167.5 -102.5l-21 75c54 31.333 99.5 68.333 136.5 111s66.833 87.5 89.5 134.5s39 94.333 49 142s15 92.167 15 133.5c0 25.333 -2.33301 54.333 -7 87s-12.667 65.667 -24 99s-26.833 65.333 -46.5 96
s-44.167 56.667 -73.5 78z" />
    <glyph glyph-name="asterisk" unicode="*" horiz-adv-x="635" 
d="M441 420l-93 93v-131h-72v131l-93 -93l-51 51l93 93h-131v72h131l-93 93l51 51l93 -93v131h72v-131l93 93l51 -51l-93 -93h131v-72h-131l93 -93z" />
    <glyph glyph-name="plus" unicode="+" horiz-adv-x="616" 
d="M582 238h-235v-235h-72v235h-235v72h235v235h72v-235h235v-72z" />
    <glyph glyph-name="comma" unicode="," horiz-adv-x="316" 
d="M177 118c21.333 -13.333 36.333 -29.4961 45 -48.4961s13 -38.167 13 -57.5c0 -20.667 -3.83301 -40.334 -11.5 -59.001s-17.167 -35.334 -28.5 -50.001s-23.5 -27 -36.5 -37s-25.167 -16.333 -36.5 -19l-22 27c24 17.333 40 36.666 48 57.999s12 40.666 12 57.999
c0 13.333 -4.83301 26.5 -14.5 39.5s-20.167 22.833 -31.5 29.5z" />
    <glyph glyph-name="hyphen" unicode="-" horiz-adv-x="537" 
d="M137 287h302v-67h-302v67z" />
    <glyph glyph-name="period" unicode="." horiz-adv-x="281" 
d="M207 102l-12 -118l-95 10l12 118z" />
    <glyph glyph-name="slash" unicode="/" 
d="M477 693l-282 -720l-76 30l282 720z" />
    <glyph glyph-name="zero" unicode="0" horiz-adv-x="418" 
d="M398 426c0 -64.667 -6.83398 -123.833 -20.501 -177.5s-31.5 -99.667 -53.5 -138s-46.5 -68 -73.5 -89s-53.5 -31.5 -79.5 -31.5c-28 0 -51.833 6.33301 -71.5 19s-35.667 30.5 -48 53.5s-21.5 50.5 -27.5 82.5s-9 67 -9 105c0 51.333 5.5 102.166 16.5 152.499
s26.5 95.333 46.5 135s43.833 71.834 71.5 96.501s57.834 37 90.501 37c49.333 0 88 -19.833 116 -59.5s42 -101.5 42 -185.5zM308.999 426.001c0 60.667 -5.16895 109.5 -15.502 146.5s-27.166 55.5 -50.499 55.5c-14 0 -27.333 -6.5 -40 -19.5
s-24.167 -30.167 -34.5 -51.5s-19.666 -45.833 -27.999 -73.5s-15.333 -56.167 -21 -85.5s-10 -58.5 -13 -87.5s-4.5 -55.5 -4.5 -79.5c0 -61.333 6.16699 -109.833 18.5 -145.5s30.166 -53.5 53.499 -53.5c16.667 0 33.167 10.333 49.5 31s30.833 49 43.5 85
s22.834 77.833 30.501 125.5s11.5 98.5 11.5 152.5z" />
    <glyph glyph-name="one" unicode="1" horiz-adv-x="313" 
d="M58 576l98 76h82l-30 -618h56l-2 -38h-205l2 38h67l26 550l-83 -32z" />
    <glyph glyph-name="two" unicode="2" horiz-adv-x="441" 
d="M179 129c18 0 33.667 -3.49805 47 -10.498s25.5 -14.5 36.5 -22.5l31.5 -22.5c10 -7 20.667 -10.5 32 -10.5s21.666 3.16699 30.999 9.5s17.333 13.5 24 21.5s11.834 15.667 15.501 23s5.5 12 5.5 14l32 -14c-8.66699 -20 -19 -38.333 -31 -55
c-10.667 -14 -23.834 -26.667 -39.501 -38s-34.167 -17 -55.5 -17c-18.667 0 -34.667 2.83301 -48 8.5s-25.5 12 -36.5 19s-22 13.333 -33 19s-23.167 8.5 -36.5 8.5c-12 0 -22.833 -3 -32.5 -9s-17.834 -12.667 -24.501 -20c-7.33301 -8.66699 -14.333 -18.667 -21 -30
l-40 5c4.66699 31.333 14.834 60.833 30.501 88.5s33.834 54.667 54.501 81s42.5 52.166 65.5 77.499s44.167 50.833 63.5 76.5s35.333 51.834 48 78.501s19 54.667 19 84c0 18 -1.5 35.167 -4.5 51.5s-7.5 30.666 -13.5 42.999s-13.667 22.166 -23 29.499
s-20.666 11 -33.999 11c-14 0 -27.5 -3.33301 -40.5 -10s-24.333 -16 -34 -28s-17.334 -26.5 -23.001 -43.5s-8.5 -36.167 -8.5 -57.5c0 -16.667 2.66699 -32.334 8 -47.001s13.666 -22 24.999 -22c7.33301 0 13.833 3 19.5 9s10.834 13.5 15.501 22.5
s8.33398 18.333 11.001 28s4 18.167 4 25.5c0 10 -1.66699 15 -5 15c-2.66699 0 -5.66699 -1.66699 -9 -5l-6 -6l-25 28c8.66699 8.66699 17.167 15 25.5 19s16.166 6 23.499 6c14.667 0 24.834 -5.16699 30.501 -15.5s8.5 -24.166 8.5 -41.499
c0 -14.667 -2.5 -29.5 -7.5 -44.5s-12 -28.5 -21 -40.5s-19.833 -21.833 -32.5 -29.5s-27 -11.5 -43 -11.5c-16.667 0 -30.834 3.33301 -42.501 10s-21.334 15.667 -29.001 27s-13.334 24.166 -17.001 38.499s-5.5 29.166 -5.5 44.499c0 20.667 4.5 40.834 13.5 60.501
s21.5 37.334 37.5 53.001s35.167 28.167 57.5 37.5s46.5 14 72.5 14c22 0 42.833 -3.5 62.5 -10.5s37 -17.333 52 -31s26.833 -30.667 35.5 -51s13 -43.833 13 -70.5c0 -28.667 -5.66699 -55.667 -17 -81s-25.666 -49.5 -42.999 -72.5s-36.666 -44.833 -57.999 -65.5
l-62 -59.5l-55 -54.5c-16.667 -17.333 -28.667 -34 -36 -50c3.33301 1.33301 7.83301 3.33301 13.5 6s15.167 4 28.5 4z" />
    <glyph glyph-name="three" unicode="3" horiz-adv-x="429" 
d="M410 538c-1.33301 -30 -10.5 -58.8359 -27.5 -86.5029s-45.833 -51.834 -86.5 -72.501c34 -17.333 58.667 -41 74 -71s23 -62 23 -96c0 -28.667 -5.16699 -57.5 -15.5 -86.5s-25 -55 -44 -78s-42 -41.667 -69 -56s-57.167 -21.5 -90.5 -21.5
c-22.667 0 -43.334 5.16699 -62.001 15.5s-34.5 23.833 -47.5 40.5s-23 35.5 -30 56.5s-10.5 41.833 -10.5 62.5c0 22 3.16699 43.833 9.5 65.5s15.333 41.167 27 58.5s26 31.5 43 42.5s36.5 16.5 58.5 16.5c12.667 0 23.5 -3 32.5 -9s16.333 -13.667 22 -23
s9.83398 -20.166 12.501 -32.499s4 -24.833 4 -37.5c0 -30 -5.33301 -53.833 -16 -71.5s-25 -26.5 -43 -26.5c-12.667 0 -25.667 9 -39 27l30 26c1.33301 -2 3 -4 5 -6c4 -4 6.66699 -6 8 -6c3.33301 0 6 5.5 8 16.5s3 22.5 3 34.5c0 15.333 -2 29.833 -6 43.5
s-10.667 20.5 -20 20.5c-10 0 -19 -5.66699 -27 -17s-14.667 -24.666 -20 -39.999s-9.33301 -30.666 -12 -45.999s-4 -26.666 -4 -33.999c0 -15.333 2.16699 -31.166 6.5 -47.499s10.166 -31 17.499 -44s16 -23.667 26 -32s20.667 -12.5 32 -12.5
c18 0 34.333 5.83301 49 17.5s27.334 26.667 38.001 45s19 39 25 62s9 45.5 9 67.5c0 30.667 -6.16699 57.834 -18.5 81.501s-32.833 37.5 -61.5 41.5l-11 54c1.33301 0 8 3.16699 20 9.5s25 15.833 39 28.5s26.833 29 38.5 49s17.5 43.333 17.5 70
c0 13.333 -1.16699 26.166 -3.5 38.499s-6.33301 23.333 -12 33s-12.834 17.334 -21.501 23.001s-19 8.5 -31 8.5s-22.667 -2.83301 -32 -8.5s-17.166 -13 -23.499 -22s-11.5 -19.167 -15.5 -30.5s-6.33301 -23 -7 -35c0 -6 0.5 -12.5 1.5 -19.5s2.66699 -13.667 5 -20
s5.33301 -11.5 9 -15.5s7.83398 -6 12.501 -6c9.33301 0 16.333 4.83301 21 14.5s7.33398 18.5 8.00098 26.5c0 4.66699 -0.666992 9 -2 13l37 19c1.33301 -4.66699 2.16602 -9.66699 2.49902 -15s0.5 -10.666 0.5 -15.999c-0.666992 -10 -2.66699 -20 -6 -30
s-8.33301 -19 -15 -27s-15.167 -14.5 -25.5 -19.5s-22.5 -7.5 -36.5 -7.5c-15.333 0 -28.5 3 -39.5 9s-20 13.5 -27 22.5s-12.167 19 -15.5 30s-5 21.5 -5 31.5c0 17.333 3.16699 34.5 9.5 51.5s16.166 32.167 29.499 45.5s30 24.166 50 32.499s43.333 12.5 70 12.5
c24 0 45.167 -3.83301 63.5 -11.5s33.5 -17.834 45.5 -30.501s21 -27.334 27 -44.001s9 -34 9 -52z" />
    <glyph glyph-name="four" unicode="4" horiz-adv-x="391" 
d="M290 259h102.001l-3 -40h-102l-17 -221l-72 5l16 218l-200 2c-1.33301 5.33301 -3.33301 10.666 -6 15.999l-6.5 15.5c-2.33301 5.66699 -4.83301 10.834 -7.5 15.501c21.333 33.333 39.833 65.166 55.5 95.499s29.834 60.833 42.501 91.5s24.167 62.334 34.5 95.001
s20.166 68 29.499 106l72 -18c-8.66699 -37.333 -17.667 -71.333 -27 -102s-19.833 -60.667 -31.5 -90s-24.834 -59 -39.501 -89s-31.667 -63 -51 -99l140 1l28 420l72 -5z" />
    <glyph glyph-name="five" unicode="5" horiz-adv-x="407" 
d="M70 420c2.66699 0.666992 5.66504 2.00195 8.99805 4.00195s6.66602 3.66699 9.99902 5l47 229h259v-69h-221l-27 -141c6.66699 1.33301 14 3 22 5c15.333 3.33301 33.666 5 54.999 5c26.667 0 49.5 -4.83301 68.5 -14.5s34.5 -22.667 46.5 -39s20.667 -35 26 -56
s8 -43.167 8 -66.5c0 -33.333 -4.83301 -67.666 -14.5 -102.999s-23.5 -67.333 -41.5 -96s-40.167 -52.167 -66.5 -70.5s-56.166 -27.5 -89.499 -27.5c-23.333 0 -43.666 5 -60.999 15s-31.833 23 -43.5 39s-20.334 34.167 -26.001 54.5s-8.5 41.166 -8.5 62.499
s2.83301 42.5 8.5 63.5s14 39.667 25 56s24.5 29.666 40.5 39.999s34.667 15.5 56 15.5c13.333 0 24.833 -3.16699 34.5 -9.5s17.5 -14.666 23.5 -24.999s10.5 -22 13.5 -35s4.5 -26.167 4.5 -39.5c0 -28 -4.66699 -50.167 -14 -66.5s-23 -24.5 -41 -24.5
c-12.667 0 -26 9 -40 27l29 26c1.33301 -2 3 -4 5 -6c4 -4 6.66699 -6 8 -6c2.66699 0 4.83398 3.83301 6.50098 11.5s2.5 16.5 2.5 26.5c0 8 -0.5 16.5 -1.5 25.5s-2.66699 17.333 -5 25s-5.33301 14 -9 19s-8.16699 7.5 -13.5 7.5c-9.33301 0 -17.666 -5 -24.999 -15
s-13.333 -22 -18 -36s-8.16699 -28.333 -10.5 -43s-3.5 -26.667 -3.5 -36c0 -16 1.33301 -31.833 4 -47.5s7 -30 13 -43s13.333 -23.5 22 -31.5s19 -12 31 -12c18.667 0 35.5 8.16699 50.5 24.5s27.833 36.833 38.5 61.5s19 52 25 82s9 58.333 9 85
c0 17.333 -1.66699 33.666 -5 48.999s-8.66602 28.666 -15.999 39.999s-16.833 20.333 -28.5 27s-25.5 10 -41.5 10c-22 0 -42.5 -2.83301 -61.5 -8.5s-35.167 -11.5 -48.5 -17.5z" />
    <glyph glyph-name="six" unicode="6" horiz-adv-x="406" 
d="M209 128c9.33301 0 14.999 7.66602 16.999 22.999l39 -3c-2.66699 -17.333 -8.83398 -31.166 -18.501 -41.499s-23.167 -15.5 -40.5 -15.5c-11.333 0 -21.5 3 -30.5 9s-16.5 14 -22.5 24s-10.5 21.667 -13.5 35s-4.5 27.333 -4.5 42c0 19.333 3 38.666 9 57.999
s14.5 36.666 25.5 51.999s24.333 28 40 38s33.167 15 52.5 15c22.667 0 41.834 -4.16699 57.501 -12.5s28.334 -19.666 38.001 -33.999s16.667 -30.833 21 -49.5s6.5 -38 6.5 -58c0 -26 -4.16699 -52 -12.5 -78s-20.333 -49.5 -36 -70.5s-34.334 -38 -56.001 -51
s-46.167 -19.5 -73.5 -19.5c-32.667 0 -60.334 6.83301 -83.001 20.5s-41.167 32 -55.5 55s-24.666 49.833 -30.999 80.5s-9.5 63 -9.5 97c0 59.333 9.5 115.5 28.5 168.5s43.5 99.333 73.5 139s63.5 71.167 100.5 94.5s73.833 35 110.5 35l2 -46
c-18 0 -40.333 -9.16699 -67 -27.5s-52.667 -44.833 -78 -79.5s-47 -77 -65 -127s-27 -106.667 -27 -170c0 -26.667 2.66699 -52.334 8 -77.001s12.666 -46.167 21.999 -64.5s20.333 -33 33 -44s26.334 -16.5 41.001 -16.5c14 0 27 5.66699 39 17s22.5 25.666 31.5 42.999
s16.167 36.833 21.5 58.5s8 42.834 8 63.501c0 14 -1 27.833 -3 41.5s-5 25.834 -9 36.501s-9 19.334 -15 26.001s-13 10 -21 10c-9.33301 0 -19 -3.16699 -29 -9.5s-19.167 -15 -27.5 -26s-15.166 -24.167 -20.499 -39.5s-8 -32 -8 -50c0 -8 0.666992 -16.333 2 -25
s3.33301 -16.5 6 -23.5s6 -12.667 10 -17s8.66699 -6.5 14 -6.5z" />
    <glyph glyph-name="seven" unicode="7" horiz-adv-x="394" 
d="M25 650l369 0.000976562l7 -63c-34.667 -44 -67 -95.667 -97 -155c-12.667 -25.333 -25.5 -53.5 -38.5 -84.5s-25.167 -64.5 -36.5 -100.5s-21.5 -74.667 -30.5 -116s-16.167 -85 -21.5 -131l-90 6c7.33301 64.667 20.666 131.334 39.999 200.001
c8 29.333 17.833 60.5 29.5 93.5s25.167 66.667 40.5 101s32.833 69.166 52.5 104.499s41.834 69.666 66.501 102.999h-191l20 -50l-76 -28z" />
    <glyph glyph-name="eight" unicode="8" horiz-adv-x="445" 
d="M301 349c9.33301 -6 19.1699 -13.999 29.5029 -23.999s20 -21.5 29 -34.5s16.5 -27.333 22.5 -43s9 -32.167 9 -49.5c0 -28.667 -4.83301 -56.167 -14.5 -82.5s-23.167 -49.166 -40.5 -68.499s-38.333 -34.833 -63 -46.5s-51.667 -17.5 -81 -17.5
c-26 0 -48.667 4.83301 -68 14.5s-35.333 22.5 -48 38.5s-22.167 34.167 -28.5 54.5s-9.5 41.166 -9.5 62.499c0 20 3 39.833 9 59.5s14.5 37.5 25.5 53.5s24.5 28.833 40.5 38.5s33.667 14.5 53 14.5c14 0 26.333 -3.5 37 -10.5s19.5 -16 26.5 -27s12.333 -23.667 16 -38
s5.5 -28.5 5.5 -42.5c0 -30 -5.33301 -53.833 -16 -71.5s-25 -26.5 -43 -26.5c-12.667 0 -25.667 9 -39 27l30 26c1.33301 -2 3 -4 5 -6c4 -4 6.66699 -6 8 -6c3.33301 0 6 5.5 8 16.5s3 22.5 3 34.5c0 7.33301 -0.666992 15.666 -2 24.999s-3.33301 18 -6 26
s-6 14.833 -10 20.5s-8.33301 8.5 -13 8.5c-9.33301 0 -17.333 -3.16699 -24 -9.5s-12.334 -14.666 -17.001 -24.999s-8 -22.333 -10 -36s-3 -27.834 -3 -42.501c0 -18 1.5 -35.833 4.5 -53.5s7.66699 -33.5 14 -47.5s14 -25.5 23 -34.5s19.5 -13.5 31.5 -13.5
c18 0 33.5 5.33301 46.5 16s24 24.5 33 41.5s15.667 36.333 20 58s6.5 43.5 6.5 65.5c0 27.333 -5.33301 50 -16 68s-23.834 33.5 -39.501 46.5s-32.834 25 -51.501 36s-35.834 23.333 -51.501 37s-28.834 30 -39.501 49s-16 43.167 -16 72.5c0 22 3.5 43.5 10.5 64.5
s17.333 39.667 31 56s30.5 29.5 50.5 39.5s43 15 69 15c22.667 0 43.167 -4.5 61.5 -13.5s34 -21.167 47 -36.5s23.167 -33 30.5 -53s11 -41 11 -63c0 -18 -3 -35.5 -9 -52.5s-13.667 -32.667 -23 -47s-19.666 -27 -30.999 -38s-22.666 -19.5 -33.999 -25.5z
M224.004 377.001c4.66699 -2 9 -3.66504 13 -4.99805s8 -2 12 -2c13.333 0 24.166 5 32.499 15s15 22 20 36s8.5 28.5 10.5 43.5s3 27.5 3 37.5c0 16 -0.5 32.667 -1.5 50s-3.83301 33.333 -8.5 48s-11.167 26.667 -19.5 36s-20.166 14 -35.499 14
c-12 0 -22.833 -4.16699 -32.5 -12.5s-18.167 -19.333 -25.5 -33s-13 -29.334 -17 -47.001s-6 -36.167 -6 -55.5c0 -28.667 5 -54.834 15 -78.501s23.333 -39.167 40 -46.5z" />
    <glyph glyph-name="nine" unicode="9" horiz-adv-x="418" 
d="M55 506c0.666992 16.667 3.6709 34.8301 9.00391 54.4971s13.833 38 25.5 55s27.167 31.167 46.5 42.5s43.666 17 72.999 17c37.333 0 67.5 -10.667 90.5 -32s41 -47.666 54 -78.999s21.833 -65.333 26.5 -102s7 -70 7 -100c0 -42.667 -3.5 -86.167 -10.5 -130.5
s-18.5 -84.166 -34.5 -119.499s-37.333 -64.333 -64 -87s-59.667 -34 -99 -34c-18.667 0 -36.167 3.33301 -52.5 10s-30.5 16.5 -42.5 29.5s-21.5 29 -28.5 48s-10.5 41.167 -10.5 66.5c0 17.333 2.5 34.333 7.5 51s12.167 31.334 21.5 44.001s20.833 22.834 34.5 30.501
s28.834 11.5 45.501 11.5c14.667 0 27.167 -3.5 37.5 -10.5s18.666 -15.833 24.999 -26.5s10.833 -22.667 13.5 -36s4 -26.333 4 -39c0 -19.333 -4 -36 -12 -50s-20.333 -21 -37 -21c-9.33301 0 -20.333 6.33301 -33 19l25 26c0 -0.666992 1.5 -2.16699 4.5 -4.5
s5.5 -3.5 7.5 -3.5c4 1.33301 6 8 6 20c0 2.66699 -0.5 8.83398 -1.5 18.501s-2.83301 19.667 -5.5 30s-6.5 19.666 -11.5 27.999s-11.167 12.5 -18.5 12.5c-8 0 -14.5 -3.16699 -19.5 -9.5s-8.66699 -14.333 -11 -24s-4 -19.834 -5 -30.501s-1.5 -20 -1.5 -28
c0 -43.333 6.83301 -75.833 20.5 -97.5s30.834 -32.5 51.501 -32.5c20 0 36.667 9.83301 50 29.5s24.166 44.167 32.499 73.5s14.333 61 18 95s5.5 65.667 5.5 95c0 6.66699 -0.333008 11 -1 13c-12 -13.333 -25.333 -22.666 -40 -27.999s-29.334 -8 -44.001 -8
c-32.667 0 -59.334 7.33301 -80.001 22s-36.834 32.5 -48.501 53.5s-19.667 43.167 -24 66.5s-6.5 43.666 -6.5 60.999v10zM283.004 529.996c-6 30 -14.834 55.499 -26.501 76.499s-27.834 31.5 -48.501 31.5c-17.333 0 -31 -6 -41 -18s-17.667 -25.667 -23 -41
s-8.66602 -30.666 -9.99902 -45.999s-2 -26.666 -2 -33.999c0 -18 2 -37.333 6 -58s9.83301 -39.5 17.5 -56.5s16.834 -31.167 27.501 -42.5s22.667 -17 36 -17c15.333 0 27.5 4.16699 36.5 12.5s16.167 19 21.5 32s8.83301 27.833 10.5 44.5s2.5 33 2.5 49
c0 12.667 -0.833008 25.167 -2.5 37.5s-3.16699 22.166 -4.5 29.499z" />
    <glyph glyph-name="colon" unicode=":" horiz-adv-x="358" 
d="M258 406l-12 -118l-95 10l12 118zM219 88l-12 -118l-95 10l12 118z" />
    <glyph glyph-name="semicolon" unicode=";" 
d="M258 406l-12 -118l-95 10l12 118zM180 121c21.333 -13.333 35.5 -29.9961 42.5 -49.9961s10.5 -39.667 10.5 -59c0 -20.667 -3.83301 -40.334 -11.5 -59.001s-17.167 -35.334 -28.5 -50.001s-23.5 -27 -36.5 -37s-25.167 -16.333 -36.5 -19l-22 27
c24 17.333 40 36.666 48 57.999s12 40.666 12 57.999c0 13.333 -4.83301 26.5 -14.5 39.5s-20.167 22.833 -31.5 29.5z" />
    <glyph glyph-name="less" unicode="&#x3c;" horiz-adv-x="636" 
d="M506 27l-84.998 31.001c-32 12 -64.333 25.333 -97 40s-64.834 30.167 -96.501 46.5s-59.834 32.666 -84.501 48.999s-44.5 32.333 -59.5 48s-22.5 30.167 -22.5 43.5c0 12 4.66699 23.833 14 35.5s21.166 22.834 35.499 33.501s30 20.667 47 30s33.5 17.666 49.5 24.999
l33.5 15.5l50.5 23.5l59 28l58 29l47.5 24.5c13.667 7 22.834 12.5 27.501 16.5l46 -77c-5.33301 -5.33301 -15.166 -12.166 -29.499 -20.499s-31.166 -17.333 -50.499 -27l-61.5 -30l-62.5 -29l-54 -24c-16 -7 -28.333 -11.833 -37 -14.5
c-10 -3.33301 -20.5 -7.5 -31.5 -12.5l-31 -14.5c-9.66699 -4.66699 -17.667 -8.83398 -24 -12.501s-9.5 -6.5 -9.5 -8.5c0 -4 5.66699 -10.5 17 -19.5s26.666 -19.833 45.999 -32.5s41.666 -26.167 66.999 -40.5l80.5 -43.5c28.333 -14.667 57.5 -28.5 87.5 -41.5
s58.667 -24.5 86 -34.5z" />
    <glyph glyph-name="equal" unicode="=" horiz-adv-x="605" 
d="M537 313h-436v72h436v-72zM537 174h-436v72h436v-72z" />
    <glyph glyph-name="greater" unicode="&#x3e;" horiz-adv-x="650" 
d="M141 547c25.333 -8 53.832 -18.1689 85.499 -30.502s63.834 -25.833 96.501 -40.5s64.834 -30.167 96.501 -46.5s59.834 -32.666 84.501 -48.999s44.5 -32.333 59.5 -48s22.5 -30.167 22.5 -43.5c0 -12 -4.66699 -23.833 -14 -35.5s-21.166 -22.834 -35.499 -33.501
s-30 -20.667 -47 -30s-33.5 -17.666 -49.5 -24.999c-6.66699 -3.33301 -17.667 -8.5 -33 -15.5l-51 -23.5l-59 -28l-58 -29l-47.5 -25c-13.667 -7.33301 -22.834 -12.666 -27.501 -15.999l-46 77c5.33301 5.33301 15.166 12.166 29.499 20.499s31.166 17.333 50.499 27
l61.5 30l62.5 29l54 23.5c16 6.66699 28.333 11.667 37 15c10 3.33301 20.5 7.5 31.5 12.5l31 14.5c9.66699 4.66699 17.667 8.83398 24 12.501s9.5 6.5 9.5 8.5c0 4 -5.66699 10.5 -17 19.5s-26.5 19.833 -45.5 32.5s-41.333 26.167 -67 40.5l-81 43.5
c-28.333 14.667 -57.5 28.5 -87.5 41.5s-58.667 24.5 -86 34.5z" />
    <glyph glyph-name="question" unicode="?" horiz-adv-x="556" 
d="M252 103v-109h-84v108zM320 623c-3.33301 -12 -7.83105 -24.665 -13.498 -37.998s-12.834 -25.5 -21.501 -36.5s-18.5 -20.167 -29.5 -27.5s-23.5 -11 -37.5 -11c-30.667 0 -55.667 11.333 -75 34s-29 53 -29 91c0 24 4.16699 48 12.5 72s21.166 45.5 38.499 64.5
s39.333 34.5 66 46.5s58.334 18 95.001 18c60.667 0 109.167 -15.5 145.5 -46.5s54.5 -77.5 54.5 -139.5c0 -39.333 -7.33301 -73.5 -22 -102.5s-33.167 -55 -55.5 -78s-46.333 -44.333 -72 -64s-49.667 -40.167 -72 -61.5s-40.833 -44.666 -55.5 -69.999s-22 -55 -22 -89
c0 -8.66699 0.333008 -16.334 1 -23.001s1.66699 -11.667 3 -15h-49c-0.666992 5.33301 -1.16699 11.333 -1.5 18s-0.5 13.667 -0.5 21c0 35.333 6 66.333 18 93s27 51.167 45 73.5s37.667 43.833 59 64.5s41 42.5 59 65.5s33 48.167 45 75.5s18 59.333 18 96
c0 19.333 -2 37.833 -6 55.5s-10 33.167 -18 46.5s-17.833 23.833 -29.5 31.5s-25.167 11.5 -40.5 11.5c-24.667 0 -45.667 -6.16699 -63 -18.5s-31.333 -27.5 -42 -45.5s-18.5 -36.833 -23.5 -56.5s-7.5 -36.5 -7.5 -50.5c0 -8.66699 0.5 -17.5 1.5 -26.5
s2.5 -17.167 4.5 -24.5s4.83301 -13.333 8.5 -18s8.16699 -7.33398 13.5 -8.00098c9.33301 0 17.666 4.16699 24.999 12.5s13.5 17.666 18.5 27.999s9 19.833 12 28.5l4.5 13z" />
    <glyph glyph-name="at" unicode="@" horiz-adv-x="649" 
d="M396 618c41.333 0 76.499 -7.50195 105.499 -22.502s53 -34.5 72 -58.5s32.833 -51.167 41.5 -81.5s13 -61.166 13 -92.499c0 -44.667 -5.83301 -82.167 -17.5 -112.5s-25.667 -55 -42 -74s-33.5 -32.667 -51.5 -41s-33.333 -12.5 -46 -12.5
c-22.667 0 -40.667 8.16699 -54 24.5s-22 38.5 -26 66.5c-6.66699 -10.667 -14.5 -21.5 -23.5 -32.5s-19.167 -21 -30.5 -30s-23.333 -16.333 -36 -22s-26 -8.5 -40 -8.5c-19.333 0 -35.666 6.33301 -48.999 19s-20 33.667 -20 63s6.33301 57.666 19 84.999
s29.334 51.5 50.001 72.5s43.834 37.833 69.501 50.5s51.834 19 78.501 19c5.33301 0 10 -0.166992 14 -0.5s7.66699 -0.5 11 -0.5v-36c-18 0 -36.667 -5 -56 -15s-37.166 -24 -53.499 -42s-29.833 -39.167 -40.5 -63.5s-16 -50.833 -16 -79.5c0 -19.333 4 -29 12 -29
c12.667 0 26.167 7.33301 40.5 22s27.666 32 39.999 52s23 40.5 32 61.5s14.5 38.167 16.5 51.5l53 -12c-1.33301 -7.33301 -3.16602 -20 -5.49902 -38s-3.5 -35.667 -3.5 -53c0 -10 0.666992 -20 2 -30s3 -19 5 -27s4.33301 -14.5 7 -19.5s5.66699 -7.5 9 -7.5
c7.33301 0 14.666 6.83301 21.999 20.5s13.833 30.5 19.5 50.5s10.334 41.333 14.001 64s5.5 43 5.5 61c0 28.667 -3.16699 56.667 -9.5 84s-15.5 51.666 -27.5 72.999s-26.833 38.5 -44.5 51.5s-38.167 19.5 -61.5 19.5c-30.667 0 -60.334 -10.167 -89.001 -30.5
s-54 -47 -76 -80s-39.667 -70.333 -53 -112s-20 -83.5 -20 -125.5c0 -29.333 3.5 -59.666 10.5 -90.999s17.833 -59.833 32.5 -85.5s33.167 -46.667 55.5 -63s48.5 -24.5 78.5 -24.5c10.667 0 22 1.33301 34 4s24.167 7 36.5 13s24.333 13.667 36 23
s22.5 20.666 32.5 33.999l34 -25c-26.667 -32 -54.834 -54.5 -84.501 -67.5s-59.834 -19.5 -90.501 -19.5c-47.333 0 -88 8.83301 -122 26.5s-61.833 40.834 -83.5 69.501s-37.667 60.834 -48 96.501s-15.5 71.834 -15.5 108.501c0 46.667 8.16699 92.667 24.5 138
s39.166 85.833 68.499 121.5s64.5 64.5 105.5 86.5s86.167 33 135.5 33z" />
    <glyph glyph-name="A" unicode="A" horiz-adv-x="786" 
d="M543 424c0 25.333 1 55 3 89s4.33301 66.667 7 98c2.66699 36.667 5.66699 74 9 112l-39.5 -84l-46 -93.5l-45.5 -88.5c-14.667 -28 -27.667 -51.333 -39 -70l36 10.5l32.5 9c11 3 23 5.83301 36 8.5s28.5 5.66699 46.5 9zM640 397
c0 -68 6.00391 -127.828 18.0039 -179.495s25.333 -95.5 40 -131.5c17.333 -41.333 36.666 -77.333 57.999 -108l-79 -38c-23.333 27.333 -44.333 61.666 -63 102.999c-16 36 -30.833 81.833 -44.5 137.5s-21.5 123.5 -23.5 203.5l-61 -12
c-16.667 -3.33301 -31.834 -6.83301 -45.501 -10.5s-26.334 -7.33398 -38.001 -11.001s-24.5 -8.16699 -38.5 -13.5c-32 -58.667 -66.167 -112 -102.5 -160s-72.5 -89.167 -108.5 -123.5s-71 -61 -105 -80s-64.333 -28.5 -91 -28.5c-17.333 0 -32.5 3.83301 -45.5 11.5
s-23.667 17.667 -32 30s-14.5 26.166 -18.5 41.499s-6 30.333 -6 45c0 33.333 6.66699 67 20 101s30.833 64.667 52.5 92s46 49.833 73 67.5s53.833 26.5 80.5 26.5c14.667 0 27 -2.33301 37 -7s18 -10.834 24 -18.501s10.333 -16 13 -25s4 -17.833 4 -26.5
c0 -21.333 -4.16699 -41.5 -12.5 -60.5s-15.5 -31.167 -21.5 -36.5h-39c2 2 4.83301 6.83301 8.5 14.5s7.33398 16.667 11.001 27s7 21.333 10 33s4.5 21.834 4.5 30.501c0 9.33301 -1.66699 16.333 -5 21s-9.66602 7 -18.999 7c-19.333 0 -39.333 -9.33301 -60 -28
s-39.5 -41.834 -56.5 -69.501s-31 -57.334 -42 -89.001s-16.5 -60.167 -16.5 -85.5c0 -16.667 3 -29.667 9 -39s15 -14 27 -14c17.333 0 39.166 7 65.499 21s54.666 34.833 84.999 62.5s61.666 62 93.999 103s63.5 88.167 93.5 141.5l-38 -13l-18 33
c1.33301 0.666992 6.33301 2.5 15 5.5l29 10.5c12 4.66699 26 9.66699 42 15l54.5 93l53 97.5l48 93.5l40 81c11.667 24 21 43.833 28 59.5s11.167 25.5 12.5 29.5l91 -13c-2 -20.667 -3.66699 -45.167 -5 -73.5s-2.66602 -59 -3.99902 -92s-2.33301 -67.667 -3 -104
s-1 -72.5 -1 -108.5c9.33301 1.33301 18.5 2.5 27.5 3.5s17.167 2.16699 24.5 3.5c8.66699 1.33301 17 2.33301 25 3l4 -37l-26 -4c-16.667 -2 -34.334 -4.66699 -53.001 -8z" />
    <glyph glyph-name="B" unicode="B" horiz-adv-x="536" 
d="M156 -81c-20 2 -37.335 6.83594 -52.002 14.5029s-27 17.5 -37 29.5s-17.333 25.333 -22 40s-7 30 -7 46c0 22 3.83301 44 11.5 66s18.334 41.833 32.001 59.5s29.667 32 48 43s38.5 16.5 60.5 16.5c10 0 18.667 -2.33301 26 -7s13.333 -10.834 18 -18.501
s8 -16.5 10 -26.5s3 -20 3 -30s-1 -19.5 -3 -28.5s-4.66699 -16.167 -8 -21.5l-28 25c3.33301 5.33301 5 14 5 26c0 10 -1.5 19.833 -4.5 29.5s-7.16699 14.5 -12.5 14.5c-10.667 0 -21.167 -5.5 -31.5 -16.5s-19.5 -24.333 -27.5 -40s-14.5 -32.5 -19.5 -50.5
s-7.5 -34 -7.5 -48c0 -25.333 4.66699 -46.666 14 -63.999s26 -26 50 -26c24.667 0 50.667 9.66699 78 29s52.5 44.166 75.5 74.499s42 64.666 57 102.999s22.5 76.5 22.5 114.5c0 18.667 -3.16699 36.5 -9.5 53.5s-16 32 -29 45s-29.667 23.5 -50 31.5s-44.5 12 -72.5 12
c-16 0 -32.833 -1.33301 -50.5 -4s-36.167 -7.33398 -55.5 -14.001l-1 5.5c-0.666992 3.66699 -1.5 7.5 -2.5 11.5l-3 11.5l-1.5 5.5c71.333 21.333 125.833 49.666 163.5 84.999s56.5 83 56.5 143c0 18 -4.83301 34 -14.5 48s-22.5 25.667 -38.5 35
s-34.167 16.333 -54.5 21s-41.166 7 -62.499 7h-12c-4 0 -8 -0.333008 -12 -1l-68 -546l-54 5l74 600l54 -6l-3 -24c5.33301 0 10.333 0.333008 15 1c4 0.666992 8.5 1 13.5 1h12.5c29.333 0 59 -2.66699 89 -8s57.5 -13.833 82.5 -25.5s45.333 -26.5 61 -44.5
s23.5 -40 23.5 -66c0 -25.333 -7 -49.5 -21 -72.5s-29.667 -43.167 -47 -60.5c-20 -20.667 -42.667 -40 -68 -58c27.333 -5.33301 52.666 -13.666 75.999 -24.999s43.5 -25.166 60.5 -41.499s30.5 -34.833 40.5 -55.5s15 -43.334 15 -68.001c0 -32 -5.5 -63.167 -16.5 -93.5
s-25.833 -58.666 -44.5 -84.999s-40 -50.5 -64 -72.5s-48.833 -40.833 -74.5 -56.5s-51.167 -27.834 -76.5 -36.501s-48.666 -13 -69.999 -13z" />
    <glyph glyph-name="C" unicode="C" horiz-adv-x="644" 
d="M647 349c-15.333 -54.667 -38.8301 -104.669 -70.4971 -150.002s-68 -84.333 -109 -117s-84.833 -58.167 -131.5 -76.5s-92.667 -27.5 -138 -27.5c-18 0 -38.333 2.66699 -61 8s-44.167 16.166 -64.5 32.499s-37.5 39.5 -51.5 69.5s-21 69.667 -21 119
c0 53.333 6.16699 106 18.5 158s29.666 101.833 51.999 149.5s49.166 91.834 80.499 132.501s65.5 75.834 102.5 105.501s76.667 53 119 70s85.833 25.5 130.5 25.5c35.333 0 63.166 -8 83.499 -24s30.5 -39.667 30.5 -71c0 -21.333 -4.66699 -44.833 -14 -70.5
s-23 -49.5 -41 -71.5s-40.167 -40.333 -66.5 -55s-56.5 -22 -90.5 -22c-22 0 -39.5 6.33301 -52.5 19s-19.5 28.667 -19.5 48c0 15.333 3.83301 29.833 11.5 43.5s20.834 28.834 39.501 45.501l22 -33c-8.66699 -4 -16.5 -11.167 -23.5 -21.5s-10.5 -21.833 -10.5 -34.5
c0 -22 11 -33 33 -33c14 0 28.667 5.16699 44 15.5s29.5 23.833 42.5 40.5s23.667 36 32 58s12.5 44.333 12.5 67c0 15.333 -3 28.833 -9 40.5s-14.667 17.5 -26 17.5c-22.667 0 -48.167 -7.16699 -76.5 -21.5s-57.166 -34.333 -86.499 -60s-57.833 -56.5 -85.5 -92.5
s-52.334 -75.5 -74.001 -118.5s-39.167 -89 -52.5 -138s-20 -99.167 -20 -150.5c0 -29.333 1.5 -56.333 4.5 -81s8.16699 -46 15.5 -64s17.166 -32 29.499 -42s27.5 -15 45.5 -15c34.667 0 72.167 8.5 112.5 25.5s79 40.167 116 69.5s70.167 63.5 99.5 102.5
s51 80.833 65 125.5z" />
    <glyph glyph-name="D" unicode="D" horiz-adv-x="575" 
d="M0 57c0 20 3.66504 40.3252 10.998 60.9922s17.5 39.334 30.5 56.001s28.5 30.334 46.5 41.001s38 16 60 16c19.333 0 32.666 -7.66699 39.999 -23s11 -32 11 -50c0 -11.333 -1 -21.833 -3 -31.5s-4.66699 -17.5 -8 -23.5l-27 18c2 4 3.5 9.16699 4.5 15.5
s1.5 13.166 1.5 20.499c0 10.667 -1.33301 20.5 -4 29.5s-7.66699 13.5 -15 13.5c-12 0 -23 -4.83301 -33 -14.5s-18.667 -22 -26 -37s-13 -31.5 -17 -49.5s-6 -35.667 -6 -53c0 -27.333 4.33301 -49.166 13 -65.499s22.334 -25.166 41.001 -26.499
c16.667 0 36.334 6.5 59.001 19.5s46.5 31.333 71.5 55s49.667 52.167 74 85.5s46.166 70 65.499 110s35 82.833 47 128.5s18 92.834 18 141.501c0 36.667 -3.66699 70.834 -11 102.501s-20.666 59.167 -39.999 82.5s-45.5 41.666 -78.5 54.999s-75.5 20 -127.5 20
c-12 0 -24.5 -0.333008 -37.5 -1s-26.5 -1.66699 -40.5 -3l-62 -538l-54 5l71 611l54 -6l-3 -24c46 6 87 9 123 9c60.667 0 111.334 -8 152.001 -24s73.334 -37 98.001 -63s42.167 -55.833 52.5 -89.5s15.5 -68.5 15.5 -104.5c0 -56 -7.33301 -110 -22 -162
s-34 -100.5 -58 -145.5s-51.333 -86 -82 -123s-62.334 -68.667 -95.001 -95s-64.834 -46.666 -96.501 -60.999s-60.167 -21.5 -85.5 -21.5c-22 0 -41 3.83301 -57 11.5s-29.167 17.834 -39.5 30.501s-18.166 27.334 -23.499 44.001s-8 34.334 -8 53.001z" />
    <glyph glyph-name="E" unicode="E" horiz-adv-x="559" 
d="M10 135c0 30 5.50391 59.332 16.5039 87.999s26.5 55.5 46.5 80.5s44.167 47.333 72.5 67s59.833 35.5 94.5 47.5c-50 19.333 -86.333 45.5 -109 78.5s-34 67.833 -34 104.5c0 28 6.16699 55.5 18.5 82.5s29.833 51.333 52.5 73s50.167 39 82.5 52
s68.166 19.5 107.499 19.5c22 0 43 -3.66699 63 -11s37.667 -18 53 -32s27.666 -31 36.999 -51s14 -42.667 14 -68c0 -20.667 -4 -40.5 -12 -59.5s-19.333 -36 -34 -51s-31.834 -27 -51.501 -36s-41.167 -13.5 -64.5 -13.5c-12.667 0 -23.667 2.5 -33 7.5
s-16.666 11.5 -21.999 19.5s-9.33301 16.833 -12 26.5s-4 19.167 -4 28.5c0 8 0.833008 15.5 2.5 22.5s3.83398 12.833 6.50098 17.5l34 -22c-1.33301 -2 -2.5 -4.66699 -3.5 -8s-1.5 -7 -1.5 -11c0 -10 2.33301 -20.333 7 -31s10.667 -16 18 -16c10 0 20 3.83301 30 11.5
s19.167 17.667 27.5 30s15.166 26 20.499 41s8 29.833 8 44.5c0 18.667 -2.66699 35.5 -8 50.5s-12.5 28 -21.5 39s-19 19.5 -30 25.5s-22.167 9 -33.5 9c-24.667 0 -46.834 -6 -66.501 -18s-36.334 -27.667 -50.001 -47s-24 -41.166 -31 -65.499s-10.5 -48.833 -10.5 -73.5
c0 -30.667 6.5 -56.667 19.5 -78s27.167 -38.666 42.5 -51.999c18 -16 38.667 -28.667 62 -38l-21 -57c-54 -17.333 -97 -46.666 -129 -87.999s-48 -90.333 -48 -147c0 -24.667 3.33301 -47.667 10 -69s16 -39.666 28 -54.999s26.167 -27.5 42.5 -36.5
s34.5 -13.5 54.5 -13.5c28 0 55.167 8.66699 81.5 26s49.833 40.666 70.5 69.999s37.167 63.5 49.5 102.5s18.5 79.833 18.5 122.5c0 22 -2.83301 40.833 -8.5 56.5s-14.834 23.5 -27.501 23.5c-14 0 -29 -6.83301 -45 -20.5s-30.833 -30.5 -44.5 -50.5s-25 -41.5 -34 -64.5
s-13.5 -44.167 -13.5 -63.5c0 -8 1.33301 -15.333 4 -22s7.33398 -10 14.001 -10c6 0 11.333 1.66699 16 5c2.66699 2 4.66699 3.66699 6 5l26 -21c-6.66699 -6.66699 -14.5 -12.167 -23.5 -16.5s-18.5 -6.5 -28.5 -6.5c-17.333 0 -31.166 5.66699 -41.499 17
s-15.5 27.333 -15.5 48s4.5 44.167 13.5 70.5s21.833 51 38.5 74s36.5 42.5 59.5 58.5s48.833 24 77.5 24c16 0 31 -3.66699 45 -11s26.167 -17.333 36.5 -30s18.5 -27.834 24.5 -45.501s9 -36.834 9 -57.501v-16.5c0 -5.66699 -0.666992 -11.167 -2 -16.5
c-8 -48 -22.167 -90 -42.5 -126s-45 -66.167 -74 -90.5s-61 -42.5 -96 -54.5s-71.167 -18 -108.5 -18c-32.667 0 -62.834 5.5 -90.501 16.5s-51.5 26.167 -71.5 45.5s-35.667 42.5 -47 69.5s-17 56.5 -17 88.5z" />
    <glyph glyph-name="F" unicode="F" horiz-adv-x="538" 
d="M454 714c0.666992 -1.33301 1.66797 -8 3.00098 -20s2.83301 -27.167 4.5 -45.5s3 -39.166 4 -62.499s1.5 -47.333 1.5 -72v-34c0 -11.333 -0.666992 -22.666 -2 -33.999c20 3.33301 41.167 6 63.5 8s45.5 3 69.5 3l-2 -42c-24.667 0 -48.167 -1.16699 -70.5 -3.5
s-43.833 -5.16602 -64.5 -8.49902c-8 -80.667 -20.667 -151.667 -38 -213s-37.833 -112.5 -61.5 -153.5s-50 -72 -79 -93s-59.167 -31.5 -90.5 -31.5c-24.667 0 -46 5.16699 -64 15.5s-32.833 24.166 -44.5 41.499s-20.334 38 -26.001 62s-8.5 49.333 -8.5 76
c0 30 4.16699 60 12.5 90s19.833 56.833 34.5 80.5s31.5 43 50.5 58s39.5 22.5 61.5 22.5c16 0 29 -3.5 39 -10.5s17.833 -15.667 23.5 -26s9.66699 -21.833 12 -34.5s3.5 -24.667 3.5 -36c0 -22 -2.33301 -37.667 -7 -47l-37 -13c1.33301 2 2.33301 7.33301 3 16
s1 18.667 1 30c0 9.33301 -0.5 19 -1.5 29s-2.5 19 -4.5 27s-4.83301 14.667 -8.5 20s-8.5 8 -14.5 8c-14.667 0 -27.5 -7.16699 -38.5 -21.5s-20.167 -33 -27.5 -56s-12.666 -48.833 -15.999 -77.5s-5 -57 -5 -85c0 -40.667 3.83301 -73.167 11.5 -97.5
s19.5 -36.5 35.5 -36.5s33.5 9.33301 52.5 28s37.667 46.167 56 82.5s35.166 81.666 50.499 135.999s27.333 117.5 36 189.5c-11.333 -3.33301 -21.833 -6.66602 -31.5 -9.99902s-17.834 -6.33301 -24.501 -9c-7.33301 -2.66699 -14 -5.33398 -20 -8.00098l-20 37
c0.666992 0 10 3.5 28 10.5s42 14.833 72 23.5c1.33301 9.33301 2.33301 20.166 3 32.499s1 28.166 1 47.499c0 22.667 -0.166992 46.834 -0.5 72.501s-1.16602 49.5 -2.49902 71.5c-1.33301 26 -2.33301 51.667 -3 77zM61.001 424
c-8.66699 0 -19.1641 1.99512 -31.4971 5.99512s-24 11.833 -35 23.5s-20.333 27.834 -28 48.501s-11.5 47.334 -11.5 80.001c0 42 6.33301 79 19 111s30 58.667 52 80s47.667 37.5 77 48.5s60.666 16.5 93.999 16.5c24 0 50 -2 78 -6s56.333 -8.5 85 -13.5
s57.167 -9.5 85.5 -13.5s54.833 -6 79.5 -6c32 0 58.167 1 78.5 3s36.5 4.66699 48.5 8c14 3.33301 24.667 7 32 11l15 -41c-10.667 -4.66699 -24.667 -8.66699 -42 -12c-14.667 -3.33301 -33 -6.16602 -55 -8.49902s-49 -3.5 -81 -3.5c-28.667 0 -57 2 -85 6
s-55.167 8.5 -81.5 13.5s-51.833 9.5 -76.5 13.5s-48 6 -70 6c-32.667 0 -60 -6 -82 -18s-39.833 -28.333 -53.5 -49s-23.334 -44.334 -29.001 -71.001s-8.5 -54.667 -8.5 -84c0 -13.333 0.666992 -26.166 2 -38.499s3.5 -23.166 6.5 -32.499s6.83301 -16.833 11.5 -22.5
s10 -8.5 16 -8.5c14 0 27.167 6.5 39.5 19.5s23 28.833 32 47.5s16.167 38.167 21.5 58.5s8 37.833 8 52.5c0 9.33301 -1.16699 18.333 -3.5 27s-5.83301 13 -10.5 13c-2.66699 0 -6.66699 -1.33301 -12 -4c-2.66699 -1.33301 -4.66699 -2.66602 -6 -3.99902l-26 29
c7.33301 5.33301 15.333 10 24 14s17.667 6 27 6c15.333 0 26.5 -7.83301 33.5 -23.5s10.5 -35.5 10.5 -59.5c0 -20 -3 -42.833 -9 -68.5s-15.167 -50 -27.5 -73s-27.833 -42.333 -46.5 -58s-40.334 -23.5 -65.001 -23.5z" />
    <glyph glyph-name="G" unicode="G" horiz-adv-x="536" 
d="M513 607c0 -21.333 -0.5 -50.502 -1.5 -87.502s-3.33301 -78.333 -7 -124s-9.16699 -94.334 -16.5 -146.001s-17 -102.834 -29 -153.501s-26.833 -99.167 -44.5 -145.5s-39 -87.166 -64 -122.499s-54.167 -63.5 -87.5 -84.5s-71.333 -31.5 -114 -31.5
c-37.333 0 -68.333 12.333 -93 37s-37 64.667 -37 120c0 22 3.16699 43.167 9.5 63.5s15.166 38.333 26.499 54s25 28.334 41 38.001s33.667 14.5 53 14.5c10.667 0 19.834 -2.5 27.501 -7.5s13.834 -11.667 18.501 -20s8 -17.5 10 -27.5s3 -20 3 -30
c0 -19.333 -3 -34.333 -9 -45l-29 24c1.33301 2 2.33301 5 3 9s1 8.33301 1 13c0 11.333 -1.5 22.166 -4.5 32.499s-7.83301 15.5 -14.5 15.5c-8.66699 0 -16.834 -4.16699 -24.501 -12.5s-14.5 -19.166 -20.5 -32.499s-10.667 -28.166 -14 -44.499s-5 -32.5 -5 -48.5
c0 -18 2 -34.333 6 -49s9.16699 -27.334 15.5 -38.001s13.666 -18.834 21.999 -24.501s16.5 -8.5 24.5 -8.5c24.667 0 48 9.66699 70 29s42.333 46 61 80s35.5 73.833 50.5 119.5s28.167 94.667 39.5 147s20.833 106.833 28.5 163.5s13.167 112.667 16.5 168
c-16 -52 -36.833 -100.833 -62.5 -146.5s-53.167 -85.667 -82.5 -120s-59.166 -61.5 -89.499 -81.5s-58.5 -30 -84.5 -30c-10.667 0 -22.834 1.66699 -36.501 5s-26.167 10 -37.5 20s-21 23.833 -29 41.5s-12 40.834 -12 69.501c0 34 4.66699 70.833 14 110.5
s22.666 79.667 39.999 120s38.333 79.333 63 117s52.5 71 83.5 100s64.667 52.167 101 69.5s74.833 26 115.5 26l3 -72c-30 0 -59.333 -8.33301 -88 -25s-55.667 -38.667 -81 -66s-48.666 -58.5 -69.999 -93.5s-39.666 -70.833 -54.999 -107.5s-27.333 -72.667 -36 -108
s-13 -67 -13 -95c0 -27.333 4.5 -46 13.5 -56s18.833 -15 29.5 -15c5.33301 0 9.33301 0.333008 12 1c28 7.33301 56.5 23.333 85.5 48s57 57.834 84 99.501s52 91.334 75 149.001s42.833 123.167 59.5 196.5v63l86 -30v-35z" />
    <glyph glyph-name="H" unicode="H" horiz-adv-x="819" 
d="M819 36c-14 -30 -31.9971 -51.5 -53.9971 -64.5s-43.667 -19.5 -65 -19.5c-16 0 -30.667 3.33301 -44 10c-20.667 10.667 -38.334 25.167 -53.001 43.5s-26.334 39.333 -35.001 63s-15 48.667 -19 75s-6 52.833 -6 79.5c0 20.667 0.666992 40.5 2 59.5l4 54.5
c-45.333 -8 -86.166 -16.167 -122.499 -24.5s-65.166 -16.166 -86.499 -23.499c-12.667 -56 -27 -106.667 -43 -152s-34.833 -84 -56.5 -116s-46.834 -56.667 -75.501 -74s-62 -26 -100 -26c-16.667 0 -32.334 3.66699 -47.001 11s-27.5 17.666 -38.5 30.999
s-19.667 29.666 -26 48.999s-9.5 41 -9.5 65c0 22 3.66699 43.333 11 64s17.333 38.834 30 54.501s27.667 28.334 45 38.001s35.666 14.5 54.999 14.5c10.667 0 19.834 -2.66699 27.501 -8s13.834 -12 18.501 -20s8 -17 10 -27s3 -20 3 -30
c0 -9.33301 -0.666992 -17.833 -2 -25.5s-3.66602 -14.167 -6.99902 -19.5l-29 23c2.66699 4.66699 4 12.334 4 23.001s-1.5 21.167 -4.5 31.5s-7.83301 15.5 -14.5 15.5c-8.66699 0 -17.334 -4.16699 -26.001 -12.5s-16.667 -19.166 -24 -32.499s-13.333 -28 -18 -44
s-7 -32 -7 -48c0 -38 5.5 -67.833 16.5 -89.5s25.833 -32.5 44.5 -32.5c21.333 0 41.166 8.16699 59.499 24.5s35 38.833 50 67.5s28.333 62.5 40 101.5s21.5 81.167 29.5 126.5c6 35.333 11 65.833 15 91.5s7.16699 49 9.5 70s4 40.667 5 59s1.5 37.166 1.5 56.499
c0 13.333 -0.166992 26.833 -0.5 40.5s-0.833008 29.167 -1.5 46.5c-0.666992 21.333 -3 41.333 -7 60s-9.5 35 -16.5 49s-15.667 25 -26 33s-21.833 12 -34.5 12c-7.33301 0 -15.666 -2 -24.999 -6c-19.333 -8 -36.666 -21.5 -51.999 -40.5s-28.333 -40.667 -39 -65
s-18.834 -50 -24.501 -77s-8.5 -52.833 -8.5 -77.5c0 -13.333 1 -26.166 3 -38.499s5 -23.333 9 -33s8.66699 -17.334 14 -23.001s11.333 -8.5 18 -8.5c14 0 27.167 6.5 39.5 19.5s23 28.833 32 47.5s16 38.334 21 59.001s7.5 38.334 7.5 53.001
c0 9.33301 -1.16699 18.333 -3.5 27s-5.83301 13 -10.5 13c-2.66699 0 -6.66699 -1.33301 -12 -4c-2.66699 -1.33301 -4.66699 -3 -6 -5l-26 29c7.33301 5.33301 15.166 10.166 23.499 14.499s17.166 6.5 26.499 6.5c15.333 0 26.666 -7.66699 33.999 -23s11 -35.333 11 -60
c0 -20 -3 -42.833 -9 -68.5s-15.167 -50 -27.5 -73s-27.833 -42.333 -46.5 -58s-40.334 -23.5 -65.001 -23.5c-8.66699 0 -19.167 1.83301 -31.5 5.5s-24.333 10.834 -36 21.501s-21.5 25.167 -29.5 43.5s-12 41.833 -12 70.5c0 7.33301 0.333008 15 1 23
s1.66699 16.667 3 26c6 41.333 16.333 78.166 31 110.499s32.334 59.5 53.001 81.5s43.5 38.833 68.5 50.5s50.833 17.5 77.5 17.5c17.333 0 35.5 -3.16699 54.5 -9.5s36.333 -17.333 52 -33s28.667 -37 39 -64s15.5 -61.167 15.5 -102.5c0 -32.667 -0.5 -62 -1.5 -88
s-2.5 -50.167 -4.5 -72.5s-4.33301 -43.333 -7 -63s-5.66699 -39.5 -9 -59.5c25.333 8 55.333 15.667 90 23s72.667 14.666 114 21.999l1 3c7.33301 48 15.5 95 24.5 141l25.5 125l28 124l94 -4c-0.666992 0 -3.16699 -9 -7.5 -27l-15.5 -67.5l-19 -88.5l-18.5 -90
l-14.5 -71.5c-4 -19.667 -6.33301 -30.834 -7 -33.501c21.333 2 42.333 3 63 3l-4 -40c-20.667 0 -42 -1 -64 -3c-3.33301 -23.333 -6 -48.833 -8 -76.5s-3 -55.5 -3 -83.5c0 -22.667 1.16699 -45.834 3.5 -69.501s6.5 -45 12.5 -64s13.833 -34.667 23.5 -47
s21.834 -18.5 36.501 -18.5c13.333 0 27.5 5 42.5 15s26.5 22.333 34.5 37z" />
    <glyph glyph-name="I" unicode="I" horiz-adv-x="472" 
d="M223 371c-4 9.33301 -8.00195 21 -12.002 35s-7.33301 29.333 -10 46s-4.83398 33.834 -6.50098 51.501s-2.5 34.5 -2.5 50.5c0 41.333 3.66699 78.833 11 112.5s16.833 62.5 28.5 86.5s25 42.5 40 55.5s30.167 19.5 45.5 19.5c21.333 0 40 -5.5 56 -16.5
s29.5 -26.333 40.5 -46s19.333 -43.167 25 -70.5s8.5 -57.666 8.5 -90.999c0 -34 -2 -70.833 -6 -110.5s-9.83301 -79.5 -17.5 -119.5s-17.5 -79.167 -29.5 -117.5s-26 -73.833 -42 -106.5c-20 -41.333 -40.333 -76.333 -61 -105s-41.5 -51.834 -62.5 -69.501
s-42.167 -30.5 -63.5 -38.5s-43.333 -12 -66 -12c-23.333 0 -44 4.66699 -62 14s-33 22.166 -45 38.499s-21.167 35.166 -27.5 56.499s-9.5 44 -9.5 68c0 22 3.66699 43.333 11 64s17.333 38.834 30 54.501s27.667 28.334 45 38.001s35.666 14.5 54.999 14.5
c10.667 0 19.834 -2.66699 27.501 -8s13.834 -12 18.501 -20s8 -17 10 -27s3 -20 3 -30c0 -9.33301 -0.666992 -17.833 -2 -25.5s-3.66602 -14.167 -6.99902 -19.5l-29 23c2.66699 4.66699 4 12.334 4 23.001s-1.5 21.167 -4.5 31.5s-7.83301 15.5 -14.5 15.5
c-12 0 -22.333 -3.83301 -31 -11.5s-16 -18 -22 -31s-10.5 -27.5 -13.5 -43.5s-4.5 -32.667 -4.5 -50c0 -16.667 1.5 -33 4.5 -49s7.5 -30.167 13.5 -42.5s13.5 -22.333 22.5 -30s19.5 -11.5 31.5 -11.5c17.333 0 35.5 7.66699 54.5 23s37.667 37 56 65s36 61.667 53 101
s32 83 45 131s23.333 100 31 156s11.5 114.333 11.5 175c0 23.333 -1.16699 45.666 -3.5 66.999s-5.16602 40 -8.49902 56s-7 28.833 -11 38.5s-7.66699 14.5 -11 14.5c-6.66699 0 -13.5 -6.16699 -20.5 -18.5s-13 -29.333 -18 -51s-9.16699 -47.167 -12.5 -76.5
s-5 -61.333 -5 -96c0 -52.667 4.66699 -106.334 14 -161.001z" />
    <glyph glyph-name="J" unicode="J" horiz-adv-x="485" 
d="M369 778c-11.333 -5.33301 -23.668 -9.33496 -37.001 -12.002s-26.666 -4 -39.999 -4l-77 8c-20.667 0 -38.834 -7.16699 -54.501 -21.5s-28.667 -32.333 -39 -54s-18.166 -45.334 -23.499 -71.001s-8 -50.167 -8 -73.5c0 -16 0.833008 -31.667 2.5 -47
s4.33398 -29 8.00098 -41s8.33398 -21.5 14.001 -28.5s12.834 -10.5 21.501 -10.5c13.333 0 25.666 6.33301 36.999 19s21.5 28.334 30.5 47.001s16 38.667 21 60s7.5 40.333 7.5 57c0 8 -0.666992 16.333 -2 25s-4 13 -8 13c-4.66699 0 -9.33398 -1.66699 -14.001 -5
c-2.66699 -2 -5 -4 -7 -6l-20 23c5.33301 6 11.5 11.167 18.5 15.5s14.833 6.5 23.5 6.5c13.333 0 24.166 -7 32.499 -21s12.5 -31.667 12.5 -53c0 -22.667 -3 -47.167 -9 -73.5s-14.833 -50.833 -26.5 -73.5s-26 -41.5 -43 -56.5s-36.167 -22.5 -57.5 -22.5
c-7.33301 0 -17.5 1.5 -30.5 4.5s-25.667 10.833 -38 23.5s-23.166 31.5 -32.499 56.5s-14 59.833 -14 104.5c0 32 4.5 62.5 13.5 91.5s21.5 54.167 37.5 75.5s35 38.333 57 51s46 19 72 19c15.333 0 31.666 -2 48.999 -6s32 -6 44 -6c19.333 0 34.666 2.5 45.999 7.5
s20.333 10.5 27 16.5c7.33301 7.33301 12.666 15.333 15.999 24l72 -30v-29c0 -20 -0.5 -48 -1.5 -84s-3.33301 -76.833 -7 -122.5s-9.16699 -94.334 -16.5 -146.001s-17.166 -103 -29.499 -154s-27.666 -99.833 -45.999 -146.5s-40.5 -87.834 -66.5 -123.501
s-56.167 -64.167 -90.5 -85.5s-73.833 -32 -118.5 -32c-16.667 0 -32.334 3.66699 -47.001 11s-27.5 17.666 -38.5 30.999s-19.667 29.666 -26 48.999s-9.5 41 -9.5 65c0 22 3.66699 43.333 11 64s17.333 38.834 30 54.501s27.667 28.334 45 38.001s35.666 14.5 54.999 14.5
c10.667 0 19.834 -2.66699 27.501 -8s13.834 -12 18.501 -20s8 -17 10 -27s3 -20 3 -30c0 -9.33301 -0.666992 -17.833 -2 -25.5s-3.66602 -14.167 -6.99902 -19.5l-29 23c2.66699 4.66699 4 12.334 4 23.001s-1.5 21.167 -4.5 31.5s-7.83301 15.5 -14.5 15.5
c-8.66699 0 -17.334 -4.16699 -26.001 -12.5s-16.667 -19.166 -24 -32.499s-13.333 -28 -18 -44s-7 -32 -7 -48c0 -38 5.5 -67.833 16.5 -89.5s25.833 -32.5 44.5 -32.5c34 0 64.5 13.333 91.5 40s51 62.167 72 106.5s39 95.833 54 154.5s27.333 119.834 37 183.501
s16.667 127.834 21 192.501s6.5 125.667 6.5 183z" />
    <glyph glyph-name="K" unicode="K" horiz-adv-x="702" 
d="M285 753c-5.33301 -3.33301 -12.499 -5.66602 -21.499 -6.99902s-18.167 -2 -27.5 -2c-16.667 0 -32.834 1.5 -48.501 4.5s-31.167 4.5 -46.5 4.5c-20.667 0 -38.834 -7 -54.501 -21s-28.834 -31.833 -39.501 -53.5s-18.667 -45.334 -24 -71.001s-8 -50.167 -8 -73.5
c0 -16 0.833008 -31.667 2.5 -47s4.33398 -29 8.00098 -41s8.5 -21.5 14.5 -28.5s13 -10.5 21 -10.5c13.333 0 25.833 6.33301 37.5 19s21.834 28.167 30.501 46.5s15.5 38.166 20.5 59.499s7.5 40.333 7.5 57c0 8 -0.5 16.333 -1.5 25s-3.83301 13 -8.5 13
c-4 0 -8.33301 -1.66699 -13 -5s-7.33398 -5 -8.00098 -5l-20 22c12.667 14.667 26.667 22 42 22c14 0 25.167 -7 33.5 -21s12.5 -31.667 12.5 -53c0 -22.667 -3 -47.167 -9 -73.5s-14.833 -50.833 -26.5 -73.5s-26 -41.5 -43 -56.5s-36.5 -22.5 -58.5 -22.5
c-7.33301 0 -17.333 1.5 -30 4.5s-25.334 10.833 -38.001 23.5s-23.5 31.667 -32.5 57s-13.5 60.333 -13.5 105c0 32.667 4.66699 63.334 14 92.001s22 53.667 38 75s35 38.166 57 50.499s46 18.5 72 18.5c15.333 0 31.5 -1.83301 48.5 -5.5s31.5 -5.5 43.5 -5.5
c19.333 0 34.666 2.5 45.999 7.5s20.333 10.5 27 16.5c7.33301 7.33301 12.666 15 15.999 23l72 -30c0 -2.66699 -0.166992 -16.167 -0.5 -40.5s-1.66602 -55.333 -3.99902 -93s-5.83301 -80.5 -10.5 -128.5s-11.334 -97.333 -20.001 -148c16 22.667 38.333 50.5 67 83.5
l91 102l94.5 101.5l78.5 82l36 -23l-69.5 -72.5l-68.5 -73.5l-62.5 -69c-19.667 -22 -37 -42.167 -52 -60.5s-27.167 -34 -36.5 -47s-14.666 -22.167 -15.999 -27.5c0.666992 -6.66699 4 -20.667 10 -42s14.167 -45.833 24.5 -73.5s22.333 -57 36 -88s28.667 -59.333 45 -85
s33.333 -46.834 51 -63.501s35.167 -25 52.5 -25c6.66699 0 13.5 2.5 20.5 7.5s13.5 11.5 19.5 19.5s11 17 15 27s6.33301 20 7 30l18 6c5.33301 2 11.333 3.66699 18 5c0 -22 -3.33301 -41.5 -10 -58.5s-15.5 -31.5 -26.5 -43.5s-23.333 -21 -37 -27s-27.167 -9 -40.5 -9
c-23.333 0 -45.666 5.83301 -66.999 17.5s-41.333 27 -60 46s-36 40.667 -52 65s-30.5 49 -43.5 74s-24.5 49.5 -34.5 73.5s-18.333 45 -25 63c-10.667 -48.667 -23.834 -95.5 -39.501 -140.5s-34.5 -84.667 -56.5 -119s-47.5 -61.833 -76.5 -82.5s-62.167 -31 -99.5 -31
c-16.667 0 -32.334 3.66699 -47.001 11s-27.5 17.666 -38.5 30.999s-19.667 29.666 -26 48.999s-9.5 41 -9.5 65c0 22 3.66699 43.333 11 64s17.333 38.834 30 54.501s27.667 28.334 45 38.001s35.666 14.5 54.999 14.5c10.667 0 19.834 -2.66699 27.501 -8
s13.834 -12 18.501 -20s8 -17 10 -27s3 -20 3 -30c0 -9.33301 -0.666992 -17.833 -2 -25.5s-3.66602 -14.167 -6.99902 -19.5l-29 23c2.66699 4.66699 4 12.334 4 23.001s-1.5 21.167 -4.5 31.5s-7.83301 15.5 -14.5 15.5c-8.66699 0 -17.334 -4.16699 -26.001 -12.5
s-16.667 -19.166 -24 -32.499s-13.333 -28 -18 -44s-7 -32 -7 -48c0 -38 5.16699 -67.667 15.5 -89s22.833 -32 37.5 -32c22 0 42.833 11.667 62.5 35s37.834 55 54.501 95s31.834 86.333 45.501 139s25.334 108.5 35.001 167.5s17.167 119.333 22.5 181s8 121.167 8 178.5z
" />
    <glyph glyph-name="L" unicode="L" horiz-adv-x="587" 
d="M574 75c-10.667 -20 -21.9971 -36.3379 -33.9971 -49.0049s-24.333 -22.334 -37 -29.001s-25.167 -11.167 -37.5 -13.5s-24.166 -3.5 -35.499 -3.5c-20 0 -37.167 2.66699 -51.5 8s-27.666 11 -39.999 17l-36.5 17c-12 5.33301 -26 8 -42 8
c-21.333 0 -44.833 -3.83301 -70.5 -11.5s-49.5 -16.167 -71.5 -25.5c-26 -10.667 -52 -22.667 -78 -36l-40 50l12.5 8.5c8.33301 5.66699 18.5 16.667 30.5 33s25 39.833 39 70.5s27.333 71 40 121c5.33301 19.333 10.166 44.833 14.499 76.5l14 101
c5 35.667 10.333 71.5 16 107.5s12.167 68 19.5 96c12 43.333 26.833 78.5 44.5 105.5s36.667 48.333 57 64s40.833 26.334 61.5 32.001s39.667 8.5 57 8.5c53.333 0 92 -16.833 116 -50.5s36 -77.5 36 -131.5c0 -40.667 -5.5 -74.667 -16.5 -102s-24.5 -49.333 -40.5 -66
s-32.833 -28.667 -50.5 -36s-33.167 -11 -46.5 -11c-16.667 0 -31 3.83301 -43 11.5s-22 17.167 -30 28.5s-13.833 23.833 -17.5 37.5s-5.5 26.834 -5.5 39.501c0 13.333 1.83301 27.166 5.5 41.499s8.66699 27.333 15 39s14.166 21.334 23.499 29.001s19.333 11.5 30 11.5
c14 0 26 -5.66699 36 -17l-22 -24l-3 3c-2 2 -5.33301 3 -10 3c-5.33301 0 -10.333 -2.5 -15 -7.5s-8.5 -11.5 -11.5 -19.5s-5.33301 -16.5 -7 -25.5s-2.5 -17.5 -2.5 -25.5c0 -10 1.16699 -20 3.5 -30s5.83301 -19 10.5 -27s10.5 -14.333 17.5 -19s15.167 -7 24.5 -7
c10 0 19.833 4.83301 29.5 14.5s18.5 22.834 26.5 39.501s14.5 36.334 19.5 59.001s7.5 47.334 7.5 74.001c0 41.333 -7.16699 73.333 -21.5 96s-33.5 34 -57.5 34c-28 0 -53.667 -13.833 -77 -41.5s-41.333 -64.5 -54 -110.5c-7.33301 -27.333 -14.166 -59.333 -20.499 -96
s-12.333 -74.667 -18 -114s-11.5 -77.833 -17.5 -115.5s-12.667 -71.167 -20 -100.5c-8.66699 -36 -17.667 -65.5 -27 -88.5s-17.666 -41.167 -24.999 -54.5c-8.66699 -16 -17.334 -27.667 -26.001 -35c14 6.66699 29 12.667 45 18c13.333 4.66699 28.166 8.66699 44.499 12
s32.166 5 47.499 5s30.5 -2.66699 45.5 -8s29.667 -11.166 44 -17.499s28.166 -12.166 41.499 -17.499s25.666 -8 36.999 -8c6.66699 0 14.667 0.666992 24 2s19 4.33301 29 9s20.167 11.667 30.5 21s19.5 21.666 27.5 36.999z" />
    <glyph glyph-name="M" unicode="M" horiz-adv-x="1019" 
d="M328 617c-6.66699 -107.333 -20.001 -204.004 -40.001 -290.004s-44.5 -159.333 -73.5 -220s-61.667 -107.167 -98 -139.5s-74.5 -48.5 -114.5 -48.5c-21.333 0 -39.333 3.83301 -54 11.5s-26.5 17.667 -35.5 30s-15.5 26.166 -19.5 41.499s-6 30.666 -6 45.999
c0 21.333 3.66699 43.166 11 65.499s17.5 42.5 30.5 60.5s28.667 32.667 47 44s38.833 17 61.5 17c10 0 18.5 -2.5 25.5 -7.5s12.667 -11.5 17 -19.5s7.5 -17 9.5 -27s3 -20 3 -30c0 -19.333 -3 -34.666 -9 -45.999l-29 24c2.66699 4.66699 4 12 4 22
c0 10.667 -1.66699 21.334 -5 32.001s-8 16 -14 16c-10 0 -19.667 -5 -29 -15s-17.833 -22.5 -25.5 -37.5s-13.834 -31.167 -18.501 -48.5s-7 -33 -7 -47c0 -13.333 1 -26.166 3 -38.499s5.16699 -23.333 9.5 -33s9.83301 -17.334 16.5 -23.001s14.334 -8.5 23.001 -8.5h6.5
c2.33301 0 4.83301 0.666992 7.5 2c20 6.66699 39.5 23.834 58.5 51.501s37 62 54 103s32.667 87.167 47 138.5s26.666 104.166 36.999 158.499s18.333 108 24 161s8.5 102.167 8.5 147.5c0 18.667 -0.5 36.5 -1.5 53.5s-2.83301 33.167 -5.5 48.5l108 -43l141 -587l247 610
l73 -34c-2 -68 -3 -130 -3 -186c0 -90.667 3 -171.167 9 -241.5s13.833 -129.5 23.5 -177.5s20.334 -84.5 32.001 -109.5s23.5 -37.5 35.5 -37.5c6 0 11.667 1.5 17 4.5s10.333 6.5 15 10.5s8.66699 8.16699 12 12.5s5.33301 7.83301 6 10.5l36 -15
c-2 -5.33301 -5.83301 -11.666 -11.5 -18.999s-12.667 -14.166 -21 -20.499s-17.666 -11.666 -27.999 -15.999s-21.5 -6.5 -33.5 -6.5c-34 0 -62.333 11.833 -85 35.5s-41.167 60.834 -55.5 111.501s-25.5 115.834 -33.5 195.501s-14.333 175.5 -19 287.5l-211 -517l-35 6z
" />
    <glyph glyph-name="N" unicode="N" horiz-adv-x="834" 
d="M143 876c17.333 0 35.498 -3.16992 54.498 -9.50293s36.333 -17.333 52 -33s28.667 -37 39 -64s15.5 -61.167 15.5 -102.5v-70c0 -34 -0.333008 -63 -1 -87s-1.66699 -47.333 -3 -70c13.333 34 29.166 70.667 47.499 110s39.333 75.5 63 108.5s50 60.5 79 82.5
s60.167 33 93.5 33c36 0 60.333 -16.333 73 -49s19 -78 19 -136c0 -4.66699 -0.5 -17.167 -1.5 -37.5l-3.5 -72.5c-1.33301 -28 -2.83301 -57.833 -4.5 -89.5l-4.5 -89l-3.5 -70.5c-1 -19.333 -1.5 -31 -1.5 -35c0 -18.667 0.833008 -36.167 2.5 -52.5
s4.83398 -30.666 9.50098 -42.999s11 -22.166 19 -29.499s18.333 -11 31 -11c9.33301 0 18.833 1.83301 28.5 5.5s18.334 7.83398 26.001 12.501s13.834 9 18.501 13l7 6l22 -24c0 -1.33301 -3 -4.83301 -9 -10.5s-14.5 -11.834 -25.5 -18.501s-24 -12.5 -39 -17.5
s-31.5 -7.5 -49.5 -7.5c-24 0 -44.5 4.33301 -61.5 13s-30.833 20.667 -41.5 36s-18.5 33.333 -23.5 54s-7.5 42.667 -7.5 66c3.33301 74.667 7.16602 149.167 11.499 223.5s7.83301 147.5 10.5 219.5c-0.666992 24.667 -2.83398 44.167 -6.50098 58.5
s-10.834 21.5 -21.501 21.5h-3c-24 -4 -47.667 -18.167 -71 -42.5s-45.666 -55.666 -66.999 -93.999s-41.333 -81.666 -60 -129.999s-35.667 -98 -51 -149s-28.666 -102 -39.999 -153s-20 -98.167 -26 -141.5l-81 18c5.33301 32 10.333 65.333 15 100l13.5 99.5
c5 36.333 9.16699 73.166 12.5 110.499c6.66699 62.667 11.5 121.667 14.5 177s4.5 108.333 4.5 159c0 23.333 -1.66699 45.666 -5 66.999s-8.5 40.166 -15.5 56.499s-15.667 29.333 -26 39s-22.833 14.5 -37.5 14.5c-24.667 0 -46.167 -9.5 -64.5 -28.5
s-33.833 -42.167 -46.5 -69.5s-22.167 -56.333 -28.5 -87s-9.5 -57.667 -9.5 -81c0 -13.333 1 -26.166 3 -38.499s5 -23.333 9 -33s8.66699 -17.334 14 -23.001s11.333 -8.5 18 -8.5c14 0 27.167 6.5 39.5 19.5s23 29 32 48s16 38.833 21 59.5s7.5 38.334 7.5 53.001
c0 8.66699 -1.16699 17.334 -3.5 26.001s-5.83301 13 -10.5 13c-2.66699 0 -6.66699 -1.33301 -12 -4c-2.66699 -1.33301 -4.66699 -3 -6 -5l-27 29c7.33301 5.33301 15.333 10.166 24 14.499s17.334 6.5 26.001 6.5c15.333 0 26.833 -7.66699 34.5 -23
s11.5 -35.333 11.5 -60c0 -20.667 -3.5 -44 -10.5 -70s-17 -50.333 -30 -73s-28.5 -41.667 -46.5 -57s-38.333 -23 -61 -23c-31.333 0 -57.333 11.167 -78 33.5s-31 58.166 -31 107.499c0 44 6.5 84.833 19.5 122.5s30.5 70.334 52.5 98.001s47 49.334 75 65.001
s57 23.5 87 23.5z" />
    <glyph glyph-name="O" unicode="O" horiz-adv-x="539" 
d="M0 278c0 69.333 10.3271 136.331 30.9941 200.998s48.334 123 83.001 175s74.834 95.667 120.501 131s93.834 58 144.501 68l18 -75c-48.667 -16 -91.667 -41.167 -129 -75.5s-68.666 -74.333 -93.999 -120s-44.666 -95.667 -57.999 -150s-20 -109.833 -20 -166.5
c0 -20 1.33301 -43.167 4 -69.5s8 -51.5 16 -75.5s19.333 -44.333 34 -61s34 -25 58 -25c33.333 0 64.833 14.167 94.5 42.5s55.834 65.166 78.501 110.499s40.667 96.333 54 153s20 113.667 20 171c0 25.333 -1.83301 46.333 -5.5 63s-8.33398 29.834 -14.001 39.501
s-11.667 16.5 -18 20.5s-12.166 6 -17.499 6c-12.667 0 -25.334 -3.5 -38.001 -10.5s-22.667 -14.167 -30 -21.5c-4 6.66699 -7.83301 12.334 -11.5 17.001l-11.5 15c5.33301 6 12.333 12.167 21 18.5s18.5 11.833 29.5 16.5s22.667 8.5 35 11.5s24.5 4.5 36.5 4.5
c19.333 0 35.833 -5.5 49.5 -16.5s24.834 -25.167 33.501 -42.5s15 -36.666 19 -57.999s6 -42 6 -62c0 -32 -2.66699 -66.833 -8 -104.5s-13.833 -75.5 -25.5 -113.5s-26.5 -74.667 -44.5 -110s-39.5 -66.833 -64.5 -94.5s-54 -49.667 -87 -66s-69.833 -24.5 -110.5 -24.5
c-24.667 0 -49 5 -73 15s-45.333 26 -64 48s-33.667 50.667 -45 86s-17 78.333 -17 129z" />
    <glyph glyph-name="P" unicode="P" horiz-adv-x="627" 
d="M277 712c13.333 19.333 27.8301 38.166 43.4971 56.499s32.667 34.666 51 48.999s38 25.833 59 34.5s43.5 13 67.5 13c19.333 0 38.333 -5.33301 57 -16s35.334 -25.834 50.001 -45.501s26.5 -43.334 35.5 -71.001s13.5 -58.167 13.5 -91.5
c0 -38.667 -5.16699 -74 -15.5 -106s-23.833 -60.833 -40.5 -86.5s-35.5 -48.167 -56.5 -67.5s-42.167 -35.333 -63.5 -48s-41.833 -22.167 -61.5 -28.5s-36.167 -9.5 -49.5 -9.5c-14 0 -25.667 0.5 -35 1.5s-17 2.16699 -23 3.5c-7.33301 2 -13 3.66699 -17 5l10 35
c4 -1.33301 9 -2.66602 15 -3.99902c5.33301 -1.33301 11.5 -2.5 18.5 -3.5s15.167 -1.5 24.5 -1.5c18 0 38.333 5.66699 61 17s44.334 29.5 65.001 54.5s38 57.333 52 97s21 87.834 21 144.501c0 23.333 -2 45.333 -6 66s-9.33301 38.667 -16 54s-14.5 27.333 -23.5 36
s-18.5 13 -28.5 13c-33.333 0 -62.333 -14.833 -87 -44.5s-45.834 -68.334 -63.501 -116.001s-32.5 -102 -44.5 -163s-22.333 -122.667 -31 -185s-16.334 -122.833 -23.001 -181.5s-13 -110 -19 -154l-81 18c0.666992 2 2.5 14.5 5.5 37.5s6.66699 52.833 11 89.5l14 124
c5 46 9.66699 93 14 141s8 95.167 11 141.5s4.5 87.5 4.5 123.5c0 22 -1.83301 43.167 -5.5 63.5s-9.16699 38 -16.5 53s-16.166 27 -26.499 36s-22.166 13.5 -35.499 13.5c-7.33301 0 -15.666 -2 -24.999 -6c-19.333 -8 -36.666 -21.5 -51.999 -40.5
s-28.333 -40.667 -39 -65s-18.834 -50 -24.501 -77s-8.5 -52.833 -8.5 -77.5c0 -13.333 1 -26.166 3 -38.499s5 -23.333 9 -33s8.66699 -17.334 14 -23.001s11.333 -8.5 18 -8.5c14 0 27.167 6.5 39.5 19.5s23 29 32 48s16 38.833 21 59.5s7.5 38.334 7.5 53.001
c0 8.66699 -1.16699 17.334 -3.5 26.001s-5.83301 13 -10.5 13c-2.66699 0 -6.66699 -1.33301 -12 -4c-2.66699 -1.33301 -4.66699 -3 -6 -5l-27 29c7.33301 5.33301 15.333 10.166 24 14.499s17.334 6.5 26.001 6.5c15.333 0 26.833 -7.66699 34.5 -23
s11.5 -35.333 11.5 -60c0 -20 -3 -42.833 -9 -68.5s-15.167 -50 -27.5 -73s-27.833 -42.333 -46.5 -58s-40.334 -23.5 -65.001 -23.5c-8.66699 0 -19.167 1.83301 -31.5 5.5s-24.333 10.834 -36 21.501s-21.5 25.167 -29.5 43.5s-12 41.833 -12 70.5
c0 7.33301 0.333008 15 1 23s1.66699 16.667 3 26c6.66699 44 18.167 82.667 34.5 116s35.833 61 58.5 83s47.5 38.5 74.5 49.5s54.5 16.5 82.5 16.5c21.333 0 39.666 -4 54.999 -12s28.333 -18.5 39 -31.5s19.334 -27.667 26.001 -44s12 -33.166 16 -50.499z" />
    <glyph glyph-name="Q" unicode="Q" horiz-adv-x="539" 
d="M280 190l57.9971 -68.0039c16 24 30.833 51.333 44.5 82s25.167 63.167 34.5 97.5s16.666 70 21.999 107s8 73.833 8 110.5c0 25.333 -1.5 45.833 -4.5 61.5s-6.66699 28 -11 37s-9.33301 15.167 -15 18.5s-11.167 5 -16.5 5c-12.667 0 -25.334 -3.5 -38.001 -10.5
s-22.667 -14.167 -30 -21.5c-4 6.66699 -7.83301 12.334 -11.5 17.001l-11.5 15c5.33301 6 12.333 12.167 21 18.5s18.5 11.833 29.5 16.5s22.667 8.5 35 11.5s24.5 4.5 36.5 4.5c19.333 0 35.833 -5.5 49.5 -16.5s24.834 -25.167 33.501 -42.5s15 -36.666 19 -57.999
s6 -42 6 -62c0 -38 -2.83301 -76.667 -8.5 -116s-14.667 -78 -27 -116s-28.666 -74.667 -48.999 -110s-45.5 -67.666 -75.5 -96.999l99 -116l-62 -53l-104 121c-34 -17.333 -71.667 -26 -113 -26c-24.667 0 -49 5 -73 15s-45.333 26 -64 48s-33.667 50.667 -45 86
s-17 78.333 -17 129c0 69.333 10.333 136.333 31 201s48.334 123 83.001 175s74.834 95.667 120.501 131s93.834 58 144.501 68l21 -85c-48.667 -16 -91.167 -40.833 -127.5 -74.5s-66.833 -73 -91.5 -118s-43.167 -94.333 -55.5 -148s-18.5 -108.834 -18.5 -165.501
c0 -20 0.833008 -43 2.5 -69s5.66699 -50.667 12 -74s16.333 -43.166 30 -59.499s32.5 -24.5 56.5 -24.5c13.333 0 26 2.33301 38 7s24 11.334 36 20.001l-64 75z" />
    <glyph glyph-name="R" unicode="R" horiz-adv-x="717" 
d="M716 75c-7.33301 -19.333 -16.666 -36.666 -27.999 -51.999c-9.33301 -13.333 -21.5 -25.333 -36.5 -36s-32.833 -16 -53.5 -16c-18.667 0 -37 5.33301 -55 16s-35.167 24.667 -51.5 42s-31.833 37.166 -46.5 59.499s-28 45.166 -40 68.499
c-28.667 54.667 -55 116.667 -79 186l9 35l12 -5c8.66699 -3.33301 19.667 -5 33 -5c27.333 0 53.333 8.5 78 25.5s46.334 39.833 65.001 68.5s33.5 61.667 44.5 99s16.5 76.333 16.5 117c0 44 -8.16699 77.5 -24.5 100.5s-33.5 34.5 -51.5 34.5
c-33.333 0 -62.333 -14.833 -87 -44.5s-45.834 -68.334 -63.501 -116.001s-32.5 -102 -44.5 -163s-22.333 -122.667 -31 -185s-16.334 -122.833 -23.001 -181.5s-13 -110 -19 -154l-81 18c0.666992 2 2.5 14.5 5.5 37.5s6.66699 52.833 11 89.5l14 124
c5 46 9.66699 93 14 141s8 95.167 11 141.5s4.5 87.5 4.5 123.5c0 22 -1.83301 43.167 -5.5 63.5s-9.16699 38 -16.5 53s-16.166 27 -26.499 36s-22.166 13.5 -35.499 13.5c-22 0 -42.167 -9.5 -60.5 -28.5s-34 -42.167 -47 -69.5s-23.167 -56.333 -30.5 -87
s-11 -57.667 -11 -81c0 -13.333 1 -26.166 3 -38.499s5 -23.333 9 -33s8.66699 -17.334 14 -23.001s11.333 -8.5 18 -8.5c14 0 27.167 6.5 39.5 19.5s23 29 32 48s16 38.833 21 59.5s7.5 38.334 7.5 53.001c0 8.66699 -1.16699 17.334 -3.5 26.001s-5.83301 13 -10.5 13
c-2.66699 0 -6.66699 -1.33301 -12 -4c-2.66699 -1.33301 -4.66699 -3 -6 -5l-27 29c7.33301 5.33301 15.333 10.166 24 14.499s17.334 6.5 26.001 6.5c15.333 0 26.833 -7.66699 34.5 -23s11.5 -35.333 11.5 -60c0 -20 -3 -42.833 -9 -68.5s-15.167 -50 -27.5 -73
s-27.833 -42.333 -46.5 -58s-40.334 -23.5 -65.001 -23.5c-8.66699 0 -19.167 1.83301 -31.5 5.5s-24.333 10.834 -36 21.501s-21.5 25.167 -29.5 43.5s-12 41.833 -12 70.5c0 47.333 7.33301 90.333 22 129s34.167 71.667 58.5 99s51.666 48.5 81.999 63.5
s60.833 22.5 91.5 22.5c21.333 0 39.666 -4 54.999 -12s28.333 -18.5 39 -31.5s19.334 -27.667 26.001 -44s12 -33.166 16 -50.499c13.333 19.333 27.833 38.166 43.5 56.499s32.667 34.666 51 48.999s38 25.833 59 34.5s43.5 13 67.5 13c18 0 36.333 -4.33301 55 -13
s35.5 -21.334 50.5 -38.001s27.333 -37.167 37 -61.5s14.5 -52.5 14.5 -84.5c0 -47.333 -8.66699 -90.166 -26 -128.499s-38.833 -71.5 -64.5 -99.5s-53.5 -50.833 -83.5 -68.5s-58 -29.5 -84 -35.5l25.5 -53.5l33.5 -66.5c12 -23.333 24.833 -46.333 38.5 -69
s27.167 -43.167 40.5 -61.5s26.166 -33.166 38.499 -44.499s23.833 -17 34.5 -17c8.66699 0 16.5 3.5 23.5 10.5s13 14.5 18 22.5s8.83301 15.333 11.5 22s3.66699 9.66699 3 9z" />
    <glyph glyph-name="S" unicode="S" horiz-adv-x="554" 
d="M391 647c-13.333 0 -23.166 -4.32324 -29.499 -12.9902s-9.5 -17.667 -9.5 -27c0 -12.667 3.33301 -22.167 10 -28.5s13.667 -9.5 21 -9.5c16.667 0 30.834 9.66699 42.501 29s17.5 48.666 17.5 87.999c0 12.667 -2.16699 25.5 -6.5 38.5s-11.166 24.833 -20.499 35.5
s-21 19.334 -35 26.001s-30.667 10 -50 10c-47.333 0 -85 -16 -113 -48s-42 -74.667 -42 -128c0 -27.333 8 -51.833 24 -73.5s36 -42.334 60 -62.001s50 -39.167 78 -58.5s54 -40.333 78 -63s44 -47.834 60 -75.501s24 -59.834 24 -96.501
c0 -42.667 -8.33301 -80.834 -25 -114.501s-38.334 -62.334 -65.001 -86.001s-56.834 -41.667 -90.501 -54s-67.834 -18.5 -102.501 -18.5s-65.334 6 -92.001 18s-49.334 28.167 -68.001 48.5s-32.834 44 -42.501 71s-14.5 55.5 -14.5 85.5c0 25.333 3.5 50.166 10.5 74.499
s17.5 46.333 31.5 66s31.833 35.5 53.5 47.5s47.167 18 76.5 18c37.333 0 67.833 -9.66699 91.5 -29s35.5 -47 35.5 -83c0 -18.667 -3.33301 -35 -10 -49s-15.334 -25.667 -26.001 -35s-22.667 -16.5 -36 -21.5s-26.666 -7.5 -39.999 -7.5s-26 2.5 -38 7.5
s-22 12.833 -30 23.5l24 24c7.33301 -7.33301 14.333 -12.333 21 -15s12.667 -4 18 -4c15.333 0 27.5 7.5 36.5 22.5s13.5 31.167 13.5 48.5c0 8 -1 17.167 -3 27.5s-5.5 20.166 -10.5 29.499s-11.5 17.333 -19.5 24s-18.333 10 -31 10c-16 0 -29.667 -5.83301 -41 -17.5
s-20.666 -26.334 -27.999 -44.001s-12.833 -36.5 -16.5 -56.5s-5.5 -38.333 -5.5 -55c0 -26.667 3.16699 -52 9.5 -76s15.333 -45.167 27 -63.5s26 -32.666 43 -42.999s36.167 -15.5 57.5 -15.5c27.333 0 52.666 5.5 75.999 16.5s43.666 26.5 60.999 46.5s31 44.167 41 72.5
s15 59.833 15 94.5c0 30.667 -8.16699 57.5 -24.5 80.5s-36.666 44.5 -60.999 64.5s-50.666 39.333 -78.999 58s-54.666 38.667 -78.999 60s-44.666 45.166 -60.999 71.499s-24.5 57.166 -24.5 92.499s8 66.833 24 94.5s36.333 51 61 70s52 33.333 82 43
s59.333 14.5 88 14.5s54.667 -4 78 -12s43.333 -18.5 60 -31.5s29.5 -27.667 38.5 -44s13.5 -33.166 13.5 -50.499c0 -22.667 -3.83301 -43.334 -11.5 -62.001s-18 -34.334 -31 -47.001s-28.5 -22.5 -46.5 -29.5s-37 -10.5 -57 -10.5c-24 0 -42.167 7.16699 -54.5 21.5
s-18.5 30.166 -18.5 47.499c0 16.667 7 32.334 21 47.001s35.667 22 65 22z" />
    <glyph glyph-name="T" unicode="T" horiz-adv-x="569" 
d="M455 720c0.666992 -1.33301 1.33105 -7.83203 1.99805 -19.499s1.33398 -26.834 2.00098 -45.501s1.33398 -39.667 2.00098 -63s1 -47.333 1 -72c0 -86 -7.66699 -165.833 -23 -239.5s-35.833 -137.5 -61.5 -191.5s-55.5 -96.167 -89.5 -126.5s-70 -45.5 -108 -45.5
c-24 0 -45 5 -63 15s-32.833 23.5 -44.5 40.5s-20.334 37.167 -26.001 60.5s-8.5 48.333 -8.5 75c0 31.333 4.16699 62.166 12.5 92.499s19.833 57.5 34.5 81.5s31.667 43.333 51 58s40.333 22 63 22c15.333 0 27.833 -3.5 37.5 -10.5s17.334 -15.667 23.001 -26
s9.66699 -21.833 12 -34.5s3.5 -24.667 3.5 -36c0 -22 -2.33301 -37.667 -7 -47l-37 -12c1.33301 2 2.33301 7.33301 3 16s1 18.667 1 30c0 9.33301 -0.5 19 -1.5 29s-2.5 19 -4.5 27s-4.83301 14.667 -8.5 20s-8.5 8 -14.5 8c-18 0 -32.5 -9.33301 -43.5 -28
s-19.833 -40.667 -26.5 -66s-11.167 -51.333 -13.5 -78s-3.5 -48 -3.5 -64c0 -42 3.66699 -75.5 11 -100.5s19.666 -37.5 36.999 -37.5c18 0 38.667 14.333 62 43s45.333 68.167 66 118.5s38.167 109.666 52.5 177.999s21.5 141.833 21.5 220.5
c0 22.667 -0.166992 46.834 -0.5 72.501s-1.16602 49.5 -2.49902 71.5c-1.33301 26 -2.33301 51.667 -3 77l46 -6c11.333 -1.33301 21.833 -2.66602 31.5 -3.99902s14.5 -2.33301 14.5 -3zM140.997 838.001c12.667 2.66699 27.668 3.99414 45.001 3.99414c24 0 50 -2 78 -6
s56.333 -8.5 85 -13.5s57.167 -9.5 85.5 -13.5s54.833 -6 79.5 -6c32 0 58.167 1 78.5 3s36.5 4.66699 48.5 8c14 3.33301 24.667 7 32 11l15 -40c-10.667 -4.66699 -24.667 -8.66699 -42 -12c-14.667 -3.33301 -33 -6.16602 -55 -8.49902s-49 -3.5 -81 -3.5
c-28.667 0 -57 2 -85 6s-55.167 8.5 -81.5 13.5s-51.833 9.5 -76.5 13.5s-48 6 -70 6c-32.667 0 -60 -6.16699 -82 -18.5s-39.833 -28.666 -53.5 -48.999s-23.334 -44 -29.001 -71s-8.5 -55.167 -8.5 -84.5c0 -13.333 0.666992 -26.166 2 -38.499s3.5 -23.166 6.5 -32.499
s6.83301 -16.833 11.5 -22.5s10.334 -8.5 17.001 -8.5c14 0 27.167 6.5 39.5 19.5s23 28.833 32 47.5s16 38.334 21 59.001s7.5 38.334 7.5 53.001c0 9.33301 -1.16699 18.333 -3.5 27s-5.83301 13 -10.5 13c-2.66699 0 -6.66699 -1.33301 -12 -4
c-2.66699 -1.33301 -4.66699 -3 -6 -5l-26 29c7.33301 5.33301 15.333 10.166 24 14.499s17.334 6.5 26.001 6.5c15.333 0 26.666 -7.83301 33.999 -23.5s11 -35.5 11 -59.5c0 -20 -3.16699 -43 -9.5 -69s-15.666 -50.333 -27.999 -73s-27.833 -41.834 -46.5 -57.501
s-40.334 -23.5 -65.001 -23.5c-8.66699 0 -19 2 -31 6s-23.5 11.833 -34.5 23.5s-20.333 27.834 -28 48.501s-11.5 47.334 -11.5 80.001c0 37.333 5 70.5 15 99.5s23.667 54 41 75s38.166 38 62.499 51s50.5 21.5 78.5 25.5z" />
    <glyph glyph-name="U" unicode="U" horiz-adv-x="857" 
d="M339 618c-2.66699 -33.333 -6.50195 -70.1689 -11.502 -110.502l-15 -123.5c-5 -42 -9.33301 -83.5 -13 -124.5s-5.5 -78.5 -5.5 -112.5c0 -31.333 2.5 -56.333 7.5 -75s13.833 -28 26.5 -28c25.333 0 51 14.5 77 43.5s51.167 66.333 75.5 112
s47.166 96.334 68.499 152.001s40.333 110.167 57 163.5s30.167 102.333 40.5 147s16.166 78.667 17.499 102l77 13c-22 -104.667 -37.5 -202.334 -46.5 -293.001s-13.5 -178.334 -13.5 -263.001c0 -29.333 0.833008 -56.833 2.5 -82.5s4.33398 -47.834 8.00098 -66.501
s8.66699 -33.334 15 -44.001s13.833 -16 22.5 -16s17.5 2.33301 26.5 7s17.5 10.667 25.5 18s15.167 15.333 21.5 24s11.166 16.667 14.499 24l32 -3c-17.333 -36 -38.666 -62.5 -63.999 -79.5s-50 -25.5 -74 -25.5c-21.333 0 -39.666 6.5 -54.999 19.5s-28 30.833 -38 53.5
s-17.333 49.167 -22 79.5s-7 62.833 -7 97.5c0 11.333 0.333008 23.833 1 37.5l2 39.5l2 43c-16 -42.667 -34.5 -85.834 -55.5 -129.501s-44.333 -83.167 -70 -118.5s-53.667 -64.166 -84 -86.499s-63.166 -33.5 -98.499 -33.5c-18 0 -33 4 -45 12s-21.833 19 -29.5 33
s-13 30.833 -16 50.5s-4.5 41.5 -4.5 65.5c0 42 2.66699 83.833 8 125.5s11 83.334 17 125.001s11.667 83 17 124s8 81.5 8 121.5c0 21.333 -1.16699 41.333 -3.5 60s-6.33301 35 -12 49s-13.334 25 -23.001 33s-22.167 12 -37.5 12c-26 0 -48.667 -8.16699 -68 -24.5
s-35.666 -37.166 -48.999 -62.499s-23.333 -53.166 -30 -83.499s-10 -59.833 -10 -88.5c0 -13.333 1 -26.166 3 -38.499s4.83301 -23.333 8.5 -33s8.16699 -17.334 13.5 -23.001s11.333 -8.5 18 -8.5c14 0 27.167 6.5 39.5 19.5s23 28.833 32 47.5
s16.167 38.334 21.5 59.001s8 38.334 8 53.001c0 9.33301 -1.16699 18.166 -3.5 26.499s-5.83301 12.5 -10.5 12.5c-2.66699 0 -6.66699 -1.33301 -12 -4c-2.66699 -1.33301 -4.66699 -2.66602 -6 -3.99902l-27 29c7.33301 5.33301 15.333 10 24 14s17.334 6 26.001 6
c16 0 27.667 -7.66699 35 -23s11 -35 11 -59c0 -20.667 -2.83301 -43.167 -8.5 -67.5s-14.334 -47.166 -26.001 -68.499s-26 -40 -43 -56s-37.167 -26.333 -60.5 -31c-1.33301 0 -2.66602 -0.166992 -3.99902 -0.5s-3 -0.5 -5 -0.5c-8.66699 0 -19.167 1.83301 -31.5 5.5
s-24.333 10.667 -36 21s-21.667 24.833 -30 43.5s-12.5 42.667 -12.5 72c0 7.33301 0.333008 15 1 23s1.66699 16.667 3 26c12.667 83.333 40.334 147.166 83.001 191.499s95 66.5 157 66.5c17.333 0 35.666 -2.33301 54.999 -7s37 -13.834 53 -27.501
s29.333 -32.5 40 -56.5s16 -55 16 -93v-13.5c0 -4.33301 -0.333008 -9.16602 -1 -14.499z" />
    <glyph glyph-name="V" unicode="V" horiz-adv-x="735" 
d="M206 287c-8.66699 59.333 -16.333 118.507 -23 177.507s-14.667 112 -24 159s-21.5 85.167 -36.5 114.5s-35.833 44 -62.5 44c-20.667 0 -38.667 -5.66699 -54 -17s-27.666 -26 -36.999 -44s-16.333 -38.5 -21 -61.5s-7 -46.167 -7 -69.5
c0 -19.333 1.66699 -40.166 5 -62.499s8 -42.833 14 -61.5s13.5 -34.167 22.5 -46.5s19.167 -18.5 30.5 -18.5s21 5 29 15s14.667 22.5 20 37.5s9.33301 31.167 12 48.5s4 33 4 47c0 9.33301 -0.5 19.166 -1.5 29.499s-2.66699 19.666 -5 27.999
s-5.16602 15.166 -8.49902 20.499s-7 8 -11 8c-3.33301 0 -7 -2 -11 -6c-2 -2 -4 -4.33301 -6 -7l-32 22c6 8 13.833 15.5 23.5 22.5s19.5 10.5 29.5 10.5c9.33301 0 17.666 -3.83301 24.999 -11.5s13.833 -17.834 19.5 -30.501s10 -27.334 13 -44.001s4.5 -34 4.5 -52
c0 -18.667 -2.16699 -39 -6.5 -61s-11.333 -42.333 -21 -61s-22.167 -34.167 -37.5 -46.5s-34 -18.5 -56 -18.5c-12 0 -25.333 2.66699 -40 8s-28.5 15.5 -41.5 30.5s-23.833 36 -32.5 63s-13 62.5 -13 106.5c0 38 5 73.333 15 106s24.333 61 43 85s41.5 42.667 68.5 56
s57.5 20 91.5 20c14 0 29 -2.33301 45 -7s31.333 -13.334 46 -26.001s28.5 -29.5 41.5 -50.5s23.5 -48.167 31.5 -81.5c5.33301 -21.333 11.166 -52.833 17.499 -94.5l20.5 -136.5l23 -151.5c8 -51.667 16.667 -98.5 26 -140.5s19.333 -76.5 30 -103.5s22 -40.5 34 -40.5
c2.66699 0 4.66699 0.333008 6 1c22 5.33301 42.667 20.333 62 45s37.333 55.5 54 92.5s32.167 78.5 46.5 124.5s27.166 92.333 38.499 139c26.667 110 50.334 233.667 71.001 371l52 39c-16.667 -162 -41 -307 -73 -435c-13.333 -54.667 -29 -108 -47 -160
s-38.333 -98.5 -61 -139.5s-48.167 -74 -76.5 -99s-59.833 -37.5 -94.5 -37.5c-29.333 0 -53.833 11.167 -73.5 33.5s-36 50.666 -49 84.999s-23.5 72.166 -31.5 113.499s-15 81 -21 119z" />
    <glyph glyph-name="W" unicode="W" horiz-adv-x="1106" 
d="M134 789c-26 0 -48.6719 -8.17578 -68.0049 -24.5088s-35.666 -37.166 -48.999 -62.499s-23.333 -53.166 -30 -83.499s-10 -59.833 -10 -88.5c0 -13.333 1 -26.166 3 -38.499s5 -23.333 9 -33s8.66699 -17.334 14 -23.001s11.333 -8.5 18 -8.5c14 0 27.167 6.5 39.5 19.5
s23 29 32 48s16 38.833 21 59.5s7.5 38.334 7.5 53.001c0 8 -1 16.5 -3 25.5s-5.66699 13.5 -11 13.5c-2 0 -5.66699 -1.33301 -11 -4c-2.66699 -1.33301 -5 -3 -7 -5l-27 29c7.33301 5.33301 15.333 10.166 24 14.499s17.334 6.5 26.001 6.5
c15.333 0 26.833 -7.83301 34.5 -23.5s11.5 -35.5 11.5 -59.5c0 -19.333 -3 -42 -9 -68s-15.167 -50.5 -27.5 -73.5s-27.666 -42.5 -45.999 -58.5s-39.833 -24 -64.5 -24c-8.66699 0 -19.167 1.83301 -31.5 5.5s-24.333 10.667 -36 21s-21.667 24.833 -30 43.5
s-12.5 42.667 -12.5 72c0 44.667 6.33301 85.834 19 123.501s30.167 70 52.5 97s48.333 48.167 78 63.5s61.5 23 95.5 23c16.667 0 34.334 -2.5 53.001 -7.5s35.834 -14.833 51.501 -29.5s28.667 -35.167 39 -61.5s15.5 -60.833 15.5 -103.5c0 -38 -1.66699 -75.667 -5 -113
s-7.16602 -74.5 -11.499 -111.5s-8.16602 -74 -11.499 -111s-5 -74.167 -5 -111.5c0 -24.667 0.666992 -47.834 2 -69.501s3.5 -40.167 6.5 -55.5s7.16699 -27.5 12.5 -36.5s12 -13.5 20 -13.5c18.667 0 38 9.66699 58 29s40 45.333 60 78s39.333 70.5 58 113.5
s35.667 88.167 51 135.5s28.833 95.5 40.5 144.5s20.167 95.5 25.5 139.5l80 46c-0.666992 -19.333 -1.66699 -40.666 -3 -63.999c-1.33301 -20 -2.16602 -43.167 -2.49902 -69.5s-0.5 -54.833 -0.5 -85.5c0 -34.667 0.833008 -70.667 2.5 -108s4.16699 -73.833 7.5 -109.5
s7.66602 -69.667 12.999 -102s11.666 -60.666 18.999 -84.999s15.833 -43.666 25.5 -57.999s20.5 -21.5 32.5 -21.5c23.333 0 45.166 11.333 65.499 34s39 52.334 56 89.001s32.5 78.667 46.5 126s26.667 95.333 38 144c26.667 114.667 48.667 245.334 66 392.001l52 36
l-1 -14c-1.33301 -14 -3.33301 -37.167 -6 -69.5s-6.66699 -70.166 -12 -113.499s-12.333 -90.166 -21 -140.499s-19.167 -100.833 -31.5 -151.5s-27 -99.5 -44 -146.5s-36.5 -88.667 -58.5 -125s-47.167 -65.333 -75.5 -87s-59.833 -32.5 -94.5 -32.5
c-22.667 0 -42.667 5.66699 -60 17s-32.5 26.666 -45.5 45.999s-24 41.5 -33 66.5s-16.333 51.333 -22 79s-10 55.5 -13 83.5s-4.83301 54.333 -5.5 79l-53 -112.5c-20 -41 -42.5 -79.333 -67.5 -115s-52.5 -65.5 -82.5 -89.5s-62.667 -36 -98 -36c-22 0 -40 5.33301 -54 16
s-25 25.167 -33 43.5s-13.5 40.166 -16.5 65.499s-4.5 53 -4.5 83c0 37.333 2 76.5 6 117.5s8.5 82.833 13.5 125.5s9.5 86 13.5 130s6 88 6 132c0 18.667 -1.33301 35.834 -4 51.501s-7 29.334 -13 41.001s-14 20.667 -24 27s-22 9.5 -36 9.5z" />
    <glyph glyph-name="X" unicode="X" horiz-adv-x="755" 
d="M752 163c0 -34 -4.00293 -64.9971 -12.0029 -92.9971s-19.333 -52 -34 -72s-32.167 -35.5 -52.5 -46.5s-42.5 -16.5 -66.5 -16.5c-54 0 -104.333 30.5 -151 91.5s-91 151.5 -133 271.5l-88 -124l-74 -109l-71 -106l-65 7l85 125l86.5 126l99.5 141
c-5.33301 13.333 -11.666 33.333 -18.999 60l-25 88l-30 99c-10.667 34 -22 64.667 -34 92s-24.833 49.833 -38.5 67.5s-27.834 26.5 -42.501 26.5c-16 0 -30.5 -4.5 -43.5 -13.5s-24.333 -21.5 -34 -37.5s-17.167 -34.833 -22.5 -56.5s-8 -45.167 -8 -70.5
c0 -18.667 2.16699 -38 6.5 -58s10.333 -38.333 18 -55s16.334 -30.5 26.001 -41.5s19.834 -16.5 30.501 -16.5s19.834 4 27.501 12s14 18.167 19 30.5s8.66699 25.666 11 39.999s3.5 27.833 3.5 40.5c0 12 -0.833008 23.667 -2.5 35s-4.33398 21.5 -8.00098 30.5
s-8 16.167 -13 21.5s-10.5 8 -16.5 8c-7.33301 0 -14.333 -1.66699 -21 -5l-10 -5l-18 24c5.33301 5.33301 13 10.166 23 14.499s20.667 6.5 32 6.5s21.5 -3.66699 30.5 -11s16.5 -17 22.5 -29s10.667 -26 14 -42s5 -32.667 5 -50c0 -18.667 -2.16699 -37.834 -6.5 -57.501
s-11.166 -37.5 -20.499 -53.5s-21.333 -29 -36 -39s-32.334 -15 -53.001 -15c-13.333 0 -27.666 4 -42.999 12s-29.666 20.167 -42.999 36.5s-24.5 37.166 -33.5 62.499s-13.5 55.333 -13.5 90c0 31.333 5 61.5 15 90.5s24 54.5 42 76.5s39.667 39.667 65 53
s53.333 20 84 20c25.333 0 47.666 -6.16699 66.999 -18.5s36.333 -28.666 51 -48.999s27.667 -43.5 39 -69.5s21.5 -52.833 30.5 -80.5s17.5 -55.167 25.5 -82.5s16.333 -52.333 25 -75l83.5 116.5l70 100l50.5 75c13.333 20.333 21.666 34.5 24.999 42.5l57 -20
c-4 -9.33301 -14 -26 -30 -50l-60 -87.5l-81.5 -114l-93.5 -129.5c2 -14.667 7.16699 -35.167 15.5 -61.5s18.5 -55 30.5 -86s25.667 -62.333 41 -94s31 -60.5 47 -86.5s32 -47.333 48 -64s31 -25 45 -25c8.66699 0 17.5 4.83301 26.5 14.5s17.333 23 25 40
s13.834 37 18.501 60s7 47.833 7 74.5c0 12.667 -1.16699 26.167 -3.5 40.5s-5.83301 27.5 -10.5 39.5s-10 22 -16 30s-13 12 -21 12c-7.33301 0 -13 -6 -17 -18s-6 -24.667 -6 -38l-39 -17c-1.33301 6.66699 -2 13 -2 19c0 9.33301 1.5 19.333 4.5 30s7.5 20.5 13.5 29.5
s13.5 16.5 22.5 22.5s19.5 9 31.5 9c18 0 34 -5.16699 48 -15.5s26 -23.5 36 -39.5s17.833 -33.667 23.5 -53s8.5 -38.333 8.5 -57z" />
    <glyph glyph-name="Y" unicode="Y" horiz-adv-x="642" 
d="M609 747c6 -52 9.00195 -107.67 9.00195 -167.003c0 -62.667 -3.5 -127.834 -10.5 -195.501s-17.667 -133.667 -32 -198s-32.333 -125.333 -54 -183s-47 -108.334 -76 -152.001s-62.167 -78.167 -99.5 -103.5s-78.333 -38 -123 -38c-40.667 0 -72 13 -94 39
s-33 62.333 -33 109c0 19.333 3.16699 40 9.5 62s15.5 42.333 27.5 61s27.167 34.167 45.5 46.5s39.5 18.5 63.5 18.5c20.667 0 35.334 -7.16699 44.001 -21.5s13 -30.833 13 -49.5c0 -8 -0.833008 -16.333 -2.5 -25s-3.83398 -16.667 -6.50098 -24l-34 22
c4 6 6 15.333 6 28c0 7.33301 -1 13.833 -3 19.5s-5.66699 8.5 -11 8.5c-10 0 -19.5 -5.33301 -28.5 -16s-16.833 -23.667 -23.5 -39s-12 -32.166 -16 -50.499s-6 -34.833 -6 -49.5c0 -30 5.66699 -54.333 17 -73s25.666 -28 42.999 -28c22.667 0 44.167 9.16699 64.5 27.5
s39.5 43.166 57.5 74.499s34.667 67.5 50 108.5s29.166 84.333 41.499 130s23.166 92.167 32.499 139.5s17.333 92.666 24 135.999c-19.333 -42.667 -39.333 -78.834 -60 -108.501s-41.5 -53.834 -62.5 -72.501s-41.5 -32.167 -61.5 -40.5s-39 -12.5 -57 -12.5
c-21.333 0 -39 5 -53 15s-25 23.5 -33 40.5s-13.667 36.833 -17 59.5s-5 46.667 -5 72c0 17.333 1.33301 38.833 4 64.5l8.5 82.5c3 29.333 5.66699 59.5 8 90.5s3.5 60.167 3.5 87.5c0 20.667 -0.833008 39.667 -2.5 57s-5 32.333 -10 45s-12 22.5 -21 29.5
s-21.167 10.5 -36.5 10.5c-26 0 -48.667 -8.16699 -68 -24.5s-35.666 -37.166 -48.999 -62.499s-23.333 -53.166 -30 -83.499s-10 -59.833 -10 -88.5c0 -13.333 1 -26.166 3 -38.499s4.83301 -23.333 8.5 -33s8.16699 -17.334 13.5 -23.001s11.333 -8.5 18 -8.5
c14 0 27.167 6.5 39.5 19.5s23 28.833 32 47.5s16.167 38.334 21.5 59.001s8 38.334 8 53.001c0 8.66699 -1.16699 17.334 -3.5 26.001s-5.83301 13 -10.5 13c-2.66699 0 -6.66699 -1.33301 -12 -4c-2.66699 -1.33301 -4.66699 -2.66602 -6 -3.99902l-27 29
c7.33301 5.33301 15.333 10 24 14s17.334 6 26.001 6c16 0 27.667 -7.66699 35 -23s11 -35 11 -59c0 -19.333 -3 -42 -9 -68s-15.167 -50.5 -27.5 -73.5s-27.666 -42.5 -45.999 -58.5s-39.833 -24 -64.5 -24c-8.66699 0 -19.167 1.83301 -31.5 5.5s-24.333 10.667 -36 21
s-21.667 24.833 -30 43.5s-12.5 42.667 -12.5 72c0 45.333 6.5 86.833 19.5 124.5s30.667 70 53 97s48.5 48 78.5 63s62 22.5 96 22.5c30 0 54.5 -5.33301 73.5 -16s34 -25.334 45 -44.001s18.5 -40.667 22.5 -66s6 -52.666 6 -81.999c0 -26 -1.16699 -52.833 -3.5 -80.5
s-4.83301 -55.5 -7.5 -83.5s-5.16699 -55.667 -7.5 -83s-3.5 -53.333 -3.5 -78c0 -35.333 2.33301 -64.5 7 -87.5s13.667 -34.5 27 -34.5s28.666 6.5 45.999 19.5s35 30.833 53 53.5s35.5 49 52.5 79s32.167 61.833 45.5 95.5s24.166 68.334 32.499 104.001
s12.5 70.167 12.5 103.5c0 20.667 -0.666992 39.834 -2 57.501s-3 34.5 -5 50.5z" />
    <glyph glyph-name="Z" unicode="Z" horiz-adv-x="726" 
d="M400 757c28 0 53.0049 2.66504 75.0049 7.99805s41 12 57 20s29.5 16.667 40.5 26s19.833 18 26.5 26c2 -0.666992 7.5 -3.16699 16.5 -7.5l28.5 -13.5l28 -13c8.66699 -4 14 -6.66699 16 -8c-30 -53.333 -62.5 -107 -97.5 -161l-104.5 -155.5l-100.5 -139l-86 -112
l-60 -75.5c-15 -18.667 -22.833 -28 -23.5 -28l-39 -41c37.333 0 72.833 -2.66699 106.5 -8s64.334 -11 92.001 -17s51.5 -11.667 71.5 -17s34.667 -8 44 -8c21.333 0 39.5 8 54.5 24s27.167 35.5 36.5 58.5s16.166 46.833 20.499 71.5s6.5 45.667 6.5 63
c0 7.33301 -0.333008 15.5 -1 24.5s-1.83398 17.5 -3.50098 25.5s-4 14.667 -7 20s-6.5 8 -10.5 8c-10 0 -19.5 -3 -28.5 -9s-17.333 -13.5 -25 -22.5s-14.5 -18.333 -20.5 -28s-11 -18.167 -15 -25.5c-1.33301 0 -4 0.333008 -8 1s-8.16699 1.16699 -12.5 1.5
s-8.83301 0.833008 -13.5 1.5s-8.33398 1.33398 -11.001 2.00098c6 14 14.5 29 25.5 45s23.333 30.667 37 44s28.334 24.333 44.001 33s31.5 13 47.5 13c19.333 0 35 -5 47 -15s21.333 -22.667 28 -38s11.167 -32 13.5 -50s3.5 -35.333 3.5 -52
c0 -37.333 -4 -71.166 -12 -101.499s-19.5 -56.333 -34.5 -78s-33 -38.5 -54 -50.5s-44.167 -18 -69.5 -18c-15.333 0 -34.833 3 -58.5 9l-76.5 19.5c-27.333 7 -55.833 13.5 -85.5 19.5s-58.167 9 -85.5 9c-28 0 -52 -1 -72 -3s-37.667 -4.66699 -53 -8
s-28.833 -7.33301 -40.5 -12s-22.834 -9.66699 -33.501 -15l-6 9l-8.5 12.5l-9 12.5c-3 4 -4.83301 6.66699 -5.5 8c9.33301 8.66699 24.666 24.167 45.999 46.5l75.5 82l94 109.5l102 128.5c34.333 45 67.666 91 99.999 138s61.166 93.167 86.499 138.5l24 44l-48 -8
c-12 -2 -23.5 -3.33301 -34.5 -4s-21.833 -1 -32.5 -1c-32.667 0 -61.167 3.33301 -85.5 10s-45.333 14 -63 22s-32.834 15.333 -45.501 22s-23.667 10 -33 10c-12 0 -23.5 -7 -34.5 -21s-16.5 -37.667 -16.5 -71c0 -38 4.5 -68.167 13.5 -90.5s20.167 -33.5 33.5 -33.5
c6 0 12.333 1.83301 19 5.5s13 7.83398 19 12.501s11 9.16699 15 13.5s6 7.16602 6 8.49902l30 -28c-10 -12.667 -21 -24 -33 -34c-10.667 -8.66699 -23.334 -16.5 -38.001 -23.5s-31.667 -10.5 -51 -10.5c-21.333 0 -38.833 7 -52.5 21s-24.334 30.5 -32.001 49.5
s-13 38.333 -16 58s-4.5 35.167 -4.5 46.5c0 13.333 1.83301 28.5 5.5 45.5s9.83398 33 18.501 48s20.334 27.5 35.001 37.5s33.334 15 56.001 15c19.333 0 38.5 -3.66699 57.5 -11s38.5 -15.5 58.5 -24.5s40.833 -17.333 62.5 -25s44.167 -11.5 67.5 -11.5z" />
    <glyph glyph-name="bracketleft" unicode="[" horiz-adv-x="362" 
d="M48 -135c1.33301 22 4.49805 41.3369 9.49805 58.0039s8.83301 35.667 11.5 57c2 20.667 4 44.834 6 72.501s3.83301 56.167 5.5 85.5s2.83398 58.666 3.50098 87.999s1 56 1 80c0 60 -3.16699 121 -9.5 183s-9.5 124 -9.5 186c0 25.333 0.833008 50.166 2.5 74.499
s4.83398 48.5 9.50098 72.5c15.333 3.33301 29.833 6.16602 43.5 8.49902s27.667 4.33301 42 6s29.5 3.16699 45.5 4.5s34 2.66602 54 3.99902l-2 -52c-15.333 -0.666992 -28 -1.33398 -38 -2.00098s-18.5 -1.5 -25.5 -2.5s-13.667 -2.16699 -20 -3.5
s-13.833 -2.66602 -22.5 -3.99902c-6 -40 -9 -80.333 -9 -121c0 -60 3.33301 -119.333 10 -178s10 -117.334 10 -176.001c0 -32 -0.666992 -67.5 -2 -106.5s-3 -77.167 -5 -114.5s-4.16699 -71.333 -6.5 -102s-4.83301 -53 -7.5 -67h127l-9 -50z" />
    <glyph glyph-name="backslash" unicode="\" 
d="M477 693l-282 -720l-76 30l282 720z" />
    <glyph glyph-name="bracketright" unicode="]" horiz-adv-x="278" 
d="M236 845c-1.33301 -22 -4.49805 -41.3369 -9.49805 -58.0039s-8.83301 -35.667 -11.5 -57c-2 -20.667 -4 -44.834 -6 -72.501s-3.83301 -56.167 -5.5 -85.5s-2.83398 -58.666 -3.50098 -87.999s-1 -56 -1 -80c0 -60 3.16699 -121 9.5 -183s9.5 -124 9.5 -186
c0 -25.333 -0.833008 -50.166 -2.5 -74.499s-4.83398 -48.5 -9.50098 -72.5c-14.667 -3.33301 -29 -6.16602 -43 -8.49902s-28.167 -4.33301 -42.5 -6s-29.5 -3.16699 -45.5 -4.5s-34 -2.66602 -54 -3.99902l2 52c15.333 0.666992 28 1.33398 38 2.00098s18.5 1.5 25.5 2.5
s13.667 2.16699 20 3.5s13.833 2.66602 22.5 3.99902c6 40 9 80.333 9 121c0 60 -3.33301 119.333 -10 178s-10 117.334 -10 176.001c0 32 0.666992 67.5 2 106.5s3 77.167 5 114.5s4.16699 71.333 6.5 102s4.83301 53 7.5 67h-127l9 50z" />
    <glyph glyph-name="asciicircum" unicode="^" 
d="M77 222c10 29.333 24.002 60.998 42.002 94.998s37.667 65.667 59 95s43.333 53.666 66 72.999s44 29 64 29c12 0 22.333 -4.16699 31 -12.5s16.667 -19.166 24 -32.499s14.333 -28.166 21 -44.499s13.667 -32.5 21 -48.5l29 -67c10 -23.333 20.667 -42.333 32 -57
l-77 -46c-16 16.667 -29.167 38.334 -39.5 65.001l-29.5 78l-11 31.5c-4 11 -8 21.333 -12 31s-8.16699 17.667 -12.5 24s-8.5 9.5 -12.5 9.5c-6 0 -15.333 -6.66699 -28 -20s-26.834 -31 -42.501 -53s-31.334 -47.333 -47.001 -76s-29.167 -58.667 -40.5 -90z" />
    <glyph glyph-name="underscore" unicode="_" horiz-adv-x="496" 
d="M496 -138h-496v62h496v-62z" />
    <glyph glyph-name="grave" unicode="`" horiz-adv-x="304" 
d="M186 429l-114 113l54 47l92 -135z" />
    <glyph glyph-name="a" unicode="a" horiz-adv-x="515" 
d="M259 130c-7.33301 -14 -16.832 -28.668 -28.499 -44.001s-24.834 -29.5 -39.501 -42.5s-30.667 -23.833 -48 -32.5s-35 -13 -53 -13c-23.333 0 -43.166 7.66699 -59.499 23s-24.5 41 -24.5 77c0 37.333 8 73.166 24 107.499s36.833 64.833 62.5 91.5s54.834 48 87.501 64
s65.334 24 98.001 24c10.667 0 20 -1 28 -3v-35c-22.667 0 -46.5 -6.66699 -71.5 -20s-48 -31.666 -69 -54.999s-38.333 -51 -52 -83s-20.5 -66.667 -20.5 -104c0 -12.667 1.66699 -23 5 -31s8.66602 -12 15.999 -12c11.333 0 23 4.33301 35 13s24 20 36 34
s23.5 29.833 34.5 47.5s21 35.334 30 53.001s16.5 34.667 22.5 51s10 30.166 12 41.499l57 -14l-3 -17.5c-1.33301 -7.66699 -2.5 -16.5 -3.5 -26.5s-1.83301 -21 -2.5 -33s-1 -24 -1 -36c0 -13.333 0.666992 -26.166 2 -38.499s3.5 -23.333 6.5 -33s7 -17.5 12 -23.5
s11.5 -9 19.5 -9s19 4.33301 33 13s29.167 20.5 45.5 35.5s33.166 32.333 50.499 52s33.666 40.5 48.999 62.5l28 -21c-18.667 -28 -37.667 -53.667 -57 -77s-38.333 -43.5 -57 -60.5s-36.834 -30.333 -54.501 -40s-34.167 -14.5 -49.5 -14.5
c-28.667 0 -51.667 11.5 -69 34.5s-27.666 54.5 -30.999 94.5z" />
    <glyph glyph-name="b" unicode="b" horiz-adv-x="445" 
d="M229 621c-1.33301 -2 -2.33789 -5.66602 -3.00488 -10.999s-1 -11.666 -1 -18.999c0 -8 0.5 -16.333 1.5 -25s2.33301 -16.667 4 -24s3.83398 -13.5 6.50098 -18.5s6 -7.5 10 -7.5c12 0 23.167 8 33.5 24s19.333 35.333 27 58s13.834 46.5 18.501 71.5s7 46.167 7 63.5
c0 14 -0.333008 28.833 -1 44.5s-2.16699 30 -4.5 43s-6.16602 23.833 -11.499 32.5s-12.666 13 -21.999 13c-6.66699 0 -14.667 -4 -24 -12s-19.166 -18.5 -29.499 -31.5s-20.666 -28 -30.999 -45s-19.833 -34.167 -28.5 -51.5c-16 -32 -28.833 -64.833 -38.5 -98.5
s-17.334 -67 -23.001 -100s-9.5 -64.667 -11.5 -95s-3 -58.166 -3 -83.499c0 -40 1.66699 -78.167 5 -114.5s7.66602 -67.833 12.999 -94.5c6 24 14 49.667 24 77s22.5 52.833 37.5 76.5s32.667 43.167 53 58.5s43.833 23 70.5 23c28 0 49.167 -12 63.5 -36
s21.5 -54.333 21.5 -91c0 -24 -4.5 -51.667 -13.5 -83s-23.5 -61 -43.5 -89s-45.5 -51.833 -76.5 -71.5s-68.5 -29.5 -112.5 -29.5v25c24 0 46.167 6.16699 66.5 18.5s37.666 29.833 51.999 52.5s25.666 50.167 33.999 82.5s12.5 68.833 12.5 109.5
c0 5.33301 -0.5 12 -1.5 20s-2.66699 15.5 -5 22.5s-5.33301 13 -9 18s-8.5 7.5 -14.5 7.5c-12 0 -23.667 -4.83301 -35 -14.5s-22 -22.5 -32 -38.5s-19.167 -34.167 -27.5 -54.5s-15.666 -41.333 -21.999 -63s-11.166 -43 -14.499 -64s-5 -39.833 -5 -56.5l-53 -10
c-11.333 18.667 -21.5 41.667 -30.5 69s-16.667 55.833 -23 85.5s-11.166 59 -14.499 88s-5 54.5 -5 76.5c0 26.667 1.16699 56.167 3.5 88.5s6.5 65.833 12.5 100.5s14.333 70 25 106s24 71.333 40 106c4 8.66699 11.5 21.667 22.5 39s24.833 34.666 41.5 51.999
s36 32.5 58 45.5s46.333 19.5 73 19.5c22 0 40.5 -5.16699 55.5 -15.5s27.167 -23.833 36.5 -40.5s16 -35.834 20 -57.501s6 -43.834 6 -66.501c0 -35.333 -4.5 -67.833 -13.5 -97.5s-21 -55.334 -36 -77.001s-32.333 -38.667 -52 -51s-40.5 -18.5 -62.5 -18.5
c-12 0 -21.833 3.5 -29.5 10.5s-13.667 15.833 -18 26.5s-7.33301 22.334 -9 35.001s-2.5 25 -2.5 37c0 18.667 1 33 3 43z" />
    <glyph glyph-name="c" unicode="c" horiz-adv-x="389" 
d="M200 378c22.667 0 43.499 -5.83008 62.499 -17.4971s32.167 -29.5 39.5 -53.5h-39c-2.66699 6.66699 -6 12.667 -10 18c-3.33301 4.66699 -8 8.83398 -14 12.501s-13.667 5.5 -23 5.5c-15.333 0 -29.833 -5.5 -43.5 -16.5s-25.5 -25.5 -35.5 -43.5s-18 -38 -24 -60
s-9 -44 -9 -66c0 -16 1.5 -31.333 4.5 -46s7.83301 -27.834 14.5 -39.501s15.5 -21 26.5 -28s24.5 -10.5 40.5 -10.5c19.333 0 40.333 6.5 63 19.5s44.834 28.833 66.501 47.5s41.834 38.5 60.501 59.5s33 39.167 43 54.5l28 -21
c-50 -72.667 -98.833 -125.334 -146.5 -158.001s-95.5 -49 -143.5 -49c-26.667 0 -49.334 4.83301 -68.001 14.5s-34 22.5 -46 38.5s-20.833 34 -26.5 54s-8.5 40.333 -8.5 61c0 26.667 4.66699 53.167 14 79.5s22.333 50.166 39 71.499s36.5 38.666 59.5 51.999
s48.167 20.333 75.5 21z" />
    <glyph glyph-name="d" unicode="d" horiz-adv-x="527" 
d="M589 193c-20.667 -30.667 -41.667 -58.333 -63 -83s-42 -45.667 -62 -63s-39 -30.5 -57 -39.5s-34 -13.5 -48 -13.5c-14.667 0 -27.834 3.66699 -39.501 11s-21.834 16.666 -30.501 27.999s-15.5 24.333 -20.5 39s-8.16699 29.334 -9.5 44.001
c-28.667 -35.333 -58.167 -63.5 -88.5 -84.5s-60.833 -31.5 -91.5 -31.5c-16.667 0 -30.167 3 -40.5 9s-18.333 13.667 -24 23s-9.5 19.5 -11.5 30.5s-3 21.833 -3 32.5c0 23.333 4.66699 49 14 77s23.5 55 42.5 81s42.667 49.5 71 70.5s61.166 36.5 98.499 46.5
c0 29.333 1.16699 58.333 3.5 87s4.83301 54.834 7.5 78.501s5.33398 44.167 8.00098 61.5s4.66699 29.333 6 36c7.33301 39.333 17 75.666 29 108.999s25.5 62.166 40.5 86.499s31.167 43.333 48.5 57s35 20.5 53 20.5c16 0 28.667 -4.83301 38 -14.5s16.5 -22 21.5 -37
s8.16699 -32 9.5 -51s2 -38.167 2 -57.5c0 -33.333 -4 -72.833 -12 -118.5s-19.5 -93.5 -34.5 -143.5s-33 -100.167 -54 -150.5s-44.5 -96.833 -70.5 -139.5c2 -48 9.83301 -84.333 23.5 -109s27.167 -37 40.5 -37c4.66699 0 12.834 3.66699 24.501 11s25.334 18 41.001 32
s33 31.333 52 52s38.167 44.334 57.5 71.001zM337 635.001c-9.33301 -51.333 -16.002 -103.499 -20.002 -156.499s-6 -102.167 -6 -147.5v-41c0 -12.667 0.333008 -24.667 1 -36c18.667 36 36.334 76 53.001 120s31.334 88.167 44.001 132.5s22.667 87.166 30 128.499
s11 77.333 11 108c0 12.667 -0.166992 25.334 -0.5 38.001s-1 24.167 -2 34.5s-2.83301 18.666 -5.5 24.999s-6.66699 9.5 -12 9.5c-6 0 -13.333 -6.33301 -22 -19s-17.5 -29.167 -26.5 -49.5s-17.5 -43.333 -25.5 -69s-14.333 -51.5 -19 -77.5zM100.998 40.002
c20 0 43 11.5 69 34.5s51.667 53.167 77 90.5c-2 8.66699 -4.16699 20.334 -6.5 35.001s-4.5 30.167 -6.5 46.5s-3.83301 32.166 -5.5 47.499s-2.83398 28 -3.50098 38c-24.667 -10 -46 -24.333 -64 -43s-33 -39 -45 -61s-20.833 -44.333 -26.5 -67s-8.5 -43 -8.5 -61
c0 -6.66699 0.333008 -13.5 1 -20.5s1.83398 -13.5 3.50098 -19.5s3.66699 -10.833 6 -14.5s5.5 -5.5 9.5 -5.5z" />
    <glyph glyph-name="e" unicode="e" horiz-adv-x="404" 
d="M466 193c-18 -28.667 -38.001 -55.166 -60.001 -79.499s-45 -45.333 -69 -63s-48.833 -31.334 -74.5 -41.001s-51.5 -14.5 -77.5 -14.5c-20.667 0 -40.334 3.33301 -59.001 10s-35 17 -49 31s-25 31.833 -33 53.5s-12 47.5 -12 77.5c0 11.333 0.333008 21.166 1 29.499
s1.33398 14.5 2.00098 18.5l-19 6l7 35l18 -5c6.66699 22 16 44.5 28 67.5s26.333 43.833 43 62.5s35.334 34 56.001 46s43 18 67 18c17.333 0 31.833 -5.5 43.5 -16.5s17.5 -26.833 17.5 -47.5c0 -27.333 -7.5 -52.166 -22.5 -74.499s-32.5 -41.5 -52.5 -57.5
s-40 -28.333 -60 -37s-35 -13 -45 -13c-2 -8.66699 -3 -19.667 -3 -33c0 -47.333 8 -81 24 -101s36.333 -30 61 -30c18 0 37.167 4.5 57.5 13.5s41 21.5 62 37.5s41.833 34.833 62.5 56.5s40 45.5 58 71.5zM232.999 405.001c-12.667 0 -24.832 -5.16992 -36.499 -15.5029
s-22.5 -23.666 -32.5 -39.999s-18.667 -34.666 -26 -54.999s-13 -40.5 -17 -60.5c5.33301 0 15.333 3.5 30 10.5s29.667 16.667 45 29s29.166 27.333 41.499 45s18.5 37.5 18.5 59.5c0 10.667 -2.16699 17.834 -6.5 21.501s-9.83301 5.5 -16.5 5.5z" />
    <glyph glyph-name="f" unicode="f" horiz-adv-x="435" 
d="M269 51c22.667 0 45.666 8.5 68.999 25.5s44.666 35.833 63.999 56.5c22.667 24 45 51 67 81l28 -20c-28.667 -44 -60.167 -83 -94.5 -117s-72.5 -57.667 -114.5 -71c7.33301 -13.333 14 -28.666 20 -45.999s11.167 -35.5 15.5 -54.5s7.83301 -38.5 10.5 -58.5
s4 -39 4 -57c0 -43.333 -3.83301 -80.666 -11.5 -111.999s-17.834 -57.166 -30.501 -77.499s-27.334 -35.333 -44.001 -45s-34.334 -14.5 -53.001 -14.5c-30.667 0 -57 11.667 -79 35s-40.167 54.833 -54.5 94.5s-24.833 85.667 -31.5 138s-10 107.166 -10 164.499
c0 24 0.166992 49 0.5 75s1.33301 52 3 78s3.83398 51.333 6.50098 76s6 48 10 70l-10 32c7.33301 2 14.333 5 21 9c3.33301 24 9.33301 53.833 18 89.5s19.834 73.5 33.501 113.5s29.667 79.833 48 119.5s38.5 75.5 60.5 107.5s45.667 58 71 78s52 30 80 30
c21.333 0 35.833 -7.16699 43.5 -21.5s11.5 -31.833 11.5 -52.5c0 -18.667 -2 -38 -6 -58s-8.66699 -37.667 -14 -53c-5.33301 -16 -15 -39.833 -29 -71.5s-32.333 -66.167 -55 -103.5s-49.5 -74.666 -80.5 -111.999s-66.167 -69 -105.5 -95
c-4 -19.333 -7.5 -40.5 -10.5 -63.5s-5.5 -46.333 -7.5 -70s-3.5 -47 -4.5 -70s-1.5 -44.5 -1.5 -64.5c0 -68 3.16699 -129.5 9.5 -184.5s14.5 -101.833 24.5 -140.5s21.167 -68.5 33.5 -89.5s24.5 -31.5 36.5 -31.5c8.66699 0 16.334 4.66699 23.001 14
s12.334 22.166 17.001 38.499s8.33398 35.166 11.001 56.499s4 44 4 68s-1.83301 50.167 -5.5 78.5s-10.334 57.666 -20.001 87.999s-23.167 61 -40.5 92s-39.666 61.167 -66.999 90.5l68 41zM365.999 820c-8 0 -20.832 -10.834 -38.499 -32.501
s-37.167 -53.167 -58.5 -94.5s-43.333 -92 -66 -152s-43.334 -128 -62.001 -204c28 24 53.5 50.333 76.5 79s43.667 58 62 88s34.333 59.333 48 88s25.167 54.334 34.5 77.001c8 20 14 39.667 18 59s6 36.333 6 51c0 27.333 -6.66699 41 -20 41z" />
    <glyph glyph-name="g" unicode="g" horiz-adv-x="453" 
d="M263 348l13.0039 -1.50391c8.66699 -1 18.167 -2.33301 28.5 -4l28 -4.5l12.5 -2c0.666992 -1.33301 3 -12.166 7 -32.499s8.33301 -45.5 13 -75.5s8.83398 -62.167 12.501 -96.5s5.5 -66.166 5.5 -95.499c0 -90.667 -6.83301 -170.167 -20.5 -238.5
s-31.667 -125.333 -54 -171s-48 -80 -77 -103s-58.833 -34.5 -89.5 -34.5c-24 0 -44.833 5.66699 -62.5 17s-32.5 26.833 -44.5 46.5s-20.833 42.334 -26.5 68.001s-8.5 52.834 -8.5 81.501c0 28 3.66699 55.667 11 83s17.5 52 30.5 74s28 39.833 45 53.5
s35.5 21.167 55.5 22.5c17.333 0 31.333 -3.83301 42 -11.5s19.334 -17.167 26.001 -28.5s11.167 -23.833 13.5 -37.5s3.5 -26.5 3.5 -38.5c0 -7.33301 -0.333008 -13.666 -1 -18.999s-1.66699 -9.66602 -3 -12.999l-36 -16c1.33301 4 2 11.333 2 22
c0 9.33301 -0.5 20.166 -1.5 32.499s-2.83301 24 -5.5 35s-6.33398 20.167 -11.001 27.5s-10.334 11 -17.001 11c-12.667 0 -23.834 -5.66699 -33.501 -17s-17.834 -26 -24.501 -44s-11.667 -38.167 -15 -60.5s-5 -44.5 -5 -66.5c0 -26.667 1.5 -51.334 4.5 -74.001
s7.16699 -42.5 12.5 -59.5s11.833 -30.333 19.5 -40s16.167 -14.5 25.5 -14.5c16.667 0 34.667 11 54 33s37.166 54.667 53.499 98s30 96.833 41 160.5s16.5 137.5 16.5 221.5c0 33.333 -2 68.166 -6 104.499s-7.66699 68.166 -11 95.499c-6 -24 -14 -49.667 -24 -77
s-22.5 -52.833 -37.5 -76.5s-32.667 -43.167 -53 -58.5s-43.833 -23 -70.5 -23c-28 0 -49.167 12 -63.5 36s-21.5 54.333 -21.5 91c0 34.667 6.83301 69.834 20.5 105.501s32 68.167 55 97.5s50 53.333 81 72s63.833 28 98.5 28c4 0 8 -0.166992 12 -0.5
s8 -0.833008 12 -1.5v-24c-24 0 -47.833 -7.66699 -71.5 -23s-45 -36.166 -64 -62.499s-34.333 -57.333 -46 -93s-17.5 -73.834 -17.5 -114.501c0 -5.33301 0.5 -11.833 1.5 -19.5s2.83301 -15.167 5.5 -22.5s5.83398 -13.5 9.50098 -18.5s8.5 -7.5 14.5 -7.5
c12 0 23.667 5.16699 35 15.5s22 24 32 41s19.167 36.333 27.5 58s15.666 43.667 21.999 66s11.166 44.333 14.499 66s5 40.834 5 57.501z" />
    <glyph glyph-name="h" unicode="h" horiz-adv-x="634" 
d="M33 28l-3.50879 29.998c-2.33301 20 -4.66602 45.167 -6.99902 75.5s-4.5 63.333 -6.5 99s-3 68.834 -3 99.501c0 88.667 7.5 166.834 22.5 234.501s33.167 124.5 54.5 170.5c4 8.66699 11.667 22.167 23 40.5s25.666 36.666 42.999 54.999s37.333 34.5 60 48.5
s47.334 21 74.001 21c22 0 40.5 -5.16699 55.5 -15.5s27.167 -23.833 36.5 -40.5s16 -35.667 20 -57s6 -43.333 6 -66c0 -35.333 -4.5 -68 -13.5 -98s-21 -55.833 -36 -77.5s-32.333 -38.5 -52 -50.5s-40.5 -18 -62.5 -18c-12 0 -21.833 3.5 -29.5 10.5
s-13.667 15.667 -18 26s-7.33301 22 -9 35s-2.5 25.5 -2.5 37.5c0 18.667 1 33 3 43l32 -12v-14c0 -7.33301 0.166992 -16.166 0.5 -26.499s1.33301 -20.333 3 -30s3.83398 -18 6.50098 -25s6.33398 -10.5 11.001 -10.5c12 0 23.167 8 33.5 24s19.333 35.333 27 58
s13.834 46.334 18.501 71.001s7 45.667 7 63c0 14 -0.333008 28.833 -1 44.5s-2.16699 30.167 -4.5 43.5s-6.16602 24.333 -11.499 33s-12.666 13 -21.999 13c-6.66699 0 -15 -4 -25 -12s-20.5 -18.667 -31.5 -32s-22 -28.333 -33 -45s-20.5 -33.667 -28.5 -51
c-15.333 -32.667 -27.666 -64.334 -36.999 -95.001s-16.5 -62.334 -21.5 -95.001s-8.16699 -67.334 -9.5 -104.001s-2 -77 -2 -121c0 -17.333 0.5 -36 1.5 -56s2.33301 -39.333 4 -58s3.33398 -35.667 5.00098 -51s2.83398 -27 3.50098 -35c10.667 18 23.667 38 39 60
s32.166 42.5 50.499 61.5s37.5 34.833 57.5 47.5s40 19 60 19c17.333 0 32.333 -3.66699 45 -11s23.834 -16.833 33.501 -28.5s18 -25 25 -40s13.5 -30.167 19.5 -45.5l15.5 -40.5c5 -13 9.66699 -24.5 14 -34.5s8.66602 -18.167 12.999 -24.5s8.5 -9.5 12.5 -9.5
c10 0 20.667 3.33301 32 10s22.666 15 33.999 25s22.666 21.167 33.999 33.5s21.666 24.166 30.999 35.499l24 30c6.66699 8.66699 11.334 15 14.001 19l28 -21c-8 -12 -19 -27.667 -33 -47s-30.167 -38.666 -48.5 -57.999s-38.5 -37.166 -60.5 -53.499
s-45 -27.166 -69 -32.499c-3.33301 -1.33301 -6.83301 -2 -10.5 -2h-10.5c-18 0 -33.167 5 -45.5 15s-22.833 22.333 -31.5 37s-16 30.334 -22 47.001s-11.667 31.667 -17 45c-8.66699 24.667 -18.167 44.5 -28.5 59.5s-22.166 22.5 -35.499 22.5
c-9.33301 0 -19.666 -4.5 -30.999 -13.5s-22.666 -20.333 -33.999 -34s-22.5 -28.834 -33.5 -45.501s-21.167 -33 -30.5 -49l-25 -44c-7.33301 -13.333 -13 -23 -17 -29z" />
    <glyph glyph-name="i" unicode="i" horiz-adv-x="298" 
d="M360 193c-8 -12.667 -20.165 -29.8359 -36.498 -51.5029s-35 -43 -56 -64s-43.667 -39.167 -68 -54.5s-48.5 -23 -72.5 -23c-18.667 0 -34.334 4.5 -47.001 13.5s-22.667 21.167 -30 36.5s-12.5 32.833 -15.5 52.5s-4.5 40.167 -4.5 61.5c0 20.667 1 41.334 3 62.001
s4.5 40 7.5 58s5.83301 34 8.5 48s5 25 7 33l82 -20c-4.66699 -21.333 -9 -44.333 -13 -69c-3.33301 -21.333 -6.5 -45.166 -9.5 -71.499s-4.5 -53.5 -4.5 -81.5c0 -21.333 3 -39.166 9 -53.499s13.667 -21.5 23 -21.5c14.667 0 31 6 49 18s35.833 26.667 53.5 44
s34.167 35.5 49.5 54.5s27.666 35.5 36.999 49.5zM79.002 466.998c0 19.333 4.66797 38.333 14.001 57s21.666 34.667 36.999 48l56 -37c-4.66699 -4 -9.33398 -9.33301 -14.001 -16s-8.66699 -13.667 -12 -21s-6.16602 -14.5 -8.49902 -21.5s-3.5 -13.167 -3.5 -18.5v-3z
" />
    <glyph glyph-name="j" unicode="j" horiz-adv-x="250" 
d="M61 450c0 20.667 4.49805 40.167 13.498 58.5s21.167 33.833 36.5 46.5l56 -37c-5.33301 -4 -10.166 -9.66699 -14.499 -17s-8.16602 -15 -11.499 -23s-6 -15.833 -8 -23.5s-3 -14.167 -3 -19.5zM140.998 339c0.666992 -2 2.83789 -13.3369 6.50488 -34.0039
s7.66699 -46.167 12 -76.5s8.33301 -62.833 12 -97.5s5.5 -66.667 5.5 -96c0 -90.667 -7 -170.167 -21 -238.5s-32.667 -125.333 -56 -171s-49.833 -80 -79.5 -103s-59.834 -34.5 -90.501 -34.5c-24 0 -44.833 5.66699 -62.5 17s-32.5 26.833 -44.5 46.5
s-20.833 42.334 -26.5 68.001s-8.5 52.834 -8.5 81.501s3.83301 56.834 11.5 84.501s18 52.5 31 74.5s28.5 39.833 46.5 53.5s37 20.5 57 20.5c16 0 29.333 -4 40 -12s19 -17.833 25 -29.5s10.167 -24.167 12.5 -37.5s3.5 -25.666 3.5 -36.999
c0 -7.33301 -0.333008 -13.666 -1 -18.999s-1.66699 -9.66602 -3 -12.999l-36 -16c1.33301 4 2 11.333 2 22c0 9.33301 -0.5 20.166 -1.5 32.499s-2.83301 24 -5.5 35s-6.33398 20.167 -11.001 27.5s-10.334 11 -17.001 11c-13.333 0 -24.833 -5.83301 -34.5 -17.5
s-17.834 -26.834 -24.501 -45.501s-11.5 -39.5 -14.5 -62.5s-4.5 -45.833 -4.5 -68.5c0 -26 1.66699 -50 5 -72s7.66602 -41.167 12.999 -57.5s11.833 -29.166 19.5 -38.499s15.834 -14 24.501 -14c16.667 0 34.667 11 54 33s37.166 54.667 53.499 98s30 96.833 41 160.5
s16.5 137.5 16.5 221.5c0 32.667 -1.5 65.167 -4.5 97.5s-6.33301 62.666 -10 90.999s-7.16699 53.333 -10.5 75s-5.33301 38.167 -6 49.5z" />
    <glyph glyph-name="k" unicode="k" horiz-adv-x="435" 
d="M117 134c-0.666992 -10.667 -1.00488 -20.9971 -1.00488 -30.9971v-29c0 -19.333 0.166992 -35.333 0.5 -48s0.5 -19.334 0.5 -20.001l-54 5c-6 14 -11.833 35.5 -17.5 64.5s-11 60.167 -16 93.5s-9 66.333 -12 99s-4.5 60 -4.5 82c0 26.667 1.16699 56.167 3.5 88.5
s6.5 65.833 12.5 100.5s14.333 70 25 106s24 71.333 40 106c4 8.66699 11.5 21.667 22.5 39s24.833 34.666 41.5 51.999s36 32.5 58 45.5s46.333 19.5 73 19.5c22 0 40.5 -5.16699 55.5 -15.5s27.167 -23.833 36.5 -40.5s16 -35.667 20 -57s6 -43.333 6 -66
c0 -35.333 -4.5 -68 -13.5 -98s-21 -55.833 -36 -77.5s-32.333 -38.5 -52 -50.5s-40.5 -18 -62.5 -18c-12 0 -21.833 3.5 -29.5 10.5s-13.667 15.667 -18 26s-7.33301 22 -9 35s-2.5 25.5 -2.5 37.5c0 18.667 1 33 3 43l35 -14c-2.66699 -5.33301 -4 -15 -4 -29
c0 -8 0.5 -16.333 1.5 -25s2.33301 -16.834 4 -24.501s3.83398 -13.834 6.50098 -18.501s6 -7 10 -7c12 0 23.167 8 33.5 24s19.333 35.333 27 58s13.834 46.334 18.501 71.001s7 45.667 7 63c0 14 -0.333008 28.833 -1 44.5s-2.16699 30.167 -4.5 43.5
s-6.16602 24.333 -11.499 33s-12.666 13 -21.999 13c-6.66699 0 -14.667 -4 -24 -12s-19.166 -18.667 -29.499 -32s-20.666 -28.333 -30.999 -45s-19.833 -33.667 -28.5 -51c-18 -38 -32.167 -76.333 -42.5 -115s-18 -76.334 -23 -113.001s-8 -71.5 -9 -104.5
s-1.5 -62.5 -1.5 -88.5v-23c0 3.33301 2.33301 11.666 7 24.999s12.5 27.5 23.5 42.5s25.167 28.333 42.5 40s38.333 17.5 63 17.5c25.333 0 45.166 -8 59.499 -24s21.5 -37.333 21.5 -64c0 -22.667 -5 -43.667 -15 -63s-21.667 -35.833 -35 -49.5
s-27.166 -24.5 -41.499 -32.5s-25.5 -12.667 -33.5 -14c6.66699 -21.333 14.667 -40.666 24 -57.999c8 -14.667 17.833 -28 29.5 -40s25.5 -18 41.5 -18c11.333 0 23.833 4.33301 37.5 13s28.334 20.5 44.001 35.5s32.167 32.667 49.5 53s35 42.5 53 66.5l28 -21
c-40.667 -60.667 -79.834 -107.834 -117.501 -141.501s-73.5 -50.5 -107.5 -50.5c-26 0 -48.333 7.83301 -67 23.5s-33.834 33.834 -45.501 54.501s-20.334 40.834 -26.001 60.501s-8.5 33.834 -8.5 42.501h12c15.333 0 30 4.66699 44 14s26.5 21.166 37.5 35.499
s19.667 30 26 47s9.5 32.833 9.5 47.5c0 16.667 -3.66699 28 -11 34s-14.666 9 -21.999 9c-18 0 -33.5 -8.33301 -46.5 -25s-23.667 -37 -32 -61s-14.5 -49.5 -18.5 -76.5s-6.33301 -51.167 -7 -72.5z" />
    <glyph glyph-name="l" unicode="l" horiz-adv-x="356" 
d="M302 906c21.333 0 39.002 -4.83008 53.002 -14.4971s25 -22.5 33 -38.5s13.5 -34.333 16.5 -55s4.5 -42.334 4.5 -65.001c0 -35.333 -4 -68.333 -12 -99s-19 -57.167 -33 -79.5s-30.5 -39.833 -49.5 -52.5s-39.167 -19 -60.5 -19c-12 0 -21.833 3.5 -29.5 10.5
s-13.834 15.667 -18.501 26s-7.83398 22 -9.50098 35s-2.5 25.5 -2.5 37.5c0 18.667 1 33 3 43l33 -12c0 -2.66699 -0.166992 -5.83398 -0.5 -9.50098s-0.5 -8.16699 -0.5 -13.5c0 -8 0.333008 -16.833 1 -26.5s1.66699 -18.667 3 -27s3.5 -15.333 6.5 -21
s6.5 -8.5 10.5 -8.5c12 0 23.167 8 33.5 24s19.5 35.333 27.5 58s14.333 46.334 19 71.001s7 45.667 7 63c0 14 -0.166992 28.833 -0.5 44.5s-1.83301 30.167 -4.5 43.5s-6.5 24.333 -11.5 33s-12.167 13 -21.5 13s-20.5 -5.83301 -33.5 -17.5s-26.667 -28.167 -41 -49.5
s-28.5 -46.833 -42.5 -76.5s-26.5 -63 -37.5 -100s-20 -76.833 -27 -119.5s-10.5 -87.334 -10.5 -134.001c0 -54 2.83301 -101 8.5 -141s13 -73.5 22 -100.5s19.333 -47.167 31 -60.5s23.5 -20 35.5 -20c11.333 0 24 4.16699 38 12.5s29 20 45 35s32.667 32.5 50 52.5
s35 42 53 66l28 -21c-40.667 -60 -79.834 -107 -117.501 -141s-73.5 -51 -107.5 -51c-24 0 -46.5 8.16699 -67.5 24.5s-39 40 -54 71s-26.833 68.667 -35.5 113s-13 94.5 -13 150.5c0 85.333 8.33301 161.666 25 228.999s38.334 124.5 65.001 171.5s56.667 83 90 108
s66.333 37.5 99 37.5z" />
    <glyph glyph-name="m" unicode="m" horiz-adv-x="913" 
d="M975 191c-23.333 -35.333 -47.6699 -66.998 -73.0029 -94.998c-10.667 -12 -22.167 -23.667 -34.5 -35s-25.166 -21.5 -38.499 -30.5s-27 -16.333 -41 -22s-28 -8.5 -42 -8.5c-12 0 -23.5 6 -34.5 18s-20.667 26.5 -29 43.5s-15.666 34.667 -21.999 53
s-11.166 33.833 -14.499 46.5c-9.33301 26 -19.5 44.5 -30.5 55.5s-22.833 16.5 -35.5 16.5c-15.333 0 -31 -6.66699 -47 -20s-31.833 -29.833 -47.5 -49.5s-30.334 -41 -44.001 -64l-36.5 -63.5l-71 7c0 0.666992 -0.5 5.16699 -1.5 13.5s-3 18.666 -6 30.999
s-7 25.666 -12 39.999s-11.333 27.666 -19 39.999s-17 22.5 -28 30.5s-23.833 12 -38.5 12c-10 0 -19.833 -2.83301 -29.5 -8.5s-18.834 -13.334 -27.501 -23.001s-17 -20.5 -25 -32.5s-15.333 -24.333 -22 -37c-16 -30 -30.667 -64 -44 -102l-76 8l41 274h75l-16 -117
c6.66699 10.667 15 21.834 25 33.501s21.333 22.167 34 31.5s27 17.166 43 23.499s33.333 9.5 52 9.5s35.834 -5 51.501 -15s29.667 -22.5 42 -37.5s22.833 -31.167 31.5 -48.5s15.334 -33.333 20.001 -48l48.5 65.5c16.333 21.667 33.333 40.834 51 57.501
s36.167 30.167 55.5 40.5s39.666 15.5 60.999 15.5c20 0 37 -5.83301 51 -17.5s25.833 -26.5 35.5 -44.5s17.667 -37.167 24 -57.5l17.5 -57.5c5.33301 -18 10.5 -32.833 15.5 -44.5s11.167 -17.5 18.5 -17.5c12 0 26 6 42 18s32 26.333 48 43s30.833 33.334 44.5 50.001
s23.834 29.667 30.501 39z" />
    <glyph glyph-name="n" unicode="n" horiz-adv-x="642" 
d="M116 107c6.66699 10 17.8359 25.499 33.5029 46.499s33.667 42 54 63s42.333 39.333 66 55s46.5 23.5 68.5 23.5c17.333 0 31.833 -3.66699 43.5 -11s21.834 -16.833 30.501 -28.5s16 -25 22 -40l18 -45.5l15.5 -40.5c5 -13 9.66699 -24.5 14 -34.5
s8.66602 -18.167 12.999 -24.5s8.5 -9.5 12.5 -9.5c10 0 20.667 3.33301 32 10s22.666 15 33.999 25s22.666 21.167 33.999 33.5s21.666 24.166 30.999 35.499s17.333 21.5 24 30.5s11.334 15.167 14.001 18.5l28 -21c-8 -12 -19 -27.667 -33 -47
s-30.167 -38.666 -48.5 -57.999s-38.5 -37.166 -60.5 -53.499s-45 -27.166 -69 -32.499c-3.33301 -1.33301 -6.83301 -2 -10.5 -2h-10.5c-14.667 0 -27.5 5.33301 -38.5 16s-21 23.667 -30 39s-16.833 31.666 -23.5 48.999l-18 46c-8.66699 24.667 -18.167 44.5 -28.5 59.5
s-22.166 22.5 -35.499 22.5c-14.667 0 -31.334 -8.5 -50.001 -25.5s-37.167 -37.333 -55.5 -61s-34.833 -48.167 -49.5 -73.5s-25.334 -46.333 -32.001 -63l-81 5l9 303l80 -9z" />
    <glyph glyph-name="o" unicode="o" horiz-adv-x="381" 
d="M22 137c0 34 6.16406 67.5 18.4971 100.5s28.833 62.667 49.5 89s44.167 48.333 70.5 66s53.833 28.5 82.5 32.5l17 -59c-25.333 -4.66699 -48.166 -15.334 -68.499 -32.001s-37.5 -36.167 -51.5 -58.5s-24.833 -46.166 -32.5 -71.499s-11.5 -49.666 -11.5 -72.999
c0 -12 0.5 -24.5 1.5 -37.5s3.16699 -25 6.5 -36s7.83301 -20.167 13.5 -27.5s13.5 -11 23.5 -11c13.333 0 26.5 7 39.5 21s25 32 36 54s19.833 46.5 26.5 73.5s10 53.167 10 78.5c0 16.667 -2.16699 28.834 -6.5 36.501s-9.16602 11.5 -14.499 11.5
c-7.33301 0 -14.5 -2.83301 -21.5 -8.5s-10.833 -8.5 -11.5 -8.5l-20 24c1.33301 1.33301 4.33301 3.66602 9 6.99902s10.5 6.66602 17.5 9.99902s14.833 6.33301 23.5 9s18 4 28 4c17.333 0 32.333 -7.33301 45 -22s19 -39 19 -73c0 -31.333 -4.66699 -62 -14 -92
s-22.5 -56.5 -39.5 -79.5s-37.167 -41.5 -60.5 -55.5s-48.666 -21 -75.999 -21c-16 0 -30.667 3.66699 -44 11s-24.833 17.5 -34.5 30.5s-17.167 28.667 -22.5 47s-8 38.5 -8 60.5z" />
    <glyph glyph-name="p" unicode="p" horiz-adv-x="428" 
d="M113 260c7.33301 19.333 16.5049 37.6592 27.5049 54.9922s23.5 32.666 37.5 45.999s29.333 24 46 32s35 12 55 12c35.333 0 60.666 -12 75.999 -36s23 -54.333 23 -91c0 -24 -4.66699 -51.667 -14 -83s-24 -61.166 -44 -89.499s-45.5 -52.333 -76.5 -72
s-68.5 -29.5 -112.5 -29.5c-2 -85.333 -10.333 -160.333 -25 -225s-33.5 -118.5 -56.5 -161.5s-48.833 -75.333 -77.5 -97s-58 -32.5 -88 -32.5c-24 0 -44.833 5.66699 -62.5 17s-32.5 26.833 -44.5 46.5s-20.833 42.334 -26.5 68.001s-8.5 52.834 -8.5 81.501
s3.83301 56.834 11.5 84.501s18 52.5 31 74.5s28.5 39.833 46.5 53.5s37 20.5 57 20.5c16 0 29.333 -4 40 -12s19 -17.833 25 -29.5s10.167 -24.167 12.5 -37.5s3.5 -25.666 3.5 -36.999c0 -7.33301 -0.333008 -13.666 -1 -18.999s-1.66699 -9.66602 -3 -12.999l-36 -16
c1.33301 4 2 11.333 2 22c0 9.33301 -0.5 20.166 -1.5 32.499s-2.83301 24 -5.5 35s-6.33398 20.167 -11.001 27.5s-10.334 11 -17.001 11c-13.333 0 -24.833 -5.83301 -34.5 -17.5s-17.834 -26.834 -24.501 -45.501s-11.5 -39.5 -14.5 -62.5s-4.5 -45.833 -4.5 -68.5
c0 -26 1.66699 -50 5 -72s7.66602 -41.167 12.999 -57.5s11.833 -29.166 19.5 -38.499s15.834 -14 24.501 -14c16.667 0 34.667 11 54 33s37.166 54.667 53.499 98s30 96.833 41 160.5s16.5 137.5 16.5 221.5c0 32.667 -2 68.834 -6 108.501s-8.66699 77.834 -14 114.501
s-10.333 69 -15 97s-7.66699 46.333 -9 55l87 -11l2.5 -11c1.66699 -7.33301 3.66699 -17.166 6 -29.499l8 -44c3 -17 5.83301 -35.167 8.5 -54.5zM297.005 292.993c0 5.33301 -0.666992 11.998 -2 19.998s-3.16602 15.5 -5.49902 22.5s-5.5 13 -9.5 18s-9 7.5 -15 7.5
c-17.333 0 -34 -8.5 -50 -25.5s-30.333 -38.167 -43 -63.5s-22.834 -52.666 -30.501 -81.999s-11.5 -56.666 -11.5 -81.999v-79c24 0 46.167 6.16699 66.5 18.5s38 30 53 53s26.667 50.667 35 83s12.5 68.833 12.5 109.5z" />
    <glyph glyph-name="q" unicode="q" horiz-adv-x="438" 
d="M390 427c-2 -11.333 -6.67188 -31.9961 -14.0049 -61.9961l-24.5 -102c-9 -38 -17.5 -77.333 -25.5 -118s-13.333 -77.334 -16 -110.001c-4 -46 -6 -89.333 -6 -130c0 -62.667 3.83301 -117.834 11.5 -165.501s17.667 -87.667 30 -120s26 -56.666 41 -72.999
s29.833 -24.5 44.5 -24.5c9.33301 0 18.833 5.83301 28.5 17.5s18.334 27.5 26.001 47.5s13.834 43.5 18.501 70.5s7 55.833 7 86.5c0 20 -1.16699 39.167 -3.5 57.5s-6.16602 34.666 -11.499 48.999s-12 25.833 -20 34.5s-17.667 13 -29 13
c-8 0 -14.833 -4.83301 -20.5 -14.5s-10.334 -21 -14.001 -34s-6.33398 -26.167 -8.00098 -39.5s-2.5 -24 -2.5 -32c0 -2 0.166992 -3.66699 0.5 -5s0.5 -2.33301 0.5 -3l-35 16c-1.33301 4 -2 9.33301 -2 16c0 10 1.33301 22.5 4 37.5s7.5 29.5 14.5 43.5s16.5 26 28.5 36
s27 15 45 15c18.667 0 35.834 -5.83301 51.501 -17.5s29 -27 40 -46s19.667 -41 26 -66s9.5 -50.5 9.5 -76.5c0 -31.333 -3.66699 -61.5 -11 -90.5s-17.833 -54.5 -31.5 -76.5s-30.5 -39.667 -50.5 -53s-42.667 -20 -68 -20c-27.333 0 -53.333 9 -78 27
s-46.5 44.833 -65.5 80.5s-34 80.167 -45 133.5s-16.5 115.666 -16.5 186.999c0 18.667 0.333008 37.834 1 57.501s2 40.167 4 61.5l4.5 35c1.66699 12.667 3.5 25.667 5.5 39c-8 -12.667 -17.667 -25.667 -29 -39s-23.833 -25.333 -37.5 -36s-28.167 -19.334 -43.5 -26.001
s-31 -10 -47 -10c-23.333 0 -43.166 7.66699 -59.499 23s-24.5 41 -24.5 77c0 37.333 8 73.166 24 107.499s36.833 64.833 62.5 91.5s54.834 48 87.501 64s65.334 24 98.001 24c10.667 0 20 -1 28 -3c2 4 4 10 6 18l6 24c2 8 3.66699 15 5 21s2 9.33301 2 10z
M79.9951 85.0039c0 -12.667 1.66699 -23.002 5 -31.002s8.66602 -12 15.999 -12c14.667 0 30.334 7.33301 47.001 22s32.5 32.834 47.5 54.501s28.667 44.834 41 69.501s21.5 46.667 27.5 66l11.5 49.5l10.5 43.5c-22.667 -1.33301 -46.167 -9 -70.5 -23
s-46.5 -32.5 -66.5 -55.5s-36.5 -50.167 -49.5 -81.5s-19.5 -65.333 -19.5 -102z" />
    <glyph glyph-name="r" unicode="r" horiz-adv-x="426" 
d="M488 193c-19.333 -28.667 -38.8301 -54.833 -58.4971 -78.5s-39.167 -44 -58.5 -61s-38.5 -30.333 -57.5 -40s-37.5 -14.5 -55.5 -14.5c-27.333 0 -45.833 7.83301 -55.5 23.5s-14.5 35.167 -14.5 58.5c0 15.333 1.33301 31.333 4 48s5.5 33.167 8.5 49.5l8.5 48
c2.66699 15.667 4 29.5 4 41.5c0 13.333 -4 20 -12 20h-31c-9.33301 0 -18 0.833008 -26 2.5s-15.333 5.5 -22 11.5c-3.33301 -8 -8 -18 -14 -30s-12.667 -24.333 -20 -37s-14.833 -24.834 -22.5 -36.501s-14.834 -21.5 -21.501 -29.5l-28 20c8 10 16.167 22 24.5 36
s16 28 23 42l19 39c5.66699 12 9.5 21.333 11.5 28c-2 4.66699 -5 10.334 -9 17.001s-6 14.667 -6 24s2.5 19 7.5 29s13.5 15 25.5 15c20.667 0 31 -12.667 31 -38c0 -7.33301 -1.16699 -15.333 -3.5 -24s-3.83301 -14 -4.5 -16c4.66699 -6 10.667 -10.167 18 -12.5
s15.666 -3.5 24.999 -3.5c16 0 31 1.83301 45 5.5s26.333 5.5 37 5.5c12.667 0 22.334 -4 29.001 -12s10 -19 10 -33c0 -12 -1.33301 -26.667 -4 -44s-5.83398 -35.5 -9.50098 -54.5s-6.83398 -37.5 -9.50098 -55.5s-4 -33.667 -4 -47c0 -22.667 6 -34 18 -34
c7.33301 0 16.833 3.66699 28.5 11s25 17.666 40 30.999s31.167 29.833 48.5 49.5s35 41.834 53 66.501z" />
    <glyph glyph-name="s" unicode="s" horiz-adv-x="413" 
d="M139 318c-4.66699 -9.33301 -11.002 -21.0029 -19.002 -35.0029s-16.667 -28.167 -26 -42.5l-27.5 -40.5c-9 -12.667 -16.833 -23 -23.5 -31l-28 20c6.66699 8 15 19.167 25 33.5l30.5 45.5c10.333 16 20 32 29 48s15.5 29.333 19.5 40
c-4.66699 8.66699 -7 20.334 -7 35.001s3.16699 28.5 9.5 41.5s16.5 19.5 30.5 19.5c15.333 0 26 -6.5 32 -19.5s9 -26.167 9 -39.5s-2 -23.666 -6 -30.999l30 -46c12 -18 23.833 -37.167 35.5 -57.5s21.5 -41 29.5 -62s12 -41.167 12 -60.5c0 -32 -5.66699 -57.333 -17 -76
c14.667 0 37.667 13.167 69 39.5s65 64.5 101 114.5l28 -21c-23.333 -36 -47 -67 -71 -93s-49.167 -47.333 -75.5 -64s-54.166 -29 -83.499 -37s-61 -12 -95 -12c-40 0 -70 7.83301 -90 23.5s-30 34.834 -30 57.501l32 9c0 -13.333 5.66699 -25.833 17 -37.5
s27 -17.5 47 -17.5c24 0 43 9.16699 57 27.5s21 42.5 21 72.5c0 15.333 -2.5 32.333 -7.5 51s-10.833 37 -17.5 55s-13.667 35 -21 51s-13.666 29 -18.999 39z" />
    <glyph glyph-name="t" unicode="t" horiz-adv-x="381" 
d="M443 193c-16.667 -24.667 -34.168 -48.3262 -52.501 -70.9932s-37.333 -42.667 -57 -60s-40.167 -31.333 -61.5 -42s-43.666 -16 -66.999 -16c-22.667 0 -41.167 4.83301 -55.5 14.5s-25.5 22.5 -33.5 38.5s-13.333 34.667 -16 56s-4 43.666 -4 66.999
c0 11.333 0.333008 23.666 1 36.999s1.33398 25.666 2.00098 36.999c-12 -22 -22.833 -40 -32.5 -54s-17.167 -24.333 -22.5 -31l-28 20c8.66699 12 18.5 27 29.5 45s22.333 39.167 34 63.5s23 52.166 34 83.499s20.5 66 28.5 104c-34.667 -4.66699 -60 -9.16699 -76 -13.5
s-24.333 -6.83301 -25 -7.5l-13 47c15.333 5.33301 30.5 9.5 45.5 12.5s28.833 5.5 41.5 7.5c14.667 2.66699 28.667 4.66699 42 6l34 160l77 -20l-27 -132c6.66699 1.33301 13.667 2.33301 21 3c6.66699 0.666992 14 1.16699 22 1.5s16.667 0.5 26 0.5
c6 0 12 -0.166992 18 -0.5s11.667 -0.833008 17 -1.5l-6 -48c-4.66699 0.666992 -9.5 1.16699 -14.5 1.5s-10.167 0.5 -15.5 0.5c-12 0 -24.5 -0.666992 -37.5 -2s-26.167 -3 -39.5 -5c-14.667 -66.667 -25.334 -126.834 -32.001 -180.501s-10 -99.834 -10 -138.501
c0 -40 3.5 -70.5 10.5 -91.5s17.5 -31.5 31.5 -31.5c15.333 0 32 6.33301 50 19s35.5 27.667 52.5 45s32.667 35.166 47 53.499l33.5 43.5z" />
    <glyph glyph-name="u" unicode="u" horiz-adv-x="680" 
d="M742 194c-7.33301 -12 -18.832 -28.665 -34.499 -49.998s-33.667 -42.333 -54 -63s-42.833 -38.667 -67.5 -54s-49.667 -23 -75 -23c-22 0 -40 6 -54 18s-24.833 26.333 -32.5 43s-12.834 34 -15.501 52s-4 33.333 -4 46c-11.333 -14 -25.833 -30.333 -43.5 -49
s-37.667 -36.5 -60 -53.5s-46.333 -31.333 -72 -43s-52.167 -17.5 -79.5 -17.5c-24 0 -43.667 5.16699 -59 15.5s-27.666 24 -36.999 41s-15.833 36.167 -19.5 57.5s-5.5 42.666 -5.5 63.999c0 14.667 0.833008 30.167 2.5 46.5s3.5 31.333 5.5 45s4 25 6 34
s3.33301 13.5 4 13.5l94 -13l-10 -63c-3.33301 -20 -5 -37.667 -5 -53c0 -43.333 4.5 -77.5 13.5 -102.5s22.167 -37.5 39.5 -37.5c24.667 0 49.834 8 75.501 24s50.667 36.333 75 61s47.166 52 68.499 82s39.666 59 54.999 87l47 -11l-2 -25
c-0.666992 -7.33301 -1.16699 -16.166 -1.5 -26.499s-0.5 -21.166 -0.5 -32.499c0 -16.667 0.666992 -33.834 2 -51.501s3.66602 -33.834 6.99902 -48.501s8 -26.667 14 -36s14 -14 24 -14s21.333 4 34 12s25.334 17.833 38.001 29.5s25 24.5 37 38.5l32 38.5l22.5 28.5
c5.66699 7.33301 8.5 10.666 8.5 9.99902z" />
    <glyph glyph-name="v" unicode="v" horiz-adv-x="432" 
d="M422 343c-12.667 -37.333 -29.3359 -76.1631 -50.0029 -116.496s-42.834 -77.333 -66.501 -111s-47.667 -61.334 -72 -83.001s-46.5 -32.5 -66.5 -32.5c-12 0 -22.333 4.16699 -31 12.5s-16.667 19.166 -24 32.499s-14.333 28.166 -21 44.499s-13.667 32.5 -21 48.5
l-17.5 39l-21.5 47c-7.33301 16 -14.666 31 -21.999 45s-13.666 24.667 -18.999 32l77 46c8 -8 16.167 -19.667 24.5 -35s16.5 -31.833 24.5 -49.5s15.333 -35.167 22 -52.5l17 -45l11 -31.5c4 -11 8 -21.333 12 -31s8.16699 -17.667 12.5 -24s8.5 -9.5 12.5 -9.5
c6 0 16 7.33301 30 22s29.833 35 47.5 61s35.834 56.667 54.501 92s35.334 73.666 50.001 114.999z" />
    <glyph glyph-name="w" unicode="w" horiz-adv-x="640" 
d="M617 352c-6 -82.667 -21.667 -152.502 -47 -209.502s-56.333 -98.167 -93 -123.5c-18.667 -12.667 -36.667 -19 -54 -19c-14.667 0 -27.834 4.33301 -39.501 13s-22 19.834 -31 33.501s-16.667 29 -23 46s-11.5 33.5 -15.5 49.5l-5 -10.5
c-3.33301 -7 -8.16602 -15.5 -14.499 -25.5s-14 -21 -23 -33s-19.333 -23 -31 -33s-24.667 -18.333 -39 -25s-29.5 -10 -45.5 -10c-20.667 0 -38.5 7.16699 -53.5 21.5s-27.667 32.333 -38 54s-18.833 45.334 -25.5 71.001s-11.834 49.5 -15.501 71.5
s-6.16699 40.667 -7.5 56s-2.33301 23.666 -3 24.999l96 18c0.666992 -4 2 -13.167 4 -27.5s4.66699 -31.166 8 -50.499s7.16602 -39.666 11.499 -60.999s9.33301 -40.833 15 -58.5s12 -32.334 19 -44.001s14.167 -17.5 21.5 -17.5c13.333 0 27 8 41 24s27.167 36 39.5 60
s22.833 50 31.5 78s14.334 54 17.001 78l72 -9c0 -23.333 1.66699 -48.666 5 -75.999s8 -52.666 14 -75.999s12.833 -42.833 20.5 -58.5s16.167 -23.5 25.5 -23.5c10 0 19.833 5.33301 29.5 16s19.167 24.5 28.5 41.5s18 36.167 26 57.5s15 42.666 21 63.999
s10.833 41.666 14.5 60.999s5.83398 35.333 6.50098 48z" />
    <glyph glyph-name="x" unicode="x" horiz-adv-x="491" 
d="M553 193c-15.333 -24 -32.998 -48.5039 -52.998 -73.5039s-41.5 -47.667 -64.5 -68s-46.833 -37 -71.5 -50s-49.334 -19.5 -74.001 -19.5c-16 0 -30.5 3.33301 -43.5 10s-24.333 15 -34 25s-18.167 20.667 -25.5 32l-19 30c-2.66699 5.33301 -4.66699 9 -6 11
c-10 -11.333 -22 -23.666 -36 -36.999s-27.667 -25.666 -41 -36.999l-46 -41l-27 31l49 43l42.5 39c15 14 27.833 26.667 38.5 38c0 4 -4.16699 12.333 -12.5 25s-18.5 25.834 -30.5 39.501s-24.667 25.667 -38 36s-25 15.5 -35 15.5l22 86c21.333 0 41.5 -7 60.5 -21
s35.833 -29.667 50.5 -47c17.333 -20 33 -42.667 47 -68l136 144l26 -24l-143 -153c10 -21.333 21 -40.666 33 -57.999c10 -14.667 21.167 -28 33.5 -40s24.833 -18 37.5 -18c10 0 22.667 4.16699 38 12.5s31.666 20 48.999 35s35.333 33 54 54s37 44.167 55 69.5z" />
    <glyph glyph-name="y" unicode="y" horiz-adv-x="485" 
d="M329 349l38 -4.00879c9.33301 -1.33301 17.833 -2.33301 25.5 -3s11.5 -1.33398 11.5 -2.00098c0.666992 -1.33301 2.83398 -12.5 6.50098 -33.5s7.66699 -46.5 12 -76.5s8.33301 -62.5 12 -97.5s5.5 -67.167 5.5 -96.5c0 -90.667 -6.83301 -170.167 -20.5 -238.5
s-31.667 -125.333 -54 -171s-48 -80 -77 -103s-58.833 -34.5 -89.5 -34.5c-24 0 -44.833 5.83301 -62.5 17.5s-32.5 27.334 -44.5 47.001s-20.833 42.334 -26.5 68.001s-8.5 52.5 -8.5 80.5c0 28.667 3.83301 57 11.5 85s18.167 53 31.5 75s29 39.667 47 53s37 20 57 20
c16 0 29.167 -4 39.5 -12s18.5 -17.833 24.5 -29.5s10.167 -24.167 12.5 -37.5s3.5 -25.666 3.5 -36.999c0 -7.33301 -0.333008 -13.666 -1 -18.999s-1.66699 -9.66602 -3 -12.999l-36 -15c1.33301 4 2 11.333 2 22c0 9.33301 -0.5 20 -1.5 32s-2.83301 23.5 -5.5 34.5
s-6.33398 20.333 -11.001 28s-10.334 11.5 -17.001 11.5c-13.333 0 -24.833 -5.83301 -34.5 -17.5s-17.834 -26.834 -24.501 -45.501s-11.5 -39.667 -14.5 -63s-4.5 -46.333 -4.5 -69c0 -25.333 1.66699 -49 5 -71s7.66602 -41.333 12.999 -58s12 -29.667 20 -39
s16.333 -14 25 -14c16.667 0 34.5 11 53.5 33s36.667 54.667 53 98s30 97 41 161s16.5 137.667 16.5 221c0 12.667 -0.333008 26.334 -1 41.001s-1.5 29.667 -2.5 45l-3 44.5c-1 14.333 -2.16699 27.5 -3.5 39.5c-7.33301 -36 -18 -68 -32 -96c-6 -12 -13 -23.833 -21 -35.5
s-17.333 -22 -28 -31s-22.5 -16.333 -35.5 -22s-27.5 -8.5 -43.5 -8.5c-26.667 0 -49.5 7.16699 -68.5 21.5s-34.667 32.5 -47 54.5s-22.166 45.833 -29.499 71.5s-12.666 49.834 -15.999 72.501s-5.5 42 -6.5 58s-1.5 25 -1.5 27l95 -22l5.5 -59.5
c1.66699 -18.333 4.16699 -35.166 7.5 -50.499c10 -41.333 22.5 -73.166 37.5 -95.499s28.833 -33.5 41.5 -33.5s24 4.16699 34 12.5s19 19.333 27 33s15 29.334 21 47.001s11.333 35.5 16 53.5c10.667 42.667 18.334 91.334 23.001 146.001z" />
    <glyph glyph-name="z" unicode="z" horiz-adv-x="355" 
d="M331 -3c6 -37.333 9.00586 -72.6719 9.00586 -106.005c0 -57.333 -6.83301 -110 -20.5 -158s-31.5 -89.667 -53.5 -125s-46.833 -62.833 -74.5 -82.5s-55.167 -29.5 -82.5 -29.5c-23.333 0 -43.666 5.83301 -60.999 17.5s-31.833 27.334 -43.5 47.001
s-20.334 42.334 -26.001 68.001s-8.5 52.5 -8.5 80.5c0 28.667 3.83301 57 11.5 85s18.167 53 31.5 75s29 39.667 47 53s37 20 57 20c16 0 29.167 -4 39.5 -12s18.5 -17.833 24.5 -29.5s10.167 -24.167 12.5 -37.5s3.5 -25.666 3.5 -36.999
c0 -7.33301 -0.333008 -13.666 -1 -18.999s-1.66699 -9.66602 -3 -12.999l-36 -15c1.33301 4 2 11.333 2 22c0 9.33301 -0.5 20 -1.5 32s-2.83301 23.5 -5.5 34.5s-6.33398 20.167 -11.001 27.5s-10.334 11 -17.001 11c-12.667 0 -23.834 -5.83301 -33.501 -17.5
s-17.667 -26.834 -24 -45.501s-11.166 -39.5 -14.499 -62.5s-5 -45.833 -5 -68.5c0 -26 1.5 -50.167 4.5 -72.5s7.16699 -41.5 12.5 -57.5s11.833 -28.667 19.5 -38s16.167 -14 25.5 -14c14 0 29.667 9.5 47 28.5s33.333 44.167 48 75.5s27 67.666 37 108.999
s15 84.666 15 129.999c0 34.667 -2.66699 65.834 -8 93.501s-12.333 51.167 -21 70.5s-18.667 34.166 -30 44.499s-22.666 15.5 -33.999 15.5s-21.333 -1.66699 -30 -5c-4.66699 -2 -9 -4 -13 -6l-15 27c23.333 26.667 43.666 52 60.999 76
c15.333 20.667 29.166 41.667 41.499 63s18.5 38.333 18.5 51c0 9.33301 -2.5 15.833 -7.5 19.5s-11.5 5.5 -19.5 5.5c-11.333 0 -24.333 -2 -39 -6s-28.667 -8.66699 -42 -14c-15.333 -6 -31 -13 -47 -21l-33 70c6 3.33301 14 7.5 24 12.5s21.167 9.83301 33.5 14.5
s25.333 8.5 39 11.5s27.5 4.5 41.5 4.5c11.333 0 22.666 -1.66699 33.999 -5s21.5 -8.66602 30.5 -15.999s16.5 -16.333 22.5 -27s9 -23.667 9 -39c0 -19.333 -5.16699 -39.666 -15.5 -60.999s-21.833 -41.666 -34.5 -60.999c-14.667 -22 -31.667 -44 -51 -66
c3.33301 1.33301 7 2.33301 11 3c3.33301 0.666992 7.16602 1.16699 11.499 1.5s8.83301 0.5 13.5 0.5c9.33301 0 19.833 -1.5 31.5 -4.5s23.167 -9.33301 34.5 -19s22.166 -23.167 32.499 -40.5s18.833 -40.333 25.5 -69z" />
    <glyph glyph-name="braceleft" unicode="{" horiz-adv-x="373" 
d="M128 337c10 -1.33301 20.499 -5.83398 31.499 -13.501s21.167 -17 30.5 -28s17 -23 23 -36s9 -25.5 9 -37.5c0 -16.667 -4.66699 -33.5 -14 -50.5s-19.5 -33.833 -30.5 -50.5s-21.167 -33 -30.5 -49s-14 -31.333 -14 -46c0 -10 1.83301 -21.833 5.5 -35.5
s9.16699 -27.167 16.5 -40.5s16.166 -25.666 26.499 -36.999s22.5 -20.333 36.5 -27l-17 -39c-22 7.33301 -42 17.833 -60 31.5s-33.667 29 -47 46s-23.666 35 -30.999 54s-11 37.5 -11 55.5c0 22 4.33301 40.333 13 55s18.334 28.5 29.001 41.5s20.334 26.667 29.001 41
s13 31.833 13 52.5c0 11.333 -3 22.5 -9 33.5s-13.333 21.333 -22 31s-17.834 18.167 -27.501 25.5s-17.834 13 -24.501 17l-13 7c8.66699 3.33301 19.834 9.66602 33.501 18.999s27 20.5 40 33.5s24.167 26.833 33.5 41.5s14 29 14 43c0 15.333 -2.66699 28.666 -8 39.999
s-11.333 22.5 -18 33.5s-12.667 22.5 -18 34.5s-8 26 -8 42c0 26.667 6.16699 53.334 18.5 80.001s28.166 51.667 47.499 75s41.5 44.333 66.5 63s49.833 33 74.5 43l7 -40c-20 -11.333 -38 -25.166 -54 -41.499s-29.833 -33.666 -41.5 -51.999s-20.667 -37.333 -27 -57
s-9.5 -38.5 -9.5 -56.5c0 -12.667 3 -25.834 9 -39.501s12.5 -27.667 19.5 -42s13.333 -28.5 19 -42.5s8.5 -27.667 8.5 -41c0 -17.333 -4.5 -33.5 -13.5 -48.5s-19.833 -28.5 -32.5 -40.5s-25.667 -22 -39 -30s-24.666 -14 -33.999 -18z" />
    <glyph glyph-name="bar" unicode="|" horiz-adv-x="349" 
d="M152 744h72v-930h-72v930z" />
    <glyph glyph-name="braceright" unicode="}" horiz-adv-x="363" 
d="M211 391c-10 1.33301 -20.499 5.83398 -31.499 13.501s-21.167 17 -30.5 28s-17 23 -23 36s-9 25.5 -9 37.5c0 16.667 4.66699 33.5 14 50.5s19.5 33.833 30.5 50.5s21.167 33 30.5 49s14 31.333 14 46c0 10 -1.83301 21.833 -5.5 35.5s-9.16699 27.167 -16.5 40.5
s-16.166 25.666 -26.499 36.999s-22.5 20.333 -36.5 27l17 39c22 -7.33301 42 -17.833 60 -31.5s33.667 -29 47 -46s23.666 -35 30.999 -54s11 -37.5 11 -55.5c0 -22 -4.33301 -40.333 -13 -55s-18.334 -28.5 -29.001 -41.5s-20.334 -26.667 -29.001 -41
s-13 -31.833 -13 -52.5c0 -11.333 3 -22.5 9 -33.5s13.333 -21.333 22 -31s17.834 -18.167 27.501 -25.5s17.834 -13 24.501 -17l13 -7c-8.66699 -3.33301 -19.834 -9.66602 -33.501 -18.999s-27 -20.5 -40 -33.5s-24.167 -26.833 -33.5 -41.5s-14 -29 -14 -43
c0 -15.333 2.66699 -28.666 8 -39.999s11.333 -22.5 18 -33.5s12.667 -22.5 18 -34.5s8 -26 8 -42c0 -26.667 -6.16699 -53.334 -18.5 -80.001s-28.166 -51.667 -47.499 -75s-41.333 -44.333 -66 -63s-49.667 -33 -75 -43l-7 40c20 11.333 38 25.166 54 41.499
s29.833 33.666 41.5 51.999s20.667 37.333 27 57s9.5 38.5 9.5 56.5c0 12.667 -2.83301 25.834 -8.5 39.501s-12 27.667 -19 42s-13.5 28.5 -19.5 42.5s-9 27.667 -9 41c0 17.333 4.5 33.5 13.5 48.5s19.833 28.5 32.5 40.5s25.667 22 39 30s24.666 14 33.999 18z" />
    <glyph glyph-name="asciitilde" unicode="~" horiz-adv-x="569" 
d="M292 229c-16 7.33301 -33.834 13.999 -53.501 19.999s-39.167 9 -58.5 9c-16.667 0 -33 -5.66699 -49 -17s-30.333 -26.666 -43 -45.999l-33 20c12.667 43.333 30 73.166 52 89.499s45.667 24.5 71 24.5c13.333 0 29 -3 47 -9l56 -19.5c19.333 -7 38.5 -13.5 57.5 -19.5
s36.5 -9 52.5 -9s32 5.83301 48 17.5s31.667 26.834 47 45.501l33 -17c-9.33301 -38 -25.666 -67 -48.999 -87s-48 -30 -74 -30c-8.66699 0 -19 1.5 -31 4.5s-23.667 6.16699 -35 9.5c-12.667 4 -25.667 8.66699 -39 14h1z" />
    <glyph glyph-name="exclamdown" unicode="&#xa1;" horiz-adv-x="304" 
d="M112 497l12 108l82 -10l-12 -108zM167 421l-54 -668l-113 16l121 658z" />
    <glyph glyph-name="cent" unicode="&#xa2;" horiz-adv-x="545" 
d="M486 138c-33.333 -20.667 -68.8389 -38.8359 -106.506 -54.5029s-77.167 -23.5 -118.5 -23.5c-32.667 0 -61.5 6.33301 -86.5 19s-46.167 29.667 -63.5 51s-30.5 46.333 -39.5 75s-13.5 59.334 -13.5 92.001s3.33301 65.667 10 99s16.5 65.5 29.5 96.5s28.833 60 47.5 87
s40 50.5 64 70.5s50.5 35.833 79.5 47.5s59.833 17.5 92.5 17.5c17.333 0 33 -3 47 -9s26 -14.167 36 -24.5s17.667 -22.5 23 -36.5s8 -28.667 8 -44c0 -21.333 -4.66699 -43.833 -14 -67.5s-22.333 -45.334 -39 -65.001s-36.667 -35.834 -60 -48.501s-49 -19 -77 -19
c-22 0 -39.5 6.33301 -52.5 19s-19.5 28.667 -19.5 48c0 15.333 3.83301 29.833 11.5 43.5s20.834 28.834 39.501 45.501l22 -33c-8.66699 -4 -16.5 -11.167 -23.5 -21.5s-10.5 -21.833 -10.5 -34.5c0 -22 11 -33 33 -33c14 0 27.833 4.5 41.5 13.5s25.667 21.333 36 37
s18.833 33.834 25.5 54.501s10 42.334 10 65.001c0 26.667 -3.66699 44.834 -11 54.501s-16.666 14.5 -27.999 14.5c-36 0 -68.167 -11.167 -96.5 -33.5s-52.166 -51 -71.499 -86s-34 -74.333 -44 -118s-15 -87.167 -15 -130.5c0 -23.333 3 -46.333 9 -69
s14.833 -43 26.5 -61s26 -32.5 43 -43.5s36.167 -16.5 57.5 -16.5c15.333 0 30.833 2 46.5 6s31.334 9.16699 47.001 15.5s30.834 13.333 45.501 21s28.334 15.167 41.001 22.5zM299.994 27.998l-10 -103l-77 8l10 103zM417.994 848.998l-10 -103l-77 8l10 103z" />
    <glyph glyph-name="sterling" unicode="&#xa3;" horiz-adv-x="567" 
d="M82 334l56.0029 0.00292969l13 91c4.66699 32 11.667 66 21 102c12 43.333 26.833 78.5 44.5 105.5s36.667 48.333 57 64s40.833 26.334 61.5 32.001s39.667 8.5 57 8.5c23.333 0 43.5 -3.83301 60.5 -11.5s31.167 -17.834 42.5 -30.501s19.833 -27.334 25.5 -44.001
s8.5 -34 8.5 -52c0 -60.667 -12 -107.667 -36 -141s-57.333 -50 -100 -50c-16.667 0 -31 3.83301 -43 11.5s-22 17.167 -30 28.5s-13.833 23.833 -17.5 37.5s-5.5 26.834 -5.5 39.501c0 13.333 1.83301 27.166 5.5 41.499s8.66699 27.333 15 39s14.166 21.334 23.499 29.001
s19.333 11.5 30 11.5c14 0 26 -5.66699 36 -17l-22 -24l-3 3c-2 2 -5.33301 3 -10 3c-5.33301 0 -10.333 -2.5 -15 -7.5s-8.5 -11.5 -11.5 -19.5s-5.33301 -16.5 -7 -25.5s-2.5 -17.5 -2.5 -25.5c0 -10 1.16699 -20 3.5 -30s5.83301 -19 10.5 -27s10.5 -14.333 17.5 -19
s15.167 -7 24.5 -7c11.333 0 21.333 4.33301 30 13s15.667 20 21 34s9.33301 29.667 12 47s4 34.666 4 51.999c0 13.333 -1.5 26.333 -4.5 39s-7.5 23.667 -13.5 33s-13 16.833 -21 22.5s-17 8.5 -27 8.5c-28 0 -53.667 -13.833 -77 -41.5s-41.333 -64.5 -54 -110.5
c-10 -36 -17.667 -71.5 -23 -106.5l-16 -106.5h161v-67h-173c-1.33301 -8.66699 -3 -17.334 -5 -26.001l-6 -26c-8.66699 -35.333 -17.5 -64.333 -26.5 -87s-17.333 -40.834 -25 -54.501s-13.834 -23.167 -18.501 -28.5s-7.33398 -8 -8.00098 -8
c1.33301 0.666992 6.33301 2.83398 15 6.50098s19.5 7.66699 32.5 12s27.333 8.16602 43 11.499s31.167 5 46.5 5s30.5 -2.66699 45.5 -8s29.667 -11.166 44 -17.499s28.166 -12.166 41.499 -17.499s25.666 -8 36.999 -8c6.66699 0 14.667 0.666992 24 2s19 4.33301 29 9
s20.167 11.667 30.5 21s19.5 21.666 27.5 36.999l36 -15c-10.667 -20 -22 -36.333 -34 -49s-24.333 -22.334 -37 -29.001s-25.167 -11.167 -37.5 -13.5s-24.166 -3.5 -35.499 -3.5c-20 0 -37.167 2.66699 -51.5 8s-27.666 11 -39.999 17l-36.5 17c-12 5.33301 -26 8 -42 8
c-21.333 0 -44.833 -3.83301 -70.5 -11.5s-49.5 -16.167 -71.5 -25.5c-26 -10.667 -52 -22.667 -78 -36l-40 50c0.666992 0 5 2.83301 13 8.5s18 16.667 30 33s25 39.833 39 70.5s27.333 71 40 121c1.33301 4.66699 2.33301 9 3 13s1.66699 8.66699 3 14h-46v67z" />
    <glyph glyph-name="yen" unicode="&#xa5;" 
d="M116 270l110.998 0.00195312l1 30c0 6.66699 -0.166992 13 -0.5 19s-0.833008 11.667 -1.5 17c-1.33301 17.333 -6.83301 37.666 -16.5 60.999s-21.5 47.333 -35.5 72s-29 49.167 -45 73.5s-31.167 46.166 -45.5 65.499l-36.5 48c-10 12.667 -16 19.667 -18 21
c0.666992 0 6.33398 2.33301 17.001 7l35.5 15l36 14.5c11 4.33301 16.833 6.5 17.5 6.5c1.33301 0 4.5 -4.16699 9.5 -12.5l19 -32.5l25.5 -46.5l29 -53.5l77 -146l221 289l54 -15c-7.33301 -6.66699 -16.666 -16.834 -27.999 -30.501l-37.5 -47l-43 -56.5l-44.5 -60
l-110 -153l-8 -86h105l-3 -49h-109v-35h107l-3 -49h-113l-10 -159l-74 5c1.33301 14 3.33301 29.333 6 46c2 14 4.16699 30.333 6.5 49s4.5 38.334 6.5 59.001h-110l3 49h111l3 35h-112z" />
    <glyph glyph-name="brokenbar" unicode="&#xa6;" horiz-adv-x="349" 
d="M152 744h72v-930h-72v930z" />
    <glyph glyph-name="section" unicode="&#xa7;" horiz-adv-x="565" 
d="M326 445c-3.33301 0.666992 -6.66699 1.16797 -10 1.50098s-6.66602 0.5 -9.99902 0.5c-14.667 0 -28 -3.33301 -40 -10s-22.333 -15.5 -31 -26.5s-15.334 -23.833 -20.001 -38.5s-7 -30.334 -7 -47.001c0 -19.333 8.83301 -38.333 26.5 -57s37.5 -37 59.5 -55
c8.66699 4 17.667 10.833 27 20.5s17.833 20.667 25.5 33s14 25.5 19 39.5s7.5 28 7.5 42c0 20 -4.33301 37.833 -13 53.5s-20 30.167 -34 43.5zM290.999 472.001l-48.001 35.001c-16.667 12 -31.834 24.667 -45.501 38s-24.834 27.5 -33.501 42.5s-13 31.5 -13 49.5
c0 22.667 4.33301 43.667 13 63s21 36 37 50s35 25 57 33s46.333 12 73 12c19.333 0 37.333 -3.5 54 -10.5s31.334 -15.667 44.001 -26s22.5 -21.833 29.5 -34.5s10.5 -25 10.5 -37c0 -14.667 -3.16699 -28.167 -9.5 -40.5s-14.666 -23 -24.999 -32s-22 -15.833 -35 -20.5
s-26.5 -7 -40.5 -7c-16.667 0 -29.334 5.5 -38.001 16.5s-13 22.5 -13 34.5c0 11.333 5.33301 23.166 16 35.499s26.667 18.5 48 18.5l1 -28c-9.33301 0 -15.833 -3.16699 -19.5 -9.5s-5.5 -12.166 -5.5 -17.499c0 -7.33301 1.5 -13.166 4.5 -17.499s6.5 -6.5 10.5 -6.5
c9.33301 0 18 6.16699 26 18.5s12 30.166 12 53.499c0 7.33301 -1.5 15.666 -4.5 24.999s-7.5 18.166 -13.5 26.499s-13.333 15.333 -22 21s-19 8.5 -31 8.5c-14.667 0 -27.834 -3.33301 -39.501 -10s-21.5 -15.667 -29.5 -27s-14.167 -24.166 -18.5 -38.499
s-6.5 -29.5 -6.5 -45.5c0 -15.333 5.33301 -30.166 16 -44.499s24.167 -28.5 40.5 -42.5s33.833 -28.167 52.5 -42.5s36.167 -29.666 52.5 -45.999s29.833 -33.833 40.5 -52.5s16 -39.334 16 -62.001c0 -20.667 -3.66699 -39.5 -11 -56.5s-17 -32.333 -29 -46
s-26 -25.167 -42 -34.5s-33 -16.666 -51 -21.999c13.333 -10.667 26.333 -22 39 -34s23.834 -24.667 33.501 -38s17.5 -27.333 23.5 -42s9 -30.334 9 -47.001c0 -26 -5.66699 -49.333 -17 -70s-26 -38.167 -44 -52.5s-38.333 -25.333 -61 -33s-45.667 -11.5 -69 -11.5
c-20.667 0 -40.834 3.16699 -60.501 9.5s-37 15.5 -52 27.5s-27.167 26.833 -36.5 44.5s-14 37.834 -14 60.501c0 16 2.83301 32.167 8.5 48.5s13.834 31.166 24.501 44.499s23.667 24.166 39 32.499s32.666 12.5 51.999 12.5c12.667 0 24.834 -2.33301 36.501 -7
s22 -10.834 31 -18.501s16.333 -16.667 22 -27s8.5 -21.5 8.5 -33.5s-2.83301 -23 -8.5 -33s-12.834 -18.5 -21.501 -25.5s-18.167 -12.333 -28.5 -16s-20.166 -5.5 -29.499 -5.5c-19.333 0 -36 8 -50 24l22 22c9.33301 -10 17.666 -15 24.999 -15
c8 0 15.333 5.16699 22 15.5s10 20.5 10 30.5c0 4.66699 -0.833008 10 -2.5 16s-4.16699 11.833 -7.5 17.5s-7.66602 10.5 -12.999 14.5s-11.666 6 -18.999 6c-9.33301 0 -17.166 -3.83301 -23.499 -11.5s-11.5 -16.667 -15.5 -27s-7 -21.166 -9 -32.499s-3 -21 -3 -29
c0 -18 2.66699 -34.167 8 -48.5s12.333 -26.333 21 -36s18.5 -17.167 29.5 -22.5s22.5 -8 34.5 -8c13.333 0 26.666 3.16699 39.999 9.5s25.166 15.166 35.499 26.499s18.666 25 24.999 41s9.5 33.667 9.5 53c0 22.667 -5.5 42.5 -16.5 59.5s-24.667 32.667 -41 47
s-34.166 28 -53.499 41s-37.166 26.5 -53.499 40.5s-30 29.167 -41 45.5s-16.5 34.833 -16.5 55.5c0 22.667 4.83301 43.5 14.5 62.5s22.334 35.333 38.001 49s33.667 24.334 54 32.001s40.833 11.5 61.5 11.5z" />
    <glyph glyph-name="dieresis" unicode="&#xa8;" horiz-adv-x="360" 
d="M157 500l-10 -72l-72 8l10 72zM287 500l-10 -72l-72 8l10 72z" />
    <glyph glyph-name="copyright" unicode="&#xa9;" horiz-adv-x="693" 
d="M382 470c22.667 0 43.5078 -5.83594 62.5078 -17.5029s32.167 -29.5 39.5 -53.5h-39c-2.66699 6.66699 -6 12.667 -10 18c-3.33301 4.66699 -8 8.83398 -14 12.501s-13.667 5.5 -23 5.5c-15.333 0 -29.833 -5.5 -43.5 -16.5s-25.5 -25.5 -35.5 -43.5s-18 -38 -24 -60
s-9 -44 -9 -66c0 -16 1.5 -31.333 4.5 -46s7.83301 -27.834 14.5 -39.501s15.5 -21 26.5 -28s24.5 -10.5 40.5 -10.5c30 0 56 6.66699 78 20s40 30.833 54 52.5s24.333 46.334 31 74.001s10 55.834 10 84.501c0 29.333 -3.16699 57.833 -9.5 85.5s-15.5 52.334 -27.5 74.001
s-26.833 39.167 -44.5 52.5s-37.5 20 -59.5 20c-30.667 0 -60.334 -10.167 -89.001 -30.5s-54 -47 -76 -80s-39.667 -70.333 -53 -112s-20 -83.5 -20 -125.5c0 -29.333 3.5 -59.666 10.5 -90.999s17.833 -59.833 32.5 -85.5s33.167 -46.667 55.5 -63s48.5 -24.5 78.5 -24.5
c10.667 0 22 1.33301 34 4s24.167 7 36.5 13s24.333 13.667 36 23s22.5 20.666 32.5 33.999l34 -25c-26.667 -32 -54.834 -54.5 -84.501 -67.5s-59.834 -19.5 -90.501 -19.5c-47.333 0 -88 8.83301 -122 26.5s-61.833 40.834 -83.5 69.501s-37.667 60.834 -48 96.501
s-15.5 71.834 -15.5 108.501c0 46.667 8.16699 92.667 24.5 138s39.166 85.833 68.499 121.5s64.5 64.5 105.5 86.5s86.167 33 135.5 33c39.333 0 73.166 -6.33301 101.499 -19s51.666 -29.5 69.999 -50.5s32 -45.167 41 -72.5s13.5 -56 13.5 -86
c0 -36.667 -6.5 -73.667 -19.5 -111s-31.833 -70.833 -56.5 -100.5s-54.834 -53.834 -90.501 -72.501s-76.5 -28 -122.5 -28c-26.667 0 -49.334 4.83301 -68.001 14.5s-34 22.5 -46 38.5s-20.833 34 -26.5 54s-8.5 40.333 -8.5 61c0 26.667 4.66699 53.167 14 79.5
s22.333 50.166 39 71.499s36.5 38.666 59.5 51.999s48.167 20.333 75.5 21z" />
    <glyph glyph-name="ordfeminine" unicode="&#xaa;" horiz-adv-x="515" 
d="M350 356c-21.333 0 -38.3359 7.66699 -51.0029 23s-21.334 36.333 -26.001 63c-6 -10 -13.333 -20.333 -22 -31s-18.334 -20.167 -29.001 -28.5s-22 -15.166 -34 -20.499s-24.333 -8 -37 -8c-18.667 0 -34.334 6 -47.001 18s-19 32 -19 60s6 55.167 18 81.5
s27.833 49.5 47.5 69.5s41.834 36.167 66.501 48.5s49.334 18.5 74.001 18.5c8.66699 0 16.667 -1.33301 24 -4v-33c-16.667 0 -34.667 -5.16699 -54 -15.5s-37 -24.5 -53 -42.5s-29.333 -39.167 -40 -63.5s-16 -50.166 -16 -77.499c0 -8 0.833008 -14.667 2.5 -20
s4.83398 -8 9.50098 -8c12 0 25.333 7.33301 40 22s28.667 32 42 52s24.833 40.333 34.5 61s15.5 37.334 17.5 50.001l40 -11l-4 -30c-1.33301 -8.66699 -2.5 -18 -3.5 -28s-1.5 -19 -1.5 -27c0 -9.33301 0.5 -18.833 1.5 -28.5s2.83301 -18.334 5.5 -26.001
s5.83398 -13.834 9.50098 -18.501s7.83398 -7 12.501 -7c3.33301 0 7.83301 1.33301 13.5 4s9.5 4.66699 11.5 6l16 -31c-6.66699 -3.33301 -13 -6.33301 -19 -9c-5.33301 -2.66699 -10.666 -4.83398 -15.999 -6.50098s-10 -2.5 -14 -2.5zM100.997 322h287v-45h-287v45z" />
    <glyph glyph-name="guillemotleft" unicode="&#xab;" horiz-adv-x="456" 
d="M217 296l-55.001 -53c-14 -13.333 -26.667 -26.166 -38 -38.499s-17 -19.833 -17 -22.5c0 -2 3.66699 -8.16699 11 -18.5s16 -21.5 26 -33.5l29.5 -34.5c9.66699 -11 16.834 -18.5 21.501 -22.5l-20 -32c-10.667 9.33301 -23.667 22.666 -39 39.999l-44.5 52.5
l-36.5 46.5c-10 13.333 -15 21 -15 23c0 6.66699 7 18.5 21 35.5s29.667 34.833 47 53.5c20 22 42.667 45.333 68 70zM360.999 296l-55.001 -53c-14 -13.333 -26.667 -26.166 -38 -38.499s-17 -19.833 -17 -22.5c0 -2 3.66699 -8.16699 11 -18.5s16 -21.5 26 -33.5
l29.5 -34.5c9.66699 -11 16.834 -18.5 21.501 -22.5l-20 -32c-10.667 9.33301 -23.667 22.666 -39 39.999l-44.5 52.5l-36.5 46.5c-10 13.333 -15 21 -15 23c0 6.66699 7 18.5 21 35.5s29.667 34.833 47 53.5c20 22 42.667 45.333 68 70z" />
    <glyph glyph-name="registered" unicode="&#xae;" horiz-adv-x="678" 
d="M308 368c-4.66699 -14 -11.665 -30.835 -20.998 -50.502s-19.833 -39.667 -31.5 -60s-24 -39.666 -37 -57.999s-25.5 -33.5 -37.5 -45.5c1.33301 -16 6.33301 -34.333 15 -55s20.167 -40 34.5 -58s31.833 -33.333 52.5 -46s43.667 -19 69 -19c10.667 0 22 1.33301 34 4
s24.167 7 36.5 13s24.333 13.667 36 23s22.5 20.666 32.5 33.999l34 -25c-26.667 -32 -54.834 -54.5 -84.501 -67.5s-59.834 -19.5 -90.501 -19.5c-47.333 0 -88 8.83301 -122 26.5s-61.833 40.834 -83.5 69.501s-37.667 60.834 -48 96.501s-15.5 71.834 -15.5 108.501
c0 46.667 7.16699 93 21.5 139s35 87.333 62 124s60.167 66.5 99.5 89.5s83.666 34.5 132.999 34.5c41.333 0 76.666 -7.66699 105.999 -23s53.333 -35.5 72 -60.5s32.334 -53.833 41.001 -86.5s13 -66 13 -100c0 -36 -4.33301 -71.5 -13 -106.5s-21 -66.333 -37 -94
s-35 -50 -57 -67s-46 -25.5 -72 -25.5c-9.33301 0 -19 1.83301 -29 5.5s-19.167 9.5 -27.5 17.5s-15.166 18.167 -20.499 30.5s-8 27.166 -8 44.499c0 30 3.33301 60 10 90s10 57.667 10 83c0 13.333 -3.66699 20 -11 20h-22c-8.66699 0 -16.667 0.833008 -24 2.5
s-14 5.5 -20 11.5zM395.002 595.998c-30.667 0 -59.333 -10.3379 -86 -31.0049s-49.834 -48.5 -69.501 -83.5s-35 -75.667 -46 -122s-16.5 -95.166 -16.5 -146.499v-3c8.66699 10.667 18.334 23.334 29.001 38.001s21 30.334 31 47.001s19 34 27 52s14 35.667 18 53
c-1.33301 4.66699 -3.83301 10.334 -7.5 17.001s-5.5 15 -5.5 25c0 9.33301 2.16699 19 6.5 29s12.166 15 23.499 15c18.667 0 28 -12.667 28 -38c0 -3.33301 -0.166992 -7.5 -0.5 -12.5s-1.16602 -9.5 -2.49902 -13.5c-1.33301 -4.66699 -2.66602 -9.66699 -3.99902 -15
c7.33301 -10.667 20.333 -16 39 -16c14.667 0 28.5 1.83301 41.5 5.5s24.167 5.5 33.5 5.5c11.333 0 20 -4 26 -12s9 -19 9 -33c0 -12 -1.16699 -26.833 -3.5 -44.5s-5 -36 -8 -55l-8.5 -56c-2.66699 -18.333 -4 -34.166 -4 -47.499c0 -10 1.66699 -18.833 5 -26.5
s8.66602 -11.5 15.999 -11.5c10.667 0 20.667 6.16699 30 18.5s17.5 28.5 24.5 48.5s12.5 42.667 16.5 68s6 51.333 6 78c0 32 -2.83301 63.833 -8.5 95.5s-14.5 60.167 -26.5 85.5s-27.333 46 -46 62s-41 24 -67 24z" />
    <glyph glyph-name="macron" unicode="&#xaf;" horiz-adv-x="330" 
d="M65 476h222v-47h-222v47z" />
    <glyph glyph-name="degree" unicode="&#xb0;" horiz-adv-x="382" 
d="M293 607c-20.667 0 -38.6699 -5.00098 -54.0029 -15.001s-27.666 -22.5 -36.999 -37.5s-16.333 -31.5 -21 -49.5s-7 -35.333 -7 -52c0 -28 3.33301 -47.667 10 -59s14.667 -17 24 -17c8 0 16.667 3.66699 26 11s17.833 16.833 25.5 28.5s14 24.834 19 39.501
s7.5 29 7.5 43c0 10.667 -1.66699 19.334 -5 26.001s-8.66602 10 -15.999 10s-14.5 -2.83301 -21.5 -8.5s-10.833 -8.5 -11.5 -8.5l-20 24c1.33301 1.33301 4.33301 3.66602 9 6.99902s10.5 6.66602 17.5 9.99902s14.833 6.33301 23.5 9s18 4 28 4
c17.333 0 30.333 -7.5 39 -22.5s13 -33.167 13 -54.5c0 -20.667 -4.33301 -40 -13 -58s-19.667 -33.5 -33 -46.5s-28.5 -23.167 -45.5 -30.5s-33.5 -11 -49.5 -11c-12.667 0 -24.5 2.33301 -35.5 7s-20.833 12 -29.5 22s-15.5 22.833 -20.5 38.5s-7.5 34.5 -7.5 56.5
s4 44.5 12 67.5s19.5 43.833 34.5 62.5s32.833 33.834 53.5 45.501s43.334 17.5 68.001 17.5z" />
    <glyph glyph-name="plusminus" unicode="&#xb1;" horiz-adv-x="724" 
d="M116 63h230v233h-235v72h235v235h72v-235h235v-72h-235v-233h233v-80h-535v80z" />
    <glyph glyph-name="uni00B2" unicode="&#xb2;" horiz-adv-x="446" 
d="M197 303c12.667 0 23.833 -2.99902 33.5 -8.99902s18.334 -12.5 26.001 -19.5l21.5 -19.5c6.66699 -6 13.667 -9 21 -9c6.66699 0 13.167 2.66699 19.5 8s12 11.5 17 18.5s9 13.667 12 20s4.5 10.166 4.5 11.499l28 -13c-5.33301 -18 -12 -34.333 -20 -49
c-7.33301 -12.667 -16.5 -24 -27.5 -34s-24.5 -15 -40.5 -15c-12.667 0 -24 3 -34 9s-19.333 12.833 -28 20.5s-17 14.5 -25 20.5s-16.333 9 -25 9c-7.33301 0 -14 -2.5 -20 -7.5s-11.333 -10.833 -16 -17.5c-5.33301 -7.33301 -10 -15.666 -14 -24.999l-39 6
c5.33301 35.333 18 66.833 38 94.5s41.333 54.5 64 80.5l33.5 40c11 13.333 20.833 26.666 29.5 39.999s15.5 27 20.5 41s7.5 28.333 7.5 43c0 11.333 -0.833008 22.833 -2.5 34.5s-4.33398 22.167 -8.00098 31.5s-8.33398 16.833 -14.001 22.5s-12.167 8.5 -19.5 8.5
c-8.66699 0 -17.334 -2 -26.001 -6s-16.5 -10.167 -23.5 -18.5s-12.667 -18.666 -17 -30.999s-6.5 -26.833 -6.5 -43.5c0 -16 2 -28.5 6 -37.5s8.66699 -13.5 14 -13.5c7.33301 0 13.5 2.5 18.5 7.5s9.16699 10.833 12.5 17.5s5.83301 13.834 7.5 21.501
s2.5 13.834 2.5 18.501c0 3.33301 -0.5 6.5 -1.5 9.5s-2.16699 4.5 -3.5 4.5c-3.33301 -0.666992 -7.33301 -2.66699 -12 -6s-7.66699 -6 -9 -8l-19 19c16 15.333 30.667 23 44 23c12.667 0 21.334 -4.16699 26.001 -12.5s7 -19.5 7 -33.5
c0 -10.667 -1.83301 -21.5 -5.5 -32.5s-9 -21 -16 -30s-15.167 -16.333 -24.5 -22s-20 -8.5 -32 -8.5c-12.667 0 -23.5 2.5 -32.5 7.5s-16.5 11.667 -22.5 20s-10.333 17.833 -13 28.5s-4 21.667 -4 33c0 15.333 3.33301 30.166 10 44.499s15.834 27.166 27.501 38.499
s25.5 20.5 41.5 27.5s33.667 10.5 53 10.5c32.667 0 60.5 -10 83.5 -30s34.5 -49.667 34.5 -89c0 -26.667 -7.5 -52.334 -22.5 -77.001s-32.333 -47.834 -52 -69.501s-39.334 -41.167 -59.001 -58.5s-34.167 -32.666 -43.5 -45.999c2.66699 0.666992 7.33398 1 14.001 1z
" />
    <glyph glyph-name="uni00B3" unicode="&#xb3;" horiz-adv-x="437" 
d="M356 575c-0.666992 -20.667 -6.34082 -40.5039 -17.0078 -59.5039s-28.667 -35.833 -54 -50.5c20 -13.333 34.833 -30.333 44.5 -51s14.5 -42 14.5 -64c0 -20.667 -3.66699 -41.167 -11 -61.5s-17.833 -38.666 -31.5 -54.999s-30 -29.666 -49 -39.999
s-40.5 -15.5 -64.5 -15.5c-16.667 0 -31.834 3.83301 -45.501 11.5s-25.167 17.5 -34.5 29.5s-16.666 25.5 -21.999 40.5s-8 29.833 -8 44.5c0 16 2.33301 31.833 7 47.5s11.334 29.834 20.001 42.501s19.167 23 31.5 31s26.5 12 42.5 12c20 0 34.333 -8 43 -24
s13 -33.667 13 -53c0 -22 -4.33301 -40 -13 -54s-19.334 -21 -32.001 -21c-6 0 -12.333 2.16699 -19 6.5s-13.334 11.166 -20.001 20.499l24 19c0.666992 -1.33301 1.66699 -2.66602 3 -3.99902c2.66699 -2.66699 4.66699 -4 6 -4c4 0 7 3.5 9 10.5s3 14.833 3 23.5
c0 4.66699 -0.333008 9.66699 -1 15s-1.66699 10.5 -3 15.5s-3 9.16699 -5 12.5s-4.33301 5 -7 5c-12 0 -21 -9 -27 -27s-9 -38 -9 -60c0 -12 1 -24.5 3 -37.5s5 -25 9 -36s9 -20 15 -27s13 -10.5 21 -10.5c11.333 0 21.833 4.5 31.5 13.5s17.834 20.167 24.501 33.5
s11.834 28 15.501 44s5.5 31.333 5.5 46c0 19.333 -4.16699 36.5 -12.5 51.5s-22.166 24.167 -41.499 27.5l-10 50c1.33301 0 6.16602 2 14.499 6s17.5 10.167 27.5 18.5s19 18.833 27 31.5s12 27.667 12 45c0 8 -0.666992 16.333 -2 25s-3.66602 16.5 -6.99902 23.5
s-7.66602 12.833 -12.999 17.5s-11.666 7 -18.999 7c-8.66699 0 -16 -2.16699 -22 -6.5s-10.667 -9.83301 -14 -16.5s-5.83301 -14.167 -7.5 -22.5s-2.5 -16.166 -2.5 -23.499c0 -11.333 2 -19.666 6 -24.999s8.33301 -8 13 -8c4 0 7.33301 2.33301 10 7s4 9.66699 4 15
s-1.33301 9.66602 -4 12.999l31 16c2.66699 -7.33301 4.16699 -13.5 4.5 -18.5s0.5 -9.16699 0.5 -12.5c-0.666992 -15.333 -6.16699 -29.833 -16.5 -43.5s-26.166 -20.5 -47.499 -20.5c-11.333 0 -21.166 2.16699 -29.499 6.5s-15.166 10 -20.499 17
s-9.33301 14.667 -12 23s-4 16.5 -4 24.5c0 12.667 2.33301 25.167 7 37.5s11.834 23.5 21.501 33.5s21.667 18 36 24s31.5 9 51.5 9c36 0 62.667 -10.167 80 -30.5s26 -43.833 26 -70.5z" />
    <glyph glyph-name="acute" unicode="&#xb4;" horiz-adv-x="274" 
d="M71 454l92 135l54 -47l-114 -113z" />
    <glyph glyph-name="paragraph" unicode="&#xb6;" horiz-adv-x="700" 
d="M424 654l-41.002 -0.000976562v-894h-72v399c-8.66699 -3.33301 -20.167 -6.5 -34.5 -9.5s-31.166 -4.5 -50.499 -4.5c-38 0 -71 7.5 -99 22.5s-51.167 34.667 -69.5 59s-32 51.833 -41 82.5s-13.5 61.334 -13.5 92.001c0 32.667 4.83301 64.667 14.5 96
s23.834 59.5 42.501 84.5s41.667 45.167 69 60.5s59 23 95 23c27.333 0 56.333 -5 87 -15v40h185v-930h-72v894z" />
    <glyph glyph-name="periodcentered" unicode="&#xb7;" horiz-adv-x="336" 
d="M221 341l-12 -118l-95 10l12 118z" />
    <glyph glyph-name="cedilla" unicode="&#xb8;" horiz-adv-x="296" 
d="M198 13c-1.33301 -2.66699 -3.66699 -6.99805 -7 -12.998l-11 -19l-15 -24c15.333 -6.66699 27.166 -17.5 35.499 -32.5s12.5 -31.167 12.5 -48.5c0 -10.667 -1.66699 -21 -5 -31s-8.5 -18.833 -15.5 -26.5s-16.167 -13.834 -27.5 -18.501s-24.666 -7 -39.999 -7
c-12.667 0 -25 1.83301 -37 5.5s-22 9.16699 -30 16.5l16 29c4.66699 -1.33301 9 -3 13 -5c8 -3.33301 14.333 -5 19 -5c17.333 0 29.666 5.33301 36.999 16s11 22 11 34c0 13.333 -4.16699 25.666 -12.5 36.999s-19.166 17.333 -32.499 18l21 33l15 25
c4.66699 8 7.66699 13.333 9 16h44z" />
    <glyph glyph-name="uni00B9" unicode="&#xb9;" 
d="M300 243h-165l2 40h45l4.5 103.5c1.66699 37.667 3.16699 73.5 4.5 107.5c2 39.333 3.66699 78.666 5 117.999l-20 -8l-17 -6.5c-6 -2.33301 -11.333 -4.16602 -16 -5.49902l-12 26l72 58h66l-16 -393h48z" />
    <glyph glyph-name="ordmasculine" unicode="&#xba;" horiz-adv-x="382" 
d="M82 461c0 26 4.66895 51.498 14.002 76.498s22 47.5 38 67.5s34.333 36.833 55 50.5s42 21.834 64 24.501l11 -43c-19.333 -4 -36.5 -12.667 -51.5 -26s-27.5 -29.166 -37.5 -47.499s-17.667 -37.5 -23 -57.5s-8 -38.333 -8 -55c0 -8.66699 0.333008 -17.667 1 -27
s2 -17.833 4 -25.5s5 -14 9 -19s9 -7.5 15 -7.5c9.33301 0 18.833 5.83301 28.5 17.5s18.5 26.167 26.5 43.5s14.5 36.5 19.5 57.5s7.5 40.5 7.5 58.5c0 20.667 -3.66699 31 -11 31c-3.33301 0 -8 -2 -14 -6s-10.667 -7.66699 -14 -11l-15 17
c1.33301 1.33301 3.83301 3.5 7.5 6.5s8 6.16699 13 9.5s10.833 6.33301 17.5 9s13.667 4 21 4c14 0 26 -5.66699 36 -17s15 -30.333 15 -57c0 -24 -3.66699 -47.333 -11 -70s-17.333 -42.667 -30 -60s-27.834 -31.333 -45.501 -42s-36.834 -16 -57.501 -16
c-24.667 0 -45 10.5 -61 31.5s-24 48.5 -24 82.5zM79.002 321.998h191v-45h-191v45z" />
    <glyph glyph-name="guillemotright" unicode="&#xbb;" horiz-adv-x="481" 
d="M242 108l55.001 53c14 13.333 26.833 26.166 38.5 38.499s17.167 19.833 16.5 22.5c0 2 -3.66699 8.16699 -11 18.5s-16 21.5 -26 33.5l-29.5 34.5c-9.66699 11 -16.834 18.5 -21.501 22.5l20 32c10.667 -9.33301 23.667 -22.666 39 -39.999l44.5 -52
c14.333 -17.333 26.5 -32.833 36.5 -46.5s15 -21.5 15 -23.5c0 -2.66699 -2 -7.16699 -6 -13.5s-9.16699 -13.5 -15.5 -21.5l-21.5 -26l-25 -28c-20 -22 -42.667 -45.333 -68 -70zM98.001 108l55.001 53c14 13.333 26.833 26.166 38.5 38.499s17.167 19.833 16.5 22.5
c0 2 -3.66699 8.16699 -11 18.5s-16 21.5 -26 33.5l-29.5 34.5c-9.66699 11 -16.834 18.5 -21.501 22.5l20 32c10.667 -9.33301 23.667 -22.666 39 -39.999l44.5 -52c14.333 -17.333 26.5 -32.833 36.5 -46.5s15 -21.5 15 -23.5c0 -2.66699 -2 -7.16699 -6 -13.5
s-9.16699 -13.5 -15.5 -21.5l-21.5 -26l-25 -28c-20 -22 -42.667 -45.333 -68 -70z" />
    <glyph glyph-name="onequarter" unicode="&#xbc;" horiz-adv-x="695" 
d="M551 151l69.001 -0.00292969l-2 -41h-69l-13 -151l-62 3l11 150l-135 1c-1.33301 5.33301 -3 10.333 -5 15c-1.33301 4 -3.16602 8.33301 -5.49902 13s-4.5 8.66699 -6.5 12c13.333 21.333 25.166 41.833 35.499 61.5s19.666 39.334 27.999 59.001s16 39.834 23 60.501
s13.833 43 20.5 67l-298 -440l-54 29l171 253h-124l2 40h45l4.5 103.5c1.66699 37.667 3.16699 73.5 4.5 107.5c2 39.333 3.66699 78.666 5 117.999l-20 -8l-17 -6.5c-6 -2.33301 -11.333 -4.16602 -16 -5.49902l-12 26l72 58h66l-16 -393h33l265 397l54 -29l-149 -226
l49 -13c0 5.33301 0.166992 10.333 0.5 15s0.833008 9.33398 1.5 14.001l63 -4zM488.001 152.997c2 36.667 4.33301 74.5 7 113.5l8 115.5c-5.33301 -22 -11 -42.167 -17 -60.5s-12.5 -36.333 -19.5 -54s-15 -35.5 -24 -53.5l-30.5 -59z" />
    <glyph glyph-name="onehalf" unicode="&#xbd;" horiz-adv-x="717" 
d="M473 56c12.667 0 23.834 -2.99902 33.501 -8.99902s18.334 -12.5 26.001 -19.5l21.5 -19.5c6.66699 -6 13.667 -9 21 -9c6.66699 0 13.167 2.66699 19.5 8s12 11.5 17 18.5s9 13.667 12 20s4.5 10.166 4.5 11.499l28 -13c-5.33301 -18 -12 -34.333 -20 -49
c-7.33301 -12.667 -16.5 -24 -27.5 -34s-24.5 -15 -40.5 -15c-12.667 0 -24 3 -34 9s-19.333 12.833 -28 20.5s-17 14.5 -25 20.5s-16.333 9 -25 9c-7.33301 0 -14 -2.5 -20 -7.5s-11.333 -10.833 -16 -17.5c-5.33301 -7.33301 -10 -15.666 -14 -24.999l-39 6
c5.33301 35.333 18 66.833 38 94.5s41.333 54.5 64 80.5l33.5 40c11 13.333 20.833 26.666 29.5 39.999s15.5 27 20.5 41s7.5 28.333 7.5 43c0 11.333 -0.833008 22.833 -2.5 34.5s-4.33398 22.167 -8.00098 31.5s-8.33398 16.833 -14.001 22.5s-12.167 8.5 -19.5 8.5
c-8.66699 0 -17.334 -2 -26.001 -6s-16.5 -10.167 -23.5 -18.5s-12.667 -18.666 -17 -30.999s-6.5 -26.833 -6.5 -43.5c0 -16 2 -28.5 6 -37.5s8.66699 -13.5 14 -13.5c7.33301 0 13.5 2.5 18.5 7.5s9.16699 10.833 12.5 17.5s5.83301 13.834 7.5 21.501
s2.5 13.834 2.5 18.501c0 3.33301 -0.5 6.5 -1.5 9.5s-2.16699 4.5 -3.5 4.5c-3.33301 -0.666992 -7.33301 -2.66699 -12 -6s-7.66699 -6 -9 -8l-19 19c16 15.333 30.667 23 44 23c12.667 0 21.334 -4.16699 26.001 -12.5s7 -19.5 7 -33.5
c0 -10.667 -1.83301 -21.5 -5.5 -32.5s-9 -21 -16 -30s-15.167 -16.333 -24.5 -22s-20 -8.5 -32 -8.5c-12.667 0 -23.5 2.5 -32.5 7.5s-16.5 11.667 -22.5 20s-10.333 17.833 -13 28.5s-4 21.667 -4 33v10c0 3.33301 0.666992 6.66602 2 9.99902l-246 -363l-54 29l171 253
h-124l2 40h45l4.5 103.5c1.66699 37.667 3.16699 73.5 4.5 107.5c2 39.333 3.66699 78.666 5 117.999l-20 -8l-17 -6.5c-6 -2.33301 -11.333 -4.16602 -16 -5.49902l-12 26l72 58h66l-16 -393h33l265 397l54 -29l-165 -250c10.667 7.33301 22.5 13.166 35.5 17.499
s27.167 6.5 42.5 6.5c32.667 0 60.5 -10 83.5 -30s34.5 -49.667 34.5 -89c0 -26.667 -7.5 -52.334 -22.5 -77.001s-32.333 -47.834 -52 -69.501s-39.334 -41.167 -59.001 -58.5s-34.167 -32.666 -43.5 -45.999c2.66699 0.666992 7.33398 1 14.001 1z" />
    <glyph glyph-name="threequarters" unicode="&#xbe;" horiz-adv-x="669" 
d="M350 572c-0.666992 -20.667 -6.33984 -40.5049 -17.0068 -59.5049s-28.667 -35.833 -54 -50.5c20 -13.333 34.833 -30.333 44.5 -51s14.5 -42 14.5 -64c0 -3.33301 -0.166992 -6.83301 -0.5 -10.5s-0.833008 -7.16699 -1.5 -10.5l238 354l54 -29l-149 -226l49 -13
c0 5.33301 0.166992 10.333 0.5 15s0.833008 9.33398 1.5 14.001l63 -4l-19 -286h69l-2 -41h-69l-13 -151l-62 3l11 150l-135 1c-1.33301 5.33301 -3 10.333 -5 15c-1.33301 4 -3.16602 8.33301 -5.49902 13s-4.5 8.66699 -6.5 12c13.333 21.333 25.166 41.833 35.499 61.5
s19.666 39.334 27.999 59.001s16 39.834 23 60.501s13.833 43 20.5 67l-298 -440l-54 29l134 200c-18.667 -10 -39.667 -15 -63 -15c-16.667 0 -31.834 3.83301 -45.501 11.5s-25.167 17.5 -34.5 29.5s-16.666 25.5 -21.999 40.5s-8 29.833 -8 44.5
c0 16 2.33301 31.833 7 47.5s11.334 29.834 20.001 42.501s19.167 23 31.5 31s26.5 12 42.5 12c20 0 34.333 -8 43 -24s13 -33.667 13 -53c0 -22 -4.33301 -40 -13 -54s-19.334 -21 -32.001 -21c-6 0 -12.333 2.16699 -19 6.5s-13.334 11.166 -20.001 20.499l24 19
c0.666992 -1.33301 1.66699 -2.66602 3 -3.99902c2.66699 -2.66699 4.66699 -4 6 -4c4 0 7 3.5 9 10.5s3 14.833 3 23.5c0 4.66699 -0.333008 9.66699 -1 15s-1.66699 10.5 -3 15.5s-3 9.16699 -5 12.5s-4.33301 5 -7 5c-12 0 -21 -9 -27 -27s-9 -38 -9 -60
c0 -12 1 -24.5 3 -37.5s5 -25 9 -36s9 -20 15 -27s13 -10.5 21 -10.5c11.333 0 21.833 4.5 31.5 13.5s17.834 20.167 24.501 33.5s11.834 28 15.501 44s5.5 31.333 5.5 46c0 19.333 -4.16699 36.5 -12.5 51.5s-22.166 24.167 -41.499 27.5l-10 50
c1.33301 0 6.16602 2 14.499 6s17.5 10.167 27.5 18.5s19 18.833 27 31.5s12 27.667 12 45c0 8 -0.666992 16.333 -2 25s-3.66602 16.5 -6.99902 23.5s-7.66602 12.833 -12.999 17.5s-11.666 7 -18.999 7c-8.66699 0 -16 -2.16699 -22 -6.5s-10.667 -9.83301 -14 -16.5
s-5.83301 -14.167 -7.5 -22.5s-2.5 -16.166 -2.5 -23.499c0 -11.333 2 -19.666 6 -24.999s8.33301 -8 13 -8c4 0 7.33301 2.33301 10 7s4 9.66699 4 15s-1.33301 9.66602 -4 12.999l31 16c2.66699 -7.33301 4.16699 -13.5 4.5 -18.5s0.5 -9.16699 0.5 -12.5
c-0.666992 -15.333 -6.16699 -29.833 -16.5 -43.5s-26.166 -20.5 -47.499 -20.5c-11.333 0 -21.166 2.16699 -29.499 6.5s-15.166 10 -20.499 17s-9.33301 14.667 -12 23s-4 16.5 -4 24.5c0 12.667 2.33301 25.167 7 37.5s11.834 23.5 21.501 33.5s21.667 18 36 24
s31.5 9 51.5 9c36 0 62.667 -10.167 80 -30.5s26 -43.833 26 -70.5zM510.994 152.995c2 36.667 4.33301 74.5 7 113.5l8 115.5c-5.33301 -22 -11 -42.167 -17 -60.5s-12.5 -36.333 -19.5 -54s-15 -35.5 -24 -53.5l-30.5 -59z" />
    <glyph glyph-name="questiondown" unicode="&#xbf;" horiz-adv-x="556" 
d="M304 484v109h84v-108zM236 -36c3.33301 12 7.83301 24.665 13.5 37.998s12.834 25.5 21.501 36.5s18.5 20.167 29.5 27.5s23.5 11 37.5 11c30.667 0 55.667 -11.333 75 -34s29 -53 29 -91c0 -24 -4.16699 -48 -12.5 -72s-21.166 -45.5 -38.499 -64.5
s-39.333 -34.5 -66 -46.5s-58.334 -18 -95.001 -18c-60.667 0 -109.167 15.5 -145.5 46.5s-54.5 77.5 -54.5 139.5c0 39.333 7.33301 73.5 22 102.5s33.167 55 55.5 78s46.333 44.333 72 64s49.667 40.167 72 61.5s40.833 44.666 55.5 69.999s22 55 22 89
c0 8.66699 -0.333008 16.334 -1 23.001s-1.66699 11.667 -3 15h49c0.666992 -5.33301 1.16699 -11.333 1.5 -18s0.5 -13.667 0.5 -21c0 -35.333 -6 -66.333 -18 -93s-27 -51.167 -45 -73.5s-37.667 -43.833 -59 -64.5s-41 -42.5 -59 -65.5s-33 -48.167 -45 -75.5
s-18 -59.333 -18 -96c0 -19.333 2 -37.833 6 -55.5s10 -33.167 18 -46.5s17.833 -23.833 29.5 -31.5s25.167 -11.5 40.5 -11.5c24.667 0 45.667 6.16699 63 18.5s31.333 27.5 42 45.5s18.5 36.833 23.5 56.5s7.5 36.5 7.5 50.5c0 8.66699 -0.5 17.5 -1.5 26.5
s-2.5 17.167 -4.5 24.5s-4.83301 13.333 -8.5 18s-8.16699 7.33398 -13.5 8.00098c-8.66699 0 -16.834 -4.16699 -24.501 -12.5s-14 -17.666 -19 -27.999s-9 -19.833 -12 -28.5l-4.5 -13z" />
    <glyph glyph-name="afii10023" unicode="&#x401;" horiz-adv-x="559" 
d="M334 928l-10 -72l-72 8l10 72zM464 928l-10 -72l-72 8l10 72zM10 135c0 30 5.50391 59.332 16.5039 87.999s26.5 55.5 46.5 80.5s44.167 47.333 72.5 67s59.833 35.5 94.5 47.5c-50 19.333 -86.333 45.5 -109 78.5s-34 67.833 -34 104.5c0 28 6.16699 55.5 18.5 82.5
s29.833 51.333 52.5 73s50.167 39 82.5 52s68.166 19.5 107.499 19.5c22 0 43 -3.66699 63 -11s37.667 -18 53 -32s27.666 -31 36.999 -51s14 -42.667 14 -68c0 -20.667 -4 -40.5 -12 -59.5s-19.333 -36 -34 -51s-31.834 -27 -51.501 -36s-41.167 -13.5 -64.5 -13.5
c-12.667 0 -23.667 2.5 -33 7.5s-16.666 11.5 -21.999 19.5s-9.33301 16.833 -12 26.5s-4 19.167 -4 28.5c0 8 0.833008 15.5 2.5 22.5s3.83398 12.833 6.50098 17.5l34 -22c-1.33301 -2 -2.5 -4.66699 -3.5 -8s-1.5 -7 -1.5 -11c0 -10 2.33301 -20.333 7 -31
s10.667 -16 18 -16c10 0 20 3.83301 30 11.5s19.167 17.667 27.5 30s15.166 26 20.499 41s8 29.833 8 44.5c0 18.667 -2.66699 35.5 -8 50.5s-12.5 28 -21.5 39s-19 19.5 -30 25.5s-22.167 9 -33.5 9c-24.667 0 -46.834 -6 -66.501 -18s-36.334 -27.667 -50.001 -47
s-24 -41.166 -31 -65.499s-10.5 -48.833 -10.5 -73.5c0 -30.667 6.5 -56.667 19.5 -78s27.167 -38.666 42.5 -51.999c18 -16 38.667 -28.667 62 -38l-21 -57c-54 -17.333 -97 -46.666 -129 -87.999s-48 -90.333 -48 -147c0 -24.667 3.33301 -47.667 10 -69
s16 -39.666 28 -54.999s26.167 -27.5 42.5 -36.5s34.5 -13.5 54.5 -13.5c28 0 55.167 8.66699 81.5 26s49.833 40.666 70.5 69.999s37.167 63.5 49.5 102.5s18.5 79.833 18.5 122.5c0 22 -2.83301 40.833 -8.5 56.5s-14.834 23.5 -27.501 23.5c-14 0 -29 -6.83301 -45 -20.5
s-30.833 -30.5 -44.5 -50.5s-25 -41.5 -34 -64.5s-13.5 -44.167 -13.5 -63.5c0 -8 1.33301 -15.333 4 -22s7.33398 -10 14.001 -10c6 0 11.333 1.66699 16 5c2.66699 2 4.66699 3.66699 6 5l26 -21c-6.66699 -6.66699 -14.5 -12.167 -23.5 -16.5s-18.5 -6.5 -28.5 -6.5
c-17.333 0 -31.166 5.66699 -41.499 17s-15.5 27.333 -15.5 48s4.5 44.167 13.5 70.5s21.833 51 38.5 74s36.5 42.5 59.5 58.5s48.833 24 77.5 24c16 0 31 -3.66699 45 -11s26.167 -17.333 36.5 -30s18.5 -27.834 24.5 -45.501s9 -36.834 9 -57.501v-16.5
c0 -5.66699 -0.666992 -11.167 -2 -16.5c-8 -48 -22.167 -90 -42.5 -126s-45 -66.167 -74 -90.5s-61 -42.5 -96 -54.5s-71.167 -18 -108.5 -18c-32.667 0 -62.834 5.5 -90.501 16.5s-51.5 26.167 -71.5 45.5s-35.667 42.5 -47 69.5s-17 56.5 -17 88.5z" />
    <glyph glyph-name="afii10062" unicode="&#x40e;" horiz-adv-x="780" 
d="M751 747c6 -52 9.00195 -107.67 9.00195 -167.003c0 -62.667 -3.5 -127.834 -10.5 -195.501s-17.667 -133.667 -32 -198s-32.333 -125.333 -54 -183s-47 -108.334 -76 -152.001s-62.167 -78.167 -99.5 -103.5s-78.333 -38 -123 -38c-40.667 0 -72 13 -94 39
s-33 62.333 -33 109c0 19.333 3.16699 40 9.5 62s15.5 42.333 27.5 61s27.167 34.167 45.5 46.5s39.5 18.5 63.5 18.5c20.667 0 35.334 -7.16699 44.001 -21.5s13 -30.833 13 -49.5c0 -8 -0.833008 -16.333 -2.5 -25s-3.83398 -16.667 -6.50098 -24l-34 22
c4 6 6 15.333 6 28c0 7.33301 -1 13.833 -3 19.5s-5.66699 8.5 -11 8.5c-10 0 -19.5 -5.33301 -28.5 -16s-16.833 -23.667 -23.5 -39s-12 -32.166 -16 -50.499s-6 -34.833 -6 -49.5c0 -30 5.66699 -54.333 17 -73s25.666 -28 42.999 -28c22.667 0 44.167 9.16699 64.5 27.5
s39.5 43.166 57.5 74.499s34.667 67.5 50 108.5s29.166 84.333 41.499 130s23.166 92.167 32.499 139.5s17.333 92.666 24 135.999c-19.333 -42.667 -39.333 -78.834 -60 -108.501s-41.5 -53.834 -62.5 -72.501s-41.5 -32.167 -61.5 -40.5s-39 -12.5 -57 -12.5
c-21.333 0 -39 5 -53 15s-25 23.5 -33 40.5s-13.667 36.833 -17 59.5s-5 46.667 -5 72c0 17.333 1.33301 38.833 4 64.5l8.5 82.5c3 29.333 5.66699 59.5 8 90.5s3.5 60.167 3.5 87.5c0 20.667 -0.833008 39.667 -2.5 57s-5 32.333 -10 45s-12 22.5 -21 29.5
s-21.167 10.5 -36.5 10.5c-26 0 -48.667 -8.16699 -68 -24.5s-35.666 -37.166 -48.999 -62.499s-23.333 -53.166 -30 -83.499s-10 -59.833 -10 -88.5c0 -13.333 1 -26.166 3 -38.499s4.83301 -23.333 8.5 -33s8.16699 -17.334 13.5 -23.001s11.333 -8.5 18 -8.5
c14 0 27.167 6.5 39.5 19.5s23 28.833 32 47.5s16.167 38.334 21.5 59.001s8 38.334 8 53.001c0 8.66699 -1.16699 17.334 -3.5 26.001s-5.83301 13 -10.5 13c-2.66699 0 -6.66699 -1.33301 -12 -4c-2.66699 -1.33301 -4.66699 -2.66602 -6 -3.99902l-27 29
c7.33301 5.33301 15.333 10 24 14s17.334 6 26.001 6c16 0 27.667 -7.66699 35 -23s11 -35 11 -59c0 -19.333 -3 -42 -9 -68s-15.167 -50.5 -27.5 -73.5s-27.666 -42.5 -45.999 -58.5s-39.833 -24 -64.5 -24c-8.66699 0 -19.167 1.83301 -31.5 5.5s-24.333 10.667 -36 21
s-21.667 24.833 -30 43.5s-12.5 42.667 -12.5 72c0 45.333 6.5 86.833 19.5 124.5s30.667 70 53 97s48.5 48 78.5 63s62 22.5 96 22.5c30 0 54.5 -5.33301 73.5 -16s34 -25.334 45 -44.001s18.5 -40.667 22.5 -66s6 -52.666 6 -81.999c0 -26 -1.16699 -52.833 -3.5 -80.5
s-4.83301 -55.5 -7.5 -83.5s-5.16699 -55.667 -7.5 -83s-3.5 -53.333 -3.5 -78c0 -35.333 2.33301 -64.5 7 -87.5s13.667 -34.5 27 -34.5s28.666 6.5 45.999 19.5s35 30.833 53 53.5s35.5 49 52.5 79s32.167 61.833 45.5 95.5s24.166 68.334 32.499 104.001
s12.5 70.167 12.5 103.5c0 20.667 -0.666992 39.834 -2 57.501s-3 34.5 -5 50.5zM691.002 987.997c-4.66699 -42 -17.833 -76.001 -39.5 -102.001s-55.167 -42.333 -100.5 -49c-12.667 -2 -25.167 -1.66699 -37.5 1s-23.5 7.66699 -33.5 15s-18.667 17 -26 29
s-12.333 27 -15 45c-2 14.667 -2.66699 27 -2 37s2.66699 15 6 15l66 1c-4.66699 -19.333 -5 -40.333 -1 -63c2.66699 -18.667 8.5 -31.667 17.5 -39s20.167 -9.66602 33.5 -6.99902c10 1.33301 20.5 5.5 31.5 12.5s21.167 16 30.5 27s17.333 23.333 24 37
s10.667 28.167 12 43.5z" />
    <glyph glyph-name="afii10017" unicode="&#x410;" horiz-adv-x="929" 
d="M704 422c0 25.333 1 55 3 89s4.33301 66.667 7 98c2.66699 36.667 5.66699 74 9 112l-39.5 -84l-46 -93.5l-45.5 -88.5c-14.667 -28 -27.667 -51.333 -39 -70l36 10.5l32.5 9c11 3 23 5.83301 36 8.5s28.5 5.66699 46.5 9zM801 395
c0 -68 6.00391 -127.828 18.0039 -179.495s25.333 -95.5 40 -131.5c17.333 -41.333 36.666 -77.333 57.999 -108l-79 -38c-23.333 27.333 -44.333 61.666 -63 102.999c-16 36 -30.833 81.833 -44.5 137.5s-21.5 123.5 -23.5 203.5l-61 -12
c-16.667 -3.33301 -31.834 -6.83301 -45.501 -10.5s-26.334 -7.33398 -38.001 -11.001s-24.5 -8.16699 -38.5 -13.5c-32 -58.667 -66.167 -112 -102.5 -160s-72.5 -89.167 -108.5 -123.5s-71 -61 -105 -80s-64.333 -28.5 -91 -28.5c-17.333 0 -32.5 3.83301 -45.5 11.5
s-23.667 17.667 -32 30s-14.5 26.166 -18.5 41.499s-6 30.333 -6 45c0 33.333 6.66699 67 20 101s30.833 64.667 52.5 92s46 49.833 73 67.5s53.833 26.5 80.5 26.5c14.667 0 27 -2.33301 37 -7s18 -10.834 24 -18.501s10.333 -16 13 -25s4 -17.833 4 -26.5
c0 -21.333 -4.16699 -41.5 -12.5 -60.5s-15.5 -31.167 -21.5 -36.5h-39c2 2 4.83301 6.83301 8.5 14.5s7.33398 16.667 11.001 27s7 21.333 10 33s4.5 21.834 4.5 30.501c0 9.33301 -1.66699 16.333 -5 21s-9.66602 7 -18.999 7c-19.333 0 -39.333 -9.33301 -60 -28
s-39.5 -41.834 -56.5 -69.501s-31 -57.334 -42 -89.001s-16.5 -60.167 -16.5 -85.5c0 -16.667 3 -29.667 9 -39s15 -14 27 -14c17.333 0 39.166 7 65.499 21s54.666 34.833 84.999 62.5s61.666 62 93.999 103s63.5 88.167 93.5 141.5l-38 -13l-18 33
c1.33301 0.666992 6.33301 2.5 15 5.5l29 10.5c12 4.66699 26 9.66699 42 15l54.5 93l53 97.5l48 93.5l40 81c11.667 24 21 43.833 28 59.5s11.167 25.5 12.5 29.5l91 -13c-2 -20.667 -3.66699 -45.167 -5 -73.5s-2.66602 -59 -3.99902 -92s-2.33301 -67.667 -3 -104
s-1 -72.5 -1 -108.5c9.33301 1.33301 18.5 2.5 27.5 3.5s17.167 2.16699 24.5 3.5c8.66699 1.33301 17 2.33301 25 3l4 -37l-26 -4c-16.667 -2 -34.334 -4.66699 -53.001 -8z" />
    <glyph glyph-name="afii10018" unicode="&#x411;" horiz-adv-x="829" 
d="M617 424c-22 0 -42.6689 -4.33008 -62.002 -12.9971s-36.666 -19.334 -51.999 -32.001c-7.33301 -68 -19.666 -130.333 -36.999 -187s-38.166 -105.334 -62.499 -146.001s-51.5 -72.334 -81.5 -95.001s-61 -34 -93 -34c-24 0 -45 5 -63 15s-32.833 23.5 -44.5 40.5
s-20.334 37.167 -26.001 60.5s-8.5 48.333 -8.5 75c0 31.333 4.16699 62.166 12.5 92.499s19.666 57.5 33.999 81.5s31.333 43.333 51 58s40.834 22 63.501 22c14.667 0 27 -3.5 37 -10.5s17.833 -15.667 23.5 -26s9.66699 -21.833 12 -34.5s3.5 -24.667 3.5 -36
c0 -22.667 -2.33301 -38.334 -7 -47.001l-37 -12c1.33301 2 2.33301 7.33301 3 16s1 18.667 1 30c0 9.33301 -0.5 19 -1.5 29s-2.5 19 -4.5 27s-4.83301 14.667 -8.5 20s-8.5 8 -14.5 8c-18 0 -32.5 -9.33301 -43.5 -28s-19.833 -40.667 -26.5 -66
s-11.167 -51.333 -13.5 -78s-3.5 -48 -3.5 -64c0 -42 3.66699 -75.5 11 -100.5s19.666 -37.5 36.999 -37.5c18 0 38.667 14.333 62 43s45.333 68.167 66 118.5s38.167 109.5 52.5 177.5s21.5 141.667 21.5 221c0 22.667 -0.166992 46.834 -0.5 72.501
s-1.16602 49.5 -2.49902 71.5c-0.666992 13.333 -1.16699 26.333 -1.5 39s-0.833008 25.334 -1.5 38.001l46 -6c11.333 -1.33301 21.833 -2.66602 31.5 -3.99902s14.5 -2.33301 14.5 -3c0.666992 -1.33301 1.33398 -7.83301 2.00098 -19.5s1.33398 -26.834 2.00098 -45.501
s1.33398 -39.667 2.00098 -63s1 -47.333 1 -72c0 -17.333 -0.333008 -34.333 -1 -51s-1.66699 -33 -3 -49c18.667 13.333 38.667 24 60 32s44.666 12 69.999 12c20 0 39.667 -4.83301 59 -14.5s36.666 -23.5 51.999 -41.5s27.833 -39.667 37.5 -65s14.5 -53.333 14.5 -84
c0 -35.333 -5.33301 -67.833 -16 -97.5s-24.5 -56.167 -41.5 -79.5s-36.167 -43.833 -57.5 -61.5s-42.833 -32.334 -64.5 -44.001s-42.334 -20.334 -62.001 -26.001s-36.5 -8.5 -50.5 -8.5c-14.667 0 -26.667 0.5 -36 1.5s-17 2.16699 -23 3.5
c-4 0.666992 -7.5 1.33398 -10.5 2.00098s-5.5 1.33398 -7.5 2.00098l10 32c2.66699 -0.666992 5.16699 -1.16699 7.5 -1.5s5.16602 -0.833008 8.49902 -1.5c5.33301 -1.33301 11.5 -2.5 18.5 -3.5s15.5 -1.5 25.5 -1.5c18 0 38.667 5.16699 62 15.5s45.333 27 66 50
s38.167 52.667 52.5 89s21.5 80.5 21.5 132.5c0 21.333 -2.16699 41.333 -6.5 60s-10.166 35 -17.499 49s-15.833 25 -25.5 33s-19.5 12 -29.5 12zM547.998 761.003c-28.667 0.666992 -55.1689 3.16699 -79.502 7.5s-47.666 8.83301 -69.999 13.5s-44 8.83398 -65 12.501
s-42.5 5.5 -64.5 5.5c-32.667 0 -60 -6.16699 -82 -18.5s-39.833 -28.666 -53.5 -48.999s-23.334 -44 -29.001 -71s-8.5 -55.167 -8.5 -84.5c0 -13.333 0.666992 -26.166 2 -38.499s3.5 -23.166 6.5 -32.499s6.83301 -16.833 11.5 -22.5s10.334 -8.5 17.001 -8.5
c14 0 27.167 6.5 39.5 19.5s23 28.833 32 47.5s16 38.167 21 58.5s7.5 38.166 7.5 53.499c0 9.33301 -1.16699 18.333 -3.5 27s-5.83301 13 -10.5 13c-3.33301 0 -7.33301 -1.33301 -12 -4c-2.66699 -0.666992 -4.66699 -2.33398 -6 -5.00098l-26 29
c7.33301 5.33301 15.333 10.166 24 14.499s17.334 6.5 26.001 6.5c15.333 0 26.666 -7.83301 33.999 -23.5s11 -35.5 11 -59.5c0 -20 -3.16699 -43 -9.5 -69s-15.666 -50.333 -27.999 -73s-27.833 -41.834 -46.5 -57.501s-40.334 -23.5 -65.001 -23.5
c-8.66699 0 -19 2 -31 6s-23.5 11.833 -34.5 23.5s-20.333 27.667 -28 48s-11.5 47.166 -11.5 80.499c0 36.667 5 69.667 15 99s23.667 54.666 41 75.999s38.166 38.333 62.499 51s50.5 21 78.5 25s58.167 4.33301 90.5 1s65.333 -7.66602 99 -12.999l100.5 -15.5
c33.333 -5 65 -7.5 95 -7.5c32 0 58.167 1 78.5 3s36.5 4.66699 48.5 8c13.333 2.66699 24 6.33398 32 11.001l15 -40c-11.333 -5.33301 -25.333 -9.33301 -42 -12c-7.33301 -2 -17.666 -3.83301 -30.999 -5.5s-28.333 -3 -45 -4s-34.167 -1.83301 -52.5 -2.5
s-36.166 -0.666992 -53.499 0z" />
    <glyph glyph-name="afii10019" unicode="&#x412;" horiz-adv-x="536" 
d="M156 -81c-20 2 -37.3359 6.83398 -52.0029 14.501s-27 17.5 -37 29.5s-17.333 25.333 -22 40s-7 30 -7 46c0 22 3.83301 44 11.5 66s18.334 41.833 32.001 59.5s29.667 32 48 43s38.5 16.5 60.5 16.5c10 0 18.667 -2.33301 26 -7s13.333 -10.834 18 -18.501
s8 -16.5 10 -26.5s3 -20 3 -30s-1 -19.5 -3 -28.5s-4.66699 -16.167 -8 -21.5l-28 25c3.33301 5.33301 5 14 5 26c0 10 -1.5 19.833 -4.5 29.5s-7.16699 14.5 -12.5 14.5c-10.667 0 -21.167 -5.5 -31.5 -16.5s-19.5 -24.333 -27.5 -40s-14.5 -32.5 -19.5 -50.5
s-7.5 -34 -7.5 -48c0 -25.333 4.66699 -46.666 14 -63.999s26 -26 50 -26c24.667 0 50.667 9.66699 78 29s52.5 44.166 75.5 74.499s42 64.666 57 102.999s22.5 76.5 22.5 114.5c0 18.667 -3.16699 36.5 -9.5 53.5s-16 32 -29 45s-29.667 23.5 -50 31.5s-44.5 12 -72.5 12
c-16 0 -32.833 -1.33301 -50.5 -4s-36.167 -7.33398 -55.5 -14.001c-1.33301 7.33301 -2.5 13 -3.5 17l-3 11.5c-1 3.66699 16.333 10.834 52 21.501s72.334 33.667 110.001 69s56.5 83 56.5 143c0 18 -4.83301 34 -14.5 48s-22.5 25.667 -38.5 35s-34.167 16.333 -54.5 21
s-41.166 7 -62.499 7h-12c-4 0 -8 -0.333008 -12 -1l-68 -546l-54 5l74 600l54 -6l-3 -24c5.33301 0 10.333 0.333008 15 1c4 0.666992 8.5 1 13.5 1h12.5c29.333 0 59 -2.66699 89 -8s57.5 -13.833 82.5 -25.5s45.333 -26.5 61 -44.5s23.5 -40 23.5 -66
c0 -25.333 -7 -49.5 -21 -72.5s-29.667 -43.167 -47 -60.5c-20 -20.667 -42.667 -40 -68 -58c27.333 -5.33301 52.666 -13.666 75.999 -24.999s43.5 -25.166 60.5 -41.499s30.5 -34.833 40.5 -55.5s15 -43.334 15 -68.001c0 -32 -5.5 -63.167 -16.5 -93.5
s-25.833 -58.666 -44.5 -84.999s-40 -50.5 -64 -72.5s-48.833 -40.833 -74.5 -56.5s-51.167 -27.834 -76.5 -36.501s-48.666 -13 -69.999 -13z" />
    <glyph glyph-name="afii10020" unicode="&#x413;" horiz-adv-x="624" 
d="M529 719c0.666992 -1.33301 1.33105 -7.83203 1.99805 -19.499s1.33398 -26.834 2.00098 -45.501s1.33398 -39.667 2.00098 -63s1 -47.333 1 -72c0 -86 -7.66699 -165.833 -23 -239.5s-35.833 -137.5 -61.5 -191.5s-55.5 -96.167 -89.5 -126.5s-70 -45.5 -108 -45.5
c-24 0 -45 5 -63 15s-32.833 23.5 -44.5 40.5s-20.334 37.167 -26.001 60.5s-8.5 48.333 -8.5 75c0 31.333 4.16699 62.166 12.5 92.499s19.833 57.5 34.5 81.5s31.667 43.333 51 58s40.333 22 63 22c15.333 0 27.833 -3.5 37.5 -10.5s17.334 -15.667 23.001 -26
s9.66699 -21.833 12 -34.5s3.5 -24.667 3.5 -36c0 -22 -2.33301 -37.667 -7 -47l-37 -12c1.33301 2 2.33301 7.33301 3 16s1 18.667 1 30c0 9.33301 -0.5 19 -1.5 29s-2.5 19 -4.5 27s-4.83301 14.667 -8.5 20s-8.5 8 -14.5 8c-18 0 -32.5 -9.33301 -43.5 -28
s-19.833 -40.667 -26.5 -66s-11.167 -51.333 -13.5 -78s-3.5 -48 -3.5 -64c0 -42 3.66699 -75.5 11 -100.5s19.666 -37.5 36.999 -37.5c18 0 38.667 14.333 62 43s45.333 68.167 66 118.5s38.167 109.666 52.5 177.999s21.5 141.833 21.5 220.5
c0 22.667 -0.166992 46.834 -0.5 72.501s-1.16602 49.5 -2.49902 71.5c-1.33301 26 -2.33301 51.667 -3 77l46 -6c11.333 -1.33301 21.833 -2.66602 31.5 -3.99902s14.5 -2.33301 14.5 -3zM214.997 837.001c12.667 2.66699 27.668 3.99414 45.001 3.99414c24 0 50 -2 78 -6
s56.333 -8.5 85 -13.5s57.167 -9.5 85.5 -13.5s54.833 -6 79.5 -6c32 0 58.167 1 78.5 3s36.5 4.66699 48.5 8c14 3.33301 24.667 7 32 11l15 -40c-10.667 -4.66699 -24.667 -8.66699 -42 -12c-14.667 -3.33301 -33 -6.16602 -55 -8.49902s-49 -3.5 -81 -3.5
c-28.667 0 -57 2 -85 6s-55.167 8.5 -81.5 13.5s-51.833 9.5 -76.5 13.5s-48 6 -70 6c-32.667 0 -60 -6.16699 -82 -18.5s-39.833 -28.666 -53.5 -48.999s-23.334 -44 -29.001 -71s-8.5 -55.167 -8.5 -84.5c0 -13.333 0.666992 -26.166 2 -38.499s3.5 -23.166 6.5 -32.499
s6.83301 -16.833 11.5 -22.5s10.334 -8.5 17.001 -8.5c14 0 27.167 6.5 39.5 19.5s23 28.833 32 47.5s16 38.334 21 59.001s7.5 38.334 7.5 53.001c0 9.33301 -1.16699 18.333 -3.5 27s-5.83301 13 -10.5 13c-2.66699 0 -6.66699 -1.33301 -12 -4
c-2.66699 -1.33301 -4.66699 -3 -6 -5l-26 29c7.33301 5.33301 15.333 10.166 24 14.499s17.334 6.5 26.001 6.5c15.333 0 26.666 -7.83301 33.999 -23.5s11 -35.5 11 -59.5c0 -20 -3.16699 -43 -9.5 -69s-15.666 -50.333 -27.999 -73s-27.833 -41.834 -46.5 -57.501
s-40.334 -23.5 -65.001 -23.5c-8.66699 0 -19 2 -31 6s-23.5 11.833 -34.5 23.5s-20.333 27.834 -28 48.501s-11.5 47.334 -11.5 80.001c0 37.333 5 70.5 15 99.5s23.667 54 41 75s38.166 38 62.499 51s50.5 21.5 78.5 25.5z" />
    <glyph glyph-name="afii10021" unicode="&#x414;" horiz-adv-x="588" 
d="M49 57c0 20 3.66699 40.3271 11 60.9941s17.5 39.334 30.5 56.001s28.5 30.334 46.5 41.001s38 16 60 16c19.333 0 32.666 -7.66699 39.999 -23s11 -32 11 -50c0 -24 -3.66699 -42.333 -11 -55l-27 18c4 8 6 20 6 36c0 10.667 -1.33301 20.5 -4 29.5
s-7.66699 13.5 -15 13.5c-12 0 -23 -4.83301 -33 -14.5s-18.667 -22 -26 -37s-13 -31.667 -17 -50s-6 -35.833 -6 -52.5c0 -28 4.33301 -50 13 -66s22.334 -24.667 41.001 -26c16 0 35.5 6.5 58.5 19.5s47 31.333 72 55s49.667 52.167 74 85.5s46.166 70 65.499 110
s35 82.833 47 128.5s18 92.834 18 141.501c0 36.667 -3.66699 70.834 -11 102.501s-20.666 59.167 -39.999 82.5s-45.5 41.666 -78.5 54.999s-75.5 20 -127.5 20c-12 0 -24.5 -0.5 -37.5 -1.5s-26.5 -2.16699 -40.5 -3.5l-62 -537l-54 5l61 529
c-11.333 0 -22.5 -1.33301 -33.5 -4s-23.167 -7.33398 -36.5 -14.001l-19 53l95 16l4 31l54 -6l-3 -25c23.333 3.33301 45.166 5.83301 65.499 7.5s39.5 2.5 57.5 2.5c60.667 0 111.334 -8 152.001 -24s73.334 -37 98.001 -63s42.167 -55.833 52.5 -89.5
s15.5 -68.5 15.5 -104.5c0 -56 -7.33301 -110 -22 -162s-34 -100.5 -58 -145.5s-51.333 -86 -82 -123s-62.334 -68.667 -95.001 -95s-64.834 -46.666 -96.501 -60.999s-60.167 -21.5 -85.5 -21.5c-22 0 -41 3.83301 -57 11.5s-29.167 17.834 -39.5 30.501
s-18.166 27.334 -23.499 44.001s-8 34.334 -8 53.001z" />
    <glyph glyph-name="afii10022" unicode="&#x415;" horiz-adv-x="559" 
d="M10 135c0 30 5.50195 59.334 16.502 88.001s26.5 55.5 46.5 80.5s44.167 47.333 72.5 67s59.833 35.5 94.5 47.5c-50 19.333 -86.333 45.5 -109 78.5s-34 67.833 -34 104.5c0 28 6.16699 55.5 18.5 82.5s29.833 51.333 52.5 73s50.167 39 82.5 52
s68.166 19.5 107.499 19.5c22 0 43 -3.66699 63 -11s37.667 -18 53 -32s27.666 -31 36.999 -51s14 -42.667 14 -68c0 -20.667 -4 -40.5 -12 -59.5s-19.333 -36 -34 -51s-31.834 -27 -51.501 -36s-41.167 -13.5 -64.5 -13.5c-13.333 0 -24.5 2.5 -33.5 7.5
s-16.167 11.5 -21.5 19.5s-9.33301 16.833 -12 26.5s-4 19.167 -4 28.5c0 8 0.833008 15.5 2.5 22.5s3.83398 12.833 6.50098 17.5l34 -22c-3.33301 -4.66699 -5 -11 -5 -19c0 -10 2.33301 -20.333 7 -31s10.667 -16 18 -16c10 0 20 3.83301 30 11.5s19.167 17.667 27.5 30
s15.166 26 20.499 41s8 29.833 8 44.5c0 18.667 -2.66699 35.5 -8 50.5s-12.5 28 -21.5 39s-19 19.5 -30 25.5s-22.167 9 -33.5 9c-25.333 0 -47.666 -6 -66.999 -18s-35.833 -27.667 -49.5 -47s-24 -41.166 -31 -65.499s-10.5 -48.833 -10.5 -73.5
c0 -30.667 6.5 -56.667 19.5 -78s27.167 -38.666 42.5 -51.999c18.667 -16.667 39.334 -29.334 62.001 -38.001l-21 -57c-27.333 -8.66699 -51.833 -20.5 -73.5 -35.5s-40.167 -32.5 -55.5 -52.5s-27.166 -42.5 -35.499 -67.5s-12.5 -51.5 -12.5 -79.5
c0 -24.667 3.33301 -47.667 10 -69s16 -39.666 28 -54.999s26.167 -27.5 42.5 -36.5s34.5 -13.5 54.5 -13.5c28 0 55.167 8.66699 81.5 26s49.833 40.666 70.5 69.999s37.167 63.333 49.5 102s18.5 79.667 18.5 123c0 22 -2.83301 40.833 -8.5 56.5
s-14.834 23.5 -27.501 23.5c-14 0 -29 -6.83301 -45 -20.5s-30.833 -30.5 -44.5 -50.5s-25 -41.667 -34 -65s-13.5 -44.333 -13.5 -63c0 -8 1.33301 -15.333 4 -22s7.33398 -10 14.001 -10c5.33301 0 10.666 1.66699 15.999 5c2 1.33301 4 3 6 5l26 -21
c-6.66699 -6.66699 -14.5 -12.167 -23.5 -16.5s-18.5 -6.5 -28.5 -6.5c-17.333 0 -31.166 5.66699 -41.499 17s-15.5 27.333 -15.5 48s4.5 44.167 13.5 70.5s21.667 51 38 74s36.166 42.5 59.499 58.5s49.333 24 78 24c16 0 31 -3.66699 45 -11s26.167 -17.333 36.5 -30
s18.5 -27.834 24.5 -45.501s9 -36.834 9 -57.501v-16.5c0 -5.66699 -0.666992 -11.167 -2 -16.5c-8 -48 -22.167 -90 -42.5 -126s-45 -66.167 -74 -90.5s-61 -42.5 -96 -54.5s-71.167 -18 -108.5 -18c-32.667 0 -62.834 5.5 -90.501 16.5s-51.5 26.167 -71.5 45.5
s-35.667 42.5 -47 69.5s-17 56.5 -17 88.5z" />
    <glyph glyph-name="afii10024" unicode="&#x416;" horiz-adv-x="1127" 
d="M588 722l89.0117 -4.00098l-62 -319c14 2.66699 28.167 5 42.5 7s28.166 3.66699 41.499 5c10 54 24.167 106 42.5 156s40 94.167 65 132.5s53.167 68.833 84.5 91.5s64.666 33 99.999 31c32 -1.33301 59.333 -15.666 82 -42.999s34 -65 34 -113
c0 -22 -3.5 -43.167 -10.5 -63.5s-16.667 -38.333 -29 -54s-26.833 -28.334 -43.5 -38.001s-34.334 -14.5 -53.001 -14.5c-10.667 0 -19.667 2.66699 -27 8s-13.166 12 -17.499 20s-7.5 17 -9.5 27s-3 20 -3 30c0 9.33301 0.666992 17.666 2 24.999
s3.66602 13.666 6.99902 18.999l28 -22c-2.66699 -4.66699 -4 -12.334 -4 -23.001s1.5 -21.167 4.5 -31.5s7.83301 -15.5 14.5 -15.5c8 0 16.167 4.16699 24.5 12.5s16 19 23 32s12.833 27.5 17.5 43.5s7 32 7 48c0 38 -5.33301 67.833 -16 89.5s-25 32.5 -43 32.5
c-23.333 0 -45.166 -10.333 -65.499 -31s-38.833 -48.167 -55.5 -82.5s-31.5 -73.833 -44.5 -118.5s-23.5 -91 -31.5 -139c12 1.33301 23.167 2.33301 33.5 3s20.166 1 29.499 1l-4 -40c-9.33301 -0.666992 -19.333 -1.33398 -30 -2.00098s-22.334 -1.66699 -35.001 -3
c-6.66699 -51.333 -10.334 -101.5 -11.001 -150.5s2.16602 -93.167 8.49902 -132.5s16.5 -71.833 30.5 -97.5s32.667 -40.167 56 -43.5c5.33301 -0.666992 13.333 1.33301 24 6c18.667 8 34.667 20.167 48 36.5s24.5 34.5 33.5 54.5s15.667 40.5 20 61.5s6.5 40.5 6.5 58.5
c0 19.333 -3.5 36.666 -10.5 51.999s-16.5 23 -28.5 23c-13.333 0 -25.5 -4.83301 -36.5 -14.5s-20.5 -21.167 -28.5 -34.5s-14.333 -27.666 -19 -42.999s-7 -28.333 -7 -39c0 -6.66699 1.16699 -13 3.5 -19s5.5 -9 9.5 -9c3.33301 0 6.66602 1 9.99902 3
c3.33301 1.33301 5.33301 2.66602 6 3.99902l23 -22c-24 -15.333 -44.167 -18.833 -60.5 -10.5s-24.5 26.833 -24.5 55.5c0 14.667 2.66699 31.334 8 50.001s13.5 36.334 24.5 53.001s24.833 30.834 41.5 42.501s36.334 17.5 59.001 17.5c8 0 17.667 -1.5 29 -4.5
s22.166 -8.16699 32.499 -15.5s19.166 -17.833 26.499 -31.5s11 -30.834 11 -51.501c0 -11.333 -1.33301 -23.333 -4 -36c-5.33301 -30 -15 -59.167 -29 -87.5s-30.5 -53 -49.5 -74s-39.5 -37.167 -61.5 -48.5s-44 -15.333 -66 -12c-37.333 6 -68 22.833 -92 50.5
s-42.167 62.167 -54.5 103.5s-19.333 87.5 -21 138.5s1.16602 103.167 8.49902 156.5c-14 -1.33301 -28 -3.16602 -42 -5.49902s-28.333 -4.5 -43 -6.5l-64 -333l-89 4l60 313l-38.5 -8l-35.5 -8c-10.667 -53.333 -25.5 -104.666 -44.5 -153.999s-41.5 -92.833 -67.5 -130.5
s-55 -67.5 -87 -89.5s-66 -32 -102 -30c-16.667 0.666992 -32.334 4.66699 -47.001 12s-27.5 17.666 -38.5 30.999s-19.667 29.5 -26 48.5s-9.5 40.5 -9.5 64.5c0 22 3.66699 43.333 11 64s17.333 38.834 30 54.501s27.667 28.334 45 38.001s35.666 14.5 54.999 14.5
c10.667 0 19.834 -2.66699 27.501 -8s13.834 -12 18.501 -20s8 -17 10 -27s3 -20 3 -30c0 -9.33301 -0.666992 -17.833 -2 -25.5s-3.66602 -14.167 -6.99902 -19.5l-29 23c2.66699 4.66699 4 12.334 4 23.001s-1.5 21.167 -4.5 31.5s-7.83301 15.5 -14.5 15.5
c-8.66699 0 -17.334 -4.16699 -26.001 -12.5s-16.667 -19.166 -24 -32.499s-13.333 -28 -18 -44s-7 -32 -7 -48c0 -38 5.5 -67.833 16.5 -89.5s25.833 -32.5 44.5 -32.5c25.333 0 49.166 11.5 71.499 34.5s42.5 53.667 60.5 92s33.667 82 47 131s23.666 99.333 30.999 151
s11.5 102.5 12.5 152.5s-1.83301 94.833 -8.5 134.5s-17.334 72.5 -32.001 98.5s-34 40.667 -58 44c-6 0.666992 -14.333 -1.33301 -25 -6c-19.333 -8 -36.666 -21.5 -51.999 -40.5s-28.333 -40.667 -39 -65s-18.834 -50 -24.501 -77s-8.5 -52.833 -8.5 -77.5
c0 -13.333 1 -26.166 3 -38.499s5 -23.333 9 -33s8.66699 -17.334 14 -23.001s11.333 -8.5 18 -8.5c14 0 27.167 6.5 39.5 19.5s23 28.833 32 47.5s16 38.167 21 58.5s7.5 38.166 7.5 53.499c0 9.33301 -1.16699 18.333 -3.5 27s-5.83301 13 -10.5 13
c-3.33301 0 -7.33301 -1.33301 -12 -4c-2.66699 -0.666992 -4.66699 -2.33398 -6 -5.00098l-26 29c27.333 21.333 50 26.333 68 15s27 -37 27 -77c0 -20 -3 -42.833 -9 -68.5s-15.167 -50 -27.5 -73s-27.833 -42.333 -46.5 -58s-40.334 -23.5 -65.001 -23.5
c-8.66699 0 -19.167 1.83301 -31.5 5.5s-24.333 10.834 -36 21.501s-21.5 25 -29.5 43s-12 41.667 -12 71c0 7.33301 0.333008 15 1 23s1.66699 16.667 3 26c6 41.333 17.167 78.833 33.5 112.5s35.333 62 57 85s44.667 40 69 51s47.833 14.833 70.5 11.5
c38.667 -6 70.667 -23.167 96 -51.5s44.333 -63.5 57 -105.5s19.667 -89 21 -141s-2 -105 -10 -159c20.667 4.66699 45.334 9.66699 74.001 15z" />
    <glyph glyph-name="afii10025" unicode="&#x417;" horiz-adv-x="583" 
d="M381 417c44.667 -21.333 79.5049 -47.668 104.505 -79.001s41.333 -64.333 49 -99s7.16699 -69.667 -1.5 -105s-24.334 -67.333 -47.001 -96s-51.667 -52.334 -87 -71.001s-75.666 -29.334 -120.999 -32.001c-36 -2 -68.833 1.5 -98.5 10.5s-55.667 21.667 -78 38
s-40.5 36 -54.5 59s-22.667 47.833 -26 74.5c-2.66699 21.333 -2.16699 43 1.5 65s11.167 42.5 22.5 61.5s27.166 35.167 47.499 48.5s45.5 22 75.5 26c35.333 4.66699 65.5 -1.33301 90.5 -18s39.833 -41 44.5 -73c2 -15.333 0.5 -29.333 -4.5 -42
s-12.333 -23.834 -22 -33.501s-20.834 -17.334 -33.501 -23.001s-25.667 -9.5 -39 -11.5c-12.667 -1.33301 -24.5 -1 -35.5 1s-20.833 6.66699 -29.5 14l18 25c14.667 -8 27.334 -11.333 38.001 -10c16.667 2 28.167 9.33301 34.5 22s8.5 27 6.5 43
c-0.666992 5.33301 -2.66699 12.833 -6 22.5s-8.16602 19 -14.499 28s-14.333 16.5 -24 22.5s-20.834 8.33301 -33.501 7c-15.333 -2 -27.833 -8.33301 -37.5 -19s-16.834 -23.334 -21.501 -38.001s-7.33398 -30.667 -8.00098 -48s0 -33.333 2 -48
c3.33301 -24.667 10.833 -48 22.5 -70s26.167 -41 43.5 -57s36.833 -28.167 58.5 -36.5s43.834 -10.833 66.501 -7.5c34.667 4.66699 63.5 16.834 86.5 36.501s40.5 43.334 52.5 71.001s18.333 57.167 19 88.5s-4.33301 60.833 -15 88.5s-26.667 51.834 -48 72.501
s-48 33.667 -80 39l7 60c14.667 6.66699 30.667 14.5 48 23.5s33.5 20.667 48.5 35s27.5 32.333 37.5 54s15 48.834 15 81.501c0 22.667 -2.33301 44.5 -7 65.5s-11.667 39.667 -21 56s-21.666 29.5 -36.999 39.5s-33.333 15 -54 15c-10.667 0 -23.167 -3.66699 -37.5 -11
s-28 -17.833 -41 -31.5s-24 -30.167 -33 -49.5s-13.5 -41 -13.5 -65c0 -14.667 1.83301 -29.167 5.5 -43.5s8.66699 -27 15 -38s13.666 -19.833 21.999 -26.5s17.166 -10 26.499 -10s17.666 6.5 24.999 19.5s11 26.167 11 39.5c0 5.33301 -1 10 -3 14l37 26
c4.66699 -5.33301 7 -14 7 -26c0 -12.667 -2 -25.5 -6 -38.5s-10.167 -24.667 -18.5 -35s-18.833 -18.833 -31.5 -25.5s-27.667 -10 -45 -10c-20 0 -37.833 3.66699 -53.5 11s-28.834 17.166 -39.501 29.499s-18.834 26.833 -24.501 43.5s-8.5 34.334 -8.5 53.001
c0 34 6.66699 64 20 90s30.333 47.833 51 65.5s43.834 30.834 69.501 39.501s51.167 13 76.5 13c34 0 63.5 -5.5 88.5 -16.5s45.833 -25.5 62.5 -43.5s29 -38.667 37 -62s12 -47.666 12 -72.999c0 -43.333 -12.5 -83.833 -37.5 -121.5s-67.833 -69.167 -128.5 -94.5z" />
    <glyph glyph-name="afii10026" unicode="&#x418;" horiz-adv-x="951" 
d="M423 618c-2.66699 -33.333 -6.50195 -70.1689 -11.502 -110.502l-15 -123.5c-5 -42 -9.33301 -83.5 -13 -124.5s-5.5 -78.5 -5.5 -112.5c0 -31.333 2.5 -56.333 7.5 -75s13.833 -28 26.5 -28c25.333 0 51 14.5 77 43.5s51.167 66.333 75.5 112
s47.166 96.334 68.499 152.001s40.333 110.167 57 163.5s30.167 102.333 40.5 147s16.166 78.667 17.499 102l77 13c-22 -104.667 -37.5 -202.334 -46.5 -293.001s-13.5 -178.334 -13.5 -263.001c0 -29.333 0.833008 -56.833 2.5 -82.5s4.33398 -47.834 8.00098 -66.501
s8.66699 -33.334 15 -44.001s13.833 -16 22.5 -16s17.5 2.33301 26.5 7s17.5 10.667 25.5 18s15.167 15.333 21.5 24s11.166 16.667 14.499 24l32 -3c-17.333 -36 -38.666 -62.5 -63.999 -79.5s-50 -25.5 -74 -25.5c-21.333 0 -39.666 6.5 -54.999 19.5s-28 30.833 -38 53.5
s-17.333 49.167 -22 79.5s-7 62.833 -7 97.5c0 11.333 0.333008 23.833 1 37.5l2 39.5l2 43c-16 -42.667 -34.5 -85.834 -55.5 -129.501s-44.333 -83.167 -70 -118.5s-53.667 -64.166 -84 -86.499s-63.166 -33.5 -98.499 -33.5c-18 0 -33 4 -45 12s-21.833 19 -29.5 33
s-13 30.833 -16 50.5s-4.5 41.5 -4.5 65.5c0 42 2.66699 83.833 8 125.5s11 83.334 17 125.001s11.667 83 17 124s8 81.5 8 121.5c0 21.333 -1.16699 41.333 -3.5 60s-6.33301 35 -12 49s-13.334 25 -23.001 33s-22.167 12 -37.5 12c-26 0 -48.667 -8.16699 -68 -24.5
s-35.666 -37.166 -48.999 -62.499s-23.333 -53.166 -30 -83.499s-10 -59.833 -10 -88.5c0 -13.333 1 -26.166 3 -38.499s4.83301 -23.333 8.5 -33s8.16699 -17.334 13.5 -23.001s11.333 -8.5 18 -8.5c14 0 27.167 6.5 39.5 19.5s23 28.833 32 47.5
s16.167 38.334 21.5 59.001s8 38.334 8 53.001c0 9.33301 -1.16699 18.166 -3.5 26.499s-5.83301 12.5 -10.5 12.5c-2.66699 0 -6.66699 -1.33301 -12 -4c-2.66699 -1.33301 -4.66699 -2.66602 -6 -3.99902l-27 29c7.33301 5.33301 15.333 10 24 14s17.334 6 26.001 6
c16 0 27.667 -7.66699 35 -23s11 -35 11 -59c0 -20.667 -2.83301 -43.167 -8.5 -67.5s-14.334 -47.166 -26.001 -68.499s-26 -40 -43 -56s-37.167 -26.333 -60.5 -31c-1.33301 0 -2.66602 -0.166992 -3.99902 -0.5s-3 -0.5 -5 -0.5c-8.66699 0 -19.167 1.83301 -31.5 5.5
s-24.333 10.667 -36 21s-21.667 24.833 -30 43.5s-12.5 42.667 -12.5 72c0 7.33301 0.333008 15 1 23s1.66699 16.667 3 26c12.667 83.333 40.334 147.166 83.001 191.499s95 66.5 157 66.5c17.333 0 35.666 -2.33301 54.999 -7s37 -13.834 53 -27.501
s29.333 -32.5 40 -56.5s16 -55 16 -93v-13.5c0 -4.33301 -0.333008 -9.16602 -1 -14.499z" />
    <glyph glyph-name="afii10027" unicode="&#x419;" horiz-adv-x="951" 
d="M423 618c-2.66699 -33.333 -6.50098 -70.1621 -11.501 -110.495l-15 -123.5c-5 -42 -9.33301 -83.5 -13 -124.5s-5.5 -78.5 -5.5 -112.5c0 -32 2.5 -57.167 7.5 -75.5s13.833 -27.5 26.5 -27.5c18.667 0 37.667 8.33301 57 25s38.5 39.167 57.5 67.5
s37.5 61.166 55.5 98.499s35 76.166 51 116.499s30.833 81.333 44.5 123s25.5 81 35.5 118s18 70.5 24 100.5s9.66699 53.667 11 71l77 13c-22 -105.333 -37.5 -203 -46.5 -293s-13.5 -177.667 -13.5 -263c0 -29.333 0.833008 -56.833 2.5 -82.5
s4.33398 -47.834 8.00098 -66.501s8.5 -33.334 14.5 -44.001s13.667 -16 23 -16c8.66699 0 17.5 2.33301 26.5 7s17.5 10.667 25.5 18s15.167 15.333 21.5 24s11.166 16.667 14.499 24l32 -3c-17.333 -36 -38.666 -62.5 -63.999 -79.5s-50 -25.5 -74 -25.5
c-21.333 0 -39.666 6.5 -54.999 19.5s-28 30.833 -38 53.5s-17.333 49.167 -22 79.5s-7 62.833 -7 97.5c0 11.333 0.333008 23.833 1 37.5l2 39.5c0.666992 7.33301 1 14.5 1 21.5s0.333008 14.167 1 21.5c-16 -42.667 -34.5 -85.834 -55.5 -129.501
s-44.333 -83.167 -70 -118.5s-53.834 -64.166 -84.501 -86.499s-63.334 -33.5 -98.001 -33.5c-18 0 -33 4 -45 12s-21.833 19 -29.5 33s-13 30.833 -16 50.5s-4.5 41.5 -4.5 65.5c0 42 2.66699 83.833 8 125.5s11 83.334 17 125.001s11.667 83 17 124s8 81.5 8 121.5
c0 21.333 -1.16699 41.333 -3.5 60s-6.33301 35 -12 49s-13.5 25 -23.5 33s-22.333 12 -37 12c-26 0 -48.667 -8.16699 -68 -24.5s-35.666 -37.166 -48.999 -62.499s-23.333 -53.166 -30 -83.499s-10 -59.833 -10 -88.5c0 -13.333 1 -26.166 3 -38.499
s4.83301 -23.333 8.5 -33s8.16699 -17.334 13.5 -23.001s11.333 -8.5 18 -8.5c14 0 27.167 6.5 39.5 19.5s23 28.833 32 47.5s16.167 38.167 21.5 58.5s8 38.166 8 53.499c0 9.33301 -1.16699 18.166 -3.5 26.499s-5.83301 12.5 -10.5 12.5
c-3.33301 0 -7.33301 -1.33301 -12 -4c-2 -0.666992 -4 -2 -6 -4l-27 29c7.33301 5.33301 15.333 10 24 14s17.334 6 26.001 6c16 0 27.667 -7.66699 35 -23s11 -35 11 -59c0 -21.333 -2.83301 -44 -8.5 -68s-14.334 -46.833 -26.001 -68.5s-26.167 -40.334 -43.5 -56.001
s-37.333 -25.834 -60 -30.501c-1.33301 0 -2.66602 -0.166992 -3.99902 -0.5s-3 -0.5 -5 -0.5c-8.66699 0 -19.167 1.83301 -31.5 5.5s-24.333 10.667 -36 21s-21.667 24.833 -30 43.5s-12.5 42.667 -12.5 72c0 7.33301 0.333008 15 1 23s1.66699 16.667 3 26
c12.667 84 40.167 148 82.5 192s94.833 66 157.5 66c17.333 0 35.666 -2.33301 54.999 -7s37 -13.834 53 -27.501s29.333 -32.5 40 -56.5s16 -55 16 -93v-13.5c0 -4.33301 -0.333008 -9.16602 -1 -14.499zM761.999 988.004c-4.66699 -42 -17.833 -76.001 -39.5 -102.001
s-55.167 -42.333 -100.5 -49c-12.667 -2 -25.167 -1.66699 -37.5 1s-23.5 7.66699 -33.5 15s-18.667 17 -26 29s-12.333 27 -15 45c-2 14.667 -2.66699 27 -2 37s2.66699 15 6 15l66 1c-4.66699 -19.333 -5 -40.333 -1 -63c2.66699 -18.667 8.5 -31.667 17.5 -39
s20.167 -9.66602 33.5 -6.99902c10 1.33301 20.5 5.5 31.5 12.5s21.167 16 30.5 27s17.333 23.333 24 37s10.667 28.167 12 43.5z" />
    <glyph glyph-name="afii10028" unicode="&#x41a;" horiz-adv-x="822" 
d="M370 753c-5.33301 -3.33301 -12.499 -5.66602 -21.499 -6.99902s-18.167 -2 -27.5 -2c-16.667 0 -32.834 1.5 -48.501 4.5s-31.167 4.5 -46.5 4.5c-20.667 0 -38.834 -7 -54.501 -21s-28.834 -31.833 -39.501 -53.5s-18.667 -45.334 -24 -71.001s-8 -50.167 -8 -73.5
c0 -16 0.833008 -31.667 2.5 -47s4.33398 -29 8.00098 -41s8.5 -21.5 14.5 -28.5s13 -10.5 21 -10.5c13.333 0 25.833 6.33301 37.5 19s21.834 28.167 30.501 46.5s15.5 38.166 20.5 59.499s7.5 40.333 7.5 57c0 8 -0.5 16.333 -1.5 25s-3.83301 13 -8.5 13
c-4 0 -8.33301 -1.66699 -13 -5s-7.33398 -5 -8.00098 -5l-20 22c12.667 14.667 26.667 22 42 22c14 0 25.167 -7 33.5 -21s12.5 -31.667 12.5 -53c0 -22.667 -3 -47.167 -9 -73.5s-14.833 -50.833 -26.5 -73.5s-26 -41.5 -43 -56.5s-36.5 -22.5 -58.5 -22.5
c-7.33301 0 -17.333 1.5 -30 4.5s-25.334 10.833 -38.001 23.5s-23.5 31.667 -32.5 57s-13.5 60.333 -13.5 105c0 32.667 4.66699 63.334 14 92.001s22 53.667 38 75s35 38.166 57 50.499s46 18.5 72 18.5c15.333 0 31.5 -1.83301 48.5 -5.5s31.5 -5.5 43.5 -5.5
c19.333 0 34.666 2.5 45.999 7.5s20.333 10.5 27 16.5c7.33301 7.33301 12.666 15 15.999 23l72 -30c0 -2.66699 -0.166992 -16.167 -0.5 -40.5s-1.66602 -55.333 -3.99902 -93s-5.83301 -80.5 -10.5 -128.5s-11.334 -97.333 -20.001 -148c16 22.667 38.333 50.5 67 83.5
l91 102l94.5 101.5l78.5 82l36 -23l-69.5 -72.5l-68.5 -73.5l-62.5 -69c-19.667 -22 -37 -42.167 -52 -60.5s-27.167 -34 -36.5 -47s-14.666 -22.167 -15.999 -27.5c0.666992 -6.66699 4 -20.667 10 -42s14.167 -45.833 24.5 -73.5s22.333 -57 36 -88s28.667 -59.333 45 -85
s33.333 -46.834 51 -63.501s35.167 -25 52.5 -25c6.66699 0 13.5 2.5 20.5 7.5s13.5 11.5 19.5 19.5s11 17 15 27s6.33301 20 7 30l18 6c5.33301 2 11.333 3.66699 18 5c0 -22 -3.33301 -41.5 -10 -58.5s-15.5 -31.5 -26.5 -43.5s-23.333 -21 -37 -27s-27.167 -9 -40.5 -9
c-23.333 0 -45.666 5.83301 -66.999 17.5s-41.333 27 -60 46s-36 40.667 -52 65s-30.5 49 -43.5 74s-24.5 49.5 -34.5 73.5s-18.333 45 -25 63c-10.667 -48.667 -23.834 -95.5 -39.501 -140.5s-34.5 -84.667 -56.5 -119s-47.5 -61.833 -76.5 -82.5s-62.167 -31 -99.5 -31
c-16.667 0 -32.334 3.66699 -47.001 11s-27.5 17.666 -38.5 30.999s-19.667 29.666 -26 48.999s-9.5 41 -9.5 65c0 22 3.66699 43.333 11 64s17.333 38.834 30 54.501s27.667 28.334 45 38.001s35.666 14.5 54.999 14.5c10.667 0 19.834 -2.66699 27.501 -8
s13.834 -12 18.501 -20s8 -17 10 -27s3 -20 3 -30c0 -9.33301 -0.666992 -17.833 -2 -25.5s-3.66602 -14.167 -6.99902 -19.5l-29 23c2.66699 4.66699 4 12.334 4 23.001s-1.5 21.167 -4.5 31.5s-7.83301 15.5 -14.5 15.5c-8.66699 0 -17.334 -4.16699 -26.001 -12.5
s-16.667 -19.166 -24 -32.499s-13.333 -28 -18 -44s-7 -32 -7 -48c0 -38 5.16699 -67.667 15.5 -89s22.833 -32 37.5 -32c22 0 42.833 11.667 62.5 35s37.834 55 54.501 95s31.834 86.333 45.501 139s25.334 108.5 35.001 167.5s17.167 119.333 22.5 181s8 121.167 8 178.5z
" />
    <glyph glyph-name="afii10029" unicode="&#x41b;" horiz-adv-x="914" 
d="M452 321c18 29.333 36.8291 61.6738 56.4961 97.0068l58.5 107l55.5 106l47 93l33.5 68.5c8.66699 18.333 13.667 29.5 15 33.5l91 -13c-2 -20.667 -3.66699 -47.167 -5 -79.5s-2.5 -67.5 -3.5 -105.5s-1.66699 -77.167 -2 -117.5s-0.5 -78.5 -0.5 -114.5
c0 -68.667 6 -128.667 18 -180s25.333 -95 40 -131c8.66699 -20.667 17.834 -40 27.501 -58s19.834 -34.667 30.501 -50l-79 -38c-11.333 13.333 -22.333 28.666 -33 45.999s-20.667 36.333 -30 57c-16 36 -30.833 81.833 -44.5 137.5s-21.5 123.5 -23.5 203.5
c0 12.667 0.166992 28.667 0.5 48l1 61c0.333008 21.333 1 42.333 2 63s2.16699 39 3.5 55c1.33301 18.667 2.83301 37.167 4.5 55.5s3.16699 37.166 4.5 56.499c-11.333 -25.333 -26 -56.166 -44 -92.499l-56 -110.5l-55.5 -105.5c-17.667 -33 -32.167 -58.833 -43.5 -77.5
c-32 -58.667 -66.167 -112 -102.5 -160s-72.666 -89.167 -108.999 -123.5s-71.333 -61 -105 -80s-63.834 -28.5 -90.501 -28.5c-17.333 0 -32.5 3.83301 -45.5 11.5s-23.667 17.667 -32 30s-14.5 26 -18.5 41s-6 30.167 -6 45.5c0 32.667 6.66699 66.167 20 100.5
s30.833 65.166 52.5 92.499s45.834 49.833 72.501 67.5s53.667 26.5 81 26.5c14.667 0 27 -2.33301 37 -7s18 -10.834 24 -18.501s10.333 -16 13 -25s4 -17.833 4 -26.5c0 -10.667 -1.16699 -21.167 -3.5 -31.5s-5.33301 -20 -9 -29s-7.5 -16.667 -11.5 -23
s-7.33301 -10.833 -10 -13.5h-39c2 2 4.83301 6.83301 8.5 14.5s7.33398 16.667 11.001 27s7 21.166 10 32.499s4.5 21.666 4.5 30.999s-1.66699 16.333 -5 21s-9.66602 7 -18.999 7c-19.333 0 -39.333 -9.33301 -60 -28s-39.5 -41.834 -56.5 -69.501
s-31 -57.334 -42 -89.001s-16.5 -60.167 -16.5 -85.5c0 -16.667 3 -29.667 9 -39s15 -14 27 -14c18 0 40 7 66 21s54.167 34.833 84.5 62.5s61.666 62 93.999 103s63.5 88.167 93.5 141.5z" />
    <glyph glyph-name="afii10030" unicode="&#x41c;" horiz-adv-x="1137" 
d="M452 617c-6.66699 -107.333 -20.001 -204.004 -40.001 -290.004s-44.5 -159.333 -73.5 -220s-61.667 -107.167 -98 -139.5s-74.5 -48.5 -114.5 -48.5c-21.333 0 -39.333 3.83301 -54 11.5s-26.5 17.667 -35.5 30s-15.5 26.166 -19.5 41.499s-6 30.666 -6 45.999
c0 21.333 3.66699 43.166 11 65.499s17.5 42.5 30.5 60.5s28.667 32.667 47 44s38.833 17 61.5 17c10 0 18.5 -2.5 25.5 -7.5s12.667 -11.5 17 -19.5s7.5 -17 9.5 -27s3 -20 3 -30c0 -19.333 -3 -34.666 -9 -45.999l-29 24c2.66699 4.66699 4 12 4 22
c0 10.667 -1.66699 21.334 -5 32.001s-8 16 -14 16c-10 0 -19.667 -5 -29 -15s-17.833 -22.5 -25.5 -37.5s-13.834 -31.167 -18.501 -48.5s-7 -33 -7 -47c0 -13.333 1 -26.166 3 -38.499s5.16699 -23.333 9.5 -33s9.83301 -17.334 16.5 -23.001s14.334 -8.5 23.001 -8.5h6.5
c2.33301 0 4.83301 0.666992 7.5 2c20 6.66699 39.5 23.834 58.5 51.501s37 62 54 103s32.667 87.167 47 138.5s26.666 104.166 36.999 158.499s18.333 108 24 161s8.5 102.167 8.5 147.5c0 18.667 -0.5 36.5 -1.5 53.5s-2.83301 33.167 -5.5 48.5l108 -43l141 -587l247 610
l73 -34c-2 -68 -3 -130 -3 -186c0 -90.667 3 -171.167 9 -241.5s13.833 -129.5 23.5 -177.5s20.334 -84.5 32.001 -109.5s23.5 -37.5 35.5 -37.5c6 0 11.667 1.5 17 4.5s10.333 6.5 15 10.5s8.66699 8.16699 12 12.5s5.33301 7.83301 6 10.5l36 -15
c-2 -5.33301 -5.83301 -11.666 -11.5 -18.999s-12.667 -14.166 -21 -20.499s-17.666 -11.666 -27.999 -15.999s-21.5 -6.5 -33.5 -6.5c-34 0 -62.333 11.833 -85 35.5s-41.167 60.834 -55.5 111.501s-25.5 115.834 -33.5 195.501s-14.333 175.5 -19 287.5l-211 -517l-35 6z
" />
    <glyph glyph-name="afii10031" unicode="&#x41d;" horiz-adv-x="951" 
d="M436 778c-11.333 -5.33301 -23.6641 -9.33203 -36.9971 -11.999s-26.666 -4 -39.999 -4l-77 8c-20.667 0 -38.834 -7.16699 -54.501 -21.5s-28.667 -32.333 -39 -54s-18.166 -45.334 -23.499 -71.001s-8 -50.167 -8 -73.5c0 -16 0.833008 -31.667 2.5 -47
s4.33398 -29 8.00098 -41s8.33398 -21.5 14.001 -28.5s12.834 -10.5 21.501 -10.5c13.333 0 25.666 6.33301 36.999 19s21.5 28.334 30.5 47.001s16 38.667 21 60s7.5 40.333 7.5 57c0 8 -0.666992 16.333 -2 25s-4 13 -8 13c-4.66699 0 -9.33398 -1.66699 -14.001 -5
c-2.66699 -2 -5 -4 -7 -6l-20 23c5.33301 6 11.5 11.167 18.5 15.5s14.833 6.5 23.5 6.5c13.333 0 24.166 -7 32.499 -21s12.5 -31.667 12.5 -53c0 -22.667 -3 -47.167 -9 -73.5s-14.833 -50.833 -26.5 -73.5s-26 -41.5 -43 -56.5s-36.167 -22.5 -57.5 -22.5
c-7.33301 0 -17.5 1.5 -30.5 4.5s-25.667 10.833 -38 23.5s-23.166 31.5 -32.499 56.5s-14 59.833 -14 104.5c0 32 4.5 62.5 13.5 91.5s21.5 54.167 37.5 75.5s35 38.333 57 51s46 19 72 19c15.333 0 31.666 -2 48.999 -6s32 -6 44 -6c19.333 0 34.666 2.5 45.999 7.5
s20.333 10.5 27 16.5c7.33301 7.33301 12.666 15.333 15.999 24l72 -30v-29c0 -20 -0.5 -48 -1.5 -84s-3.33301 -76.833 -7 -122.5s-9.16699 -94.5 -16.5 -146.5c-4.66699 -30.667 -10 -61.667 -16 -93c24 7.33301 51.667 14.333 83 21
c34.667 7.33301 72.667 14.666 114 21.999l1 3c7.33301 48 15.5 95 24.5 141l25.5 125l28 124l94 -4c-0.666992 0 -3.16699 -9 -7.5 -27l-15.5 -67.5l-19 -88.5l-18.5 -90l-14.5 -71.5c-4 -19.667 -6.33301 -30.834 -7 -33.501c21.333 2 42.333 3 63 3l-4 -40
c-20.667 0 -42 -1 -64 -3c-3.33301 -23.333 -6 -48.833 -8 -76.5s-3 -55.5 -3 -83.5c0 -22.667 1.16699 -45.834 3.5 -69.501s6.5 -45 12.5 -64s13.833 -34.667 23.5 -47s21.834 -18.5 36.501 -18.5c13.333 0 27.5 5 42.5 15s26.5 22.333 34.5 37l38 -6
c-14 -30 -32 -51.5 -54 -64.5s-43.667 -19.5 -65 -19.5c-16 0 -30.667 3.33301 -44 10c-20.667 10.667 -38.334 25.167 -53.001 43.5s-26.334 39.333 -35.001 63s-15 48.667 -19 75s-6 52.833 -6 79.5c0 20.667 0.666992 40.5 2 59.5l4 54.5
c-45.333 -8 -86.333 -16.333 -123 -25c-32.667 -7.33301 -59.334 -14.333 -80.001 -21l-4 -17c-12 -50.667 -27.167 -99.334 -45.5 -146.001s-40.5 -87.834 -66.5 -123.501s-56.167 -64.167 -90.5 -85.5s-73.833 -32 -118.5 -32c-16.667 0 -32.334 3.66699 -47.001 11
s-27.5 17.666 -38.5 30.999s-19.667 29.666 -26 48.999s-9.5 41 -9.5 65c0 22 3.66699 43.333 11 64s17.333 38.834 30 54.501s27.667 28.334 45 38.001s35.666 14.5 54.999 14.5c10.667 0 19.834 -2.66699 27.501 -8s13.834 -12 18.501 -20s8 -17 10 -27s3 -20 3 -30
c0 -9.33301 -0.666992 -17.833 -2 -25.5s-3.66602 -14.167 -6.99902 -19.5l-29 23c2.66699 4.66699 4 12.334 4 23.001s-1.5 21.167 -4.5 31.5s-7.83301 15.5 -14.5 15.5c-8.66699 0 -17.334 -4.16699 -26.001 -12.5s-16.667 -19.166 -24 -32.499s-13.333 -28 -18 -44
s-7 -32 -7 -48c0 -38 5.5 -67.833 16.5 -89.5s25.833 -32.5 44.5 -32.5c34 0 64.5 13.333 91.5 40s51 62.167 72 106.5s39 95.833 54 154.5s27.333 119.834 37 183.501s16.667 127.834 21 192.501s6.5 125.667 6.5 183zM462.002 289.001l-1 0.000976562
c0 -2 0 -2.83301 0 -2.5s0.333008 1.16602 1 2.49902z" />
    <glyph glyph-name="afii10032" unicode="&#x41e;" horiz-adv-x="590" 
d="M31 278c0 69.333 10.3271 136.331 30.9941 200.998s48.334 123 83.001 175s74.834 95.667 120.501 131s93.834 58 144.501 68l18 -75c-48.667 -16 -91.667 -41.167 -129 -75.5s-68.666 -74.333 -93.999 -120s-44.666 -95.667 -57.999 -150s-20 -109.833 -20 -166.5
c0 -20 1.33301 -43.167 4 -69.5s8 -51.5 16 -75.5s19.333 -44.333 34 -61s34 -25 58 -25c33.333 0 64.833 14.167 94.5 42.5s55.834 65.166 78.501 110.499s40.667 96.333 54 153s20 113.667 20 171c0 25.333 -1.83301 46.333 -5.5 63s-8.33398 29.834 -14.001 39.501
s-11.667 16.5 -18 20.5s-12.166 6 -17.499 6c-12.667 0 -25.334 -3.5 -38.001 -10.5s-22.667 -14.167 -30 -21.5c-4 6.66699 -7.83301 12.334 -11.5 17.001l-11.5 15c5.33301 6 12.333 12.167 21 18.5s18.5 11.833 29.5 16.5s22.667 8.5 35 11.5s24.5 4.5 36.5 4.5
c19.333 0 35.833 -5.5 49.5 -16.5s24.834 -25.167 33.501 -42.5s15 -36.666 19 -57.999s6 -42 6 -62c0 -32 -2.66699 -66.833 -8 -104.5s-13.833 -75.5 -25.5 -113.5s-26.5 -74.667 -44.5 -110s-39.5 -66.833 -64.5 -94.5s-54 -49.667 -87 -66s-69.833 -24.5 -110.5 -24.5
c-24.667 0 -49 5 -73 15s-45.333 26 -64 48s-33.667 50.667 -45 86s-17 78.333 -17 129z" />
    <glyph glyph-name="afii10033" unicode="&#x41f;" horiz-adv-x="934" 
d="M248 870c17.333 0 35.4961 -3.16895 54.4961 -9.50195s36.333 -17.333 52 -33s28.667 -37 39 -64s15.5 -61.167 15.5 -102.5v-70c0 -34 -0.333008 -63 -1 -87s-1.66699 -47.333 -3 -70c13.333 34 29.166 70.667 47.499 110s39.333 75.5 63 108.5s50 60.5 79 82.5
s60.167 33 93.5 33c36 0 60.333 -16.333 73 -49s19 -78 19 -136c0 -4.66699 -0.5 -17.167 -1.5 -37.5l-3.5 -72.5c-1.33301 -28 -2.83301 -57.833 -4.5 -89.5s-4 -63.834 -7 -96.501s-5 -58.667 -6 -78s-1.5 -31 -1.5 -35c0 -18.667 0.833008 -36.167 2.5 -52.5
s4.83398 -30.666 9.50098 -42.999s11 -22.166 19 -29.499s18.333 -11 31 -11c9.33301 0 18.833 1.83301 28.5 5.5s18.334 7.83398 26.001 12.501s13.834 9 18.501 13s14.334 -2 29.001 -18c0 -1.33301 -3 -4.83301 -9 -10.5s-14.5 -11.834 -25.5 -18.501
s-24 -12.5 -39 -17.5s-31.5 -7.5 -49.5 -7.5c-24 0 -44.5 4.33301 -61.5 13s-30.833 20.667 -41.5 36s-18.5 33.333 -23.5 54s-7.5 42.667 -7.5 66c6.66699 84.667 12.167 164.167 16.5 238.5s7.83301 147.5 10.5 219.5c-0.666992 24.667 -2.83398 44.167 -6.50098 58.5
s-10.834 21.5 -21.501 21.5h-3c-24 -4 -47.667 -18.167 -71 -42.5s-45.666 -55.666 -66.999 -93.999s-41.333 -81.666 -60 -129.999s-35.667 -98 -51 -149s-28.666 -102 -39.999 -153s-20 -98.167 -26 -141.5l-81 18c5.33301 32 10.333 65.333 15 100l13.5 99.5
c5 36.333 9.16699 73.166 12.5 110.499c6.66699 62.667 11.5 121.667 14.5 177s4.5 108.333 4.5 159c0 23.333 -1.66699 45.666 -5 66.999s-8.5 40.166 -15.5 56.499s-15.667 29.333 -26 39s-22.833 14.5 -37.5 14.5c-24.667 0 -46.167 -9.5 -64.5 -28.5
s-33.833 -42.167 -46.5 -69.5s-22.167 -56.333 -28.5 -87s-9.5 -57.667 -9.5 -81c0 -13.333 1 -26.166 3 -38.499s5 -23.333 9 -33s8.66699 -17.334 14 -23.001s11.333 -8.5 18 -8.5c14 0 27.167 6.5 39.5 19.5s23 29 32 48s16 38.833 21 59.5s7.5 38.334 7.5 53.001
c0 8.66699 -1.16699 17.334 -3.5 26.001s-5.83301 13 -10.5 13c-2.66699 0 -6.66699 -1.33301 -12 -4c-2.66699 -1.33301 -4.66699 -3 -6 -5l-27 29c7.33301 5.33301 15.333 10.166 24 14.499s17.334 6.5 26.001 6.5c15.333 0 26.833 -7.66699 34.5 -23
s11.5 -35.333 11.5 -60c0 -20.667 -3.5 -44 -10.5 -70s-17 -50.333 -30 -73s-28.5 -41.667 -46.5 -57s-38.333 -23 -61 -23c-31.333 0 -57.333 11.167 -78 33.5s-31 58.166 -31 107.499c0 44 6.5 84.833 19.5 122.5s30.5 70.334 52.5 98.001s47 49.334 75 65.001
s57 23.5 87 23.5z" />
    <glyph glyph-name="afii10034" unicode="&#x420;" horiz-adv-x="744" 
d="M406 691c13.333 19.333 27.8301 38.166 43.4971 56.499s32.667 34.666 51 48.999s38 25.833 59 34.5s43.5 13 67.5 13c19.333 0 38.333 -5.33301 57 -16s35.334 -25.834 50.001 -45.501s26.5 -43.334 35.5 -71.001s13.5 -58.167 13.5 -91.5
c0 -38.667 -5.16699 -74 -15.5 -106s-23.833 -60.833 -40.5 -86.5s-35.5 -48.167 -56.5 -67.5s-42.167 -35.333 -63.5 -48s-41.833 -22.167 -61.5 -28.5s-36.167 -9.5 -49.5 -9.5c-14 0 -25.667 0.5 -35 1.5s-17 2.16699 -23 3.5c-7.33301 2 -13 3.66699 -17 5l10 35
c4 -1.33301 9 -2.66602 15 -3.99902c5.33301 -1.33301 11.5 -2.5 18.5 -3.5s15.167 -1.5 24.5 -1.5c18 0 38.333 5.66699 61 17s44.334 29.5 65.001 54.5s38 57.333 52 97s21 87.834 21 144.501c0 23.333 -2 45.333 -6 66s-9.33301 38.667 -16 54s-14.5 27.333 -23.5 36
s-18.5 13 -28.5 13c-33.333 0 -62.333 -14.833 -87 -44.5s-45.834 -68.334 -63.501 -116.001s-32.5 -102 -44.5 -163s-22.333 -122.667 -31 -185s-16.334 -122.833 -23.001 -181.5s-13 -110 -19 -154l-81 18c0.666992 2 2.5 14.5 5.5 37.5s6.66699 52.833 11 89.5l14 124
c5 46 9.66699 93 14 141s8 95.167 11 141.5s4.5 87.5 4.5 123.5c0 22 -1.83301 43.167 -5.5 63.5s-9.16699 38 -16.5 53s-16.166 27 -26.499 36s-22.166 13.5 -35.499 13.5c-7.33301 0 -15.666 -2 -24.999 -6c-19.333 -8 -36.666 -21.5 -51.999 -40.5
s-28.333 -40.667 -39 -65s-18.834 -50 -24.501 -77s-8.5 -52.833 -8.5 -77.5c0 -13.333 1 -26.166 3 -38.499s5 -23.333 9 -33s8.66699 -17.334 14 -23.001s11.333 -8.5 18 -8.5c14 0 27.167 6.5 39.5 19.5s23 29 32 48s16 38.833 21 59.5s7.5 38.334 7.5 53.001
c0 8.66699 -1.16699 17.334 -3.5 26.001s-5.83301 13 -10.5 13c-2.66699 0 -6.66699 -1.33301 -12 -4c-2.66699 -1.33301 -4.66699 -3 -6 -5l-27 29c7.33301 5.33301 15.333 10.166 24 14.499s17.334 6.5 26.001 6.5c15.333 0 26.833 -7.66699 34.5 -23
s11.5 -35.333 11.5 -60c0 -20 -3 -42.833 -9 -68.5s-15.167 -50 -27.5 -73s-27.833 -42.333 -46.5 -58s-40.334 -23.5 -65.001 -23.5c-8.66699 0 -19.167 1.83301 -31.5 5.5s-24.333 10.834 -36 21.501s-21.5 25.167 -29.5 43.5s-12 41.833 -12 70.5
c0 7.33301 0.333008 15 1 23s1.66699 16.667 3 26c6.66699 44 18.167 82.667 34.5 116s35.833 61 58.5 83s47.5 38.5 74.5 49.5s54.5 16.5 82.5 16.5c21.333 0 39.666 -4 54.999 -12s28.333 -18.5 39 -31.5s19.334 -27.667 26.001 -44s12 -33.166 16 -50.499z" />
    <glyph glyph-name="afii10035" unicode="&#x421;" horiz-adv-x="688" 
d="M666 349c-15.333 -54.667 -38.8301 -104.669 -70.4971 -150.002s-68 -84.333 -109 -117s-84.833 -58.167 -131.5 -76.5s-92.667 -27.5 -138 -27.5c-18 0 -38.333 2.66699 -61 8s-44.167 16.166 -64.5 32.499s-37.5 39.5 -51.5 69.5s-21 69.667 -21 119
c0 53.333 6.16699 106 18.5 158s29.666 101.833 51.999 149.5s49.166 91.834 80.499 132.501s65.5 75.834 102.5 105.501s76.667 53 119 70s85.833 25.5 130.5 25.5c35.333 0 63.166 -8 83.499 -24s30.5 -39.667 30.5 -71c0 -21.333 -4.66699 -44.833 -14 -70.5
s-23 -49.5 -41 -71.5s-40.167 -40.333 -66.5 -55s-56.5 -22 -90.5 -22c-22 0 -39.5 6.33301 -52.5 19s-19.5 28.667 -19.5 48c0 15.333 3.83301 29.833 11.5 43.5s20.834 28.834 39.501 45.501l22 -33c-8.66699 -4 -16.5 -11.167 -23.5 -21.5s-10.5 -21.833 -10.5 -34.5
c0 -22 11 -33 33 -33c14 0 28.667 5.16699 44 15.5s29.5 23.833 42.5 40.5s23.667 36 32 58s12.5 44.333 12.5 67c0 15.333 -3 28.833 -9 40.5s-14.667 17.5 -26 17.5c-22.667 0 -48.167 -7.16699 -76.5 -21.5s-57.166 -34.333 -86.499 -60s-57.833 -56.5 -85.5 -92.5
s-52.334 -75.5 -74.001 -118.5s-39.167 -89 -52.5 -138s-20 -99.167 -20 -150.5c0 -29.333 1.5 -56.333 4.5 -81s8.16699 -46 15.5 -64s17.166 -32 29.499 -42s27.5 -15 45.5 -15c34.667 0 72.167 8.5 112.5 25.5s79 40.167 116 69.5s70.167 63.5 99.5 102.5
s51 80.833 65 125.5z" />
    <glyph glyph-name="afii10036" unicode="&#x422;" horiz-adv-x="1295" 
d="M690 771c36 0 60.3252 -16.1592 72.9922 -48.4922s19 -77.833 19 -136.5c0 -28 -0.5 -55.167 -1.5 -81.5s-2.16699 -52.833 -3.5 -79.5c12.667 44 28.834 86.833 48.501 128.5s41.834 78.5 66.501 110.5s51.334 57.667 80.001 77s59 29.333 91 30
c27.333 0 47.666 -11 60.999 -33s21.666 -51 24.999 -87s3.5 -76.333 0.5 -121s-7.16699 -89.334 -12.5 -134.001l-14.5 -126.5c-4.33301 -39.667 -5.5 -72.5 -3.5 -98.5c1.33301 -18.667 2.83301 -36.167 4.5 -52.5s4.66699 -30.666 9 -42.999s10.333 -22.166 18 -29.499
s17.834 -11 30.501 -11c8 0 16 1.66699 24 5s15.5 7 22.5 11s13.167 7.66699 18.5 11s9 5 11 5c5.33301 0 14 -6.33301 26 -19c0 -1.33301 -3 -4.83301 -9 -10.5s-14.5 -11.834 -25.5 -18.501s-24 -12.5 -39 -17.5s-31.5 -7.5 -49.5 -7.5c-24 0 -44.5 4.33301 -61.5 13
s-30.833 20.667 -41.5 36s-18.5 33.333 -23.5 54s-7.5 42.667 -7.5 66c2 37.333 4.83301 75.666 8.5 114.999l11.5 118.5l11.5 118c3.66699 39 6.16699 76.5 7.5 112.5c-0.666992 24.667 -4.16699 42 -10.5 52s-13.166 15 -20.499 15c-26 0.666992 -51 -10.833 -75 -34.5
s-46.833 -55.167 -68.5 -94.5s-41.5 -84.333 -59.5 -135s-34 -102.334 -48 -155.001s-25.667 -104.167 -35 -154.5s-15.666 -95.166 -18.999 -134.499l-75 37c0.666992 4.66699 2.16699 18.167 4.5 40.5l8.5 83c3.33301 33 6.83301 69.833 10.5 110.5
s6.83398 81.667 9.50098 123s4.66699 81.666 6 120.999s1.33301 74.166 0 104.499s-4.33301 54.833 -9 73.5s-11.334 28 -20.001 28h-3c-24 -4 -47.667 -18.333 -71 -43s-45.666 -56 -66.999 -94s-41.333 -81 -60 -129s-35.667 -97.667 -51 -149
s-28.666 -102.5 -39.999 -153.5s-20 -98.167 -26 -141.5l-81 18l21 141c7.33301 51.333 14 107.666 20 168.999c6 62.667 10.667 121.667 14 177s5 108.333 5 159c0 23.333 -1.66699 45.666 -5 66.999s-8.5 40.166 -15.5 56.499s-15.667 29.333 -26 39
s-22.833 14.5 -37.5 14.5c-24.667 0 -46.334 -9.5 -65.001 -28.5s-34.167 -42.167 -46.5 -69.5s-21.666 -56.333 -27.999 -87s-9.5 -57.667 -9.5 -81c0 -13.333 1 -26.166 3 -38.499s5 -23.333 9 -33s8.66699 -17.334 14 -23.001s11.333 -8.5 18 -8.5
c14 0 27.167 6.5 39.5 19.5s23 29 32 48s16 38.667 21 59s7.5 38.166 7.5 53.499c0 8.66699 -1.16699 17.334 -3.5 26.001s-5.83301 13 -10.5 13c-2 0 -5.16699 -0.833008 -9.5 -2.5s-7.16602 -3.83398 -8.49902 -6.50098l-27 29c7.33301 5.33301 15.333 10.166 24 14.499
s17.334 6.5 26.001 6.5c15.333 0 26.833 -7.66699 34.5 -23s11.5 -35.333 11.5 -60c0 -21.333 -3.5 -44.833 -10.5 -70.5s-17 -49.834 -30 -72.501s-28.5 -41.667 -46.5 -57s-38.333 -23 -61 -23c-31.333 0 -57.333 11.167 -78 33.5s-31 58.166 -31 107.499
c0 44 6.5 84.833 19.5 122.5s30.5 70.334 52.5 98.001s47 49.334 75 65.001s57 23.5 87 23.5c17.333 0 35.5 -3.16699 54.5 -9.5s36.333 -17.333 52 -33s28.667 -37 39 -64s15.5 -61.167 15.5 -102.5v-70c0 -34 -0.333008 -63 -1 -87s-1.66699 -47.333 -3 -70
c13.333 34 29.166 70.667 47.499 110s39.333 75.5 63 108.5s49.834 60.5 78.501 82.5s60 33 94 33z" />
    </font>
</defs>
</svg>
