<?xml version="1.0" standalone="no"?>
<!DOCTYPE svg PUBLIC "-//W3C//DTD SVG 1.1//EN" "http://www.w3.org/Graphics/SVG/1.1/DTD/svg11.dtd" >
<svg>
<metadata>
Created by FontForge 20090914 at Thu Apr 15 00:12:36 2021
 By www-data
Copyright (c) Alexandra Gophmann &#38; Anatole, 2007. All rights reserved.
</metadata>
<defs>
<font id="MedievalEnglish-Normal" horiz-adv-x="249" >
  <font-face 
    font-family="Medieval English"
    font-weight="400"
    font-stretch="normal"
    units-per-em="1000"
    panose-1="2 0 4 0 0 0 0 0 0 0"
    ascent="800"
    descent="-200"
    x-height="458"
    cap-height="646.999"
    bbox="-104.002 -217.003 1031 865"
    underline-thickness="20"
    underline-position="-123"
    unicode-range="U+0020-U+25CA"
  />
<missing-glyph horiz-adv-x="500" 
d="M63 0v800h375v-800h-375zM125 63h250v675h-250v-675z" />
    <glyph glyph-name=".notdef" horiz-adv-x="500" 
d="M63 0v800h375v-800h-375zM125 63h250v675h-250v-675z" />
    <glyph glyph-name="space" unicode=" " horiz-adv-x="205" 
 />
    <glyph glyph-name="exclam" unicode="!" horiz-adv-x="275" 
d="M197 64c0 -17.333 -5 -32.333 -15 -45s-22.667 -19 -38 -19s-28.166 6.33301 -38.499 19s-15.5 27.667 -15.5 45s5.16699 32.166 15.5 44.499s23.166 18.5 38.499 18.5s28 -6.16699 38 -18.5s15 -27.166 15 -44.499zM194 521c-26.667 -108 -40.667 -221.334 -42 -340.001
h-17c-0.666992 58.667 -4.5 116.334 -11.5 173.001s-17.167 112.334 -30.5 167.001c-10 40 -15 69.333 -15 88c0 23.333 5.5 43.166 16.5 59.499s27.167 24.5 48.5 24.5c44 0 66 -28 66 -84c0 -18.667 -5 -48 -15 -88z" />
    <glyph glyph-name="quotedbl" unicode="&#x22;" horiz-adv-x="302" 
d="M203 429c-2 18.667 -5.50098 41.333 -10.501 68s-10.5 53 -16.5 79c-3.33301 14.667 -5 28 -5 40c0 31.333 11.333 47 34 47c20 0 30 -16 30 -48c0 -10.667 -4 -34.334 -12 -71.001c-3.33301 -14.667 -6.66602 -32.167 -9.99902 -52.5s-6.33301 -41.166 -9 -62.499h-1z
M79.999 428.999c-2.66699 19.333 -6.5 42.0029 -11.5 68.0029l-15.5 79c-3.33301 14.667 -5 28 -5 40c0 31.333 11 47 33 47c21.333 0 32 -16 32 -48c0 -5.33301 -1 -13.833 -3 -25.5s-5.33301 -26.834 -10 -45.501c-4 -14.667 -7.5 -31.834 -10.5 -51.501
s-5.83301 -40.834 -8.5 -63.501h-1z" />
    <glyph glyph-name="numbersign" unicode="#" horiz-adv-x="444" 
d="M297 430h-146l-21 -189h145zM296 211c-4 -34 -7.83301 -69 -11.5 -105s-7.5 -71.333 -11.5 -106h-27l24 211h-144l-12.5 -105l-12.5 -106h-27l26 211h-62c0.666992 6 1.33398 11.167 2.00098 15.5s1.33398 9.16602 2.00098 14.499h62l21 189h-62
c0.666992 5.33301 1.5 10.166 2.5 14.499s1.83301 8.83301 2.5 13.5h62c4 33.333 7.83301 67 11.5 101s7.5 67.667 11.5 101h28l-26 -202h146c3.33301 33.333 7.16602 67 11.499 101s8.16602 67.667 11.499 101h27l-24 -202h62
c-0.666992 -5.33301 -1.5 -10.166 -2.5 -14.499s-1.83301 -8.83301 -2.5 -13.5h-61l-22 -189h62c-0.666992 -5.33301 -1.5 -10.166 -2.5 -14.499s-1.83301 -9.5 -2.5 -15.5h-62z" />
    <glyph glyph-name="dollar" unicode="$" horiz-adv-x="396" 
d="M178 561c-4.66699 1.33301 -8.5 2.16797 -11.5 2.50098s-5.5 0.5 -7.5 0.5c-46 0 -69 -17 -69 -51c0 -26.667 29.333 -49.334 88 -68.001v116zM195 158.002h17c22.667 0 43 8.66699 61 26c20 18.667 30 37 30 55c0 44.667 -36 81 -108 109v-190zM358 281.002
c0 -48 -14.666 -84.666 -43.999 -109.999c-30 -24.667 -69.667 -39 -119 -43v-101h-17v102c-7.33301 0 -12.833 0.166992 -16.5 0.5s-7.16699 1.16602 -10.5 2.49902c-15.333 1.33301 -30.333 5 -45 11s-30 14 -46 24c-35.333 23.333 -53 47.666 -53 72.999
c0 15.333 3.83301 27.666 11.5 36.999s18.167 14 31.5 14c15.333 0 27.333 -8.33301 36 -25l12 -27.5c4 -9 8 -18.5 12 -28.5c10.667 -22 33.334 -38.667 68.001 -50v194c-46 14.667 -77 29 -93 43h1c-25.333 20 -38 47.667 -38 83c0 17.333 3.33301 32.833 10 46.5
s15.667 25.834 27 36.501c11.333 9.33301 25.166 17.166 41.499 23.499s33.5 10.833 51.5 13.5v67h17v-66c13.333 -1.33301 26.5 -4.16602 39.5 -8.49902s25.833 -9.83301 38.5 -16.5c27.333 -14 41 -27.333 41 -40c0 -13.333 -4 -24.166 -12 -32.499
s-17.667 -12.5 -29 -12.5c-7.33301 0 -15.5 4.16699 -24.5 12.5l-28.5 26.5l-25 25v-114c53.333 -15.333 90.666 -32 111.999 -50c34 -26 51 -62.667 51 -110z" />
    <glyph glyph-name="percent" unicode="%" horiz-adv-x="661" 
d="M524 713l-192.5 -380.5l-192.5 -380.5h-24l193.5 380.5l193.5 380.5h22zM115 630c-45.333 0 -68.001 -30.998 -68.001 -92.998c0 -42.667 11 -84 33 -124c26.667 -46.667 61 -70 103 -70c42.667 0 64 31.333 64 94c0 39.333 -11.667 79.666 -35 120.999
c-13.333 23.333 -28.166 41.166 -44.499 53.499s-33.833 18.5 -52.5 18.5zM452.999 327.002c-45.333 0 -68.001 -31 -68.001 -93c0 -42.667 11 -84.334 33 -125.001c26.667 -46.667 61 -70 103 -70c42.667 0 64 31.667 64 95c0 38 -11.667 78.333 -35 121
c-13.333 22.667 -28.166 40.334 -44.499 53.001s-33.833 19 -52.5 19zM479.998 -12.998c-39.333 0 -71.665 22.9971 -96.998 68.9971c-22.667 37.333 -34 79 -34 125c0 21.333 3.5 42.833 10.5 64.5s16.5 42.5 28.5 62.5c14.667 21.333 30.667 37.833 48 49.5
s35.333 17.5 54 17.5c32.667 0 62 -16 88 -48c26.667 -31.333 40 -64.666 40 -99.999c1.33301 -7.33301 2.66602 -14.166 3.99902 -20.499s2 -13.166 2 -20.499c0 -24.667 -3.33301 -48.167 -10 -70.5s-16.334 -43.166 -29.001 -62.499c-14 -22.667 -30 -39.334 -48 -50.001
s-37 -16 -57 -16zM141.999 289.999c-38.667 0 -70.999 22.998 -96.999 68.998c-22 38.667 -33 80.667 -33 126c0 21.333 3.33301 42.833 10 64.5s16 42.167 28 61.5c14.667 21.333 30.667 38 48 50s35.333 18 54 18c32.667 0 62 -16.333 88 -49
c27.333 -31.333 41 -64.666 41 -99.999c1.33301 -6.66699 2.5 -13.167 3.5 -19.5s1.5 -13.166 1.5 -20.499c0 -25.333 -3.33301 -49 -10 -71s-16.334 -43 -29.001 -63c-14 -22 -30 -38.5 -48 -49.5s-37 -16.5 -57 -16.5z" />
    <glyph glyph-name="ampersand" unicode="&#x26;" horiz-adv-x="659" 
d="M246 639c-30.667 0 -53.668 -9.33203 -69.001 -27.999c-12.667 -15.333 -19.334 -31 -20.001 -47c0 -36 26.667 -81.667 80 -137c13.333 15.333 31 39 53 71c21.333 30.667 32 53 32 67c0 5.33301 -1.66699 11.666 -5 18.999s-7.66602 15.333 -12.999 24
c-7.33301 9.33301 -15.666 16.833 -24.999 22.5s-20.333 8.5 -33 8.5zM181.999 342.001c-56.667 -65.333 -84.999 -116.002 -84.999 -152.002c0 -21.333 5.5 -41.666 16.5 -60.999s26.167 -35.666 45.5 -48.999c33.333 -21.333 70 -32 110 -32
c61.333 0 103.666 10.667 126.999 32zM447 0.999023l-38.001 41.002c-26.667 -12.667 -48.667 -22.334 -66 -29.001s-30.666 -11.334 -39.999 -14.001c-32 -8.66699 -70 -13 -114 -13c-54.667 0 -99 15.333 -133 46c-28.667 28 -43 64 -43 108c0 57.333 24.333 108 73 152
c1.33301 3.33301 14.666 15.333 39.999 36c10 9.33301 19.167 17.5 27.5 24.5s14.5 12.833 18.5 17.5l-36.5 50.5l-16.5 22.5h1c-6.66699 11.333 -12.167 21.166 -16.5 29.499s-7.16602 16.166 -8.49902 23.499c-2 6.66699 -3 20.667 -3 42c0 35.333 14.333 65 43 89
c31.333 25.333 63.333 38 96 38c32 0 58.333 -9.33301 79 -28s31 -45 31 -79c0 -15.333 -11.667 -42.666 -35 -81.999c-3.33301 -8 -6.83301 -13.833 -10.5 -17.5s-9.5 -10.5 -17.5 -20.5c-3.33301 -4 -7 -8.83301 -11 -14.5s-8.66699 -11.167 -14 -16.5l115.5 -153.5
c34.333 -43.667 64.833 -80.167 91.5 -109.5c25.333 16 47.333 41.333 66 76c18 34 27 60 27 78c0 9.33301 -0.333008 17.666 -1 24.999s-2 13.333 -4 18c-5.33301 13.333 -17.666 22.333 -36.999 27h1c-5.33301 0.666992 -9 2.33398 -11 5.00098c-10 8 -17.833 17 -23.5 27
s-8.5 20 -8.5 30c0 13.333 4.66699 24.5 14 33.5s19.666 13.5 30.999 13.5c45.333 0 68 -45 68 -135c0 -46 -13 -94.333 -39 -145c-11.333 -20 -22 -36.667 -32 -50s-20.667 -23.666 -32 -30.999c14 -15.333 28 -29.833 42 -43.5l38 -37.5l12.5 -12l17.5 -16l6 -6h-148z" />
    <glyph glyph-name="quotesingle" unicode="'" horiz-adv-x="181" 
d="M81 429c-2.66699 19.333 -6.5 42.0029 -11.5 68.0029l-15.5 79c-3.33301 14.667 -5 28 -5 40c0 31.333 11 47 33 47c20.667 0 31 -16 31 -48c0 -5.33301 -1 -13.833 -3 -25.5s-5.33301 -26.834 -10 -45.501c-3.33301 -14.667 -6.5 -31.834 -9.5 -51.501
s-5.83301 -40.834 -8.5 -63.501h-1z" />
    <glyph glyph-name="parenleft" unicode="(" horiz-adv-x="332" 
d="M38 281c0 90 20.168 170.834 60.501 242.501s99.833 133.834 178.5 186.501v-44c-28 -28 -52.333 -56.833 -73 -86.5s-36.667 -58.834 -48 -87.501c-23.333 -60.667 -35 -131 -35 -211s11.667 -150 35 -210c12.667 -27.333 29.667 -56.833 51 -88.5
s44.666 -60.167 69.999 -85.5v-46c-78.667 53.333 -138.167 115.666 -178.5 186.999s-60.5 152.333 -60.5 243z" />
    <glyph glyph-name="parenright" unicode=")" horiz-adv-x="320" 
d="M19 -103c28 27.333 52.167 55.666 72.5 84.999s36.5 59 48.5 89c23.333 60 35 130 35 210s-11.667 150.333 -35 211c-24 59.333 -64.333 117.333 -121 174v44c78.667 -52.667 138.167 -114.667 178.5 -186s60.5 -152.333 60.5 -243s-20.167 -171.667 -60.5 -243
s-99.833 -133.666 -178.5 -186.999v46z" />
    <glyph glyph-name="asterisk" unicode="*" horiz-adv-x="449" 
d="M239 524c0 22.667 -4.33691 46.666 -13.0039 71.999l-8.5 31c-2.33301 8.66699 -3.5 14.667 -3.5 18c0 10 2.66699 18.833 8 26.5s12.666 11.5 21.999 11.5c8 0 14.833 -3.83301 20.5 -11.5s8.5 -16.5 8.5 -26.5c0 -4 -1.16699 -9.66699 -3.5 -17
s-5.16602 -15.333 -8.49902 -24c-5.33301 -10.667 -9 -24.334 -11 -41.001s-3 -35.667 -3 -57c11.333 3.33301 23 7.33301 35 12l37 15h-3c3.33301 0.666992 7.83301 3.16699 13.5 7.5l25.5 20.5c11.333 10.667 22.333 16 33 16c7.33301 0 14.166 -3.16699 20.499 -9.5
s9.5 -14.166 9.5 -23.499c0 -25.333 -13.667 -38 -41 -38h-9c-3.33301 0 -6.66602 0.333008 -9.99902 1c-3.33301 0 -6.83301 0.166992 -10.5 0.5s-6.5 0.5 -8.5 0.5c-17.333 0 -46 -5.66699 -86 -17c5.33301 -5.33301 7.83301 -8.16602 7.5 -8.49902
s0.166992 -1.5 1.5 -3.5c4 -6 9 -12.667 15 -20s8.66699 -11 8 -11c4.66699 -3.33301 9.5 -6.5 14.5 -9.5l15.5 -9.5l11.5 -8l11.5 -8c6.66699 -5.33301 12.334 -11.833 17.001 -19.5s7 -15.167 7 -22.5c0 -22.667 -9.33301 -34 -28 -34c-6.66699 0 -13.167 3.5 -19.5 10.5
s-11.833 16.5 -16.5 28.5l-24 66c-1.33301 2 -3.33301 4.83301 -6 8.5s-5 7.16699 -7 10.5c-1.33301 2 -4 5.66699 -8 11s-7 9.66602 -9 12.999c-14 -18.667 -25.667 -36.834 -35 -54.501s-16 -35.167 -20 -52.5c-5.33301 -27.333 -17.333 -41 -36 -41s-28 11.333 -28 34
c0 15.333 9.66699 30 29 44c32.667 24.667 52.667 40.667 60 48c0.666992 0.666992 2.33398 2.83398 5.00098 6.50098s7.33398 10.834 14.001 21.501c-33.333 9.33301 -62.666 14 -87.999 14h-7c-2.66699 0 -5.66699 0.333008 -9 1h-19c-27.333 0 -41 12.333 -41 37
c0 9.33301 3 17.333 9 24s13 10 21 10s22.667 -9 44 -27c18.667 -15.333 50.667 -30 96 -44v18z" />
    <glyph glyph-name="plus" unicode="+" horiz-adv-x="458" 
d="M223 307h-173v40h173v163h40v-163h174v-40h-174v-163h-40v163z" />
    <glyph glyph-name="comma" unicode="," horiz-adv-x="262" 
d="M68 -132l9.50098 11.002c2.33301 2.66699 5.16602 5.66699 8.49902 9l14 15.5c4 4.33301 6.33301 6.83301 7 7.5c15.333 21.333 23 40.333 23 57c0 7.33301 -8 14.666 -24 21.999h1l-18.5 8.5c-5 2.33301 -9.16699 4.83301 -12.5 7.5
c-9.33301 9.33301 -14 23.666 -14 42.999c0 17.333 4.83301 32 14.5 44s22.167 18 37.5 18c20 0 36.5 -7.33301 49.5 -22s19.5 -32.667 19.5 -54c0 -38 -10.333 -72.333 -31 -103c-13.333 -20 -37 -45 -71 -75z" />
    <glyph glyph-name="hyphen" unicode="-" horiz-adv-x="250" 
d="M16 204v53h168v-53h-168z" />
    <glyph glyph-name="hyphen" unicode="&#x2010;" horiz-adv-x="250" 
d="M16 204v53h168v-53h-168z" />
    <glyph glyph-name="period" unicode="." horiz-adv-x="261" 
d="M130 110c14 0 26.3311 -5.5 36.998 -16.5s16 -24.833 16 -41.5c0 -17.333 -5.16699 -31.5 -15.5 -42.5s-23.166 -16.5 -38.499 -16.5s-28.166 5.5 -38.499 16.5s-15.5 25.167 -15.5 42.5s5.33301 31.333 16 42s23.667 16 39 16z" />
    <glyph glyph-name="slash" unicode="/" horiz-adv-x="300" 
d="M5 -135l123.5 416.5l123.5 415.5h40l-124 -415.5l-124 -416.5h-39z" />
    <glyph glyph-name="zero" unicode="0" horiz-adv-x="570" 
d="M468 247c0 34 -5.66699 70.334 -17 109.001s-27.333 76.667 -48 114c-24 42.667 -51.167 75.667 -81.5 99s-62.5 35 -96.5 35c-46 0 -79.333 -20 -100 -60c-16.667 -31.333 -25 -69.666 -25 -114.999c0 -80.667 20.667 -157.334 62 -230.001
c48 -86 110.667 -129 188 -129c44.667 0 76.667 21 96 63c7.33301 15.333 12.833 32.666 16.5 51.999s5.5 40 5.5 62zM531 282.001c0 -68.667 -28.001 -134.999 -84.001 -198.999c-56.667 -64.667 -114 -97 -172 -97c-34.667 0 -66.667 10 -96 30s-55.666 50.667 -78.999 92
c-41.333 70.667 -62 146 -62 226c0 38 6.16699 76.167 18.5 114.5s29.833 74.833 52.5 109.5c26 38.667 54.5 68.5 85.5 89.5s63.5 31.5 97.5 31.5c28 0 56 -7.83301 84 -23.5s54.333 -36.5 79 -62.5c22.667 -28 40.167 -57 52.5 -87s18.5 -60 18.5 -90
c3.33301 -18.667 5 -63.334 5 -134.001z" />
    <glyph glyph-name="one" unicode="1" horiz-adv-x="357" 
d="M101 0c13.333 11.333 23.499 24.833 30.499 40.5s11.5 33.167 13.5 52.5l-1 360c0 23.333 -4.33301 46.333 -13 69s-20.667 43.667 -36 63l22.5 10.5l15.5 7.5c5.33301 2.66699 9.83301 4.66699 13.5 6s5.83398 2.33301 6.50098 3h-1c10 5.33301 21.333 12.5 34 21.5
s26.667 19.5 42 31.5v-573c0 -15.333 4 -31 12 -47s18.667 -31 32 -45h-171z" />
    <glyph glyph-name="two" unicode="2" horiz-adv-x="570" 
d="M54 -13l-12.998 4c1.33301 0.666992 2.33301 1.33398 3 2.00098s1.66699 1.33398 3 2.00098l-1 -1c1.33301 1.33301 2.66602 2.16602 3.99902 2.49902s2.66602 1.16602 3.99902 2.49902v-12zM511.002 83c-13.333 -41.333 -32.6631 -68.335 -57.9961 -81.002
c-19.333 -10 -48.666 -15 -87.999 -15c-17.333 0 -36.5 2.33301 -57.5 7s-42.167 11 -63.5 19c-22 8.66699 -40.833 15.334 -56.5 20.001s-27.5 7 -35.5 7c-14.667 0 -30.334 -4.33301 -47.001 -13s-33.667 -18 -51 -28v33c1.33301 11.333 5.66602 23.666 12.999 36.999
c34.667 68 80.667 124.333 138 169h-1l45 33c4.66699 4.66699 7.83398 7.33398 9.50098 8.00098s3.5 1.66699 5.5 3c27.333 21.333 50 42.666 68 63.999c5.33301 6.66699 10.5 14.667 15.5 24s9.33301 19 13 29s6.5 20 8.5 30s3 19 3 27c0 22.667 -4 43.834 -12 63.501
s-19.333 38.167 -34 55.5c-31.333 33.333 -70 50 -116 50c-24.667 0 -48.334 -6.33301 -71.001 -19c-26.667 -17.333 -40 -36.666 -40 -57.999c0 -18.667 15.333 -39.334 46 -62.001c26 -20 39 -40 39 -60c0 -9.33301 -1.66699 -18.166 -5 -26.499
s-8.66602 -15.166 -15.999 -20.499c-16 -12.667 -29.667 -19 -41 -19c-24.667 0 -43.667 14 -57 42c-10.667 19.333 -16 41.333 -16 66c0 62.667 24.667 113 74 151c46 36 96.667 54 152 54c25.333 0 49.833 -3.83301 73.5 -11.5s46.167 -18.5 67.5 -32.5
c23.333 -16.667 41.333 -36.334 54 -59.001s19 -48 19 -76c0 -44 -17.667 -85 -53 -123h1c-12.667 -12.667 -29.834 -27.167 -51.501 -43.5s-46.167 -33.5 -73.5 -51.5c-32 -20 -58.5 -37.5 -79.5 -52.5s-36.167 -27.167 -45.5 -36.5l-49 -45
c-12.667 -13.333 -22.334 -27 -29.001 -41s-11.334 -29 -14.001 -45c12.667 9.33301 25.334 17.5 38.001 24.5s24.667 12.5 36 16.5s22.5 7.33301 33.5 10s20.167 4 27.5 4c5.33301 0.666992 10.333 1.16699 15 1.5s9.66699 0.5 15 0.5c39.333 0 87 -7.33301 143 -22
c23.333 0 44.666 2.5 63.999 7.5s36.666 12.167 51.999 21.5c-1.33301 -12 -4 -24.333 -8 -37z" />
    <glyph glyph-name="three" unicode="3" horiz-adv-x="570" 
d="M522 200c0 -46.667 -19.3311 -89.999 -57.998 -129.999c-40 -40.667 -86.667 -64.667 -140 -72c-9.33301 -1.33301 -19 -2.33301 -29 -3s-19.667 -1 -29 -1c-48 0 -94.667 14.667 -140 44c-52.667 35.333 -79 81 -79 137c0 28 6.33301 50.333 19 67
c13.333 21.333 32 32 56 32c15.333 0 28.666 -4.66699 39.999 -14s17 -22.666 17 -39.999c0 -24 -12.333 -44 -37 -60c-29.333 -18.667 -44 -34.667 -44 -48c0 -28 18 -52 54 -72c28 -13.333 54.667 -20 80 -20c55.333 0 100 18.333 134 55c32 34 48 74.667 48 122
c0 38 -12.667 73.333 -38 106c-30 38 -71.667 60 -125 66c0 1.33301 -0.333008 2.33301 -1 3c84.667 25.333 127 67 127 125c0 19.333 -4 36.666 -12 51.999s-20 30 -36 44c-29.333 22 -60.666 33 -93.999 33c-27.333 0 -52.333 -6.66699 -75 -20v1
c-32.667 -16.667 -49 -36.667 -49 -60c0 -27.333 19 -46 57 -56c25.333 -7.33301 38 -25.666 38 -54.999c0 -30 -14.333 -45 -43 -45c-12.667 0 -24 3.33301 -34 10s-19 15.667 -27 27c-5.33301 9.33301 -9.83301 20.166 -13.5 32.499s-5.83398 24.5 -6.50098 36.5
c-0.666992 27.333 4.5 52.333 15.5 75s26.167 42.667 45.5 60c19.333 14.667 40.5 26.167 63.5 34.5s46.833 12.5 71.5 12.5c42 0 82.667 -13 122 -39c46.667 -30 70 -69.333 70 -118c0 -52.667 -32.667 -99.334 -98 -140.001c35.333 0 68.666 -17.667 99.999 -53
c33.333 -37.333 50 -80.333 50 -129z" />
    <glyph glyph-name="four" unicode="4" horiz-adv-x="570" 
d="M369 237v369c-159.333 -227.333 -239 -349.333 -239 -366c10 -3.33301 16.333 -4 19 -2zM519 173c-10 0 -18.667 -0.165039 -26 -0.498047s-15.666 -0.5 -24.999 -0.5c-4.66699 23.333 -8.33398 38.166 -11.001 44.499s-4.5 5.66602 -5.5 -2.00098s-1.66699 -21 -2 -40
s-0.5 -41.833 -0.5 -68.5c0 -22 3.66699 -41.5 11 -58.5s20.666 -32.167 39.999 -45.5h-179c10.667 7.33301 20.334 18.333 29.001 33c12.667 21.333 19 39 19 53l-1 82c-50.667 0 -102.834 0.166992 -156.501 0.5s-106.5 0.5 -158.5 0.5l269 423
c-7.33301 7.33301 -12.666 16.666 -15.999 27.999c13.333 3.33301 31.5 9.83301 54.5 19.5s53.5 23.834 91.5 42.501v-443h67v-68z" />
    <glyph glyph-name="five" unicode="5" horiz-adv-x="570" 
d="M520 233c0 -54.667 -18.334 -104.335 -55.001 -149.002c-37.333 -45.333 -81.333 -74.666 -132 -87.999l-38.5 -8.5c-10.333 -2.33301 -17.5 -3.5 -21.5 -3.5c-49.333 0 -98 14.333 -146 43c-52 32.667 -78 73.667 -78 123c0 22 5.66699 42.667 17 62
c11.333 24 25.333 36 42 36c14 0 26.333 -6.66699 37 -20s16 -27.666 16 -42.999s-7.66699 -30.333 -23 -45c-16.667 -20 -25 -34.333 -25 -43c0 -22.667 16 -43.334 48 -62.001c25.333 -14.667 51 -22 77 -22c24 0 48.333 7.66699 73 23c32 20 56.333 45.333 73 76
s25 65.667 25 105c0 50 -12.667 92.333 -38 127c-28.667 38.667 -68.667 58 -120 58c-40 0 -94.333 -19.667 -163 -59l31 169l31 170c8 -2 16 -3.83301 24 -5.5s19.333 -4.16699 34 -7.5l12 -3c17.333 -3.33301 34 -6.16602 50 -8.49902s31.667 -3.5 47 -3.5
c7.33301 0 17.166 1.16699 29.499 3.5l46.5 8.5c30 6 52 11 66 15v-4c0 -36.667 -22.333 -69 -67 -97c-40 -26 -79.333 -39 -118 -39c-31.333 0 -72.666 6.66699 -123.999 20c-6 -24.667 -16 -79 -30 -163c24 16 45 27.333 63 34c40 16 76.667 24 110 24
c62.667 0 116.334 -21.333 161.001 -64c44 -42 66 -95 66 -159z" />
    <glyph glyph-name="six" unicode="6" horiz-adv-x="570" 
d="M327 753c-1.33301 -0.666992 -2.83301 -1 -4.5 -1s-3.16699 -0.333008 -4.5 -1c2.66699 1.33301 5 2.83301 7 4.5s4.66699 3.16699 8 4.5l5 -7h-11zM462 212c0 53.333 -19.001 100 -57.001 140c-18 19.333 -38.5 34.166 -61.5 44.499s-48.167 15.5 -75.5 15.5
c-20 0 -45.667 -10.333 -77 -31c-36 -23.333 -54 -42.666 -54 -57.999c0 -65.333 17.333 -124 52 -176h-1c38 -58.667 90.667 -88 158 -88c11.333 0 23.333 3.83301 36 11.5s25.334 18.167 38.001 31.5c26 32 39.333 57.667 40 77c0.666992 6.66699 1.16699 12.167 1.5 16.5
s0.5 7.83301 0.5 10.5v6zM514.999 275c0 -23.333 -3.83301 -47.501 -11.5 -72.501s-18.5 -50.833 -32.5 -77.5c-14.667 -26.667 -30.667 -49 -48 -67s-35.666 -32 -54.999 -42c-42 -20 -74.333 -30 -97 -30c-15.333 0 -31 2.5 -47 7.5s-30.667 11.833 -44 20.5
c-19.333 13.333 -37.5 30.833 -54.5 52.5s-31.167 46.5 -42.5 74.5v-1c-19.333 48 -29 101.333 -29 160c0 46 6.33301 92.167 19 138.5s30 91.5 52 135.5c25.333 46 54.666 84.167 87.999 114.5s68.333 51.166 105 62.499c-50.667 -37.333 -91.667 -88 -123 -152
c-17.333 -34.667 -30.833 -69.167 -40.5 -103.5s-15.5 -69.166 -17.5 -104.499c15.333 -3.33301 26 0.666992 32 12l-3 -1l84.5 49l84.5 50c120 -33.333 180 -108.666 180 -225.999z" />
    <glyph glyph-name="seven" unicode="7" horiz-adv-x="570" 
d="M530 693c-2.66699 -2 -4.83301 -3.83496 -6.5 -5.50195s-3.5 -3.16699 -5.5 -4.5c-1.33301 2.66699 -2 5.33398 -2 8.00098c0 0.666992 -0.166992 1.33398 -0.5 2.00098s-0.5 1.66699 -0.5 3zM537.001 682.998c0 -48 -6 -49.333 -18 -4v4h18zM490.001 663.998
c6 3.33301 15.332 9.66602 27.999 18.999c0 -1.33301 0.333008 -2.66602 1 -3.99902c-0.666992 -22.667 -5.66699 -47.334 -15 -74.001s-22 -54 -38 -82l-100 -161c-36.667 -68.667 -55 -137 -55 -205c0 -8.66699 0.666992 -19.167 2 -31.5s3.33301 -26.833 6 -43.5
c6 -32 9 -56 9 -72c0 -25.333 -5.66699 -46.333 -17 -63c-14 -20.667 -30 -31 -48 -31c-19.333 0 -36 15.333 -50 46c-12.667 26.667 -19 51.667 -19 75c0 34.667 5.16699 71.167 15.5 109.5s24.833 76.5 43.5 114.5c13.333 27.333 30.833 57.666 52.5 90.999
s46.5 68.666 74.5 105.999v-1c10.667 13.333 23.5 30.333 38.5 51l51.5 74l8 26c-49.333 -32 -90.333 -48 -123 -48c-8 0 -18.333 0.833008 -31 2.5s-27.667 4.5 -45 8.5c-17.333 3.33301 -32.5 6 -45.5 8s-24.167 3 -33.5 3c-15.333 0 -30 -2.16699 -44 -6.5
s-26.333 -10.666 -37 -18.999s-19.167 -18.333 -25.5 -30s-9.5 -24.5 -9.5 -38.5c0 -22 7 -41 21 -57s32.333 -24 55 -24c20.667 0 36 10 46 30v3c0 1.33301 -0.333008 2.66602 -1 3.99902c-0.666992 2 -1.5 5 -2.5 9s-1.5 6.33301 -1.5 7
c-1.33301 4 -2.33301 7.83301 -3 11.5s-1 7.16699 -1 10.5c0 9.33301 3.33301 17.5 10 24.5s14.334 10.5 23.001 10.5c12 0 21.333 -5.5 28 -16.5s10 -23.5 10 -37.5c0 -24 -11 -44.333 -33 -61c-21.333 -18.667 -43 -28 -65 -28c-36 0 -65 14.333 -87 43
c-21.333 25.333 -32 58 -32 98c0 24.667 4.16699 47.334 12.5 68.001s20 38.5 35 53.5s32.667 26.667 53 35s42.5 12.833 66.5 13.5l224 -37c11.333 2.66699 20.833 5.33398 28.5 8.00098s14.167 5.33398 19.5 8.00098z" />
    <glyph glyph-name="eight" unicode="8" horiz-adv-x="570" 
d="M404 533c0 35.333 -12.166 63.498 -36.499 84.498s-55.5 31.5 -93.5 31.5c-32.667 0 -60.334 -8.33301 -83.001 -25c-12.667 -9.33301 -22.5 -20.166 -29.5 -32.499s-10.5 -26.166 -10.5 -41.499c0 -30 21 -60 63 -90c37.333 -24.667 73.333 -37 108 -37
c13.333 0 25 3.33301 35 10s19 16.667 27 30c13.333 24 20 47.333 20 70zM491.001 150.998c0 44.667 -27.3311 81 -81.998 109c-11.333 4 -22.833 8.33301 -34.5 13l-34.5 14c-11.333 4.66699 -22.5 9 -33.5 13s-22.167 8.66699 -33.5 14h1c-34 16 -54 24 -60 24
c-24.667 0 -48.334 -14.333 -71.001 -43c-22.667 -30 -34 -54.667 -34 -74c0 -28.667 15.333 -57.334 46 -86.001c13.333 -14 45.666 -31 96.999 -51c48 -18.667 83.333 -28 106 -28c26.667 0 54.667 9 84 27c32.667 20.667 49 43.334 49 68.001zM529.003 206.998
c0 -66.667 -24.666 -119.665 -73.999 -158.998c-47.333 -38 -103.666 -57 -168.999 -57c-29.333 0 -57 3.66699 -83 11s-51.667 18.333 -77 33c-56.667 35.333 -85 80 -85 134c0 36.667 11 69.667 33 99c8 9.33301 17.167 19.166 27.5 29.499s22.166 20.166 35.499 29.499
c26 18.667 39 30 39 34c0 1.33301 -2.83301 5 -8.5 11s-11.834 11.667 -18.501 17c-8.66699 8.66699 -16.667 17.167 -24 25.5s-13.333 15.833 -18 22.5h1c-14.667 23.333 -22 46 -22 68c0 54 23 96.667 69 128c40.667 28 88.667 42 144 42c47.333 0 88.333 -11.333 123 -34
c38 -24 57 -59.333 57 -106c0 -42 -39 -86 -117 -132c111.333 -44 167 -109.333 167 -196z" />
    <glyph glyph-name="nine" unicode="9" horiz-adv-x="570" 
d="M180 -73l14 2c4.66699 0.666992 9.66699 1.66699 15 3c-4 -2 -8 -4.16699 -12 -6.5s-8 -4.5 -12 -6.5zM245 607c-40 0 -75.3369 -15.334 -106.004 -46.001s-46 -65 -46 -103c0 -48 17 -93.667 51 -137c18 -21.333 38 -37.5 60 -48.5s46.333 -16.5 73 -16.5
c20 0 47 4.66699 81 14c18.667 5.33301 34.834 10.833 48.501 16.5s22.834 11.167 27.501 16.5h-1c4.66699 5.33301 7 12 7 20c0 4.66699 -3.66699 27.334 -11 68.001l-3 19c-4 22.667 -11.167 45.5 -21.5 68.5s-22.166 43.5 -35.499 61.5
c-33.333 44.667 -74.666 67 -123.999 67zM307.996 -27.001c-34 -20 -66.998 -33.665 -98.998 -40.998c62.667 36.667 114.667 84.334 156 143.001c1.33301 2 6.5 11.333 15.5 28s19.167 37 30.5 61c9.33301 17.333 16.666 34.5 21.999 51.5s8 31.833 8 44.5
c0 2.66699 -0.166992 5.5 -0.5 8.5s-1.16602 7.5 -2.49902 13.5c-120 -72 -187.333 -108 -202 -108c-50.667 0 -95.334 21 -134.001 63c-37.333 41.333 -56 89.666 -56 144.999c0 32.667 7.16699 66 21.5 100s34.166 67 59.499 99c28 32 57.5 56.667 88.5 74
s61.833 26 92.5 26c21.333 0 45 -5.66699 71 -17c96.667 -46.667 145 -148.334 145 -305.001c0 -118.667 -36.333 -218.334 -109 -299.001c-30 -36 -65.667 -65 -107 -87z" />
    <glyph glyph-name="colon" unicode=":" 
d="M130 430c14 0 26.3311 -5.83301 36.998 -17.5s16 -25.5 16 -41.5c0 -16.667 -5.16699 -30.5 -15.5 -41.5s-23.166 -16.5 -38.499 -16.5s-28.166 5.5 -38.499 16.5s-15.5 24.833 -15.5 41.5c0 17.333 5.33301 31.5 16 42.5s23.667 16.5 39 16.5zM129.998 110
c14 0 26.3311 -5.5 36.998 -16.5s16 -24.833 16 -41.5c0 -17.333 -5.16699 -31.5 -15.5 -42.5s-23.166 -16.5 -38.499 -16.5s-28.166 5.5 -38.499 16.5s-15.5 25.167 -15.5 42.5s5.33301 31.333 16 42s23.667 16 39 16z" />
    <glyph glyph-name="semicolon" unicode=";" 
d="M124 430c15.333 0 27.998 -5.83301 37.998 -17.5s15 -25.5 15 -41.5c0 -16.667 -5.16699 -30.5 -15.5 -41.5s-23.166 -16.5 -38.499 -16.5s-28.166 5.5 -38.499 16.5s-15.5 24.833 -15.5 41.5c0 17.333 5.33301 31.5 16 42.5s23.667 16.5 39 16.5zM74.998 -132
c2 2.66699 3.33398 4.49902 4.00098 5.49902s1.66699 2.16699 3 3.5l22 22.5c5.33301 5.66699 8.66602 9.5 9.99902 11.5c14.667 22 22 41 22 57c0 8.66699 -7.33301 16 -22 22l-18.5 8.5c-5 2.33301 -8.83301 4.83301 -11.5 7.5c-10 8.66699 -15 23 -15 43
c0 17.333 4.83301 32 14.5 44s22.167 18 37.5 18c19.333 0 35 -6.83301 47 -20.5s18 -31.167 18 -52.5c0 -38.667 -10 -73.334 -30 -104.001c-7.33301 -11.333 -17 -23.666 -29 -36.999s-25 -26.666 -39 -39.999z" />
    <glyph glyph-name="less" unicode="&#x3c;" horiz-adv-x="482" 
d="M451 615l-1 -52l-334 -222l334 -216l1 -61l-415 278v7z" />
    <glyph glyph-name="equal" unicode="=" horiz-adv-x="457" 
d="M60 354v40h367v-40h-367zM60 240v40h367v-40h-367z" />
    <glyph glyph-name="greater" unicode="&#x3e;" horiz-adv-x="462" 
d="M38 615v-52l335 -222l-335 -216v-61l414 278v7z" />
    <glyph glyph-name="question" unicode="?" horiz-adv-x="479" 
d="M211 190c-0.666992 0 -1 -0.166992 -1 -0.5s-0.333008 -0.5 -1 -0.5zM204 188c1.33301 0.666992 3 1 5 1l-5 -2v1zM204 127c15.333 0 27.833 -6.16699 37.5 -18.5s14.5 -27.166 14.5 -44.499s-4.83301 -32.333 -14.5 -45s-22.167 -19 -37.5 -19c-16 0 -29 6.33301 -39 19
s-15 27.667 -15 45s5 32.166 15 44.499s23 18.5 39 18.5zM282 297c-42.667 -34 -68.666 -70.335 -77.999 -109.002c-3.33301 -0.666992 -6.16602 -1 -8.49902 -1h-5.5c2 36.667 14 69.334 36 98.001v-1l34 41.5l34 40.5c25.333 35.333 38 69.333 38 102
c0 37.333 -12.333 72.333 -37 105c-27.333 31.333 -61.333 47 -102 47c-12.667 0 -25 -1.83301 -37 -5.5s-22.833 -8.83398 -32.5 -15.501s-17.334 -14.834 -23.001 -24.501s-8.5 -20.167 -8.5 -31.5c0 -17.333 9.66699 -36.666 29 -57.999
c16.667 -17.333 25 -31.666 25 -42.999c0 -15.333 -6.33301 -28.333 -19 -39c-12.667 -12.667 -25.334 -19 -38.001 -19c-18 0 -32.833 8.33301 -44.5 25s-17.5 35.334 -17.5 56.001c0 54.667 21.333 102 64 142c22.667 20 45.834 35.333 69.501 46s48.167 16 73.5 16
c22.667 0 45.667 -4.33301 69 -13s45.666 -19.667 66.999 -33c45.333 -32.667 68 -72.667 68 -120c0 -23.333 -4.5 -45 -13.5 -65s-21.167 -38.667 -36.5 -56z" />
    <glyph glyph-name="at" unicode="@" horiz-adv-x="705" 
d="M359 468c-37.333 0 -68.334 -30.001 -93.001 -90.001c-11.333 -25.333 -19.5 -49.166 -24.5 -71.499s-7.5 -42.5 -7.5 -60.5c0 -51.333 18 -77 54 -77c36.667 0 67.334 31.333 92.001 94c20.667 52 31 96.667 31 134c0 47.333 -17.333 71 -52 71zM636.999 163.999
c-12 -28 -27 -52.5 -45 -73.5s-39.667 -40.167 -65 -57.5c-26.667 -17.333 -53.667 -30.166 -81 -38.499s-56 -12.5 -86 -12.5c-92 0 -168.333 34 -229 102c-59.333 65.333 -89 146 -89 242c0 46.667 7.5 91.167 22.5 133.5s36.167 80.166 63.5 113.499
c30 34 64.5 60.333 103.5 79s81.167 28 126.5 28c77.333 0 145 -27 203 -81c56.667 -52.667 85 -119 85 -199c0 -52 -12.667 -100.333 -38 -145c-26.667 -46.667 -61.667 -81 -105 -103c-23.333 -12 -44 -18 -62 -18c-42 0 -60.667 25.667 -56 77l-14 2
c-33.333 -49.333 -65.333 -74 -96 -74c-32 0 -59 14 -81 42c-18 24.667 -27 56 -27 94c0 52.667 17.333 102.334 52 149.001c38 50 80.667 75 128 75c32 0 56.333 -30.667 73 -92c1.33301 4 3 9.66699 5 17l6 23c2 8 4.16699 15.833 6.5 23.5s4.16602 14.167 5.49902 19.5
h65l-68 -267c-2.66699 -11.333 -4 -21.333 -4 -30c0 -17.333 11 -26 33 -26c14.667 0 30.667 6 48 18c32 24 56 54.667 72 92c18 40.667 27 80 27 118c0 66 -25 123.667 -75 173c-47.333 48 -106.666 72 -177.999 72c-88 0 -158 -30.667 -210 -92
c-25.333 -29.333 -44.5 -62 -57.5 -98s-19.5 -75.667 -19.5 -119c0 -86.667 26 -159.334 78 -218.001c52.667 -60.667 123.667 -91 213 -91c50 0 94.167 11.833 132.5 35.5s71.5 59.167 99.5 106.5h38z" />
    <glyph glyph-name="A" unicode="A" horiz-adv-x="645" 
d="M98 562c-0.666992 -2.66699 -0.833008 -5 -0.5 -7s0.5 -4 0.5 -6l-14 3l9 6c2 2 3.66699 3.33301 5 4zM351.001 403l-4.00098 20c-3.33301 13.333 -6.16602 26.666 -8.49902 39.999s-5.16602 27 -8.49902 41c-5.33301 22 -11.333 40.333 -18 55
s-14.667 25.334 -24 32.001c-8 6 -20 9 -36 9c-1.33301 0 -3.33301 -0.166992 -6 -0.5s-5.66699 -0.5 -9 -0.5c-2.66699 0 -6.83398 -0.166992 -12.501 -0.5s-10.167 -0.5 -13.5 -0.5l-38 -196zM364 -1c19.333 17.333 32.165 34.834 38.498 52.501s8.83301 38.167 7.5 61.5
c-2.66699 40.667 -20.334 124.667 -53.001 252l-190 -1l-6.5 -29.5c-2.33301 -10.333 -4.16602 -20.5 -5.49902 -30.5c-2 -9.33301 -3.83301 -18.833 -5.5 -28.5s-3.16699 -18.834 -4.5 -27.501c-8.66699 -46 -13.667 -85.333 -15 -118c-2 -38 1.66699 -64.333 11 -79
c2.66699 -3.33301 8.66699 -10.166 18 -20.499s19 -20.5 29 -30.5h-174c20.667 18 36.334 36 47.001 54c6 9.33301 11.5 21 16.5 35s9.5 29 13.5 45l58 250.5l46 209.5h-18c-17.333 0 -32 -3.16699 -44 -9.5s-23.667 -13.833 -35 -22.5c2 31.333 16.667 58.666 44 81.999
c30.667 26.667 63 40 97 40c42.667 0 77.5 -11.5 104.5 -34.5s46.167 -55.5 57.5 -97.5l42 -180.5l61 -254.5c1.33301 -6 4 -13.333 8 -22s9.66699 -18 17 -28c8 -13.333 16.833 -25.5 26.5 -36.5s20.834 -20.833 33.501 -29.5z" />
    <glyph glyph-name="B" unicode="B" horiz-adv-x="576" 
d="M223 -7c-1.33301 1.33301 -2.5 2.33301 -3.5 3s-2.16699 1.66699 -3.5 3h7l7 1zM358 522c0 19.333 -6.33203 39.6631 -18.999 60.9961c-15.333 27.333 -37 44.333 -65 51h1c-8 2.66699 -17 4.66699 -27 6s-20.667 2.66602 -32 3.99902
c-19.333 0.666992 -33 -0.666016 -41 -3.99902h1l-15.5 -9c-5.66699 -3.33301 -10.5 -6.33301 -14.5 -9l1 -213c26 0.666992 50.167 2.83398 72.5 6.50098s42.166 8.83398 59.499 15.501c25.333 10.667 44.833 23.834 58.5 39.501s20.5 32.834 20.5 51.501zM67.001 512.997
c0 19.333 -5.66309 39.668 -16.9961 61.001c-9.33301 20 -21.333 34 -36 42c11.333 5.33301 25.5 11.5 42.5 18.5s33.833 13.167 50.5 18.5c19.333 6 38 10.833 56 14.5s32.667 5.5 44 5.5c67.333 0 122.333 -11.333 165 -34c56.667 -26.667 85 -70 85 -130
c0 -28.667 -15 -55.334 -45 -80.001c-13.333 -10.667 -27.833 -18.667 -43.5 -24s-32.834 -10.666 -51.501 -15.999c3.33301 -2 7.83301 -4.16699 13.5 -6.5l16.5 -6.5c25.333 -11.333 49.166 -26.666 71.499 -45.999s41.833 -39.666 58.5 -60.999v1
c35.333 -42.667 53 -93.334 53 -152.001c0 -38 -11.833 -75.333 -35.5 -112s-54.834 -71 -93.501 -103c-40 -30 -80.333 -52.833 -121 -68.5s-80.334 -23.5 -119.001 -23.5h-16c34 7.33301 66.833 18.666 98.5 33.999s60.167 34.333 85.5 57c32 30 56.333 61.5 73 94.5
s25 68.5 25 106.5c0 37.333 -7.33301 73.666 -22 108.999s-34.667 66.5 -60 93.5s-55 48.167 -89 63.5s-70.333 21 -109 17l-1 -263c1.33301 -38 13 -70 35 -96l17 -13c6 -4.66699 12 -9.66699 18 -15h-199c14.667 10 26 27 34 51v-1c10.667 22 16 45.667 16 71v393z" />
    <glyph glyph-name="C" unicode="C" horiz-adv-x="464" 
d="M475 72c-7.33301 -3.33301 -14.333 -6 -21 -8c1.33301 2.66699 2.83301 5 4.5 7s3.16699 4.33301 4.5 7zM381 52c23.333 0 47.6709 4 73.0039 12c-18 -26 -40 -45.333 -66 -58s-55 -19 -87 -19c-42.667 0 -78.334 7.33301 -107.001 22c-56.667 28 -101 74.333 -133 139
c-14 28 -24.833 58 -32.5 90s-11.5 66 -11.5 102c0 89.333 19.333 165 58 227c45.333 73.333 107.666 110 186.999 110c3.33301 0 7.5 -0.333008 12.5 -1s11.5 -1.66699 19.5 -3c16 -2 27.667 -3 35 -3c13.333 0 24.666 2 33.999 6h-1
c3.33301 1.33301 6.16602 2.33301 8.49902 3s5.16602 1.66699 8.49902 3c4 -21.333 9.66699 -43 17 -65s15.666 -44.333 24.999 -67c-1.33301 0 -2 0.166992 -2 0.5s-0.333008 0.5 -1 0.5s-1 0.333008 -1 1c-0.666992 0.666992 -1.33398 1.5 -2.00098 2.5
s-2.33398 3.16699 -5.00098 6.5l-7 7h1l-16.5 18c-4.33301 4.66699 -10.166 9.33398 -17.499 14.001h1c-6.66699 5.33301 -14.167 10.666 -22.5 15.999s-18.166 11 -29.499 17c-24 11.333 -43.667 17 -59 17c-55.333 0 -98 -23.667 -128 -71
c-13.333 -20.667 -23.166 -42.667 -29.499 -66s-9.5 -49 -9.5 -77c0 -94 23 -178.333 69 -253c28 -44 59.833 -76.833 95.5 -98.5s76.834 -32.5 123.501 -32.5z" />
    <glyph glyph-name="D" unicode="D" horiz-adv-x="603" 
d="M549 307c0 -77.333 -20.334 -142.33 -61.001 -194.997c-23.333 -31.333 -53.333 -57.666 -90 -78.999s-68.667 -32 -96 -32c-45.333 0 -90 -0.166992 -134 -0.5s-88.667 -0.5 -134 -0.5c10.667 5.33301 20 12 28 20s14.667 18.667 20 32
c1.33301 7.33301 2.83301 14.333 4.5 21l5.5 21v316c-1.33301 5.33301 -2.33301 10.166 -3 14.499s-1.66699 9.16602 -3 14.499c-4 9.33301 -10.667 17.666 -20 24.999s-20.333 13.666 -33 18.999c5.33301 1.33301 9.33301 2.83301 12 4.5s7.66699 4.16699 15 7.5
c4 1.33301 7.33301 2.83301 10 4.5s5.33398 3.16699 8.00098 4.5l15 6l8 4c8.66699 4 19 9.83301 31 17.5s25.667 17.167 41 28.5v-466c-0.666992 -2 -1 -5.33301 -1 -10c0 -7.33301 2.16699 -14.666 6.5 -21.999s10.333 -14 18 -20s16.834 -10.833 27.501 -14.5
s22.334 -5.5 35.001 -5.5c34.667 0 58 2.33301 70 7c52.667 20.667 91 54 115 100c19.333 38 29 80 29 126c0 88.667 -25.333 168 -76 238c-27.333 37.333 -59 66 -95 86s-76.333 30 -121 30c-64.667 0 -119.334 -13.667 -164.001 -41
c14.667 33.333 42.667 59.666 84 78.999c19.333 9.33301 39.5 16.333 60.5 21s41.5 7 61.5 7c93.333 0 171.666 -37.667 234.999 -113c60.667 -69.333 91 -154.333 91 -255z" />
    <glyph glyph-name="E" unicode="E" horiz-adv-x="553" 
d="M542 144c-4 -2.66699 -6.99805 -4.33301 -8.99805 -5c1.33301 1.33301 2.16602 3 2.49902 5s1.16602 3.66699 2.49902 5l6 -6zM453.002 92.001l40.0039 22.498c13.333 7.66699 26.666 15.834 39.999 24.501l-37.5 -79.5l-37.5 -78.5
c-30 9.33301 -55.333 15.166 -76 17.499s-37.334 2.5 -50.001 0.5h-312c4 4.66699 6.83301 8.33398 8.5 11.001s4.16699 6.33398 7.5 11.001l9 12c6 10 10.833 19.167 14.5 27.5s5.5 16.166 5.5 23.499v487c0 15.333 -4.33301 31.5 -13 48.5s-19.667 33.167 -33 48.5h332
c26.667 0 53.667 4.66699 81 14c2.66699 -12 7.33398 -30.167 14.001 -54.5s15.334 -52.833 26.001 -85.5c-17.333 12.667 -33.833 24.167 -49.5 34.5s-28.167 18.166 -37.5 23.499h1c-22 13.333 -43.667 23 -65 29s-42 9 -62 9c-42.667 0 -69.667 -2.33301 -81 -7
c-10.667 -4.66699 -19.334 -11.834 -26.001 -21.501s-10 -21.167 -10 -34.5l-1 -174h33c14 0 28.667 -0.333008 44 -1h67c66 0 122 14.667 168 44v-106c-2.66699 1.33301 -4.33398 2.33301 -5.00098 3s-3.66699 2.66699 -9 6c-36 18.667 -73 28 -111 28h-185v-293
c0 -11.333 4.66699 -21.166 14 -29.499s22 -14.166 38 -17.499c6.66699 -1.33301 16.167 -2.33301 28.5 -3s27.166 -1 44.499 -1c23.333 0 47.166 3.33301 71.499 10s49.5 16.334 75.5 29.001c6.66699 3.33301 13 7 19 11s12.333 7.66699 19 11z" />
    <glyph glyph-name="F" unicode="F" horiz-adv-x="459" 
d="M21 -1l-7 -7l-6 7h13zM209 1c-33.333 -0.666992 -64.668 -1.16699 -94.001 -1.5s-60.666 -0.5 -93.999 -0.5c3.33301 3.33301 5.66602 5.83301 6.99902 7.5s2.66602 3.16699 3.99902 4.5h-1c2.66699 2.66699 5.16699 5.5 7.5 8.5s4.83301 5.83301 7.5 8.5
c12 18 18 38.667 18 62l-1 475c0 39.333 -14.333 73.666 -43 102.999h291c13.333 0 26.666 1 39.999 3s27 5.66699 41 11c2.66699 -12 7.33398 -30 14.001 -54s15.334 -52.333 26.001 -85c-19.333 14.667 -36.166 26.834 -50.499 36.501s-25.833 16.834 -34.5 21.501
c-21.333 12.667 -43 22.334 -65 29.001s-42.667 10 -62 10c-51.333 0 -77 -20.667 -77 -62v-179h56c8 0.666992 16 1 24 1h23c66.667 0 122.334 14.667 167.001 44v-108c-2.66699 1.33301 -4.33398 2.33301 -5.00098 3s-3.66699 2.66699 -9 6
c-35.333 18.667 -72.333 28 -111 28h-144c0.666992 -18.667 1 -52.834 1 -102.501v-180.5c0 -14.667 5 -29.334 15 -44.001s26.333 -29.667 49 -45z" />
    <glyph glyph-name="G" unicode="G" horiz-adv-x="625" 
d="M582 361c-18 -20.667 -28.001 -43.3311 -30.001 -67.998c-2 -38 -3 -112.333 -3 -223c0 -10.667 3.66699 -23.334 11 -38.001c2.66699 -4.66699 4.66699 -9.5 6 -14.5s2 -9.16699 2 -12.5h-3c-6 0 -15 1.66699 -27 5c-5.33301 1.33301 -11 2.66602 -17 3.99902
s-11 2 -15 2c-3.33301 0 -7.16602 -0.5 -11.499 -1.5s-11.166 -2.16699 -20.499 -3.5c-6 -1.33301 -13 -2.33301 -21 -3c-34 -5.33301 -61.5 -9.5 -82.5 -12.5s-35.5 -4.5 -43.5 -4.5c-44 0 -85.167 8.83301 -123.5 26.5s-72.5 42.5 -102.5 74.5
c-25.333 32 -45.833 69 -61.5 111s-23.5 85.333 -23.5 130c0 90.667 25.333 168.667 76 234c54 72.667 123 109 207 109c6.66699 0 15.334 -0.666992 26.001 -2s23.667 -3.33301 39 -6c27.333 -4.66699 50.333 -7 69 -7c9.33301 0 19.166 1.33301 29.499 4
s19.166 6 26.499 10c3.33301 -12.667 9.5 -29.667 18.5 -51s20.833 -47 35.5 -77l-100 60c-52.667 28.667 -97 43 -133 43c-68.667 0 -121.667 -27.667 -159 -83c-31.333 -47.333 -47 -105.333 -47 -174c0 -92 22.333 -173.333 67 -244c52.667 -82.667 124 -124 214 -124
c13.333 0 28 3 44 9c23.333 8.66699 35 19.334 35 32.001c0 58.667 -1 104.5 -3 137.5s-5.66699 53.5 -11 61.5c-3.33301 4.66699 -8.5 8.5 -15.5 11.5s-15.833 4.5 -26.5 4.5c-15.333 0 -41.333 -5 -78 -15c-35.333 -10 -59 -15 -71 -15c-15.333 0 -28.333 3 -39 9
s-16 16 -16 30c0 21.333 14.333 32 43 32c12 0 27.667 -2.33301 47 -7c20.667 -4.66699 38 -7 52 -7c39.333 0 70.333 3.33301 93 10h-2c10 2 36.333 11.667 79 29c34.667 13.333 57.667 20.666 69 21.999l-3 -2v-6z" />
    <glyph glyph-name="H" unicode="H" horiz-adv-x="598" 
d="M397 2c11.333 10.667 20.832 22.4961 28.499 35.4961s12.5 27.167 14.5 42.5l-21 299h-249c-2.66699 -49.333 -5.66699 -99.666 -9 -150.999s-6.33301 -101.666 -9 -150.999c-0.666992 -2 -1 -4.33301 -1 -7v-6c0 -12.667 3 -24.167 9 -34.5s14.667 -20.166 26 -29.499
c-31.333 0 -60.166 0.333008 -86.499 1s-54.5 1 -84.5 1c18 10.667 30.667 22.667 38 36c1.33301 2.66699 2.83301 5.83398 4.5 9.50098s3.16699 7.16699 4.5 10.5h-1c0 0.666992 0 0.833984 0 0.500977s0 -0.166016 0 0.500977s0.5 2.16699 1.5 4.5s3.16699 6.5 6.5 12.5
c6 80.667 11.833 163 17.5 247l16.5 247c-0.666992 18 -4.83398 35.667 -12.501 53s-20.167 32.333 -37.5 45c4.66699 0.666992 10.167 1 16.5 1h28.5h44c10.667 0 20.5 -0.166992 29.5 -0.5s17.167 -0.5 24.5 -0.5h38c-30.667 -22 -48.334 -52.667 -53.001 -92l-8 -160
l243 1l-14 167c-1.33301 1.33301 -2.5 4.16602 -3.5 8.49902s-2.16699 8.16602 -3.5 11.499s-2.33301 6 -3 8s-1.66699 4.66699 -3 8c-4 8.66699 -9 17.334 -15 26.001s-11.667 15.667 -17 21h168c-11.333 -8.66699 -21 -20.667 -29 -36s-12.333 -29 -13 -41
c2.66699 -36 6 -75.833 10 -119.5s7.83301 -88 11.5 -133l11 -133l10.5 -120.5c0.666992 -12.667 4.83398 -26.334 12.501 -41.001s18.834 -28.667 33.501 -42z" />
    <glyph glyph-name="I" unicode="I" horiz-adv-x="251" 
d="M188 667c-15.333 -12 -26.333 -25 -33 -39s-10 -30.333 -10 -49v-495c0 -13.333 4 -28 12 -44s17.333 -29 28 -39h-166c13.333 10.667 23 23.667 29 39s9 33.333 9 54v470c0 21.333 -3.66699 41 -11 59s-16.333 32.667 -27 44h169z" />
    <glyph glyph-name="J" unicode="J" horiz-adv-x="477" 
d="M417 667c-12 -14 -20.668 -27.1641 -26.001 -39.4971s-8 -25.5 -8 -39.5v-444c4 -45.333 -12.667 -82.333 -50 -111c-35.333 -27.333 -79.333 -41 -132 -41c-51.333 0 -94.666 11.667 -129.999 35c-36.667 26.667 -55 62.334 -55 107.001c0 20.667 5 39.667 15 57
c14 22 31.333 33 52 33c6 0 12 -1.66699 18 -5s11.333 -7.83301 16 -13.5s8.33398 -11.834 11.001 -18.501s4 -13.334 4 -20.001c0 -16.667 -7 -33.334 -21 -50.001c-16 -18 -24 -30.333 -24 -37c0 -28.667 17.333 -48.334 52 -59.001
c11.333 -3.33301 24.333 -5.66602 39 -6.99902s29.667 -1.33301 45 0c8 1.33301 16.667 4.33301 26 9s17.666 10.667 24.999 18c16 19.333 24 36 24 50l2 495c-4 25.333 -20.667 52.666 -50 81.999z" />
    <glyph glyph-name="K" unicode="K" horiz-adv-x="582" 
d="M498 46c30.667 -73.333 63.665 -128.666 98.998 -165.999c-3.33301 -0.666992 -6.5 -1.16699 -9.5 -1.5s-6.16699 -0.5 -9.5 -0.5c-22.667 0 -44 5.66699 -64 17s-38.333 27 -55 47c-13.333 16 -25.666 35.667 -36.999 59s-22.666 50.666 -33.999 81.999h1
c-1.33301 4.66699 -3 9.33398 -5 14.001s-3.66699 9.66699 -5 15l-20 57.5l-21 57.5c-33.333 82 -61 123 -83 123c-8.66699 0 -42.334 -10.667 -101.001 -32v-230c-1.33301 -4 -2 -7 -2 -9c0 -10.667 4.16699 -22.834 12.5 -36.501s20.833 -27.834 37.5 -42.501h-173
c14.667 11.333 26 23.833 34 37.5s12 28.167 12 43.5v505c0 33.333 -15 60 -45 80c32 0 61.667 0.166992 89 0.5s57 0.5 89 0.5c-8 -7.33301 -15.167 -13.5 -21.5 -18.5s-10.833 -8.83301 -13.5 -11.5c-12.667 -16 -19 -34 -19 -54v-231
c76.667 24.667 131.334 48.334 164.001 71.001c52.667 36.667 79 83 79 139c0 2 -0.166992 5.16699 -0.5 9.5s-0.833008 8.5 -1.5 12.5s-1 7.83301 -1 11.5v9.5c0 22 4.66699 41.333 14 58c10.667 18.667 25.334 28 44.001 28c17.333 0 30.833 -6.16699 40.5 -18.5
s14.5 -28.166 14.5 -47.499c0 -48 -21.667 -99 -65 -153c-44.667 -56 -94.334 -93.333 -149.001 -112c53.333 -24.667 96.333 -68.334 129 -131.001c4.66699 -8.66699 30 -69.667 76 -183zM601.998 -125c-1.33301 1.33301 -2.16602 2.33203 -2.49902 2.99902
s-1.16602 1.33398 -2.49902 2.00098c1.33301 0.666992 2.66602 1 3.99902 1s2.66602 0.333008 3.99902 1l-3 -7v0z" />
    <glyph glyph-name="L" unicode="L" horiz-adv-x="479" 
d="M458 254c0 -19.333 -2.83301 -41.9961 -8.5 -67.9961s-13.834 -55 -24.501 -87h1c-9.33301 -26.667 -18.5 -50.167 -27.5 -70.5s-18.167 -38.5 -27.5 -54.5c-23.333 13.333 -61.666 21.666 -114.999 24.999c-30.667 -0.666992 -59 -1 -85 -1h-72
c-17.333 0 -33.166 -0.166992 -47.499 -0.5s-27.5 -0.166016 -39.5 0.500977c8 6 14.667 13.333 20 22s10 19 14 31c6.66699 20.667 10 41.667 10 63v451c-4 35.333 -9.33301 58.666 -16 69.999c-2 4 -11.333 14.333 -28 31h176c-28.667 -29.333 -43 -63.666 -43 -102.999
l-1 -448c0 -12.667 0.5 -23.834 1.5 -33.501s3.16699 -17.834 6.5 -24.501c8.66699 -22 28.667 -33 60 -33c15.333 0 35 4.66699 59 14c26 11.333 49.833 25.166 71.5 41.499s40.167 35.833 55.5 58.5c14.667 21.333 26.167 42.666 34.5 63.999s12.5 41.333 12.5 60
c0 34.667 -13.667 65 -41 91c-24.667 22.667 -53.667 34 -87 34c-26.667 0 -49.334 -7.33301 -68.001 -22h1c-23.333 -17.333 -35 -39.333 -35 -66c0 -10.667 3.33301 -22.334 10 -35.001c7.33301 -15.333 18 -23 32 -23h4.5c1.66699 0 3.16699 0.333008 4.5 1
c34 14.667 56.667 22 68 22c6.66699 0 11.5 -3.83301 14.5 -11.5s4.5 -15.167 4.5 -22.5c0 -14.667 -8.33301 -26.667 -25 -36c-15.333 -9.33301 -27 -14 -35 -14c-23.333 0 -40 4 -50 12c-28.667 24 -43 57 -43 99c0 34 12 61.667 36 83c25.333 23.333 52 35 80 35
c19.333 0 37.833 -4.33301 55.5 -13s33.5 -20.667 47.5 -36c26 -31.333 39 -66.666 39 -105.999z" />
    <glyph glyph-name="M" unicode="M" horiz-adv-x="640" 
d="M471 0c1.33301 1.33301 3.33203 3.66992 5.99902 7.00293s5.66699 7.33301 9 12c13.333 18.667 20 37.334 20 56.001v11c0 3.33301 -0.333008 6.66602 -1 9.99902l-71 394h-16l-52 -194.5l-72 -262.5v1l-138 429h-16l-12.5 -76
c-3.66699 -22.667 -7.16699 -42.667 -10.5 -60c-3.33301 -20 -5.83301 -36.333 -7.5 -49s-3.16699 -21.667 -4.5 -27c-12 -84 -19 -155 -21 -213c1.33301 -8 2.5 -16.5 3.5 -25.5s2.16699 -17.5 3.5 -25.5l4 -26l4 -25c6 -20.667 14.333 -39.334 25 -56.001
s25 -32.334 43 -47.001l-27.5 -12c-7.66699 -3.33301 -12.167 -5 -13.5 -5c-41.333 0 -72.666 15.667 -93.999 47c-18 24.667 -27 56.667 -27 96c0 36.667 19.667 146.334 59 329.001l44.5 208c10.333 47.333 15.5 73.666 15.5 78.999c0 15.333 -8 34.333 -24 57
c-4.66699 5.33301 -9 11 -13 17l-13 19h182c-24 -30 -35.667 -58 -35 -84c2.66699 -39.333 35.334 -158.333 98.001 -357l90 359c0 22 -3.33301 38.667 -10 50s-13.667 21.666 -21 30.999v-1l-1 2h163c-13.333 -12 -23.333 -24.5 -30 -37.5s-9.33398 -25.833 -8.00098 -38.5
c10 -86.667 22 -171.5 36 -254.5s28.667 -160.833 44 -233.5c4.66699 -20 10 -37.833 16 -53.5s13 -27.167 21 -34.5c3.33301 -2 6.83301 -4.33301 10.5 -7l11.5 -8z" />
    <glyph glyph-name="N" unicode="N" horiz-adv-x="574" 
d="M526 604c0 -7.33301 -5.66406 -28.6641 -16.9971 -63.9971h1c-16 -42.667 -25 -69.334 -27 -80.001c-8 -37.333 -12 -118.333 -12 -243c0 -40 0.166992 -73 0.5 -99s0.833008 -43.667 1.5 -53c0 -1.33301 0.166992 -2.33301 0.5 -3s0.5 -1.66699 0.5 -3
c0.666992 -5.33301 1.16699 -11.666 1.5 -18.999s1.16602 -15 2.49902 -23c0.666992 -2.66699 1.66699 -5.33398 3 -8.00098s2.66602 -5.66699 3.99902 -9h-40l-34 53l-46 72l-46 75.5l-63.5 102l-77 123l-87.5 139.5v-64l-2 -246c0 -20 0.833008 -40.167 2.5 -60.5
s4.16699 -40.5 7.5 -60.5c2.66699 -17.333 7.66699 -37.5 15 -60.5s17.666 -47.167 30.999 -72.5h-116c5.33301 17.333 10.5 35.166 15.5 53.499l16.5 62.5c0.666992 5.33301 1.66699 18.833 3 40.5s2.66602 50.5 3.99902 86.5v351c0 2 -4.16699 9.16699 -12.5 21.5
l-35.5 50.5h205c-19.333 -34 -29 -54.667 -29 -62c0 -10 3.83301 -24.333 11.5 -43s19.834 -42 36.501 -70l34.5 -58.5l49 -80l60 -95.5l67.5 -106l-1 178c0 19.333 -1 42.5 -3 69.5s-5.33301 58.5 -10 94.5l-10.5 51.5c-3.66699 18.333 -7.16699 37.166 -10.5 56.499
c0 18 4.66699 35.167 14 51.5s22 24.5 38 24.5c36 0 54 -24.667 54 -74z" />
    <glyph glyph-name="O" unicode="O" horiz-adv-x="649" 
d="M552 271c0 34 -7.33203 68.5 -21.999 103.5s-36 71.167 -64 108.5c-61.333 76.667 -126.333 115 -195 115c-64 0 -114.667 -19 -152 -57c-39.333 -38.667 -59 -87.334 -59 -146.001c0 -32 6.33301 -64.833 19 -98.5s30.667 -66.834 54 -99.501
c24 -32 50.833 -58.167 80.5 -78.5s60.5 -34.166 92.5 -41.499c6 -1.33301 13.667 -2.33301 23 -3s19.666 -1 30.999 -1c60 0 106.667 18.333 140 55c18 19.333 31.167 40.833 39.5 64.5s12.5 49.834 12.5 78.501zM595.001 334
c0 -47.333 -6.16504 -91.3359 -18.498 -132.003s-31.166 -78 -56.499 -112c-28 -37.333 -60 -65.5 -96 -84.5s-75.333 -28.5 -118 -28.5c-78.667 0 -143 25.667 -193 77c-66 66.667 -99 151.334 -99 254.001c0 50.667 6.66699 97.834 20 141.501s33.666 83.167 60.999 118.5
c30 38 64.5 67.5 103.5 88.5s81.5 31.5 127.5 31.5c27.333 0 47.666 -2 60.999 -6s26.666 -9.5 39.999 -16.5s27 -16.167 41 -27.5c25.333 -19.333 46.333 -41.666 63 -66.999c42.667 -66 64 -145 64 -237z" />
    <glyph glyph-name="P" unicode="P" horiz-adv-x="488" 
d="M468 525c0 -48 -20.998 -88.9971 -62.998 -122.997c-3.33301 -3.33301 -15 -10.833 -35 -22.5l-85 -48.5c-46.667 -26.667 -70 -53.334 -70 -80.001c0 -19.333 13.667 -40 41 -62c24 -18.667 36 -35.667 36 -51c0 -19.333 -10.333 -29 -31 -29
c-23.333 0 -41 12.667 -53 38c-9.33301 18.667 -14 39.334 -14 62.001c0 42.667 13 82.667 39 120c2.66699 4 7.66699 9.66699 15 17l31 36l31 36c28.667 36 43 69 43 99c0 41.333 -20.667 73.666 -62 96.999c-30 16 -64.333 24 -103 24c-8.66699 0 -25.334 -5 -50.001 -15
v-535c0 -15.333 2.83301 -30.5 8.5 -45.5s13.5 -28.833 23.5 -41.5h-146c20.667 25.333 31 52.666 31 81.999v417c0 11.333 -1 22.666 -3 33.999s-5.33301 22.666 -10 33.999h1c-7.33301 24.667 -20.333 42.667 -39 54c15.333 4 32.5 8.83301 51.5 14.5l76.5 22.5
c58 18 104.333 27 139 27c49.333 0 93.666 -14.333 132.999 -43c42.667 -29.333 64 -68.666 64 -117.999z" />
    <glyph glyph-name="Q" unicode="Q" horiz-adv-x="642" 
d="M542 392c0 56.667 -18.001 104.666 -54.001 143.999c-17.333 18.667 -37.666 33 -60.999 43s-49.666 15 -78.999 15c-44 0 -84.333 -8.33301 -121 -25s-69.334 -40.667 -98.001 -72c-25.333 -31.333 -45.333 -66 -60 -104s-22 -78 -22 -120
c0 -21.333 4.16699 -43.166 12.5 -65.499s20.166 -44.166 35.499 -65.499c34 -46 74.333 -69 121 -69c13.333 0 21.333 4.33301 24 13c-22 58.667 -33 101 -33 127c0 20.667 4 40.667 12 60c10 24.667 22 37 36 37c23.333 0 35 -17.333 35 -52c0 -8 -1.5 -18.333 -4.5 -31
s-7.16699 -26.334 -12.5 -41.001c-5.33301 -14 -9.83301 -27.833 -13.5 -41.5s-5.5 -24.167 -5.5 -31.5c0 -5.33301 2.33301 -11.833 7 -19.5s10.334 -11.5 17.001 -11.5c71.333 0 134 35.333 188 106c50.667 66.667 76 134.667 76 204zM583.999 333.999
c0 -153.333 -52.6699 -261.002 -158.003 -323.002h1l-11.5 -4.5c-4.33301 -1.66699 -9.83301 -3.16699 -16.5 -4.5c-7.33301 -1.33301 -14.5 -3.16602 -21.5 -5.49902s-13.167 -4.16602 -18.5 -5.49902c39.333 -43.333 102 -79.666 188 -108.999
c-4.66699 -1.33301 -9.5 -2.33301 -14.5 -3s-10.5 -1 -16.5 -1v-8c0.666992 0 -1.16602 1.16699 -5.49902 3.5s-10.166 3.16602 -17.499 2.49902c-32.667 -2.66699 -63.834 -7 -93.501 -13s-57.167 -13.667 -82.5 -23l-40.5 -15.5l-40.5 -15.5
c-16.667 -6 -32 -10.833 -46 -14.5s-25 -5.5 -33 -5.5c-6 0 -10.667 0.333008 -14 1c-34 8 -61 20.667 -81 38s-37 43 -51 77v-1c-2.66699 6.66699 -4.66699 12.167 -6 16.5l-4 12.5l1 -1c6.66699 -5.33301 13.167 -10.166 19.5 -14.499l19.5 -13.5
c24 -16 47.333 -24 70 -24h24c6.66699 0 11.334 0.333008 14.001 1c29.333 5.33301 60.833 11.666 94.5 18.999s65.167 13.666 94.5 18.999l81 -7l5 8c-8.66699 2.66699 -25.334 14.334 -50.001 35.001c-13.333 11.333 -24 19.666 -32 24.999s-13.667 8 -17 8
c-4 0 -9.33301 -0.666992 -16 -2h1c-3.33301 -0.666992 -5.83301 -1 -7.5 -1h-4.5c-43.333 0 -87.333 11 -132 33c-39.333 18.667 -76.666 62.667 -111.999 132c-31.333 64 -47 121.667 -47 173c0 103.333 25 187.333 75 252c54 74 129 111 225 111
c48.667 0 97.334 -20.333 146.001 -61c46 -38 78.333 -82 97 -132c11.333 -30 19.833 -58.167 25.5 -84.5s8.5 -51.166 8.5 -74.499z" />
    <glyph glyph-name="R" unicode="R" horiz-adv-x="573" 
d="M48 531c0.666992 0 1.66699 -0.666992 3 -2zM586 -164c3.33301 -0.666992 8 -1 14 -1l-6 -7zM413 492c0 48 -20.998 86.6689 -62.998 116.002c-34.667 22.667 -75 34 -121 34c-4 0 -8 -0.333008 -12 -1c-3.33301 -0.666992 -7 -1.16699 -11 -1.5s-8 -0.833008 -12 -1.5
c-1.33301 0 -2.5 -0.166992 -3.5 -0.5s-2.16699 -0.5 -3.5 -0.5c-26.667 -2.66699 -43 -7 -49 -13v-278c53.333 0 90.666 1 111.999 3c23.333 2.66699 45 8 65 16s37.167 18.167 51.5 30.5s25.666 26.666 33.999 42.999s12.5 34.166 12.5 53.499zM541.002 -108.998
c3.33301 -6.66699 7.33301 -13.332 12 -19.999s10.667 -13.334 18 -20.001l15 -15c-17.333 0.666992 -33.333 4.33398 -48 11.001c-52.667 20 -95 67.667 -127 143l1 -1c-9.33301 29.333 -19.166 58.333 -29.499 87l-30.5 87h1l-15.5 44.5l-15.5 45.5
c-7.33301 18 -17 32.667 -29 44s-25.667 18.333 -41 21c-5.33301 1.33301 -12.333 2 -21 2s-17 -0.333008 -25 -1c-9.33301 -0.666992 -20.5 -1 -33.5 -1s-23.5 0.666992 -31.5 2l-3 -216c0 -13.333 4.16699 -28.666 12.5 -45.999s21.5 -36.333 39.5 -57h-178
c15.333 16 26.5 32.5 33.5 49.5s10.833 35.833 11.5 56.5c0.666992 70.667 1 132 1 184v131c0 32 -0.333008 56.833 -1 74.5s-2.66699 28.5 -6 32.5l6 -2c-1.33301 28 -1.66602 41.667 -0.999023 41c-3.33301 9.33301 -8.83301 18.833 -16.5 28.5
s-18.167 19.834 -31.5 30.501l2 3c3.33301 1.33301 6.16602 2.16602 8.49902 2.49902s5.83301 1.16602 10.5 2.49902l50 12.5l64 16.5c25.333 5.33301 51.333 9.33301 78 12s54 4 82 4c49.333 0 94.666 -12.667 135.999 -38c46 -28 69 -67.333 69 -118
c0 -54.667 -23 -99 -69 -133c-7.33301 -5.33301 -21.5 -13 -42.5 -23l-83.5 -39c21.333 -11.333 41 -27 59 -47s34 -42.667 48 -68c18 -32.667 38.667 -86.334 62 -161.001c25.333 -78 45 -132 59 -162z" />
    <glyph glyph-name="S" unicode="S" horiz-adv-x="566" 
d="M526 192c0 -55.333 -25.001 -104.005 -75.001 -146.005c-24 -19.333 -48.833 -34.333 -74.5 -45s-52.167 -16 -79.5 -16c-12.667 0 -28.667 1.5 -48 4.5s-41.666 7.16699 -66.999 12.5c-24.667 5.33301 -47.834 10 -69.501 14s-38.167 6.33301 -49.5 7
c-3.33301 -0.666992 -7.16602 -1 -11.499 -1h-14.5c-3.33301 0 -5.66602 -0.166992 -6.99902 -0.5s-4 -0.5 -8 -0.5c14.667 20 27.167 38.667 37.5 56s18.166 34 23.499 50c13.333 -17.333 25.833 -32.166 37.5 -44.499s22.167 -22.166 31.5 -29.499
c33.333 -28.667 71.333 -43 114 -43c24 0 46 5 66 15s37.667 24.667 53 44c14 18 25 37.667 33 59s12 42.666 12 63.999c0 73.333 -35.667 130 -107 170c-16 5.33301 -31.167 10.666 -45.5 15.999s-29.166 11.333 -44.499 18l-46.5 17l-46.5 18h1
c-62 26.667 -93 65.334 -93 116.001c0 41.333 17.333 74.666 52 99.999c16 12.667 33.333 22 52 28s38 9 58 9c15.333 0 39 -3 71 -9c32.667 -6 58 -9 76 -9s38 5 60 15c0.666992 -14.667 2.5 -30 5.5 -46s8.16699 -35.333 15.5 -58c-8 4 -13 6.66699 -15 8
s-6.66699 4 -14 8c-18.667 8.66699 -35.667 17.667 -51 27c-18 9.33301 -35.667 16 -53 20s-33.666 6 -48.999 6c-32.667 0 -60.5 -8.83301 -83.5 -26.5s-34.5 -42.167 -34.5 -73.5c0 -11.333 2.66699 -22.333 8 -33s13 -21.667 23 -33c8 -8 16.833 -15.667 26.5 -23
s20.167 -13.666 31.5 -18.999c5.33301 -2 11.5 -4.16699 18.5 -6.5s16.167 -5.16602 27.5 -8.49902c7.33301 -1.33301 13.666 -2.66602 18.999 -3.99902s9.66602 -2.66602 12.999 -3.99902h-1c4.66699 -2 8.66699 -3 12 -3c32 -11.333 60.333 -23.166 85 -35.499
s45 -25.5 61 -39.5c42.667 -36.667 64 -85 64 -145z" />
    <glyph glyph-name="T" unicode="T" horiz-adv-x="477" 
d="M450 538c-2.66699 6 -5 12.667 -7 20l10.5 -8l11.5 -8zM402 677c4 -15.333 9.49512 -32.3369 16.4951 -51.0039l24.5 -68l-23.5 17.5l-22.5 16.5c-37.333 26 -63.333 39 -78 39c-23.333 0 -38.666 -9.66699 -45.999 -29c-1.33301 -3.33301 -2.33301 -6.5 -3 -9.5
s-1.33398 -6.16699 -2.00098 -9.5c-1.33301 -3.33301 -2.16602 -6.66602 -2.49902 -9.99902s-0.833008 -6.66602 -1.5 -9.99902v-466c-1.33301 -15.333 1.83398 -31.5 9.50098 -48.5s18.167 -32.833 31.5 -47.5c-28 0 -53.167 -0.166992 -75.5 -0.5s-46.833 -0.5 -73.5 -0.5
c23.333 23.333 34.333 55.666 33 96.999c0 42 0.166992 81.5 0.5 118.5s0.5 71.833 0.5 104.5c0 52.667 -0.166992 100.334 -0.5 143.001s-1.16602 77 -2.49902 103c-1.33301 19.333 -5.16602 34.5 -11.499 45.5s-15.166 16.5 -26.499 16.5
c-19.333 0 -47.666 -14.333 -84.999 -43c-8 -6 -16 -12.5 -24 -19.5s-16.333 -13.5 -25 -19.5c4 10 7.5 21.333 10.5 34s6.16699 27 9.5 43c1.33301 8.66699 3 17.834 5 27.501s3.66699 18.834 5 27.501c10 -5.33301 20 -8.66602 30 -9.99902s20.333 -1.33301 31 0h230
c11.333 0 22.666 0.666992 33.999 2s22 3.66602 32 6.99902z" />
    <glyph glyph-name="U" unicode="U" horiz-adv-x="579" 
d="M517 450c0 -65.333 -0.339844 -98.666 -1.00684 -99.999c0 -0.666992 -0.166992 -5.16699 -0.5 -13.5s-1.16602 -19.166 -2.49902 -32.499c-3.33301 -35.333 -11.166 -70.666 -23.499 -105.999s-27.833 -68 -46.5 -98c-23.333 -34.667 -49.166 -61.334 -77.499 -80.001
s-58.5 -28 -90.5 -28c-32.667 0 -65.334 10 -98.001 30c-31.333 19.333 -57 44.666 -77 75.999c-18 32 -32.333 69.333 -43 112s-16 89.667 -16 141c0 20.667 1 43.167 3 67.5s5.33301 50.5 10 78.5c8 54.667 12 86 12 94s-5.33301 21 -16 39
c-3.33301 6 -7.16602 12.333 -11.499 19s-8.83301 12.667 -13.5 18h185c-62 -65.333 -93 -168 -93 -308c0 -74 11.667 -136.333 35 -187c30.667 -68.667 80.334 -103 149.001 -103c32.667 0 61.834 7 87.501 21s46.834 33.667 63.501 59c28 45.333 42 101.333 42 168
c0 73.333 -22 145.666 -66 216.999l-25.5 39.5c-6.33301 9.66699 -10.166 16.167 -11.499 19.5c-12 22.667 -18 43 -18 61c0 13.333 4 24.5 12 33.5s18 13.5 30 13.5c29.333 0 55 -33.333 77 -100c16.667 -52 25 -102.333 25 -151z" />
    <glyph glyph-name="V" unicode="V" horiz-adv-x="543" 
d="M496 605c0 -23.333 -6.16797 -57.3311 -18.501 -101.998s-28.833 -95.334 -49.5 -152.001l-29.5 -77l-29.5 -77l-21 -57v1l-15.5 -34l-14.5 -34c-1.33301 -20.667 7 -38.667 25 -54l12.5 -10c4.33301 -3.33301 9.16602 -6.66602 14.499 -9.99902h-186
c30.667 18 46 39 46 63c0 3.33301 -0.666992 7.66602 -2 12.999l-96.5 310.5l-63.5 197.5c-1.33301 4 -4.66602 10.333 -9.99902 19s-11.666 18 -18.999 28l-17 21l-14 17h173c-18.667 -22.667 -28 -45.334 -28 -68.001c0 -4.66699 1.66699 -14.334 5 -29.001
s7.83301 -32.834 13.5 -54.501s12.5 -46 20.5 -73l26 -84.5c20 -66 37 -120 51 -162s24.667 -70.667 32 -86c18 6 41.667 60 71 162c30 100.667 45 163.334 45 188.001c0 24 -4.33301 54.667 -13 92c-8.66699 38.667 -13 62.334 -13 71.001c0 18.667 4 34.667 12 48
c9.33301 17.333 22.333 26 39 26c18.667 0 33 -12.667 43 -38c3.33301 -9.33301 6 -18.333 8 -27s3 -18 3 -28z" />
    <glyph glyph-name="W" unicode="W" horiz-adv-x="706" 
d="M662 624c0 -13.333 -1.83203 -30.502 -5.49902 -51.502s-9.16699 -43.833 -16.5 -68.5c-4.66699 -16.667 -11.334 -42.834 -20.001 -78.501l-33 -138.5l-33 -144c-8 -35.333 -12.667 -58.666 -14 -69.999c-0.666992 -2 -1 -4.66699 -1 -8v-8c0 -20 11 -39 33 -57h-95
c-23.333 0 -41 0.333008 -53 1c2 2.66699 4.5 5.5 7.5 8.5l9.5 9.5c10 8.66699 15 20 15 34v8.5c0 3.66699 -0.333008 6.83398 -1 9.50098c0 1.33301 -0.166992 2.16602 -0.5 2.49902s-0.5 1.16602 -0.5 2.49902c-6 30 -33.333 125 -82 285
c-69.333 -190 -104 -289.333 -104 -298c0 -9.33301 5.16699 -19.5 15.5 -30.5s21.166 -21.5 32.499 -31.5l1 -1c-29.333 0 -57.666 0.333008 -84.999 1s-54.666 1 -81.999 1c26 18.667 39 37.667 39 57c0 26 -10 82.333 -30 169s-51 204.334 -93 353.001l-9.5 24.5
c-3 7.66699 -5.16699 12.5 -6.5 14.5c-8.66699 16.667 -20.334 33.334 -35.001 50.001c30.667 0 59 -0.166992 85 -0.5s53.667 -0.5 83 -0.5c-10.667 -11.333 -18.167 -24 -22.5 -38s-6.5 -30.667 -6.5 -50c0 -26.667 5 -59.334 15 -98.001c3.33301 -16 7 -32.167 11 -48.5
s7.66699 -32.166 11 -47.499l19 -75c8 -34 16 -64.833 24 -92.5s16.333 -51.5 25 -71.5c15.333 6 42 74 80 204l33.5 112l19.5 65l131 -424c48 192 72 309.333 72 352c0 18 -1.33301 36.167 -4 54.5s-6.66699 36.166 -12 53.499c-5.33301 18.667 -9.33301 33.334 -12 44.001
s-4 17 -4 19c0 10 1.33301 19.333 4 28s5.66699 16.334 9 23.001c10 15.333 22.667 23 38 23c32 0 48 -26 48 -78z" />
    <glyph glyph-name="X" unicode="X" horiz-adv-x="597" 
d="M334 0c0.666992 2 3.33008 6.33203 7.99707 12.999c1.33301 1.33301 2.33301 2.66602 3 3.99902c8.66699 12.667 13 24.667 13 36c0 10.667 -2.66699 22.667 -8 36h1c-4 11.333 -9.33301 25.333 -16 42s-14 34 -22 52c-10 24 -19.5 44.333 -28.5 61s-17.5 29 -25.5 37
l-38.5 -63c-11 -18.667 -18.833 -32.334 -23.5 -41.001c-10 -19.333 -17.167 -36.833 -21.5 -52.5s-6.16602 -29.167 -5.49902 -40.5c1.33301 -27.333 5 -44.666 11 -51.999c2.66699 -3.33301 5.16699 -6.66602 7.5 -9.99902s4.83301 -6.66602 7.5 -9.99902
c4 -5.33301 7.33301 -9.33301 10 -12h-179c8 7.33301 18.167 17.666 30.5 30.999s26.833 30 43.5 50c11.333 15.333 24.666 34.333 39.999 57l51 77c38 58.667 57 90.334 57 95.001c0 4 -5 15.833 -15 35.5l-45 86.5l-50.5 90c-14.333 24.667 -26.833 44.667 -37.5 60
l-21 31c-5.33301 8 -9 13 -11 15h1c-6 6 -12.5 12.167 -19.5 18.5l-22.5 19.5h207c-14.667 -12 -22 -30.333 -22 -55c0 -11.333 1 -20.333 3 -27c-1.33301 1.33301 -0.166016 -1.83398 3.50098 -9.50098s7.5 -15.167 11.5 -22.5c3.33301 -6 7.33301 -14 12 -24l15 -31
c21.333 -46.667 37 -75 47 -85l15 24c8.66699 14.667 17.5 33.5 26.5 56.5s18.167 49.833 27.5 80.5c8.66699 25.333 16.5 46.5 23.5 63.5s13.833 29.167 20.5 36.5c14.667 18 30.334 27 47.001 27c30 0 45 -17.667 45 -53c0 -29.333 -16 -64 -48 -104
c-8 -10.667 -19.5 -24 -34.5 -40l-54.5 -57c-34.667 -34.667 -52 -56 -52 -64c0 -1.33301 20.333 -44.333 61 -129l45.5 -93c13 -26 23.167 -45.333 30.5 -58c10 -18 21.333 -36.167 34 -54.5s26.334 -34.166 41.001 -47.499h-199z" />
    <glyph glyph-name="Y" unicode="Y" horiz-adv-x="603" 
d="M207 667c6 6.66699 10.5 9.5 13.5 8.5s4.5 -3.83301 4.5 -8.5h-18zM540 521c0 -32 -2.33398 -67.167 -7.00098 -105.5s-11.334 -77.833 -20.001 -118.5c-15.333 -62 -27 -104.667 -35 -128c-11.333 -30.667 -25.166 -61.667 -41.499 -93s-33.166 -60 -50.499 -86
c-26 -40 -53 -73.5 -81 -100.5s-57 -47.833 -87 -62.5c-29.333 -14.667 -55.666 -22 -78.999 -22c-14.667 0 -28 3.33301 -40 10c-12.667 7.33301 -19 19.333 -19 36c0 34.667 22 52 66 52h11c5.33301 0 10 0.333008 14 1c3.33301 0 6.33301 0.166992 9 0.5s6 0.5 10 0.5
c4.66699 0 9 0.166992 13 0.5s7.66699 0.5 11 0.5c5.33301 0.666992 9.83301 1 13.5 1h8.5c11.333 0.666992 23 3.83398 35 9.50098s24.667 13.5 38 23.5c29.333 23.333 46 45.333 50 66c-70.667 47.333 -130.667 108.333 -180 183h1c-23.333 35.333 -42.5 73.333 -57.5 114
s-26.167 80.667 -33.5 120c-2.66699 17.333 -6.33398 40 -11.001 68s-10.667 61.333 -18 100c-5.33301 21.333 -16.333 46.666 -33 75.999h180c-3.33301 -3.33301 -6.66602 -8.16602 -9.99902 -14.499l-12 -23.5c-8 -15.333 -13.833 -30.333 -17.5 -45
s-5.5 -28.334 -5.5 -41.001c0 -82 19.333 -165.667 58 -251c46 -100 109.667 -164.667 191 -194c10 15.333 19.333 33.5 28 54.5s16.667 45.167 24 72.5c12 48 18 89.333 18 124c0 65.333 -10.333 122 -31 170l-13.5 30l-13.5 32v-1c-10 24 -15 41.667 -15 53
c0 17.333 5.83301 31.5 17.5 42.5s25.5 16.5 41.5 16.5c13.333 0 25.166 -6 35.499 -18s18.833 -29 25.5 -51c8 -29.333 12 -63.333 12 -102z" />
    <glyph glyph-name="Z" unicode="Z" horiz-adv-x="582" 
d="M534 225c0 -18 -3.00293 -38.334 -9.00293 -61.001s-14.667 -48.667 -26 -78c-10.667 -25.333 -21.167 -47.666 -31.5 -66.999s-20.166 -36 -29.499 -50c-26 21.333 -56.667 31.333 -92 30h-341c114 186.667 199 330.167 255 430.5s84 157.833 84 172.5
c0 30.667 -17.667 46 -53 46c-21.333 0 -47.666 -7.33301 -78.999 -22c-23.333 -11.333 -46 -25.5 -68 -42.5s-43.667 -37.5 -65 -61.5l7.5 44c2.33301 13.333 4.83301 26.333 7.5 39s5.16699 25.667 7.5 39s5.16602 27.666 8.49902 42.999c4 -3.33301 8.66699 -6 14 -8
c16.667 -8 32.334 -12 47.001 -12c54 0 108.333 0.166992 163 0.5s109 0.5 163 0.5l-63 -110.5l-77 -131.5l-50.5 -80.5l-61.5 -105.5c-25.333 -44 -45.166 -80.5 -59.499 -109.5s-21.5 -46.833 -21.5 -53.5c0 -11.333 2 -20.666 6 -27.999s9.33301 -13.333 16 -18
c8.66699 -6 25 -9 49 -9c27.333 0 55.166 5.16699 83.499 15.5s58.5 26.166 90.5 47.499c72 50 108 103.667 108 161c0 12 -2.16699 23.667 -6.5 35s-10.166 21.166 -17.499 29.499s-16 15 -26 20s-20.667 7.5 -32 7.5s-24 -4.33301 -38 -13
c-7.33301 -5.33301 -13.333 -11 -18 -17s-7 -11.667 -7 -17c0 -10 9 -20 27 -30c14 -7.33301 21 -15.333 21 -24c0 -9.33301 -3 -16.666 -9 -21.999s-12 -8 -18 -8c-11.333 0 -22.333 8 -33 24c-8.66699 11.333 -13 23.333 -13 36c0 26.667 10.333 49.334 31 68.001
c21.333 17.333 41.333 26 60 26c32.667 0 58 -17.333 76 -52c13.333 -26.667 20 -54.667 20 -84z" />
    <glyph glyph-name="bracketleft" unicode="[" horiz-adv-x="277" 
d="M147 -81h142v-28h-215v831h215v-29h-142v-774z" />
    <glyph glyph-name="backslash" unicode="\" horiz-adv-x="571" 
d="M123 737l401 -737h-40l-200.5 369l-201.5 368h41z" />
    <glyph glyph-name="bracketright" unicode="]" horiz-adv-x="340" 
d="M185 694h-141v28h214v-831h-214v29h141v774z" />
    <glyph glyph-name="asciicircum" unicode="^" horiz-adv-x="357" 
d="M265 800l52.5 -43l51.5 -43h-9l-114 47l-56.5 -23.5l-56.5 -23.5h-9l51.5 43l52.5 43h37z" />
    <glyph glyph-name="underscore" unicode="_" horiz-adv-x="467" 
d="M6 -82h488v-54h-488v54z" />
    <glyph glyph-name="grave" unicode="`" horiz-adv-x="331" 
d="M273 490c-10 2.66699 -25 5.83301 -45 9.5l-65 11.5c-32 6 -57.833 12 -77.5 18s-30.834 11.667 -33.501 17l1 -1c-1.33301 4 -2 7 -2 9c0 8.66699 1.83301 18 5.5 28s7.83398 16 12.501 18c4 1.33301 6.66699 2 8 2c14 0 43.667 -12.667 89 -38h-1
c29.333 -17.333 53 -30.833 71 -40.5l41 -21.5zM273 489.999c4 -0.666992 7 -1.33301 9 -2s3.33301 -1 4 -1l-14 -2z" />
    <glyph glyph-name="a" unicode="a" horiz-adv-x="451" 
d="M285 357c0 20 -4.66699 33.833 -14 41.5s-27.333 11.5 -54 11.5c-47.333 0 -82.333 -20.667 -105 -62c-16.667 -30.667 -25 -67 -25 -109s6.33301 -78.667 19 -110c19.333 -47.333 55.333 -71 108 -71c47.333 0 71 8.66699 71 26v273zM285 -1l0.000976562 65.998
c-62 -50 -106 -75 -132 -75c-22.667 0 -43.167 6.83301 -61.5 20.5s-34.166 34.834 -47.499 63.501c-19.333 40 -29 78.333 -29 115c0 48.667 7.66699 89.334 23 122.001c44.667 92 116 138 214 138c6 0 12 -0.166992 18 -0.5s12.667 -0.833008 20 -1.5
s13.666 -1.16699 18.999 -1.5s10.666 -0.5 15.999 -0.5h18.5c5 0 10.167 0.666992 15.5 2v-393c2 -20.667 12.333 -39 31 -55h-105z" />
    <glyph glyph-name="b" unicode="b" horiz-adv-x="464" 
d="M346 206c0 46 -9.00098 85.667 -27.001 119c-25.333 42.667 -65.666 64 -120.999 64c-8.66699 0 -20 -2.33301 -34 -7c-16 -6 -26.333 -11.333 -31 -16v-253c0 -60.667 24 -91 72 -91c34.667 0 66 17 94 51c15.333 18 27 38.5 35 61.5s12 46.833 12 71.5zM414.999 273
c0 -30 -4.50195 -59.666 -13.502 -88.999s-21.833 -58.333 -38.5 -87c-20 -32 -41.333 -56.167 -64 -72.5s-46.667 -24.5 -72 -24.5h-203c7.33301 6 12.5 11.167 15.5 15.5s6.16699 8.16602 9.5 11.499c4 8.66699 6.66699 21.667 8 39c0.666992 5.33301 1 14.666 1 27.999
s-0.333008 26 -1 38l1 411c0 8.66699 -1.66699 18 -5 28s-7.66602 19 -12.999 27c-5.33301 8.66699 -12.666 16.667 -21.999 24c19.333 5.33301 39.333 12.833 60 22.5s39 20.167 55 31.5v-280l19 12.5c8.66699 5.66699 15.667 9.83398 21 12.501
c12.667 6.66699 21.334 11.667 26.001 15c13.333 6.66699 27 11.834 41 15.501s28 5.5 42 5.5c21.333 0 41.166 -5.66699 59.499 -17s33.5 -26 45.5 -44c8.66699 -16.667 15.5 -35.334 20.5 -56.001s7.5 -43 7.5 -67z" />
    <glyph glyph-name="c" unicode="c" horiz-adv-x="381" 
d="M375 86c-3.33301 -1.33301 -6.66602 -2.83301 -9.99902 -4.5s-6.66602 -3.16699 -9.99902 -4.5c1.33301 2.66699 2.66602 5.16699 3.99902 7.5s2.66602 4.83301 3.99902 7.5zM250 58c34.667 0 69.668 6.33203 105.001 18.999c-35.333 -57.333 -88 -86 -158 -86
c-51.333 0 -94.333 27.667 -129 83c-16.667 23.333 -28.834 48.166 -36.501 74.499s-11.5 54.5 -11.5 84.5c0 58.667 17 110 51 154c35.333 50 79.333 75 132 75c26.667 0 50.334 -9.33301 71.001 -28c19.333 -17.333 29 -40.666 29 -69.999c0 -6 -1.5 -12 -4.5 -18
s-6.83301 -11.5 -11.5 -16.5s-9.83398 -9 -15.501 -12s-11.167 -4.5 -16.5 -4.5c-14.667 0 -24.667 8.33301 -30 25c-1.33301 4 -2.16602 8.16699 -2.49902 12.5s-1.16602 8.83301 -2.49902 13.5s-2.33301 8.83398 -3 12.501s-1.33398 8.5 -2.00098 14.5
c-4.66699 20.667 -19.334 31 -44.001 31c-34.667 0 -59.667 -18 -75 -54c-5.33301 -13.333 -9.83301 -27.833 -13.5 -43.5s-5.5 -31.5 -5.5 -47.5c0 -27.333 3.33301 -53 10 -77s17 -46.667 31 -68c32 -49.333 76 -74 132 -74z" />
    <glyph glyph-name="d" unicode="d" horiz-adv-x="457" 
d="M303 343c0 12.667 -14.998 27.667 -44.998 45c-22.667 14 -42.334 21 -59.001 21c-40.667 0 -70.667 -23 -90 -69c-7.33301 -17.333 -12.833 -34.5 -16.5 -51.5s-5.5 -34.167 -5.5 -51.5c0 -23.333 3.16699 -45 9.5 -65s15.5 -39.333 27.5 -58
c29.333 -41.333 70.666 -62 123.999 -62c36.667 0 55 12 55 36v255zM299.002 -1c2.66699 16.667 2.00195 31.001 -1.99805 43.001c-4.66699 -3.33301 -10.834 -7.5 -18.501 -12.5s-13.834 -9.16699 -18.501 -12.5c-4 -3.33301 -8.16699 -6.33301 -12.5 -9
s-8.5 -5.66699 -12.5 -9l1 1c-15.333 -8 -33 -11.667 -53 -11c-52.667 3.33301 -93.667 27.666 -123 72.999c-24 38 -36 82.667 -36 134c0 30.667 6.66699 65.334 20 104.001h-1c8 21.333 16.833 40.5 26.5 57.5s20.834 31.167 33.501 42.5c38.667 36.667 80.667 55 126 55
c21.333 0 46.666 -8.33301 75.999 -25c-0.666992 6.66699 -1.16699 16.167 -1.5 28.5s-0.5 24.166 -0.5 35.499v34.5c0 12.333 0.333008 25.5 1 39.5c-1.33301 6.66699 -2 11.667 -2 15c-0.666992 3.33301 -1 7 -1 11c-4.66699 13.333 -15.667 25.333 -33 36
c38.667 8.66699 74 24.667 106 48v-560c0.666992 -24 4.5 -46 11.5 -66s16.833 -37.667 29.5 -53h-116z" />
    <glyph glyph-name="e" unicode="e" horiz-adv-x="375" 
d="M248 358c0 26.667 -8.00391 46.0029 -24.0039 58.0029c-2 1.33301 -4.66699 2.66602 -8 3.99902s-5.66602 2.66602 -6.99902 3.99902l-10 7c-19.333 1.33301 -37.166 -1.83398 -53.499 -9.50098s-30.166 -19.167 -41.499 -34.5
c-9.33301 -13.333 -16.833 -27.333 -22.5 -42s-8.5 -29 -8.5 -43c0 -38.667 4 -73.334 12 -104.001l46 27l17.5 12.5l18.5 13.5c6.66699 5.33301 14.334 10.833 23.001 16.5s16.667 11.167 24 16.5c22.667 18.667 34 43.334 34 74.001zM98.9961 166.003
c-1.33301 -21.333 15.001 -48.3301 49.001 -80.9971c32.667 -33.333 64.667 -48.333 96 -45c7.33301 0.666992 13.166 1.16699 17.499 1.5s8.16602 0.5 11.499 0.5h7c5.33301 0.666992 11 1.66699 17 3s11 2.66602 15 3.99902c-15.333 -16.667 -33.666 -30.5 -54.999 -41.5
s-41.333 -16.5 -60 -16.5c-28 0 -53.833 7.16699 -77.5 21.5s-44.167 34.5 -61.5 60.5c-14 22 -24.833 45.667 -32.5 71s-11.5 51.666 -11.5 78.999c0 57.333 14.667 108.666 44 153.999c16 26.667 34.5 46.5 55.5 59.5s44.167 20.167 69.5 21.5
c32 0.666992 60.667 -8 86 -26c16.667 -11.333 32 -29.666 46 -54.999l-1 1l9 -18c2.66699 -4.66699 5 -9.33398 7 -14.001z" />
    <glyph glyph-name="f" unicode="f" horiz-adv-x="268" 
d="M222 599c0 -17.333 -4.49805 -30.666 -13.498 -39.999s-20.167 -14 -33.5 -14c-11.333 0 -20.333 5.16699 -27 15.5s-10 20.166 -10 29.499c0 7.33301 3.33301 17.666 10 30.999l7 14c1.33301 2.66699 2.66602 4.66699 3.99902 6l2 2c0 18 -12.667 27 -38 27
c-36.667 0 -55 -17.333 -55 -52c0 -23.333 10.333 -49.333 31 -78c18 -23.333 27.333 -54 28 -92h69v-21h-67v-344c0 -21.333 17 -48.666 51 -81.999h-148c18.667 20.667 31 47.667 37 81v348h-61v18h61c0 6.66699 -0.666992 13.334 -2 20.001l-34 52
c-10.667 15.333 -16 32.666 -16 51.999c0 31.333 10.667 57.666 32 78.999c23.333 23.333 48 35 74 35c27.333 0 50.666 -8.16699 69.999 -24.5s29 -37.166 29 -62.499z" />
    <glyph glyph-name="g" unicode="g" horiz-adv-x="454" 
d="M296 310c0 2.66699 0.166992 6.33301 0.5 11l1 14.5c0.333008 5 0.5 9.66699 0.5 14v9.5c0 42.667 -23.333 64 -70 64c-46 0 -82 -20 -108 -60c-22 -34 -33 -73.667 -33 -119c0 -44 12.667 -85.333 38 -124c28 -41.333 65 -62 111 -62c39.333 0 59 12.333 59 37z
M399 -38.001c0 -28 -6.83594 -52.5 -20.5029 -73.5s-33.167 -38.167 -58.5 -51.5c-21.333 -10 -45.166 -17.833 -71.499 -23.5s-54.5 -8.5 -84.5 -8.5c-26.667 0 -56 7.33301 -88 22c-36 17.333 -54 37.666 -54 60.999c0 10.667 3.33301 19.334 10 26.001s14.667 10 24 10
c20.667 0 44.334 -16.333 71.001 -49c28.667 -35.333 57 -53 85 -53c16 0 31.333 2.33301 46 7s28 11.667 40 21h-1c30 22 45 47 45 75c0 8 -15 51.667 -45 131l-49.5 -33.5c-11.667 -7.66699 -18.167 -11.834 -19.5 -12.501v1c-24 -12 -45.333 -18 -64 -18
c-20 0 -39 6 -57 18s-34.667 29.333 -50 52c-12 19.333 -21.333 40.833 -28 64.5s-10 47.5 -10 71.5c0 82.667 28.333 148 85 196c52.667 43.333 119.334 65 200.001 65c12.667 0 34.334 -3.33301 65.001 -10l-1 -200v-31.5v-42.5c0 -15.333 0.166992 -31.666 0.5 -48.999
s0.5 -34.333 0.5 -51c0.666992 -2 2.16699 -7 4.5 -15s6.16602 -18.667 11.499 -32c9.33301 -24 14 -46.333 14 -67z" />
    <glyph glyph-name="h" unicode="h" horiz-adv-x="480" 
d="M261 0c13.333 12 23.665 25.334 30.998 40.001s12.666 31.667 15.999 51c5.33301 32 9.5 64.5 12.5 97.5s4.5 66.833 4.5 101.5c0 72 -29 108 -87 108c-4.66699 0 -11.5 -1.16699 -20.5 -3.5s-20.5 -5.16602 -34.5 -8.49902c-32 -8 -51.667 -16 -59 -24v-260
c3.33301 -42.667 19.666 -76.667 48.999 -102h-158c24.667 30.667 37 64.667 37 102l-1 430c0 26 -1.66699 45 -5 57c-3.33301 10.667 -8.16602 20.667 -14.499 30s-15.166 17.666 -26.499 24.999c2.66699 1.33301 7.83398 3.5 15.501 6.5l33.5 12.5l9 3
c11.333 4.66699 21.833 9.33398 31.5 14.001s18.834 9.66699 27.501 15v-316c73.333 53.333 138 80 194 80c32 0 56.333 -12.333 73 -37c6.66699 -11.333 11.5 -24.333 14.5 -39s3.83301 -30.667 2.5 -48c-3.33301 -38 -6.5 -76.333 -9.5 -115s-6.16699 -77 -9.5 -115
c-0.666992 -10.667 -0.5 -21.334 0.5 -32.001s3.5 -20.667 7.5 -30v2c2 -6 4.83301 -11.833 8.5 -17.5s7.5 -10.834 11.5 -15.501l5 -6.5c1.33301 -1.66699 2.33301 -3.5 3 -5.5h-162z" />
    <glyph glyph-name="i" unicode="i" horiz-adv-x="220" 
d="M147 576c0 -15.333 -4.83398 -27.832 -14.501 -37.499s-21.5 -14.5 -35.5 -14.5c-13.333 0 -24.666 5 -33.999 15s-14 22.667 -14 38c0 13.333 5.16699 25.166 15.5 35.499s21.5 15.5 33.5 15.5s23.167 -5.33301 33.5 -16s15.5 -22.667 15.5 -36zM33.999 0.000976562
c5.33301 5.33301 9.99805 11.001 13.998 17.001c7.33301 10 13 21.167 17 33.5s6.33301 24.166 7 35.499v170c0 65.333 -1.33301 103 -4 113c-2 8 -11.333 20.333 -28 37c-1.33301 1.33301 -3.16602 2.83301 -5.49902 4.5s-4.16602 3.16699 -5.49902 4.5h1
c-1.33301 1.33301 -2.83301 2.5 -4.5 3.5s-3.16699 2.16699 -4.5 3.5c14 2 27.167 4.66699 39.5 8s23.5 7 33.5 11c12 7.33301 27.333 15.333 46 24v-377c0 -32.667 13.333 -62 40 -88h-146z" />
    <glyph glyph-name="j" unicode="j" horiz-adv-x="221" 
d="M145 576c0 -14 -4.50098 -25.5 -13.501 -34.5s-19.167 -13.5 -30.5 -13.5s-21.333 5.66699 -30 17s-13 23.666 -13 36.999c0 11.333 4 22.5 12 33.5s17 16.5 27 16.5h7c8.66699 0 18.334 -7.33301 29.001 -22c8 -11.333 12 -22.666 12 -33.999zM141.999 -60
c0 -29.333 -13.3311 -59.001 -39.998 -89.001c-22 -24 -38.333 -36 -49 -36c-2.66699 -0.666992 -4.83398 -1.16699 -6.50098 -1.5l-7.5 -1.5c18 25.333 28.333 47 31 65c0.666992 3.33301 1 9.83301 1 19.5v37.5c-0.666992 64 -1 119.333 -1 166v118
c0 61.333 0.666992 92 2 92l-10 53c-2 7.33301 -6.33301 15.333 -13 24s-14.667 16.667 -24 24l66 33l50 26c-0.666992 -6.66699 -0.833984 -12.667 -0.500977 -18s0.833008 -14.666 1.5 -27.999v-484z" />
    <glyph glyph-name="k" unicode="k" horiz-adv-x="460" 
d="M439 -186l1.00098 0.000976562c-28 -1.33301 -59.667 23.667 -95 75c-11.333 17.333 -24 39.5 -38 66.5s-28.667 58.833 -44 95.5v-1l-28.5 70l-28.5 69l-74 -17v-87c0 -28 14.333 -56.333 43 -85h-142c19.333 23.333 29 54.666 29 93.999v460
c0 18.667 -8.33301 38.667 -25 60l-15.5 15c-5 4.66699 -9.5 9.66699 -13.5 15c19.333 4.66699 39.333 11.834 60 21.501s42 21.167 64 34.5v-504c65.333 13.333 109.333 28.666 132 45.999h-1c28.667 20.667 43 50 43 88c0 11.333 -2 25 -6 41
c-1.33301 8 -2.5 15.667 -3.5 23s-1.5 13 -1.5 17c0 13.333 5.5 24.333 16.5 33s23.5 13 37.5 13c16 0 28.667 -6.16699 38 -18.5s14 -27.5 14 -45.5c0 -38 -12 -71 -36 -99h1l-25.5 -25l-25.5 -24c-4.66699 -4 -9.5 -8.5 -14.5 -13.5s-10.167 -9.83301 -15.5 -14.5
l43.5 -109l41.5 -109c19.333 -45.333 37.666 -83.333 54.999 -114s34.333 -53.667 51 -69z" />
    <glyph glyph-name="l" unicode="l" horiz-adv-x="210" 
d="M18 0c23.333 17.333 36.0029 50.334 38.0029 99.001v428c3.33301 0 4.66602 1 3.99902 3s-1 5 -1 9c0 16.667 -2.66699 35 -8 55c-6.66699 20.667 -16.334 36 -29.001 46l45 22c18.667 9.33301 39.667 20.666 63 33.999v-596c1.33301 -26 14.666 -59.667 39.999 -101z
" />
    <glyph glyph-name="m" unicode="m" horiz-adv-x="735" 
d="M534 0c8.66699 19.333 19.001 51.667 31.001 97c2 13.333 3.5 29 4.5 47s1.83301 38.667 2.5 62c0.666992 26 1.33398 47.833 2.00098 65.5s1.66699 31.5 3 41.5c2 24 -7.33301 45.333 -28 64c-18 16 -37.667 24 -59 24c-19.333 0 -42 -4.66699 -68 -14
c-12 -4 -22.833 -8.5 -32.5 -13.5s-15.5 -9.5 -17.5 -13.5l1 -259c0.666992 -17.333 3.83398 -34.666 9.50098 -51.999s13.167 -34 22.5 -50c-23.333 0 -44.833 0.166992 -64.5 0.5s-40.834 0.5 -63.501 0.5c20.667 28.667 31 61.334 31 98.001v204
c2 59.333 -28.667 89 -92 89c-21.333 0 -54.333 -11.667 -99 -35v-253c0 -27.333 2.33301 -46.666 7 -57.999h-1c0.666992 -2.66699 9.33398 -17.334 26.001 -44.001h-142c5.33301 11.333 11 25.5 17 42.5l20 56.5v248c-2 8.66699 -4 16 -6 22s-4.5 11.333 -7.5 16
s-6.66699 9 -11 13s-9.83301 8.66699 -16.5 14l26 10c4 1.33301 8 2.83301 12 4.5l11 4.5h-1c9.33301 4 19.166 8.66699 29.499 14s21.166 12 32.499 20v-27c1.33301 -10.667 2 -21.834 2 -33.501v-22.5c12.667 9.33301 28 18 46 26s37.667 15.667 59 23
c18 5.33301 35.333 10.166 52 14.499s28.667 6.5 36 6.5c15.333 0 26.666 -2 33.999 -6c8 -6 20.667 -22 38 -48c68 38 129.333 57 184 57c32 0 56 -13.333 72 -40c8 -11.333 13.167 -24.5 15.5 -39.5s2.83301 -31.167 1.5 -48.5c-2.66699 -38 -5.5 -76.167 -8.5 -114.5
s-6.16699 -76.5 -9.5 -114.5c-0.666992 -2 -1 -4.66699 -1 -8v-8c0 -27.333 10 -55 30 -83h-130z" />
    <glyph glyph-name="n" unicode="n" horiz-adv-x="497" 
d="M275 -1c20 25.333 34.499 62.998 43.499 112.998s13.5 113.333 13.5 190c0 32 -4.33301 55.667 -13 71c-12 22 -34.667 33 -68 33c-11.333 0 -51 -10.667 -119 -32v-279c0 -31.333 15 -63 45 -95h-156c13.333 10 23 23 29 39s9 35.667 9 59v245c0 34 -15 61.667 -45 83
c23.333 6.66699 45 13.834 65 21.501s37 16.167 51 25.5v-68c110.667 40 171.667 60 183 60c36.667 0 63 -11 79 -33c12 -17.333 18 -47.666 18 -90.999c0 -32 -3 -72.333 -9 -121l-6 -61c-2 -20 -4.33301 -40.333 -7 -61c-2 -18 1 -37.667 9 -59
c6.66699 -17.333 15.334 -30.333 26.001 -39z" />
    <glyph glyph-name="o" unicode="o" horiz-adv-x="509" 
d="M405 177c0 40 -19.668 85.333 -59.001 136c-41.333 50.667 -83.666 76 -126.999 76c-102 0 -153 -42.333 -153 -127c0 -49.333 23.667 -95.666 71 -138.999c46 -42 95.667 -63 149 -63c16.667 0 32.167 3 46.5 9s26.833 14.167 37.5 24.5s19.167 22.666 25.5 36.999
s9.5 29.833 9.5 46.5zM443.999 236c0 -30.667 -5.33301 -60.499 -16 -89.499s-26 -55.167 -46 -78.5c-46 -51.333 -98 -77 -156 -77c-25.333 0 -50.333 6 -75 18s-47.667 29 -69 51c-41.333 46.667 -62 97.667 -62 153c0 64 19 120 57 168v-1c42 52 92 78 150 78
c70 0 123.667 -19.333 161 -58s56 -93.334 56 -164.001z" />
    <glyph glyph-name="p" unicode="p" horiz-adv-x="493" 
d="M17 -91c4 1.33301 7.33301 2 10 2c2.66699 -6.66699 -0.333008 -10 -9 -10zM347 251c0 20.667 -1.33301 37.666 -4 50.999c-4.66699 24 -18.667 46.667 -42 68c-22.667 20.667 -48 31 -76 31c-5.33301 0 -13.833 -2 -25.5 -6s-26.834 -9.66699 -45.501 -17
c-6 -12 -9 -22 -9 -30l-1 -374c56.667 26.667 104.334 66.334 143.001 119.001c40 58 60 110.667 60 158zM429 279.999c0 -117.333 -64.335 -214.999 -193.002 -292.999h1c-5.33301 -3.33301 -15.166 -8.33301 -29.499 -15l-61.5 -28v-62c0 -21.333 2.5 -38.833 7.5 -52.5
s13.167 -24.167 24.5 -31.5h-144c26 23.333 39 47.666 39 72.999v19.5c0 9.66699 -0.333008 20.167 -1 31.5c-9.33301 -2.66699 -17.5 -4.83398 -24.5 -6.50098s-13.833 -3.16699 -20.5 -4.5c4 1.33301 10 3.83301 18 7.5l28 13.5v371c0 45.333 -17 83 -51 113l23 8.5
l33 12.5l25 15.5c10 6.33301 22 13.5 36 21.5c0.666992 -4.66699 1 -8.16699 1 -10.5s0.666992 -7.16602 2 -14.499c0.666992 -4 1.16699 -8.5 1.5 -13.5s0.833008 -9.83301 1.5 -14.5c-2 -4.66699 2.66699 -7 14 -7v8c4 0.666992 8 1 12 1h9.5c3 0 5.16699 0.333008 6.5 1
c3.33301 1.33301 7 3 11 5s8.66699 4 14 6c16.667 7.33301 32.334 12.833 47.001 16.5s27.667 5.5 39 5.5c30.667 0 57.5 -10.833 80.5 -32.5s38.5 -48.5 46.5 -80.5c2.66699 -10.667 4 -32 4 -64z" />
    <glyph glyph-name="q" unicode="q" horiz-adv-x="456" 
d="M298 380c-25.333 20 -49.334 30 -72.001 30c-43.333 0 -77.666 -21.333 -102.999 -64c-20 -34 -30 -73 -30 -117c0 -43.333 11 -82 33 -116c26.667 -36.667 62.667 -55 108 -55c28.667 0 50 6.66699 64 20v302zM258.999 -192c26 26.667 38.9971 55.668 38.9971 87.001
v170c-8.66699 -13.333 -16.5 -23.833 -23.5 -31.5s-13.167 -13.167 -18.5 -16.5c-12.667 -7.33301 -27.667 -13.333 -45 -18s-36.666 -7.33398 -57.999 -8.00098c-38 -1.33301 -70.667 22.334 -98 71.001c-23.333 40.667 -35 83.667 -35 129c0 64.667 16.667 119 50 163
c16.667 22.667 37.167 41.5 61.5 56.5s49.833 26.167 76.5 33.5c10.667 2 41.334 3 92.001 3h71v-553c0.666992 -14.667 8.33398 -35.334 23.001 -62.001l7 -10c3.33301 -4.66699 7.33301 -9.66699 12 -15z" />
    <glyph glyph-name="r" unicode="r" horiz-adv-x="330" 
d="M133 475c0 2 0.333008 2.33301 1 1zM304 405c0 -14.667 -6.66895 -26.6641 -20.002 -35.9971c-13.333 -8.66699 -26.333 -13 -39 -13c-10.667 0 -26 5 -46 15l1 -1c-10 6 -18.667 10.333 -26 13s-12.666 4 -15.999 4c-6.66699 0 -13.334 -4.33301 -20.001 -13l2 -258
c1.33301 -40 6 -69.333 14 -88c2 -6 10.333 -15.333 25 -28h-152c9.33301 8.66699 16.333 17.167 21 25.5s8.33398 17.166 11.001 26.499c1.33301 5.33301 2.33301 13.333 3 24s1 23.667 1 39v205c0 37.333 -15.667 69.333 -47 96
c2.66699 1.33301 7.33398 3.16602 14.001 5.49902s16 6.16602 28 11.499c11.333 4 23.166 9.66699 35.499 17s25.5 15.666 39.5 24.999c0 -1.33301 0.166992 -4.16602 0.5 -8.49902s0.5 -9.5 0.5 -15.5c0 -24.667 3.33301 -42.334 10 -53.001
c44.667 38.667 77.334 58 98.001 58c14.667 0 28.667 -4.66699 42 -14s20 -21.666 20 -36.999z" />
    <glyph glyph-name="s" unicode="s" horiz-adv-x="412" 
d="M358 140c0 -49.333 -16.667 -88.002 -50 -116.002c-15.333 -11.333 -33.166 -20.333 -53.499 -27s-42.5 -10 -66.5 -10c-12.667 0 -25 1 -37 3c-15.333 1.33301 -30.333 5 -45 11s-30 14 -46 24c-35.333 24 -53 48.333 -53 73c0 15.333 3.83301 27.833 11.5 37.5
s18.167 14.5 31.5 14.5c16.667 0 30 -11 40 -33c7.33301 -16.667 13.833 -30.667 19.5 -42s9.5 -18.666 11.5 -21.999c19.333 -24.667 49.666 -37 90.999 -37c22.667 0 43 8.66699 61 26c20 20 30 38.333 30 55c0 40.667 -24 72 -72 94l-61 24.5
c-20 8.33301 -40.667 16.5 -62 24.5h1c-40.667 21.333 -61 54.333 -61 99c0 38.667 15.333 68.667 46 90c28 20 61 30 99 30c16.667 0 40.667 -7 72 -21c32.667 -14 49 -28.333 49 -43c0 -13.333 -4 -24.333 -12 -33s-17.667 -13 -29 -13c-5.33301 0 -12 3 -20 9
s-18 14.667 -30 26h1c-21.333 26 -43 39 -65 39c-46 0 -69 -17.333 -69 -52c0 -26 25.333 -47 76 -63c36.667 -12 65.5 -22 86.5 -30s34.5 -13.667 40.5 -17h-1c44 -25.333 66 -65.666 66 -120.999z" />
    <glyph glyph-name="t" unicode="t" horiz-adv-x="315" 
d="M256 82c0 -12.667 -2.66504 -24.165 -7.99805 -34.498s-12.333 -19.333 -21 -27s-18.667 -13.5 -30 -17.5s-23 -6 -35 -6c-26 0 -48 11.333 -66 34c-18.667 22.667 -28 49 -28 79v318c-11.333 -1.33301 -21.5 -2.33301 -30.5 -3s-16.167 -0.666992 -21.5 0v23
c1.33301 0.666992 2.5 0.833984 3.5 0.500977s5.16699 -0.5 12.5 -0.5c5.33301 0 10.166 -0.333008 14.499 -1s10.166 -2.66699 17.499 -6c1.33301 10 2 16.833 2 20.5v6.5c0 23.333 -14 49 -42 77c15.333 6.66699 29.166 13.167 41.499 19.5s22.5 11.833 30.5 16.5
c6.66699 5.33301 13 10.166 19 14.499s11.667 9.16602 17 14.499c0.666992 -7.33301 0.833984 -13.833 0.500977 -19.5s-0.5 -15.834 -0.5 -30.501v-51c0 -19.333 -0.333008 -40 -1 -62h114v-23l-116 1l-1 -286c0 -20 6.16699 -36.667 18.5 -50s28.833 -20 49.5 -20
c18 0 31.667 3.66699 41 11h-1l11.5 8.5c2.33301 1.66699 4.83301 3.16699 7.5 4.5c0.666992 -2 1 -5.66699 1 -11z" />
    <glyph glyph-name="u" unicode="u" horiz-adv-x="463" 
d="M23 434c-3.33301 0 -7 -0.166016 -11 -0.499023s-7.66699 -0.5 -11 -0.5c0 9.33301 1.83301 13.666 5.5 12.999s9.16699 -4.66699 16.5 -12zM311 -0.999023v50.998c-98 -41.333 -158.333 -62 -181 -62c-36.667 0 -63.667 12.667 -81 38
c-6.66699 9.33301 -11.667 21.333 -15 36s-5.33301 30 -6 46l29 257c0 24 -7.33301 43.333 -22 58c-2.66699 2 -4.83398 4 -6.50098 6s-3.5 3.66699 -5.5 5c46.667 5.33301 91.334 20.333 134.001 45l-46 -332c-0.666992 -33.333 9.66602 -59.333 30.999 -78
c17.333 -13.333 40.333 -20 69 -20c17.333 0 52 11 104 33v239c-1.33301 8.66699 -2.83301 17 -4.5 25s-3.16699 16 -4.5 24c-3.33301 14.667 -9 26.834 -17 36.501s-16.667 17.167 -26 22.5c38.667 12.667 79.334 28.334 122.001 47.001v-393
c2.66699 -12 4.5 -21.333 5.5 -28s1.83301 -10.667 2.5 -12c3.33301 -6 7.33301 -12.5 12 -19.5s11.667 -15.167 21 -24.5h-115z" />
    <glyph glyph-name="v" unicode="v" horiz-adv-x="477" 
d="M417 364c0 -49.333 -11.667 -101.997 -35 -157.997c-24.667 -56.667 -60 -109.667 -106 -159c2 -6.66699 4.83301 -14 8.5 -22s7.83398 -16 12.501 -24h-139c15.333 21.333 23 39.666 23 54.999c0 14.667 -7 43 -21 85l-14 40.5c-4 11.667 -8.33301 22.167 -13 31.5
c-11.333 23.333 -22.333 49 -33 77s-20.667 56 -30 84c-16 24 -36 40 -60 48l46.5 33l46.5 34l30 -86.5l28 -76.5c22.667 -62 42.667 -114 60 -156s31.666 -73.667 42.999 -95c14.667 7.33301 28 17.666 40 30.999s22.667 29.666 32 48.999
c9.33301 17.333 16.833 34.166 22.5 50.499s8.5 29.5 8.5 39.5c0 16.667 -8.33301 45 -25 85c-14 38 -21 62.333 -21 73c0 14.667 4.16699 27.334 12.5 38.001s18.5 16 30.5 16c17.333 0 31 -10.667 41 -32c8 -16 12 -36.333 12 -61z" />
    <glyph glyph-name="w" unicode="w" horiz-adv-x="676" 
d="M106 499c-3.33301 -2.66699 -6.5 -5.00293 -9.5 -7.00293s-5.83301 -4 -8.5 -6c0.666992 0.666992 1 1.33398 1 2.00098s0.166992 1.33398 0.5 2.00098s0.5 1.33398 0.5 2.00098c0.666992 2 2 3.5 4 4.5s4 1.5 6 1.5zM626 362.997
c0 -17.333 -2.83105 -36.5 -8.49805 -57.5s-13.5 -44.167 -23.5 -69.5v1c-7.33301 -17.333 -16 -36.166 -26 -56.499s-21.667 -42.833 -35 -67.5c-23.333 -40 -35 -62 -35 -66s5 -13.333 15 -28c3.33301 -3.33301 6.33301 -6.83301 9 -10.5s5.66699 -6.83398 9 -9.50098
c-29.333 0 -56.333 0.166992 -81 0.5s-51 0.5 -79 0.5c12 13.333 20.833 25.5 26.5 36.5s7.5 19.833 5.5 26.5l-35 93l-42 113l-17 45c-65.333 -151.333 -98 -230.333 -98 -237c0 -25.333 16.333 -51 49 -77c-28 0 -55 -0.166992 -81 -0.5s-52.667 -0.5 -80 -0.5
c19.333 26.667 29 50.667 29 72c0 22 -7 57.5 -21 106.5s-35.333 111.5 -64 187.5c-5.33301 12 -19.333 32.667 -42 62l17 8c4 2 8.66699 4.16699 14 6.5s10.666 5.16602 15.999 8.49902l17.5 16c6.33301 6 13.833 12.667 22.5 20c0 -6 1.33301 -10 4 -12l-3 2
c3.33301 -9.33301 6.33301 -18.833 9 -28.5s5.66699 -19.834 9 -30.501l39 -131.5l50 -167.5c8 0 18.333 12.833 31 38.5s29.334 64.5 50.001 116.5l18 49c5.33301 14.667 10.666 28.334 15.999 41.001l16.5 42.5c4.33301 11 8.16602 20.167 11.499 27.5l154 -382
c44 96.667 66 158.667 66 186c0 10.667 -1.33301 23 -4 37s-6.66699 29.333 -12 46c-5.33301 15.333 -9.5 29.5 -12.5 42.5s-4.5 22.833 -4.5 29.5c0 18 4 33 12 45h-1c10 14 22.333 21 37 21c16 0 29.333 -13.333 40 -40c8 -17.333 12 -35.666 12 -54.999z" />
    <glyph glyph-name="x" unicode="x" horiz-adv-x="455" 
d="M431 1l-168.996 -0.00390625c14.667 24.667 22 44.334 22 59.001c0 12.667 -10 33.667 -30 63l-23.5 33.5l-23.5 32.5c-19.333 -8.66699 -35.666 -24.667 -48.999 -48c-12.667 -24 -19.667 -43 -21 -57c-1.33301 -14.667 1.5 -28.167 8.5 -40.5
s14.5 -24.166 22.5 -35.499c1.33301 -1.33301 2.16602 -2.5 2.49902 -3.5s1.16602 -2.16699 2.49902 -3.5c-28 0 -54.167 -0.166992 -78.5 -0.5s-50.166 -0.5 -77.499 -0.5l176 214c-1.33301 2 -5.83301 9.5 -13.5 22.5s-17.167 30.167 -28.5 51.5
c-16 32.667 -33 59.334 -51 80.001c-6 6.66699 -14.667 14.5 -26 23.5s-26.666 19.833 -45.999 32.5c19.333 10.667 36.166 20.334 50.499 29.001s27.166 17.667 38.499 27l135 -211c29.333 19.333 47 46.666 53 81.999l5.5 35.5c1.66699 10.333 3.16699 19.166 4.5 26.499
c1.33301 8 2.66602 14.667 3.99902 20c9.33301 23.333 26.666 35 51.999 35c13.333 0 24.666 -5.16699 33.999 -15.5s14 -22.166 14 -35.499c0 -19.333 -6.66699 -37 -20 -53v1c-14 -17.333 -28.333 -29.666 -43 -36.999l-37.5 -36l-49.5 -50z" />
    <glyph glyph-name="y" unicode="y" horiz-adv-x="467" 
d="M394 372c0 -21.333 -1.50195 -45.499 -4.50195 -72.499s-7.16699 -55.5 -12.5 -85.5c-9.33301 -47.333 -22.5 -93.5 -39.5 -138.5s-36.167 -87.167 -57.5 -126.5c-29.333 -50 -60.166 -87.667 -92.499 -113s-64.833 -38 -97.5 -38c-10 0 -23.333 4.33301 -40 13
c-17.333 8 -26 17 -26 27c0 9.33301 4 18.5 12 27.5s18.333 14.5 31 16.5c10.667 2 26 2 46 0c10.667 0 20.667 0.166992 30 0.5s18.666 1.83301 27.999 4.5s19 6.83398 29 12.501s21 13.834 33 24.501c26.667 22.667 40.667 41.667 42 57
c-1.33301 1.33301 -4.66602 4 -9.99902 8s-13 9.33301 -23 16c-47.333 32 -86.333 72 -117 120c-9.33301 17.333 -18.833 37.166 -28.5 59.499s-18.5 47.166 -26.5 74.499l-19.5 69l-18.5 69c-2.66699 0 -7.33398 5.66699 -14.001 17c-1.33301 1.33301 -2.5 3 -3.5 5
s-2.16699 4 -3.5 6c1.33301 1.33301 4 2 8 2c1.33301 0 2.66602 0.166992 3.99902 0.5s2.33301 0.5 3 0.5c28.667 6 62.334 22.667 101.001 50c-2.66699 -25.333 -4.5 -45.333 -5.5 -60s-1.5 -24.334 -1.5 -29.001c0 -28 3.33301 -56.833 10 -86.5
s16.334 -58.167 29.001 -85.5c14.667 -32 34.334 -60.833 59.001 -86.5s54 -48.167 88 -67.5c40 54.667 59.667 156.334 59 305.001c0 26 -18.667 60.333 -56 103c-33.333 40 -50 69.333 -50 88c0 15.333 4.33301 27.166 13 35.499s19.667 12.5 33 12.5
c59.333 0 89 -78.333 89 -235z" />
    <glyph glyph-name="z" unicode="z" horiz-adv-x="457" 
d="M405 422c-1.33301 1.33301 -2.66699 2.33301 -4 3l3 3zM339.999 446c28.667 -6 48.999 -13.001 60.999 -21.001l-55.5 -68c-15.667 -19.333 -27.834 -35.333 -36.501 -48c-107.333 -162.667 -161 -250 -161 -262c0 -14.667 10.333 -24 31 -28h36
c28.667 0 61.667 11 99 33c4 2 12.333 6.83301 25 14.5l50 31.5c-3.33301 -12.667 -8 -27.167 -14 -43.5l-20 -53.5c-23.333 -0.666992 -48.666 -1.16699 -75.999 -1.5s-60 -0.5 -98 -0.5c-25.333 0 -51.833 0.166992 -79.5 0.5s-57.5 0.5 -89.5 0.5
c172.667 244 259 378 259 402c0 14.667 -7.33301 24 -22 28c-5.33301 1.33301 -14.666 2 -27.999 2c-15.333 0 -34 -4.33301 -56 -13s-47.333 -22 -76 -40l-38 -23.5c-10 -6.33301 -18 -11.166 -24 -14.499c12.667 17.333 22 35 28 53s10.333 37 13 57
c8.66699 0 21 -1 37 -3c20.667 -2 32 -3 34 -3c4 0 24 2 60 6c18 2.66699 31.833 4.5 41.5 5.5s15.167 1.5 16.5 1.5c20 0 47.667 -4 83 -12z" />
    <glyph glyph-name="braceleft" unicode="{" horiz-adv-x="237" 
d="M28 304c14.667 0.666992 25.001 3.00293 31.001 7.00293h-1c18.667 6.66699 29 21.667 31 45c0.666992 6.66699 1.16699 15.334 1.5 26.001s0.5 23.667 0.5 39v114c0 19.333 0.333008 35.666 1 48.999s1.66699 24.666 3 33.999v-1c6.66699 53.333 42.334 80 107.001 80
h44v-24h-29c-17.333 0 -31.333 -4.33301 -42 -13s-17.334 -20.667 -20.001 -36c-2.66699 -12.667 -4 -45.334 -4 -98.001v-103c0 -27.333 -1.66699 -48.333 -5 -63c-2.66699 -12 -6.83398 -22.167 -12.501 -30.5s-13.167 -15.5 -22.5 -21.5c-6 -5.33301 -16 -8.33301 -30 -9
v-10c24.667 -2.66699 43.334 -13 56.001 -31c8 -12 12.333 -32 13 -60c0.666992 -4.66699 1 -11.334 1 -20.001v-33v-96c0 -59.333 1.66699 -98.333 5 -117c5.33301 -29.333 23.666 -44 54.999 -44h35v-23h-53c-45.333 0 -74.333 13 -87 39c-4 8 -7.33301 18.333 -10 31
s-4.33398 27.667 -5.00098 45v169c0 69.333 -8 110 -24 122h1c-7.33301 6.66699 -20.666 11 -39.999 13v20z" />
    <glyph glyph-name="bar" unicode="|" horiz-adv-x="354" 
d="M230 667h40v-836h-40v836z" />
    <glyph glyph-name="braceright" unicode="}" horiz-adv-x="307" 
d="M268 284c-8 -1.33301 -14.166 -2.33203 -18.499 -2.99902s-7.5 -1.66699 -9.5 -3h1c-18.667 -7.33301 -29.667 -21.666 -33 -42.999c-2 -14 -3 -42.667 -3 -86v-112c0 -19.333 -0.166992 -36.833 -0.5 -52.5s-1.16602 -27.834 -2.49902 -36.501
c-3.33301 -26.667 -12.833 -47.167 -28.5 -61.5s-39.167 -21.5 -70.5 -21.5h-53v23h34c27.333 0 45 10.667 53 32c3.33301 10.667 5.66602 30.667 6.99902 60l1 69v96c0 39.333 1 66 3 80c3.33301 23.333 14.333 41 33 53c9.33301 6.66699 20.666 10.334 33.999 11.001v10
c-20.667 2.66699 -36.5 11 -47.5 25s-17.833 33 -20.5 57c-0.666992 5.33301 -1.16699 11.833 -1.5 19.5s-0.5 15.167 -0.5 22.5v103c0 55.333 -2 90.666 -6 105.999c-7.33301 27.333 -27.333 41 -60 41h-29v24h44c64.667 0 100 -26.667 106 -80
c2 -9.33301 3.33301 -21 4 -35s1 -29.667 1 -47v-114c0 -15.333 0.166992 -28.333 0.5 -39s0.833008 -19.334 1.5 -26.001c2 -23.333 12.333 -38.333 31 -45h-1c6 -4 16.333 -6.33301 31 -7v-20z" />
    <glyph glyph-name="asciitilde" unicode="~" horiz-adv-x="374" 
d="M388 813l13.001 -9c-12 -24.667 -27.333 -46 -46 -64c-23.333 -22 -46.333 -33 -69 -33c-16.667 0 -41.667 7 -75 21s-59 21 -77 21c-16.667 0 -31.334 -6 -44.001 -18c-6.66699 -6 -17 -19 -31 -39l-13 10c32.667 65.333 71.667 98 117 98
c16.667 0 40.667 -6.66699 72 -20s55 -20 71 -20c30.667 0 58 17.667 82 53z" />
    <glyph glyph-name="exclamdown" unicode="&#xa1;" horiz-adv-x="264" 
d="M90 417c0 17.333 5 32.168 15 44.501s22.667 18.5 38 18.5s28.166 -6 38.499 -18s15.5 -26.667 15.5 -44c0 -18 -5.16699 -33.167 -15.5 -45.5s-23.166 -18.5 -38.499 -18.5s-28 6.16699 -38 18.5s-15 27.166 -15 44.499zM93 -39.998
c26.667 108 40.668 220.999 42.001 338.999h16c0.666992 -58 4.5 -115.167 11.5 -171.5s17.5 -112.166 31.5 -167.499c10 -41.333 15 -70.666 15 -87.999c0 -26 -5 -45.333 -15 -58c-12.667 -17.333 -29.334 -26 -50.001 -26c-44 0 -66 28 -66 84
c0 17.333 5 46.666 15 87.999z" />
    <glyph glyph-name="cent" unicode="&#xa2;" horiz-adv-x="408" 
d="M375 228c-3.33301 -1.33301 -6.66602 -2.83203 -9.99902 -4.49902s-6.66602 -3.5 -9.99902 -5.5c1.33301 3.33301 2.66602 6.16602 3.99902 8.49902s2.66602 4.83301 3.99902 7.5zM187 564.001c-73.333 -6 -110 -54.333 -110 -145c0 -38 8 -75 24 -111
c15.333 -38 44 -70.333 86 -97v353zM250 199.001c34.667 0 69.666 6.33398 104.999 19.001c-34.667 -52.667 -85 -81 -151 -85v-92h-17v93c-50 6.66699 -91.667 36.667 -125 90c-13.333 23.333 -23.666 47.666 -30.999 72.999s-11 51 -11 77c0 138 55.667 215.667 167 233
v60h17v-65l16 8c1.33301 0 2.5 0.166992 3.5 0.5s2.16699 0.5 3.5 0.5c27.333 0.666992 55.333 -10 84 -32s43 -46.333 43 -73c0 -6 -1.5 -12 -4.5 -18s-7 -11.5 -12 -16.5s-10.333 -9.16699 -16 -12.5s-11.167 -5 -16.5 -5c-18.667 0 -33.334 15 -44.001 45h1
c-11.333 34.667 -30.666 56.667 -57.999 66v-359c8 -2 15.833 -3.66699 23.5 -5s15.167 -2 22.5 -2z" />
    <glyph glyph-name="sterling" unicode="&#xa3;" horiz-adv-x="563" 
d="M189 74c-16.667 11.333 -32.5 19.499 -47.5 24.499s-28.833 7.5 -41.5 7.5c-40.667 0 -61 -14.333 -61 -43c0 -32 19.667 -48 59 -48c16 0 32 4.33301 48 13s31 22.334 45 41.001zM429 356.999l-0.00195312 -37.002h-135c6.66699 -27.333 10 -54.333 10 -81
c0 -50.667 -14.333 -97.667 -43 -141c17.333 -6 34.833 -10.667 52.5 -14s35.834 -5 54.501 -5c49.333 0 84 12 104 36c8.66699 10.667 15.334 23.167 20.001 37.5s7.33398 31.5 8.00098 51.5c3.33301 0 6.16602 -0.166992 8.49902 -0.5s4.83301 -0.5 7.5 -0.5v-19
c0.666992 -24 -1.33301 -46.667 -6 -68s-11.334 -40.666 -20.001 -57.999c-26 -45.333 -63 -68 -111 -68c-17.333 0 -38.666 5.33301 -63.999 16s-54.666 26.667 -87.999 48c-48.667 -42.667 -91.667 -64 -129 -64c-25.333 0 -46.333 6.33301 -63 19s-25 30 -25 52
c0 23.333 9.16699 42 27.5 56s41.166 21 68.499 21c24 0 61.333 -9.33301 112 -28c14 22.667 21 44 21 64c0 42 -13 90.667 -39 146h-132v37h118c-23.333 54 -35 97 -35 129c0 52.667 18.667 96.667 56 132c40 36.667 89.667 55 149 55c46 0 83.333 -11 112 -33
s43 -52.333 43 -91c0 -20.667 -5.66699 -37.667 -17 -51c-14.667 -16.667 -32 -25 -52 -25c-18 0 -35 6 -51 18c-16 10.667 -24 26 -24 46c0 13.333 5.33301 24.833 16 34.5s25.667 13.5 45 11.5c10 10 15 18.333 15 25c0 10.667 -7.5 19.834 -22.5 27.501
s-33.167 11.5 -54.5 11.5c-41.333 0 -75 -10.667 -101 -32c-28 -23.333 -42 -50.333 -42 -81c0 -26 19.667 -85 59 -177h147z" />
    <glyph glyph-name="yen" unicode="&#xa5;" horiz-adv-x="511" 
d="M440 162h-123.001v-72c0 -42 13.333 -72 40 -90h-172c15.333 12.667 25.333 25 30 37v-1c5.33301 12.667 8 31.667 8 57v69h-116v32h116v83h-116v33h116v45c-13.333 26.667 -31.166 59 -53.499 97l-78.5 131c-2 3.33301 -4.16699 6.5 -6.5 9.5
s-4.16602 5.83301 -5.49902 8.5l-12.5 17.5c-3.66699 5 -6.16699 8.16699 -7.5 9.5h1c-6 6 -12.5 12.167 -19.5 18.5l-22.5 19.5h208c-8.66699 -6.66699 -14.667 -14.5 -18 -23.5s-5 -19.5 -5 -31.5c0 -6 0.166992 -10.667 0.5 -14s0.833008 -6 1.5 -8
c3.33301 -7.33301 9.33301 -19.666 18 -36.999l35 -68l33.5 -64.5c7.66699 -15 13.167 -24.167 16.5 -27.5c4 0 9.83301 4.66699 17.5 14s16.167 22 25.5 38c16.667 32.667 31 76.667 43 132c12 51.333 23.333 83.666 34 96.999c14.667 18 30.334 27 47.001 27
c30 0 45 -17.667 45 -53c0 -30 -17 -67.333 -51 -112c-8.66699 -11.333 -21.834 -26.833 -39.501 -46.5l-58.5 -64.5c-16.667 -18.667 -29.834 -34.167 -39.501 -46.5s-14.5 -20.833 -14.5 -25.5v-42h123v-33h-123v-83h123v-32z" />
    <glyph glyph-name="brokenbar" unicode="&#xa6;" 
 />
    <glyph glyph-name="section" unicode="&#xa7;" horiz-adv-x="415" 
d="M147 37c12.667 -19.333 33.332 -29.002 61.999 -29.002c18 0 33.833 5.66699 47.5 17s20.5 25.666 20.5 42.999c0 22.667 -18.667 50 -56 82l-102 87c-36.667 38 -55 75.333 -55 112c0 34 9.83301 60.5 29.5 79.5s45.834 27.5 78.501 25.5
c-50.667 41.333 -76 82.333 -76 123c0 32.667 11.333 58.334 34 77.001s50.667 28 84 28c27.333 0 51.666 -7.33301 72.999 -22c24.667 -16 37 -37 37 -63c0 -12.667 -4.33301 -23.667 -13 -33s-19 -14 -31 -14s-22 4.16699 -30 12.5s-12 18.5 -12 30.5
c0 17.333 11 30.333 33 39c-12 18.667 -30 28 -54 28c-18 0 -34 -5.5 -48 -16.5s-21 -25.167 -21 -42.5c0 -22.667 18.667 -49.667 56 -81l103 -87c37.333 -38 56 -76.333 56 -115c0 -31.333 -8.5 -56.166 -25.5 -74.499s-40.167 -27.5 -69.5 -27.5c-6 0 -12 0.333008 -18 1
c53.333 -38 80 -78.667 80 -122c0 -32.667 -11.833 -59.167 -35.5 -79.5s-52.167 -30.5 -85.5 -30.5c-29.333 0 -55.666 6.66699 -78.999 20c-26.667 16.667 -40 38.334 -40 65.001c0 14 4.16699 26 12.5 36s19.5 15 33.5 15c11.333 0 21.333 -3.83301 30 -11.5
s13 -17.167 13 -28.5c0 -19.333 -10.667 -34 -32 -44zM165.998 431.998c-15.333 0 -28.333 -5.33301 -39 -16s-16 -23.667 -16 -39c0 -23.333 18.5 -52.333 55.5 -87s67.5 -52 91.5 -52c14.667 0 28.167 5.16699 40.5 15.5s18.5 22.833 18.5 37.5
c0 24 -19.167 53.5 -57.5 88.5s-69.5 52.5 -93.5 52.5z" />
    <glyph glyph-name="dieresis" unicode="&#xa8;" horiz-adv-x="283" 
d="M55 596c12 0 22.333 -4.66699 31 -14s13 -21 13 -35c0 -13.333 -4.5 -24.5 -13.5 -33.5s-19.167 -13.5 -30.5 -13.5c-12 0 -22.167 4.5 -30.5 13.5s-12.5 20.167 -12.5 33.5c0 14 4.16699 25.667 12.5 35s18.5 14 30.5 14zM226 596c11.333 0 21.167 -4.66699 29.5 -14
s12.5 -21 12.5 -35c0 -13.333 -4.33301 -24.5 -13 -33.5s-18.667 -13.5 -30 -13.5c-12 0 -22.333 4.5 -31 13.5s-13 20.167 -13 33.5c0 15.333 4.5 27.333 13.5 36s19.5 13 31.5 13z" />
    <glyph glyph-name="copyright" unicode="&#xa9;" horiz-adv-x="768" 
d="M375 680c94 0 174.833 -34.167 242.5 -102.5s101.5 -149.833 101.5 -244.5c0 -96 -34.167 -177.667 -102.5 -245s-150.833 -101 -247.5 -101s-179 34 -247 102s-102 150.333 -102 247c0 97.333 34.667 179 104 245s153 99 251 99zM364 640
c-82 0 -152.333 -30.5 -211 -91.5s-88 -132.833 -88 -215.5c0 -84 29.667 -156 89 -216s131 -90 215 -90c85.333 0 157.333 30.167 216 90.5s88 132.833 88 217.5c0 86 -30 158.333 -90 217s-133 88 -219 88zM527 530l0.000976562 -155h-21
c-13.333 41.333 -27.333 71.333 -42 90c-22 28 -51 42 -87 42c-74.667 0 -112 -60.667 -112 -182c0 -110 40 -165 120 -165c71.333 0 111.666 43 120.999 129h27c-4.66699 -104.667 -55 -157 -151 -157c-54.667 0 -100 19.333 -136 58s-54 85.667 -54 141
c0 51.333 17.833 98 53.5 140s78.834 63 129.501 63c19.333 0 41.333 -5.66699 66 -17s38 -17 40 -17c11.333 0 19.666 10 24.999 30h21z" />
    <glyph glyph-name="ordfeminine" unicode="&#xaa;" horiz-adv-x="582" 
d="M276 724l-50.501 38.5l-50.5 37.5h8l113 -46l57 23l58 23h8c-19.333 -13.333 -36.666 -25.833 -51.999 -37.5l-50 -38.5h-41zM533.999 225c0 -18 -3.00293 -38.334 -9.00293 -61.001s-14.667 -48.667 -26 -78c-10.667 -25.333 -21.167 -47.666 -31.5 -66.999
s-20.166 -36 -29.499 -50c-26 21.333 -56.667 31.333 -92 30h-341c114 186.667 199 330.167 255 430.5s84 157.833 84 172.5c0 30.667 -17.667 46 -53 46c-21.333 0 -47.666 -7.33301 -78.999 -22c-23.333 -11.333 -46 -25.5 -68 -42.5s-43.667 -37.5 -65 -61.5l7.5 44
c2.33301 13.333 4.83301 26.333 7.5 39s5.16699 25.667 7.5 39s5.16602 27.666 8.49902 42.999c4 -3.33301 8.66699 -6 14 -8c16.667 -8 32.334 -12 47.001 -12c54 0 108.333 0.166992 163 0.5s109 0.5 163 0.5l-63 -110.5l-77 -131.5l-50.5 -80.5l-61.5 -105.5
c-25.333 -44 -45.166 -80.5 -59.499 -109.5s-21.5 -46.833 -21.5 -53.5c0 -11.333 2 -20.666 6 -27.999s9.33301 -13.333 16 -18c8.66699 -6 25 -9 49 -9c27.333 0 55.166 5.16699 83.499 15.5s58.5 26.166 90.5 47.499c72 50 108 103.667 108 161
c0 12 -2.16699 23.667 -6.5 35s-10.166 21.166 -17.499 29.499s-16 15 -26 20s-20.667 7.5 -32 7.5s-24 -4.33301 -38 -13c-7.33301 -5.33301 -13.333 -11 -18 -17s-7 -11.667 -7 -17c0 -10 9 -20 27 -30c14 -7.33301 21 -15.333 21 -24c0 -9.33301 -3 -16.666 -9 -21.999
s-12 -8 -18 -8c-11.333 0 -22.333 8 -33 24c-8.66699 11.333 -13 23.333 -13 36c0 26.667 10.333 49.334 31 68.001c21.333 17.333 41.333 26 60 26c32.667 0 58 -17.333 76 -52c13.333 -26.667 20 -54.667 20 -84z" />
    <glyph glyph-name="guillemotleft" unicode="&#xab;" horiz-adv-x="445" 
d="M205 243l20 19.002l90 87l47 46c6.66699 4.66699 11.667 7 15 7c7.33301 0 11 -3.66699 11 -11c0 -8.66699 -14 -32.334 -42 -71.001c-34.667 -48.667 -52.667 -74.334 -54 -77.001l11 -14c32.667 -44.667 58.667 -83 78 -115c4 -7.33301 6 -13.333 6 -18
c0 -7.33301 -3.66699 -11 -11 -11c-6 0 -13.667 5 -23 15l-87 85zM38 243.002l20 19l128 125c10 10 17.667 15 23 15c7.33301 0 11 -3.66699 11 -11c0 -8 -14.333 -32.333 -43 -73l-52 -75l11 -14c32.667 -44.667 58.667 -83 78 -115c4 -7.33301 6 -13.333 6 -18
c0 -7.33301 -3.66699 -11 -11 -11c-6 0 -13.667 5 -23 15c-4.66699 5.33301 -17.667 18 -39 38z" />
    <glyph glyph-name="minus" unicode="&#xad;" 
 />
    <glyph glyph-name="minus" unicode="&#x2212;" 
 />
    <glyph glyph-name="registered" unicode="&#xae;" horiz-adv-x="414" 
d="M192 687c44.667 0 82.999 -16.167 114.999 -48.5s48 -70.833 48 -115.5c0 -45.333 -16.167 -84 -48.5 -116s-71.5 -48 -117.5 -48c-45.333 0 -84.166 16.167 -116.499 48.5s-48.5 71.5 -48.5 117.5s16.5 84.5 49.5 115.5s72.5 46.5 118.5 46.5zM186.999 668
c-38.667 0 -71.834 -14.334 -99.501 -43.001s-41.5 -62.667 -41.5 -102c0 -40 14 -74.167 42 -102.5s61.667 -42.5 101 -42.5c40.667 0 74.834 14.333 102.501 43s41.5 63 41.5 103c0 40.667 -14.167 74.834 -42.5 102.501s-62.833 41.5 -103.5 41.5zM159.999 518.999
l0.000976562 -50.002c0 -11.333 2.33301 -18 7 -20c2.66699 -2 10.334 -3 23.001 -3v-12h-88v12c12.667 0.666992 20.834 1.83398 24.501 3.50098s5.5 8.16699 5.5 19.5v109c0 10.667 -1.83301 17 -5.5 19s-11.834 3 -24.501 3v13h83c49.333 0 74 -14.667 74 -44
c0 -23.333 -18 -38.666 -54 -45.999c17.333 -9.33301 30.666 -27 39.999 -53c3.33301 -12 7 -18 11 -18c6 0 9.33301 8.33301 10 25h11v-8c1.33301 -27.333 -8.66699 -41 -30 -41c-16.667 0 -26.334 7.66699 -29.001 23s-5 30 -7 44c-5.33301 16 -19 24 -41 24h-10z
M160 530.997l12.002 -0.000976562c18.667 0 31 1.33301 37 4c11.333 5.33301 17 16 17 32c0 14 -3.33301 23.167 -10 27.5s-17.334 6.5 -32.001 6.5c-10.667 0 -17.334 -1.66699 -20.001 -5s-4 -10.666 -4 -21.999v-43z" />
    <glyph glyph-name="macron" unicode="&#xaf;" horiz-adv-x="301" 
d="M17 560h299v-46h-299v46z" />
    <glyph glyph-name="macron" unicode="&#x2c9;" horiz-adv-x="301" 
d="M17 560h299v-46h-299v46z" />
    <glyph glyph-name="degree" unicode="&#xb0;" horiz-adv-x="292" 
d="M138 663c26 0 48.1689 -9.49902 66.502 -28.499s27.5 -41.5 27.5 -67.5c0 -26.667 -9.33301 -49.334 -28 -68.001s-41.334 -28 -68.001 -28s-49.334 9.5 -68.001 28.5s-28 41.833 -28 68.5s9.5 49.167 28.5 67.5s42.167 27.5 69.5 27.5zM135.002 624.001
c-15.333 0 -28.333 -5.66797 -39 -17.001s-16 -24.666 -16 -39.999s5.33301 -28.5 16 -39.5s24 -16.5 40 -16.5c15.333 0 28.5 5.5 39.5 16.5s16.5 24.167 16.5 39.5c0 16 -5.5 29.5 -16.5 40.5s-24.5 16.5 -40.5 16.5z" />
    <glyph glyph-name="plusminus" unicode="&#xb1;" 
 />
    <glyph glyph-name="twosuperior" unicode="&#xb2;" 
 />
    <glyph glyph-name="threesuperior" unicode="&#xb3;" 
 />
    <glyph glyph-name="acute" unicode="&#xb4;" horiz-adv-x="246" 
d="M10 509c8.66699 3.33301 22.166 10.332 40.499 20.999l72.5 42c21.333 11.333 39.5 20.333 54.5 27s26.167 10 33.5 10c3.33301 0 6.33301 -1 9 -3s6.33398 -7.66699 11.001 -17c2 -4.66699 3.66699 -9.16699 5 -13.5s2 -9.16602 2 -14.499c0 -2 -0.666992 -5 -2 -9l1 1
c-4.66699 -10 -41.667 -21.667 -111 -35h1l-73 -13c-18 -3.33301 -31.333 -6 -40 -8z" />
    <glyph glyph-name="mu" unicode="&#xb5;" horiz-adv-x="507" 
d="M11 304l64.998 64.0049v197c-4 35.333 -9.33301 58.666 -16 69.999c-1.33301 2 -4.33301 5.66699 -9 11l-18 20h176c-29.333 -29.333 -44 -63.666 -44 -102.999v-108l38.5 37.5l40.5 39.5v-31l-79 -79l-1 -307c0 -12.667 0.5 -23.834 1.5 -33.501
s3.16699 -17.834 6.5 -24.501c8.66699 -22 28.667 -33 60 -33c15.333 0 35.333 4.66699 60 14c25.333 11.333 48.833 25.166 70.5 41.499s40.167 35.833 55.5 58.5c14.667 21.333 26.334 42.666 35.001 63.999s13 41.333 13 60c0 34 -14 64.333 -42 91
c-24.667 22.667 -53.667 34 -87 34c-26 0 -48.667 -7.33301 -68 -22h1c-23.333 -17.333 -35 -39.333 -35 -66c0 -10.667 3.33301 -22.334 10 -35.001c7.33301 -15.333 18 -23 32 -23h4.5c1.66699 0 3.16699 0.333008 4.5 1c34 14.667 56.667 22 68 22
c6.66699 0 11.5 -3.83301 14.5 -11.5s4.5 -15.167 4.5 -22.5c0 -14.667 -8.33301 -26.667 -25 -36c-15.333 -9.33301 -27 -14 -35 -14c-23.333 0 -40 4 -50 12c-28.667 24 -43 57 -43 99c0 34 12 61.667 36 83c25.333 23.333 52 35 80 35c20 0 38.667 -4.33301 56 -13
s33 -20.667 47 -36c26 -30 39 -65.333 39 -106c0 -39.333 -11 -91 -33 -155h1c-9.33301 -26.667 -18.5 -50.167 -27.5 -70.5s-18.167 -38.5 -27.5 -54.5c-23.333 13.333 -61.666 21.666 -114.999 24.999c-30.667 -0.666992 -59 -1 -85 -1h-71
c-18 0 -34.167 -0.166992 -48.5 -0.5s-27.166 -0.166016 -38.499 0.500977c14 11.333 25 29 33 53c6.66699 20.667 10 41.667 10 63v222c-8.66699 -8 -18.834 -18 -30.501 -30s-23.167 -23 -34.5 -33v31z" />
    <glyph glyph-name="mu" unicode="&#x3bc;" horiz-adv-x="507" 
d="M11 304l64.998 64.0049v197c-4 35.333 -9.33301 58.666 -16 69.999c-1.33301 2 -4.33301 5.66699 -9 11l-18 20h176c-29.333 -29.333 -44 -63.666 -44 -102.999v-108l38.5 37.5l40.5 39.5v-31l-79 -79l-1 -307c0 -12.667 0.5 -23.834 1.5 -33.501
s3.16699 -17.834 6.5 -24.501c8.66699 -22 28.667 -33 60 -33c15.333 0 35.333 4.66699 60 14c25.333 11.333 48.833 25.166 70.5 41.499s40.167 35.833 55.5 58.5c14.667 21.333 26.334 42.666 35.001 63.999s13 41.333 13 60c0 34 -14 64.333 -42 91
c-24.667 22.667 -53.667 34 -87 34c-26 0 -48.667 -7.33301 -68 -22h1c-23.333 -17.333 -35 -39.333 -35 -66c0 -10.667 3.33301 -22.334 10 -35.001c7.33301 -15.333 18 -23 32 -23h4.5c1.66699 0 3.16699 0.333008 4.5 1c34 14.667 56.667 22 68 22
c6.66699 0 11.5 -3.83301 14.5 -11.5s4.5 -15.167 4.5 -22.5c0 -14.667 -8.33301 -26.667 -25 -36c-15.333 -9.33301 -27 -14 -35 -14c-23.333 0 -40 4 -50 12c-28.667 24 -43 57 -43 99c0 34 12 61.667 36 83c25.333 23.333 52 35 80 35c20 0 38.667 -4.33301 56 -13
s33 -20.667 47 -36c26 -30 39 -65.333 39 -106c0 -39.333 -11 -91 -33 -155h1c-9.33301 -26.667 -18.5 -50.167 -27.5 -70.5s-18.167 -38.5 -27.5 -54.5c-23.333 13.333 -61.666 21.666 -114.999 24.999c-30.667 -0.666992 -59 -1 -85 -1h-71
c-18 0 -34.167 -0.166992 -48.5 -0.5s-27.166 -0.166016 -38.499 0.500977c14 11.333 25 29 33 53c6.66699 20.667 10 41.667 10 63v222c-8.66699 -8 -18.834 -18 -30.501 -30s-23.167 -23 -34.5 -33v31z" />
    <glyph glyph-name="paragraph" unicode="&#xb6;" horiz-adv-x="526" 
d="M316 624l-43.001 0.000976562v-627h-150v36c41.333 0.666992 67 6.66699 77 18c8.66699 9.33301 13 33.666 13 72.999v169c-55.333 0 -98.5 17 -129.5 51s-46.5 79 -46.5 135c0 58 16.667 103.833 50 137.5s79.333 50.5 138 50.5h241v-37
c-39.333 -0.666992 -64.166 -6.16699 -74.499 -16.5s-15.5 -35.166 -15.5 -74.499v-424c0 -35.333 6.33301 -58 19 -68c10.667 -8.66699 34.667 -13.334 72 -14.001v-36h-151v627z" />
    <glyph glyph-name="periodcentered" unicode="&#xb7;" horiz-adv-x="219" 
d="M68 249c0 13.333 4.83301 24.833 14.5 34.5s21.167 14.5 34.5 14.5s25 -4.83301 35 -14.5s15 -21.167 15 -34.5s-5 -25.166 -15 -35.499s-21.667 -15.5 -35 -15.5s-24.833 5.16699 -34.5 15.5s-14.5 22.166 -14.5 35.499z" />
    <glyph glyph-name="periodcentered" unicode="&#x2219;" horiz-adv-x="219" 
d="M68 249c0 13.333 4.83301 24.833 14.5 34.5s21.167 14.5 34.5 14.5s25 -4.83301 35 -14.5s15 -21.167 15 -34.5s-5 -25.166 -15 -35.499s-21.667 -15.5 -35 -15.5s-24.833 5.16699 -34.5 15.5s-14.5 22.166 -14.5 35.499z" />
    <glyph glyph-name="cedilla" unicode="&#xb8;" horiz-adv-x="229" 
d="M140 -8l-25.002 -66.001l24 3.5c6.66699 1 11.667 1.5 15 1.5c21.333 0 39.166 -5.5 53.499 -16.5s21.5 -27.167 21.5 -48.5c0 -29.333 -12 -51 -36 -65c-22 -12 -47.667 -18 -77 -18c-14.667 0 -28.167 1 -40.5 3s-25.166 5.66699 -38.499 11
c1.33301 4.66699 3 8.83398 5 12.501s4 7.83398 6 12.501c18.667 -6 37.334 -9 56.001 -9c44 0 66 14.667 66 44s-18.667 44 -56 44c-5.33301 0 -10.666 -0.5 -15.999 -1.5l-18 -3.5l-1 1c7.33301 15.333 14.5 31.166 21.5 47.499l20.5 47.5h19z" />
    <glyph glyph-name="onesuperior" unicode="&#xb9;" 
 />
    <glyph glyph-name="ordmasculine" unicode="&#xba;" horiz-adv-x="457" 
d="M405 422c-1.33301 1.33301 -2.66699 2.33301 -4 3l3 3zM205.999 502l-50.5 37.5l-50.5 38.5h8l113 -47l57 23.5l58 23.5h8l-52 -38.5l-51 -37.5h-40zM339.999 446c28.667 -6 48.999 -13.001 60.999 -21.001l-55.5 -68c-15.667 -19.333 -27.834 -35.333 -36.501 -48
c-107.333 -162.667 -161 -250 -161 -262c0 -14.667 10.333 -24 31 -28h36c28.667 0 61.667 11 99 33c4 2 12.333 6.83301 25 14.5l50 31.5c-3.33301 -12.667 -8 -27.167 -14 -43.5l-20 -53.5c-23.333 -0.666992 -48.666 -1.16699 -75.999 -1.5s-60 -0.5 -98 -0.5
c-25.333 0 -51.833 0.166992 -79.5 0.5s-57.5 0.5 -89.5 0.5c172.667 244 259 378 259 402c0 14.667 -7.33301 24 -22 28c-5.33301 1.33301 -14.666 2 -27.999 2c-15.333 0 -34 -4.33301 -56 -13s-47.333 -22 -76 -40l-38 -23.5c-10 -6.33301 -18 -11.166 -24 -14.499
c12.667 17.333 22 35 28 53s10.333 37 13 57c8.66699 0 21 -1 37 -3c20.667 -2 32 -3 34 -3c4 0 24 2 60 6c18 2.66699 31.833 4.5 41.5 5.5s15.167 1.5 16.5 1.5c20 0 47.667 -4 83 -12z" />
    <glyph glyph-name="guillemotright" unicode="&#xbb;" horiz-adv-x="420" 
d="M221 243c-6 -6 -26.334 -25.332 -61.001 -57.999l-48 -47l-39 -38c-9.33301 -10 -17 -15 -23 -15c-7.33301 0 -11 3.66699 -11 11c0 5.33301 2 11.333 6 18c10 16 36.333 54.333 79 115l10 14l-10 15c-38 53.333 -64.333 91.666 -79 114.999c-4 6.66699 -6 12.667 -6 18
c0 7.33301 3.66699 11 11 11c6.66699 0 14.334 -5 23.001 -15c4 -3.33301 17 -16 39 -38l48 -47zM387.999 243.001l-109 -104.999l-39 -38c-8.66699 -10 -16.334 -15 -23.001 -15c-7.33301 0 -11 3.66699 -11 11c0 5.33301 2 11.333 6 18c10 16 36.333 54.333 79 115l10 14
l-10 15c-38 53.333 -64.333 91.666 -79 114.999c-4 6.66699 -6 12.667 -6 18c0 7.33301 3.66699 11 11 11c6.66699 0 14.334 -5 23.001 -15l87 -85z" />
    <glyph glyph-name="onequarter" unicode="&#xbc;" 
 />
    <glyph glyph-name="onehalf" unicode="&#xbd;" 
 />
    <glyph glyph-name="threequarters" unicode="&#xbe;" 
 />
    <glyph glyph-name="questiondown" unicode="&#xbf;" horiz-adv-x="487" 
d="M255 276h-1h1zM261 277c-2.66699 0 -4.66699 -0.333008 -6 -1l6 3v-2zM261 339c-15.333 0 -27.833 6.33301 -37.5 19s-14.5 27.667 -14.5 45s4.83301 32.166 14.5 44.499s22.167 18.5 37.5 18.5c16 0 29 -6.16699 39 -18.5s15 -27.166 15 -44.499s-5 -32.333 -15 -45
s-23 -19 -39 -19zM183 169c21.333 17.333 38.3281 35.1689 50.9951 53.502s21.667 36.5 27 54.5c6.66699 1.33301 11.334 2 14.001 2c-2 -35.333 -14.333 -68 -37 -98v1l-31 -38c-9.33301 -12 -20 -25 -32 -39c-28 -39.333 -42 -75.333 -42 -108
c0 -19.333 3 -37.833 9 -55.5s15.667 -34.167 29 -49.5c26.667 -30.667 60.334 -46 101.001 -46c12.667 0 25 1.83301 37 5.5s22.667 8.83398 32 15.501s17 14.834 23 24.501s9 20.167 9 31.5c0 17.333 -10 36.666 -30 57.999c-8.66699 8.66699 -15 16.667 -19 24
s-6 13.666 -6 18.999c0 14.667 6 27.667 18 39c14.667 12.667 28 19 40 19c8.66699 0 16.834 -2.33301 24.501 -7s14.334 -10.834 20.001 -18.501s10 -16.5 13 -26.5s4.5 -20 4.5 -30c0 -54 -21.333 -101 -64 -141c-46 -40.667 -93.667 -61 -143 -61
c-22.667 0 -45.667 4.16699 -69 12.5s-45.666 19.166 -66.999 32.499c-45.333 34 -68 74.333 -68 121c0 22.667 4.5 44.167 13.5 64.5s21.167 38.833 36.5 55.5z" />
    <glyph glyph-name="Aacute" unicode="&#xc1;" horiz-adv-x="645" 
d="M98 562c-0.666992 -2.66699 -0.833008 -5 -0.5 -7s0.5 -4 0.5 -6l-14 3l9 6c2 2 3.66699 3.33301 5 4zM127.001 712c9.33301 4 23.168 11.167 41.501 21.5l71.5 41.5c45.333 25.333 74.666 38 87.999 38c2 0 5 -0.666992 9 -2c5.33301 -2 9.83301 -8 13.5 -18
s5.5 -19 5.5 -27c0 -2 -0.666992 -5 -2 -9l1 1c-4.66699 -10.667 -42 -22.667 -112 -36l-71 -13c-18 -3.33301 -31.333 -6 -40 -8zM351.003 403l-4.00098 20c-3.33301 13.333 -6.16602 26.666 -8.49902 39.999s-5.16602 27 -8.49902 41c-5.33301 22 -11.333 40.333 -18 55
s-14.667 25.334 -24 32.001c-8 6 -20 9 -36 9c-1.33301 0 -3.33301 -0.166992 -6 -0.5s-5.66699 -0.5 -9 -0.5c-2.66699 0 -6.83398 -0.166992 -12.501 -0.5s-10.167 -0.5 -13.5 -0.5l-38 -196zM364.002 -1c19.333 17.333 32.165 34.834 38.498 52.501
s8.83301 38.167 7.5 61.5c-2.66699 40.667 -20.334 124.667 -53.001 252l-190 -1l-6.5 -29.5c-2.33301 -10.333 -4.16602 -20.5 -5.49902 -30.5c-2 -9.33301 -3.83301 -18.833 -5.5 -28.5s-3.16699 -18.834 -4.5 -27.501c-8.66699 -46 -13.667 -85.333 -15 -118
c-2 -38 1.66699 -64.333 11 -79c2.66699 -3.33301 8.66699 -10.166 18 -20.499s19 -20.5 29 -30.5h-174c20.667 18 36.334 36 47.001 54c6 9.33301 11.5 21 16.5 35s9.5 29 13.5 45l58 250.5l46 209.5h-18c-17.333 0 -32 -3.16699 -44 -9.5s-23.667 -13.833 -35 -22.5
c2 31.333 16.667 58.666 44 81.999c30.667 26.667 63 40 97 40c42.667 0 77.5 -11.5 104.5 -34.5s46.167 -55.5 57.5 -97.5l42 -180.5l61 -254.5c1.33301 -6 4 -13.333 8 -22s9.66699 -18 17 -28c8 -13.333 16.833 -25.5 26.5 -36.5s20.834 -20.833 33.501 -29.5z" />
    <glyph glyph-name="Acircumflex" unicode="&#xc2;" horiz-adv-x="645" 
d="M98 562c-0.666992 -2.66699 -0.833008 -5 -0.5 -7s0.5 -4 0.5 -6l-14 3l9 6c2 2 3.66699 3.33301 5 4zM275.001 800l52 -43l52 -43h-9l-115 47l-56 -23.5l-57 -23.5h-9l52 43l52 43h38zM351.001 403l-4.00098 20c-3.33301 13.333 -6.16602 26.666 -8.49902 39.999
s-5.16602 27 -8.49902 41c-5.33301 22 -11.333 40.333 -18 55s-14.667 25.334 -24 32.001c-8 6 -20 9 -36 9c-1.33301 0 -3.33301 -0.166992 -6 -0.5s-5.66699 -0.5 -9 -0.5c-2.66699 0 -6.83398 -0.166992 -12.501 -0.5s-10.167 -0.5 -13.5 -0.5l-38 -196zM364 -1
c19.333 17.333 32.165 34.834 38.498 52.501s8.83301 38.167 7.5 61.5c-2.66699 40.667 -20.334 124.667 -53.001 252l-190 -1l-6.5 -29.5c-2.33301 -10.333 -4.16602 -20.5 -5.49902 -30.5c-2 -9.33301 -3.83301 -18.833 -5.5 -28.5s-3.16699 -18.834 -4.5 -27.501
c-8.66699 -46 -13.667 -85.333 -15 -118c-2 -38 1.66699 -64.333 11 -79c2.66699 -3.33301 8.66699 -10.166 18 -20.499s19 -20.5 29 -30.5h-174c20.667 18 36.334 36 47.001 54c6 9.33301 11.5 21 16.5 35s9.5 29 13.5 45l58 250.5l46 209.5h-18
c-17.333 0 -32 -3.16699 -44 -9.5s-23.667 -13.833 -35 -22.5c2 31.333 16.667 58.666 44 81.999c30.667 26.667 63 40 97 40c42.667 0 77.5 -11.5 104.5 -34.5s46.167 -55.5 57.5 -97.5l42 -180.5l61 -254.5c1.33301 -6 4 -13.333 8 -22s9.66699 -18 17 -28
c8 -13.333 16.833 -25.5 26.5 -36.5s20.834 -20.833 33.501 -29.5z" />
    <glyph glyph-name="Atilde" unicode="&#xc3;" horiz-adv-x="645" 
d="M98 562c-0.666992 -2.66699 -0.833008 -5 -0.5 -7s0.5 -4 0.5 -6l-14 3l9 6c2 2 3.66699 3.33301 5 4zM423.001 809c-6.66699 -12.667 -13.332 -24 -19.999 -34s-14.334 -19 -23.001 -27c-22 -22 -43.333 -33 -64 -33c-14 0 -38 7 -72 21c-32 14.667 -59.333 22 -82 22
c-9.33301 0 -18.333 -1.83301 -27 -5.5s-16.334 -8.5 -23.001 -14.5c-3.33301 -3.33301 -7.33301 -7.83301 -12 -13.5s-9.66699 -12.167 -15 -19.5l-2 2c32 62.667 68.333 94 109 94c14 0 37.333 -6.66699 70 -20c32 -13.333 56.667 -20 74 -20
c32.667 0 61.334 16.333 86.001 49zM351.003 403l-4.00098 20c-3.33301 13.333 -6.16602 26.666 -8.49902 39.999s-5.16602 27 -8.49902 41c-5.33301 22 -11.333 40.333 -18 55s-14.667 25.334 -24 32.001c-8 6 -20 9 -36 9c-1.33301 0 -3.33301 -0.166992 -6 -0.5
s-5.66699 -0.5 -9 -0.5c-2.66699 0 -6.83398 -0.166992 -12.501 -0.5s-10.167 -0.5 -13.5 -0.5l-38 -196zM364.002 -1c19.333 17.333 32.165 34.834 38.498 52.501s8.83301 38.167 7.5 61.5c-2.66699 40.667 -20.334 124.667 -53.001 252l-190 -1l-6.5 -29.5
c-2.33301 -10.333 -4.16602 -20.5 -5.49902 -30.5c-2 -9.33301 -3.83301 -18.833 -5.5 -28.5s-3.16699 -18.834 -4.5 -27.501c-8.66699 -46 -13.667 -85.333 -15 -118c-2 -38 1.66699 -64.333 11 -79c2.66699 -3.33301 8.66699 -10.166 18 -20.499s19 -20.5 29 -30.5h-174
c20.667 18 36.334 36 47.001 54c6 9.33301 11.5 21 16.5 35s9.5 29 13.5 45l58 250.5l46 209.5h-18c-17.333 0 -32 -3.16699 -44 -9.5s-23.667 -13.833 -35 -22.5c2 31.333 16.667 58.666 44 81.999c30.667 26.667 63 40 97 40c42.667 0 77.5 -11.5 104.5 -34.5
s46.167 -55.5 57.5 -97.5l42 -180.5l61 -254.5c1.33301 -6 4 -13.333 8 -22s9.66699 -18 17 -28c8 -13.333 16.833 -25.5 26.5 -36.5s20.834 -20.833 33.501 -29.5z" />
    <glyph glyph-name="Adieresis" unicode="&#xc4;" horiz-adv-x="645" 
d="M98 562c-0.666992 -2.66699 -0.833008 -5 -0.5 -7s0.5 -4 0.5 -6l-14 3l9 6c2 2 3.66699 3.33301 5 4zM172.001 819c12 0 22.167 -4.5 30.5 -13.5s12.5 -20.167 12.5 -33.5s-4.16699 -24.833 -12.5 -34.5s-18.5 -14.5 -30.5 -14.5c-12.667 0 -23.167 4.83301 -31.5 14.5
s-12.5 21.167 -12.5 34.5s4.33301 24.5 13 33.5s19 13.5 31 13.5zM342.001 819c12 0 22.167 -4.5 30.5 -13.5s12.5 -20.167 12.5 -33.5s-4.16699 -24.833 -12.5 -34.5s-18.833 -14.5 -31.5 -14.5c-12 0 -22.167 4.83301 -30.5 14.5s-12.5 21.167 -12.5 34.5
s4.33301 24.5 13 33.5s19 13.5 31 13.5zM351.001 403l-4.00098 20c-3.33301 13.333 -6.16602 26.666 -8.49902 39.999s-5.16602 27 -8.49902 41c-5.33301 22 -11.333 40.333 -18 55s-14.667 25.334 -24 32.001c-8 6 -20 9 -36 9c-1.33301 0 -3.33301 -0.166992 -6 -0.5
s-5.66699 -0.5 -9 -0.5c-2.66699 0 -6.83398 -0.166992 -12.501 -0.5s-10.167 -0.5 -13.5 -0.5l-38 -196zM364 -1c19.333 17.333 32.165 34.834 38.498 52.501s8.83301 38.167 7.5 61.5c-2.66699 40.667 -20.334 124.667 -53.001 252l-190 -1l-6.5 -29.5
c-2.33301 -10.333 -4.16602 -20.5 -5.49902 -30.5c-2 -9.33301 -3.83301 -18.833 -5.5 -28.5s-3.16699 -18.834 -4.5 -27.501c-8.66699 -46 -13.667 -85.333 -15 -118c-2 -38 1.66699 -64.333 11 -79c2.66699 -3.33301 8.66699 -10.166 18 -20.499s19 -20.5 29 -30.5h-174
c20.667 18 36.334 36 47.001 54c6 9.33301 11.5 21 16.5 35s9.5 29 13.5 45l58 250.5l46 209.5h-18c-17.333 0 -32 -3.16699 -44 -9.5s-23.667 -13.833 -35 -22.5c2 31.333 16.667 58.666 44 81.999c30.667 26.667 63 40 97 40c42.667 0 77.5 -11.5 104.5 -34.5
s46.167 -55.5 57.5 -97.5l42 -180.5l61 -254.5c1.33301 -6 4 -13.333 8 -22s9.66699 -18 17 -28c8 -13.333 16.833 -25.5 26.5 -36.5s20.834 -20.833 33.501 -29.5z" />
    <glyph glyph-name="Aring" unicode="&#xc5;" horiz-adv-x="645" 
d="M98 562c-0.666992 -2.66699 -0.833008 -5 -0.5 -7s0.5 -4 0.5 -6l-14 3l9 6c2 2 3.66699 3.33301 5 4zM255.001 846c-15.333 0 -28.332 -5 -38.999 -15s-16 -22.333 -16 -37c0 -13.333 5.33301 -25.333 16 -36s24 -16 40 -16c15.333 0 28.5 5.33301 39.5 16
s16.5 22.667 16.5 36c0 14.667 -5.33301 27 -16 37s-24.334 15 -41.001 15zM256.002 865c18 0 33.333 -6.83301 46 -20.5s19 -30.5 19 -50.5c0 -19.333 -6.33301 -35.833 -19 -49.5s-28 -20.5 -46 -20.5s-33.333 6.83301 -46 20.5s-19 30.167 -19 49.5
c0 20 6.33301 36.833 19 50.5s28 20.5 46 20.5zM351.002 403l-4.00098 20c-3.33301 13.333 -6.16602 26.666 -8.49902 39.999s-5.16602 27 -8.49902 41c-5.33301 22 -11.333 40.333 -18 55s-14.667 25.334 -24 32.001c-8 6 -20 9 -36 9
c-1.33301 0 -3.33301 -0.166992 -6 -0.5s-5.66699 -0.5 -9 -0.5c-2.66699 0 -6.83398 -0.166992 -12.501 -0.5s-10.167 -0.5 -13.5 -0.5l-38 -196zM364.001 -1c19.333 17.333 32.165 34.834 38.498 52.501s8.83301 38.167 7.5 61.5
c-2.66699 40.667 -20.334 124.667 -53.001 252l-190 -1l-6.5 -29.5c-2.33301 -10.333 -4.16602 -20.5 -5.49902 -30.5c-2 -9.33301 -3.83301 -18.833 -5.5 -28.5s-3.16699 -18.834 -4.5 -27.501c-8.66699 -46 -13.667 -85.333 -15 -118c-2 -38 1.66699 -64.333 11 -79
c2.66699 -3.33301 8.66699 -10.166 18 -20.499s19 -20.5 29 -30.5h-174c20.667 18 36.334 36 47.001 54c6 9.33301 11.5 21 16.5 35s9.5 29 13.5 45l58 250.5l46 209.5h-18c-17.333 0 -32 -3.16699 -44 -9.5s-23.667 -13.833 -35 -22.5c2 31.333 16.667 58.666 44 81.999
c30.667 26.667 63 40 97 40c42.667 0 77.5 -11.5 104.5 -34.5s46.167 -55.5 57.5 -97.5l42 -180.5l61 -254.5c1.33301 -6 4 -13.333 8 -22s9.66699 -18 17 -28c8 -13.333 16.833 -25.5 26.5 -36.5s20.834 -20.833 33.501 -29.5z" />
    <glyph glyph-name="AE" unicode="&#xc6;" horiz-adv-x="933" 
d="M924 144c-4 -2.66699 -6.99902 -4.33301 -8.99902 -5c1.33301 1.33301 2.16602 3 2.49902 5s1.16602 3.66699 2.49902 5l8 -6c-1.33301 0 -2.66602 0.333008 -3.99902 1zM218.001 552.001l-13.999 4l9 6l4 2c1.33301 0.666992 2.66602 1.66699 3.99902 3z
M439.002 402.001c-1.33301 76 -3.33203 127.333 -5.99902 154c-2 15.333 -6.66699 27.333 -14 36c-10 13.333 -22.333 20 -37 20c-2.66699 0 -6.83398 -0.333008 -12.501 -1s-13.167 -1.66699 -22.5 -3l-85 -206h177zM364.003 1.00098
c42 32.667 65.668 70.335 71.001 113.002l1 250h-189l-23.5 -57.5l-24.5 -57.5c-19.333 -49.333 -33.333 -88 -42 -116c-6 -22 -9 -41 -9 -57c0 -13.333 3.5 -25.5 10.5 -36.5s14.5 -21.5 22.5 -31.5c0.666992 -1.33301 1.16699 -2.16602 1.5 -2.49902
s1.5 -2.16602 3.5 -5.49902h-173c14 10 25.667 19.667 35 29s17.333 18.333 24 27v-1c8 9.33301 15.833 20.666 23.5 33.999s15.167 28.333 22.5 45l115 252.5l92 211.5h-19c-16 0 -30.833 -3.16699 -44.5 -9.5s-27.167 -13.5 -40.5 -21.5c5.33301 16 13.333 30.667 24 44
s23.667 25.666 39 36.999c35.333 26.667 71 40 107 40c32 0 59.667 -6.66699 83 -20h259c13.333 0 26.666 1 39.999 3s27 5.66699 41 11c2.66699 -12 7.33398 -30.167 14.001 -54.5s15.334 -52.833 26.001 -85.5l-49 34.5c-15.333 10.333 -28 18.166 -38 23.499h1
c-22 13.333 -43.667 23 -65 29s-42 9 -62 9c-41.333 0 -69 -3 -83 -9c-23.333 -10.667 -34.666 -30.334 -33.999 -59.001l1 -169h31.5c13.667 0 28.167 -0.333008 43.5 -1h67c67.333 0 123.333 14.667 168 44v-121c-2.66699 1.33301 -4.33398 2.33301 -5.00098 3
s-3.66699 2.66699 -9 6c-35.333 18.667 -72.333 28 -111 28l-184 1c-0.666992 -12.667 -1 -27.334 -1 -44.001v-53v-60.5c0 -21.667 0.333008 -44.834 1 -69.501c2 -46.667 12 -77 30 -91c12 -8 43.333 -12 94 -12c23.333 0 47.166 3.33301 71.499 10
s49.5 16.334 75.5 29.001c6.66699 3.33301 13 7 19 11s12.333 7.66699 19 11l40 22.5c13.333 7.66699 26.666 15.834 39.999 24.501l-37 -79.5l-38 -78.5c-29.333 8.66699 -54.333 14.5 -75 17.5s-37.667 3.83301 -51 2.5h-350z" />
    <glyph glyph-name="Ccedilla" unicode="&#xc7;" horiz-adv-x="469" 
d="M275 -74c10 1.33301 18.3311 2.49512 24.998 3.49512s11.667 1.5 15 1.5c20 0 37.667 -5 53 -15c6.66699 -5.33301 12 -12.166 16 -20.499s6 -18.166 6 -29.499c0 -29.333 -12.333 -51 -37 -65c-21.333 -12 -47 -18 -77 -18c-14 0 -27.167 1 -39.5 3
s-25.166 5.66699 -38.499 11c1.33301 4.66699 3 8.83398 5 12.501s4 7.83398 6 12.501c9.33301 -3.33301 18.833 -5.66602 28.5 -6.99902s18.5 -2 26.5 -2c44.667 0 67 14.667 67 44s-19 44 -57 44c-5.33301 0 -10.666 -0.5 -15.999 -1.5s-11 -2.16699 -17 -3.5l-1 1l39 91
c-16 0.666992 -31 2.83398 -45 6.50098s-27 8.5 -39 14.5c-58 29.333 -102.667 75.666 -134 138.999c-28.667 57.333 -43 121.333 -43 192c0 89.333 19 165 57 227c45.333 73.333 107.666 110 186.999 110c3.33301 0 8.16602 -0.333008 14.499 -1s12.833 -1.66699 19.5 -3
c6 -1.33301 12 -2.16602 18 -2.49902s11 -0.5 15 -0.5c12 0 23 2 33 6l10 3c2 0.666992 4.33301 1.66699 7 3c4 -21.333 9.83301 -43.5 17.5 -66.5s16.167 -45.5 25.5 -67.5c-2.66699 2 -4.16699 3 -4.5 3h-0.5l-1 2c-0.666992 1.33301 -3 4 -7 8h1
c-15.333 17.333 -28.333 30.333 -39 39h1c-7.33301 5.33301 -15.166 10.666 -23.499 15.999s-18.166 11 -29.499 17c-24 11.333 -43.667 17 -59 17c-55.333 0 -98 -23.667 -128 -71c-26 -41.333 -39 -89 -39 -143c0 -94 23 -178.333 69 -253
c55.333 -87.333 128.333 -131 219 -131c24 0 49 4.33301 75 13c-36.667 -50 -89 -75.667 -157 -77z" />
    <glyph glyph-name="Egrave" unicode="&#xc8;" horiz-adv-x="550" 
d="M470 -33c-68 20.667 -112.667 28.666 -134 23.999h-342l14.5 17c5.66699 6.66699 10.167 12.334 13.5 17.001l9 12h-1c10.667 18 16 33.667 16 47v487c0 34.667 -18 69.667 -54 105h359c27.333 0 59.666 7.33301 96.999 22c2.66699 -15.333 8.5 -38.666 17.5 -69.999
s21.833 -72 38.5 -122c-66.667 47.333 -109.334 76.666 -128.001 87.999c-42 24 -81 36 -117 36c-38.667 0 -63.667 -2.33301 -75 -7c-15.333 -5.33301 -23 -21.333 -23 -48l-1 -166h24.5c9 0 20.167 -0.333008 33.5 -1h67c68.667 0 130.667 20.667 186 62v-170
c-2.66699 1.33301 -8.16699 4.66602 -16.5 9.99902l-20.5 13c-17.333 9.33301 -35.166 16.5 -53.499 21.5s-35.833 7.5 -52.5 7.5h-166v-270c0 -20 12.333 -33 37 -39c6.66699 -1.33301 15.834 -2.33301 27.501 -3s25.5 -1 41.5 -1c20 0 41.667 3.33301 65 10
s48 16.334 74 29.001c6.66699 3.33301 13 7 19 11s12.333 7.66699 19 11v-1l46 27l46 28l20 -3zM342 700.999c-9.33301 2 -23.168 4.66797 -41.501 8.00098l-69.5 13c-32 6 -57.833 12.167 -77.5 18.5s-31.167 12.166 -34.5 17.499l1 -1c-0.666992 2 -1 5 -1 9
c0 8 1.83301 17 5.5 27s7.83398 16 12.501 18h-1c4 1.33301 7.33301 2 10 2c12.667 0 41.667 -12.667 87 -38c27.333 -16 50.5 -29 69.5 -39l43.5 -23zM341.998 701l13 -4l-14 -2z" />
    <glyph glyph-name="Eacute" unicode="&#xc9;" horiz-adv-x="549" 
d="M542 144c-4 -2.66699 -6.99805 -4.33301 -8.99805 -5c1.33301 1.33301 2.16602 3 2.49902 5s1.16602 3.66699 2.49902 5l6 -6zM147.002 712.001c9.33301 4 23.167 11.167 41.5 21.5l72.5 41.5c44.667 25.333 74 38 88 38c2 0 5 -0.666992 9 -2
c4.66699 -2 8.83398 -8 12.501 -18s5.5 -19 5.5 -27c0 -2 -0.666992 -5 -2 -9l1 1c-5.33301 -11.333 -42.333 -23.333 -111 -36l-71.5 -13c-17.667 -3.33301 -30.834 -6 -39.501 -8zM453.003 92.001l40.0039 22.498c13.333 7.66699 26.666 15.834 39.999 24.501l-37.5 -79.5
l-37.5 -78.5c-30 9.33301 -55.333 15.166 -76 17.499s-37.334 2.5 -50.001 0.5h-312c4 4.66699 6.83301 8.33398 8.5 11.001s4.16699 6.33398 7.5 11.001l9 12c6 10 10.833 19.167 14.5 27.5s5.5 16.166 5.5 23.499v487c0 15.333 -4.33301 31.5 -13 48.5
s-19.667 33.167 -33 48.5h332c26.667 0 53.667 4.66699 81 14c2.66699 -12 7.33398 -30.167 14.001 -54.5s15.334 -52.833 26.001 -85.5c-17.333 12.667 -33.833 24.167 -49.5 34.5s-28.167 18.166 -37.5 23.499h1c-22 13.333 -43.667 23 -65 29s-42 9 -62 9
c-42.667 0 -69.667 -2.33301 -81 -7c-10.667 -4.66699 -19.334 -11.834 -26.001 -21.501s-10 -21.167 -10 -34.5l-1 -174h33c14 0 28.667 -0.333008 44 -1h67c66 0 122 14.667 168 44v-121c-2.66699 1.33301 -4.33398 2.33301 -5.00098 3s-3.66699 2.66699 -9 6
c-36 18.667 -73 28 -111 28h-185v-278c0 -11.333 4.66699 -21.166 14 -29.499s22 -14.166 38 -17.499c6.66699 -1.33301 16.167 -2.33301 28.5 -3s27.166 -1 44.499 -1c23.333 0 47.166 3.33301 71.499 10s49.5 16.334 75.5 29.001c6.66699 3.33301 13 7 19 11
s12.333 7.66699 19 11z" />
    <glyph glyph-name="Ecircumflex" unicode="&#xca;" horiz-adv-x="549" 
d="M542 144c-4 -2.66699 -6.99805 -4.33301 -8.99805 -5c1.33301 1.33301 2.16602 3 2.49902 5s1.16602 3.66699 2.49902 5l6 -6zM265.002 800.001l52 -43l52 -43h-9l-114 47l-56.5 -23.5l-57.5 -23.5h-9l52.5 43l51.5 43h38zM453.002 92.001l40.0039 22.498
c13.333 7.66699 26.666 15.834 39.999 24.501l-37.5 -79.5l-37.5 -78.5c-30 9.33301 -55.333 15.166 -76 17.499s-37.334 2.5 -50.001 0.5h-312c4 4.66699 6.83301 8.33398 8.5 11.001s4.16699 6.33398 7.5 11.001l9 12c6 10 10.833 19.167 14.5 27.5s5.5 16.166 5.5 23.499
v487c0 15.333 -4.33301 31.5 -13 48.5s-19.667 33.167 -33 48.5h332c26.667 0 53.667 4.66699 81 14c2.66699 -12 7.33398 -30.167 14.001 -54.5s15.334 -52.833 26.001 -85.5c-17.333 12.667 -33.833 24.167 -49.5 34.5s-28.167 18.166 -37.5 23.499h1
c-22 13.333 -43.667 23 -65 29s-42 9 -62 9c-42.667 0 -69.667 -2.33301 -81 -7c-10.667 -4.66699 -19.334 -11.834 -26.001 -21.501s-10 -21.167 -10 -34.5l-1 -174h33c14 0 28.667 -0.333008 44 -1h67c66 0 122 14.667 168 44v-121
c-2.66699 1.33301 -4.33398 2.33301 -5.00098 3s-3.66699 2.66699 -9 6c-36 18.667 -73 28 -111 28h-185v-278c0 -11.333 4.66699 -21.166 14 -29.499s22 -14.166 38 -17.499c6.66699 -1.33301 16.167 -2.33301 28.5 -3s27.166 -1 44.499 -1
c23.333 0 47.166 3.33301 71.499 10s49.5 16.334 75.5 29.001c6.66699 3.33301 13 7 19 11s12.333 7.66699 19 11z" />
    <glyph glyph-name="Edieresis" unicode="&#xcb;" horiz-adv-x="549" 
d="M542 144c-4 -2.66699 -6.99805 -4.33301 -8.99805 -5c1.33301 1.33301 2.16602 3 2.49902 5s1.16602 3.66699 2.49902 5l6 -6zM152.002 809.001c12 0 22.167 -4.5 30.5 -13.5s12.5 -20.167 12.5 -33.5c0 -14 -4.16699 -25.667 -12.5 -35s-18.5 -14 -30.5 -14
c-12.667 0 -23.167 4.66699 -31.5 14s-12.5 21 -12.5 35c0 13.333 4.33301 24.5 13 33.5s19 13.5 31 13.5zM322.002 809.001c12 0 22.167 -4.5 30.5 -13.5s12.5 -20.167 12.5 -33.5c0 -14 -4.16699 -25.667 -12.5 -35s-18.833 -14 -31.5 -14c-12 0 -22.167 4.66699 -30.5 14
s-12.5 21 -12.5 35c0 13.333 4.33301 24.5 13 33.5s19 13.5 31 13.5zM453.002 92.001l40.0039 22.498c13.333 7.66699 26.666 15.834 39.999 24.501l-37.5 -79.5l-37.5 -78.5c-30 9.33301 -55.333 15.166 -76 17.499s-37.334 2.5 -50.001 0.5h-312
c4 4.66699 6.83301 8.33398 8.5 11.001s4.16699 6.33398 7.5 11.001l9 12c6 10 10.833 19.167 14.5 27.5s5.5 16.166 5.5 23.499v487c0 15.333 -4.33301 31.5 -13 48.5s-19.667 33.167 -33 48.5h332c26.667 0 53.667 4.66699 81 14
c2.66699 -12 7.33398 -30.167 14.001 -54.5s15.334 -52.833 26.001 -85.5c-17.333 12.667 -33.833 24.167 -49.5 34.5s-28.167 18.166 -37.5 23.499h1c-22 13.333 -43.667 23 -65 29s-42 9 -62 9c-42.667 0 -69.667 -2.33301 -81 -7
c-10.667 -4.66699 -19.334 -11.834 -26.001 -21.501s-10 -21.167 -10 -34.5l-1 -174h33c14 0 28.667 -0.333008 44 -1h67c66 0 122 14.667 168 44v-121c-2.66699 1.33301 -4.33398 2.33301 -5.00098 3s-3.66699 2.66699 -9 6c-36 18.667 -73 28 -111 28h-185v-278
c0 -11.333 4.66699 -21.166 14 -29.499s22 -14.166 38 -17.499c6.66699 -1.33301 16.167 -2.33301 28.5 -3s27.166 -1 44.499 -1c23.333 0 47.166 3.33301 71.499 10s49.5 16.334 75.5 29.001c6.66699 3.33301 13 7 19 11s12.333 7.66699 19 11z" />
    <glyph glyph-name="Igrave" unicode="&#xcc;" horiz-adv-x="252" 
d="M218 675c-36 -26 -54 -58 -54 -96v-495c0 -8 1.33301 -16.333 4 -25s6.33398 -17.167 11.001 -25.5s10.167 -16 16.5 -23s13.166 -12.833 20.499 -17.5h-229c34.667 22 52 55.667 52 101v470c0 50.667 -17 87.667 -51 111h230v0zM202 701
c-18 4 -55.002 11.001 -111.002 21.001c-32 6 -57.667 12.167 -77 18.5s-30.666 12.166 -33.999 17.499l1 -1c-0.666992 2 -1 5 -1 9c0 8 1.83301 17 5.5 27s7.83398 16 12.501 18h-1c4 1.33301 7 2 9 2c12.667 0 41.667 -12.667 87 -38l70 -39l43 -23zM201.998 701.001
l13 -4l-14 -2z" />
    <glyph glyph-name="Iacute" unicode="&#xcd;" 
d="M-12 712c9.33301 4 23 11.167 41 21.5l72 41.5c44.667 25.333 74 38 88 38c2 0 5 -0.666992 9 -2c4.66699 -2 8.83398 -8 12.501 -18s5.5 -19 5.5 -27c0 -2 -0.666992 -5 -2 -9l1 1c-5.33301 -11.333 -42.333 -23.333 -111 -36l-71.5 -13
c-17.667 -3.33301 -30.834 -6 -39.501 -8zM188 667c-15.333 -12 -26.333 -25 -33 -39s-10 -30.333 -10 -49v-495c0 -13.333 4 -28 12 -44s17.333 -29 28 -39h-166c13.333 10.667 23 23.667 29 39s9 33.333 9 54v470c0 21.333 -3.66699 41 -11 59s-16.333 32.667 -27 44h169z
" />
    <glyph glyph-name="Icircumflex" unicode="&#xce;" horiz-adv-x="252" 
d="M125 800l52.5 -43l51.5 -43h-9l-114 47l-56.5 -23.5l-56.5 -23.5h-9l51.5 43l52.5 43h37zM188 667c-15.333 -12 -26.333 -25 -33 -39s-10 -30.333 -10 -49v-495c0 -13.333 4 -28 12 -44s17.333 -29 28 -39h-166c13.333 10.667 23 23.667 29 39s9 33.333 9 54v470
c0 21.333 -3.66699 41 -11 59s-16.333 32.667 -27 44h169z" />
    <glyph glyph-name="Idieresis" unicode="&#xcf;" horiz-adv-x="246" 
d="M32 799c12 0 22.333 -4.5 31 -13.5s13 -20.167 13 -33.5c0 -14 -4.33301 -25.667 -13 -35s-19 -14 -31 -14s-22.167 4.66699 -30.5 14s-12.5 21 -12.5 35c0 13.333 4.33301 24.5 13 33.5s18.667 13.5 30 13.5zM183 799c11.333 0 21.167 -4.5 29.5 -13.5
s12.5 -20.167 12.5 -33.5c0 -14 -4.16699 -25.667 -12.5 -35s-18.5 -14 -30.5 -14s-22.333 4.66699 -31 14s-13 21 -13 35c0 13.333 4.5 24.5 13.5 33.5s19.5 13.5 31.5 13.5zM188.001 667c-15.333 -12 -26.333 -25 -33 -39s-10 -30.333 -10 -49v-495
c0 -13.333 4 -28 12 -44s17.333 -29 28 -39h-166c13.333 10.667 23 23.667 29 39s9 33.333 9 54v470c0 21.333 -3.66699 41 -11 59s-16.333 32.667 -27 44h169z" />
    <glyph glyph-name="Eth" unicode="&#xd0;" 
 />
    <glyph glyph-name="Ntilde" unicode="&#xd1;" horiz-adv-x="573" 
d="M444 809c-6.66699 -12.667 -13.334 -24 -20.001 -34s-14.667 -19 -24 -27c-22 -22 -43 -33 -63 -33c-15.333 0 -39.333 7 -72 21c-32 14.667 -59.333 22 -82 22c-18.667 0 -35.667 -6.66699 -51 -20c-3.33301 -3.33301 -7.33301 -7.83301 -12 -13.5
s-9.66699 -12.167 -15 -19.5l-2 2c32 62.667 68.333 94 109 94c14.667 0 38 -6.66699 70 -20s57 -20 75 -20c32.667 0 61.334 16.333 86.001 49zM526 604c0 -7.33301 -5.66406 -28.6641 -16.9971 -63.9971h1c-16 -42.667 -25 -69.334 -27 -80.001
c-8 -37.333 -12 -118.333 -12 -243c0 -40 0.166992 -73 0.5 -99s0.833008 -43.667 1.5 -53c0 -1.33301 0.166992 -2.33301 0.5 -3s0.5 -1.66699 0.5 -3c0.666992 -5.33301 1.16699 -11.666 1.5 -18.999s1.16602 -15 2.49902 -23
c0.666992 -2.66699 1.66699 -5.33398 3 -8.00098s2.66602 -5.66699 3.99902 -9h-40l-34 53l-46 72l-46 75.5l-63.5 102l-77 123l-87.5 139.5v-64l-2 -246c0 -20 0.833008 -40.167 2.5 -60.5s4.16699 -40.5 7.5 -60.5c2.66699 -17.333 7.66699 -37.5 15 -60.5
s17.666 -47.167 30.999 -72.5h-116c5.33301 17.333 10.5 35.166 15.5 53.499l16.5 62.5c0.666992 5.33301 1.66699 18.833 3 40.5s2.66602 50.5 3.99902 86.5v351c0 2 -4.16699 9.16699 -12.5 21.5l-35.5 50.5h205c-19.333 -34 -29 -54.667 -29 -62
c0 -10 3.83301 -24.333 11.5 -43s19.834 -42 36.501 -70l34.5 -58.5l49 -80l60 -95.5l67.5 -106l-1 178c0 19.333 -1 42.5 -3 69.5s-5.33301 58.5 -10 94.5l-10.5 51.5c-3.66699 18.333 -7.16699 37.166 -10.5 56.499c0 18 4.66699 35.167 14 51.5s22 24.5 38 24.5
c36 0 54 -24.667 54 -74z" />
    <glyph glyph-name="Ograve" unicode="&#xd2;" horiz-adv-x="649" 
d="M614 334c0 -92.667 -26.332 -175.334 -78.999 -248.001c-59.333 -78 -135.666 -117 -228.999 -117c-84.667 0 -153 26.333 -205 79c-70.667 72 -106 158.667 -106 260c0 100.667 28.333 189 85 265c32 40.667 68.167 71.334 108.5 92.001s86.166 31 137.499 31
c31.333 0 53.666 -2 66.999 -6s27.5 -10 42.5 -18s29.167 -17.333 42.5 -28c15.333 -11.333 28.833 -22.833 40.5 -34.5s21.167 -23.167 28.5 -34.5c20.667 -33.333 37 -70.5 49 -111.5s18 -84.167 18 -129.5zM534.001 271c0 67.333 -27.334 136.334 -82.001 207.001
c-58.667 74.667 -119 112 -181 112c-57.333 0 -104 -18.333 -140 -55c-35.333 -35.333 -53 -82 -53 -140c0 -67.333 23 -132 69 -194c25.333 -32.667 51.333 -58.834 78 -78.501s55 -32.167 85 -37.5c10.667 -2.66699 27.334 -4 50.001 -4c50.667 0 92.667 18 126 54
c32 34.667 48 80 48 136zM412 721.001c-18 4 -55.002 11.001 -111.002 21.001c-32 6.66699 -57.667 13 -77 19s-30.666 11.667 -33.999 17l1 -1c-0.666992 2 -1 5 -1 9c0 8 1.83301 17 5.5 27s7.83398 16.333 12.501 19h-1c4 1.33301 7 2 9 2
c6.66699 0 17.167 -3.33301 31.5 -10s32.833 -16.334 55.5 -29.001l70 -38.5l43 -23.5zM411.998 721.002l13 -4l-14 -2z" />
    <glyph glyph-name="Oacute" unicode="&#xd3;" horiz-adv-x="649" 
d="M178 722c9.33301 4 23 11.333 41 22l72 41c44.667 25.333 74 38 88 38c2 0 5 -0.666992 9 -2c4.66699 -2 8.83398 -8 12.501 -18s5.5 -19 5.5 -27c0 -2 -0.666992 -5 -2 -9l1 1c-4.66699 -10 -41.667 -22 -111 -36l-71.5 -13c-17.667 -3.33301 -30.834 -6 -39.501 -8z
M552 271c0 34 -7.33203 68.5 -21.999 103.5s-36 71.167 -64 108.5c-61.333 76.667 -126.333 115 -195 115c-64 0 -114.667 -19 -152 -57c-39.333 -38.667 -59 -87.334 -59 -146.001c0 -32 6.33301 -64.833 19 -98.5s30.667 -66.834 54 -99.501
c24 -32 50.833 -58.167 80.5 -78.5s60.5 -34.166 92.5 -41.499c6 -1.33301 13.667 -2.33301 23 -3s19.666 -1 30.999 -1c60 0 106.667 18.333 140 55c18 19.333 31.167 40.833 39.5 64.5s12.5 49.834 12.5 78.501zM595.001 334
c0 -47.333 -6.16504 -91.3359 -18.498 -132.003s-31.166 -78 -56.499 -112c-28 -37.333 -60 -65.5 -96 -84.5s-75.333 -28.5 -118 -28.5c-78.667 0 -143 25.667 -193 77c-66 66.667 -99 151.334 -99 254.001c0 50.667 6.66699 97.834 20 141.501s33.666 83.167 60.999 118.5
c30 38 64.5 67.5 103.5 88.5s81.5 31.5 127.5 31.5c27.333 0 47.666 -2 60.999 -6s26.666 -9.5 39.999 -16.5s27 -16.167 41 -27.5c25.333 -19.333 46.333 -41.666 63 -66.999c42.667 -66 64 -145 64 -237z" />
    <glyph glyph-name="Ocircumflex" unicode="&#xd4;" horiz-adv-x="649" 
d="M335 800l52.5 -43l52.5 -43h-10l-114 47l-56.5 -23.5l-56.5 -23.5h-9l52 43l52 43h37zM552 271c0 34 -7.33203 68.5 -21.999 103.5s-36 71.167 -64 108.5c-61.333 76.667 -126.333 115 -195 115c-64 0 -114.667 -19 -152 -57c-39.333 -38.667 -59 -87.334 -59 -146.001
c0 -32 6.33301 -64.833 19 -98.5s30.667 -66.834 54 -99.501c24 -32 50.833 -58.167 80.5 -78.5s60.5 -34.166 92.5 -41.499c6 -1.33301 13.667 -2.33301 23 -3s19.666 -1 30.999 -1c60 0 106.667 18.333 140 55c18 19.333 31.167 40.833 39.5 64.5s12.5 49.834 12.5 78.501
zM595.001 334c0 -47.333 -6.16504 -91.3359 -18.498 -132.003s-31.166 -78 -56.499 -112c-28 -37.333 -60 -65.5 -96 -84.5s-75.333 -28.5 -118 -28.5c-78.667 0 -143 25.667 -193 77c-66 66.667 -99 151.334 -99 254.001c0 50.667 6.66699 97.834 20 141.501
s33.666 83.167 60.999 118.5c30 38 64.5 67.5 103.5 88.5s81.5 31.5 127.5 31.5c27.333 0 47.666 -2 60.999 -6s26.666 -9.5 39.999 -16.5s27 -16.167 41 -27.5c25.333 -19.333 46.333 -41.666 63 -66.999c42.667 -66 64 -145 64 -237z" />
    <glyph glyph-name="Otilde" unicode="&#xd5;" horiz-adv-x="649" 
d="M474 829c-6.66699 -12.667 -13.335 -24 -20.002 -34s-14.667 -19 -24 -27c-23.333 -22 -44.333 -33 -63 -33c-7.33301 0 -17 1.83301 -29 5.5s-26.333 9.16699 -43 16.5c-33.333 14 -60.666 21 -81.999 21c-9.33301 0 -18.333 -1.83301 -27 -5.5
s-16.667 -8.16699 -24 -13.5c-3.33301 -3.33301 -7.33301 -8 -12 -14l-15 -20c-0.666992 0 -1 0.333008 -1 1l-1 1c32 62.667 68.333 94 109 94c14.667 0 38 -6.66699 70 -20s57 -20 75 -20c32.667 0 61.334 16.333 86.001 49zM551.999 271
c0 34 -7.33203 68.5 -21.999 103.5s-36 71.167 -64 108.5c-61.333 76.667 -126.333 115 -195 115c-64 0 -114.667 -19 -152 -57c-39.333 -38.667 -59 -87.334 -59 -146.001c0 -32 6.33301 -64.833 19 -98.5s30.667 -66.834 54 -99.501c24 -32 50.833 -58.167 80.5 -78.5
s60.5 -34.166 92.5 -41.499c6 -1.33301 13.667 -2.33301 23 -3s19.666 -1 30.999 -1c60 0 106.667 18.333 140 55c18 19.333 31.167 40.833 39.5 64.5s12.5 49.834 12.5 78.501zM595 334c0 -47.333 -6.16504 -91.3359 -18.498 -132.003s-31.166 -78 -56.499 -112
c-28 -37.333 -60 -65.5 -96 -84.5s-75.333 -28.5 -118 -28.5c-78.667 0 -143 25.667 -193 77c-66 66.667 -99 151.334 -99 254.001c0 50.667 6.66699 97.834 20 141.501s33.666 83.167 60.999 118.5c30 38 64.5 67.5 103.5 88.5s81.5 31.5 127.5 31.5
c27.333 0 47.666 -2 60.999 -6s26.666 -9.5 39.999 -16.5s27 -16.167 41 -27.5c25.333 -19.333 46.333 -41.666 63 -66.999c42.667 -66 64 -145 64 -237z" />
    <glyph glyph-name="Odieresis" unicode="&#xd6;" horiz-adv-x="649" 
d="M222 819c12 0 22.333 -4.5 31 -13.5s13 -20.167 13 -33.5s-4.33301 -24.833 -13 -34.5s-19 -14.5 -31 -14.5s-22.167 4.83301 -30.5 14.5s-12.5 21.167 -12.5 34.5s4.33301 24.5 13 33.5s18.667 13.5 30 13.5zM393 819c11.333 0 21.333 -4.5 30 -13.5
s13 -20.167 13 -33.5s-4.33301 -24.833 -13 -34.5s-19 -14.5 -31 -14.5s-22.167 4.83301 -30.5 14.5s-12.5 21.167 -12.5 34.5s4.33301 24.5 13 33.5s19 13.5 31 13.5zM552 271c0 34 -7.33203 68.5 -21.999 103.5s-36 71.167 -64 108.5
c-61.333 76.667 -126.333 115 -195 115c-64 0 -114.667 -19 -152 -57c-39.333 -38.667 -59 -87.334 -59 -146.001c0 -32 6.33301 -64.833 19 -98.5s30.667 -66.834 54 -99.501c24 -32 50.833 -58.167 80.5 -78.5s60.5 -34.166 92.5 -41.499
c6 -1.33301 13.667 -2.33301 23 -3s19.666 -1 30.999 -1c60 0 106.667 18.333 140 55c18 19.333 31.167 40.833 39.5 64.5s12.5 49.834 12.5 78.501zM595.001 334c0 -47.333 -6.16504 -91.3359 -18.498 -132.003s-31.166 -78 -56.499 -112c-28 -37.333 -60 -65.5 -96 -84.5
s-75.333 -28.5 -118 -28.5c-78.667 0 -143 25.667 -193 77c-66 66.667 -99 151.334 -99 254.001c0 50.667 6.66699 97.834 20 141.501s33.666 83.167 60.999 118.5c30 38 64.5 67.5 103.5 88.5s81.5 31.5 127.5 31.5c27.333 0 47.666 -2 60.999 -6s26.666 -9.5 39.999 -16.5
s27 -16.167 41 -27.5c25.333 -19.333 46.333 -41.666 63 -66.999c42.667 -66 64 -145 64 -237z" />
    <glyph glyph-name="multiply" unicode="&#xd7;" 
 />
    <glyph glyph-name="Oslash" unicode="&#xd8;" horiz-adv-x="655" 
d="M432 520c-26 26.667 -52.5 46.334 -79.5 59.001s-54.167 19 -81.5 19c-64 0 -114.667 -19 -152 -57c-39.333 -38.667 -59 -87.334 -59 -146.001c0 -76 33 -153 99 -231zM552 271c0 74.667 -34.666 152.666 -103.999 233.999l-272 -356c20.667 -19.333 42 -35 64 -47
s44 -20.333 66 -25c6 -1.33301 13.667 -2.33301 23 -3s19.666 -1 30.999 -1c60 0 106.667 18.333 140 55c18 19.333 31.167 40.833 39.5 64.5s12.5 49.834 12.5 78.501zM595.001 333.999c0 -47.333 -6.16602 -91.334 -18.499 -132.001s-31.166 -78 -56.499 -112
c-28 -37.333 -60 -65.5 -96 -84.5s-75.333 -28.5 -118 -28.5c-78.667 0 -144.667 27.667 -198 83l-25.5 -32.5l-25.5 -33.5c-3.33301 3.33301 -6.33301 5.83301 -9 7.5s-5.33398 3.5 -8.00098 5.5l54 71c-53.333 65.333 -80 142 -80 230c0 50.667 6.66699 97.834 20 141.501
s33.666 83.167 60.999 118.5c30 38 64.5 67.5 103.5 88.5s81.5 31.5 127.5 31.5c27.333 0 47.666 -2 60.999 -6c34.667 -10 72.334 -34.333 113.001 -73c6.66699 9.33301 14.667 19.833 24 31.5l25 32.5l8.5 -7l8.5 -7l-52 -67c54 -64 81 -150 81 -258z" />
    <glyph glyph-name="Ugrave" unicode="&#xd9;" horiz-adv-x="579" 
d="M535 450c0 -31.333 0.164062 -54.999 0.49707 -70.999s-0.166992 -25.667 -1.5 -29c0 -6 -1 -21.333 -3 -46c-3.33301 -36 -11 -71.667 -23 -107s-28.333 -69 -49 -101c-24 -36 -51.667 -63.667 -83 -83s-65 -29 -101 -29c-18 0 -36.167 2.5 -54.5 7.5
s-36.166 13.167 -53.499 24.5c-36.667 22.667 -64.334 48.667 -83.001 78c-40.667 64.667 -61 150.334 -61 257.001c0 41.333 4 90.666 12 147.999c4 28 7.16699 49.5 9.5 64.5s3.5 24.167 3.5 27.5s-1.33301 7.83301 -4 13.5l-10 21.5
c-9.33301 19.333 -21.666 35.666 -36.999 48.999h240c-67.333 -64 -101 -169.333 -101 -316c0 -73.333 10.667 -134.333 32 -183c14 -34 32.167 -59 54.5 -75s48.5 -24 78.5 -24c59.333 0 104.333 25.333 135 76c26 42 39 96.667 39 164c0 34.667 -5.66699 70.5 -17 107.5
s-26.666 72.167 -45.999 105.5c-10.667 15.333 -19.167 28.166 -25.5 38.499s-10.166 17.166 -11.499 20.499c-13.333 24.667 -20 46.334 -20 65.001c0 15.333 5.66699 28.333 17 39s25.666 16 42.999 16c19.333 0 37.333 -9.16699 54 -27.5s30.334 -44.5 41.001 -78.5
c8 -25.333 14.167 -51.166 18.5 -77.499s6.5 -51.5 6.5 -75.5zM341.997 701.001c-9.33301 2 -23.167 4.66797 -41.5 8.00098l-69.5 13c-32 6 -57.833 12.167 -77.5 18.5s-31.167 12.166 -34.5 17.499l1 -1c-0.666992 2 -1 5 -1 9c0 8 1.83301 17 5.5 27s8.16699 16 13.5 18
h-1c4 1.33301 7 2 9 2c12.667 0 41.667 -12.667 87 -38c27.333 -16 50.5 -29 69.5 -39l43.5 -23zM341.996 701.002l13 -4l-14 -2z" />
    <glyph glyph-name="Uacute" unicode="&#xda;" horiz-adv-x="579" 
d="M148 712c9.33301 4 23 11.167 41 21.5l72 41.5c44.667 25.333 74 38 88 38c2 0 5 -0.666992 9 -2c4.66699 -2 8.83398 -8 12.501 -18s5.5 -19 5.5 -27c0 -2 -0.666992 -5 -2 -9l1 1c-5.33301 -11.333 -42.333 -23.333 -111 -36l-71.5 -13
c-17.667 -3.33301 -30.834 -6 -39.501 -8zM517 450c0 -65.333 -0.339844 -98.666 -1.00684 -99.999c0 -0.666992 -0.166992 -5.16699 -0.5 -13.5s-1.16602 -19.166 -2.49902 -32.499c-3.33301 -35.333 -11.166 -70.666 -23.499 -105.999s-27.833 -68 -46.5 -98
c-23.333 -34.667 -49.166 -61.334 -77.499 -80.001s-58.5 -28 -90.5 -28c-32.667 0 -65.334 10 -98.001 30c-31.333 19.333 -57 44.666 -77 75.999c-18 32 -32.333 69.333 -43 112s-16 89.667 -16 141c0 20.667 1 43.167 3 67.5s5.33301 50.5 10 78.5c8 54.667 12 86 12 94
s-5.33301 21 -16 39c-3.33301 6 -7.16602 12.333 -11.499 19s-8.83301 12.667 -13.5 18h185c-62 -65.333 -93 -168 -93 -308c0 -74 11.667 -136.333 35 -187c30.667 -68.667 80.334 -103 149.001 -103c32.667 0 61.834 7 87.501 21s46.834 33.667 63.501 59
c28 45.333 42 101.333 42 168c0 73.333 -22 145.666 -66 216.999l-25.5 39.5c-6.33301 9.66699 -10.166 16.167 -11.499 19.5c-12 22.667 -18 43 -18 61c0 13.333 4 24.5 12 33.5s18 13.5 30 13.5c29.333 0 55 -33.333 77 -100c16.667 -52 25 -102.333 25 -151z" />
    <glyph glyph-name="Ucircumflex" unicode="&#xdb;" horiz-adv-x="579" 
d="M275 800l52 -43l52 -43h-9l-114 47l-56.5 -23.5l-56.5 -23.5h-10l52.5 43l52.5 43h37zM517 450c0 -65.333 -0.339844 -98.666 -1.00684 -99.999c0 -0.666992 -0.166992 -5.16699 -0.5 -13.5s-1.16602 -19.166 -2.49902 -32.499
c-3.33301 -35.333 -11.166 -70.666 -23.499 -105.999s-27.833 -68 -46.5 -98c-23.333 -34.667 -49.166 -61.334 -77.499 -80.001s-58.5 -28 -90.5 -28c-32.667 0 -65.334 10 -98.001 30c-31.333 19.333 -57 44.666 -77 75.999c-18 32 -32.333 69.333 -43 112
s-16 89.667 -16 141c0 20.667 1 43.167 3 67.5s5.33301 50.5 10 78.5c8 54.667 12 86 12 94s-5.33301 21 -16 39c-3.33301 6 -7.16602 12.333 -11.499 19s-8.83301 12.667 -13.5 18h185c-62 -65.333 -93 -168 -93 -308c0 -74 11.667 -136.333 35 -187
c30.667 -68.667 80.334 -103 149.001 -103c32.667 0 61.834 7 87.501 21s46.834 33.667 63.501 59c28 45.333 42 101.333 42 168c0 73.333 -22 145.666 -66 216.999l-25.5 39.5c-6.33301 9.66699 -10.166 16.167 -11.499 19.5c-12 22.667 -18 43 -18 61
c0 13.333 4 24.5 12 33.5s18 13.5 30 13.5c29.333 0 55 -33.333 77 -100c16.667 -52 25 -102.333 25 -151z" />
    <glyph glyph-name="Udieresis" unicode="&#xdc;" horiz-adv-x="579" 
d="M172 819c12 0 22.167 -4.5 30.5 -13.5s12.5 -20.167 12.5 -33.5s-4.16699 -24.833 -12.5 -34.5s-18.5 -14.5 -30.5 -14.5s-22.333 4.83301 -31 14.5s-13 21.167 -13 34.5s4.5 24.5 13.5 33.5s19.167 13.5 30.5 13.5zM343 819c11.333 0 21.167 -4.5 29.5 -13.5
s12.5 -20.167 12.5 -33.5s-4.16699 -24.833 -12.5 -34.5s-18.5 -14.5 -30.5 -14.5s-22.333 4.83301 -31 14.5s-13 21.167 -13 34.5s4.5 24.5 13.5 33.5s19.5 13.5 31.5 13.5zM517.001 450c0 -65.333 -0.339844 -98.666 -1.00684 -99.999
c0 -0.666992 -0.166992 -5.16699 -0.5 -13.5s-1.16602 -19.166 -2.49902 -32.499c-3.33301 -35.333 -11.166 -70.666 -23.499 -105.999s-27.833 -68 -46.5 -98c-23.333 -34.667 -49.166 -61.334 -77.499 -80.001s-58.5 -28 -90.5 -28c-32.667 0 -65.334 10 -98.001 30
c-31.333 19.333 -57 44.666 -77 75.999c-18 32 -32.333 69.333 -43 112s-16 89.667 -16 141c0 20.667 1 43.167 3 67.5s5.33301 50.5 10 78.5c8 54.667 12 86 12 94s-5.33301 21 -16 39c-3.33301 6 -7.16602 12.333 -11.499 19s-8.83301 12.667 -13.5 18h185
c-62 -65.333 -93 -168 -93 -308c0 -74 11.667 -136.333 35 -187c30.667 -68.667 80.334 -103 149.001 -103c32.667 0 61.834 7 87.501 21s46.834 33.667 63.501 59c28 45.333 42 101.333 42 168c0 73.333 -22 145.666 -66 216.999l-25.5 39.5
c-6.33301 9.66699 -10.166 16.167 -11.499 19.5c-12 22.667 -18 43 -18 61c0 13.333 4 24.5 12 33.5s18 13.5 30 13.5c29.333 0 55 -33.333 77 -100c16.667 -52 25 -102.333 25 -151z" />
    <glyph glyph-name="Yacute" unicode="&#xdd;" 
 />
    <glyph glyph-name="Thorn" unicode="&#xde;" 
 />
    <glyph glyph-name="germandbls" unicode="&#xdf;" horiz-adv-x="511" 
d="M248 372c-6.66699 1.33301 -10.168 2.66699 -10.501 4s2.83398 2.33301 9.50098 3zM307.999 356.001c96.667 -22 145.003 -85.334 145.003 -190.001c0 -48.667 -10.333 -89 -31 -121h1c-24 -36.667 -57.667 -55 -101 -55c-26 0 -50 8.33301 -72 25s-33 39.334 -33 68.001
c0 13.333 3.83301 25.166 11.5 35.499s17.167 15.5 28.5 15.5c10 0 19 -4 27 -12s12 -17.667 12 -29c0 -6 -0.833008 -12 -2.5 -18s-3.83398 -11.667 -6.50098 -17c-2.66699 -6.66699 -4 -10.667 -4 -12c0 -18 13.667 -27 41 -27c29.333 0 47.666 20.333 54.999 61
c2 12 3 40.667 3 86c0 32.667 -1.5 59.5 -4.5 80.5s-7.16699 36.833 -12.5 47.5c-16.667 32 -55 48 -115 48c-13.333 0 -20 4.66699 -20 14c0 8.66699 6 13.667 18 15v1c4 -0.666992 9.16699 -1.16699 15.5 -1.5s14.166 -0.5 23.499 -0.5c50.667 0 76 44 76 132
c0 100.667 -37 151 -111 151c-53.333 0 -87 -20 -101 -60h1c-8 -22 -12 -62 -12 -120v-473h-100c16.667 22.667 25 64.667 25 126v363c9.33301 63.333 29.833 111.5 61.5 144.5s75.167 49.5 130.5 49.5c47.333 0 88.333 -17.333 123 -52c33.333 -33.333 50 -75.333 50 -126
c0 -38 -11 -70.167 -33 -96.5s-51.333 -41.166 -88 -44.499z" />
    <glyph glyph-name="aacute" unicode="&#xe1;" horiz-adv-x="461" 
d="M122 501c7.33301 3.33301 18.835 9.49902 34.502 18.499l61.5 35.5c19.333 10.667 35.333 18.834 48 24.501s22.667 8.5 30 8.5c2.66699 1.33301 6.16699 -2.16699 10.5 -10.5s7.16602 -18.833 8.49902 -31.5v-6c-4.66699 -10 -36.334 -20 -95.001 -30h1l-61 -11l-34 -6z
M285.002 356.999c0 20 -4.66699 33.833 -14 41.5s-27.333 11.5 -54 11.5c-47.333 0 -82.333 -20.667 -105 -62c-16.667 -30.667 -25 -67 -25 -109s6.33301 -78.667 19 -110c19.333 -47.333 55.333 -71 108 -71c47.333 0 71 8.66699 71 26v273zM285.002 -1.00098
l0.000976562 65.998c-62 -50 -106 -75 -132 -75c-22.667 0 -43.167 6.83301 -61.5 20.5s-34.166 34.834 -47.499 63.501c-19.333 40 -29 78.333 -29 115c0 48.667 7.66699 89.334 23 122.001c44.667 92 116 138 214 138c6 0 12 -0.166992 18 -0.5s12.667 -0.833008 20 -1.5
s13.666 -1.16699 18.999 -1.5s10.666 -0.5 15.999 -0.5h18.5c5 0 10.167 0.666992 15.5 2v-393c2 -20.667 12.333 -39 31 -55h-105z" />
    <glyph glyph-name="acircumflex" unicode="&#xe2;" horiz-adv-x="464" 
d="M232 572c13.333 -13.333 28.167 -27.333 44.5 -42l44.5 -41h-7l-98 39l-49 -19.5l-49 -19.5h-6l44.5 41.5l44.5 41.5h31zM285.001 357c0 20 -4.66699 33.833 -14 41.5s-27.333 11.5 -54 11.5c-47.333 0 -82.333 -20.667 -105 -62c-16.667 -30.667 -25 -67 -25 -109
s6.33301 -78.667 19 -110c19.333 -47.333 55.333 -71 108 -71c47.333 0 71 8.66699 71 26v273zM285.001 -1l0.000976562 65.998c-62 -50 -106 -75 -132 -75c-22.667 0 -43.167 6.83301 -61.5 20.5s-34.166 34.834 -47.499 63.501c-19.333 40 -29 78.333 -29 115
c0 48.667 7.66699 89.334 23 122.001c44.667 92 116 138 214 138c6 0 12 -0.166992 18 -0.5s12.667 -0.833008 20 -1.5s13.666 -1.16699 18.999 -1.5s10.666 -0.5 15.999 -0.5h18.5c5 0 10.167 0.666992 15.5 2v-393c2 -20.667 12.333 -39 31 -55h-105z" />
    <glyph glyph-name="atilde" unicode="&#xe3;" horiz-adv-x="434" 
d="M359 579c-5.33301 -11.333 -10.999 -21.168 -16.999 -29.501s-13 -15.833 -21 -22.5c-18.667 -18.667 -36.334 -28 -53.001 -28c-12.667 0 -33.334 6 -62.001 18c-30 12 -53.333 18 -70 18c-21.333 0 -44 -14.667 -68 -44c28.667 54 59.667 81 93 81
c6.66699 0 14.834 -1.66699 24.501 -5s21.167 -7.66602 34.5 -12.999c28.667 -11.333 50.667 -17 66 -17c28.667 0 53 14 73 42zM285.001 356.998c0 20 -4.66699 33.833 -14 41.5s-27.333 11.5 -54 11.5c-47.333 0 -82.333 -20.667 -105 -62
c-16.667 -30.667 -25 -67 -25 -109s6.33301 -78.667 19 -110c19.333 -47.333 55.333 -71 108 -71c47.333 0 71 8.66699 71 26v273zM285.001 -1.00195l0.000976562 65.998c-62 -50 -106 -75 -132 -75c-22.667 0 -43.167 6.83301 -61.5 20.5s-34.166 34.834 -47.499 63.501
c-19.333 40 -29 78.333 -29 115c0 48.667 7.66699 89.334 23 122.001c44.667 92 116 138 214 138c6 0 12 -0.166992 18 -0.5s12.667 -0.833008 20 -1.5s13.666 -1.16699 18.999 -1.5s10.666 -0.5 15.999 -0.5h18.5c5 0 10.167 0.666992 15.5 2v-393
c2 -20.667 12.333 -39 31 -55h-105z" />
    <glyph glyph-name="adieresis" unicode="&#xe4;" horiz-adv-x="461" 
d="M291 580c9.33301 0 17.5 -4 24.5 -12s10.5 -17.667 10.5 -29s-3.5 -21 -10.5 -29s-15.5 -12 -25.5 -12c-9.33301 0 -17.5 4 -24.5 12s-10.5 17.667 -10.5 29s3.5 21 10.5 29s15.5 12 25.5 12zM144 580c10.667 0 19.333 -4 26 -12s10 -17.667 10 -29s-3.5 -21 -10.5 -29
s-15.5 -12 -25.5 -12s-18.5 4 -25.5 12s-10.5 17.667 -10.5 29s3.5 21 10.5 29s15.5 12 25.5 12zM284.999 357c0 20 -4.66699 33.833 -14 41.5s-27.333 11.5 -54 11.5c-47.333 0 -82.333 -20.667 -105 -62c-16.667 -30.667 -25 -67 -25 -109s6.33301 -78.667 19 -110
c19.333 -47.333 55.333 -71 108 -71c47.333 0 71 8.66699 71 26v273zM284.999 -1l0.000976562 65.998c-62 -50 -106 -75 -132 -75c-22.667 0 -43.167 6.83301 -61.5 20.5s-34.166 34.834 -47.499 63.501c-19.333 40 -29 78.333 -29 115c0 48.667 7.66699 89.334 23 122.001
c44.667 92 116 138 214 138c6 0 12 -0.166992 18 -0.5s12.667 -0.833008 20 -1.5s13.666 -1.16699 18.999 -1.5s10.666 -0.5 15.999 -0.5h18.5c5 0 10.167 0.666992 15.5 2v-393c2 -20.667 12.333 -39 31 -55h-105z" />
    <glyph glyph-name="aring" unicode="&#xe5;" horiz-adv-x="459" 
d="M226 613c-15.333 0 -28.332 -4.83301 -38.999 -14.5s-16 -22.167 -16 -37.5c0 -13.333 5.33301 -25.166 16 -35.499s24 -15.5 40 -15.5c15.333 0 28.5 5.16699 39.5 15.5s16.5 22.166 16.5 35.499c0 15.333 -5.33301 27.833 -16 37.5s-24.334 14.5 -41.001 14.5z
M227.001 632c18 0 33.333 -6.83301 46 -20.5s19 -30.5 19 -50.5c0 -19.333 -6.33301 -35.666 -19 -48.999s-28 -20 -46 -20s-33.333 6.66699 -46 20s-19 29.666 -19 48.999c0 20 6.33301 36.833 19 50.5s28 20.5 46 20.5zM285.001 357c0 20 -4.66699 33.833 -14 41.5
s-27.333 11.5 -54 11.5c-47.333 0 -82.333 -20.667 -105 -62c-16.667 -30.667 -25 -67 -25 -109s6.33301 -78.667 19 -110c19.333 -47.333 55.333 -71 108 -71c47.333 0 71 8.66699 71 26v273zM285.001 -1l0.000976562 65.998c-62 -50 -106 -75 -132 -75
c-22.667 0 -43.167 6.83301 -61.5 20.5s-34.166 34.834 -47.499 63.501c-19.333 40 -29 78.333 -29 115c0 48.667 7.66699 89.334 23 122.001c44.667 92 116 138 214 138c6 0 12 -0.166992 18 -0.5s12.667 -0.833008 20 -1.5s13.666 -1.16699 18.999 -1.5
s10.666 -0.5 15.999 -0.5h18.5c5 0 10.167 0.666992 15.5 2v-393c2 -20.667 12.333 -39 31 -55h-105z" />
    <glyph glyph-name="ae" unicode="&#xe6;" horiz-adv-x="640" 
d="M343 289c-1.33301 -5.33301 -0.333984 -20 2.99902 -44c3.33301 -22 9 -38 17 -48l30 20.5l26 17.5c11.333 7.33301 20.5 13 27.5 17s12.5 8 16.5 12c37.333 30.667 56 62 56 94c0 26.667 -7 45 -21 55c-1.33301 0.666992 -2.83301 1.66699 -4.5 3
s-1.83398 1.33301 -0.500977 0l-22 15c-1.33301 0 -3.16602 0.166992 -5.49902 0.5s-4.16602 0.5 -5.49902 0.5c-22 1.33301 -43.333 -6 -64 -22c-21.333 -17.333 -34 -34.333 -38 -51zM213.999 413c-23.333 0 -43.167 -4.99902 -59.5 -14.999s-30.166 -24.667 -41.499 -44
c-18.667 -33.333 -28 -71.666 -28 -114.999c0 -24 2.16699 -45.833 6.5 -65.5s10.5 -37.834 18.5 -54.501c11.333 -20 25.333 -35.167 42 -45.5s37 -15.5 61 -15.5c8 0 16.167 1.33301 24.5 4s16.166 6.5 23.499 11.5s13.333 10.667 18 17s7 13.166 7 20.499l-2 246
c0 37.333 -23.333 56 -70 56zM314.998 84.001c-34 -62.667 -88.332 -93.999 -162.999 -93.999c-40.667 0 -74.334 23 -101.001 69c-24.667 41.333 -37 84.666 -37 129.999c0 63.333 17 121 51 173c38.667 60 86.667 90 144 90c21.333 0 44 -13 68 -39l7 17l8 19h57v-42
c44.667 34 80 51 106 51c33.333 0 62.833 -10.333 88.5 -31s44.5 -47.667 56.5 -81l-229 -180c0 -26 16.667 -53.667 50 -83c34.667 -28.667 65.667 -43 93 -43c28 0 51 3 69 9c-15.333 -16.667 -33.333 -30.5 -54 -41.5s-40.667 -16.5 -60 -16.5c-38 0 -67 6 -87 18
c-19.333 12 -36.333 37 -51 75h-16z" />
    <glyph glyph-name="ccedilla" unicode="&#xe7;" horiz-adv-x="379" 
d="M165 -78l-4 6c1.33301 -0.666992 1.83301 -1 1.5 -1s0.166992 -0.333008 1.5 -1c0.666992 0 1.16699 0.166992 1.5 0.5s0.833008 0.5 1.5 0.5zM187 -57c16 4 26.6631 6 31.9961 6c35.333 0 53 -15.667 53 -47c0 -10.667 -2 -20.167 -6 -28.5s-10.333 -14.833 -19 -19.5
c-16 -8.66699 -34.667 -13 -56 -13c-9.33301 0 -18.833 0.666992 -28.5 2s-19.167 3.66602 -28.5 6.99902c1.33301 2.66699 2.5 5.5 3.5 8.5s2.16699 5.83301 3.5 8.5c14.667 -4 28.334 -6 41.001 -6c34 0 51 11.667 51 35c0 21.333 -14.667 32 -44 32
c-3.33301 0 -7 0.166992 -11 0.5s-7.66699 -0.166992 -11 -1.5l28 64c-53.333 5.33301 -96.666 34.666 -129.999 87.999c-13.333 22 -24.166 46.667 -32.499 74s-12.5 54 -12.5 80c0 58.667 17 110 51 154c35.333 50 79.333 75 132 75c26.667 0 50.334 -9.33301 71.001 -28
c19.333 -17.333 29 -40.666 29 -69.999c0 -6 -1.5 -12 -4.5 -18s-6.83301 -11.5 -11.5 -16.5s-9.83398 -9 -15.501 -12s-11.167 -4.5 -16.5 -4.5c-14.667 0 -24.667 8.33301 -30 25c-1.33301 4 -2.16602 8.16699 -2.49902 12.5s-1.16602 8.83301 -2.49902 13.5
s-2.33301 8.83398 -3 12.501s-1.33398 8.5 -2.00098 14.5c-4.66699 20.667 -19.334 31 -44.001 31c-34.667 0 -59.667 -18 -75 -54c-5.33301 -13.333 -9.83301 -27.833 -13.5 -43.5s-5.5 -31.5 -5.5 -47.5c0 -54.667 13.667 -103 41 -145c33.333 -49.333 77.333 -74 132 -74
c36.667 0 71.667 6.33301 105 19c-31.333 -52 -81.666 -80.667 -150.999 -86z" />
    <glyph glyph-name="eacute" unicode="&#xe9;" horiz-adv-x="362" 
d="M82 501c7.33301 3.33301 18.835 9.49902 34.502 18.499l61.5 35.5c18.667 10.667 34.5 18.834 47.5 24.501s23.167 8.5 30.5 8.5c2.66699 1.33301 6.16699 -2.16699 10.5 -10.5s7.16602 -18.833 8.49902 -31.5v-6c-4.66699 -10 -36.334 -20 -95.001 -30h1l-61 -11l-34 -6
zM248.002 357.999c0 26.667 -8.00391 46.0029 -24.0039 58.0029c-2 1.33301 -4.66699 2.66602 -8 3.99902s-5.66602 2.66602 -6.99902 3.99902l-10 7c-19.333 1.33301 -37.166 -1.83398 -53.499 -9.50098s-30.166 -19.167 -41.499 -34.5
c-9.33301 -13.333 -16.833 -27.333 -22.5 -42s-8.5 -29 -8.5 -43c0 -38.667 4 -73.334 12 -104.001l46 27l17.5 12.5l18.5 13.5c6.66699 5.33301 14.334 10.833 23.001 16.5s16.667 11.167 24 16.5c22.667 18.667 34 43.334 34 74.001zM98.998 166.002
c-1.33301 -21.333 15.001 -48.3301 49.001 -80.9971c32.667 -33.333 64.667 -48.333 96 -45c7.33301 0.666992 13.166 1.16699 17.499 1.5s8.16602 0.5 11.499 0.5h7c5.33301 0.666992 11 1.66699 17 3s11 2.66602 15 3.99902c-15.333 -16.667 -33.666 -30.5 -54.999 -41.5
s-41.333 -16.5 -60 -16.5c-28 0 -53.833 7.16699 -77.5 21.5s-44.167 34.5 -61.5 60.5c-14 22 -24.833 45.667 -32.5 71s-11.5 51.666 -11.5 78.999c0 57.333 14.667 108.666 44 153.999c16 26.667 34.5 46.5 55.5 59.5s44.167 20.167 69.5 21.5
c32 0.666992 60.667 -8 86 -26c16.667 -11.333 32 -29.666 46 -54.999l-1 1l9 -18c2.66699 -4.66699 5 -9.33398 7 -14.001z" />
    <glyph glyph-name="ecircumflex" unicode="&#xea;" horiz-adv-x="365" 
d="M202 572c13.333 -13.333 28.167 -27.333 44.5 -42l44.5 -41h-7l-98 39l-49 -19.5l-49 -19.5h-6l44.5 41.5l44.5 41.5h31zM248.001 358c0 26.667 -8.00391 46.0029 -24.0039 58.0029c-2 1.33301 -4.66699 2.66602 -8 3.99902s-5.66602 2.66602 -6.99902 3.99902l-10 7
c-19.333 1.33301 -37.166 -1.83398 -53.499 -9.50098s-30.166 -19.167 -41.499 -34.5c-9.33301 -13.333 -16.833 -27.333 -22.5 -42s-8.5 -29 -8.5 -43c0 -38.667 4 -73.334 12 -104.001l46 27l17.5 12.5l18.5 13.5c6.66699 5.33301 14.334 10.833 23.001 16.5
s16.667 11.167 24 16.5c22.667 18.667 34 43.334 34 74.001zM98.9971 166.003c-1.33301 -21.333 15.001 -48.3301 49.001 -80.9971c32.667 -33.333 64.667 -48.333 96 -45c7.33301 0.666992 13.166 1.16699 17.499 1.5s8.16602 0.5 11.499 0.5h7
c5.33301 0.666992 11 1.66699 17 3s11 2.66602 15 3.99902c-15.333 -16.667 -33.666 -30.5 -54.999 -41.5s-41.333 -16.5 -60 -16.5c-28 0 -53.833 7.16699 -77.5 21.5s-44.167 34.5 -61.5 60.5c-14 22 -24.833 45.667 -32.5 71s-11.5 51.666 -11.5 78.999
c0 57.333 14.667 108.666 44 153.999c16 26.667 34.5 46.5 55.5 59.5s44.167 20.167 69.5 21.5c32 0.666992 60.667 -8 86 -26c16.667 -11.333 32 -29.666 46 -54.999l-1 1l9 -18c2.66699 -4.66699 5 -9.33398 7 -14.001z" />
    <glyph glyph-name="edieresis" unicode="&#xeb;" horiz-adv-x="363" 
d="M261 580c9.33301 0 17.5 -4 24.5 -12s10.5 -17.667 10.5 -29s-3.5 -21 -10.5 -29s-15.5 -12 -25.5 -12c-9.33301 0 -17.5 4 -24.5 12s-10.5 17.667 -10.5 29s3.5 21 10.5 29s15.5 12 25.5 12zM114 580c10.667 0 19.333 -4 26 -12s10 -17.667 10 -29s-3.5 -21 -10.5 -29
s-15.5 -12 -25.5 -12s-18.5 4 -25.5 12s-10.5 17.667 -10.5 29s3.5 21 10.5 29s15.5 12 25.5 12zM247.999 358c0 26.667 -8.00391 46.0029 -24.0039 58.0029c-2 1.33301 -4.66699 2.66602 -8 3.99902s-5.66602 2.66602 -6.99902 3.99902l-10 7
c-19.333 1.33301 -37.166 -1.83398 -53.499 -9.50098s-30.166 -19.167 -41.499 -34.5c-9.33301 -13.333 -16.833 -27.333 -22.5 -42s-8.5 -29 -8.5 -43c0 -38.667 4 -73.334 12 -104.001l46 27l17.5 12.5l18.5 13.5c6.66699 5.33301 14.334 10.833 23.001 16.5
s16.667 11.167 24 16.5c22.667 18.667 34 43.334 34 74.001zM98.9951 166.003c-1.33301 -21.333 15.001 -48.3301 49.001 -80.9971c32.667 -33.333 64.667 -48.333 96 -45c7.33301 0.666992 13.166 1.16699 17.499 1.5s8.16602 0.5 11.499 0.5h7
c5.33301 0.666992 11 1.66699 17 3s11 2.66602 15 3.99902c-15.333 -16.667 -33.666 -30.5 -54.999 -41.5s-41.333 -16.5 -60 -16.5c-28 0 -53.833 7.16699 -77.5 21.5s-44.167 34.5 -61.5 60.5c-14 22 -24.833 45.667 -32.5 71s-11.5 51.666 -11.5 78.999
c0 57.333 14.667 108.666 44 153.999c16 26.667 34.5 46.5 55.5 59.5s44.167 20.167 69.5 21.5c32 0.666992 60.667 -8 86 -26c16.667 -11.333 32 -29.666 46 -54.999l-1 1l9 -18c2.66699 -4.66699 5 -9.33398 7 -14.001z" />
    <glyph glyph-name="igrave" unicode="&#xec;" horiz-adv-x="246" 
d="M8 -8l14.5 15.0029c4.33301 4.66699 8.16602 9.33398 11.499 14.001c5.33301 8.66699 9.83301 18.334 13.5 29.001s5.83398 22.667 6.50098 36v170c0 66 -1.33301 103 -4 111c-1.33301 5.33301 -4 10.666 -8 15.999s-9.33301 11.666 -16 18.999h1
c-1.33301 1.33301 -3.66602 3.16602 -6.99902 5.49902s-5.66602 4.16602 -6.99902 5.49902s-2.83301 2.66602 -4.5 3.99902s-5.16699 4.66602 -10.5 9.99902c15.333 2.66699 30.333 5.83398 45 9.50098s28.667 7.5 42 11.5c7.33301 4.66699 17.166 10.167 29.499 16.5
s27.166 13.5 44.499 21.5v-398c0 -36 13.667 -65.667 41 -89l-6 -7h-186zM173 492.003c-8.66699 1.33301 -21.167 3.66699 -37.5 7s-35.5 7 -57.5 11c-28 5.33301 -50.333 10.5 -67 15.5s-26 9.83301 -28 14.5c-0.666992 0.666992 -1 2.66699 -1 6
c0 8 1.66699 16.167 5 24.5s7 13.5 11 15.5h-1c4 1.33301 6.33301 2 7 2c11.333 0 36 -11 74 -33l61 -34.5c16.667 -9 29 -15.5 37 -19.5zM173 492.004c6 -2 9.66699 -3 11 -3l-13 -2z" />
    <glyph glyph-name="iacute" unicode="&#xed;" 
d="M-8 501c7.33301 3.33301 18.835 9.49902 34.502 18.499l61.5 35.5c18.667 10.667 34.5 18.834 47.5 24.501s23.167 8.5 30.5 8.5c2.66699 1.33301 6.16699 -2.16699 10.5 -10.5s7.16602 -18.833 8.49902 -31.5v-6c-4.66699 -10 -36.334 -20 -95.001 -30h1l-61 -11l-34 -6
zM34.002 -0.000976562l7.99609 8c2.66699 2.66699 5 5.66699 7 9c7.33301 10 12.833 21.167 16.5 33.5s5.83398 24.166 6.50098 35.499v170c0 65.333 -1.33301 103 -4 113c-2 8 -11.333 20.333 -28 37c-1.33301 1.33301 -3.16602 2.83301 -5.49902 4.5
s-4.16602 3.16699 -5.49902 4.5h1c-1.33301 1.33301 -2.83301 2.5 -4.5 3.5s-3.16699 2.16699 -4.5 3.5c14.667 2 28 4.66699 40 8s23 7 33 11c5.33301 3.33301 11.833 7 19.5 11s16.834 8.33301 27.501 13v-377c0 -33.333 13 -62.666 39 -87.999h-146z" />
    <glyph glyph-name="icircumflex" unicode="&#xee;" horiz-adv-x="256" 
d="M112 572c13.333 -13.333 28.167 -27.333 44.5 -42l44.5 -41h-7l-98 39l-49 -19.5l-49 -19.5h-6l44.5 41.5l44.5 41.5h31zM34.001 0c5.33301 5.33301 9.99707 11 13.9971 17c7.33301 10 13 21.167 17 33.5s6.33301 24.166 7 35.499v170c0 65.333 -1.33301 103 -4 113
c-2 8 -11.333 20.333 -28 37c-1.33301 1.33301 -3.16602 2.83301 -5.49902 4.5s-4.16602 3.16699 -5.49902 4.5h1c-1.33301 1.33301 -2.83301 2.5 -4.5 3.5s-3.16699 2.16699 -4.5 3.5c14 2 27.167 4.66699 39.5 8s23.5 7 33.5 11c5.33301 3.33301 11.833 7 19.5 11
s16.834 8.33301 27.501 13v-377c0 -33.333 13 -62.666 39 -87.999h-146z" />
    <glyph glyph-name="idieresis" unicode="&#xef;" horiz-adv-x="248" 
d="M151 580c9.33301 0 17.5 -4 24.5 -12s10.5 -17.667 10.5 -29s-3.5 -21 -10.5 -29s-15.5 -12 -25.5 -12s-18.5 4 -25.5 12s-10.5 17.667 -10.5 29s3.5 21 10.5 29s15.833 12 26.5 12zM24 580c10.667 0 19.333 -4 26 -12s10 -17.667 10 -29s-3.5 -21 -10.5 -29
s-15.5 -12 -25.5 -12s-18.5 4 -25.5 12s-10.5 17.667 -10.5 29s3.5 21 10.5 29s15.5 12 25.5 12zM33.999 0l7.99609 8c2.66699 2.66699 5 5.66699 7 9c7.33301 10 12.833 21.167 16.5 33.5s5.83398 24.166 6.50098 35.499v170c0 65.333 -1.33301 103 -4 113
c-2 8 -11.333 20.333 -28 37c-1.33301 1.33301 -3.16602 2.83301 -5.49902 4.5s-4.16602 3.16699 -5.49902 4.5h1c-1.33301 1.33301 -2.83301 2.5 -4.5 3.5s-3.16699 2.16699 -4.5 3.5c14.667 2 28 4.66699 40 8s23 7 33 11c5.33301 3.33301 11.833 7 19.5 11
s16.834 8.33301 27.501 13v-377c0 -33.333 13 -62.666 39 -87.999h-146z" />
    <glyph glyph-name="eth" unicode="&#xf0;" 
 />
    <glyph glyph-name="ntilde" unicode="&#xf1;" horiz-adv-x="498" 
d="M359 589c-6 -11.333 -11.998 -21.167 -17.998 -29.5s-12.667 -15.833 -20 -22.5c-18.667 -18.667 -36.334 -28 -53.001 -28c-12.667 0 -33.334 6 -62.001 18c-30 12 -53.333 18 -70 18c-21.333 0 -44 -14.667 -68 -44c28.667 54 59.334 81 92.001 81
c12.667 0 32.667 -6 60 -18c28 -11.333 50 -17 66 -17c27.333 0 51.666 14 72.999 42zM275.002 -1.00098c20 25.333 34.499 62.998 43.499 112.998s13.5 113.333 13.5 190c0 32 -4.33301 55.667 -13 71c-12 22 -34.667 33 -68 33c-11.333 0 -51 -10.667 -119 -32v-279
c0 -31.333 15 -63 45 -95h-156c13.333 10 23 23 29 39s9 35.667 9 59v245c0 34 -15 61.667 -45 83c23.333 6.66699 45 13.834 65 21.501s37 16.167 51 25.5v-68c110.667 40 171.667 60 183 60c36.667 0 63 -11 79 -33c12 -17.333 18 -47.666 18 -90.999
c0 -32 -3 -72.333 -9 -121l-6 -61c-2 -20 -4.33301 -40.333 -7 -61c-2 -18 1 -37.667 9 -59c6.66699 -17.333 15.334 -30.333 26.001 -39z" />
    <glyph glyph-name="oacute" unicode="&#xf3;" horiz-adv-x="494" 
d="M132 501c7.33301 3.33301 18.835 9.49902 34.502 18.499l61.5 35.5c18.667 10.667 34.5 18.834 47.5 24.501s23.167 8.5 30.5 8.5c2.66699 1.33301 6.16699 -2.16699 10.5 -10.5s7.16602 -18.833 8.49902 -31.5v-6c-4.66699 -10 -36.334 -20 -95.001 -30h1l-61 -11
l-34 -6zM405.002 176.999c0 40 -19.668 85.333 -59.001 136c-41.333 50.667 -83.666 76 -126.999 76c-102 0 -153 -42.333 -153 -127c0 -49.333 23.667 -95.666 71 -138.999c46 -42 95.667 -63 149 -63c16.667 0 32.167 3 46.5 9s26.833 14.167 37.5 24.5
s19.167 22.666 25.5 36.999s9.5 29.833 9.5 46.5zM444.001 235.999c0 -30.667 -5.33301 -60.499 -16 -89.499s-26 -55.167 -46 -78.5c-46 -51.333 -98 -77 -156 -77c-25.333 0 -50.333 6 -75 18s-47.667 29 -69 51c-41.333 46.667 -62 97.667 -62 153c0 64 19 120 57 168v-1
c42 52 92 78 150 78c70 0 123.667 -19.333 161 -58s56 -93.334 56 -164.001z" />
    <glyph glyph-name="ocircumflex" unicode="&#xf4;" horiz-adv-x="491" 
d="M252 572c13.333 -13.333 28.167 -27.333 44.5 -42l44.5 -41h-7l-98 39l-49 -19.5l-49 -19.5h-6l44.5 41.5l44.5 41.5h31zM405.001 177c0 40 -19.668 85.333 -59.001 136c-41.333 50.667 -83.666 76 -126.999 76c-102 0 -153 -42.333 -153 -127
c0 -49.333 23.667 -95.666 71 -138.999c46 -42 95.667 -63 149 -63c16.667 0 32.167 3 46.5 9s26.833 14.167 37.5 24.5s19.167 22.666 25.5 36.999s9.5 29.833 9.5 46.5zM444 236c0 -30.667 -5.33301 -60.499 -16 -89.499s-26 -55.167 -46 -78.5
c-46 -51.333 -98 -77 -156 -77c-25.333 0 -50.333 6 -75 18s-47.667 29 -69 51c-41.333 46.667 -62 97.667 -62 153c0 64 19 120 57 168v-1c42 52 92 78 150 78c70 0 123.667 -19.333 161 -58s56 -93.334 56 -164.001z" />
    <glyph glyph-name="otilde" unicode="&#xf5;" horiz-adv-x="486" 
d="M369 579c-6 -11.333 -11.999 -21.168 -17.999 -29.501s-12.667 -15.833 -20 -22.5c-18.667 -18.667 -36.334 -28 -53.001 -28c-12.667 0 -33.334 6 -62.001 18c-31.333 12 -54.666 18 -69.999 18c-22 0 -44.667 -14.667 -68 -44c28.667 54 59.334 81 92.001 81
c6.66699 0 15 -1.66699 25 -5s21.667 -7.66602 35 -12.999c28 -11.333 50 -17 66 -17c27.333 0 51.666 14 72.999 42zM405.001 176.998c0 40 -19.668 85.333 -59.001 136c-41.333 50.667 -83.666 76 -126.999 76c-102 0 -153 -42.333 -153 -127
c0 -49.333 23.667 -95.666 71 -138.999c46 -42 95.667 -63 149 -63c16.667 0 32.167 3 46.5 9s26.833 14.167 37.5 24.5s19.167 22.666 25.5 36.999s9.5 29.833 9.5 46.5zM444 235.998c0 -30.667 -5.33301 -60.499 -16 -89.499s-26 -55.167 -46 -78.5
c-46 -51.333 -98 -77 -156 -77c-25.333 0 -50.333 6 -75 18s-47.667 29 -69 51c-41.333 46.667 -62 97.667 -62 153c0 64 19 120 57 168v-1c42 52 92 78 150 78c70 0 123.667 -19.333 161 -58s56 -93.334 56 -164.001z" />
    <glyph glyph-name="odieresis" unicode="&#xf6;" horiz-adv-x="485" 
d="M301 580c9.33301 0 17.499 -4 24.499 -12s10.5 -17.667 10.5 -29s-3.5 -21 -10.5 -29s-15.5 -12 -25.5 -12c-9.33301 0 -17.666 4 -24.999 12s-11 17.667 -11 29s3.66699 21 11 29s16 12 26 12zM153.999 580c10 0 18.499 -4 25.499 -12s10.5 -17.667 10.5 -29
s-3.66699 -21 -11 -29s-15.666 -12 -24.999 -12c-10 0 -18.5 4 -25.5 12s-10.5 17.667 -10.5 29s3.5 21 10.5 29s15.5 12 25.5 12zM404.998 177c0 40 -19.668 85.333 -59.001 136c-41.333 50.667 -83.666 76 -126.999 76c-102 0 -153 -42.333 -153 -127
c0 -49.333 23.667 -95.666 71 -138.999c46 -42 95.667 -63 149 -63c16.667 0 32.167 3 46.5 9s26.833 14.167 37.5 24.5s19.167 22.666 25.5 36.999s9.5 29.833 9.5 46.5zM443.997 236c0 -30.667 -5.33301 -60.499 -16 -89.499s-26 -55.167 -46 -78.5
c-46 -51.333 -98 -77 -156 -77c-25.333 0 -50.333 6 -75 18s-47.667 29 -69 51c-41.333 46.667 -62 97.667 -62 153c0 64 19 120 57 168v-1c42 52 92 78 150 78c70 0 123.667 -19.333 161 -58s56 -93.334 56 -164.001z" />
    <glyph glyph-name="divide" unicode="&#xf7;" horiz-adv-x="556" 
d="M304 108c14 0 26.333 -5.83398 37 -17.501s16 -25.167 16 -40.5c0 -16 -5.5 -29.667 -16.5 -41s-23.5 -17 -37.5 -17s-26.5 5.5 -37.5 16.5s-16.5 25.167 -16.5 42.5c0 16.667 5.33301 30.334 16 41.001s23.667 16 39 16zM304 512.999
c14 0 26.3311 -5.83301 36.998 -17.5s16 -25.5 16 -41.5c0 -15.333 -5.16699 -28.833 -15.5 -40.5s-23.166 -17.5 -38.499 -17.5s-28.166 5.66699 -38.499 17s-15.5 25.333 -15.5 42c0 16 5.33301 29.667 16 41s23.667 17 39 17zM56.998 214.999v73h492v-73h-492z" />
    <glyph glyph-name="oslash" unicode="&#xf8;" horiz-adv-x="506" 
d="M403 452c-2 2 -1.66699 2.33301 1 1zM317 344c-34 30 -66.667 45 -98 45c-102 0 -153 -42.333 -153 -127c0 -45.333 24.667 -92.333 74 -141zM405 177c0 47.333 -25.333 99.334 -76 156.001l-176 -223c44.667 -33.333 89 -50 133 -50c16.667 0 32.167 3 46.5 9
s26.833 14.167 37.5 24.5s19.167 22.666 25.5 36.999s9.5 29.833 9.5 46.5zM444 236.001c0 -30.667 -5.33203 -60.5 -15.999 -89.5s-26 -55.167 -46 -78.5c-46 -51.333 -98 -77 -156 -77c-21.333 0 -42.333 4.33301 -63 13s-42 21.667 -64 39
c-5.33301 -6 -11.5 -13.667 -18.5 -23l-19.5 -25c-3.33301 2 -5.83301 3.83301 -7.5 5.5s-3.5 3.16699 -5.5 4.5l39 50c-44.667 45.333 -67 98 -67 158c0 64 19 120 57 168v-1c42 52 92 78 150 78c55.333 0 104 -14.333 146 -43l14 18c5.33301 6.66699 10.666 13 15.999 19
c1.33301 -1.33301 3.33301 -2.83301 6 -4.5l7 -4.5l-31 -39c39.333 -40.667 59 -96.667 59 -168z" />
    <glyph glyph-name="ugrave" unicode="&#xf9;" horiz-adv-x="462" 
d="M293 -9l-0.00195312 40c-42.667 -17.333 -77.167 -30.166 -103.5 -38.499s-46.166 -12.5 -59.499 -12.5c-20.667 0 -39.167 3.83301 -55.5 11.5s-29.5 17.834 -39.5 30.501c-7.33301 12 -13.333 25.333 -18 40s-7 30 -7 46l29 257
c-0.666992 10 -2.16699 19.833 -4.5 29.5s-6.16602 17.167 -11.499 22.5c-1.33301 1.33301 -2.33301 3 -3 5s-1 7 -1 15l-9 4c49.333 1.33301 105.666 23 168.999 65l-50 -361c0.666992 -14.667 3 -28.334 7 -41.001s10 -22.334 18 -29.001c14.667 -12 33.667 -18 57 -18
c10.667 0 39.334 9.66699 86.001 29v233c-1.33301 8.66699 -2.83301 17 -4.5 25s-3.16699 16 -4.5 24c-4.66699 16 -12 29.333 -22 40s-21.667 18 -35 22c25.333 7.33301 52 16.5 80 27.5s58.667 24.167 92 39.5v-412c2.66699 -12 4.66699 -21.833 6 -29.5
s2.33301 -12.5 3 -14.5l-1 1c6.66699 -13.333 18 -28 34 -44l-6 -7h-146zM302.998 512c-8.66699 1.33301 -21.168 3.66699 -37.501 7s-35.5 7 -57.5 11c-28 5.33301 -50.333 10.5 -67 15.5s-26 9.83301 -28 14.5c-0.666992 0.666992 -1 2.66699 -1 6
c0 8.66699 1.66699 17 5 25s7 13 11 15h-1c4 1.33301 6.33301 2 7 2c10.667 0 35.334 -10.667 74.001 -32c24 -14.667 44.333 -26.5 61 -35.5s29 -15.5 37 -19.5zM302.997 512.001c6 -2 9.66699 -3 11 -3l-13 -2z" />
    <glyph glyph-name="ucircumflex" unicode="&#xfb;" horiz-adv-x="462" 
d="M23 434c-3.33301 0 -7 -0.166016 -11 -0.499023s-7.66699 -0.5 -11 -0.5c0 9.33301 1.83301 13.666 5.5 12.999s9.16699 -4.66699 16.5 -12zM232 592.001c13.333 -13.333 28.167 -27.333 44.5 -42l44.5 -41h-7l-98 39l-49 -19.5l-49 -19.5h-6l44.5 41.5l44.5 41.5h31z
M311.001 -0.999023v50.998c-98 -41.333 -158.333 -62 -181 -62c-36.667 0 -63.667 12.667 -81 38c-6.66699 9.33301 -11.667 21.333 -15 36s-5.33301 30 -6 46l29 257c0 24 -7.33301 43.333 -22 58c-2.66699 2 -4.83398 4 -6.50098 6s-3.5 3.66699 -5.5 5
c46.667 5.33301 91.334 20.333 134.001 45l-46 -332c-0.666992 -33.333 9.66602 -59.333 30.999 -78c17.333 -13.333 40.333 -20 69 -20c17.333 0 52 11 104 33v239c-1.33301 8.66699 -2.83301 17 -4.5 25s-3.16699 16 -4.5 24c-3.33301 14.667 -9 26.834 -17 36.501
s-16.667 17.167 -26 22.5c38.667 12.667 79.334 28.334 122.001 47.001v-393c2.66699 -12 4.5 -21.333 5.5 -28s1.83301 -10.667 2.5 -12c3.33301 -6 7.33301 -12.5 12 -19.5s11.667 -15.167 21 -24.5h-115z" />
    <glyph glyph-name="udieresis" unicode="&#xfc;" horiz-adv-x="464" 
d="M23 434c-3.33301 0 -7 -0.166016 -11 -0.499023s-7.66699 -0.5 -11 -0.5c0 9.33301 1.83301 13.666 5.5 12.999s9.16699 -4.66699 16.5 -12zM291 600.001c9.33301 0 17.499 -4 24.499 -12s10.5 -17.667 10.5 -29s-3.5 -21 -10.5 -29s-15.5 -12 -25.5 -12
c-9.33301 0 -17.666 4 -24.999 12s-11 17.667 -11 29c0 12 3.66699 21.833 11 29.5s16 11.5 26 11.5zM143.999 600.001c10 0 18.499 -4 25.499 -12s10.5 -17.667 10.5 -29s-3.66699 -21 -11 -29s-15.666 -12 -24.999 -12c-10 0 -18.5 4 -25.5 12s-10.5 17.667 -10.5 29
s3.5 21 10.5 29s15.5 12 25.5 12zM310.998 -0.999023v50.998c-98 -41.333 -158.333 -62 -181 -62c-36.667 0 -63.667 12.667 -81 38c-6.66699 9.33301 -11.667 21.333 -15 36s-5.33301 30 -6 46l29 257c0 24 -7.33301 43.333 -22 58c-2.66699 2 -4.83398 4 -6.50098 6
s-3.5 3.66699 -5.5 5c46.667 5.33301 91.334 20.333 134.001 45l-46 -332c-0.666992 -33.333 9.66602 -59.333 30.999 -78c17.333 -13.333 40.333 -20 69 -20c17.333 0 52 11 104 33v239c-1.33301 8.66699 -2.83301 17 -4.5 25s-3.16699 16 -4.5 24
c-3.33301 14.667 -9 26.834 -17 36.501s-16.667 17.167 -26 22.5c38.667 12.667 79.334 28.334 122.001 47.001v-393c2.66699 -12 4.5 -21.333 5.5 -28s1.83301 -10.667 2.5 -12c3.33301 -6 7.33301 -12.5 12 -19.5s11.667 -15.167 21 -24.5h-115z" />
    <glyph glyph-name="yacute" unicode="&#xfd;" 
 />
    <glyph glyph-name="thorn" unicode="&#xfe;" 
 />
    <glyph glyph-name="ydieresis" unicode="&#xff;" horiz-adv-x="467" 
d="M283 657c11.333 0 21.167 -4.83301 29.5 -14.5s12.5 -21.167 12.5 -34.5s-4.33301 -24.833 -13 -34.5s-18.667 -14.5 -30 -14.5c-12 0 -22.333 4.83301 -31 14.5s-13 21.167 -13 34.5s4.5 24.833 13.5 34.5s19.5 14.5 31.5 14.5zM112.001 657
c12 0 22.167 -4.83301 30.5 -14.5s12.5 -21.167 12.5 -34.5s-4.33301 -24.833 -13 -34.5s-18.667 -14.5 -30 -14.5c-12 0 -22.333 4.83301 -31 14.5s-13 21.167 -13 34.5s4.5 24.833 13.5 34.5s19.167 14.5 30.5 14.5zM394.001 372
c0 -21.333 -1.50391 -45.498 -4.50391 -72.498s-7.16699 -55.5 -12.5 -85.5c-9.33301 -47.333 -22.5 -93.5 -39.5 -138.5s-36.167 -87.167 -57.5 -126.5c-29.333 -50 -60.166 -87.667 -92.499 -113s-64.833 -38 -97.5 -38c-10 0 -23.333 4.33301 -40 13
c-17.333 8 -26 17 -26 27c0 9.33301 4 18.5 12 27.5s18.333 14.5 31 16.5c10.667 2 26 2 46 0c10.667 0 20.667 0.166992 30 0.5s18.666 1.83301 27.999 4.5s19 6.83398 29 12.501s21 13.834 33 24.501c26.667 22.667 40.667 41.667 42 57
c-1.33301 1.33301 -4.66602 4 -9.99902 8s-13 9.33301 -23 16c-47.333 32 -86.333 72 -117 120c-9.33301 17.333 -18.833 37.166 -28.5 59.499s-18.5 47.166 -26.5 74.499l-19.5 69l-18.5 69c-2.66699 0 -7.33398 5.66699 -14.001 17c-1.33301 1.33301 -2.5 3 -3.5 5
s-2.16699 4 -3.5 6c1.33301 1.33301 4 2 8 2c1.33301 0 2.66602 0.166992 3.99902 0.5s2.33301 0.5 3 0.5c28.667 6 62.334 22.667 101.001 50c-2.66699 -25.333 -4.5 -45.333 -5.5 -60s-1.5 -24.334 -1.5 -29.001c0 -28 3.33301 -56.833 10 -86.5
s16.334 -58.167 29.001 -85.5c14.667 -32 34.334 -60.833 59.001 -86.5s54 -48.167 88 -67.5c34.667 46.667 52 137 52 271c-1.33301 26 -14.333 49.333 -39 70c-9.33301 8 -16.666 16.833 -21.999 26.5s-8 18.834 -8 27.501c0 11.333 3.33301 21.666 10 30.999
s14.667 14.666 24 15.999c2.66699 0.666992 5.33398 1 8.00098 1h8c26 0 42.333 -14.333 49 -43c4 -14 6 -44.333 6 -91z" />
    <glyph glyph-name="dotlessi" unicode="&#x131;" horiz-adv-x="222" 
d="M34 0c5.33301 5.33301 9.99805 11.001 13.998 17.001c7.33301 10 13 21.167 17 33.5s6.33301 24.166 7 35.499v170c0 65.333 -1.33301 103 -4 113c-2 8 -11.333 20.333 -28 37c-1.33301 1.33301 -3.16602 2.83301 -5.49902 4.5s-4.16602 3.16699 -5.49902 4.5h1
c-1.33301 1.33301 -2.83301 2.5 -4.5 3.5s-3.16699 2.16699 -4.5 3.5c14 2 27.167 4.66699 39.5 8s23.5 7 33.5 11c12 7.33301 27.333 15.333 46 24v-377c0 -32.667 13.333 -62 40 -88h-146z" />
    <glyph glyph-name="Lslash" unicode="&#x141;" 
 />
    <glyph glyph-name="lslash" unicode="&#x142;" 
 />
    <glyph glyph-name="OE" unicode="&#x152;" horiz-adv-x="1033" 
d="M1029 145c-2 -1.33301 -3.83105 -2.5 -5.49805 -3.5s-3.16699 -2.16699 -4.5 -3.5c1.33301 2 2.16602 4 2.49902 6s1.16602 4 2.49902 6l7 -6zM549.002 271c0 66.667 -28.667 137.334 -86 212.001c-60.667 76.667 -125.667 115 -195 115c-63.333 0 -114 -19 -152 -57
c-38.667 -38.667 -58 -87.334 -58 -146.001c0 -32 6.16699 -64.833 18.5 -98.5s30.5 -66.834 54.5 -99.501c23.333 -32 50 -58.167 80 -78.5s61 -34.166 93 -41.499c6 -1.33301 13.5 -2.33301 22.5 -3s19.167 -1 30.5 -1c59.333 0 106.333 18.333 141 55
c34 38 51 85.667 51 143zM965.002 108c8.66699 5.33301 17.4941 10.3369 26.4941 15.0039l27.5 15l-38.5 -79l-36.5 -78c-28 8.66699 -53 14.667 -75 18s-39.333 3.66602 -52 0.999023h-311c2.66699 3.33301 4.33398 5.66602 5.00098 6.99902
s2.33398 3.66602 5.00098 6.99902c-0.666992 -0.666992 0.333008 0.5 3 3.5l10 11.5c7.33301 11.333 12.666 21.5 15.999 30.5s5 17.167 5 24.5v60c-67.333 -111.333 -149.333 -167 -246 -167c-78 0 -142.667 25.667 -194 77c-66 68 -99 152.667 -99 254
c0 50.667 6.66699 97.834 20 141.501s33.666 83.167 60.999 118.5c30 38 64.667 67.5 104 88.5s82 31.5 128 31.5c26.667 0 46.667 -2 60 -6c28.667 -8.66699 56.334 -24.334 83.001 -47.001c26.667 -20 54.334 -53 83.001 -99v35c0 15.333 -4.16699 31.5 -12.5 48.5
s-19.166 33.167 -32.499 48.5h332c26.667 0 53.667 4.66699 81 14c2.66699 -12 7.33398 -30.167 14.001 -54.5s15.334 -52.833 26.001 -85.5c-18 13.333 -34.667 25.166 -50 35.499s-27.666 18.166 -36.999 23.499h1c-22 13.333 -43.667 23 -65 29s-42 9 -62 9
c-44 0 -71 -2.33301 -81 -7h1c-23.333 -8.66699 -35.666 -27.667 -36.999 -57l-1 -174h77c14.667 -0.666992 27.667 -1 39 -1h28c34.667 0 65.5 3.5 92.5 10.5s52.167 18.5 75.5 34.5v-120c-2.66699 2 -3.83398 2.5 -3.50098 1.5s-2.16699 0.166992 -7.5 3.5
c-37.333 21.333 -75.666 31.333 -114.999 30h-184v-278c0 -23.333 17.667 -39 53 -47c11.333 -2.66699 35.333 -4 72 -4c23.333 0 47.166 3.33301 71.499 10s49.166 16.334 74.499 29.001c11.333 6 22.333 12.333 33 19s21.334 13 32.001 19z" />
    <glyph glyph-name="oe" unicode="&#x153;" horiz-adv-x="754" 
d="M634 358c0 26.667 -8 45.9961 -24 57.9961c-5.33301 2.66699 -10 5.33398 -14 8.00098l-11 7c-38.667 3.33301 -70.667 -11.667 -96 -45c-21.333 -28.667 -32 -57.667 -32 -87c0 -15.333 1.16699 -31.166 3.5 -47.499s5.83301 -34.166 10.5 -53.499l46 27l17.5 12.5
l18.5 13.5c6.66699 5.33301 14.5 10.833 23.5 16.5s17.167 11.167 24.5 16.5c22 18.667 33 43.334 33 74.001zM401 202.996c-4.66699 20 -12.501 40.332 -23.501 60.999s-25.5 41.334 -43.5 62.001c-18.667 19.333 -38 34.666 -58 45.999s-39.667 17 -59 17
c-101.333 0 -152 -42.333 -152 -127c0 -48.667 23.333 -95 70 -139c46.667 -42 96.334 -63 149.001 -63c42.667 0 74 14.667 94 44c18 28.667 25.667 61.334 23 98.001v1zM407.999 107.995c-11.333 -18 -23.1709 -34.167 -35.5039 -48.5s-25.833 -26.166 -40.5 -35.499
c-35.333 -22 -71.333 -33 -108 -33c-25.333 0 -50.166 6 -74.499 18s-47.166 29 -68.499 51c-42 46 -63 97 -63 153c0 64.667 19.333 120.667 58 168v-1c40.667 52 90.334 78 149.001 78c91.333 0 158 -38.333 200 -115c38.667 74.667 86.667 113 144 115
c32 0.666992 60.667 -8 86 -26c8 -5.33301 16 -12.666 24 -21.999s15.333 -20.333 22 -33l-1 1l9 -18c2.66699 -4.66699 5 -9.33398 7 -14.001l-231 -180c-1.33301 -20 15 -47 49 -81c33.333 -33.333 65.333 -48.333 96 -45c7.33301 0.666992 13.166 1.16699 17.499 1.5
s8.16602 0.5 11.499 0.5h7c5.33301 0.666992 11 1.66699 17 3s11 2.66602 15 3.99902c-15.333 -16.667 -33.666 -30.5 -54.999 -41.5s-41.333 -16.5 -60 -16.5c-35.333 0 -66.166 9.5 -92.499 28.5s-48.166 48.5 -65.499 88.5h-17z" />
    <glyph glyph-name="Scaron" unicode="&#x160;" 
 />
    <glyph glyph-name="scaron" unicode="&#x161;" 
 />
    <glyph glyph-name="Ydieresis" unicode="&#x178;" horiz-adv-x="603" 
d="M207 667c6 6.66699 10.5 9.5 13.5 8.5s4.5 -3.83301 4.5 -8.5h-18zM371 819c11.333 0 21.166 -4.66699 29.499 -14s12.5 -20.666 12.5 -33.999c0 -14 -4.16699 -25.667 -12.5 -35s-18.5 -14 -30.5 -14c-11.333 0 -21.166 4.66699 -29.499 14s-12.5 21 -12.5 35
c0 13.333 4.16699 24.666 12.5 33.999s18.5 14 30.5 14zM201 819c11.333 0 21.332 -4.66699 29.999 -14s13 -20.666 13 -33.999c0 -14 -4.33301 -25.667 -13 -35s-19 -14 -31 -14c-11.333 0 -21.166 4.66699 -29.499 14s-12.5 21 -12.5 35
c0 13.333 4.16699 24.666 12.5 33.999s18.5 14 30.5 14zM539.999 521c0 -32 -2.33398 -67.167 -7.00098 -105.5s-11.334 -77.833 -20.001 -118.5c-15.333 -62 -27 -104.667 -35 -128c-11.333 -30.667 -25.166 -61.667 -41.499 -93s-33.166 -60 -50.499 -86
c-26 -40 -53 -73.5 -81 -100.5s-57 -47.833 -87 -62.5c-29.333 -14.667 -55.666 -22 -78.999 -22c-14.667 0 -28 3.33301 -40 10c-12.667 7.33301 -19 19.333 -19 36c0 34.667 22 52 66 52h11c5.33301 0 10 0.333008 14 1c3.33301 0 6.33301 0.166992 9 0.5s6 0.5 10 0.5
c4.66699 0 9 0.166992 13 0.5s7.66699 0.5 11 0.5c5.33301 0.666992 9.83301 1 13.5 1h8.5c11.333 0.666992 23 3.83398 35 9.50098s24.667 13.5 38 23.5c29.333 23.333 46 45.333 50 66c-70.667 47.333 -130.667 108.333 -180 183h1c-23.333 35.333 -42.5 73.333 -57.5 114
s-26.167 80.667 -33.5 120c-2.66699 17.333 -6.33398 40 -11.001 68s-10.667 61.333 -18 100c-5.33301 21.333 -16.333 46.666 -33 75.999h180c-3.33301 -3.33301 -6.66602 -8.16602 -9.99902 -14.499l-12 -23.5c-8 -15.333 -13.833 -30.333 -17.5 -45
s-5.5 -28.334 -5.5 -41.001c0 -82 19.333 -165.667 58 -251c46 -100 109.667 -164.667 191 -194c10 15.333 19.333 33.5 28 54.5s16.667 45.167 24 72.5c12 48 18 89.333 18 124c0 65.333 -10.333 122 -31 170l-13.5 30l-13.5 32v-1c-10 24 -15 41.667 -15 53
c0 17.333 5.83301 31.5 17.5 42.5s25.5 16.5 41.5 16.5c13.333 0 25.166 -6 35.499 -18s18.833 -29 25.5 -51c8 -29.333 12 -63.333 12 -102z" />
    <glyph glyph-name="Zcaron" unicode="&#x17d;" 
 />
    <glyph glyph-name="zcaron" unicode="&#x17e;" 
 />
    <glyph glyph-name="circumflex" unicode="&#x2c6;" horiz-adv-x="263" 
d="M165 588l52.5 -43.5l51.5 -42.5h-9l-114 46l-56.5 -23l-56.5 -23h-9l51.5 43l52.5 43h37z" />
    <glyph glyph-name="caron" unicode="&#x2c7;" horiz-adv-x="263" 
d="M126 502l-50.5 37.5l-50.5 38.5h8l113 -47l57 23.5l57 23.5h8l-51 -38.5l-51 -37.5h-40z" />
    <glyph glyph-name="breve" unicode="&#x2d8;" horiz-adv-x="269" 
d="M280 620l-0.000976562 -9.00098c1.33301 -35.333 -8.66699 -63.666 -30 -84.999c-22.667 -22.667 -50.334 -34 -83.001 -34c-17.333 0 -33 3 -47 9s-26.167 14.333 -36.5 25s-18.166 23.5 -23.499 38.5s-7.66602 31.167 -6.99902 48.5v7h13
c2.66699 -29.333 12.167 -50.5 28.5 -63.5s40.5 -19.5 72.5 -19.5c30 0 53.333 7.16699 70 21.5s26.667 34.833 30 61.5h13z" />
    <glyph glyph-name="dotaccent" unicode="&#x2d9;" horiz-adv-x="204" 
d="M164 484c-12 0 -22.832 5.00098 -32.499 15.001s-14.5 21.667 -14.5 35c0 15.333 4.66699 28 14 38s20.666 15 33.999 15c12 0 22.667 -5.33301 32 -16s14 -22.667 14 -36c0 -14.667 -4.5 -26.834 -13.5 -36.501s-20.167 -14.5 -33.5 -14.5z" />
    <glyph glyph-name="ring" unicode="&#x2da;" horiz-adv-x="205" 
d="M146 633c-15.333 0 -28.5 -4.83301 -39.5 -14.5s-16.5 -21.834 -16.5 -36.501c0 -14 5.5 -26.167 16.5 -36.5s24.5 -15.5 40.5 -15.5c15.333 0 28.5 5.16699 39.5 15.5s16.5 22.5 16.5 36.5c0 14.667 -5.5 26.834 -16.5 36.501s-24.5 14.5 -40.5 14.5zM147 652
c17.333 0 32.5 -6.83301 45.5 -20.5s19.5 -30.167 19.5 -49.5s-6.5 -35.833 -19.5 -49.5s-28.167 -20.5 -45.5 -20.5c-18 0 -33.5 6.83301 -46.5 20.5s-19.5 30.167 -19.5 49.5s6.5 35.833 19.5 49.5s28.5 20.5 46.5 20.5z" />
    <glyph glyph-name="ogonek" unicode="&#x2db;" horiz-adv-x="295" 
d="M154 -8c-30.667 -9.33301 -46.001 -30.667 -46.001 -64c0 -12.667 4.83301 -23.834 14.5 -33.501s21.5 -14.5 35.5 -14.5c10.667 0 22.334 2.66699 35.001 8s25 13 37 23c1.33301 -1.33301 2.83301 -3.16602 4.5 -5.49902s3.16699 -4.16602 4.5 -5.49902
c-35.333 -36 -69 -54 -101 -54c-18 0 -32.833 6.16699 -44.5 18.5s-17.5 28.166 -17.5 47.499c0 32 15.667 58.667 47 80h31z" />
    <glyph glyph-name="tilde" unicode="&#x2dc;" horiz-adv-x="445" 
d="M394 596c-6.66699 -12 -13.5 -23.333 -20.5 -34s-14.833 -19.667 -23.5 -27c-22.667 -21.333 -43.667 -32 -63 -32c-15.333 0 -39.333 7 -72 21c-33.333 14 -60.666 21 -81.999 21c-9.33301 0 -18.333 -1.83301 -27 -5.5s-16.667 -8.16699 -24 -13.5
c-3.33301 -3.33301 -7.33301 -7.83301 -12 -13.5s-9.66699 -12.167 -15 -19.5c-0.666992 0 -1 0.333008 -1 1l-1 1c32.667 62.667 69 94 109 94c15.333 0 38.666 -7 69.999 -21c32 -13.333 57 -20 75 -20c33.333 0 62 16.667 86 50z" />
    <glyph glyph-name="hungarumlaut" unicode="&#x2dd;" horiz-adv-x="349" 
d="M182 486c5.33301 16 11.167 32.166 17.5 48.499l18.5 49.5h-1c13.333 37.333 28.333 56 45 56c12 0 18 -8.33301 18 -25c0 -11.333 -5.33301 -23.666 -16 -36.999v1l-38.5 -47l-39.5 -47zM54.001 486.999c5.33301 16 11.001 32 17.001 48s11.667 32.333 17 49h-1
c13.333 37.333 28.666 56 45.999 56c12 0 18 -8 18 -24c0 -12 -5.33301 -24.667 -16 -38v1l-39 -47l-38 -47z" />
    <glyph glyph-name="Omega" unicode="&#x3a9;" horiz-adv-x="528" 
d="M347 296c0 -8 -2.32715 -12.001 -6.99414 -12.001h-173c22 -66 54 -120.667 96 -164c47.333 -45.333 103.333 -68 168 -68c24.667 0 49.667 4.33301 75 13c-18.667 -24 -41.167 -43 -67.5 -57s-55.5 -21 -87.5 -21c-43.333 0 -78.666 7.33301 -105.999 22
c-98.667 50 -156.334 141.667 -173.001 275h-64c-4.66699 0 -7 4 -7 12v9c0 8.66699 2.33301 13 7 13h60v22c0 7.33301 0.166992 15 0.5 23s0.833008 15.333 1.5 22h-62c-4.66699 0 -7 4.33301 -7 13v9c0 8 2.33301 12 7 12h66c12 76 36.667 135.667 74 179
c43.333 52.667 98.333 79 165 79c7.33301 0 17.666 -1.33301 30.999 -4c16 -2 27.667 -3 35 -3c14 0 25.667 2 35 6h-1c3.33301 1.33301 6.16602 2.33301 8.49902 3s4.83301 1.66699 7.5 3c4 -21.333 9.66699 -43 17 -65s15.666 -44.333 24.999 -67
c-1.33301 0 -2 0.166992 -2 0.5s-0.333008 0.5 -1 0.5s-1 0.333008 -1 1c-0.666992 0.666992 -1.33398 1.5 -2.00098 2.5s-2.33398 3.16699 -5.00098 6.5l-7 7h1l-16 18c-4 4.66699 -9.66699 9.33398 -17 14.001h1c-6.66699 5.33301 -14.334 10.666 -23.001 15.999
s-18.667 11 -30 17c-24 11.333 -43.333 17 -58 17c-54.667 0 -97.667 -23.667 -129 -71c-25.333 -40 -38 -87.667 -38 -143v-17h196c4.66699 0 7 -4 7 -12v-9c0 -8.66699 -2.33301 -13 -7 -13h-193c2 -23.333 5.66699 -45.666 11 -66.999h182c4.66699 0 7 -4.33301 7 -13v-9
z" />
    <glyph glyph-name="Omega" unicode="&#x2126;" horiz-adv-x="528" 
d="M347 296c0 -8 -2.32715 -12.001 -6.99414 -12.001h-173c22 -66 54 -120.667 96 -164c47.333 -45.333 103.333 -68 168 -68c24.667 0 49.667 4.33301 75 13c-18.667 -24 -41.167 -43 -67.5 -57s-55.5 -21 -87.5 -21c-43.333 0 -78.666 7.33301 -105.999 22
c-98.667 50 -156.334 141.667 -173.001 275h-64c-4.66699 0 -7 4 -7 12v9c0 8.66699 2.33301 13 7 13h60v22c0 7.33301 0.166992 15 0.5 23s0.833008 15.333 1.5 22h-62c-4.66699 0 -7 4.33301 -7 13v9c0 8 2.33301 12 7 12h66c12 76 36.667 135.667 74 179
c43.333 52.667 98.333 79 165 79c7.33301 0 17.666 -1.33301 30.999 -4c16 -2 27.667 -3 35 -3c14 0 25.667 2 35 6h-1c3.33301 1.33301 6.16602 2.33301 8.49902 3s4.83301 1.66699 7.5 3c4 -21.333 9.66699 -43 17 -65s15.666 -44.333 24.999 -67
c-1.33301 0 -2 0.166992 -2 0.5s-0.333008 0.5 -1 0.5s-1 0.333008 -1 1c-0.666992 0.666992 -1.33398 1.5 -2.00098 2.5s-2.33398 3.16699 -5.00098 6.5l-7 7h1l-16 18c-4 4.66699 -9.66699 9.33398 -17 14.001h1c-6.66699 5.33301 -14.334 10.666 -23.001 15.999
s-18.667 11 -30 17c-24 11.333 -43.333 17 -58 17c-54.667 0 -97.667 -23.667 -129 -71c-25.333 -40 -38 -87.667 -38 -143v-17h196c4.66699 0 7 -4 7 -12v-9c0 -8.66699 -2.33301 -13 -7 -13h-193c2 -23.333 5.66699 -45.666 11 -66.999h182c4.66699 0 7 -4.33301 7 -13v-9
z" />
    <glyph glyph-name="pi" unicode="&#x3c0;" horiz-adv-x="603" 
d="M207 667c6 6.66699 10.5 9.5 13.5 8.5s4.5 -3.83301 4.5 -8.5h-18zM191 731c8.66699 3.33301 22.165 10.499 40.498 21.499l71.5 41.5c21.333 11.333 39.5 20.5 54.5 27.5s26.167 10.5 33.5 10.5c3.33301 0 6.33301 -1.16699 9 -3.5s6.33398 -8.16602 11.001 -17.499
c5.33301 -9.33301 8 -18.333 8 -27c0 -2 -0.666992 -5 -2 -9l1 1c-5.33301 -10 -42.666 -22 -111.999 -36h1l-72.5 -13c-18.333 -3.33301 -31.833 -6 -40.5 -8zM539.998 520.999c0 -32 -2.33398 -67.167 -7.00098 -105.5s-11.334 -77.833 -20.001 -118.5
c-15.333 -62 -27 -104.667 -35 -128c-11.333 -30.667 -25.166 -61.667 -41.499 -93s-33.166 -60 -50.499 -86c-26 -40 -53 -73.5 -81 -100.5s-57 -47.833 -87 -62.5c-29.333 -14.667 -55.666 -22 -78.999 -22c-14.667 0 -28 3.33301 -40 10
c-12.667 7.33301 -19 19.333 -19 36c0 34.667 22 52 66 52h11c5.33301 0 10 0.333008 14 1c3.33301 0 6.33301 0.166992 9 0.5s6 0.5 10 0.5c4.66699 0 9 0.166992 13 0.5s7.66699 0.5 11 0.5c5.33301 0.666992 9.83301 1 13.5 1h8.5c11.333 0.666992 23 3.83398 35 9.50098
s24.667 13.5 38 23.5c29.333 23.333 46 45.333 50 66c-70.667 47.333 -130.667 108.333 -180 183h1c-23.333 35.333 -42.5 73.333 -57.5 114s-26.167 80.667 -33.5 120c-2.66699 17.333 -6.33398 40 -11.001 68s-10.667 61.333 -18 100
c-5.33301 21.333 -16.333 46.666 -33 75.999h180c-3.33301 -3.33301 -6.66602 -8.16602 -9.99902 -14.499l-12 -23.5c-8 -15.333 -13.833 -30.333 -17.5 -45s-5.5 -28.334 -5.5 -41.001c0 -82 19.333 -165.667 58 -251c46 -100 109.667 -164.667 191 -194
c10 15.333 19.333 33.5 28 54.5s16.667 45.167 24 72.5c12 48 18 89.333 18 124c0 65.333 -10.333 122 -31 170l-13.5 30l-13.5 32v-1c-10 24 -15 41.667 -15 53c0 17.333 5.83301 31.5 17.5 42.5s25.5 16.5 41.5 16.5c13.333 0 25.166 -6 35.499 -18s18.833 -29 25.5 -51
c8 -29.333 12 -63.333 12 -102z" />
    <glyph glyph-name="afii10023" unicode="&#x401;" horiz-adv-x="600" 
d="M436 727c0 -11.333 -4 -21.167 -12 -29.5s-18 -12.5 -30 -12.5c-11.333 0 -21 4 -29 12s-12 18 -12 30c0 11.333 4.16699 21.166 12.5 29.499s17.833 12.5 28.5 12.5c12 0 22 -4.16699 30 -12.5s12 -18.166 12 -29.499zM253 726.999
c0 -11.333 -3.99902 -21.167 -11.999 -29.5s-18 -12.5 -30 -12.5c-11.333 0 -21.166 4 -29.499 12s-12.5 18 -12.5 30c0 11.333 4.16699 21.166 12.5 29.499s18.166 12.5 29.499 12.5s21.166 -4.16699 29.499 -12.5s12.5 -18.166 12.5 -29.499zM566.001 113.998
l-8.00293 -19c-5.33301 -12.667 -8.33301 -20 -9 -22c-7.33301 -18 -13 -43.667 -17 -77c-4 -30.667 -6 -43.334 -6 -38.001c0 -5.33301 -1.66699 -8 -5 -8s-9.33301 7 -18 21s-21 21 -37 21c-6 0 -24.667 -3.33301 -56 -10c-23.333 -4.66699 -47.333 -7 -72 -7
c-26.667 0 -53.334 2.33301 -80.001 7c-58.667 10.667 -112 42.667 -160 96c-28.667 30.667 -50.334 68 -65.001 112c-15.333 42.667 -23 85.667 -23 129c0 94.667 31.667 178.334 95 251.001c32 37.333 64.833 62.333 98.5 75s75.834 19 126.501 19
c8.66699 0 22.167 -1.83301 40.5 -5.5s31.833 -5.5 40.5 -5.5c15.333 0 36.333 5.33301 63 16c2.66699 0.666992 5.33398 1 8.00098 1c6 0 10 -3 12 -9c0.666992 -6 1.33398 -11.667 2.00098 -17c6.66699 -38 19 -71 37 -99c2 -4.66699 3 -8.66699 3 -12
c0 -4.66699 -1.33301 -7 -4 -7c-6 0 -18 8 -36 24l-35 31c-16.667 12 -40.5 23.167 -71.5 33.5s-56.5 15.5 -76.5 15.5c-18 0 -35 -1.33301 -51 -4c-66.667 -10 -110.667 -51.667 -132 -125c-14 -48.667 -21 -94.334 -21 -137.001c0 -1.33301 -0.5 -3.33301 -1.5 -6
s-1.5 -5 -1.5 -7c0 -0.666992 1.33301 -1 4 -1c-2 0 6.66699 0.666992 26 2c12 0.666992 30.667 1.33398 56 2.00098c104.667 3.33301 189.334 10 254.001 20c22.667 3.33301 41.334 10 56.001 20l17 11c1.33301 0 2.33301 0.333008 3 1c7.33301 0 11 -2 11 -6l-2 -118
c0 -6.66699 -2.33301 -10 -7 -10c-2 0 -5.66699 1.33301 -11 4c-30.667 15.333 -62 25.333 -94 30c-64.667 10.667 -132.334 16 -203.001 16c-36 0 -70.667 -2 -104 -6c4 -46 16 -90.333 36 -133c22.667 -47.333 51.334 -87 86.001 -119c42.667 -39.333 86.667 -59 132 -59
c48 0 95.333 21.667 142 65l35 40c6 6.66699 11.333 10 16 10s7 -2 7 -6z" />
    <glyph glyph-name="afii10053" unicode="&#x404;" horiz-adv-x="486" 
d="M460 70c0 -10.667 -8.33301 -24.334 -25 -41.001c-18.667 -18.667 -39 -31.667 -61 -39c-18 -5.33301 -41.667 -8 -71 -8c-80.667 0 -149.334 34 -206.001 102c-55.333 67.333 -83 151 -83 251c0 69.333 10.667 129 32 179c46.667 106.667 121.667 160 225 160
c6.66699 0 16 -1.5 28 -4.5s21 -4.5 27 -4.5c5.33301 0 12.166 2 20.499 6s14.833 6 19.5 6c1.33301 0 2.83301 0.166992 4.5 0.5s2.83398 0.5 3.50098 0.5c4.66699 0 8.66699 -9.66699 12 -29c2.66699 -11.333 6 -21.666 10 -30.999c2 -4 15.667 -27.333 41 -70
c0 -6.66699 -3.66699 -10 -11 -10c-3.33301 0 -6.33301 1.33301 -9 4c-42 34.667 -68 55.667 -78 63c-31.333 21.333 -62.333 32 -93 32c-49.333 0 -88 -22 -116 -66c-26 -38 -39 -82.667 -39 -134c0 -21.333 2 -43.333 6 -66h280v-33h-274
c10.667 -49.333 29 -98.666 55 -147.999c14.667 -28.667 36 -54.334 64 -77.001c28.667 -22.667 58.667 -39 90 -49c24.667 -8 45.334 -12 62.001 -12c17.333 0 33.833 4.83301 49.5 14.5s24.5 14.5 26.5 14.5c6.66699 0 10 -3.66699 10 -11z" />
    <glyph glyph-name="afii10055" unicode="&#x406;" horiz-adv-x="248" 
d="M155 727c0 -11.333 -4 -21.167 -12 -29.5s-17.667 -12.5 -29 -12.5c-12 0 -22.167 4 -30.5 12s-12.5 18 -12.5 30c0 11.333 4.16699 21.166 12.5 29.499s18.5 12.5 30.5 12.5c10.667 0 20.167 -4.16699 28.5 -12.5s12.5 -18.166 12.5 -29.499zM210 5.99902
c0 -4 -2.66797 -6.00098 -8.00098 -6.00098h-182c-4.66699 0 -7 2 -7 6c0 0.666992 3 2.66699 9 6c12 6.66699 22.333 17 31 31s13 27.667 13 41v479c0 15.333 -4.83301 29.833 -14.5 43.5s-19.5 23.167 -29.5 28.5c-6 3.33301 -9 5.66602 -9 6.99902
c0 3.33301 2.33301 5 7 5h182c5.33301 0 8 -1.66699 8 -5c0 -1.33301 -2.66699 -3.66602 -8 -6.99902c-11.333 -6 -21.666 -15.667 -30.999 -29c-10 -13.333 -15 -27.666 -15 -42.999v-479c0 -30 15.333 -54 46 -72c2 -1.33301 4.66699 -3.33301 8 -6z" />
    <glyph glyph-name="afii10056" unicode="&#x407;" horiz-adv-x="248" 
d="M253 727c0 -11.333 -3.99902 -21.167 -11.999 -29.5s-18 -12.5 -30 -12.5c-11.333 0 -21.166 4 -29.499 12s-12.5 18 -12.5 30c0 11.333 4.16699 21.166 12.5 29.499s18.166 12.5 29.499 12.5s21.166 -4.16699 29.499 -12.5s12.5 -18.166 12.5 -29.499zM69.001 726.999
c0 -11.333 -4 -21.167 -12 -29.5s-18 -12.5 -30 -12.5c-11.333 0 -21 4 -29 12s-12 18 -12 30c0 11.333 4 21.166 12 29.499s17.667 12.5 29 12.5c12 0 22 -4.16699 30 -12.5s12 -18.166 12 -29.499zM210.001 5.99805c0 -4 -2.66797 -6.00098 -8.00098 -6.00098h-182
c-4.66699 0 -7 2 -7 6c0 0.666992 3 2.66699 9 6c12 6.66699 22.333 17 31 31s13 27.667 13 41v479c0 15.333 -4.83301 29.833 -14.5 43.5s-19.5 23.167 -29.5 28.5c-6 3.33301 -9 5.66602 -9 6.99902c0 3.33301 2.33301 5 7 5h182c5.33301 0 8 -1.66699 8 -5
c0 -1.33301 -2.66699 -3.66602 -8 -6.99902c-11.333 -6 -21.666 -15.667 -30.999 -29c-10 -13.333 -15 -27.666 -15 -42.999v-479c0 -30 15.333 -54 46 -72c2 -1.33301 4.66699 -3.33301 8 -6z" />
    <glyph glyph-name="afii10062" unicode="&#x40e;" horiz-adv-x="500" 
d="M390 750c0 -27.333 -16.3311 -47.333 -48.998 -60c-23.333 -8.66699 -51 -13 -83 -13c-85.333 0 -128 24.333 -128 73c0 13.333 4 26.333 12 39c9.33301 14 20.666 21 33.999 21c8 0 15.167 -3.33301 21.5 -10s9.5 -14.334 9.5 -23.001c0 -8 -4 -17.167 -12 -27.5
s-12 -18.5 -12 -24.5c0 -12.667 10.667 -21.667 32 -27c14 -4.66699 29.667 -7 47 -7c49.333 0 74 11 74 33c0 6.66699 -3.83301 15 -11.5 25s-11.5 19.333 -11.5 28s3.16699 16.334 9.5 23.001s13.5 10 21.5 10c13.333 0 24.666 -7 33.999 -21c8 -12.667 12 -25.667 12 -39
zM474.002 519c0 -48.667 -5.66797 -102.333 -17.001 -161c-12.667 -63.333 -28.334 -115.333 -47.001 -156c-14 -28.667 -32.667 -59 -56 -91c-60.667 -85.333 -132 -128 -214 -128c-8.66699 0 -27 2.33301 -55 7c-44.667 7.33301 -67 25.333 -67 54
c0 16.667 5.33301 29.667 16 39c10.667 10 24.334 15 41.001 15c8 0 23.667 -5.66699 47 -17c37.333 -18 67.666 -27 90.999 -27c46.667 0 88.334 28 125.001 84c-40 22 -74.667 46.667 -104 74c-78.667 70.667 -136.667 189.667 -174 357c-4 16 -9.83301 29.5 -17.5 40.5
s-17.167 19.833 -28.5 26.5c-5.33301 3.33301 -8 5.33301 -8 6c0 4 2.66699 6 8 6h182c4.66699 0 7 -2 7 -6c0 -0.666992 -3 -2.66699 -9 -6c-24 -14.667 -36 -37.667 -36 -69c0 -26.667 5.33301 -53.667 16 -81c45.333 -120.667 113.333 -210.334 204 -269.001
c26.667 62.667 40 115.334 40 158.001c0 61.333 -16 122.333 -48 183c-6 12 -12.667 24 -20 36c-7.33301 14.667 -11 27 -11 37c0 14.667 4.83301 27.334 14.5 38.001s21.834 16 36.501 16c10 0 20.667 -3.66699 32 -11c34.667 -24.667 52 -76.334 52 -155.001z" />
    <glyph glyph-name="afii10017" unicode="&#x410;" horiz-adv-x="645" 
d="M98 562c-0.666992 -2.66699 -0.833008 -5 -0.5 -7s0.5 -4 0.5 -6l-14 3l9 6c2 2 3.66699 3.33301 5 4zM351.001 403l-4.00098 20c-3.33301 13.333 -6.16602 26.666 -8.49902 39.999s-5.16602 27 -8.49902 41c-5.33301 22 -11.333 40.333 -18 55
s-14.667 25.334 -24 32.001c-8 6 -20 9 -36 9c-1.33301 0 -3.33301 -0.166992 -6 -0.5s-5.66699 -0.5 -9 -0.5c-2.66699 0 -6.83398 -0.166992 -12.501 -0.5s-10.167 -0.5 -13.5 -0.5l-38 -196zM364 -1c19.333 17.333 32.165 34.834 38.498 52.501s8.83301 38.167 7.5 61.5
c-2.66699 40.667 -20.334 124.667 -53.001 252l-190 -1l-6.5 -29.5c-2.33301 -10.333 -4.16602 -20.5 -5.49902 -30.5c-2 -9.33301 -3.83301 -18.833 -5.5 -28.5s-3.16699 -18.834 -4.5 -27.501c-8.66699 -46 -13.667 -85.333 -15 -118c-2 -38 1.66699 -64.333 11 -79
c2.66699 -3.33301 8.66699 -10.166 18 -20.499s19 -20.5 29 -30.5h-174c20.667 18 36.334 36 47.001 54c6 9.33301 11.5 21 16.5 35s9.5 29 13.5 45l58 250.5l46 209.5h-18c-17.333 0 -32 -3.16699 -44 -9.5s-23.667 -13.833 -35 -22.5c2 31.333 16.667 58.666 44 81.999
c30.667 26.667 63 40 97 40c42.667 0 77.5 -11.5 104.5 -34.5s46.167 -55.5 57.5 -97.5l42 -180.5l61 -254.5c1.33301 -6 4 -13.333 8 -22s9.66699 -18 17 -28c8 -13.333 16.833 -25.5 26.5 -36.5s20.834 -20.833 33.501 -29.5z" />
    <glyph glyph-name="afii10018" unicode="&#x411;" horiz-adv-x="506" 
d="M478 153c0 -36 -11.998 -68.667 -35.998 -98c-30.667 -36.667 -90.334 -55 -179.001 -55h-246c-4.66699 0 -7 2 -7 6c0 0.666992 2.66699 2.66699 8 6c13.333 6.66699 24.333 17 33 31s13 27.667 13 41v482c0 18 -9 32.5 -27 43.5s-27 18 -27 21s2.66699 5.5 8 7.5
s14.333 3.33301 27 4c78 4 150.667 6 218 6c28.667 0 49.667 2 63 6l29 12c2 0 4 -1.33301 6 -4c24.667 -26.667 48.334 -74.667 71.001 -144c0.666992 -0.666992 1 -1.33398 1 -2.00098c0 -3.33301 -1.66699 -5 -5 -5s-7 2 -11 6c-10 10.667 -25.667 26 -47 46
c-16 16.667 -33.333 29.334 -52 38.001c-28.667 13.333 -56.667 20 -84 20c-10.667 0 -20.334 -1 -29.001 -3c-15.333 -3.33301 -28 -13.333 -38 -30c-8.66699 -14.667 -13 -30 -13 -46v-428c0 -24.667 6.33301 -46 19 -64c14.667 -21.333 34 -32 58 -32
c39.333 0 69.333 8 90 24c30.667 24.667 46 57.334 46 98.001c0 54 -20.333 97.667 -61 131c-10.667 8.66699 -26.334 17 -47.001 25c-13.333 4 -28.333 12 -45 24c-31.333 20.667 -47 42.667 -47 66c0 20 3.66699 36.667 11 50c10 17.333 24 26 42 26
c21.333 0 32 -10.667 32 -32c0 -14 -8.5 -25.833 -25.5 -35.5s-25.5 -19.5 -25.5 -29.5c0 -18.667 10.333 -30.334 31 -35.001c14 -2.66699 35.333 -6 64 -10c16 -0.666992 31.667 -3.66699 47 -9c66 -22 108 -58.333 126 -109c6 -16 9 -32.333 9 -49z" />
    <glyph glyph-name="afii10019" unicode="&#x412;" horiz-adv-x="552" 
d="M526 119c0 -36 -10.001 -71.002 -30.001 -105.002c-33.333 -58.667 -83.333 -105.334 -150 -140.001c-63.333 -32.667 -130 -49 -200 -49c-24.667 0 -37 3.33301 -37 10c0 4 4.33301 7.66699 13 11c9.33301 -0.666992 18.666 -1 27.999 -1c44 0 86.667 12 128 36
c40 22.667 72.667 53 98 91c27.333 40 41 87 41 141c0 74 -19.667 135 -59 183c-42.667 51.333 -100.334 77 -173.001 77c-10 0 -21.333 -0.333008 -34 -1v-287c0 -26 15.333 -50 46 -72c2.66699 -2 5.33398 -4.33301 8.00098 -7c0.666992 -3.33301 -1.66602 -5 -6.99902 -5
h-183c-5.33301 0 -7.66602 1.66699 -6.99902 5c1.33301 2 4.33301 4.33301 9 7c30 20 45 44 45 72v469c0 13.333 -3.66699 22.666 -11 27.999c-6 4 -12.333 7.66699 -19 11c-9.33301 5.33301 -14 10.333 -14 15c0 4 3 7.33301 9 10
c8.66699 2.66699 21.667 7.33398 39 14.001c13.333 4.66699 33 13.334 59 26.001c3.33301 1.33301 5.66602 2 6.99902 2c2.66699 0 4.66699 -2.66699 6 -8c8.66699 -34 13 -63 13 -87v-170l3 1c52 1.33301 94.667 9 128 23c47.333 20.667 71 53 71 97
c0 63.333 -37 103 -111 119l-56 9c-5.33301 1.33301 -8 5.33301 -8 12s2 10.667 6 12c1.33301 1.33301 6 2 14 2c67.333 0 123.333 -8.66699 168 -26c65.333 -25.333 98 -65.666 98 -120.999c0 -35.333 -18.667 -65.666 -56 -90.999c-28 -20.667 -62.667 -36 -104 -46
c66.667 -13.333 120.334 -41.5 161.001 -84.5s61 -103.833 61 -182.5z" />
    <glyph glyph-name="afii10020" unicode="&#x413;" horiz-adv-x="443" 
d="M421 478c0 -28.667 -5.66406 -52.6689 -16.9971 -72.002c-14 -24 -34.667 -36 -62 -36c-18.667 0 -34.5 6.83301 -47.5 20.5s-19.5 29.834 -19.5 48.501c0 11.333 3 21 9 29c6.66699 10 15 15 25 15c22.667 0 34 -11 34 -33c0 -4 -0.5 -9.83301 -1.5 -17.5
s-1.5 -13.5 -1.5 -17.5s0.333008 -7 1 -9c0.666992 -5.33301 5.66699 -8 15 -8c30.667 0 46 22.667 46 68c0 42 -17 78 -51 108c-32.667 30 -70.334 45 -113.001 45c-11.333 0 -22.333 -1 -33 -3c-12.667 -3.33301 -23.5 -10.333 -32.5 -21s-13.5 -22.334 -13.5 -35.001
v-475c0 -28.667 15 -52.667 45 -72c4 -2.66699 7 -5 9 -7c0 -3.33301 -2.33301 -5 -7 -5h-183c-4.66699 0 -7 1.66699 -7 5c1.33301 2 4.33301 4.33301 9 7c30 19.333 45 43.333 45 72v475c0 14 -4.5 27.833 -13.5 41.5s-19.5 24.167 -31.5 31.5
c-6 2.66699 -9 4.33398 -9 5.00098c0 6 2.33301 9 7 9h278c32.667 0 53 3.66699 61 11c15.333 15.333 25.666 23 30.999 23c1.33301 0 3.16602 -1.16699 5.49902 -3.5s3.5 -4.16602 3.5 -5.49902c0 0.666992 -0.666992 -3 -2 -11s-2 -17 -2 -27c0 -24.667 5 -58 15 -100
c5.33301 -24 8 -42.667 8 -56z" />
    <glyph glyph-name="afii10021" unicode="&#x414;" horiz-adv-x="693" 
d="M659 -96c0 -4 -4.00195 -6.00195 -12.002 -6.00195c-3.33301 0 -11.333 11.333 -24 34c-6 10 -15 20 -27 30c-33.333 25.333 -78 38 -134 38h-240c-42.667 0 -79 -4.66699 -109 -14c-41.333 -13.333 -75.333 -36 -102 -68c-10.667 -13.333 -17.334 -20 -20.001 -20
c-4 0 -6 1.66699 -6 5l15 42c6.66699 19.333 12.334 44.333 17.001 75c0.666992 12 1.66699 24.667 3 38c1.33301 4 4.66602 6 9.99902 6c0.666992 0 6.5 -8 17.5 -24s22.5 -24 34.5 -24c22 0 40.333 17.667 55 53c26.667 62.667 52.334 152.334 77.001 269.001l31 142
c5.33301 25.333 8 47.666 8 66.999c0 32.667 -7.66699 56.334 -23 71.001c-7.33301 8 -14.333 13.667 -21 17c-6 3.33301 -9 5.66602 -9 6.99902c0 3.33301 2 5 6 5h360c5.33301 0 8 -1.66699 8 -5c0 -1.33301 -2.66699 -3.66602 -8 -6.99902
c-13.333 -6 -24.333 -16.167 -33 -30.5s-13 -28.166 -13 -41.499v-475c0 -13.333 5 -28.333 15 -45c12 -18.667 24 -28 36 -28c16.667 0 30.334 14 41.001 42c2 2 4.66699 3 8 3c6 0 9.33301 -2 10 -6c0 -5.33301 0.5 -13.333 1.5 -24s3.33301 -26.167 7 -46.5
s7.83398 -38.5 12.501 -54.5c5.33301 -18 8 -26.333 8 -25zM429.998 87.998l0.000976562 469.003c0 19.333 -6.16699 34.666 -18.5 45.999s-28.166 17 -47.499 17c-20 0 -36.833 -5.66699 -50.5 -17s-22.834 -26.333 -27.501 -45c-14 -72.667 -38 -182 -72 -328
c-5.33301 -22 -16 -60 -32 -114c-4 -11.333 -6 -21.333 -6 -30c0 -30.667 14 -51.334 42 -62.001c5.33301 -1.33301 8.66602 -2 9.99902 -2h114c48 0 76.667 18.667 86 56c1.33301 5.33301 2 8.66602 2 9.99902z" />
    <glyph glyph-name="afii10022" unicode="&#x415;" horiz-adv-x="553" 
d="M542 144c-4 -2.66699 -6.99805 -4.33301 -8.99805 -5c1.33301 1.33301 2.16602 3 2.49902 5s1.16602 3.66699 2.49902 5l6 -6zM453.002 92.001l40.0039 22.498c13.333 7.66699 26.666 15.834 39.999 24.501l-37.5 -79.5l-37.5 -78.5
c-30 9.33301 -55.333 15.166 -76 17.499s-37.334 2.5 -50.001 0.5h-312c4 4.66699 6.83301 8.33398 8.5 11.001s4.16699 6.33398 7.5 11.001l9 12c6 10 10.833 19.167 14.5 27.5s5.5 16.166 5.5 23.499v487c0 15.333 -4.33301 31.5 -13 48.5s-19.667 33.167 -33 48.5h332
c26.667 0 53.667 4.66699 81 14c2.66699 -12 7.33398 -30.167 14.001 -54.5s15.334 -52.833 26.001 -85.5c-17.333 12.667 -33.833 24.167 -49.5 34.5s-28.167 18.166 -37.5 23.499h1c-22 13.333 -43.667 23 -65 29s-42 9 -62 9c-42.667 0 -69.667 -2.33301 -81 -7
c-10.667 -4.66699 -19.334 -11.834 -26.001 -21.501s-10 -21.167 -10 -34.5l-1 -174h33c14 0 28.667 -0.333008 44 -1h67c66 0 122 14.667 168 44v-117c-2.66699 1.33301 -4.33398 2.33301 -5.00098 3s-3.66699 2.66699 -9 6c-36 18.667 -73 28 -111 28h-185v-282
c0 -11.333 4.66699 -21.166 14 -29.499s22 -14.166 38 -17.499c6.66699 -1.33301 16.167 -2.33301 28.5 -3s27.166 -1 44.499 -1c23.333 0 47.166 3.33301 71.499 10s49.5 16.334 75.5 29.001c6.66699 3.33301 13 7 19 11s12.333 7.66699 19 11z" />
    <glyph glyph-name="afii10024" unicode="&#x416;" horiz-adv-x="891" 
d="M847 -123c0 -3.33301 -2.99316 -4.99707 -8.99316 -4.99707c-8.66699 0 -24.667 6 -48 18c-21.333 10.667 -36.333 19.667 -45 27c-18.667 15.333 -34 31.666 -46 48.999c-21.333 29.333 -39 70 -53 122c-2.66699 9.33301 -9.33398 36.666 -20.001 81.999
c-10.667 42.667 -20 73.334 -28 92.001c-16 34.667 -36.667 58 -62 70c-34.667 -12 -64.667 -19.667 -90 -23v-226c0 -30.667 15 -54.667 45 -72c6 -3.33301 9 -5.33301 9 -6c0 -4 -2.33301 -6 -7 -6h-183c-5.33301 0 -8 2 -8 6c0 0.666992 3 2.66699 9 6
c12.667 7.33301 23.5 17.666 32.5 30.999s13.5 27 13.5 41v230c-18 1.33301 -44.333 5.66602 -79 12.999c-14.667 -6 -28 -16 -40 -30c-26.667 -32 -45.334 -68.667 -56.001 -110c-24 -90.667 -37 -139.334 -39 -146.001c-18.667 -52.667 -46.334 -93.667 -83.001 -123
c-10 -7.33301 -25.333 -16.333 -46 -27c-22.667 -12 -38.667 -18 -48 -18c-5.33301 0 -8 1.66699 -8 5c0 1.33301 0.666992 3 2 5c15.333 23.333 26.666 43.666 33.999 60.999c11.333 26 25.666 66.333 42.999 121c16 52 30 90.667 42 116
c19.333 41.333 44 76.666 74 105.999l35 34c14.667 12.667 28.667 21.334 42 26.001c-29.333 13.333 -57.666 28.333 -84.999 45c-38 24 -69.667 54.667 -95 92c-26.667 41.333 -40 82.333 -40 123c0 18.667 4.33301 34 13 46c10 14 24 21 42 21
c14 0 27.5 -5.66699 40.5 -17s19.5 -24 19.5 -38c0 -5.33301 -1 -13 -3 -23l-6 -24c-0.666992 -7.33301 -2.33398 -19 -5.00098 -35c-0.666992 -4.66699 -1 -9 -1 -13c0 -22 7 -45 21 -69c20.667 -34.667 53.667 -62.667 99 -84c38 -18.667 80.333 -31 127 -37v230
c0 13.333 -4.5 26.833 -13.5 40.5s-19.833 24.167 -32.5 31.5c-6 3.33301 -9 5.66602 -9 6.99902c0 3.33301 2.66699 5 8 5h183c4.66699 0 7 -1.66699 7 -5c0 -1.33301 -3 -3.66602 -9 -6.99902c-12.667 -7.33301 -23.334 -17.333 -32.001 -30
c-8.66699 -14.667 -13 -28.667 -13 -42v-230c36.667 6 72.667 16.667 108 32c41.333 16.667 72.666 36 93.999 58c8 8 16.333 18.333 25 31c14 22 21 43.333 21 64c0 5.33301 -1.33301 11.333 -4 18c-3.33301 10.667 -5.33301 19.334 -6 26.001c0 2 -0.333008 5 -1 9
c0 2 -1.66699 8.33301 -5 19c-1.33301 8 -2 14.667 -2 20c0 15.333 6 28.5 18 39.5s25.333 16.5 40 16.5c38 0 57 -22 57 -66c0 -39.333 -13.667 -79 -41 -119c-24 -36.667 -54.667 -66.667 -92 -90c-22.667 -14 -49 -27.667 -79 -41
c26.667 -10.667 53.834 -32.667 81.501 -66s50.5 -70.333 68.5 -111c9.33301 -23.333 22 -60.333 38 -111c15.333 -50 29.666 -89.667 42.999 -119c8 -17.333 19.667 -37.666 35 -60.999c1.33301 -2 2 -3.66699 2 -5z" />
    <glyph glyph-name="afii10025" unicode="&#x417;" horiz-adv-x="519" 
d="M491 188c0 -40 -8.66602 -71.999 -25.999 -95.999c-26 -34.667 -61 -61.334 -105 -80.001c-40.667 -17.333 -84 -26 -130 -26c-18.667 0 -42.334 3 -71.001 9c-32.667 6.66699 -67.667 27 -105 61c-27.333 26 -41 60.667 -41 104c0 24 4.66699 44.667 14 62
c12 20.667 29 31 51 31c16.667 0 30.667 -6.5 42 -19.5s17 -28.167 17 -45.5c0 -19.333 -7.66699 -36.333 -23 -51s-23 -29.667 -23 -45c0 -24.667 17 -44.667 51 -60c26.667 -12 54.334 -18 83.001 -18c48.667 0 87 13.333 115 40s42 64.334 42 113.001
c0 82 -33 137.667 -99 167c-14.667 7.33301 -28.334 11 -41.001 11c-6 0 -15.333 -1.16699 -28 -3.5s-22 -3.5 -28 -3.5c-5.33301 0 -8 5.66699 -8 17s2.66699 17 8 17c7.33301 0 18.833 -0.5 34.5 -1.5s27.5 -1.5 35.5 -1.5c20.667 0 35.334 2.33301 44.001 7
c16 9.33301 28.667 24.333 38 45c9.33301 18.667 14 38 14 58c0 38 -10.333 72.667 -31 104c-26 39.333 -62.333 59 -109 59c-46 0 -90 -22 -132 -66c-9.33301 -7.33301 -21.333 -19 -36 -35c-8.66699 -10 -13.334 -15 -14.001 -15c-4 0 -6 1.66699 -6 5c0 2 6 14.5 18 37.5
s18 39.833 18 50.5c0 2 -0.333008 5.16699 -1 9.5s-1 7.5 -1 9.5c0 22.667 4 34 12 34c4 0 12.333 -3.33301 25 -10s22.667 -10 30 -10c4 0 10.333 1 19 3c14 2 34.333 6 61 12c22 6 42.333 9 61 9c34.667 0 68.667 -8 102 -24c37.333 -18 62.666 -41.333 75.999 -70
c10.667 -24 16 -46.667 16 -68c0 -36 -15 -69 -45 -99c-27.333 -27.333 -59.666 -45 -96.999 -53c53.333 -2.66699 95.5 -19.334 126.5 -50.001s46.5 -72 46.5 -124z" />
    <glyph glyph-name="afii10026" unicode="&#x418;" horiz-adv-x="574" 
d="M546 6c0 -4 -2.33398 -6.00098 -7.00098 -6.00098h-183c-4 0 -6 2 -6 6c0 0.666992 2.66699 2.66699 8 6c10.667 6 20.667 15.667 30 29c10 14 15 28.333 15 43v446l-235 -451c-2.66699 -5.33301 -4 -11 -4 -17c0 -10.667 3.33301 -21 10 -31
c8 -11.333 16.667 -17.666 26 -18.999c6 -2.66699 9 -4.66699 9 -6c0 -4 -2.33301 -6 -7 -6h-184c-4 0 -6 2 -6 6c0 0.666992 3 2.66699 9 6c30 15.333 45 36 45 62v489c0 12.667 -4.66699 26.834 -14 42.501s-19.666 25.834 -30.999 30.501c-6 2 -9 4 -9 6c0 4 2 6 6 6h184
c4.66699 0 7 -2 7 -6c0 -2 -3 -4 -9 -6c-11.333 -4.66699 -21.666 -14.834 -30.999 -30.501s-14 -29.834 -14 -42.501v-417c0 -1.33301 1.66699 -2 5 -2c2.66699 0 4.66699 0.666992 6 2l220 424c2.66699 6 4 13 4 21c0 15.333 -6 27 -18 35
c-14.667 11.333 -22 16.666 -22 15.999c0 4 2 6 6 6h183c4.66699 0 7 -2 7 -6c0 -1.33301 -2.66699 -3.33301 -8 -6c-12.667 -6.66699 -23.334 -17.167 -32.001 -31.5s-13 -28.166 -13 -41.499v-479c0 -30.667 15 -54.667 45 -72c2 -1.33301 4.66699 -3.33301 8 -6z" />
    <glyph glyph-name="afii10027" unicode="&#x419;" horiz-adv-x="576" 
d="M417 750c0 -27.333 -16.3301 -47.333 -48.9971 -60c-22.667 -8.66699 -50.334 -13 -83.001 -13c-85.333 0 -128 24.333 -128 73c0 13.333 4 26.333 12 39c9.33301 14 20.666 21 33.999 21c8.66699 0 16 -3.33301 22 -10s9 -14.334 9 -23.001
c0 -8 -3.83301 -17.167 -11.5 -27.5s-11.5 -18.5 -11.5 -24.5c0 -12.667 10.333 -21.667 31 -27c14.667 -4.66699 30.667 -7 48 -7c49.333 0 74 11 74 33c0 6.66699 -4 15 -12 25s-12 19.333 -12 28s3.16699 16.334 9.5 23.001s13.5 10 21.5 10
c13.333 0 24.666 -7 33.999 -21c8 -12.667 12 -25.667 12 -39zM549.003 6c-0.666992 -4 -2.99805 -6.00293 -6.99805 -6.00293h-184c-4.66699 0 -7 2 -7 6c0 0.666992 3 2.66699 9 6c10.667 6.66699 20.667 16 30 28c10 14.667 15 29.334 15 44.001v446l-235 -451
c-2.66699 -6 -4 -11.667 -4 -17c0 -10.667 3.66699 -21.334 11 -32.001s15.666 -16.667 24.999 -18l9 -6c0 -4 -2.33301 -6 -7 -6h-183c-4.66699 0 -7 2 -7 6l9 6c30 18.667 45 39.334 45 62.001v489c0 13.333 -4.33301 27.166 -13 41.499s-19.334 24.5 -32.001 30.5
c-6 3.33301 -9 5.66602 -9 6.99902c0 3.33301 2.33301 5 7 5h183c4.66699 0 7 -1.66699 7 -5c0 -1.33301 -3 -3.66602 -9 -6.99902c-10.667 -6 -20.334 -15.667 -29.001 -29c-10 -13.333 -15 -27.666 -15 -42.999v-417c0 -1.33301 1.33301 -2 4 -2
s4.33398 0.666992 5.00098 2l221 424c3.33301 5.33301 5 12.333 5 21c0 15.333 -6.33301 27 -19 35l-23 16c0 3.33301 2.33301 5 7 5h184c4.66699 0 7 -1.66699 7 -5c0 -1.33301 -3 -3.66602 -9 -6.99902c-12 -6 -22.667 -16.167 -32 -30.5s-14 -28.166 -14 -41.499v-479
c0 -28.667 15.333 -52.667 46 -72z" />
    </font>
</defs>
</svg>
