<?xml version="1.0" standalone="no"?>
<!DOCTYPE svg PUBLIC "-//W3C//DTD SVG 1.1//EN" "http://www.w3.org/Graphics/SVG/1.1/DTD/svg11.dtd" >
<svg>
<metadata>
Created by FontForge 20090914 at Thu Apr 15 00:52:27 2021
 By www-data
Copyright 2002 Adobe Systems Incorporated. All rights reserved.
</metadata>
<defs>
<font id="RodchenkoC" horiz-adv-x="610" >
  <font-face 
    font-family="RodchenkoC"
    font-weight="400"
    font-stretch="normal"
    units-per-em="1000"
    panose-1="4 0 5 0 0 0 0 0 0 0"
    ascent="870"
    descent="-130"
    x-height="550"
    cap-height="700"
    bbox="-64 -130 1075 959"
    underline-thickness="50"
    underline-position="-50"
    stemh="140"
    stemv="143"
    unicode-range="U+0020-U+2122"
  />
<missing-glyph horiz-adv-x="233" 
 />
    <glyph glyph-name=".notdef" horiz-adv-x="233" 
 />
    <glyph glyph-name="space" unicode=" " horiz-adv-x="233" 
 />
    <glyph glyph-name="space" unicode="&#xa0;" horiz-adv-x="233" 
 />
    <glyph glyph-name="exclam" unicode="!" horiz-adv-x="284" 
d="M70 144h144v-144h-144v144zM84 220l-14 480h144l-14 -480h-116z" />
    <glyph glyph-name="quotedbl" unicode="&#x22;" horiz-adv-x="453" 
d="M70 688h128l-28 -217h-72zM255 688h128l-28 -217h-72z" />
    <glyph glyph-name="numbersign" unicode="#" horiz-adv-x="580" 
d="M505 313v-92h-100l-31 -221h-87l31 221h-84l-31 -221h-87l31 221h-97v92h110l12 87h-95v92h107l29 208h87l-29 -208h84l30 208h87l-30 -208h88v-92h-100l-12 -87h87zM343 400h-84l-12 -87h84z" />
    <glyph glyph-name="dollar" unicode="$" horiz-adv-x="590" 
d="M520 700v-150h-300v-122h300v-428h-165v-85h-120v85h-165v150h300v128h-300v422h165v85h120v-85h165z" />
    <glyph glyph-name="percent" unicode="%" horiz-adv-x="765" 
d="M306 700v-352h-266v352h266zM204 610h-62v-172h62v172zM725 352v-352h-266v352h266zM623 262h-62v-172h62v172zM655 655l-483 -655l-57 45l474 655z" />
    <glyph glyph-name="ampersand" unicode="&#x26;" horiz-adv-x="637" 
d="M456 700v-227l-76 -85l37 -61l21 40h144l-93 -162l128 -205h-160l-46 78l-43 -78h-298v281l92 68l-78 64v287h372zM306 417v149h-72v-149h72zM220 307v-173h84l38 62l-65 111h-57z" />
    <glyph glyph-name="quotesingle" unicode="'" horiz-adv-x="453" 
d="M70 688h128l-28 -217h-72zM255 688h128l-28 -217h-72z" />
    <glyph glyph-name="parenleft" unicode="(" horiz-adv-x="305" 
d="M253 -56h-106l-30 98c-33 109 -47 191 -47 297c0 95 20 225 54 317l25 68h106c-44 -130 -65 -255 -65 -383c0 -147 19 -259 63 -397z" />
    <glyph glyph-name="parenright" unicode=")" horiz-adv-x="305" 
d="M158 -56h-106c44 138 63 250 63 397c0 128 -21 253 -65 383h106l25 -68c34 -92 54 -222 54 -317c0 -106 -14 -188 -47 -297z" />
    <glyph glyph-name="asterisk" unicode="*" horiz-adv-x="530" 
d="M320 700v-173h140v-106h-140v-421h-110v421h-140v106h140v173h110z" />
    <glyph glyph-name="plus" unicode="+" horiz-adv-x="588" 
d="M237 406v189h114v-189h189v-114h-189v-189h-114v189h-189v114h189z" />
    <glyph glyph-name="comma" unicode="," horiz-adv-x="318" 
d="M118 145h140l-106 -275l-92 26z" />
    <glyph glyph-name="hyphen" unicode="-" horiz-adv-x="308" 
d="M35 299h238v-85h-238v85z" />
    <glyph glyph-name="hyphen" unicode="&#xad;" horiz-adv-x="308" 
d="M35 299h238v-85h-238v85z" />
    <glyph glyph-name="period" unicode="." horiz-adv-x="285" 
d="M70 145h145v-145h-145v145z" />
    <glyph glyph-name="slash" unicode="/" horiz-adv-x="332" 
d="M299 700l97 -53l-363 -647l-97 53z" />
    <glyph glyph-name="zero" unicode="0" horiz-adv-x="560" 
d="M70 700h420v-700h-420v700zM215 555v-410h130v410h-130z" />
    <glyph glyph-name="one" unicode="1" horiz-adv-x="560" 
d="M377 0h-145v555h-98v145h243v-700z" />
    <glyph glyph-name="two" unicode="2" horiz-adv-x="560" 
d="M70 0v150l275 312v93h-130v-65h-145v210h420v-273l-253 -282h253v-145h-420z" />
    <glyph glyph-name="three" unicode="3" horiz-adv-x="560" 
d="M70 0v145h254l-158 205l158 205h-254v145h420v-145l-163 -205l163 -205v-145h-420z" />
    <glyph glyph-name="four" unicode="4" horiz-adv-x="560" 
d="M70 700h145v-345h130v345h145v-700h-145v210h-275v490z" />
    <glyph glyph-name="five" unicode="5" horiz-adv-x="560" 
d="M490 700v-145h-275v-120h275v-435h-420v208h145v-63h130v150h-275v405h420z" />
    <glyph glyph-name="six" unicode="6" horiz-adv-x="560" 
d="M490 700v-211h-145v66h-130v-135h275v-420h-420v700h420zM215 280v-135h130v135h-130z" />
    <glyph glyph-name="seven" unicode="7" horiz-adv-x="560" 
d="M110 0l235 555h-135v-50h-145v195h430v-140l-231 -560h-154z" />
    <glyph glyph-name="eight" unicode="8" horiz-adv-x="560" 
d="M490 700v-270l-96 -80l96 -80v-270h-420v270l96 80l-96 80v270h420zM350 555h-140v-82l64 -58h12l64 58v82zM210 222v-77h140v77l-64 58h-12z" />
    <glyph glyph-name="nine" unicode="9" horiz-adv-x="560" 
d="M70 0v211h145v-66h130v135h-275v420h420v-700h-420zM345 420v135h-130v-135h130z" />
    <glyph glyph-name="colon" unicode=":" horiz-adv-x="285" 
d="M70 145h145v-145h-145v145zM70 468h145v-145h-145v145z" />
    <glyph glyph-name="semicolon" unicode=";" horiz-adv-x="328" 
d="M118 145h140l-106 -275l-92 26zM113 468h145v-145h-145v145z" />
    <glyph glyph-name="less" unicode="&#x3c;" horiz-adv-x="588" 
d="M175 352l368 -160v-108l-498 220v96l498 220v-108z" />
    <glyph glyph-name="equal" unicode="=" horiz-adv-x="588" 
d="M540 502v-114h-492v114h492zM540 312v-114h-492v114h492z" />
    <glyph glyph-name="greater" unicode="&#x3e;" horiz-adv-x="588" 
d="M413 352l-368 160v108l498 -220v-96l-498 -220v108z" />
    <glyph glyph-name="question" unicode="?" horiz-adv-x="560" 
d="M490 427l-157 -109v-98h-145v129l157 113v93h-130v-65h-145v210h420v-273zM188 145h145v-145h-145v145z" />
    <glyph glyph-name="at" unicode="@" horiz-adv-x="740" 
d="M501 568v-363h19l103 103v216l-103 103h-300l-103 -103v-348l103 -103h413v-73h-452l-137 137v426l137 137h378l137 -137v-295l-137 -136h-130l-35 34l-34 -34h-121v436h262zM401 478h-62v-256h62v256z" />
    <glyph glyph-name="A" unicode="A" horiz-adv-x="575" 
d="M535 0h-150l-15 165h-165l-15 -165h-150l68 700h359zM218 315h139l-22 235h-95z" />
    <glyph glyph-name="B" unicode="B" 
d="M70 0v700h470v-280l-87 -70l87 -70v-280h-470zM390 550h-170v-130h116l54 51v79zM220 280v-130h170v79l-54 51h-116z" />
    <glyph glyph-name="C" unicode="C" horiz-adv-x="600" 
d="M540 700v-218h-150v68h-170v-400h170v68h150v-218h-470v700h470z" />
    <glyph glyph-name="D" unicode="D" horiz-adv-x="640" 
d="M55 0v150h70v400h-70v150h515v-700h-515zM275 550v-400h145v400h-145z" />
    <glyph glyph-name="E" unicode="E" horiz-adv-x="560" 
d="M530 700v-150h-310v-125h158v-150h-158v-125h310v-150h-460v700h460z" />
    <glyph glyph-name="F" unicode="F" horiz-adv-x="535" 
d="M505 700v-150h-285v-149h216v-150h-216v-251h-150v700h435z" />
    <glyph glyph-name="G" unicode="G" 
d="M540 700v-150h-320v-400h170v103h-65v130h215v-383h-470v700h470z" />
    <glyph glyph-name="H" unicode="H" 
d="M70 700h150v-272h170v272h150v-700h-150v278h-170v-278h-150v700z" />
    <glyph glyph-name="I" unicode="I" horiz-adv-x="430" 
d="M360 700v-150h-70v-400h70v-150h-290v150h70v400h-70v150h290z" />
    <glyph glyph-name="J" unicode="J" horiz-adv-x="383" 
d="M313 700v-593l-150 -185l-118 104l118 130v394h-90v150h240z" />
    <glyph glyph-name="K" unicode="K" horiz-adv-x="608" 
d="M70 700h150v-272h69l131 272h158l-169 -338l179 -362h-165l-134 278h-69v-278h-150v700z" />
    <glyph glyph-name="L" unicode="L" horiz-adv-x="555" 
d="M220 700v-550h165v55h150v-205h-465v700h150z" />
    <glyph glyph-name="M" unicode="M" horiz-adv-x="726" 
d="M220 0h-150v700h150l140 -256h6l140 256h150v-700h-150v454l-143 -252l-143 252v-454z" />
    <glyph glyph-name="N" unicode="N" horiz-adv-x="638" 
d="M418 282v418h150v-700h-150l-198 418v-418h-150v700h150z" />
    <glyph glyph-name="O" unicode="O" 
d="M70 0v700h470v-700h-470zM220 550v-400h170v400h-170z" />
    <glyph glyph-name="P" unicode="P" 
d="M540 700v-490h-320v-210h-150v700h470zM220 550v-190h170v190h-170z" />
    <glyph glyph-name="Q" unicode="Q" 
d="M220 0h-150v700h470v-700h-150v-116h-170v116zM220 550v-400h170v400h-170z" />
    <glyph glyph-name="R" unicode="R" horiz-adv-x="624" 
d="M540 700v-465h-94l128 -235h-170l-113 235h-71v-235h-150v700h470zM220 550v-170h170v170h-170z" />
    <glyph glyph-name="S" unicode="S" horiz-adv-x="590" 
d="M520 700v-150h-300v-122h300v-428h-450v150h300v128h-300v422h450z" />
    <glyph glyph-name="T" unicode="T" horiz-adv-x="510" 
d="M490 700v-150h-160v-550h-150v550h-160v150h470z" />
    <glyph glyph-name="U" unicode="U" 
d="M220 700v-550h170v550h150v-700h-470v700h150z" />
    <glyph glyph-name="V" unicode="V" horiz-adv-x="565" 
d="M525 700l-93 -700h-299l-93 700h150l70 -550h45l70 550h150z" />
    <glyph glyph-name="W" unicode="W" horiz-adv-x="840" 
d="M70 700h150v-550h125v550h150v-550h125v550h150v-700h-700v700z" />
    <glyph glyph-name="X" unicode="X" horiz-adv-x="594" 
d="M317 278h-40l-92 -278h-160l129 353l-119 347h160l82 -272h40l82 272h160l-119 -347l129 -353h-160z" />
    <glyph glyph-name="Y" unicode="Y" horiz-adv-x="560" 
d="M205 289l-215 411h165l125 -260l125 260h165l-215 -411v-289h-150v289z" />
    <glyph glyph-name="Z" unicode="Z" horiz-adv-x="570" 
d="M520 700v-147l-294 -403h294v-150h-470v150l294 400h-294v150h470z" />
    <glyph glyph-name="bracketleft" unicode="[" horiz-adv-x="345" 
d="M300 -24v82h-120v584h120v82h-230v-748h230z" />
    <glyph glyph-name="backslash" unicode="\" horiz-adv-x="332" 
d="M-64 647l97 53l363 -647l-97 -53z" />
    <glyph glyph-name="bracketright" unicode="]" horiz-adv-x="345" 
d="M45 -24v82h120v584h-120v82h230v-748h-230z" />
    <glyph glyph-name="asciicircum" unicode="^" horiz-adv-x="588" 
d="M294 580l-134 -300l-100 46l175 374h118l175 -374l-100 -46z" />
    <glyph glyph-name="underscore" unicode="_" horiz-adv-x="500" 
d="M500 -122h-500v50h500v-50z" />
    <glyph glyph-name="grave" unicode="`" horiz-adv-x="325" 
d="M102 845l193 -163l-30 -48l-235 96z" />
    <glyph glyph-name="a" unicode="a" horiz-adv-x="531" 
d="M409 550l72 -550h-140l-12 119h-127l-12 -119h-140l72 550h287zM216 259h99l-14 151h-71z" />
    <glyph glyph-name="b" unicode="b" horiz-adv-x="550" 
d="M70 0v550h410v-220l-67 -55l67 -55v-220h-410zM340 430h-130v-100h92l38 40v60zM210 220v-100h130v60l-38 40h-92z" />
    <glyph glyph-name="c" unicode="c" horiz-adv-x="542" 
d="M477 550v-200h-143v60h-121v-270h121v60h143v-200h-407v550h407z" />
    <glyph glyph-name="d" unicode="d" horiz-adv-x="590" 
d="M65 0v140h60v270h-60v140h455v-550h-455zM268 410v-270h109v270h-109z" />
    <glyph glyph-name="e" unicode="e" horiz-adv-x="492" 
d="M452 550v-130h-239v-80h119v-130h-119v-80h239v-130h-382v550h382z" />
    <glyph glyph-name="f" unicode="f" horiz-adv-x="468" 
d="M443 550v-130h-230v-94h169v-130h-169v-196h-143v550h373z" />
    <glyph glyph-name="g" unicode="g" horiz-adv-x="542" 
d="M477 550v-140h-264v-280h121v128h143v-258h-407v550h407z" />
    <glyph glyph-name="h" unicode="h" horiz-adv-x="550" 
d="M480 550v-550h-143v207h-124v-207h-143v550h143v-203h124v203h143z" />
    <glyph glyph-name="i" unicode="i" horiz-adv-x="363" 
d="M303 550v-140h-50v-270h50v-140h-243v140h50v270h-50v140h243z" />
    <glyph glyph-name="j" unicode="j" horiz-adv-x="343" 
d="M273 550v-505l-120 -152l-113 89l90 102v326h-73v140h216z" />
    <glyph glyph-name="k" unicode="k" horiz-adv-x="543" 
d="M507 550l-130 -266l136 -284h-155l-92 207h-53v-207h-143v550h143v-203h53l86 203h155z" />
    <glyph glyph-name="l" unicode="l" horiz-adv-x="510" 
d="M213 550v-410h127v60h140v-200h-410v550h143z" />
    <glyph glyph-name="m" unicode="m" horiz-adv-x="749" 
d="M679 0h-143v410h-90v-410h-143v410h-90v-410h-143v550h609v-550z" />
    <glyph glyph-name="n" unicode="n" horiz-adv-x="550" 
d="M480 0h-143v410h-124v-410h-143v550h410v-550z" />
    <glyph glyph-name="o" unicode="o" horiz-adv-x="550" 
d="M70 0v550h410v-550h-410zM213 410v-270h124v270h-124z" />
    <glyph glyph-name="p" unicode="p" horiz-adv-x="542" 
d="M477 550v-391h-264v-159h-143v550h407zM213 410v-121h121v121h-121z" />
    <glyph glyph-name="q" unicode="q" horiz-adv-x="550" 
d="M337 0v-82h-124v82h-143v550h410v-550h-143zM213 410v-270h124v270h-124z" />
    <glyph glyph-name="r" unicode="r" horiz-adv-x="548" 
d="M477 550v-376h-77l98 -174h-160l-83 174h-42v-174h-143v550h407zM213 420v-126h121v126h-121z" />
    <glyph glyph-name="s" unicode="s" horiz-adv-x="540" 
d="M470 550v-120h-257v-92h257v-338h-400v120h257v98h-257v332h400z" />
    <glyph glyph-name="t" unicode="t" horiz-adv-x="437" 
d="M422 550v-140h-132v-410h-143v410h-132v140h407z" />
    <glyph glyph-name="u" unicode="u" horiz-adv-x="547" 
d="M70 0v550h143v-410h121v410h143v-550h-407z" />
    <glyph glyph-name="v" unicode="v" horiz-adv-x="530" 
d="M123 0l-73 550h148l47 -410h40l47 410h148l-73 -550h-284z" />
    <glyph glyph-name="w" unicode="w" horiz-adv-x="749" 
d="M70 0v550h143v-410h90v410h143v-410h90v410h143v-550h-609z" />
    <glyph glyph-name="x" unicode="x" horiz-adv-x="516" 
d="M278 207h-40l-62 -207h-146l93 277l-86 273h146l55 -203h40l55 203h146l-86 -273l93 -277h-146z" />
    <glyph glyph-name="y" unicode="y" horiz-adv-x="461" 
d="M159 219l-169 331h148l93 -200l92 200h148l-169 -331v-219h-143v219z" />
    <glyph glyph-name="z" unicode="z" horiz-adv-x="500" 
d="M450 550v-140l-237 -270h237v-140h-400v140l237 270h-237v140h400z" />
    <glyph glyph-name="braceleft" unicode="{" horiz-adv-x="365" 
d="M136 350l62 -58v-234h122v-82h-232v307l-78 67l78 67v307h232v-82h-122v-234z" />
    <glyph glyph-name="bar" unicode="|" horiz-adv-x="260" 
d="M70 0v700h120v-700h-120z" />
    <glyph glyph-name="braceright" unicode="}" horiz-adv-x="365" 
d="M229 350l-62 58v234h-122v82h232v-307l78 -67l-78 -67v-307h-232v82h122v234z" />
    <glyph glyph-name="asciitilde" unicode="~" horiz-adv-x="612" 
d="M490 450l62 -71l-9 -15c-39 -64 -71 -99 -131 -99c-12 0 -53 1 -104 27l-22 11c-31 16 -53 26 -76 26c-38 0 -61 -26 -81 -64l-8 -15l-61 71l8 15c39 74 87 106 138 106c38 0 74 -17 106 -30l22 -9c23 -9 53 -25 74 -25c31 0 54 26 73 57z" />
    <glyph glyph-name="currency" unicode="&#xa4;" horiz-adv-x="590" 
d="M47 182l43 43c-12 18 -36 61 -36 125c0 66 23 108 36 127l-43 42l77 78l43 -42c24 17 62 37 128 37s104 -20 128 -37l43 42l77 -78l-44 -42c10 -14 37 -56 37 -127c0 -32 -6 -80 -37 -125l44 -43l-77 -78l-43 43c-46 -30 -98 -38 -128 -38s-82 8 -128 38l-43 -43z
M295 230c68 0 120 58 120 120c0 64 -52 121 -120 121s-120 -57 -120 -121c0 -62 52 -120 120 -120z" />
    <glyph glyph-name="brokenbar" unicode="&#xa6;" horiz-adv-x="260" 
d="M70 420v280h120v-280h-120zM70 0v280h120v-280h-120z" />
    <glyph glyph-name="section" unicode="&#xa7;" horiz-adv-x="520" 
d="M450 700v-151h-140v39h-100v-85h240v-503h-380v151h140v-39h100v85h-240v503h380zM310 397h-100v-94h100v94z" />
    <glyph glyph-name="copyright" unicode="&#xa9;" horiz-adv-x="842" 
d="M635 0h-428l-137 137v426l137 137h428l137 -137v-426zM596 73l103 103v348l-103 103h-350l-103 -103v-348l103 -103h350zM562 568v-138h-110v38h-62v-236h62v37h110v-137h-282v436h282z" />
    <glyph glyph-name="guillemotleft" unicode="&#xab;" horiz-adv-x="577" 
d="M70 242l95 185h112l-83 -185l83 -185h-112zM300 242l96 185h111l-83 -185l83 -185h-110z" />
    <glyph glyph-name="logicalnot" unicode="&#xac;" horiz-adv-x="628" 
d="M454 204v184h-394v114h508v-298h-114z" />
    <glyph glyph-name="registered" unicode="&#xae;" horiz-adv-x="842" 
d="M280 568h282v-296h-41l41 -140h-110l-28 140h-34v-140h-110v436zM452 468h-62v-96h62v96zM635 0h-428l-137 137v426l137 137h428l137 -137v-426zM596 73l103 103v348l-103 103h-350l-103 -103v-348l103 -103h350z" />
    <glyph glyph-name="degree" unicode="&#xb0;" horiz-adv-x="412" 
d="M312 647v-110l-53 -53h-107l-52 53v110l52 53h107zM254 642h-96v-100h96v100z" />
    <glyph glyph-name="plusminus" unicode="&#xb1;" horiz-adv-x="588" 
d="M237 458v189h114v-189h189v-114h-189v-189h-114v189h-189v114h189zM48 0v114h492v-114h-492z" />
    <glyph glyph-name="mu" unicode="&#xb5;" horiz-adv-x="630" 
d="M60 550h143l112 -215l112 215h143v-550h-140v350l-115 -213l-115 213v-350h-140v550z" />
    <glyph glyph-name="mu" unicode="&#x3bc;" horiz-adv-x="630" 
d="M60 550h143l112 -215l112 215h143v-550h-140v350l-115 -213l-115 213v-350h-140v550z" />
    <glyph glyph-name="paragraph" unicode="&#xb6;" horiz-adv-x="545" 
d="M475 0h-100v612h-58v-612h-100v359h-162v341h420v-700z" />
    <glyph glyph-name="periodcentered" unicode="&#xb7;" horiz-adv-x="462" 
d="M392 601v-54h-107l76 -75l-37 -38l-77 75v-107h-52v107l-77 -75l-37 38l76 75h-107v54h107l-76 76l37 37l77 -75v107h52v-107l77 75l37 -37l-76 -76h107z" />
    <glyph glyph-name="periodcentered" unicode="&#x2219;" horiz-adv-x="462" 
d="M392 601v-54h-107l76 -75l-37 -38l-77 75v-107h-52v107l-77 -75l-37 38l76 75h-107v54h107l-76 76l37 37l77 -75v107h52v-107l77 75l37 -37l-76 -76h107z" />
    <glyph glyph-name="guillemotright" unicode="&#xbb;" horiz-adv-x="577" 
d="M70 427h112l95 -185l-95 -185h-112l83 185zM301 427h113l93 -185l-93 -185h-113l82 185z" />
    <glyph glyph-name="circumflex" unicode="&#x2c6;" horiz-adv-x="418" 
d="M209 824l179 -124l-20 -57l-159 56l-159 -56l-20 57z" />
    <glyph glyph-name="tilde" unicode="&#x2dc;" horiz-adv-x="476" 
d="M387 810l50 -58l-7 -12c-31 -53 -58 -80 -106 -80c-37 0 -66 13 -84 22l-18 9c-27 13 -43 21 -61 21c-26 0 -48 -17 -66 -52l-6 -12l-50 57l6 13c12 25 50 85 112 85c35 0 67 -17 86 -24l18 -7c15 -6 41 -21 60 -21c17 0 38 11 59 47z" />
    <glyph glyph-name="afii10023" unicode="&#x401;" horiz-adv-x="570" 
d="M530 700v-150h-310v-125h158v-150h-158v-125h310v-150h-460v700h460zM110 888h140v-140h-140v140zM345 888h140v-140h-140v140z" />
    <glyph glyph-name="afii10051" unicode="&#x402;" horiz-adv-x="669" 
d="M479 700v-150h-180v-135h300v-415h-212v150h62v115h-150v-265h-150v550h-129v150h459z" />
    <glyph glyph-name="afii10052" unicode="&#x403;" horiz-adv-x="495" 
d="M485 700v-150h-265v-550h-150v700h415zM352 959l72 -118l-251 -95l-28 49z" />
    <glyph glyph-name="afii10053" unicode="&#x404;" 
d="M540 700v-203h-150v53h-170v-125h158v-150h-158v-125h170v53h150v-203h-470v700h470z" />
    <glyph glyph-name="afii10054" unicode="&#x405;" horiz-adv-x="590" 
d="M520 700v-150h-300v-122h300v-428h-450v150h300v128h-300v422h450z" />
    <glyph glyph-name="afii10055" unicode="&#x406;" horiz-adv-x="430" 
d="M360 700v-150h-70v-400h70v-150h-290v150h70v400h-70v150h290z" />
    <glyph glyph-name="afii10056" unicode="&#x407;" horiz-adv-x="430" 
d="M360 700v-150h-70v-400h70v-150h-290v150h70v400h-70v150h290zM177 879v-114h-126v114h126zM379 879v-114h-125v114h125z" />
    <glyph glyph-name="afii10057" unicode="&#x408;" horiz-adv-x="383" 
d="M313 700v-593l-150 -185l-118 104l118 130v394h-90v150h240z" />
    <glyph glyph-name="afii10058" unicode="&#x409;" horiz-adv-x="888" 
d="M523 700v-257h310v-443h-460v550h-106l-68 -550h-179v150h54l62 550h387zM523 293v-143h160v143h-160z" />
    <glyph glyph-name="afii10059" unicode="&#x40a;" horiz-adv-x="905" 
d="M540 700v-257h310v-443h-460v293h-170v-293h-150v700h150v-257h170v257h150zM540 293v-143h160v143h-160z" />
    <glyph glyph-name="afii10060" unicode="&#x40b;" horiz-adv-x="669" 
d="M479 700v-150h-180v-135h300v-415h-150v265h-150v-265h-150v550h-129v150h459z" />
    <glyph glyph-name="afii10061" unicode="&#x40c;" horiz-adv-x="603" 
d="M70 700h150v-272h69l131 272h158l-169 -338l179 -362h-165l-134 278h-69v-278h-150v700zM384 959l72 -118l-251 -95l-28 49z" />
    <glyph glyph-name="afii10062" unicode="&#x40e;" horiz-adv-x="605" 
d="M70 0v150h315v113h-315v437h150v-287h165v287h150v-700h-465zM462 906v-76l-60 -68h-200l-60 68v76h82v-68h156v68h82z" />
    <glyph glyph-name="afii10145" unicode="&#x40f;" 
d="M70 700h150v-550h170v550h150v-700h-160v-92h-150v92h-160v700z" />
    <glyph glyph-name="afii10017" unicode="&#x410;" horiz-adv-x="575" 
d="M535 0h-150l-15 165h-165l-15 -165h-150l68 700h359zM218 315h139l-22 235h-95z" />
    <glyph glyph-name="afii10018" unicode="&#x411;" 
d="M540 700v-150h-320v-117h320v-433h-470v700h470zM220 150h170v133h-170v-133z" />
    <glyph glyph-name="afii10019" unicode="&#x412;" 
d="M70 0v700h470v-280l-87 -70l87 -70v-280h-470zM390 550h-170v-130h116l54 51v79zM220 280v-130h170v79l-54 51h-116z" />
    <glyph glyph-name="afii10020" unicode="&#x413;" horiz-adv-x="495" 
d="M485 700v-150h-265v-550h-150v700h415z" />
    <glyph glyph-name="afii10021" unicode="&#x414;" horiz-adv-x="638" 
d="M540 700v-550h58v-242h-150v92h-269v-92h-149v242h58l74 550h378zM234 150h156v400h-101z" />
    <glyph glyph-name="afii10022" unicode="&#x415;" horiz-adv-x="560" 
d="M530 700v-150h-310v-125h158v-150h-158v-125h310v-150h-460v700h460z" />
    <glyph glyph-name="afii10024" unicode="&#x416;" horiz-adv-x="848" 
d="M349 700h150v-272h40l131 272h153l-164 -338l174 -362h-160l-134 278h-40v-278h-150v278h-40l-134 -278h-160l174 362l-164 338h153l131 -272h40v272z" />
    <glyph glyph-name="afii10025" unicode="&#x417;" horiz-adv-x="550" 
d="M50 0v150h269l-168 200l168 200h-269v150h450v-150l-168 -200l168 -200v-150h-450z" />
    <glyph glyph-name="afii10026" unicode="&#x418;" horiz-adv-x="638" 
d="M70 700h150v-418l198 418h150v-700h-150v418l-198 -418h-150v700z" />
    <glyph glyph-name="afii10027" unicode="&#x419;" horiz-adv-x="638" 
d="M70 700h150v-418l198 418h150v-700h-150v418l-198 -418h-150v700zM194 883h250v-125h-250v125z" />
    <glyph glyph-name="afii10028" unicode="&#x41a;" horiz-adv-x="603" 
d="M70 700h150v-272h69l131 272h158l-169 -338l179 -362h-165l-134 278h-69v-278h-150v700z" />
    <glyph glyph-name="afii10029" unicode="&#x41b;" horiz-adv-x="593" 
d="M523 0h-150v550h-106l-68 -550h-179v150h54l62 550h387v-700z" />
    <glyph glyph-name="afii10030" unicode="&#x41c;" horiz-adv-x="726" 
d="M70 700h150l143 -256l143 256h150v-700h-150v454l-143 -252l-143 252v-454h-150v700z" />
    <glyph glyph-name="afii10031" unicode="&#x41d;" 
d="M70 700h150v-272h170v272h150v-700h-150v278h-170v-278h-150v700z" />
    <glyph glyph-name="afii10032" unicode="&#x41e;" 
d="M70 700h470v-700h-470v700zM220 550v-400h170v400h-170z" />
    <glyph glyph-name="afii10033" unicode="&#x41f;" 
d="M540 0h-150v550h-170v-550h-150v700h470v-700z" />
    <glyph glyph-name="afii10034" unicode="&#x420;" 
d="M540 700v-490h-320v-210h-150v700h470zM220 550v-190h170v190h-170z" />
    <glyph glyph-name="afii10035" unicode="&#x421;" horiz-adv-x="600" 
d="M540 700v-218h-150v68h-170v-400h170v68h150v-218h-470v700h470z" />
    <glyph glyph-name="afii10036" unicode="&#x422;" horiz-adv-x="510" 
d="M490 700v-150h-160v-550h-150v550h-160v150h470z" />
    <glyph glyph-name="afii10037" unicode="&#x423;" horiz-adv-x="605" 
d="M70 0v150h315v113h-315v437h150v-287h165v287h150v-700h-465z" />
    <glyph glyph-name="afii10038" unicode="&#x424;" horiz-adv-x="810" 
d="M330 725h150v-105h260v-535h-260v-118h-150v118h-260v535h260v105zM220 225h115v255h-115v-255zM475 480v-255h115v255h-115z" />
    <glyph glyph-name="afii10039" unicode="&#x425;" horiz-adv-x="594" 
d="M317 278h-40l-92 -278h-160l129 353l-119 347h160l82 -272h40l82 272h160l-119 -347l129 -353h-160z" />
    <glyph glyph-name="afii10040" unicode="&#x426;" horiz-adv-x="639" 
d="M70 700h150v-550h165v550h150v-550h64v-242h-150v92h-379v700z" />
    <glyph glyph-name="afii10041" unicode="&#x427;" horiz-adv-x="590" 
d="M60 700h150v-310h160v310h150v-700h-150v240h-310v460z" />
    <glyph glyph-name="afii10042" unicode="&#x428;" horiz-adv-x="840" 
d="M70 700h150v-550h125v550h150v-550h125v550h150v-700h-700v700z" />
    <glyph glyph-name="afii10043" unicode="&#x429;" horiz-adv-x="875" 
d="M70 700h150v-550h125v550h150v-550h125v550h150v-550h65v-242h-150v92h-615v700z" />
    <glyph glyph-name="afii10044" unicode="&#x42a;" horiz-adv-x="655" 
d="M140 0v550h-120v150h270v-257h310v-443h-460zM290 293v-143h160v143h-160z" />
    <glyph glyph-name="afii10045" unicode="&#x42b;" horiz-adv-x="850" 
d="M70 700h150v-257h310v-443h-460v700zM220 293v-143h160v143h-160zM630 700h150v-700h-150v700z" />
    <glyph glyph-name="afii10046" unicode="&#x42c;" horiz-adv-x="585" 
d="M70 700h150v-257h310v-443h-460v700zM220 293v-143h160v143h-160z" />
    <glyph glyph-name="afii10047" unicode="&#x42d;" 
d="M70 0v203h150v-53h170v125h-158v150h158v125h-170v-53h-150v203h470v-700h-470z" />
    <glyph glyph-name="afii10048" unicode="&#x42e;" horiz-adv-x="830" 
d="M70 700h150v-272h100v272h440v-700h-440v278h-100v-278h-150v700zM460 550v-400h150v400h-150z" />
    <glyph glyph-name="afii10049" unicode="&#x42f;" horiz-adv-x="629" 
d="M559 0h-150v230h-71l-113 -230h-170l128 235h-94v465h470v-700zM409 550h-170v-170h170v170z" />
    <glyph glyph-name="afii10065" unicode="&#x430;" horiz-adv-x="531" 
d="M409 550l72 -550h-140l-12 119h-127l-12 -119h-140l72 550h287zM216 259h99l-14 151h-71z" />
    <glyph glyph-name="afii10066" unicode="&#x431;" horiz-adv-x="540" 
d="M470 550v-120h-257v-92h257v-338h-400v550h400zM213 120h114v98h-114v-98z" />
    <glyph glyph-name="afii10067" unicode="&#x432;" horiz-adv-x="550" 
d="M480 550v-220l-67 -55l67 -55v-220h-410v550h410zM340 430h-130v-100h92l38 40v60zM210 220v-100h130v60l-38 40h-92z" />
    <glyph glyph-name="afii10068" unicode="&#x433;" horiz-adv-x="449" 
d="M429 550v-140h-216v-410h-143v550h359z" />
    <glyph glyph-name="afii10069" unicode="&#x434;" horiz-adv-x="581" 
d="M486 550v-410h50v-222h-143v82h-205v-82h-143v222h50l55 410h336zM226 140h117v270h-78z" />
    <glyph glyph-name="afii10070" unicode="&#x435;" horiz-adv-x="487" 
d="M452 550v-130h-239v-80h119v-130h-119v-80h239v-130h-382v550h382z" />
    <glyph glyph-name="afii10072" unicode="&#x436;" horiz-adv-x="739" 
d="M441 212v-212h-143v212h-34l-92 -212h-147l136 284l-129 266h146l86 -208h34v208h143v-208h34l86 208h146l-129 -266l136 -284h-147l-92 212h-34z" />
    <glyph glyph-name="afii10073" unicode="&#x437;" horiz-adv-x="510" 
d="M55 0v140h231l-122 135l122 135h-231v140h400v-138l-126 -137l126 -137v-138h-400z" />
    <glyph glyph-name="afii10074" unicode="&#x438;" horiz-adv-x="584" 
d="M371 550h143v-550h-143v324l-158 -324h-143v550h143v-324z" />
    <glyph glyph-name="afii10075" unicode="&#x439;" horiz-adv-x="584" 
d="M371 550h143v-550h-143v324l-158 -324h-143v550h143v-324zM177 713h230v-105h-230v105z" />
    <glyph glyph-name="afii10076" unicode="&#x43a;" horiz-adv-x="538" 
d="M213 207v-207h-143v550h143v-203h53l86 203h155l-130 -266l136 -284h-155l-92 207h-53z" />
    <glyph glyph-name="afii10077" unicode="&#x43b;" horiz-adv-x="529" 
d="M459 0h-143v410h-70l-55 -410h-161v140h47l51 410h331v-550z" />
    <glyph glyph-name="afii10078" unicode="&#x43c;" horiz-adv-x="650" 
d="M70 550h143l112 -215l112 215h143v-550h-143v350l-112 -213l-112 213v-350h-143v550z" />
    <glyph glyph-name="afii10079" unicode="&#x43d;" horiz-adv-x="550" 
d="M70 550h143v-203h124v203h143v-550h-143v207h-124v-207h-143v550z" />
    <glyph glyph-name="afii10080" unicode="&#x43e;" horiz-adv-x="550" 
d="M480 550v-550h-410v550h410zM213 410v-270h124v270h-124z" />
    <glyph glyph-name="afii10081" unicode="&#x43f;" horiz-adv-x="547" 
d="M477 0h-143v410h-121v-410h-143v550h407v-550z" />
    <glyph glyph-name="afii10082" unicode="&#x440;" horiz-adv-x="542" 
d="M70 550h407v-391h-264v-159h-143v550zM213 410v-121h121v121h-121z" />
    <glyph glyph-name="afii10083" unicode="&#x441;" horiz-adv-x="542" 
d="M477 550v-200h-143v60h-121v-270h121v60h143v-200h-407v550h407z" />
    <glyph glyph-name="afii10084" unicode="&#x442;" horiz-adv-x="437" 
d="M422 550v-140h-132v-410h-143v410h-132v140h407z" />
    <glyph glyph-name="afii10085" unicode="&#x443;" horiz-adv-x="540" 
d="M70 0v130h257v74h-257v346h143v-216h114v216h143v-550h-400z" />
    <glyph glyph-name="afii10086" unicode="&#x444;" horiz-adv-x="697" 
d="M70 59v436h207v82h143v-82h207v-436h-207v-93h-143v93h-207zM205 179h79v196h-79v-196zM413 375v-196h79v196h-79z" />
    <glyph glyph-name="afii10087" unicode="&#x445;" horiz-adv-x="516" 
d="M278 207h-40l-62 -207h-146l93 277l-86 273h146l55 -203h40l55 203h146l-86 -273l93 -277h-146z" />
    <glyph glyph-name="afii10088" unicode="&#x446;" horiz-adv-x="565" 
d="M70 550h143v-410h114v410h143v-410h50v-222h-143v82h-307v550z" />
    <glyph glyph-name="afii10089" unicode="&#x447;" horiz-adv-x="532" 
d="M55 550h143v-230h121v230h143v-550h-143v180h-264v370z" />
    <glyph glyph-name="afii10090" unicode="&#x448;" horiz-adv-x="749" 
d="M70 0v550h143v-410h90v410h143v-410h90v410h143v-550h-609z" />
    <glyph glyph-name="afii10091" unicode="&#x449;" horiz-adv-x="774" 
d="M70 550h143v-410h90v410h143v-410h90v410h143v-410h50v-222h-143v82h-516v550z" />
    <glyph glyph-name="afii10092" unicode="&#x44a;" horiz-adv-x="575" 
d="M103 0v410h-78v140h221v-169h264v-381h-407zM246 130h121v121h-121v-121z" />
    <glyph glyph-name="afii10093" unicode="&#x44b;" horiz-adv-x="769" 
d="M70 550h143v-169h254v-381h-397v550zM213 130h121v121h-121v-121zM556 550h143v-550h-143v550z" />
    <glyph glyph-name="afii10094" unicode="&#x44c;" horiz-adv-x="542" 
d="M70 550h143v-169h264v-381h-407v550zM213 130h121v121h-121v-121z" />
    <glyph glyph-name="afii10095" unicode="&#x44d;" horiz-adv-x="545" 
d="M65 0v173h140v-43h127v86h-115v120h115v84h-127v-39h-140v169h410v-550h-410z" />
    <glyph glyph-name="afii10096" unicode="&#x44e;" horiz-adv-x="752" 
d="M302 550h380v-550h-380v207h-89v-207h-143v550h143v-203h89v203zM435 410v-270h104v270h-104z" />
    <glyph glyph-name="afii10097" unicode="&#x44f;" horiz-adv-x="553" 
d="M483 550v-550h-143v174h-42l-83 -174h-160l98 174h-77v376h407zM340 420h-121v-126h121v126z" />
    <glyph glyph-name="afii10071" unicode="&#x451;" horiz-adv-x="497" 
d="M452 550v-130h-239v-80h119v-130h-119v-80h239v-130h-382v550h382zM81 743h130v-130h-130v130zM310 743h130v-130h-130v130z" />
    <glyph glyph-name="afii10099" unicode="&#x452;" horiz-adv-x="563" 
d="M412 550v-140h-152v-93h243v-317h-183v120h40v77h-100v-197h-143v410h-102v140h397z" />
    <glyph glyph-name="afii10100" unicode="&#x453;" horiz-adv-x="449" 
d="M429 550v-140h-216v-410h-143v550h359zM342 845l72 -115l-235 -96l-30 48z" />
    <glyph glyph-name="afii10101" unicode="&#x454;" horiz-adv-x="545" 
d="M475 550v-169h-140v39h-127v-84h115v-120h-115v-86h127v43h140v-173h-410v550h410z" />
    <glyph glyph-name="afii10102" unicode="&#x455;" horiz-adv-x="540" 
d="M470 550v-120h-257v-92h257v-338h-400v120h257v98h-257v332h400z" />
    <glyph glyph-name="afii10103" unicode="&#x456;" horiz-adv-x="363" 
d="M303 550v-140h-50v-270h50v-140h-243v140h50v270h-50v140h243z" />
    <glyph glyph-name="afii10104" unicode="&#x457;" horiz-adv-x="363" 
d="M303 550v-140h-50v-270h50v-140h-243v140h50v270h-50v140h243zM160 756v-104h-108v104h108zM310 756v-104h-108v104h108z" />
    <glyph glyph-name="afii10105" unicode="&#x458;" horiz-adv-x="343" 
d="M273 550v-505l-120 -152l-113 89l90 102v326h-73v140h216z" />
    <glyph glyph-name="afii10106" unicode="&#x459;" horiz-adv-x="788" 
d="M459 550v-169h264v-381h-407v410h-70l-55 -410h-161v130h47l51 420h331zM459 130h121v121h-121v-121z" />
    <glyph glyph-name="afii10107" unicode="&#x45a;" horiz-adv-x="809" 
d="M480 550v-169h264v-381h-407v207h-124v-207h-143v550h143v-203h124v203h143zM480 130h121v121h-121v-121z" />
    <glyph glyph-name="afii10108" unicode="&#x45b;" horiz-adv-x="563" 
d="M412 550v-140h-152v-93h243v-317h-143v197h-100v-197h-143v410h-102v140h397z" />
    <glyph glyph-name="afii10109" unicode="&#x45c;" horiz-adv-x="538" 
d="M213 207v-207h-143v550h143v-203h53l86 203h155l-130 -266l136 -284h-155l-92 207h-53zM329 845l72 -115l-235 -96l-30 48z" />
    <glyph glyph-name="afii10110" unicode="&#x45e;" horiz-adv-x="540" 
d="M70 0v130h257v74h-257v346h143v-216h114v216h143v-550h-400zM430 796v-76l-60 -68h-200l-60 68v76h101v-68h118v68h101z" />
    <glyph glyph-name="afii10193" unicode="&#x45f;" horiz-adv-x="547" 
d="M70 550h143v-410h121v410h143v-550h-143v-82h-121v82h-143v550z" />
    <glyph glyph-name="afii10050" unicode="&#x490;" horiz-adv-x="495" 
d="M485 759v-209h-265v-550h-150v700h265v59h150z" />
    <glyph glyph-name="afii10098" unicode="&#x491;" horiz-adv-x="449" 
d="M429 600v-190h-216v-410h-143v550h234v50h125z" />
    <glyph glyph-name="endash" unicode="&#x2013;" horiz-adv-x="180" 
d="M176 406v-94h-172v94h172z" />
    <glyph glyph-name="emdash" unicode="&#x2014;" horiz-adv-x="500" 
d="M470 400v-80h-440v80h440z" />
    <glyph glyph-name="quoteleft" unicode="&#x2018;" horiz-adv-x="340" 
d="M70 473l102 215h98l-67 -215h-133z" />
    <glyph glyph-name="quoteright" unicode="&#x2019;" horiz-adv-x="340" 
d="M70 473l67 215h133l-105 -215h-95z" />
    <glyph glyph-name="quotesinglbase" unicode="&#x201a;" horiz-adv-x="334" 
d="M70 -89l61 218h133l-99 -218h-95z" />
    <glyph glyph-name="quotedblleft" unicode="&#x201c;" horiz-adv-x="520" 
d="M70 474l98 214h97l-62 -214h-133zM255 474l98 214h97l-62 -214h-133z" />
    <glyph glyph-name="quotedblright" unicode="&#x201d;" horiz-adv-x="520" 
d="M70 474l63 214h132l-99 -214h-96zM255 474l62 214h133l-100 -214h-95z" />
    <glyph glyph-name="quotedblbase" unicode="&#x201e;" horiz-adv-x="516" 
d="M70 -89l59 218h132l-97 -218h-94zM255 -89l58 218h133l-97 -218h-94z" />
    <glyph glyph-name="dagger" unicode="&#x2020;" horiz-adv-x="530" 
d="M320 700v-128h140v-106h-140v-128h140v-106h-140v-232h-110v232h-140v106h140v128h-140v106h140v128h110z" />
    <glyph glyph-name="daggerdbl" unicode="&#x2021;" horiz-adv-x="268" 
d="M70 688h128l-28 -217h-72z" />
    <glyph glyph-name="bullet" unicode="&#x2022;" horiz-adv-x="440" 
d="M70 319c0 83 67 150 150 150s150 -67 150 -150s-67 -150 -150 -150s-150 67 -150 150z" />
    <glyph glyph-name="ellipsis" unicode="&#x2026;" horiz-adv-x="795" 
d="M70 145h145v-145h-145v145zM325 145h145v-145h-145v145zM580 145h145v-145h-145v145z" />
    <glyph glyph-name="perthousand" unicode="&#x2030;" horiz-adv-x="1115" 
d="M306 700v-352h-266v352h266zM204 610h-62v-172h62v172zM725 352v-352h-266v352h266zM623 262h-62v-172h62v172zM1075 352v-352h-266v352h266zM973 262h-62v-172h62v172zM655 655l-483 -655l-56 45l483 655z" />
    <glyph glyph-name="Euro" unicode="&#x20ac;" horiz-adv-x="560" 
d="M516 665v-122c-23 22 -68 44 -137 44c-87 0 -134 -42 -148 -118h253l-32 -90h-233c-1 -7 -1 -16 -1 -26c0 -11 0 -23 1 -30h212l-32 -90h-168c14 -78 64 -119 149 -119c66 0 111 21 136 42v-122c-19 -14 -73 -34 -156 -34c-142 0 -235 74 -261 233h-81l32 90h39
c-1 7 -1 17 -1 30c0 10 0 18 1 26h-71l32 90h47c26 138 104 231 263 231c75 0 133 -20 156 -35z" />
    <glyph glyph-name="trademark" unicode="&#x2122;" horiz-adv-x="895" 
d="M60 700h313v-111h-105v-325h-103v325h-105v111zM431 700h113l89 -171l89 171h113v-436h-101v287l-101 -178l-101 178v-287h-101v436z" />
    <glyph glyph-name="hyphenminus" horiz-adv-x="308" 
d="M35 299h238v-85h-238v85z" />
    <glyph glyph-name="quilsinglleft" horiz-adv-x="347" 
d="M70 242l95 185h112l-87 -185l87 -185h-111z" />
    <glyph glyph-name="quilsinglright" horiz-adv-x="357" 
d="M80 428h111l96 -186l-96 -186h-111l77 186z" />
    <glyph glyph-name="numero" horiz-adv-x="982" 
d="M912 615v-352h-266v352h266zM810 515h-62v-152h62v152zM646 185h266v-106h-266v106zM220 700l188 -418v418h150v-700h-150l-188 418v-418h-150v700h150z" />
  </font>
</defs>
</svg>
