<?xml version="1.0" standalone="no"?>
<!DOCTYPE svg PUBLIC "-//W3C//DTD SVG 1.1//EN" "http://www.w3.org/Graphics/SVG/1.1/DTD/svg11.dtd" >
<svg>
<metadata>
Created by FontForge 20090914 at Thu Apr 15 00:54:54 2021
 By www-data
Copyright 2014 Adobe Systems Incorporated. All rights reserved.
</metadata>
<defs>
<font id="Sunday-Regular" horiz-adv-x="595" >
  <font-face 
    font-family="Sunday"
    font-weight="400"
    font-stretch="normal"
    units-per-em="1000"
    panose-1="0 0 5 0 0 0 0 0 0 0"
    ascent="750"
    descent="-250"
    x-height="744"
    cap-height="761"
    bbox="-263 -685.004 1336 1013"
    underline-thickness="50"
    underline-position="-50"
    unicode-range="U+0020-U+25CA"
  />
<missing-glyph horiz-adv-x="500" 
d="M93 -250v1000h317v-1000h-317zM168 650h65v-37h-66v-33h166v33h-66v37h66v33h-165v-33zM167 450h166v34h-66v70h-100v-104zM200 484v36h33v-36h-33zM167 390h66v-37h-66v-33h100v70h66v33h-166v-33zM300 297h-133v-34h166v100h-33v-66zM233 185h34v23h33v-47h-100v80h-33
v-113h166v113h-100v-56zM167 -45h166v113h-166v-113zM200 -12v47h100v-47h-100zM167 -101h70l-70 -47v-33h166v33h-102l70 47h32v33h-166v-33z" />
    <glyph glyph-name=".notdef" horiz-adv-x="500" 
d="M93 -250v1000h317v-1000h-317zM168 650h65v-37h-66v-33h166v33h-66v37h66v33h-165v-33zM167 450h166v34h-66v70h-100v-104zM200 484v36h33v-36h-33zM167 390h66v-37h-66v-33h100v70h66v33h-166v-33zM300 297h-133v-34h166v100h-33v-66zM233 185h34v23h33v-47h-100v80h-33
v-113h166v113h-100v-56zM167 -45h166v113h-166v-113zM200 -12v47h100v-47h-100zM167 -101h70l-70 -47v-33h166v33h-102l70 47h32v33h-166v-33z" />
    <glyph glyph-name="space" unicode=" " horiz-adv-x="500" 
 />
    <glyph glyph-name="exclam" unicode="!" horiz-adv-x="174" 
d="M86 -43c-20 22.667 -29.999 66.999 -29.999 132.999l1 45c0.666992 7.33301 1 17.666 1 30.999c0 16 -2.66699 36 -8 60c-6 26 -9.66699 47.667 -11 65l-4 37c-9.33301 80 -14 145 -14 195c0 18.667 0.333008 32.334 1 41.001l1 19c-5.33301 6 -8 11 -8 15
c0 2 1.5 5.16699 4.5 9.5s4.83301 8.83301 5.5 13.5c1.33301 32.667 3.83301 61.5 7.5 86.5s9.83398 41.5 18.501 49.5c29.333 -1.33301 52.666 -4.66602 69.999 -9.99902s25.666 -16.666 24.999 -33.999c8.66699 -19.333 13 -43.666 13 -72.999
c0 -16 -1.5 -34.5 -4.5 -55.5s-6.16699 -41.5 -9.5 -61.5c-0.666992 -4.66699 -3 -20 -7 -46s-6.66699 -51 -8 -75c-0.666992 -6.66699 -1 -17 -1 -31v-3c0 -16 0.666992 -33.333 2 -52s2.33301 -31.334 3 -38.001c2.66699 -33.333 4 -57 4 -71
c0 -20.667 -1.33301 -40.167 -4 -58.5s-6.66699 -39.833 -12 -64.5c-6 -26.667 -10.333 -49.334 -13 -68.001s-3.66699 -38.667 -3 -60zM46.001 -139.001c8 5.33301 18.332 8.00195 30.999 8.00195c18 0 35.667 -4.33301 53 -13
c8.66699 -4.66699 15.334 -11.334 20.001 -20.001s7 -18.334 7 -29.001c0 -13.333 -3.83301 -24.5 -11.5 -33.5s-19.167 -13.5 -34.5 -13.5c-6 -3.33301 -13 -5 -21 -5c-15.333 0 -28.5 7.83301 -39.5 23.5s-16.5 35.167 -16.5 58.5c0 10.667 4 18.667 12 24z" />
    <glyph glyph-name="quotedbl" unicode="&#x22;" horiz-adv-x="227" 
d="M41 539c0 26.667 -0.666992 48.1689 -2 64.502s-5 30.166 -11 41.499v14c0 8 -0.666992 15 -2 21s-5 12 -11 18c4 8 10 14.667 18 20s16 8 24 8c11.333 0 19.333 -4.66699 24 -14c10 -10.667 15 -27.667 15 -51c0 -25.333 -5 -57.333 -15 -96
c2 -4.66699 3 -9.33398 3 -14.001c0 -7.33301 -2 -13.166 -6 -17.499s-8.33301 -5.83301 -13 -4.5c-4 1.33301 -7.33301 4.66602 -10 9.99902h-14zM159.5 533.502c-2.33301 5 -3.83301 11.835 -4.5 20.502c-1.33301 12.667 -4 21 -8 25c2 8 3 16.333 3 25
c0 10.667 -2 26 -6 46c-4.66699 19.333 -6.66699 35 -6 47c1.33301 11.333 4.33301 20.666 9 27.999c15.333 0 26.333 -0.666992 33 -2s13.334 -5 20.001 -11c8 -8.66699 12 -20.334 12 -35.001c0 -10.667 -1.83301 -23.667 -5.5 -39s-7.83398 -30.333 -12.501 -45
c-3.33301 -10.667 -6 -20 -8 -28c0 -2.66699 1 -6.66699 3 -12s3 -9 3 -11s-2 -3 -6 -3c0 -6.66699 -0.5 -10.5 -1.5 -11.5s-4.83301 -1.5 -11.5 -1.5s-11.167 2.5 -13.5 7.5z" />
    <glyph glyph-name="numbersign" unicode="#" horiz-adv-x="552" 
d="M441.5 287c-7 1.33301 -18.8252 1.99316 -35.4922 1.99316l-25 -93h59c8 -5.33301 14.333 -9.33301 19 -12c9.33301 -4.66699 16 -9.66699 20 -15s6 -14.666 6 -27.999c0 -9.33301 -3.83301 -15.5 -11.5 -18.5s-18.834 -4.5 -33.501 -4.5c-12 2 -22.5 3.5 -31.5 4.5
s-23.833 1.5 -44.5 1.5c-2.66699 -11.333 -4.33398 -18.666 -5.00098 -21.999c-14 -56.667 -24.5 -97 -31.5 -121s-14.833 -43 -23.5 -57c-12 -7.33301 -23.667 -11 -35 -11c-8.66699 0 -18.334 2.33301 -29.001 7c5.33301 15.333 13.333 37 24 65
c7.33301 19.333 15.666 42.666 24.999 69.999c0.666992 6.66699 4.66699 29.334 12 68.001c-12.667 0 -26.334 -0.666992 -41.001 -2l-42 -2c-16 -65.333 -27.833 -112 -35.5 -140s-16.167 -49.333 -25.5 -64c-12 -7.33301 -23.333 -11 -34 -11
c-9.33301 0 -19.333 2.33301 -30 7c3.33301 10.667 11.333 32 24 64l15 41l11 30c0.666992 6.66699 4.66699 30 12 70c-7.33301 -0.666992 -16.666 -1 -27.999 -1c-14 0 -33 2 -57 6c-11.333 8.66699 -18.333 17.334 -21 26.001s-4 19.667 -4 33h60h55l9 2l12 53l11 47
l-50 -2c-6.66699 0 -13.834 0.833008 -21.501 2.5s-13.834 2.83398 -18.501 3.50098c-11.333 8.66699 -18.333 17.334 -21 26.001s-4 19.667 -4 33h60h15c16 3.33301 35 6 57 8c6.66699 20 16.334 52 29.001 96c3.33301 10 6.16602 19.333 8.49902 28s4.5 15.667 6.5 21
c6.66699 4 13 9.66699 19 17c5.33301 6 10.166 10.5 14.499 13.5s9.83301 4.5 16.5 4.5c5.33301 0 11 -1.33301 17 -4c6.66699 -2.66699 10 -8 10 -16c0 -4.66699 -0.666992 -11.167 -2 -19.5s-2 -15.833 -2 -22.5c-5.33301 -9.33301 -10.833 -21.5 -16.5 -36.5
s-9.5 -24.833 -11.5 -29.5c-10 -25.333 -16.667 -41 -20 -47l78 3c8 24.667 16.333 52.334 25 83.001c10.667 36 17 57 19 63c6.66699 4 13 9.66699 19 17c6 6 11.333 10.5 16 13.5s10 4.5 16 4.5c10 0 18.167 -2.66699 24.5 -8s9.5 -12.333 9.5 -21
c0 -10.667 -4 -21.667 -12 -33c-8 -14 -18 -38 -30 -72l-10 -25.5c-4 -10.333 -7 -17.5 -9 -21.5h38c8 -5.33301 14.333 -9.33301 19 -12c9.33301 -4.66699 16 -9.66699 20 -15s6 -14.666 6 -27.999c0 -9.33301 -3.83301 -15.5 -11.5 -18.5s-18.834 -4.5 -33.501 -4.5z
M256.008 191.993c35.333 2 55.333 3.00098 60 3.00098c4.66699 21.333 8.66699 38.666 12 51.999l11 42l-43 -2l-36 -3l-25 -94z" />
    <glyph glyph-name="dollar" unicode="$" horiz-adv-x="477" 
d="M342.5 650c1.66699 2 2.82715 6.49902 3.49414 13.499s3.33398 12.5 8.00098 16.5c5.33301 6 14 9 26 9c8 0 15.167 -1.5 21.5 -4.5s9.83301 -7.5 10.5 -13.5c0.666992 -2.66699 1 -7 1 -13c0 -12 -1 -25 -3 -39c-3.33301 -30 -4.66602 -50.667 -3.99902 -62
c0 -19.333 2.66699 -36.666 8 -51.999c-8 -8 -15.333 -12 -22 -12c-7.33301 0 -14.166 3.83301 -20.499 11.5s-13.166 18.5 -20.499 32.5c-9.33301 16 -16 25.667 -20 29c0 8.66699 -3.33301 14.167 -10 16.5s-16.667 3.5 -30 3.5c-6.66699 -4 -11 -10 -13 -18
c-1.33301 -3.33301 -2 -9 -2 -17l1 -27c1.33301 -13.333 2 -23.333 2 -30c0 -13.333 -2 -24.166 -6 -32.499s-11.333 -14.5 -22 -18.5c-10.667 0 -17.667 5.83301 -21 17.5s-6 29.834 -8 54.501c-1.33301 28 -4.66602 45 -9.99902 51
c-11.333 -7.33301 -19.833 -19.166 -25.5 -35.499s-8.5 -34.5 -8.5 -54.5c0 -18.667 2.33301 -36.834 7 -54.501s11 -31.834 19 -42.501c16 -20.667 34.333 -38.667 55 -54s47.667 -33.666 81 -54.999c44.667 -28 76.334 -51 95.001 -69c13.333 -36 20 -75.333 20 -118
c0 -43.333 -7 -85.333 -21 -126s-33.5 -75.667 -58.5 -105s-53.167 -49.333 -84.5 -60c-3.33301 -3.33301 -6.33301 -12.333 -9 -27c-0.666992 -8.66699 -1 -22.334 -1 -41.001c0 -18 -0.5 -31.333 -1.5 -40s-3.83301 -13 -8.5 -13c-5.33301 -2 -10 -3 -14 -3
c-12 0 -20.167 6.16699 -24.5 18.5s-7.83301 30.5 -10.5 54.5c-2.66699 24.667 -6 41.667 -10 51c-39.333 0 -74.833 9.16699 -106.5 27.5s-57.5 43.5 -77.5 75.5c0.666992 12 -0.333008 26.667 -3 44c-2 8 -3 16 -3 24c0 18 8.66699 35.667 26 53
c10 0 24.333 3.33301 43 10c16 5.33301 27 8 33 8c11.333 0 19.666 -6 24.999 -18c0 -7.33301 -3 -14 -9 -20c-2 -2.66699 -4 -5.5 -6 -8.5s-3 -6.83301 -3 -11.5c0 -30 4.66699 -55.167 14 -75.5s24.333 -30.5 45 -30.5c4 0 11.333 1.33301 22 4c4 8 6.66699 18.333 8 31
c0.666992 6.66699 1 16.667 1 30s0.5 24.5 1.5 33.5s3.5 18.167 7.5 27.5c5.33301 2.66699 10.333 4 15 4c14 0 25.167 -9 33.5 -27s12.5 -37 12.5 -57c18 9.33301 29.167 21.666 33.5 36.999s6.5 36.333 6.5 63c0 10 -0.666992 21 -2 33s-2.33301 20.667 -3 26
c-4 26.667 -6 47 -6 61c0 26.667 -10.667 53.5 -32 80.5s-46.666 48.167 -75.999 63.5c-36.667 20 -66.667 47.667 -90 83s-35 75.333 -35 120c0 34.667 7.33301 69 22 103c1.33301 1.33301 7 7.66602 17 18.999c12 14.667 24.167 27 36.5 37s28.833 18.667 49.5 26v61
c0 6 2.83301 10.5 8.5 13.5s11.667 4.83301 18 5.5s10.5 1 12.5 1c8.66699 -18.667 14.167 -33.667 16.5 -45s3.5 -23.333 3.5 -36c8.66699 -9.33301 17.5 -15.166 26.5 -17.499s20.167 -3.5 33.5 -3.5c6 0 9.83301 1 11.5 3z" />
    <glyph glyph-name="ampersand" unicode="&#x26;" horiz-adv-x="645" 
d="M615.5 328c5 -16 7.50684 -33.001 7.50684 -51.001c0 -24.667 -4 -48 -12 -70s-18.667 -37.667 -32 -47c-5.33301 -5.33301 -16 -10.666 -32 -15.999c-16.667 -5.33301 -27.667 -10.666 -33 -15.999l13 -24c6.66699 -11.333 11.667 -21 15 -29s5 -17 5 -27
c2.66699 -12.667 4 -27.334 4 -44.001c0 -36 -6.5 -71.5 -19.5 -106.5s-28.833 -58.833 -47.5 -71.5c-7.33301 -14 -19.833 -25.5 -37.5 -34.5s-42.5 -18.833 -74.5 -29.5c-17.333 -6 -37.666 -9 -60.999 -9c-22.667 0 -50.334 3 -83.001 9
c-32.667 5.33301 -63.5 16.666 -92.5 33.999s-51.167 38 -66.5 62c-10.667 10.667 -21.167 26.334 -31.5 47.001s-15.5 42 -15.5 64c0 25.333 3 52.666 9 81.999s13.667 55 23 77c4 15.333 10.667 27.5 20 36.5s23 19.833 41 32.5c17.333 10.667 29 19 35 25
c-46.667 46.667 -71.667 92.334 -75 137.001c-1.33301 16 -2 27.333 -2 34v3c0 71.333 17.833 126.833 53.5 166.5s85.167 59.5 148.5 59.5c7.33301 0 18.333 -0.666992 33 -2c25.333 0 48.5 -4 69.5 -12s35.167 -19.667 42.5 -35l10.5 -20
c4.33301 -8 7.5 -15.167 9.5 -21.5s3 -12.833 3 -19.5c0 -9.33301 -2.33301 -20.666 -7 -33.999c0 -4.66699 -1.33301 -9.5 -4 -14.5s-5.16699 -9 -7.5 -12s-3.83301 -4.83301 -4.5 -5.5c-4.66699 -4.66699 -9.33398 -7 -14.001 -7c-5.33301 0 -10.333 1.83301 -15 5.5
s-11 9.5 -19 17.5v32h15c2.66699 6 4 12.667 4 20c0 20 -10 34.833 -30 44.5s-43 14.5 -69 14.5c-23.333 0 -41.333 -3.5 -54 -10.5s-26.667 -19.5 -42 -37.5c-8.66699 -25.333 -15.334 -47.833 -20.001 -67.5s-7 -38.5 -7 -56.5c0 -6 0.666992 -14.333 2 -25
c5.33301 -37.333 14.833 -66.666 28.5 -87.999s34.167 -32.666 61.5 -33.999c14.667 -0.666992 26.667 -5.33398 36 -14.001s14 -18.667 14 -30c0 -5.33301 -1 -10.666 -3 -15.999c-6 -14 -14.333 -23.833 -25 -29.5s-24.667 -10.5 -42 -14.5c-16 -4 -28.667 -8.5 -38 -13.5
s-17 -13.5 -23 -25.5c-12.667 -28 -21.834 -50.5 -27.501 -67.5s-8.5 -33.5 -8.5 -49.5c0 -24.667 8 -58.334 24 -101.001c9.33301 -25.333 26.833 -48.166 52.5 -68.499s53.5 -30.5 83.5 -30.5c18.667 0 36 3.16699 52 9.5s35.667 15.5 59 27.5l21 11l17 15
c16 13.333 26.333 24.333 31 33c7.33301 13.333 13 29.333 17 48s6 38 6 58c0 32 -5.83301 60.167 -17.5 84.5s-29.5 40.166 -53.5 47.499c-14.667 -4 -23.834 -11 -27.501 -21s-5.33398 -19.167 -5.00098 -27.5s0.5 -13.5 0.5 -15.5c8 -8 13.333 -12.667 16 -14s8 -2 16 -2
c4.66699 -4.66699 7 -10.334 7 -17.001c0 -7.33301 -2.5 -14.166 -7.5 -20.499s-10.167 -9.5 -15.5 -9.5c-6.66699 0 -13.334 2 -20.001 6s-11 7 -13 9c-10.667 11.333 -18.5 20.333 -23.5 27s-7.5 13.667 -7.5 21c-6 6 -9 16.333 -9 31c0 8.66699 1 17.667 3 27
s4 16.666 6 21.999c4 9.33301 13.167 17 27.5 23s26.5 9 36.5 9h32c14 0 27.333 2.5 40 7.5s31 13.167 55 24.5c15.333 14 23 32.667 23 56c0 12.667 -2.33301 25.667 -7 39c0 10.667 -7.5 20.334 -22.5 29.001s-30.5 13 -46.5 13c-10.667 0 -19.167 -2.33301 -25.5 -7
s-9.5 -12.334 -9.5 -23.001c0 -12.667 1.83301 -22 5.5 -28s9.5 -12.667 17.5 -20c5.33301 -4.66699 9.33301 -9 12 -13s4 -9.33301 4 -16c0 -7.33301 -2.33301 -11.833 -7 -13.5s-12.334 -2.5 -23.001 -2.5c-10 0 -20 5.66699 -30 17s-18.167 24.666 -24.5 39.999
s-9.5 28.333 -9.5 39c0 7.33301 2.66699 14.5 8 21.5s13.333 15.833 24 26.5c8 8 18.5 14 31.5 18s26.833 6 41.5 6c15.333 0 30.5 -2 45.5 -6s28.167 -10 39.5 -18c9.33301 -9.33301 16.5 -22 21.5 -38z" />
    <glyph glyph-name="quotesingle" unicode="'" horiz-adv-x="137" 
d="M69 536c-4 0 -7.33203 1.33301 -9.99902 4s-5.5 7 -8.5 13s-5.83301 10.333 -8.5 13c0 12 -1.33301 23.667 -4 35s-5.66699 22 -9 32c-4.66699 13.333 -8.16699 24.833 -10.5 34.5s-3.5 20.5 -3.5 32.5c2.66699 2.66699 5.83398 7.83398 9.50098 15.501
s7.5 13.5 11.5 17.5s10 6 18 6c4 4 9 6 15 6c6.66699 0 13.5 -1.83301 20.5 -5.5s13.167 -8.16699 18.5 -13.5c2.66699 -4 4.66699 -10 6 -18c0.666992 -3.33301 1 -9 1 -17c0 -16.667 2.33301 -31.667 7 -45c-0.666992 -2.66699 -3.33398 -12.667 -8.00098 -30
c-4 -17.333 -8.33301 -32.333 -13 -45s-11.334 -23.334 -20.001 -32.001c-5.33301 -2 -9.33301 -3 -12 -3z" />
    <glyph glyph-name="parenleft" unicode="(" horiz-adv-x="286" 
d="M50 45.5c-14.667 42.333 -26.334 84.8242 -35.001 127.491c0 66.667 1 122.834 3 168.501s7.33301 85.5 16 119.5c0 12.667 1.83301 23.834 5.5 33.501s9.5 21.167 17.5 34.5c8 12.667 13.333 22 16 28c0 28 4.5 52.5 13.5 73.5s23.167 41.167 42.5 60.5
c14 12.667 29.833 25.5 47.5 38.5s30.834 19.5 39.501 19.5s14 -3.16699 16 -9.5s3 -16.166 3 -29.499c0 -8.66699 -3.33301 -17.334 -10 -26.001s-16.334 -19 -29.001 -31c-0.666992 -1.33301 -2.66699 -3.83301 -6 -7.5s-6.33301 -8.5 -9 -14.5s-4 -11.667 -4 -17
c0 -4 -2 -9.66699 -6 -17s-8.33301 -14.333 -13 -21c-5.33301 -6.66699 -10 -13.5 -14 -20.5s-6 -12.833 -6 -17.5c0 -12.667 -1 -22.167 -3 -28.5s-7 -9.5 -15 -9.5c-8.66699 -45.333 -15.334 -85.666 -20.001 -120.999s-7 -70.666 -7 -105.999
c0 -37.333 2.66699 -70.666 8 -99.999v-39c0 -16.667 3 -33.5 9 -50.5s15.333 -38.5 28 -64.5c0 -13.333 1.16699 -23.166 3.5 -29.499s7.83301 -9.5 16.5 -9.5c6.66699 -20.667 13.834 -37.667 21.501 -51s18.5 -29.666 32.5 -48.999l23 -34
c3.33301 -3.33301 8.33301 -7.66602 15 -12.999s11.834 -10.666 15.501 -15.999s5.5 -11 5.5 -17c0 -9.33301 -5.66699 -19.666 -17 -30.999c-3.33301 -3.33301 -7.33301 -5 -12 -5c-6 0 -12.167 2.66699 -18.5 8s-13 11.666 -20 18.999l-16.5 17
c-6 6 -15.667 12.333 -29 19c-12 6 -21.667 12.333 -29 19c0 6 -1.33301 11.833 -4 17.5s-5.5 10.5 -8.5 14.5s-4.83301 6.33301 -5.5 7c-26 64.667 -46.333 118.167 -61 160.5z" />
    <glyph glyph-name="parenright" unicode=")" horiz-adv-x="285" 
d="M168.5 -122c-3 -4 -5.83203 -8.82617 -8.49902 -14.4932s-4 -11.5 -4 -17.5c-7.33301 -6.66699 -17 -13 -29 -19c-13.333 -6.66699 -23 -13 -29 -19l-17.5 -18c-7.66699 -8 -14.5 -14.333 -20.5 -19s-11.667 -7 -17 -7c-4.66699 0 -8.66699 1.66699 -12 5
c-11.333 11.333 -17 21.666 -17 30.999c0 6.66699 2.16699 12.667 6.5 18s9.5 10.5 15.5 15.5s10.667 9.16699 14 12.5c13.333 18.667 21 30 23 34c14 19.333 24.833 35.666 32.5 48.999s14.834 30.333 21.501 51c8.66699 0 14.167 3.16699 16.5 9.5s3.5 16.166 3.5 29.499
c12.667 26 22 47.5 28 64.5s9 33.833 9 50.5v39c5.33301 29.333 8 62.666 8 99.999c0 35.333 -2.33301 70.666 -7 105.999s-11.334 75.666 -20.001 120.999c-8 0 -13 3.16699 -15 9.5s-3 15.833 -3 28.5c0 6 -2.83301 13.333 -8.5 22l-10.5 16
c-13.333 18.667 -20 31.334 -20 38.001c0 5.33301 -1.33301 11 -4 17s-5.66699 10.833 -9 14.5s-5.33301 6.16699 -6 7.5c-12.667 12 -22.334 22.333 -29.001 31s-10 17.334 -10 26.001c0 13.333 1 23.166 3 29.499s7.33301 9.5 16 9.5s21.834 -6.5 39.501 -19.5
s33.5 -25.833 47.5 -38.5c19.333 -19.333 33.5 -39.5 42.5 -60.5s13.5 -45.5 13.5 -73.5c2.66699 -6 8 -15.333 16 -28c8 -13.333 13.833 -24.833 17.5 -34.5s5.5 -20.834 5.5 -33.501c8.66699 -34 14 -73.833 16 -119.5s3 -101.834 3 -168.501
c-8.66699 -42.667 -20.334 -85.167 -35.001 -127.5s-35 -95.833 -61 -160.5c-0.666992 -0.666992 -2.5 -3 -5.5 -7z" />
    <glyph glyph-name="asterisk" unicode="*" horiz-adv-x="260" 
d="M245 588c0 -6.66699 -2.99707 -12.499 -8.99707 -17.499s-14 -7.5 -24 -7.5l-17 11c-12 3.33301 -25.667 8 -41 14l4 -52c0 -8 -1.83301 -14 -5.5 -18s-8.5 -6 -14.5 -6c-11.333 0 -20.666 6 -27.999 18v21c-2.66699 8.66699 -5.33398 21 -8.00098 37l-38 -36
c-6 -4 -11.333 -6 -16 -6c-6.66699 0 -12.167 2.66699 -16.5 8s-6.16602 12.333 -5.49902 21l3 11l16 13c5.33301 7.33301 14 17.666 26 30.999l-24 15c-2.66699 6 -7.33398 13 -14.001 21c-6 7.33301 -10.5 13.5 -13.5 18.5s-4.5 10.5 -4.5 16.5
c0 5.33301 1.33301 10.333 4 15c3.33301 4.66699 11 2.66699 23 -6c16 -10 28 -14.333 36 -13l17 -12c-0.666992 6.66699 -1 16.334 -1 29.001c3.33301 4.66699 7.66602 13 12.999 25s10 20.833 14 26.5s10.667 8.5 20 8.5c3.33301 0 5.5 -1.66699 6.5 -5s1.5 -9 1.5 -17
c0 -8.66699 0.333008 -15.334 1 -20.001c1.33301 -7.33301 3.66602 -13.333 6.99902 -18l-1 -6c2.66699 2.66699 4.66699 4.33398 6 5.00098c5.33301 0 14 2 26 6c10.667 4.66699 20 7 28 7c9.33301 0 16.666 -3.66699 21.999 -11c2 -2.66699 2 -5.33398 0 -8.00098
s-6 -6.66699 -12 -12c-7.33301 -6 -13 -11 -17 -15s-6.66699 -9 -8 -15c-13.333 -7.33301 -25.333 -15.333 -36 -24c18.667 -10 41 -21 67 -33c8.66699 -6 13 -12.667 13 -20z" />
    <glyph glyph-name="plus" unicode="+" horiz-adv-x="454" 
d="M272 429c0.666992 -8 1.00195 -20.3359 1.00195 -37.0029c0 -12 0.333008 -24.167 1 -36.5s2.66699 -23.166 6 -32.499c2.66699 -2.66699 7.33398 -4 14.001 -4c4.66699 0 9.5 0.333008 14.5 1s9.5 1.33398 13.5 2.00098c20 4 36 5.66699 48 5
c9.33301 -1.33301 16.333 -2.66602 21 -3.99902c0 -2.66699 2.66699 -9.33398 8 -20.001c6.66699 -10.667 10 -19 10 -25c0 -4 -1.33301 -7.33301 -4 -10c-5.33301 -2.66699 -12 -4 -20 -4c-7.33301 0 -19 1.33301 -35 4c-3.33301 0.666992 -10 1.66699 -20 3
s-19.333 1.66602 -28 0.999023c-10.667 -1.33301 -18 -2.66602 -22 -3.99902c-2 -8.66699 -3 -17.667 -3 -27c-0.666992 -5.33301 -1 -14 -1 -26l1 -55c0 -20 -1.66699 -37 -5 -51s-9.66602 -25.667 -18.999 -35c-18.667 0 -33.334 1.5 -44.001 4.5s-19 10.833 -25 23.5
c7.33301 22 11 48 11 78c0 30.667 -3.66699 60 -11 88h-14c-9.33301 0.666992 -19.833 0.833984 -31.5 0.500977s-19.834 -0.5 -24.501 -0.5c-2.66699 0 -8.33398 1 -17.001 3s-15.667 3 -21 3c-7.33301 0 -13 -2 -17 -6c0 4 -2.33301 9.16699 -7 15.5s-7 14.833 -7 25.5
c18 6 38 9.83301 60 11.5s48.333 2.5 79 2.5c4 8 6 18.667 6 32c0 2 -1 14 -3 36c-2 11.333 -3 21 -3 29c0 6 -0.333008 10.167 -1 12.5s-1.33398 3.83301 -2.00098 4.5c0 3.33301 -0.666992 7.5 -2 12.5s-2 8.83301 -2 11.5c0 5.33301 2.33301 10.333 7 15
c0 2.66699 3 4.66699 9 6s13 2 21 2c13.333 0 25.333 -1.83301 36 -5.5s16 -9.16699 16 -16.5c2.66699 -6.66699 4.66699 -17.667 6 -33z" />
    <glyph glyph-name="comma" unicode="," horiz-adv-x="158" 
d="M61 -286.5c12 15.667 18.001 32.4951 18.001 50.4951c0 7.33301 -1 15 -3 23c-20.667 18 -31 32.667 -31 44c0 10.667 4.83301 19.334 14.5 26.001s21.167 10 34.5 10c9.33301 0 18 -2 26 -6c15.333 -18 23 -39 23 -63c0 -21.333 -5.16699 -42.166 -15.5 -62.499
s-23.833 -43.166 -40.5 -68.499l-11 -17c-5.33301 0 -13.333 -2.66699 -24 -8c-10.667 -4.66699 -18 -7 -22 -7c-6.66699 0 -10.834 4.33301 -12.501 13s-2.5 19.334 -2.5 32.001c18.667 6.66699 34 17.834 46 33.501z" />
    <glyph glyph-name="hyphen" unicode="-" horiz-adv-x="502" 
d="M329 253l-15 -0.00195312c-12.667 0 -45.667 -1.66699 -99 -5c-33.333 -3.33301 -62.666 -5 -87.999 -5c-18.667 0 -38.667 1.66699 -60 5c-10 8 -16.167 15.833 -18.5 23.5s-3.5 17.5 -3.5 29.5h92v0h68c30 7.33301 59.5 12 88.5 14s60.833 3 95.5 3
c4 -3.33301 9 -6.16602 15 -8.49902s10 -3.83301 12 -4.5c14 -5.33301 24.333 -10.666 31 -15.999s10 -13 10 -23c0 -4 -2 -6.5 -6 -7.5s-10.667 -1.5 -20 -1.5c-10 0 -17.333 -0.333008 -22 -1c-8.66699 -1.33301 -15.334 -4 -20.001 -8c-13.333 2 -33.333 3.66699 -60 5z
" />
    <glyph glyph-name="period" unicode="." horiz-adv-x="141" 
d="M70 -255c-14.667 0 -27.8311 7.33203 -39.498 21.999s-16.834 29.667 -15.501 45c0 8.66699 3 16 9 22c6.66699 6.66699 13.667 10.667 21 12s19.333 2 36 2c7.33301 0 16.666 -4.66699 27.999 -14s17 -19.666 17 -30.999c0 -4 -1 -8 -3 -12c0 -14 -14 -28.667 -42 -44
c-5.33301 -1.33301 -9 -2 -11 -2z" />
    <glyph glyph-name="slash" unicode="/" horiz-adv-x="453" 
d="M331 379l-18.5 -50.9971c-9.66699 -26.667 -17.5 -51.667 -23.5 -75c-10 -10 -19.5 -23.833 -28.5 -41.5s-13.5 -31.5 -13.5 -41.5c-4.66699 -4.66699 -8.66699 -11.167 -12 -19.5s-6.33301 -16.5 -9 -24.5c-6.66699 -20 -13.334 -34 -20.001 -42
c0 -8 -2.66699 -18.333 -8 -31s-13.666 -31.334 -24.999 -56.001l-9 -18c0 -12 -4.83301 -30.167 -14.5 -54.5s-19.5 -41.166 -29.5 -50.499c-8 -9.33301 -13.333 -20.666 -16 -33.999s-4 -23.333 -4 -30c-7.33301 -14.667 -16 -27.334 -26 -38.001s-19.333 -16 -28 -16
c-13.333 0 -23.666 11 -30.999 33c0 18 2.83301 34.333 8.5 49s14.5 33.334 26.5 56.001c14 26.667 23.667 47.667 29 63c0 19.333 4 43 12 71s17.667 54 29 78c27.333 52.667 49.5 99.667 66.5 141s30.167 85.666 39.5 132.999c15.333 30.667 32.666 75.667 51.999 135
c20 62 38.333 109 55 141c0 28 2.33301 49 7 63s16 21 34 21c11.333 0 24.833 -7.83301 40.5 -23.5s23.5 -29.167 23.5 -40.5c0 -10.667 -2.33301 -22.334 -7 -35.001s-11 -28 -19 -46c-1.33301 -4 -4.33301 -11.5 -9 -22.5s-7 -18.833 -7 -23.5c0 -10 -1 -16.833 -3 -20.5
s-8.33301 -10.834 -19 -21.501c-8 -30.667 -22.333 -73.334 -43 -128.001z" />
    <glyph glyph-name="zero" unicode="0" horiz-adv-x="505" 
d="M263 747c26 0 50.999 -4 74.999 -12s43.333 -19.333 58 -34c18 -18 32.333 -39.167 43 -63.5s22.334 -55.5 35.001 -93.5c6 -19.333 11 -36.833 15 -52.5s8 -32.834 12 -51.501c4 -17.333 6 -41 6 -71c0 -20.667 -0.333008 -36.334 -1 -47.001l-1 -54
c0 -42 -1.16699 -77 -3.5 -105s-8.16602 -56 -17.499 -84c0 -55.333 -14 -118.666 -42 -189.999c-12 -30 -28.833 -57 -50.5 -81s-44.167 -39 -67.5 -45c-32.667 -8.66699 -61.334 -13 -86.001 -13c-25.333 0 -46.833 4.33301 -64.5 13s-32 19.334 -43 32.001
s-24.5 30.667 -40.5 54c-10 16 -19 29.333 -27 40c-27.333 82 -48.333 152.333 -63 211c6 6 9 11.333 9 16c0 2 -1.5 5.5 -4.5 10.5s-4.5 10.167 -4.5 15.5v61c0 75.333 2 138.5 6 189.5s13.667 100.167 29 147.5s38.666 90 69.999 128l13 17c10 13.333 20.833 24 32.5 32
s32.5 16 62.5 24c14.667 4 31.334 6 50.001 6zM199.499 605c-11 -12 -18.168 -21.9971 -21.501 -29.9971l-11 -32c-3.33301 -11.333 -7.33301 -22.333 -12 -33c-2 -11.333 -4.66699 -29.5 -8 -54.5s-5.66602 -44.5 -6.99902 -58.5c0 -29.333 -1.66699 -64.666 -5 -105.999
l-3 -50c-1.33301 -22.667 -2 -41.667 -2 -57v-130c0 -40.667 7.66699 -79.667 23 -117s34.333 -67.333 57 -90c10 -10 24.667 -15 44 -15c10 0 19.5 1.5 28.5 4.5s16.167 7.16699 21.5 12.5c9.33301 9.33301 18.333 23 27 41s17.667 38.667 27 62
c8.66699 21.333 14.334 43.166 17.001 65.499s4 46.833 4 73.5l1 127l-1 97v58v63c0 7.33301 0.666992 19 2 35c1.33301 13.333 2 23.666 2 30.999c0 20.667 -4.66699 38.667 -14 54c-4 6 -8.5 13.167 -13.5 21.5s-9.16699 16.166 -12.5 23.499l-12 27
c-2.66699 7.33301 -9.33398 13.166 -20.001 17.499s-22.667 6.5 -36 6.5c-20 0 -34.333 -4.33301 -43 -13z" />
    <glyph glyph-name="one" unicode="1" horiz-adv-x="291" 
d="M226 666c-10 -130.667 -15 -269.001 -15 -415.001c0 -145.333 5 -283.666 15 -414.999c0.666992 -0.666992 6 -5 16 -13c8.66699 -6 15 -12.167 19 -18.5s6 -16.166 6 -29.499c-4.66699 -4.66699 -10.667 -7.66699 -18 -9c-4.66699 -0.666992 -12 -1 -22 -1
c-10.667 0 -19 -0.5 -25 -1.5s-11.333 -3.83301 -16 -8.5c-2 2 -6.33301 3.66699 -13 5c-4 0.666992 -11 1 -21 1l-53 -1c-22.667 0 -40.834 2.5 -54.501 7.5s-20.5 14.5 -20.5 28.5c0 9.33301 4.16699 15 12.5 17s24.5 3 48.5 3v121v223c0 24 1.66699 50 5 78
c2.66699 30.667 4 53.667 4 69c0 27.333 -3 52.666 -9 75.999c6 11.333 9 28.333 9 51c0 13.333 -1.33301 35.333 -4 66c-3.33301 24.667 -5 46.334 -5 65.001c-5.33301 0 -11.333 -4 -18 -12c-4 -4.66699 -7.66699 -8.16699 -11 -10.5s-7.33301 -3.5 -12 -3.5
c-5.33301 0 -12 2 -20 6v40c7.33301 22 18.333 51.667 33 89l12.5 31.5c5.66699 14.333 10.834 28.166 15.501 41.499c5.33301 0 16 0.666992 32 2c12 2 25 3 39 3c30 0 53.333 -8.33301 70 -25v-61z" />
    <glyph glyph-name="two" unicode="2" horiz-adv-x="511" 
d="M206 -184c12.667 0 25.3418 1.00488 38.0088 3.00488c16 1.33301 27 2 33 2c31.333 0 57.833 1.16699 79.5 3.5s37.167 8.16602 46.5 17.499c4.66699 9.33301 7.66699 19 9 29s2 16 2 18c2 16 4.83301 28.167 8.5 36.5s11.167 15.5 22.5 21.5
c17.333 0 29.166 -7.33301 35.499 -22s9.5 -35 9.5 -61c0 -10.667 -0.666992 -26 -2 -46l-1 -39c-4.66699 -4.66699 -13.334 -7.66699 -26.001 -9c-8 -0.666992 -21.333 -1 -40 -1c-20 0 -36.333 -0.5 -49 -1.5s-23.667 -3.83301 -33 -8.5h-146h-42
c-3.33301 0 -11 -1.33301 -23 -4c-14.667 -4 -26.334 -6 -35.001 -6c-10.667 0 -19.334 3.33301 -26.001 10c-6 0 -10.5 1.5 -13.5 4.5s-6.83301 7.83301 -11.5 14.5c-4 7.33301 -9.33301 14.666 -16 21.999c0 6 -1.66699 20.667 -5 44c-3.33301 13.333 -5 24.666 -5 33.999
c0 11.333 3.33301 20.333 10 27c0 7.33301 3.33301 17.666 10 30.999c6.66699 14.667 10 25.334 10 32.001c14 14 26.167 30 36.5 48s21.166 40 32.499 66c3.33301 8 8.33301 18.667 15 32c37.333 28.667 67.666 64.167 90.999 106.5s48.666 97.833 75.999 166.5
c16.667 61.333 25 113.666 25 156.999c0 44 -8.33301 82.667 -25 116c-6 0 -12 1.5 -18 4.5s-11 6.16699 -15 9.5s-6.66699 5.66602 -8 6.99902h-84c-9.33301 0 -18.666 -3.5 -27.999 -10.5s-21 -17.5 -35 -31.5c0 -16 -3.66699 -33.667 -11 -53
c-6.66699 -20 -10 -37 -10 -51c6.66699 -6.66699 18.667 -13.334 36 -20.001c9.33301 -4 16.166 -7.5 20.499 -10.5s6.5 -6.83301 6.5 -11.5c0 -10 -7.5 -19.5 -22.5 -28.5s-28.5 -13.5 -40.5 -13.5c-10.667 0 -19 3.5 -25 10.5s-12 16.5 -18 28.5
c-3.33301 8 -6.5 13.833 -9.5 17.5s-6.16699 5.5 -9.5 5.5v105c2 2.66699 8.33301 13 19 31c13.333 22.667 24.833 40 34.5 52s22 22.167 37 30.5s33.5 12.5 55.5 12.5c14.667 1.33301 25.667 2 33 2h5c50.667 0 94.334 -10.5 131.001 -31.5s64.667 -50.5 84 -88.5
s29 -81.667 29 -131c0 -27.333 -3 -56 -9 -86c-8 -37.333 -22.833 -74.666 -44.5 -111.999s-49.834 -81.666 -84.501 -132.999l-19 -28c0 -8 -3.33301 -15.333 -10 -22s-10 -13.334 -10 -20.001c-12.667 -24.667 -28.334 -51 -47.001 -79c-22.667 -36.667 -40 -67 -52 -91
s-21 -51.333 -27 -82c9.33301 -17.333 27.666 -26 54.999 -26z" />
    <glyph glyph-name="three" unicode="3" horiz-adv-x="437" 
d="M247.5 357.5c6.33301 -4.33301 18.501 -10.4961 36.501 -18.4961c21.333 -8.66699 48 -36 80 -82c14.667 -20.667 25.167 -39.167 31.5 -55.5s9.5 -38.5 9.5 -66.5c5.33301 -30.667 8 -60.334 8 -89.001c0 -50.667 -7.5 -97.167 -22.5 -139.5
s-37.167 -74.833 -66.5 -97.5c-24 -24 -41.833 -39.833 -53.5 -47.5s-27.834 -12.167 -48.501 -13.5c-14 -1.33301 -34.667 -2 -62 -2l-60 1c-10 0.666992 -23.667 1 -41 1c-25.333 25.333 -38 61.666 -38 108.999c0 24.667 3.5 49.167 10.5 73.5s16.167 44.833 27.5 61.5
c6.66699 0 16.667 -3.33301 30 -10c14.667 -6.66699 25.334 -10 32.001 -10c0 -20 -2.66699 -45.333 -8 -76c-4 -25.333 -6 -42 -6 -50c0 -12.667 2.33301 -22 7 -28s13.334 -9 26.001 -9c27.333 0 52 12.833 74 38.5s38.333 53.834 49 84.501c6.66699 18.667 12 39 16 61
l5 30c1.33301 6 2 16.667 2 32l-1 38c-0.666992 5.33301 -1 12.333 -1 21c0 20.667 -3.33301 39.167 -10 55.5s-17.334 31.833 -32.001 46.5c-12 12 -23.667 27 -35 45c-5.33301 8.66699 -10.166 15.167 -14.499 19.5s-10.833 8.16602 -19.5 11.499
c-10 4 -23 7.66699 -39 11c-7.33301 1.33301 -13.5 2.83301 -18.5 4.5s-10.167 5.16699 -15.5 10.5c-10.667 10.667 -16.834 17.667 -18.501 21s-2.5 10.333 -2.5 21c13.333 2 27.333 22 42 60c5.33301 14 12.5 28.667 21.5 44l27.5 45c20 32 35.667 59.167 47 81.5
s19.666 47.166 24.999 74.499c-28 9.33301 -55 14 -81 14s-53.333 -4.66699 -82 -14c0 -13.333 -1.16699 -30.333 -3.5 -51s-7.83301 -31 -16.5 -31c-2 -1.33301 -4.66699 -2 -8 -2c-21.333 0 -32 48.333 -32 145c8.66699 8.66699 23 14.167 43 16.5s46 3.5 78 3.5
c8.66699 0 21 -0.666992 37 -2c18.667 -1.33301 34 -2 46 -2c18.667 0 39 1.33301 61 4h40c13.333 0 23.333 -4 30 -12s10 -17.667 10 -29v-40c-6 -12 -11 -23.167 -15 -33.5s-8 -19.833 -12 -28.5c-12 -29.333 -22.5 -53.333 -31.5 -72s-18.833 -35.334 -29.5 -50.001
c-25.333 -46.667 -43.333 -80.667 -54 -102c10.667 -10 19.167 -17.167 25.5 -21.5z" />
    <glyph glyph-name="four" unicode="4" horiz-adv-x="485" 
d="M384.5 697.5c-5 -9 -11.166 -13.501 -18.499 -13.501c-5.33301 0 -10.666 2.66699 -15.999 8c-7.33301 -7.33301 -12.5 -14.5 -15.5 -21.5s-5.33301 -14 -7 -21s-3.16699 -12.833 -4.5 -17.5c-4.66699 -16 -10.167 -33.167 -16.5 -51.5l-13.5 -38.5
c-18.667 -48 -31.667 -89.333 -39 -124c-6.66699 -32 -18 -74.667 -34 -128c-17.333 -57.333 -29.666 -104.333 -36.999 -141h42c5.33301 10.667 8 20 8 28c0.666992 2 1 5.33301 1 10l-1 20c-1.33301 9.33301 -2 16 -2 20c0 8.66699 2 18.334 6 29.001
c4.66699 11.333 19.667 17 45 17c14 0 27.333 -1.66699 40 -5s22 -8 28 -14c0 -8.66699 -0.666992 -19.667 -2 -33l-1 -22c0 -14.667 4 -26 12 -34c1.33301 0.666992 5 1.66699 11 3s13.333 2 22 2v42c10 10.667 20.333 16 31 16s21 -5.33301 31 -16c6 -12 9 -25.667 9 -41
c0 -16 -3 -32 -9 -48s-13 -28 -21 -36c-6 -6 -13 -9 -21 -9c-4 0 -10.667 1.33301 -20 4c-8 3.33301 -15 5 -21 5c-14 -14 -21 -48.667 -21 -104v-167c0 -6 3.16699 -10.667 9.5 -14s12.833 -5.33301 19.5 -6s11 -1 13 -1v-42h-188c-14 0 -24.5 1.16699 -31.5 3.5
s-10.5 8.16602 -10.5 17.499c0 6 1.5 10.5 4.5 13.5s7.83301 6.83301 14.5 11.5c9.33301 5.33301 17 11 23 17c9.33301 0 15.166 6 17.499 18s3.5 26.667 3.5 44v209c-10.667 0 -30 -2 -58 -6c-30.667 -5.33301 -54.334 -8 -71.001 -8c-38 0 -64.667 11.667 -80 35
c9.33301 46.667 21.333 91.667 36 135s34 95.333 58 156c25.333 66.667 45 120.667 59 162s25.667 85 35 131c-10.667 0 -20.334 4.33301 -29.001 13s-13 18.334 -13 29.001c32 10 70.333 15 115 15c46 0 84.333 -5 115 -15c0 -15.333 -2.5 -27.5 -7.5 -36.5z" />
    <glyph glyph-name="five" unicode="5" horiz-adv-x="509" 
d="M440 706c-0.666992 -4.66699 -0.99707 -11.666 -0.99707 -20.999c0 -11.333 0.333008 -20 1 -26l1 -28c0 -17.333 -2.5 -30.833 -7.5 -40.5s-14.167 -14.5 -27.5 -14.5c-10.667 0 -18.834 4.5 -24.501 13.5s-8.5 20.5 -8.5 34.5c0 19.333 4.33301 38.333 13 57h-142
c-4 -16.667 -11.333 -41.667 -22 -75c-12.667 -43.333 -22.167 -79.333 -28.5 -108s-9.5 -59.667 -9.5 -93c4.66699 0 9.66699 -1.16699 15 -3.5s9 -3.83301 11 -4.5c20 -8.66699 38.667 -13 56 -13c48.667 -10 89 -30.5 121 -61.5s58.333 -73.833 79 -128.5
c8.66699 -9.33301 14.167 -25.5 16.5 -48.5s3.5 -55.833 3.5 -98.5c-10.667 -58 -26.167 -110 -46.5 -156s-44.833 -79 -73.5 -99c-24 -12 -51.167 -21.333 -81.5 -28s-60.5 -10 -90.5 -10c-35.333 0 -68 5 -98 15s-54 25 -72 45v21c0 55.333 6.66699 90.333 20 105
c6 6 12.333 9 19 9c5.33301 0 10 -1.16699 14 -3.5s6.33301 -4.16602 7 -5.49902c6 -12.667 9.66699 -30.667 11 -54c2 -18 4.66699 -31 8 -39s10.333 -12 21 -12c30 0 56.5 1.16699 79.5 3.5s43.833 8.16602 62.5 17.499c20 20.667 38.167 58.667 54.5 114
s24.5 109 24.5 161c0 10.667 -0.333008 20 -1 28s-1 13.333 -1 16c0 31.333 -8.5 59.833 -25.5 85.5s-39.333 45.834 -67 60.501s-56.5 22 -86.5 22c-7.33301 0 -15.333 -0.666992 -24 -2s-14.667 -2.33301 -18 -3c-12 -3.33301 -22.667 -5 -32 -5
c-10.667 0 -19.334 3.33301 -26.001 10c-10.667 11.333 -16 27.666 -16 48.999c0 20 6 51.333 18 94c4.66699 16 8.83398 32.167 12.501 48.5s5.5 30.166 5.5 41.499c0 21.333 3.33301 49.333 10 84s10 63 10 85h120h142c23.333 0 40.166 -1.16699 50.499 -3.5
s19.833 -8.5 28.5 -18.5c-2.66699 -6 -4.33398 -11.667 -5.00098 -17z" />
    <glyph glyph-name="six" unicode="6" horiz-adv-x="494" 
d="M397 717c0 -19.333 -4.50098 -36.1621 -13.501 -50.4951s-20.167 -27.5 -33.5 -39.5c-33.333 -34.667 -60.5 -71.334 -81.5 -110.001s-38 -78.5 -51 -119.5s-28.833 -97.167 -47.5 -168.5l58 1c26.667 1.33301 46.667 2 60 2c20.667 0 43.834 -4.33301 69.501 -13
s44.167 -18.334 55.5 -29.001c20 -20.667 34.833 -41.667 44.5 -63s16 -44.333 19 -69s4.5 -56.667 4.5 -96c0 -42 -10.667 -78.833 -32 -110.5s-48.5 -55.834 -81.5 -72.501s-66.167 -25 -99.5 -25c-52 0 -97 14.5 -135 43.5s-66.667 67.167 -86 114.5
s-29 98.666 -29 153.999c0 79.333 15.833 162.5 47.5 249.5s73 168.667 124 245s104.5 140.166 160.5 191.499h41c4 -12 6 -23.667 6 -35zM185.499 -113.996c17 -15.333 33.8311 -26.6699 50.498 -34.0029l32 -14h62c20.667 20.667 37.834 48.334 51.501 83.001
s20.5 69.334 20.5 104.001c0 42 -10.333 76 -31 102c-11.333 12 -26.166 21 -44.499 27s-38.166 9 -59.499 9c-28.667 0 -56.334 -4.66699 -83.001 -14c-1.33301 -3.33301 -5.5 -12.5 -12.5 -27.5s-13 -32.5 -18 -52.5s-7.5 -40 -7.5 -60c0 -13.333 1.66699 -30 5 -50
c6 -33.333 17.5 -57.666 34.5 -72.999z" />
    <glyph glyph-name="seven" unicode="7" horiz-adv-x="502" 
d="M457 564c0 -14 -3.33398 -31.6641 -10.001 -52.9971c-6.66699 -20 -10 -37 -10 -51c-24.667 -58.667 -62.334 -161.334 -113.001 -308.001c-27.333 -84 -52 -154.667 -74 -212c0 -5.33301 -2.33301 -16.666 -7 -33.999c-8 -26.667 -12 -47.334 -12 -62.001
c0 -10.667 2.66699 -18.667 8 -24c1.33301 0.666992 3.83301 1.33398 7.5 2.00098s8.16699 1 13.5 1c20.667 0 31 -9.66699 31 -29c0 -6 -1.33301 -11.833 -4 -17.5s-5.5 -10.5 -8.5 -14.5s-4.83301 -6.33301 -5.5 -7c-44.667 -4.66699 -76 -7 -94 -7
c-15.333 0 -26.333 1.66699 -33 5c-7.33301 3.33301 -17.333 5 -30 5c-7.33301 0 -18.333 -0.666992 -33 -2c-12.667 -2 -26.334 -3 -41.001 -3c-9.33301 0 -15.166 3.5 -17.499 10.5s-3.5 17.167 -3.5 30.5c0 4 1.16699 6.66699 3.5 8s6.83301 2.66602 13.5 3.99902
c10.667 2 19.5 5 26.5 9s13.167 11.333 18.5 22c10 18.667 19 39.5 27 62.5s17 51.833 27 86.5c7.33301 25.333 15.333 50.833 24 76.5s17.334 47.5 26.001 65.5l28 82l35 104c6 16 12.667 40.667 20 74c6 31.333 13 55.333 21 72c6 24 15 57.333 27 100
c16 54.667 27.667 97.667 35 129c-38 9.33301 -78.333 14 -121 14s-78.334 -4.66699 -107.001 -14c-8 -4 -12.667 -10.667 -14 -20c-0.666992 -2 -1 -5.33301 -1 -10c0 -9.33301 1.66699 -20.666 5 -33.999c0.666992 -3.33301 1.66699 -9.33301 3 -18s2 -16.334 2 -23.001
c0 -17.333 -5 -31.333 -15 -42c-3.33301 -3.33301 -7.33301 -5 -12 -5c-8 0 -15.167 5.66699 -21.5 17s-9.5 21.666 -9.5 30.999c0 18.667 -4.66699 39.334 -14 62.001c-3.33301 8 -6.16602 16.167 -8.49902 24.5s-3.5 16.5 -3.5 24.5c0 10 2 21.333 6 34
c18 9.33301 39 15.166 63 17.499s51.333 3.5 82 3.5h291c10.667 0 17.834 -0.833008 21.501 -2.5s10.167 -7.83398 19.5 -18.501c-22 -72.667 -42.667 -128 -62 -166z" />
    <glyph glyph-name="eight" unicode="8" horiz-adv-x="450" 
d="M136.5 310c-4.33301 6.66699 -11.832 15.001 -22.499 25.001c-17.333 17.333 -28 31 -32 41c-26 70 -39 127.333 -39 172c0 34 6.33301 63.333 19 88c18.667 37.333 44.167 66.666 76.5 87.999s68.166 32 107.499 32c27.333 0 54.666 -5.33301 81.999 -16
c38 -13.333 64.667 -33.666 80 -60.999s23 -59.333 23 -96c0 -24.667 -3 -53.334 -9 -86.001c-3.33301 -19.333 -9.66602 -36.5 -18.999 -51.5s-22 -32.833 -38 -53.5c-14.667 -18 -25.5 -32.833 -32.5 -44.5s-10.5 -24.167 -10.5 -37.5c0 -10 3.16699 -18.833 9.5 -26.5
s16.5 -17.5 30.5 -29.5c20 -16.667 33.333 -31 40 -43c12.667 -32 23.5 -69 32.5 -111s13.5 -82 13.5 -120c0 -69.333 -15.333 -119 -46 -149c-24.667 -24.667 -54.667 -43.167 -90 -55.5s-72.333 -18.5 -111 -18.5c-34 0 -67 4.66699 -99 14
c-31.333 20.667 -55.833 46.167 -73.5 76.5s-26.5 64.5 -26.5 102.5c0 62.667 13.167 121.667 39.5 177s59.5 109.666 99.5 162.999c1.33301 6.66699 -0.166992 13.334 -4.5 20.001zM174.001 611.001c-4 -10 -7.16797 -18.834 -9.50098 -26.501s-3.5 -16.834 -3.5 -27.501
c0 -33.333 5.33301 -66.166 16 -98.499s25.334 -53.166 44.001 -62.499c12 6 22.5 13.333 31.5 22s20.5 21.334 34.5 38.001c13.333 17.333 25 31 35 41c5.33301 11.333 9.83301 24.666 13.5 39.999s5.5 30.333 5.5 45c0 32.667 -8.66699 53.667 -26 63
c-26.667 14 -52 21 -76 21c-28 0 -47.333 -10 -58 -30c0 -6 -2.33301 -14.333 -7 -25zM133 126.5c-17.333 -30.333 -32.1719 -63.335 -44.5049 -99.002s-18.5 -68.5 -18.5 -98.5c0 -48.667 17.333 -81.334 52 -98.001c18.667 -9.33301 36.334 -14 53.001 -14
c14.667 0 28.334 2.83301 41.001 8.5s28 14.167 46 25.5c14.667 22 26.334 48.333 35.001 79s13 61.667 13 93c0 22.667 -2.66699 45.334 -8 68.001c-3.33301 6.66699 -6.33301 13.334 -9 20.001l-7 18c-11.333 27.333 -21.666 49.5 -30.999 66.5
s-20.666 28.833 -33.999 35.5l-18 -18c-6.66699 -7.33301 -14 -14.666 -22 -21.999c-14.667 -12.667 -30.667 -34.167 -48 -64.5z" />
    <glyph glyph-name="nine" unicode="9" horiz-adv-x="483" 
d="M128 -147c22.667 0 42.834 7.8291 60.501 23.4961s31.334 31.5 41.001 47.5s23.834 41.667 42.501 77c14 32 24.167 62.167 30.5 90.5s10.166 56.333 11.499 84s2 66.834 2 117.501c-38 0 -75.167 4.83301 -111.5 14.5s-61.5 25.834 -75.5 48.501l-20 31
c-20.667 30.667 -36.167 58 -46.5 82s-15.5 54 -15.5 90c0 34.667 7 66.667 21 96s33.5 52.666 58.5 69.999s53.5 26 85.5 26h63h21c12.667 0 25.5 -3.33301 38.5 -10s28.5 -16.334 46.5 -29.001c4.66699 -2.66699 10.167 -6.16699 16.5 -10.5s13.833 -8.83301 22.5 -13.5
c21.333 -31.333 37.166 -68.666 47.499 -111.999s15.5 -95.666 15.5 -156.999c0 -84 -12.167 -173.667 -36.5 -269s-54.833 -179.666 -91.5 -252.999c-10 -28 -27 -52.667 -51 -74s-49 -38 -75 -50c-33.333 -16.667 -65 -25 -95 -25c-11.333 0 -21 1.33301 -29 4
c-14.667 4.66699 -30.167 13.834 -46.5 27.501s-30 29.334 -41 47.001s-16.5 34.167 -16.5 49.5c0 8.66699 3 20.167 9 34.5l12 28.5c5.33301 5.33301 10.666 12 15.999 20c4.66699 7.33301 9 12.666 13 15.999s9.66699 5 17 5c12.667 0 20.5 -5.16699 23.5 -15.5
s4.83301 -26.5 5.5 -48.5c0 -14.667 0.5 -26.5 1.5 -35.5s3.16699 -17.167 6.5 -24.5c8 -2 15.667 -3 23 -3zM286.5 639.996c-9 14.667 -19.501 24 -31.501 28c-10 3.33301 -20.333 5 -31 5c-22 0 -38.667 -7.16699 -50 -21.5s-22.666 -35.166 -33.999 -62.499l-4.5 -11.5
c-1.66699 -4.33301 -3.83398 -8.83301 -6.50098 -13.5c0 -30 4.33301 -59 13 -87s18.334 -47.333 29.001 -58c14 -14.667 26.167 -25.167 36.5 -31.5s23.5 -12.833 39.5 -19.5c8 -2.66699 17.333 -6.66699 28 -12h41c6.66699 23.333 10 52.666 10 87.999
c0 50.667 -7 102 -21 154c-3.33301 13.333 -9.5 27.333 -18.5 42z" />
    <glyph glyph-name="colon" unicode=":" horiz-adv-x="159" 
d="M109.5 459.5c9 -8.33301 17.001 -17.833 24.001 -28.5s10.5 -20.667 10.5 -30c0 -8 -3 -15 -9 -21c0 -22.667 -4.66699 -40.167 -14 -52.5s-21 -18.5 -35 -18.5c-21.333 7.33301 -37 18.5 -47 33.5s-15 31.833 -15 50.5s4.66699 38.334 14 59.001
c1.33301 1.33301 4.66602 3.66602 9.99902 6.99902s11.833 6.66602 19.5 9.99902s15.167 5 22.5 5c4 -1.33301 10.5 -6.16602 19.5 -14.499zM118.001 55c11.333 -14.667 17.001 -39.667 17.001 -75c-4.66699 -10.667 -11.834 -18.834 -21.501 -24.501
s-20.167 -8.5 -31.5 -8.5c-14 0 -27.167 4.83301 -39.5 14.5s-21.5 23.834 -27.5 42.501c6.66699 7.33301 13.334 20.333 20.001 39c4.66699 11.333 9 19.833 13 25.5s9 8.5 15 8.5c25.333 0 43.666 -7.33301 54.999 -22z" />
    <glyph glyph-name="semicolon" unicode=";" horiz-adv-x="158" 
d="M130 320l-15.5029 -18.999c-7.66699 -9.33301 -17 -17 -28 -23s-23.833 -9 -38.5 -9c-8 8.66699 -15.5 22.5 -22.5 41.5s-10.5 32.833 -10.5 41.5c0 17.333 3.83301 30.166 11.5 38.499s17.834 12.5 30.501 12.5c14.667 0 29.334 -5 44.001 -15s24.334 -22 29.001 -36
v-32zM82.9971 -227.499c-8.66699 -12.333 -20.332 -22.168 -34.999 -29.501c-10.667 10 -18.834 18.833 -24.501 26.5s-8.5 15.167 -8.5 22.5c16.667 10 29 21.5 37 34.5s12 29.167 12 48.5c5.33301 10 8 22.333 8 37c0 8.66699 -1.33301 23 -4 43
c-2.66699 22.667 -4 39.667 -4 51c-17.333 34.667 -26 64.334 -26 89.001c0 22 8.66699 36.333 26 43c52.667 0 79 -40.333 79 -121c0 -28.667 -4.33301 -65.334 -13 -110.001c0 -18.667 -0.833008 -33.167 -2.5 -43.5s-6.16699 -23.166 -13.5 -38.499
c-12 -22.667 -22.333 -40.167 -31 -52.5z" />
    <glyph glyph-name="less" unicode="&#x3c;" horiz-adv-x="421" 
d="M298 82c-4.66699 5.33301 -10.9971 10.667 -18.9971 16s-13.667 9 -17 11c-18.667 12 -31 21.333 -37 28c-10 12 -20.5 21.667 -31.5 29s-25.167 16 -42.5 26c-2 1.33301 -9.16699 5.5 -21.5 12.5s-22.833 14.833 -31.5 23.5c-8.66699 0 -19.667 6.66699 -33 20
s-20 24.666 -20 33.999c0 10 3.83301 21.5 11.5 34.5s15.834 19.5 24.501 19.5c25.333 13.333 60.666 35.333 105.999 66l49.5 32.5c27 17.667 53.833 33.5 80.5 47.5l3 3c11.333 3.33301 19.333 5 24 5c12 0 17 -6.33301 15 -19c-2 -8 -3.66699 -13.333 -5 -16
c-24 -14 -42 -25.167 -54 -33.5s-18 -15.5 -18 -21.5c-10.667 -5.33301 -21.834 -12.166 -33.501 -20.499l-21.5 -15.5c-24.667 -17.333 -42 -28.666 -52 -33.999c-6 -6 -13 -11.333 -21 -16c-7.33301 -5.33301 -12.833 -9.83301 -16.5 -13.5s-5.5 -8.16699 -5.5 -13.5
c0 -11.333 11 -25.833 33 -43.5s53.333 -40.5 94 -68.5c3.33301 -2.66699 14.833 -10.667 34.5 -24s33.5 -24 41.5 -32c17.333 -8.66699 27.666 -14 30.999 -16c6.66699 -10.667 10 -19.334 10 -26.001c0 -13.333 -13.333 -19.333 -40 -18
c-8.66699 7.33301 -21.334 15 -38.001 23z" />
    <glyph glyph-name="equal" unicode="=" horiz-adv-x="539" 
d="M352 347l-19 -0.00292969c-30.667 0 -64.334 -1.66699 -101.001 -5c-41.333 -2.66699 -71.666 -4 -90.999 -4c-24.667 0 -48.334 2 -71.001 6c-11.333 8.66699 -18.333 17.334 -21 26.001s-4 19.667 -4 33h175c42.667 10.667 95.667 16 159 16h40
c6 -4 16.333 -8.66699 31 -14c15.333 -5.33301 26.5 -10.666 33.5 -15.999s10.5 -13.666 10.5 -24.999c0 -4.66699 -2.33301 -7.66699 -7 -9s-12 -2.33301 -22 -3c-22 0 -37.333 -3.66699 -46 -11c-15.333 2.66699 -37.666 4.66699 -66.999 6zM352 152.997l-19 -0.00292969
c-30.667 0 -64.334 -1.66699 -101.001 -5c-41.333 -2.66699 -71.666 -4 -90.999 -4c-24.667 0 -48.334 2 -71.001 6c-11.333 8.66699 -18.333 17.334 -21 26.001s-4 19.667 -4 33h175c42.667 10.667 95.667 16 159 16h40c6 -4 16.333 -8.66699 31 -14
c15.333 -5.33301 26.5 -10.666 33.5 -15.999s10.5 -13.666 10.5 -24.999c0 -4.66699 -2.33301 -7.66699 -7 -9s-12 -2.33301 -22 -3c-22 0 -37.333 -3.66699 -46 -11c-15.333 2.66699 -37.666 4.66699 -66.999 6z" />
    <glyph glyph-name="greater" unicode="&#x3e;" horiz-adv-x="421" 
d="M45 77c0 6.66699 3.33594 15.333 10.0029 26c3.33301 2 13.666 7.33301 30.999 16c8 8 21.833 18.667 41.5 32s31.167 21.333 34.5 24c40.667 28 72 50.833 94 68.5s33 32.167 33 43.5c0 5.33301 -1.83301 9.83301 -5.5 13.5s-9.16699 8.16699 -16.5 13.5
c-8 4.66699 -15 10 -21 16c-10 5.33301 -27.333 16.666 -52 33.999l-21.5 15.5c-11.667 8.33301 -22.834 15.166 -33.501 20.499c0 6 -6 13.167 -18 21.5s-30 19.5 -54 33.5c-3.33301 7.33301 -5 14.333 -5 21c0 11.333 6.66699 16 20 14c8 -1.33301 14.333 -3 19 -5l3 -3
c26.667 -14 53.5 -29.833 80.5 -47.5l49.5 -32.5c45.333 -30.667 80.666 -52.667 105.999 -66c8.66699 0 16.834 -6.5 24.501 -19.5s11.5 -24.5 11.5 -34.5c0 -9.33301 -6.66699 -20.666 -20 -33.999s-24.333 -20 -33 -20c-8.66699 -8.66699 -19.167 -16.5 -31.5 -23.5
s-19.5 -11.167 -21.5 -12.5c-17.333 -10 -31.5 -18.667 -42.5 -26s-21.5 -17 -31.5 -29c-6 -6.66699 -18.333 -16 -37 -28c-3.33301 -2 -9 -5.66699 -17 -11s-14.333 -10.666 -19 -15.999c-16.667 -8 -29.334 -15.667 -38.001 -23c-26.667 -1.33301 -40 4.66699 -40 18z" />
    <glyph glyph-name="question" unicode="?" horiz-adv-x="428" 
d="M167 -8.5c-5.33301 5 -8.00098 12.1631 -8.00098 21.4961c0 8.66699 2.33301 18 7 28c0 16.667 5.66699 37.167 17 61.5s26.666 53.166 45.999 86.499c18 33.333 28.667 53.333 32 60l57 114c12.667 48 19 88.333 19 121c0 46 -12.667 81.333 -38 106
c-8 15.333 -23.167 29.5 -45.5 42.5s-43.5 19.5 -63.5 19.5c-8 0 -16 -1.66699 -24 -5c-26 -8.66699 -48.833 -26.5 -68.5 -53.5s-29.5 -56.5 -29.5 -88.5c0 -9.33301 1 -19 3 -29c6 -10 14.167 -16.5 24.5 -19.5s24.166 -5.16699 41.499 -6.5
c12.667 -0.666992 23.167 -2 31.5 -4s15.166 -5.66699 20.499 -11c12.667 -8 20.334 -17.667 23.001 -29v-5c0 -11.333 -5.83301 -21.166 -17.5 -29.499s-25.5 -12.5 -41.5 -12.5c-9.33301 0 -17.666 1.33301 -24.999 4c-18 0 -32.667 4.5 -44 13.5
s-21.666 23.5 -30.999 43.5c-12.667 12.667 -22.167 29 -28.5 49s-9.5 41.333 -9.5 64s3.33301 44.334 10 65.001s16 37 28 49c6 12 13.667 20.833 23 26.5s22.333 11.5 39 17.5c10.667 2.66699 21.667 6.66699 33 12c52.667 0 95.667 -7.66699 129 -23
s66 -38.666 98 -69.999l13 -39c8.66699 -23.333 15 -43.166 19 -59.499s6 -34.166 6 -53.499c0 -26 -3.5 -51.333 -10.5 -76s-17.167 -54.667 -30.5 -90l-16 -43c-24.667 -36 -44.5 -67 -59.5 -93s-26.833 -51.667 -35.5 -77
c-10.667 -10.667 -19.334 -27.334 -26.001 -50.001c-5.33301 -15.333 -11.166 -26.666 -17.499 -33.999s-17.166 -11 -32.499 -11c-6.66699 0 -12.667 2.5 -18 7.5zM197.999 -233.004c-8.66699 0 -17.998 1.83008 -27.998 5.49707s-18 7.83398 -24 12.501
c-16.667 12.667 -25 27.334 -25 44.001c0 15.333 6.66699 30.333 20 45s28 26.334 44 35.001c10.667 0 20.667 -2.66699 30 -8s18.666 -15.333 27.999 -30c6 -8.66699 9 -18 9 -28c0 -7.33301 -1.33301 -14.333 -4 -21s-7.33398 -15.667 -14.001 -27l-11 -19
c-6 -6 -14.333 -9 -25 -9z" />
    <glyph glyph-name="at" unicode="@" horiz-adv-x="632" 
d="M330 124l-3.99805 -0.00390625c-40.667 0 -75.167 12.333 -103.5 37s-42.5 57.667 -42.5 99c0 9.33301 0.333008 16.333 1 21c8 24.667 15.333 44.167 22 58.5s17 28 31 41s33 21.833 57 26.5c14.667 0 29.667 -2.66699 45 -8s32 -13 50 -23
c7.33301 7.33301 14.5 11.833 21.5 13.5s15.833 2.5 26.5 2.5c2.66699 -8 4 -17 4 -27c0 -11.333 -3.33301 -30.333 -10 -57c-2.66699 -11.333 -5.16699 -23.333 -7.5 -36s-3.5 -25 -3.5 -37c0 -6.66699 2.5 -16.5 7.5 -29.5s11.167 -24.667 18.5 -35s15 -15.5 23 -15.5
s22.167 9.83301 42.5 29.5l35.5 34.5c0 6 2.66699 16.333 8 31c5.33301 16 8 26.333 8 31c2 10 3 20.333 3 31c0 24.667 -4.83301 48.834 -14.5 72.501s-19 42.334 -28 56.001s-25.833 37.5 -50.5 71.5c-6 8.66699 -25.667 16.834 -59 24.501s-62.333 11.5 -87 11.5
c-28 0 -53.5 -9.5 -76.5 -28.5s-42.667 -41.333 -59 -67s-34.833 -57.834 -55.5 -96.501l-14 -26c-14 -25.333 -21 -58 -21 -98c0 -35.333 7 -81.666 21 -138.999c4 -8.66699 9 -22.667 15 -42c5.33301 -19.333 10.666 -32 15.999 -38c7.33301 -22 23.333 -40.167 48 -54.5
s50.667 -22.5 78 -24.5c22.667 -0.666992 44 3.5 64 12.5s44.667 23.5 74 43.5c8 4.66699 20 12.334 36 23.001c6.66699 6.66699 14.5 12.5 23.5 17.5s18.5 7.5 28.5 7.5c16.667 0 30.667 -8.33301 42 -25c0 -16 -3.16699 -28.833 -9.5 -38.5s-13.333 -18 -21 -25
s-13.5 -12.5 -17.5 -16.5c-31.333 -14.667 -66 -26 -104 -34s-77 -12 -117 -12c-26 0 -64 11.667 -114 35c-20 10 -37 23.167 -51 39.5s-25.667 34 -35 53s-21 45.167 -35 78.5c-5.33301 13.333 -9.66602 32 -12.999 56s-5 50 -5 78c0 70.667 11.333 136.5 34 197.5
s59 102.167 109 123.5l22 10c56 25.333 93 37.333 111 36c5.33301 0.666992 13.666 1 24.999 1c47.333 0 92.833 -8.33301 136.5 -25s77.167 -39.334 100.5 -68.001c31.333 -38.667 47 -96 47 -172c2 -12 3 -23.333 3 -34c0 -45.333 -12.333 -83.5 -37 -114.5
s-55.334 -49.833 -92.001 -56.5c-8 0 -16 1 -24 3s-13 3.33301 -15 4c-16 5.33301 -29.333 8 -40 8c-23.333 -9.33301 -47.333 -14.666 -72 -15.999zM289.502 323.496c-8.33301 -17 -12.501 -35.833 -12.501 -56.5s4 -39.834 12 -57.501s19.667 -30.5 35 -38.5
c9.33301 0 19.333 3.33301 30 10s16 14.334 16 23.001c0 15.333 2.66699 38.333 8 69c5.33301 32 8 56.333 8 73c-5.33301 0 -12 1.66699 -20 5c-5.33301 2 -11.666 4 -18.999 6s-15 3 -23 3c-14.667 -7.33301 -26.167 -19.5 -34.5 -36.5z" />
    <glyph glyph-name="A" unicode="A" 
d="M403.5 54c-2.33301 59.333 -8.50195 112.339 -18.502 159.006c-13.333 0 -35 3 -65 9c-42.667 8 -76.334 12 -101.001 12c-10 -9.33301 -16.167 -22.333 -18.5 -39s-3.5 -39.667 -3.5 -69c-10 -37.333 -16.333 -78 -19 -122s-4 -101.667 -4 -173
c6 -4.66699 11.667 -7.66699 17 -9c4 -0.666992 9.66699 -1 17 -1c6.66699 0 12.334 -0.5 17.001 -1.5s9 -3.5 13 -7.5c0 -10.667 -0.333008 -19.834 -1 -27.501s-1.33398 -12.5 -2.00098 -14.5c-17.333 -12 -35 -18.333 -53 -19c-3.33301 -0.666992 -8.66602 -1 -15.999 -1
c-12.667 0 -25 1 -37 3c-16 1.33301 -28 2 -36 2c-15.333 0 -29.666 -2.33301 -42.999 -7l-44 42c24.667 27.333 45.667 41 63 41c10 0 16.167 3.5 18.5 10.5s3.5 17.833 3.5 32.5c8 52.667 19.667 139.334 35 260.001c12.667 101.333 21.667 169.666 27 204.999
c0 29.333 4.16699 58.666 12.5 87.999s18.833 56 31.5 80c10 38.667 23.333 74 40 106s38 67 64 105c1.33301 1.33301 4.83301 4.33301 10.5 9s12.834 9.16699 21.501 13.5s17.667 6.5 27 6.5s17.666 -2.33301 24.999 -7c14 -6.66699 27.833 -19 41.5 -37
s24.834 -37.333 33.501 -58s13 -38.334 13 -53.001c16 -32.667 26.667 -70.334 32 -113.001c5.33301 -46.667 14.666 -146.334 27.999 -299.001c6.66699 -84.667 13.667 -165.334 21 -242.001v-128c0 -3.33301 1.33301 -7.16602 4 -11.499
s4.33398 -7.16602 5.00098 -8.49902c7.33301 -8.66699 11 -16 11 -22c0 -8 -6.66699 -15 -20 -21l-26 6c-20 0 -40 -1 -60 -3c-6.66699 -0.666992 -16 -1.33398 -28 -2.00098s-23 -1 -33 -1c-4 -0.666992 -10 -1.5 -18 -2.5s-14.333 -1.5 -19 -1.5c-12.667 0 -19 4 -19 12
c0 7.33301 3.16699 17.166 9.5 29.499s14 23.333 23 33s16.833 14.5 23.5 14.5c0 88.667 -1.16699 162.667 -3.5 222zM268.498 512.006c-11 -36.667 -21.166 -73.332 -30.499 -109.999c0 -8 -3 -24 -9 -48c-6.66699 -29.333 -10 -49 -10 -59
c27.333 -8 54.166 -13.167 80.499 -15.5s54.833 -3.5 85.5 -3.5v126c0 30 -3.83301 64.833 -11.5 104.5s-17.167 75.5 -28.5 107.5c0 3.33301 -1.33301 7.66602 -4 12.999s-8.66699 8 -18 8l-22 -21c-10.667 -31.333 -21.5 -65.333 -32.5 -102z" />
    <glyph glyph-name="C" unicode="C" horiz-adv-x="555" 
d="M498.5 676.5c2.33301 -3 4.83105 -5.83301 7.49805 -8.5c7.33301 -6 11 -12.667 11 -20c0 -31.333 -1.33301 -56.5 -4 -75.5s-8.66699 -28.5 -18 -28.5c-11.333 0 -18.666 4.66699 -21.999 14s-6 24 -8 44c-1.33301 24.667 -5 40 -11 46c-30.667 10 -61 15 -91 15
c-29.333 0 -54.333 -5 -75 -15c-8.66699 -8.66699 -19.334 -26.334 -32.001 -53.001c-12 -25.333 -22.333 -42.333 -31 -51c0 -3.33301 -1.33301 -9 -4 -17s-8 -16.333 -16 -25c-10 -38 -16.167 -73.5 -18.5 -106.5s-3.5 -80.833 -3.5 -143.5v-124
c30.667 -174 79.334 -278.333 146.001 -313c10.667 -5.33301 22.667 -8 36 -8s27 2.5 41 7.5s30 12.5 48 22.5c5.33301 10 8.33301 21.333 9 34c0.666992 8 1 21 1 39c0 17.333 0.5 31.5 1.5 42.5s3.83301 21.167 8.5 30.5c11.333 0 20 -1.16699 26 -3.5
s12 -5.83301 18 -10.5c0.666992 -0.666992 2.83398 -2.16699 6.50098 -4.5s7.83398 -3.5 12.501 -3.5v-146c-18.667 -44.667 -66 -67 -142 -67c-28.667 0 -57.5 2.33301 -86.5 7s-63.5 11.334 -103.5 20.001c-16.667 15.333 -29.334 26.333 -38.001 33
c-19.333 15.333 -35.5 29.5 -48.5 42.5s-25.833 29.5 -38.5 49.5c-6.66699 31.333 -13.667 60.666 -21 87.999c-14 56.667 -24.5 104.834 -31.5 144.501s-10.5 79.5 -10.5 119.5c4 21.333 9.33301 53.333 16 96c8 49.333 15.333 90.166 22 122.499s15 63.5 25 93.5
c5.33301 6 11.333 15.667 18 29c4.66699 14 12 25.333 22 34c24 34 56.167 63.167 96.5 87.5s84.5 36.5 132.5 36.5c17.333 -5.33301 32 -9.33301 44 -12c26 -7.33301 46 -14.166 60 -20.499s28 -16.5 42 -30.5c0 -4.66699 1.16699 -8.5 3.5 -11.5z" />
    <glyph glyph-name="D" unicode="D" horiz-adv-x="617" 
d="M108 -187c8 0 15.334 3.32812 22.001 9.99512s13.667 10 21 10v235c0 34.667 -1.83301 68.334 -5.5 101.001l-6.5 58c-6 43.333 -9 75.333 -9 96c0 56.667 -1.16699 102.667 -3.5 138s-8.5 67 -18.5 95v86c-8.66699 0 -21 -2.66699 -37 -8c-13.333 -4 -22.333 -6 -27 -6
c-13.333 0 -20 12 -20 36c0 5.33301 1.5 9.5 4.5 12.5s7.83301 6.83301 14.5 11.5c10.667 6 18.667 11.667 24 17l21 22c18.667 9.33301 37.5 15.166 56.5 17.499s42.833 3.5 71.5 3.5c10 0 21.667 0.666992 35 2l28 1c13.333 0 28.333 -1.33301 45 -4
c1.33301 0.666992 3.83301 1.5 7.5 2.5s7.5 0.5 11.5 -1.5c7.33301 -6.66699 21.666 -17.334 42.999 -32.001c4 -3.33301 10.667 -8.16602 20 -14.499s16.666 -12.166 21.999 -17.499c19.333 -8.66699 35 -21.667 47 -39s24.667 -39.666 38 -66.999
c18 -36.667 31.833 -68.667 41.5 -96s16.834 -59.666 21.501 -96.999l3 -25c0.666992 -4.66699 2.33398 -18.334 5.00098 -41.001s4 -44.667 4 -66c0 -35.333 -4 -68.666 -12 -99.999c0 -39.333 -7.33301 -77.5 -22 -114.5s-31.167 -69.5 -49.5 -97.5
s-43.833 -64 -76.5 -108c-7.33301 -3.33301 -18.333 -9.66602 -33 -18.999c-24 -14 -46 -24.833 -66 -32.5s-44 -11.5 -72 -11.5h-41c-18.667 -9.33301 -40.334 -15.166 -65.001 -17.499s-52.667 -3.5 -84 -3.5c-13.333 13.333 -23.833 25 -31.5 35s-11.5 19.667 -11.5 29
h84zM243.001 623.995l0.999023 -46c0 -33.333 1 -63 3 -89c1.33301 -28 2 -48 2 -60c0 -12.667 1.33301 -33.667 4 -63c2.66699 -33.333 4 -62 4 -86v-212c0 -13.333 1.66699 -26.833 5 -40.5l6 -24.5c7.33301 -26 11 -46.667 11 -62c0 -12.667 -2 -26.334 -6 -41.001
c-2.66699 -12 -4 -19.667 -4 -23c0 -8 3.33301 -15.333 10 -22c6.66699 0 17.334 3.33301 32.001 10c13.333 7.33301 24 11 32 11c0 6.66699 1.66699 11.667 5 15s6.66602 5.33301 9.99902 6s5.66602 1 6.99902 1c8.66699 0 14.167 2.66699 16.5 8s3.5 9.66602 3.5 12.999
c19.333 28 31.333 59.833 36 95.5s7 81.834 7 138.501c0 8 1.33301 22.667 4 44c3.33301 33.333 5 54.333 5 63c0 24 -3 45 -9 63v64c-2.66699 14 -7 39.333 -13 76c-8.66699 52.667 -17.5 93.834 -26.5 123.501s-24.167 55.5 -45.5 77.5
c-9.33301 9.33301 -19.666 15 -30.999 17s-29.666 3 -54.999 3c-9.33301 -9.33301 -14 -29.333 -14 -60z" />
    <glyph glyph-name="E" unicode="E" horiz-adv-x="520" 
d="M441 606c-0.666992 4.66699 -1 11.9951 -1 21.9951c0 10.667 -0.666992 19 -2 25s-4.33301 11 -9 15c-13.333 7.33301 -27 14.333 -41 21c-30.667 0 -57.5 -1.16699 -80.5 -3.5s-43.5 -8.16602 -61.5 -17.499c-7.33301 -6.66699 -12.166 -15.167 -14.499 -25.5
s-3.5 -24.5 -3.5 -42.5c0 -31.333 -0.666992 -63.666 -2 -96.999l-1 -58c0 -10 1.66699 -30 5 -60c2.66699 -20 4 -34 4 -42c0 -16 -3 -30 -9 -42c9.33301 -8 24.5 -13.167 45.5 -15.5s46.5 -3.5 76.5 -3.5c0 16.667 1.16699 30.834 3.5 42.501s8.16602 17.5 17.499 17.5
c10 0 16.667 -0.833008 20 -2.5s10.333 -7.5 21 -17.5c-3.33301 -6.66699 -5 -14 -5 -22c-0.666992 -3.33301 -1 -9 -1 -17c0 -14 1 -28.667 3 -44c1.33301 -18.667 2 -32 2 -40c0 -13.333 -1.5 -23.5 -4.5 -30.5s-8.16699 -10.5 -15.5 -10.5c-2 1.33301 -6.33301 4 -13 8
s-13 9 -19 15s-9 12 -9 18v21h-101c-7.33301 -21.333 -11 -49.666 -11 -84.999c0 -22.667 1 -45 3 -67c1.33301 -26.667 2 -45 2 -55c0 -2.66699 1 -39 3 -109c2 -29.333 3 -53.333 3 -72c27.333 -9.33301 51.833 -15 73.5 -17s51.5 -3 89.5 -3c10 4.66699 16 11.667 18 21
c2 6 3 15.667 3 29c0 14 1.16699 24.833 3.5 32.5s7.83301 13.834 16.5 18.501c18 0 29.333 -9.16699 34 -27.5s7 -42.833 7 -73.5c0 -9.33301 -3.16699 -18.166 -9.5 -26.499s-16.833 -20.166 -31.5 -35.499h-103c-68 0 -125.833 1.16699 -173.5 3.5
s-98.5 8.16602 -152.5 17.499v41h82c6 35.333 9 74 9 116c0 23.333 -1.33301 59.666 -4 108.999c-3.33301 43.333 -5 83.666 -5 120.999v41v205v81v183h-82v41c28 7.33301 70 14.333 126 21c53.333 6.66699 93 13.334 119 20.001h204
c1.33301 -1.33301 3.66602 -3.83301 6.99902 -7.5s6.5 -8.66699 9.5 -15s4.5 -12.5 4.5 -18.5c0 -8 1.66699 -19.333 5 -34c3.33301 -23.333 5 -37.333 5 -42c0 -14.667 -3.66699 -26 -11 -34s-20.666 -12 -39.999 -12c-3.33301 4.66699 -6.33301 11 -9 19z" />
    <glyph glyph-name="F" unicode="F" horiz-adv-x="587" 
d="M554.5 550.5c-7 -2.33301 -17.165 -3.50098 -30.498 -3.50098c-9.33301 18 -15 36.833 -17 56.5s-3 48.167 -3 85.5c-54.667 0 -99 -1.16699 -133 -3.5s-64.667 -8.16602 -92 -17.499c-5.33301 -11.333 -8 -30.666 -8 -57.999c0 -14.667 1.33301 -40.667 4 -78
c2.66699 -40 4 -69.333 4 -88c0 -4 -0.333008 -7.83301 -1 -11.5l-2 -10.5c-3.33301 -12 -5 -23.333 -5 -34s2.66699 -19 8 -25h62v81c24.667 1.33301 41.5 -7 50.5 -25s13.5 -42.667 13.5 -74c0 -12 -0.666992 -28 -2 -48l-1 -36c-10 -10 -17.5 -15.833 -22.5 -17.5
s-17.833 -2.5 -38.5 -2.5v40c-8.66699 9.33301 -17.667 15.166 -27 17.499s-21 3.5 -35 3.5c-8.66699 -9.33301 -14.834 -19 -18.501 -29s-5.5 -21.333 -5.5 -34c0 -6.66699 0.666992 -18 2 -34c2 -14 3 -29.333 3 -46c-8.66699 -17.333 -14.167 -37.666 -16.5 -60.999
s-3.5 -50.666 -3.5 -81.999v-61c0 -26.667 1.16699 -49.167 3.5 -67.5s7.83301 -36.5 16.5 -54.5c7.33301 0 16.833 -5.5 28.5 -16.5s17.5 -20.833 17.5 -29.5c0 -10 -9 -15 -27 -15c0 -6 -2 -9 -6 -9c-2 0 -6.83301 1.5 -14.5 4.5s-13.834 4.5 -18.501 4.5
c-5.33301 0 -11 -1.16699 -17 -3.5s-10 -3.83301 -12 -4.5c-1.33301 -0.666992 -7.16602 -2.83398 -17.499 -6.50098s-22.5 -5.5 -36.5 -5.5c-6.66699 0 -20 3.33301 -40 10c-21.333 6.66699 -35 10 -41 10c-8.66699 0 -14.167 3.5 -16.5 10.5s-3.5 17.167 -3.5 30.5
c6 6 12 10.5 18 13.5s10.833 4.83301 14.5 5.5s6.16699 1 7.5 1c11.333 6 18.666 15.5 21.999 28.5s6 32.833 8 59.5c1.33301 32.667 5 58 11 76v162c0 6.66699 1.66699 19 5 37c2.66699 13.333 4 23 4 29c0 12 -3 24 -9 36c0 6.66699 2.33301 15.667 7 27
c8.66699 20 13 38 13 54c0 20.667 -3.33301 55 -10 103s-10 82 -10 102c0 8.66699 1.33301 23 4 43c3.33301 20 5 37.667 5 53c0 18.667 -3 34 -9 46c-6 0 -20 -1.66699 -42 -5c-16 -2.66699 -27 -4 -33 -4c-12 0 -21 3 -27 9c-10 10 -15 20 -15 30c0 10.667 5 21 15 31h408
h81c16.667 0 28.167 -8.33301 34.5 -25s9.5 -39.334 9.5 -68.001c0 -12.667 -0.666992 -29.667 -2 -51l-1 -39c0 -8.66699 -3.5 -14.167 -10.5 -16.5z" />
    <glyph glyph-name="G" unicode="G" horiz-adv-x="545" 
d="M444.5 566c-3.66699 13.333 -6.16895 31.0029 -7.50195 53.0029c-2.66699 29.333 -6.33398 49.333 -11.001 60c-48 0 -89.5 -3.5 -124.5 -10.5s-61.5 -23.5 -79.5 -49.5c-2 -4.66699 -8.33301 -17.5 -19 -38.5s-19.167 -42.5 -25.5 -64.5s-9.5 -43 -9.5 -63
c0 -34 -1.33301 -84.333 -4 -151c-0.666992 -16.667 -1.33398 -37.5 -2.00098 -62.5s-1 -54.167 -1 -87.5c0 -24.667 -1.66699 -52 -5 -82c-2.66699 -36 -4 -63 -4 -81c0 -30.667 3 -57.667 9 -81c5.33301 -20.667 14.5 -36.834 27.5 -48.501s27.667 -20.334 44 -26.001
s38.833 -11.5 67.5 -17.5c22 -4.66699 36.667 -8 44 -10c30.667 4.66699 53 17.167 67 37.5s22.667 44.166 26 71.499s5 63.666 5 108.999c0 30 1 59 3 87c-5.33301 6 -11.666 9 -18.999 9c-4.66699 0 -9.16699 -1.16699 -13.5 -3.5s-6.83301 -4.16602 -7.5 -5.49902
c-6 -12 -9.66699 -30 -11 -54c-2 -19.333 -4.66699 -34.166 -8 -44.499s-10.666 -18.166 -21.999 -23.499c-5.33301 0 -9.5 1.33301 -12.5 4s-6.83301 7.33398 -11.5 14.001c-5.33301 9.33301 -10.666 16.666 -15.999 21.999c0 30.667 1.16699 57.667 3.5 81
s7.83301 43.666 16.5 60.999c7.33301 0 15.833 0.5 25.5 1.5s16.834 1.5 21.501 1.5c14.667 2 29.334 3 44.001 3c31.333 0 55.333 -8.33301 72 -25c6 -6 9 -13 9 -21c0 -4 -1.33301 -10.667 -4 -20c-3.33301 -8 -5 -15 -5 -21c0 -25.333 1 -50.666 3 -75.999
c1.33301 -32 2 -55 2 -69c0 -54 -8.66699 -93.333 -26 -118c0 -6 -2.83301 -12 -8.5 -18s-14.167 -13.333 -25.5 -22c-8.66699 -6 -17.334 -13.333 -26.001 -22c-22.667 -10.667 -52.667 -16 -90 -16c-36 0 -67 5.33301 -93 16c-32.667 13.333 -58.167 26.166 -76.5 38.499
s-34.5 27 -48.5 44s-33.333 43.833 -58 80.5c-27.333 79.333 -41 154 -41 224v121c0 19.333 1.33301 38.666 4 57.999s7 46.333 13 81c0.666992 2.66699 2.66699 13 6 31s8.33301 35 15 51c4.66699 10.667 10.667 28.334 18 53.001c6 21.333 12 39 18 53s15 27 27 39
c7.33301 7.33301 14.333 17.666 21 30.999s13.334 23.333 20.001 30c6 0 12.167 1.5 18.5 4.5s11.333 6 15 9s6.16699 5.16699 7.5 6.5c18 9.33301 36 15.166 54 17.499s40.667 3.5 68 3.5c3.33301 0 6.66602 0.333008 9.99902 1s7 1.33398 11 2.00098c16 4 29.667 6 41 6
c14.667 0 28 -3 40 -9c10.667 0 23.334 -4.5 38.001 -13.5s22 -18.167 22 -27.5c6 -18 9 -37 9 -57c0 -22 -3 -43.167 -9 -63.5s-12.667 -34.5 -20 -42.5c-10.667 6 -17.834 15.667 -21.501 29z" />
    <glyph glyph-name="H" unicode="H" horiz-adv-x="618" 
d="M536.5 602.5c-2.33301 -25 -3.50391 -58.168 -3.50391 -99.501v-182v-163c0 -40.667 3.66699 -95.334 11 -164.001c6.66699 -74.667 10 -128.667 10 -162c5.33301 -5.33301 12.666 -10.666 21.999 -15.999c6.66699 -4.66699 11.5 -8.5 14.5 -11.5s4.5 -7.5 4.5 -13.5v-41
c0 0.666992 -1 2.33398 -3 5.00098s-4.33301 4 -7 4c-3.33301 0 -6.66602 -1.66699 -9.99902 -5c-8.66699 -2.66699 -15.667 -4.16699 -21 -4.5s-8.66602 -0.5 -9.99902 -0.5h-24c-7.33301 0.666992 -23.333 1 -48 1l-48 -1c-8 8 -12 14 -12 18
c0 3.33301 2.66699 7.5 8 12.5l12 11.5c0 4.66699 1.66699 8.5 5 11.5s8.33301 6.16699 15 9.5s11.667 6.33301 15 9s5 6.33398 5 11.001c6 46 9 102 9 168c0 51.333 -1.66699 109.333 -5 174c-2.66699 76 -4 131.667 -4 167c0 6 -1.5 10.667 -4.5 14
s-6.16699 5.33301 -9.5 6s-5.66602 1 -6.99902 1c-17.333 6 -39.333 9 -66 9c-21.333 0 -45.333 -1.66699 -72 -5c-30.667 -2.66699 -52.334 -4 -65.001 -4c-18.667 -18.667 -30.167 -37.834 -34.5 -57.501s-6.5 -48.5 -6.5 -86.5v-223v-62c4 -6.66699 7.33301 -16 10 -28
c0.666992 -5.33301 1 -13 1 -23s0.5 -18.667 1.5 -26s3.83301 -15.333 8.5 -24c7.33301 0 15.5 -4.16699 24.5 -12.5s13.5 -16.833 13.5 -25.5c0 -10 -6 -17.667 -18 -23c-13.333 0 -38.333 -1.66699 -75 -5c-25.333 -2.66699 -44.333 -4 -57 -4c-24 0 -47.667 3 -71 9
c-1.33301 2 -3.16602 6.66699 -5.49902 14s-3.5 14.666 -3.5 21.999c0 10.667 3 19 9 25h41v81v469v41v20v60v21c-3.33301 8 -6.33301 19.333 -9 34c-0.666992 8 -1 20.667 -1 38c0 16.667 -0.666992 30.5 -2 41.5s-4.33301 20.833 -9 29.5
c-1.33301 0 -3.83301 0.333008 -7.5 1s-8.66699 2.66699 -15 6s-12.5 8 -18.5 14c-1.33301 0.666992 -3.16602 3.16699 -5.49902 7.5s-3.5 8.83301 -3.5 13.5c0 7.33301 3 14 9 20h82c8.66699 0 23 1.33301 43 4c20 3.33301 37.667 5 53 5c18.667 0 34 -3 46 -9
c10.667 0 20.167 -4.33301 28.5 -13s12.5 -18 12.5 -28c0 -9.33301 -6 -15.166 -18 -17.499s-26.333 -3.5 -43 -3.5c-6 -6 -9 -13 -9 -21c0 -4 1.33301 -11.333 4 -22c3.33301 -18 5 -31 5 -39s-1.33301 -22.667 -4 -44c-3.33301 -18.667 -5 -36.334 -5 -53.001
c0 -18.667 3 -33.667 9 -45c41.333 -10 82 -15 122 -15c41.333 0 82 5 122 15c0 47.333 -1.16699 89.833 -3.5 127.5s-8.16602 69.834 -17.499 96.501c-2.66699 4 -8.33398 7.33301 -17.001 10c-4.66699 0.666992 -12.334 1 -23.001 1c-10 0 -18 0.5 -24 1.5
s-11.333 3.83301 -16 8.5v41c32 15.333 61.667 23 89 23c10.667 0 21.334 -1 32.001 -3c13.333 -1.33301 21.333 -2 24 -2c6.66699 0 13 0.333008 19 1s12.333 1 19 1c10 -4.66699 17.667 -11.5 23 -20.5s8 -18.167 8 -27.5s-2.66699 -17.333 -8 -24s-13 -10 -23 -10
c-9.33301 -18 -15.166 -39.5 -17.499 -64.5z" />
    <glyph glyph-name="I" unicode="I" horiz-adv-x="280" 
d="M202 617c0 -18 1.66797 -37.9971 5.00098 -59.9971c0.666992 -4.66699 1.66699 -14.167 3 -28.5s1.66602 -27.166 0.999023 -38.499c-1.33301 -40.667 -4 -105.667 -8 -195c-3.33301 -76 -6.33301 -155 -9 -237s-4 -157.333 -4 -226
c6.66699 -6.66699 17.334 -13.667 32.001 -21c13.333 -6.66699 23 -13 29 -19c0 -6 -1.33301 -10.5 -4 -13.5s-7.33398 -6.83301 -14.001 -11.5c-8 -4.66699 -15.333 -10.334 -22 -17.001c-7.33301 3.33301 -20 6.33301 -38 9c-9.33301 0.666992 -25 1 -47 1
c-22.667 0 -41.5 0.666992 -56.5 2s-29.5 4.33301 -43.5 9c-1.33301 0.666992 -3.16602 3 -5.49902 7s-3.5 8.66699 -3.5 14c0 7.33301 3 13.666 9 18.999c0 4.66699 1 7.5 3 8.5s5.33301 1.5 10 1.5c6 0 10.333 0.333008 13 1c6.66699 2.66699 11.334 6 14.001 10
c6 6 9 14.667 9 26c0 5.33301 -0.666992 11.5 -2 18.5s-2.33301 11.833 -3 14.5c-2.66699 12 -4 19.667 -4 23c0 20.667 0.666992 51 2 91l1 88c-0.666992 3.33301 -1.33398 9.5 -2.00098 18.5s-1 18.833 -1 29.5v185v349c-12.667 0 -22.5 1.16699 -29.5 3.5
s-10.5 8.16602 -10.5 17.499v41c0 6 2.33301 9 7 9c2 0 8.66699 -1.5 20 -4.5s22.666 -4.5 33.999 -4.5c7.33301 0 23 1.33301 47 4c5.33301 0.666992 15 1.66699 29 3s26.333 2 37 2c22.667 0 39.667 -3 51 -9c5.33301 -5.33301 8 -12 8 -20
c0 -10.667 -4.5 -20.334 -13.5 -29.001s-20.5 -13 -34.5 -13c-6 -16 -9 -35.333 -9 -58z" />
    <glyph glyph-name="J" unicode="J" horiz-adv-x="469" 
d="M336 679c-8 -37.333 -12.001 -84.6611 -12.001 -141.994c0 -37.333 1.5 -76.833 4.5 -118.5s4.83301 -68.167 5.5 -79.5l2 -21c1.33301 -15.333 2 -37.333 2 -66l-1 -61c-0.666992 -10 -1 -24 -1 -42c0 -16.667 1.33301 -47 4 -91c3.33301 -38.667 5 -75 5 -109
c0 -48 -5.16699 -87.833 -15.5 -119.5s-29.166 -52.834 -56.499 -63.501c-12 -6 -28 -9 -48 -9c-16.667 0 -35 1.66699 -55 5c-22.667 2.66699 -38 4 -46 4c-8.66699 0 -17.167 2.83301 -25.5 8.5s-16.333 12.167 -24 19.5s-12.834 12 -15.501 14
c-13.333 13.333 -24 31.5 -32 54.5s-12 46.833 -12 71.5c0 35.333 8 64.666 24 87.999c4 0 11.333 1.33301 22 4c3.33301 0.666992 8.66602 1.66699 15.999 3s14 2 20 2c12 0 21 -3 27 -9c-10 -18.667 -17.667 -35.5 -23 -50.5s-8 -31.167 -8 -48.5c0 -15.333 3 -32 9 -50
c0 -12 5.66699 -22.167 17 -30.5s27.333 -12.5 48 -12.5l20 21c0 41.333 3.66699 98 11 170c6.66699 78.667 10 135.334 10 170.001c0 17.333 -2 44.666 -6 81.999c-2.66699 17.333 -4.33398 32.666 -5.00098 45.999c-1.33301 14.667 -2 36 -2 64
c0 4.66699 -0.666992 13 -2 25c-2.66699 16 -3.66699 31 -3 45c0.666992 8 0.333984 22.667 -0.999023 44c-1.33301 16 -2 27 -2 33c0 16.667 -2 33.667 -6 51c-2.66699 14.667 -4 26 -4 34c0 5.33301 0.5 10.666 1.5 15.999s1.5 10.666 1.5 15.999
c0 12.667 -4.33301 23.334 -13 32.001c-3.33301 -3.33301 -9 -6.33301 -17 -9c-3.33301 -0.666992 -9.33301 -1 -18 -1c-9.33301 0 -17.666 -0.666992 -24.999 -2s-16 -4.33301 -26 -9c0 -18 -2.5 -33 -7.5 -45s-16.5 -18 -34.5 -18
c-9.33301 9.33301 -15.333 24.833 -18 46.5s-4 48.5 -4 80.5c0 9.33301 3.5 15.166 10.5 17.499s17.5 3.5 31.5 3.5c14.667 0 32.667 0.666992 54 2l47 3c11.333 0.666992 31.166 1.66699 59.499 3s52.833 2 73.5 2c44 0 79.667 -3.33301 107 -10
c15.333 -7.33301 27.5 -17.5 36.5 -30.5s13.5 -27.167 13.5 -42.5c0 -12 -2.66699 -23.333 -8 -34c0 -10 -0.833008 -15.833 -2.5 -17.5s-8.16699 -2.5 -19.5 -2.5s-18.666 2.66699 -21.999 8s-5.66602 13.333 -6.99902 24c-2.66699 15.333 -6.66699 25.666 -12 30.999h-43z
" />
    <glyph glyph-name="K" unicode="K" horiz-adv-x="603" 
d="M439 569.5c-6.66699 -28.333 -16.666 -63.835 -29.999 -106.502l-37 -73l-24 -48c0 -10.667 0.833008 -16.834 2.5 -18.501s7.5 -2.5 17.5 -2.5c7.33301 -6.66699 21 -16.667 41 -30s33.333 -23.333 40 -30c20 -26.667 34.5 -57.167 43.5 -91.5
s17.167 -78.166 24.5 -131.499c4.66699 -34.667 9 -61.667 13 -81c0 -6.66699 -1.66699 -20.667 -5 -42c-2.66699 -16 -4 -27 -4 -33c0 -11.333 3 -20 9 -26c0 -4.66699 1.83301 -9 5.5 -13s9.5 -9.33301 17.5 -16c1.33301 -1.33301 4.33301 -4 9 -8
s8.16699 -7.83301 10.5 -11.5s3.5 -7.16699 3.5 -10.5c0 -8 -2 -16 -6 -24s-6.66699 -13 -8 -15c-26 0 -63 -0.666992 -111 -2l-75 -1c-8 8.66699 -12 17.334 -12 26.001c0 3.33301 0.5 6.33301 1.5 9s1.83301 4.33398 2.5 5.00098l41 41c5.33301 12.667 8 26 8 40
c0 9.33301 -1.33301 22.666 -4 39.999c-2.66699 18.667 -4 32.334 -4 41.001v122v20c0 33.333 -5.33301 66.333 -16 99s-25.667 53.667 -45 63c-20 10 -40.333 15 -61 15c-20 0 -40.333 -5 -61 -15c-16.667 -16.667 -25 -51.667 -25 -105c0 -24.667 1 -49 3 -73
c1.33301 -30.667 2 -52 2 -64c0 -9.33301 -1 -18.333 -3 -27s-4.33301 -17 -7 -25c-7.33301 -18.667 -11 -35.667 -11 -51v-80c12.667 -6 23 -13.833 31 -23.5s12 -18.834 12 -27.501c0 -12.667 -7.33301 -22.667 -22 -30c-6.66699 2.66699 -16.667 4.66699 -30 6h-7
c-10.667 0 -25.334 -2 -44.001 -6c-20 -4 -35 -6 -45 -6c-10.667 0 -22.334 2 -35.001 6c-10.667 10.667 -16.834 17.667 -18.501 21s-2.5 9.66602 -2.5 18.999c4.66699 4.66699 12 10.334 22 17.001c6.66699 4 11.334 7.66699 14.001 11s4 7.66602 4 12.999v101v162l1 5
c0.666992 3.33301 1 9 1 17l-2 19c0 7.33301 2.66699 18 8 32c8.66699 28.667 13 51.667 13 69c0 84 -1.16699 154.333 -3.5 211s-8.16602 107.667 -17.499 153v60c-13.333 0 -23.333 1.16699 -30 3.5s-10 8.16602 -10 17.499c-9.33301 0 -14 7.66699 -14 23
c0 6.66699 1.16699 13.334 3.5 20.001s5.16602 11.667 8.49902 15c4.66699 4.66699 11.334 7 20.001 7c3.33301 0 10.333 -0.666992 21 -2c20 -2 32.667 -3 38 -3l26 1c18.667 1.33301 33 2 43 2c23.333 0 42 -3 56 -9s21 -17.333 21 -34c0 -5.33301 -1.5 -9.5 -4.5 -12.5
s-7.5 -6.5 -13.5 -10.5c-11.333 -8 -19 -14 -23 -18c0 -26 3.33301 -63 10 -111c6.66699 -46.667 10 -83.667 10 -111c0 -3.33301 -1.33301 -11 -4 -23c-0.666992 -2.66699 -1.66699 -7.5 -3 -14.5s-2 -13.167 -2 -18.5c0 -10.667 3 -19 9 -25
c37.333 9.33301 67.5 30.5 90.5 63.5s40.167 72.5 51.5 118.5c0 16 3.66699 36.333 11 61c6.66699 26.667 10 46.667 10 60h-41c0 8 -3.66699 15 -11 21c-6.66699 6.66699 -10 13.334 -10 20.001c6 10.667 14 17.667 24 21s24.667 6 44 8c24 1.33301 42 5 54 11
c12.667 -4 22.167 -9.83301 28.5 -17.5s9.5 -16.167 9.5 -25.5c0 -10 -3.66699 -18.833 -11 -26.5s-16.333 -11.5 -27 -11.5c0 -35.333 -3.33301 -67.166 -10 -95.499z" />
    <glyph glyph-name="L" unicode="L" horiz-adv-x="443" 
d="M260 680c-4.66699 -4.66699 -7.83594 -8.33594 -9.50293 -11.0029s-2.5 -6.33398 -2.5 -11.001c0 -62.667 -2 -128.167 -6 -196.5s-6.33301 -109.166 -7 -122.499c-4.66699 -71.333 -8.16699 -131.166 -10.5 -179.499s-3.5 -97.5 -3.5 -147.5
c0 -62.667 1.66699 -117.334 5 -164.001v-4c0 -8 1 -12.5 3 -13.5s8.33301 -1.83301 19 -2.5c9.33301 -0.666992 16.833 -0.833984 22.5 -0.500977s11.5 0.5 17.5 0.5c2 0 6.5 -0.166992 13.5 -0.5s16.167 -0.166016 27.5 0.500977h22v124v83c6 6 12.667 9 20 9
c5.33301 0 10 -1.16699 14 -3.5s6.66699 -4.16602 8 -5.49902c16.667 -16.667 25 -45.334 25 -86.001c0 -17.333 -1 -35 -3 -53c-1.33301 -22.667 -2 -38.667 -2 -48c0 -4 1.33301 -11.333 4 -22c3.33301 -18.667 5 -30 5 -34c0 -12 -3 -21 -9 -27
c-30.667 -5.33301 -61.667 -8.33301 -93 -9c-20.667 -0.666992 -51 -1 -91 -1c-39.333 0 -71.333 -0.5 -96 -1.5s-48.667 -3.83301 -72 -8.5c-7.33301 6.66699 -14.666 12 -21.999 16s-12.5 7.66699 -15.5 11s-4.5 8.33301 -4.5 15c0 8.66699 3.5 14.167 10.5 16.5
s17.5 3.5 31.5 3.5c9.33301 9.33301 15 19.333 17 30s3 28.334 3 53.001c9.33301 45.333 15.166 96.5 17.499 153.5s3.5 123.167 3.5 198.5v22v185c0 46 -1.16699 85.333 -3.5 118s-8.16602 63 -17.499 91c0 6 -1.33301 10.333 -4 13s-7.66699 6.33398 -15 11.001
c-9.33301 5.33301 -17 10.666 -23 15.999v42h22c21.333 0 47.666 1.66699 78.999 5c7.33301 0.666992 20.5 1.66699 39.5 3s36.167 2 51.5 2c18.667 0 32.334 -0.666992 41.001 -2c8 -0.666992 12.833 -2 14.5 -4s2.33398 -5.66699 2.00098 -11s-0.5 -9.66602 -0.5 -12.999
c-7.33301 -15.333 -16.666 -28.666 -27.999 -39.999z" />
    <glyph glyph-name="M" unicode="M" horiz-adv-x="833" 
d="M475 286.5c5.33301 25 9.83301 48.334 13.5 70.001s6.16699 35.834 7.5 42.501c3.33301 17.333 9.33301 41.666 18 72.999l19 75l9 33c5.33301 20.667 9.33301 37 12 49s4 24.667 4 38c0 20 8.66699 38.5 26 55.5s36.333 25.5 57 25.5h123c6 0 10.5 -1.5 13.5 -4.5
s6.83301 -7.83301 11.5 -14.5c6.66699 -10 12.334 -17.333 17.001 -22c-9.33301 -9.33301 -17.833 -16.5 -25.5 -21.5s-16.5 -7.5 -26.5 -7.5s-20.333 2.66699 -31 8c-6 -17.333 -9 -36 -9 -56c0 -10.667 1.33301 -27.334 4 -50.001c3.33301 -20 5 -39.333 5 -58v-83v-103
v-165l-1 -59c-0.666992 -9.33301 -1 -23 -1 -41c0 -19.333 0.666992 -34 2 -44c2.66699 -24.667 4 -50.667 4 -78c0 -17.333 -0.666992 -40 -2 -68s-2 -48 -2 -60c22 0 41.667 -5.66699 59 -17s26 -23 26 -35c0 -9.33301 -5 -16.333 -15 -21c-8.66699 0 -16 1 -22 3
c-1.33301 0 -4 0.5 -8 1.5s-8.66699 1.5 -14 1.5c-2.66699 0 -10 -1 -22 -3c-8 -2.66699 -15.667 -4 -23 -4l-36 7c4 2 2 2.33301 -6 1l-28 -4.5c-10.667 -1.66699 -22.334 -2.5 -35.001 -2.5c0 4.66699 -0.833008 8 -2.5 10s-5 4.33301 -10 7s-7.5 7.33398 -7.5 14.001
c0 5.33301 2.16699 9.5 6.5 12.5s11.5 6.5 21.5 10.5c17.333 7.33301 28.666 13.666 33.999 18.999c-9.33301 62.667 -14 138.667 -14 228c0 28 0.666992 73.333 2 136c1.33301 45.333 2 79.666 2 102.999c0 8 1.33301 26.667 4 56c4 33.333 6 58 6 74v83
c0 7.33301 -0.166992 12.833 -0.5 16.5s-2.83301 11.167 -7.5 22.5l1 19c0 7.33301 -4.66699 15.666 -14 24.999c0 -0.666992 0.333008 -2.5 1 -5.5s1 -6.83301 1 -11.5c0 -10 -1.66699 -18.333 -5 -25c-6.66699 -16.667 -13.5 -38.5 -20.5 -65.5s-13.5 -54.5 -19.5 -82.5
c-8 -34.667 -14.333 -60.667 -19 -78l-8.5 -28.5c-4.33301 -14.333 -7.5 -25.833 -9.5 -34.5l-14 -75c-11.333 -56.667 -18.666 -92.667 -21.999 -108c-2 -8.66699 -4.33301 -25 -7 -49c-2.66699 -25.333 -5.5 -44.5 -8.5 -57.5s-7.5 -19.5 -13.5 -19.5
c-8.66699 0 -19 3.66699 -31 11c-13.333 6.66699 -23 10 -29 10c0 14.667 -1.16699 27.834 -3.5 39.501s-6.16602 25.834 -11.499 42.501l-6 21l-17 62l-15 53.5c-6.66699 24.333 -13 46.166 -19 65.499c-15.333 49.333 -29.333 90.666 -42 123.999
c-2 5.33301 -4.33301 12.5 -7 21.5s-6 17.167 -10 24.5s-9 14 -15 20v-144c0 -16.667 -3 -43.667 -9 -81c-7.33301 -50 -11 -84.667 -11 -104v-104v-185c13.333 0 23.5 -1.16699 30.5 -3.5s10.5 -8.16602 10.5 -17.499c0 -16.667 -9.33301 -28.167 -28 -34.5
s-43 -9.5 -73 -9.5c-14.667 0 -33.334 0.666992 -56.001 2l-28 1c-6 0 -10.5 1.5 -13.5 4.5s-6.83301 7.83301 -11.5 14.5c-6.66699 10 -12.334 17.333 -17.001 22c4.66699 4.66699 8.83398 9.66699 12.501 15s7.16699 9.16602 10.5 11.499s7.33301 3.5 12 3.5
c6.66699 0 16 -3 28 -9v206v268v41v206v144c-7.33301 0 -13.833 -1.16699 -19.5 -3.5s-11.5 -3.5 -17.5 -3.5c-4 0 -8.16699 0.5 -12.5 1.5s-7.5 1.5 -9.5 1.5c-9.33301 2.66699 -17.333 4 -24 4c-10.667 10.667 -16.834 18.5 -18.501 23.5s-2.5 17.833 -2.5 38.5
c18 6 39 9 63 9c48.667 0 103.334 -9.66699 164.001 -29c10.667 -22.667 20.167 -42 28.5 -58l20.5 -40c2 -2.66699 6.33301 -11 13 -25v-21c14.667 -29.333 28.167 -61.166 40.5 -95.499s25.833 -75.166 40.5 -122.499l18 -56c5.33301 -16 10.5 -29.5 15.5 -40.5
s10.5 -21.833 16.5 -32.5l13 -25c8 24.667 14.667 49.5 20 74.5z" />
    <glyph glyph-name="N" unicode="N" horiz-adv-x="647" 
d="M619.5 718c-3 -6 -5.99707 -10.835 -8.99707 -14.502s-5.16699 -6.16699 -6.5 -7.5h-41c-6 -6 -9 -13 -9 -21c0 -3.33301 1.33301 -10.333 4 -21c3.33301 -18 5 -31 5 -39v-227c0 -242.667 5.33301 -440.334 16 -593.001c0.666992 -16 -3.33301 -27.667 -12 -35
s-19.334 -11 -32.001 -11c-9.33301 0 -18.5 1.66699 -27.5 5s-15.833 7.33301 -20.5 12l-18.5 55.5l-23.5 71.5c-48.667 142.667 -83 249.334 -103 320.001c-6 22.667 -15 47.5 -27 74.5s-18.667 41.833 -20 44.5c-4 8.66699 -7 15.834 -9 21.501s-3.33301 9.16699 -4 10.5
c-5.33301 12 -9.33301 27.333 -12 46c-3.33301 17.333 -7 30.5 -11 39.5s-11.667 16.5 -23 22.5v-140v-160v-161v-60v-100c8.66699 -8.66699 17.5 -14.167 26.5 -16.5s19.833 -3.5 32.5 -3.5c0 -6.66699 0.666992 -16.667 2 -30c1.33301 -10.667 2 -18 2 -22
c0 -9.33301 -1.83301 -16.333 -5.5 -21s-10.5 -7 -20.5 -7l-45 -1l-134 -3c-5.33301 0 -8.83301 2.16699 -10.5 6.5s-2.5 10.833 -2.5 19.5c0 9.33301 0.333008 16.666 1 21.999l1 30c1.33301 -0.666992 4.16602 -1.66699 8.49902 -3s8.5 -2 12.5 -2c8 0 12 3.66699 12 11
c7.33301 15.333 11 35.666 11 60.999c0 10.667 -0.666992 25.334 -2 44.001c-1.33301 17.333 -2 29 -2 35c0 23.333 -1.33301 59 -4 107c-2 29.333 -3 53.666 -3 72.999l-1 141c0 15.333 -1.33301 35.666 -4 60.999s-4 44.333 -4 57c0 4 -1.66699 14.333 -5 31
c-4 14.667 -6 25 -6 31v20v61c0 10 -0.333008 17 -1 21l-1 30c0 10.667 -3.33301 24 -10 40c-5.33301 13.333 -8 23 -8 29c-19.333 0 -34.333 4 -45 12s-16 17.333 -16 28c0 10 3.33301 18.667 10 26s15 11 25 11c5.33301 0 9.5 0.166992 12.5 0.5s5.83301 0.5 8.5 0.5
c6 1.33301 14.333 2.33301 25 3c4.66699 0.666992 10 0.5 16 -0.5s10.667 -1.5 14 -1.5c13.333 -1.33301 25 -2 35 -2c8 0 14.667 -2.66699 20 -8s9.16602 -11 11.499 -17s3.5 -10 3.5 -12c26 -38 48.333 -78.167 67 -120.5s40.667 -96.5 66 -162.5
c22 -58 37.667 -97.333 47 -118c8.66699 -27.333 17.667 -51.166 27 -71.499s20.666 -43.166 33.999 -68.499c0 -9.33301 1.16699 -18.166 3.5 -26.499s6.83301 -20.166 13.5 -35.499c2 -4 5.33301 -14.667 10 -32c5.33301 -16.667 11.333 -34.167 18 -52.5
s13 -31.5 19 -39.5c1.33301 -2 2.16602 -1.83301 2.49902 0.5s0.5 5.83301 0.5 10.5c0 10 -1.33301 32.333 -4 67s-4 57 -4 67c0 30 1.33301 82.333 4 157c2.66699 80 4 142.333 4 187v20c0 20.667 -3.33301 47.667 -10 81s-10 60 -10 80
c-12.667 12.667 -23.834 22.5 -33.501 29.5s-18.834 10.5 -27.501 10.5c-4 4 -8.5 7.83301 -13.5 11.5s-8.66699 7.16699 -11 10.5s-3.5 7.33301 -3.5 12c0 7.33301 2.66699 16.333 8 27c6 0 10.833 -1 14.5 -3s10.834 -3 21.501 -3c12.667 0 22.834 0.833008 30.501 2.5
s12.5 2.83398 14.5 3.50098c8 -2 16.667 -3 26 -3c6.66699 0 17.334 0.666992 32.001 2c20.667 1.33301 35.334 1.66602 44.001 0.999023c19.333 -1.33301 32 -8.33301 38 -21c0 -6 -1.5 -12 -4.5 -18z" />
    <glyph glyph-name="O" unicode="O" horiz-adv-x="614" 
d="M461 -189c-10.667 -11.333 -20.665 -20 -29.998 -26c-38.667 -24.667 -79.667 -37 -123 -37s-83.5 11.5 -120.5 34.5s-64.5 51.167 -82.5 84.5c-24.667 46.667 -45.334 94.667 -62.001 144c-8.66699 35.333 -14.167 71.166 -16.5 107.499s-3.5 81.833 -3.5 136.5
c0 8.66699 -0.666992 21 -2 37c-1.33301 17.333 -2 30.333 -2 39c0 15.333 1.33301 31 4 47c0.666992 4 2.66699 15 6 33s5 33 5 45c1.33301 6.66699 3.66602 19.334 6.99902 38.001c2.66699 18 5.5 32.333 8.5 43s7.83301 19 14.5 25c7.33301 10 18.333 26.333 33 49
c20 30.667 37.167 54.667 51.5 72s32.333 32.333 54 45s47.167 19 76.5 19c13.333 0 23.666 -0.666992 30.999 -2c40 0 71.833 -6 95.5 -18s45.834 -33.333 66.501 -64c31.333 -20.667 57.833 -52.667 79.5 -96s34.834 -91 39.501 -143c2.66699 -27.333 4 -63.333 4 -108
v-44c0 -68 -5.66699 -125.667 -17 -173c-20 -94.667 -50.333 -179 -91 -253c-6.66699 -12 -15.334 -23.667 -26.001 -35zM427.502 -56c11 34 19.167 62.6689 24.5 86.002c8.66699 27.333 14.167 54.666 16.5 81.999s3.5 61.333 3.5 102c0 14 1.33301 31.667 4 53
c0 4 0.5 11.167 1.5 21.5s1.5 20.166 1.5 29.499s-0.333008 20.166 -1 32.499s-1.33398 21.833 -2.00098 28.5c-2.66699 26.667 -4 46.667 -4 60c-6.66699 13.333 -13.334 33.333 -20.001 60c-6.66699 28 -13.667 49 -21 63l-11 24c-12 26 -22.667 46.333 -32 61
s-21.333 25.667 -36 33c-13.333 0 -26.666 0.666992 -39.999 2c-14.667 1.33301 -29 2 -43 2c-20 -20 -36 -40.833 -48 -62.5s-23.333 -48.167 -34 -79.5c-9.33301 -18 -15.166 -36.167 -17.499 -54.5s-3.5 -41.166 -3.5 -68.499c-5.33301 -42.667 -8 -90 -8 -142
c0 -94 9.66699 -196.333 29 -307c4.66699 -9.33301 8.5 -19.333 11.5 -30s5.16699 -17.667 6.5 -21c4 -14 7.5 -24.833 10.5 -32.5s7.16699 -14.167 12.5 -19.5c5.33301 0 8.83301 -1 10.5 -3s3.16699 -6.33301 4.5 -13s4 -12 8 -16c10.667 -10.667 28 -16 52 -16
c20.667 0 40.5 3.83301 59.5 11.5s30.833 17.5 35.5 29.5c8.66699 22 18.5 50 29.5 84z" />
    <glyph glyph-name="P" unicode="P" horiz-adv-x="596" 
d="M307 -181.5c14.667 -5.66699 21.9971 -13.833 21.9971 -24.5c0 -8.66699 -5.33301 -18.667 -16 -30c-17.333 0 -50.333 -1.66699 -99 -5c-34.667 -2.66699 -59.334 -4 -74.001 -4c-28.667 0 -55 3 -79 9c-1.33301 1.33301 -3.66602 4 -6.99902 8s-6.66602 9 -9.99902 15
s-5 12.333 -5 19c10.667 10.667 18.667 16.834 24 18.501s18.333 2.5 39 2.5c8 7.33301 12 20.666 12 39.999c0 7.33301 -0.666992 18.333 -2 33c-1.33301 13.333 -2 22.666 -2 27.999v31c0 62.667 1 120.334 3 173.001c1.33301 62.667 2 109 2 139
c0 17.333 0.333008 30.666 1 39.999l1 59c0 26.667 -0.666992 47.334 -2 62.001c-1.33301 17.333 -2 28.666 -2 33.999v4c0 14 0.333008 25.333 1 34c1.33301 30 1.66602 59 0.999023 87l1 32c0 9.33301 -1 16.833 -3 22.5s-6 9.5 -12 11.5
c-7.33301 3.33301 -16.333 5 -27 5c-7.33301 0.666992 -13.166 1.66699 -17.499 3s-9.5 4.66602 -15.5 9.99902c-13.333 7.33301 -20 14.666 -20 21.999c0 4.66699 2 9.33398 6 14.001s8.83301 9.5 14.5 14.5s10.167 8.83301 13.5 11.5c51.333 9.33301 115 14 191 14l108 -1
c5.33301 0 9.83301 0.333008 13.5 1s6.83398 1 9.50098 1c6.66699 0 13.334 -0.666992 20.001 -2c38.667 -6 73.334 -31.833 104.001 -77.5s51.667 -96.834 63 -153.501c0 -42 -1.16699 -75.667 -3.5 -101s-8.16602 -47.666 -17.499 -66.999
c-7.33301 -22 -18.833 -42 -34.5 -60s-36.167 -37.667 -61.5 -59l-30 -27c-19.333 -10 -38.833 -16.167 -58.5 -18.5s-48.834 -3.5 -87.501 -3.5c-1.33301 0 -3.5 -0.333008 -6.5 -1s-6.16699 -2.66699 -9.5 -6s-5 -8 -5 -14c-0.666992 -6 -0.833984 -15.667 -0.500977 -29
s0.5 -23.666 0.5 -30.999v-23c0 -24.667 -1.66699 -52.667 -5 -84c-0.666992 -7.33301 -1.66699 -19.666 -3 -36.999s-2 -33 -2 -47c0 -29.333 3.33301 -57.333 10 -84c23.333 0 42.333 -2.83301 57 -8.5zM249.997 268.001c6 -6.66699 13.666 -11.6689 22.999 -15.002
s19 -5 29 -5c11.333 0 21 2.33301 29 7c20 12.667 38 29.834 54 51.501s26.667 43.5 32 65.5c1.33301 6.66699 3.83301 16.834 7.5 30.501s5.83398 27.334 6.50098 41.001s1 30.5 1 50.5c0 30.667 -3.33301 61.5 -10 92.5s-15 57.167 -25 78.5
c-5.33301 0 -11 1.16699 -17 3.5s-10 3.83301 -12 4.5c-18.667 9.33301 -37 14 -55 14h-63c-6.66699 -33.333 -10 -68.333 -10 -105c0 -18 0.666992 -38 2 -60s2.33301 -37.333 3 -46c3.33301 -38.667 5 -73.334 5 -104.001v-104z" />
    <glyph glyph-name="Q" unicode="Q" horiz-adv-x="558" 
d="M576.5 -300c2.33301 -6.66699 3.49219 -17 3.49219 -31c-25.333 -12.667 -47.333 -19 -66 -19c-16 0 -33 4 -51 12c-17.333 7.33301 -31.166 14.5 -41.499 21.5s-17.833 16.5 -22.5 28.5l-6 21c-3.33301 14.667 -6.66602 25.5 -9.99902 32.5s-8.66602 10.5 -15.999 10.5
c-4.66699 0 -10 -1.16699 -16 -3.5s-10 -3.83301 -12 -4.5c-11.333 -4.66699 -21.166 -8.16699 -29.499 -10.5s-18.166 -3.5 -29.499 -3.5c-8 0 -21 2.5 -39 7.5s-33 9.83301 -45 14.5c-26 10.667 -54.333 31.334 -85 62.001c-73.333 76.667 -110 206 -110 388
c0 70 5 148.333 15 235c0.666992 7.33301 2.33398 13.666 5.00098 18.999s4 11.666 4 18.999c7.33301 14 14.333 31.667 21 53c7.33301 20.667 15 38.667 23 54c7.33301 8 14.333 18.667 21 32c6.66699 14.667 13.667 25.334 21 32.001c0 6.66699 3 13 9 19
s15.333 13.667 28 23c11.333 8 20.333 15.333 27 22c44.667 9.33301 84.667 14 120 14c54 0 99.333 -12 136 -36c20.667 -20 37.167 -41.167 49.5 -63.5s24.5 -50.166 36.5 -83.499c14 -30.667 24.333 -56.334 31 -77.001s10 -45 10 -73v-107v-149
c-18 -72 -39 -142.667 -63 -212c-10.667 -11.333 -20.5 -26 -29.5 -44s-13.5 -32.333 -13.5 -43c-2.66699 -10 -4 -20.667 -4 -32c0 -22 5.33301 -42 16 -60s24.334 -32.167 41.001 -42.5s34.334 -15.5 53.001 -15.5c10 0 16.167 -3.33301 18.5 -10zM431.992 238
l-1.00098 90.001c0 118 -9.33301 191.667 -28 221l-9 24c-9.33301 25.333 -17.666 44.166 -24.999 56.499s-17.833 22.166 -31.5 29.499s-32.834 11 -57.501 11h-40c-32.667 -49.333 -56.667 -107.166 -72 -173.499s-23 -138.166 -23 -215.499c0 -46 2.66699 -94 8 -144
c0 -39.333 2.5 -75.333 7.5 -108s16.833 -53.667 35.5 -63l22 22c18 6 35 9 51 9c14.667 0 28.834 -1.83301 42.501 -5.5s32.834 -9.83398 57.501 -18.501l20 -7c8.66699 20 16 49.667 22 89c3.33301 23.333 7.66602 47.333 12.999 72c5.33301 22 8 59 8 111z
M340.991 -99.499c-3.33301 6.33301 -6.66992 11.668 -10.0029 16.001s-5.66602 7.16602 -6.99902 8.49902h-62c-8.66699 0 -15 -3.16699 -19 -9.5s-6 -14.5 -6 -24.5c0 -15.333 4.16699 -29.5 12.5 -42.5s18.5 -19.5 30.5 -19.5c12.667 0 21.834 0.833008 27.501 2.5
s11.834 6.16699 18.501 13.5c6.66699 6 11.667 13 15 21s5 13 5 15c0 6.66699 -1.66699 13.167 -5 19.5z" />
    <glyph glyph-name="R" unicode="R" horiz-adv-x="594" 
d="M484 217c10 -35.333 17.166 -71.499 21.499 -108.499s8.16602 -84.5 11.499 -142.5c4 -67.333 8 -116 12 -146c14.667 0 25.334 -1.16699 32.001 -3.5s10 -8.16602 10 -17.499c0 -32.667 -24 -49 -72 -49c-14 0 -39.667 2.33301 -77 7
c-8.66699 8.66699 -14 18.334 -16 29.001v6c0 4.66699 2 16.334 6 35.001c2 10 4.16699 21.833 6.5 35.5s3.5 27.834 3.5 42.501c0 20.667 -1.66699 39.667 -5 57c-3.33301 21.333 -5 48.333 -5 81c-1.33301 39.333 -4 71.166 -8 95.499s-13.667 47.166 -29 68.499l-12 18
c-9.33301 15.333 -19.333 28.333 -30 39c0 6 -1.5 10.667 -4.5 14s-8.16699 7.33301 -15.5 12c-9.33301 5.33301 -17 10.666 -23 15.999c-14 0 -24.5 -1.16699 -31.5 -3.5s-10.5 -7.83301 -10.5 -16.5c-6.66699 -34 -10 -71.667 -10 -113c0 -28.667 2 -68.334 6 -119.001
c2.66699 -44 4 -74 4 -90c0 -29.333 1.16699 -53.5 3.5 -72.5s7.83301 -38.167 16.5 -57.5c0 -4.66699 1.83301 -8.5 5.5 -11.5s9.16699 -6.16699 16.5 -9.5c6.66699 -3.33301 11.834 -6.33301 15.501 -9s5.5 -6.33398 5.5 -11.001v-16c0 -8 -1.33301 -13.667 -4 -17
s-7.33398 -5 -14.001 -5c-12 0 -26 1 -42 3c-6 0 -15.667 0.5 -29 1.5s-25 1.5 -35 1.5c-30 0 -52.667 -4 -68 -12c-18 0 -31.333 0.666992 -40 2s-16.667 5.16602 -24 11.499s-14.666 16.5 -21.999 30.5c10 8.66699 19.667 14.167 29 16.5s21 3.5 35 3.5v365
c0 6.66699 0.666992 14.5 2 23.5s2.33301 15.5 3 19.5c3.33301 15.333 5 29.333 5 42c0 15.333 -3.33301 29.666 -10 42.999c0 9.33301 1 18 3 26c2.66699 17.333 4 27.333 4 30c1.33301 22.667 2 39 2 49c0 20.667 -1.33301 52.334 -4 95.001
c-0.666992 8 -1.66699 24.167 -3 48.5s-2 48.833 -2 73.5c-22.667 0 -41.334 2.5 -56.001 7.5s-22 12.833 -22 23.5c0 20.667 3.16699 35.5 9.5 44.5s15.333 14.5 27 16.5s30.5 3 56.5 3c7.33301 0 15.666 2 24.999 6c8 4 15.667 6 23 6c40 6.66699 78.667 10 116 10
c58.667 0 108.834 -9 150.501 -27s67.5 -48 77.5 -90c8.66699 -34.667 13 -66.667 13 -96s-4.33301 -54.333 -13 -75c-5.33301 -13.333 -14.166 -28 -26.499 -44s-24.5 -30 -36.5 -42l-22 -22c0 -8 3.66699 -15 11 -21c7.33301 -7.33301 11 -14.666 11 -21.999
c18.667 -24 33 -53.667 43 -89zM235.999 405.001c0 -7.33301 5.66602 -11.0039 16.999 -11.0039c14 0 32.333 4.66699 55 14s38.334 18.333 47.001 27c0 8 3.33301 23.333 10 46c5.33301 16.667 8.66602 29.667 9.99902 39c2.66699 14 4 25.333 4 34
c0 6.66699 -0.666992 14.334 -2 23.001s-2 18.334 -2 29.001c0 12 -2.66699 21.833 -8 29.5s-11.666 14.834 -18.999 21.501s-12.333 11.334 -15 14.001l-105 -2c0 -65.333 2.66699 -153.333 8 -264z" />
    <glyph glyph-name="S" unicode="S" horiz-adv-x="513" 
d="M349 723c2.66699 5.33301 8.66016 8.00195 17.9932 8.00195c14 0 24.333 -1.16699 31 -3.5s10 -8.5 10 -18.5c6.66699 -6.66699 10 -15.334 10 -26.001c0 -8 -2 -19.333 -6 -34c-2.66699 -12 -4 -19.667 -4 -23l-14.5 -33.5c-7.66699 -17.667 -16 -31.5 -25 -41.5
s-18.5 -15 -28.5 -15c-6 0 -11.667 1.33301 -17 4c-6 6 -9 15 -9 27c0 6 1.33301 17.667 4 35c3.33301 23.333 5 38 5 44c-10.667 11.333 -26 21.333 -46 30s-40 13 -60 13c-10.667 -20.667 -16 -52.667 -16 -96s5.33301 -75.666 16 -96.999
c8.66699 -18 20.834 -33.833 36.501 -47.5s37.167 -29.834 64.5 -48.501c30 -20.667 54.333 -39.167 73 -55.5s34.667 -36.166 48 -59.499c16.667 -28.667 30.334 -54 41.001 -76c10.667 -20.667 18.667 -43.334 24 -68.001s8 -48.667 8 -72
c0 -40 -3.16699 -73.833 -9.5 -101.5s-16.5 -57.167 -30.5 -88.5c-16 -34.667 -37.333 -61.834 -64 -81.501s-61.667 -34.834 -105 -45.501h-86c-18 0 -39.5 9.66699 -64.5 29s-45.833 38 -62.5 56c-20.667 38.667 -31 79.334 -31 122.001c0 20.667 3 43.667 9 69
c-7.33301 0 -14.666 -3.66699 -21.999 -11c-6 -7.33301 -12.667 -11 -20 -11c-10 10 -16.167 19.833 -18.5 29.5s-3.5 21.167 -3.5 34.5c22.667 8 49 14.333 79 19c14.667 2.66699 30 6 46 10s31.333 9 46 15c15.333 0 27.666 -5 36.999 -15s14 -22.333 14 -37
c0 -11.333 -3 -22.666 -9 -33.999c-14 0 -25.667 -1.16699 -35 -3.5s-19 -8.5 -29 -18.5c-14.667 -14.667 -22 -37.334 -22 -68.001c0 -26.667 5.83301 -52.167 17.5 -76.5s27.167 -39.833 46.5 -46.5c8.66699 0 16 3.66699 22 11c0.666992 0.666992 3 2.66699 7 6s9 5 15 5
c46.667 23.333 82.167 59.833 106.5 109.5s36.5 106.167 36.5 169.5c0 41.333 -5 83 -15 125c-11.333 21.333 -23.166 38.166 -35.499 50.499s-29.166 24.166 -50.499 35.499c-19.333 9.33301 -35 18.833 -47 28.5s-25 21.5 -39 35.5
c-6.66699 6.66699 -15.667 13.334 -27 20.001c-17.333 10 -32 21.333 -44 34c-4 4.66699 -13.667 14.667 -29 30s-27.333 30.166 -36 44.499s-13 27.833 -13 40.5c-3.33301 10 -5 21.667 -5 35c0 44.667 23 90 69 136c5.33301 0 11 1.16699 17 3.5s10 3.83301 12 4.5
c18.667 9.33301 37.334 14 56.001 14c12.667 0 23.334 -0.833008 32.001 -2.5s19.334 -4.5 32.001 -8.5l44 -11c1.33301 -1.33301 4 -3.66602 8 -6.99902s9 -6.66602 15 -9.99902s12.333 -5 19 -5c0 4 1.33301 8.66699 4 14z" />
    <glyph glyph-name="T" unicode="T" horiz-adv-x="596" 
d="M515 580c-0.666992 5.33301 -0.998047 13.665 -0.998047 24.998c0 12.667 -0.666992 23.667 -2 33s-4.33301 18.666 -9 27.999c-6 6 -16.667 9 -32 9c-13.333 0 -29 -1.66699 -47 -5c-21.333 -2.66699 -36.333 -4 -45 -4c-6 -12 -9 -28 -9 -48c0 -16 1.66699 -34 5 -54
c2.66699 -21.333 4 -36.333 4 -45v-394v-168v-42c0 -14.667 -1 -28.334 -3 -41.001c-1.33301 -14.667 -2 -25.667 -2 -33c0 -12.667 1.66699 -22.667 5 -30c1.33301 -3.33301 4 -5.66602 8 -6.99902s7.5 -2.33301 10.5 -3s5.16699 -1 6.5 -1
c11.333 -1.33301 20.333 -3.83301 27 -7.5s10 -11.167 10 -22.5c-1.33301 -1.33301 -4 -3.66602 -8 -6.99902s-9.16699 -6.5 -15.5 -9.5s-12.5 -4.5 -18.5 -4.5h-188c-9.33301 0 -15.166 3.5 -17.499 10.5s-3.5 17.5 -3.5 31.5c7.33301 0 17.666 3.33301 30.999 10
s23.666 10 30.999 10l1 175c0 36 -0.333008 61.333 -1 76c-0.666992 19.333 -1 47.333 -1 84l1 165v104v42c0 52 -1.16699 92.667 -3.5 122s-8.16602 58.333 -17.499 87c-16 4.66699 -33.333 7 -52 7h-5c-32.667 0 -59.5 -7.16699 -80.5 -21.5s-31.5 -36.166 -31.5 -65.499
c0 -7.33301 1 -15.666 3 -24.999c-0.666992 -1.33301 -3.16699 -3.16602 -7.5 -5.49902s-8.83301 -3.5 -13.5 -3.5c-7.33301 0 -14 3 -20 9c0 8 -1.33301 22.667 -4 44c-3.33301 30 -5 48.333 -5 55c0 20 3 36 9 48c23.333 12 45.666 21 66.999 27s46.333 9 75 9
c20.667 0 55 0.666992 103 2c38 2 74.667 3 110 3c49.333 0 90.5 -2.33301 123.5 -7s53.833 -16 62.5 -34c8.66699 -24.667 13 -48.667 13 -72c0 -22 -4.33301 -40 -13 -54s-22.334 -21 -41.001 -21c-3.33301 3.33301 -6.33301 9.66602 -9 18.999z" />
    <glyph glyph-name="U" unicode="U" horiz-adv-x="598" 
d="M295 -142c13.333 0 26.3271 4.33301 38.9941 13c22.667 16.667 39.167 41.667 49.5 75s16.5 66 18.5 98s3 70.667 3 116v305c0 14.667 0.666992 31 2 49s2.33301 30.333 3 37c2.66699 30.667 4 52.334 4 65.001c0 23.333 -3 40.666 -9 51.999
c-6 6.66699 -12 11.667 -18 15s-10.833 5.33301 -14.5 6s-6.16699 1 -7.5 1c0 4 -1.33301 9.16699 -4 15.5s-4.33398 10.5 -5.00098 12.5c-5.33301 10.667 -8 17.667 -8 21c0 4 2.66699 6 8 6c19.333 0 40.666 1 63.999 3c8 0 21.167 0.5 39.5 1.5s33.833 1.16699 46.5 0.5
c24.667 -0.666992 43.167 -5.33398 55.5 -14.001s18.5 -18.334 18.5 -29.001c0 -8.66699 -3.66699 -15.667 -11 -21c-19.333 -16 -30.666 -45.333 -33.999 -88c-1.33301 -12.667 -2 -33.667 -2 -63c0 -22 -0.333008 -44.667 -1 -68s-2.66699 -44 -6 -62v-203v-22
c0 -66 -4.16699 -122.667 -12.5 -170s-24.166 -92.333 -47.499 -135c-17.333 -32.667 -39.666 -61.167 -66.999 -85.5s-59.333 -36.5 -96 -36.5c-6 0 -11.667 -0.333008 -17 -1s-15.666 -1 -30.999 -1c-30 4.66699 -55.5 16.167 -76.5 34.5s-40.5 41.5 -58.5 69.5
c-8.66699 14.667 -14.667 29.5 -18 44.5s-6.33301 35.5 -9 61.5c-2.66699 32 -7 57.667 -13 77v509c0 9.33301 0.666992 22.666 2 39.999l1 39c0 13.333 -1 27.333 -3 42c-0.666992 6 -3.5 10.833 -8.5 14.5s-11.833 7.5 -20.5 11.5
c-11.333 4.66699 -19.666 9.33398 -24.999 14.001s-8 12 -8 22c7.33301 7.33301 15.333 12 24 14s18.834 3.33301 30.501 4s20.834 1.33398 27.501 2.00098c34 2 52.667 3 56 3c32.667 0 55.667 -6.66699 69 -20c3.33301 -3.33301 5 -7.66602 5 -12.999
c0 -12.667 -9.66699 -30 -29 -52v-121v-184l1 -221c0 -56 1.16699 -102.667 3.5 -140s7.5 -73 15.5 -107c24.667 -24.667 49.334 -37 74.001 -37z" />
    <glyph glyph-name="V" unicode="V" horiz-adv-x="599" 
d="M458 735c15.333 0 32.333 1.66504 51 4.99805c20 2.66699 34 4 42 4c10 -10 17.333 -18.5 22 -25.5s7 -15.167 7 -24.5s-2.66699 -19.333 -8 -30h-40c-6 -11.333 -10.5 -22.666 -13.5 -33.999s-6.5 -27 -10.5 -47c-3.33301 -18 -7.33301 -36.667 -12 -56
c-13.333 -50 -26.666 -104.5 -39.999 -163.5l-37 -170.5c-21.333 -99.333 -38.833 -177.833 -52.5 -235.5s-30.167 -116.167 -49.5 -175.5c-9.33301 -14 -18 -21 -26 -21c-8.66699 0 -16.5 7 -23.5 21s-14.5 33.667 -22.5 59c-2.66699 6 -5 12.667 -7 20
c-12.667 25.333 -19 58 -19 98c-9.33301 35.333 -27 106 -53 212l-6 23c-14 40.667 -25.333 82.667 -34 126s-17.667 94 -27 152l-12 75c-10.667 59.333 -16 96.333 -16 111c0 8.66699 -6.66699 13 -20 13l-27 -1c0 6 -0.666992 15.667 -2 29c-2 10 -3 19.667 -3 29
c0 8.66699 8.66699 13 26 13l29 -1c67.333 0 115.666 1 144.999 3c12 0.666992 21 -2.33301 27 -9s9 -15.334 9 -26.001c0 -15.333 -5.33301 -29.666 -16 -42.999s-24.334 -20 -41.001 -20c0 -32.667 3 -68.167 9 -106.5s14.667 -84.833 26 -139.5
c0.666992 -6.66699 2.33398 -16 5.00098 -28c13.333 -81.333 25.333 -146.5 36 -195.5s25 -95.167 43 -138.5c0.666992 9.33301 6 30.666 16 63.999c14.667 46.667 22 77.667 22 93c4.66699 22.667 10.834 47.834 18.501 75.501l16.5 59.5
c16.667 60.667 29.834 112.834 39.501 156.501s17.5 90.167 23.5 139.5c0 4.66699 1.5 9.5 4.5 14.5s4.5 8.5 4.5 10.5c0 4 -3 8.66699 -9 14c-4.66699 4.66699 -13 10.334 -25 17.001c-12 6 -20.667 11.667 -26 17s-8 13.666 -8 24.999
c1.33301 0 3.66602 0.333008 6.99902 1s6.5 2.66699 9.5 6s4.5 8 4.5 14c11.333 -6 25.666 -9 42.999 -9z" />
    <glyph glyph-name="W" unicode="W" horiz-adv-x="904" 
d="M222 670c0 -6.66699 3.33398 -24.6699 10.001 -54.0029c9.33301 -36 14 -62 14 -78c0 -38.667 2.5 -77.667 7.5 -117s13.167 -93 24.5 -161l7 -45c0 -6.66699 0.5 -12.667 1.5 -18s4.5 -11 10.5 -17c6.66699 -6.66699 13.334 -2.16699 20.001 13.5s10 29.834 10 42.501
c31.333 62.667 56.833 125 76.5 187s33.834 127.667 42.501 197c-0.666992 0.666992 -2.83398 2.66699 -6.50098 6s-8.33398 6.33301 -14.001 9s-11.5 4 -17.5 4h-21c-1.33301 1.33301 -3.66602 4 -6.99902 8s-6.5 9 -9.5 15s-4.5 12 -4.5 18s7.33301 9 22 9
c8.66699 0 25 -1.33301 49 -4c20 -3.33301 37 -5 51 -5c12 0 24 1.66699 36 5c13.333 2.66699 23 4 29 4c12 0 24 -3 36 -9c5.33301 -4.66699 8 -11 8 -19c0 -10.667 -4.66699 -20.167 -14 -28.5s-21 -12.5 -35 -12.5l62 -365c12.667 13.333 22 27 28 41
s12.667 33.667 20 59c6 21.333 10.667 36.333 14 45c5.33301 10 10 23.5 14 40.5s7.33301 33.5 10 49.5c4.66699 32 10 54.667 16 68c7.33301 16.667 12.833 36 16.5 58s5.5 39.667 5.5 53c-1.33301 0 -3.83301 -0.333008 -7.5 -1s-7.83398 -1 -12.501 -1
c-16 0 -24 4.33301 -24 13c0 7.33301 -1 15 -3 23c-0.666992 2.66699 -1.33398 6 -2.00098 10s-1 8.33301 -1 13c0 9.33301 3 14.333 9 15c30 5.33301 61.333 8 94 8c45.333 0 80 -5.33301 104 -16c0 -11.333 0.333008 -19.666 1 -24.999l1 -28
c-3.33301 -3.33301 -9.33301 -6.33301 -18 -9c-4.66699 -0.666992 -12.334 -1 -23.001 -1c-10 0 -18.167 -0.5 -24.5 -1.5s-11.833 -3.83301 -16.5 -8.5c-4.66699 -5.33301 -8.33398 -12.5 -11.001 -21.5s-4.83398 -18.167 -6.50098 -27.5s-2.83398 -15.333 -3.50098 -18
c-3.33301 -20 -6.66602 -34.333 -9.99902 -43c-15.333 -36.667 -27.166 -72.334 -35.499 -107.001s-17.166 -79 -26.499 -133l-6 -35l-33 -224c-4 -32.667 -11.667 -87.667 -23 -165c-1.33301 -6.66699 -2.66602 -18.667 -3.99902 -36
c-2.66699 -26.667 -5.66699 -48.5 -9 -65.5s-8 -28.833 -14 -35.5c-12.667 0 -23.667 6.5 -33 19.5s-16.5 27.833 -21.5 44.5s-7.5 29.334 -7.5 38.001c-10 76.667 -25.667 155.334 -47 236.001s-46 157 -74 229c-21.333 -43.333 -39.5 -89.5 -54.5 -138.5
s-31.5 -108.833 -49.5 -179.5c-15.333 -61.333 -28.5 -110.333 -39.5 -147s-23.5 -70.667 -37.5 -102c-18.667 0 -32.667 7.16699 -42 21.5s-16 34.166 -20 59.499c-8 47.333 -15.333 99.833 -22 157.5s-11 93.834 -13 108.501c-18 148.667 -32.667 256 -44 322
c0 45.333 -3.5 87.5 -10.5 126.5s-17.167 84.167 -30.5 135.5c-12 -5.33301 -21.333 -8 -28 -8c-10 0 -17.833 4.33301 -23.5 13s-8.5 20.334 -8.5 35.001c0 3.33301 1.16699 7.66602 3.5 12.999s7.83301 8 16.5 8c24 0 50 1.66699 78 5c30.667 2.66699 53.334 4 68.001 4
c27.333 0 52.666 -3 75.999 -9c0.666992 0 2.66699 -0.333008 6 -1s6.5 -2.66699 9.5 -6s4.5 -8 4.5 -14c0 -4.66699 -2 -8.33398 -6 -11.001s-10.667 -6 -20 -10c-14.667 -5.33301 -25.667 -11.666 -33 -18.999c-2.66699 -0.666992 -4 -4 -4 -10z" />
    <glyph glyph-name="X" unicode="X" horiz-adv-x="740" 
d="M695.5 689.5c-11.667 -2.33301 -25.5039 -3.5 -41.5039 -3.5c-30 -35.333 -58.667 -80.166 -86 -134.499s-58.666 -122.5 -93.999 -204.5c-1.33301 -3.33301 -4 -9 -8 -17s-7 -15.667 -9 -23s-3 -14.333 -3 -21c0 -16.667 4.33301 -38.667 13 -66
c4.66699 -15.333 7 -26.333 7 -33c19.333 -38.667 43 -96.667 71 -174c18 -48.667 33.667 -88.667 47 -120s27.333 -59.333 42 -84c13.333 0 24.333 -1.16699 33 -3.5s17.334 -7.83301 26.001 -16.5c0 -10 -0.833008 -15.833 -2.5 -17.5s-7.5 -2.5 -17.5 -2.5
c-27.333 -9.33301 -53.666 -14 -78.999 -14s-52.333 4.66699 -81 14c-1.33301 1.33301 -3.5 3.83301 -6.5 7.5s-6 8.5 -9 14.5s-4.5 12 -4.5 18h81c-7.33301 20.667 -20.333 49 -39 85c-21.333 44.667 -35.333 76.334 -42 95.001l-10 32
c-10.667 35.333 -21.167 66.333 -31.5 93s-22.833 51 -37.5 73c-6 -22.667 -15.167 -46.667 -27.5 -72s-30.833 -60.333 -55.5 -105c-22.667 -40.667 -40 -73.167 -52 -97.5s-19.667 -45.5 -23 -63.5c0 -4.66699 2.16699 -8.5 6.5 -11.5s11.166 -6.5 20.499 -10.5
c14.667 -5.33301 25.334 -11.333 32.001 -18c0 -12.667 -2.16699 -24.5 -6.5 -35.5s-10.833 -16.5 -19.5 -16.5l-36 2c-14 2 -26.667 3 -38 3c-8.66699 0 -16.667 0.333008 -24 1s-14 1.33398 -20 2.00098c-24 2.66699 -42.667 4 -56 4h-39
c-6.66699 0 -13.334 -3.33301 -20.001 -10c-2.66699 -2 -5.5 -4 -8.5 -6s-6.83301 -3 -11.5 -3c-8.66699 0 -14.167 4.83301 -16.5 14.5s-3.5 17.834 -3.5 24.501c0 32.667 27.333 48 82 46c16.667 44 35.334 86.5 56.001 127.5s49 94.167 85 159.5l76 144
c8 8 14.333 20.333 19 37c8 20.667 15 35.334 21 44.001c-2 4 -5.83301 13 -11.5 27s-8.5 25 -8.5 33c-7.33301 14 -17.333 29 -30 45c-1.33301 2 -4.66602 6.33301 -9.99902 13s-9.33301 13.667 -12 21c-6.66699 16 -15 31.833 -25 47.5s-16 25.167 -18 28.5
c-20.667 31.333 -36 58.666 -46 81.999c-2.66699 4.66699 -5 11 -7 19c-3.33301 11.333 -6.5 19.666 -9.5 24.999s-7.5 8 -13.5 8h-40c-5.33301 5.33301 -12.666 10.666 -21.999 15.999c-6.66699 4.66699 -11.334 8.5 -14.001 11.5s-4 7.16699 -4 12.5
c30.667 14.667 90.667 21 180 19c8.66699 0 16.167 -4.16699 22.5 -12.5s9.5 -17.5 9.5 -27.5c-22 -0.666992 -33 -9.33398 -33 -26.001c0 -8.66699 2.33301 -18.5 7 -29.5s12 -26.167 22 -45.5c12.667 -22 20.334 -38.333 23.001 -49c4.66699 -16.667 11 -31.667 19 -45
s18.667 -29.666 32 -48.999c12.667 -17.333 22 -32 28 -44c0 6 3.33301 15.667 10 29s10 23.333 10 30c10.667 21.333 22.5 52.666 35.5 93.999s21.167 75.666 24.5 102.999c-23.333 4.66699 -35 16.667 -35 36c0 6 0.5 11.333 1.5 16s1.5 9 1.5 13
c5.33301 5.33301 14.333 8 27 8c4.66699 0 18 -1.66699 40 -5c13.333 -2.66699 21.666 -4 24.999 -4l80 -2l25 1c12 1.33301 21.333 2 28 2c14.667 0 26 -3 34 -9s12 -17 12 -33c0 -8.66699 -5.83301 -14.167 -17.5 -16.5z" />
    <glyph glyph-name="Y" unicode="Y" horiz-adv-x="607" 
d="M585 701.5c-2 -11 -7.00684 -16.5049 -15.0068 -16.5049h-59c-5.33301 -16.667 -18 -60 -38 -130c-13.333 -51.333 -25.5 -95.166 -36.5 -131.499s-24.167 -70.166 -39.5 -101.499c-9.33301 -9.33301 -15.666 -19.166 -18.999 -29.499s-5 -22.833 -5 -37.5l1 -34
c1.33301 -20 2 -37 2 -51c-3.33301 -6 -5 -15.667 -5 -29c0 -10.667 1.33301 -26.667 4 -48c0.666992 -5.33301 1.33398 -11.333 2.00098 -18s1 -13.334 1 -20.001c0 -11.333 -0.666992 -31 -2 -59c-1.33301 -29.333 -2 -52 -2 -68c0 -52.667 7.66699 -86.667 23 -102
c2.66699 0 8.16699 -0.166992 16.5 -0.5s16.333 -1.83301 24 -4.5s11.5 -6.66699 11.5 -12l4 -15.5c2 -7.66699 3 -14.834 3 -21.501c0 -11.333 -3.33301 -18 -10 -20c-21.333 -5.33301 -44.333 -8 -69 -8c-14.667 0 -34 1.33301 -58 4c-17.333 1.33301 -29.333 2 -36 2h-96
c-8.66699 8.66699 -13 18 -13 28s4.33301 19.667 13 29c5.33301 4.66699 11.333 7.33398 18 8.00098c4.66699 0.666992 11.667 1 21 1c10 0 17.833 0.5 23.5 1.5s10.5 3.83301 14.5 8.5l1 143c0 95.333 -6.33301 176.333 -19 243s-38.334 116.334 -77.001 149.001
c-9.33301 28 -24.666 65 -45.999 111l-11 23c-13.333 40 -23.166 73.333 -29.499 100s-9.5 56.667 -9.5 90c-16 0 -29.5 1 -40.5 3s-16.5 7 -16.5 15c-1.33301 18.667 3 31.834 13 39.501s24 11.5 42 11.5c11.333 0 26.333 -1.33301 45 -4c12 -2 22.667 -3 32 -3
c12.667 0 31.667 -0.666992 57 -2c20 -2 39.667 -3 59 -3c8.66699 -8.66699 14 -17.167 16 -25.5s3 -18.833 3 -31.5c-5.33301 0 -12.666 0.833008 -21.999 2.5s-17 2.5 -23 2.5c-12.667 0 -22.334 -3.33301 -29.001 -10c3.33301 -11.333 5.33301 -25.166 6 -41.499
s1.33398 -27.833 2.00098 -34.5c0.666992 -8.66699 2.66699 -22.667 6 -42c0.666992 -4 1.33398 -8.5 2.00098 -13.5s1 -10.5 1 -16.5c10 -38.667 23.667 -75.5 41 -110.5s35.333 -61.833 54 -80.5c12 6 21.167 14.5 27.5 25.5s13.833 27.5 22.5 49.5
c6 17.333 12.333 33.333 19 48c14 29.333 25.167 62.666 33.5 99.999s12.833 71.333 13.5 102c0 6 -2.16699 10.5 -6.5 13.5s-12.166 6.5 -23.499 10.5c-12 4 -21.833 8.33301 -29.5 13s-13.5 11.334 -17.5 20.001c0 16 21.333 24 64 24c20 0 40 -1 60 -3
c22.667 -1.33301 38.334 -2 47.001 -2c5.33301 0 12 1.66699 20 5c8 2.66699 14.333 4 19 4c6.66699 0 12.667 -3 18 -9c0 -16 -1 -29.5 -3 -40.5z" />
    <glyph glyph-name="Z" unicode="Z" horiz-adv-x="513" 
d="M219 -163c12 0 29.998 -0.668945 53.998 -2.00195c22.667 -1.33301 38.667 -2 48 -2s16 0.333008 20 1c14.667 1.33301 23.334 2 26.001 2c10.667 0.666992 18 2 22 4s9 7.66699 15 17c3.33301 4.66699 5.5 11.834 6.5 21.501s1.66699 17.667 2 24s0.5 10.833 0.5 13.5
c0.666992 19.333 1.66699 33.833 3 43.5s4.66602 16.834 9.99902 21.501c8.66699 0 20 -2.83301 34 -8.5l28 -11.5c0 -48 -1 -85.833 -3 -113.5s-6.33301 -54.167 -13 -79.5c-7.33301 -6.66699 -15.166 -11.167 -23.499 -13.5s-18.5 -3.5 -30.5 -3.5l-35 1l-81 1h-187h-83
v42v42c17.333 34 31.833 68.5 43.5 103.5s24.834 79.833 39.501 134.5c13.333 51.333 26 95.166 38 131.499s26.667 71.833 44 106.5c8 34 21.667 77.333 41 130c11.333 30 20.166 54.667 26.499 74s11.833 40.666 16.5 63.999c11.333 12 21 27.5 29 46.5s12 38.5 12 58.5
c-48 0 -91.167 -1.33301 -129.5 -4s-70.833 -8.66699 -97.5 -18c0 -3.33301 0.333008 -7 1 -11s1.33398 -8.66699 2.00098 -14c4 -18.667 6 -34.334 6 -47.001c0 -14.667 -3 -24.667 -9 -30c-8 -2 -14.667 -3 -20 -3c-15.333 0 -25 6.16699 -29 18.5s-6 31.5 -6 57.5
c0 30.667 -2.66699 54 -8 70c0 6 -1.5 13 -4.5 21s-4.5 13 -4.5 15c0 4 3 6 9 6h146h83h143c32.667 0 50 -7.66699 52 -23c1.33301 -9.33301 2 -16 2 -20c0 -17.333 -2.83301 -34.666 -8.5 -51.999s-13.834 -37.666 -24.501 -60.999l-9.5 -21.5
c-3.66699 -8.33301 -7.5 -18.166 -11.5 -29.499c-12.667 -26 -26.667 -67 -42 -123c-9.33301 -34 -17.666 -61.5 -24.999 -82.5s-16.333 -41.5 -27 -61.5c-14 -46.667 -35.333 -103.667 -64 -171c-24 -58 -41.5 -105.667 -52.5 -143s-16.167 -78 -15.5 -122h41z" />
    <glyph glyph-name="bracketleft" unicode="[" horiz-adv-x="292" 
d="M277 709c0 -6.66699 -1.33496 -12.9971 -4.00195 -18.9971s-4.66699 -9.66699 -6 -11c-18.667 0 -39.667 -1.66699 -63 -5c-6 -0.666992 -15.667 -1.66699 -29 -3s-25 -2 -35 -2c-9.33301 -9.33301 -14 -25 -14 -47c0 -8 0.333008 -15 1 -21s1 -11.333 1 -16
c0 -13.333 -1.33301 -37.333 -4 -72s-4 -58.667 -4 -72v-125v-64c-3.33301 -13.333 -5.66602 -29.333 -6.99902 -48v-17c0 -16 1.33301 -40.667 4 -74s4 -58 4 -74c0 -24 -2.33301 -45.333 -7 -64c0 -7.33301 0.333008 -14.333 1 -21s1.33398 -12.667 2.00098 -18
c2 -14 3 -26.333 3 -37v-62c8 -4 19.667 -7.33301 35 -10c8 -0.666992 20.667 -1 38 -1s31.5 -0.5 42.5 -1.5s21.167 -3.83301 30.5 -8.5c3.33301 -6.66699 5 -13.667 5 -21c0 -12.667 -5.33301 -22.834 -16 -30.501s-21 -11.5 -31 -11.5h-42c-6 6 -11.333 9 -16 9
c-2 0 -5.5 -1.5 -10.5 -4.5s-10.167 -4.5 -15.5 -4.5h-96c-8 0 -13.333 2.66699 -16 8s-4 9.66602 -4 12.999c-6 18 -9 39 -9 63c0 13.333 1.33301 34 4 62c3.33301 23.333 5 44.333 5 63c0 7.33301 0.666992 19 2 35l1 35l-1 121c-1.33301 53.333 -2 93.666 -2 120.999v83
v84v41v21v146c0 4 -0.666992 10.667 -2 20c-1.33301 12 -2 22.333 -2 31c0 11.333 1.33301 22 4 32c2.66699 8 5.33398 12.833 8.00098 14.5s7.66699 3 15 4l18 2.5c8 1.33301 15.167 0.333008 21.5 -3s12.833 -5 19.5 -5c16 0 34 1.66699 54 5c21.333 2.66699 37 4 47 4
c25.333 0 45.666 -7.66699 60.999 -23c6 -6.66699 9 -14 9 -22z" />
    <glyph glyph-name="backslash" unicode="\" horiz-adv-x="480" 
d="M414 -250c-2 4.66699 -7.33496 14.668 -16.002 30.001s-15 28 -19 38s-6 22 -6 36c-14.667 14 -27.167 30.333 -37.5 49s-20.833 40.667 -31.5 66l-14 30c-9.33301 29.333 -26.666 72.666 -51.999 129.999c-21.333 48.667 -37.833 89.5 -49.5 122.5
s-19.5 66.5 -23.5 100.5c-8 12 -14.5 23.667 -19.5 35s-11.167 27.666 -18.5 48.999c-9.33301 26.667 -17.333 47 -24 61c0 11.333 -3.5 25.833 -10.5 43.5s-13.833 29.834 -20.5 36.501c-4 4 -8 10 -12 18c-7.33301 12.667 -14 22 -20 28
c-6.66699 6.66699 -12.5 16.334 -17.5 29.001s-7.5 25.667 -7.5 39c0 17.333 4 32.333 12 45c4.66699 8 9.66699 12 15 12l20 -1c20 0 34.5 -9.33301 43.5 -28s17.167 -46 24.5 -82l6.5 -26.5c3 -12.333 5.83301 -22.5 8.5 -30.5c4 -8 9.33301 -20.667 16 -38
c4.66699 -11.333 8.5 -20.166 11.5 -26.499s7.5 -12.5 13.5 -18.5c0 -7.33301 2.66699 -17.5 8 -30.5s13.333 -31.167 24 -54.5l9 -19l8 -21c12.667 -36 24.334 -66.5 35.001 -91.5s24 -49.833 40 -74.5c10.667 -42.667 22.334 -81.167 35.001 -115.5s29 -71.833 49 -112.5
c0 -18.667 3.66699 -37.834 11 -57.501s17.666 -41.834 30.999 -66.501c19.333 -22 29 -44.667 29 -68c0 -12 -3 -24 -9 -36h-42z" />
    <glyph glyph-name="bracketright" unicode="]" horiz-adv-x="324" 
d="M211 -243c-9.33301 0 -23.3311 0.666992 -41.998 2c-16 1.33301 -27.333 2 -34 2c-4.66699 0 -13 -0.666992 -25 -2c-10.667 -1.33301 -19.334 -2 -26.001 -2c-15.333 0 -27.333 4 -36 12c-1.33301 0 -3.5 0.333008 -6.5 1s-6 2.66699 -9 6s-4.5 8.33301 -4.5 15
c0 8.66699 3.33301 14.167 10 16.5s17 3.5 31 3.5c11.333 6 24.666 9 39.999 9c12 0 25.667 -1.66699 41 -5c18.667 -2.66699 32.334 -4 41.001 -4v204c-0.666992 4 -1.33398 11.5 -2.00098 22.5s-1 22.167 -1 33.5l1 89c1.33301 49.333 2 89.666 2 120.999
c0 4 1.5 11 4.5 21s4.5 18.333 4.5 25c0 11.333 -3 23 -9 35v82v41v20v102v82l-56 -1h-11c-72.667 0 -109 8.66699 -109 26c0 6 4 13 12 21c5.33301 5.33301 14 9.33301 26 12h10c4.66699 0 13 -0.666992 25 -2s21.333 -2 28 -2c12.667 0 24 2.33301 34 7
c23.333 0 40 -0.333008 50 -1l51 -1c9.33301 0 18.833 -7 28.5 -21s14.5 -26.667 14.5 -38c10 -61.333 15 -119 15 -173s-5 -112 -15 -174v-183c0 -14.667 0.666992 -35.334 2 -62.001l1 -59c0 -15.333 -0.666992 -33.666 -2 -54.999l-1 -50c0 -15.333 1 -31.333 3 -48
c1.33301 -21.333 2 -37 2 -47c0 -18 -1.83301 -32.667 -5.5 -44s-10.5 -19.666 -20.5 -24.999c-16 -8 -36.667 -12 -62 -12z" />
    <glyph glyph-name="asciicircum" unicode="^" horiz-adv-x="413" 
d="M263 617c-30 31.333 -51.6689 47 -65.002 47c-6 0 -12 -2.5 -18 -7.5s-12.333 -11 -19 -18s-12 -12.833 -16 -17.5c-5.33301 -10 -16.666 -27.333 -33.999 -52l-15.5 -21.5c-8.33301 -11.667 -15.166 -22.834 -20.499 -33.501h-2c-6 -2.66699 -12.667 -4 -20 -4
c-9.33301 0 -17.166 2.16699 -23.499 6.5s-8.83301 9.16602 -7.5 14.499c2 4 3.66699 6.33301 5 7c10.667 16.667 29.667 43.667 57 81c32 42.667 53.667 74.667 65 96c0 8.66699 6.5 16.834 19.5 24.501s24.5 11.5 34.5 11.5c9.33301 0 20.666 -6.66699 33.999 -20
s20 -24.333 20 -33c10.667 -12 24 -28 40 -48c27.333 -35.333 51 -61.666 71 -78.999c6.66699 -6 14.334 -15.667 23.001 -29c0 -7.33301 -3.33301 -14.833 -10 -22.5s-13.667 -11.5 -21 -11.5c-6.66699 0 -12.334 3.33301 -17.001 10c-23.333 34.667 -50 67.667 -80 99z
" />
    <glyph glyph-name="underscore" unicode="_" horiz-adv-x="523" 
d="M341 -296l-16.0029 0.00195312c-24.667 0 -59.667 -2 -105 -6c-8 -0.666992 -21.667 -1.66699 -41 -3s-36 -2 -50 -2c-24.667 0 -45 1.66699 -61 5c-10 9.33301 -16.333 18.166 -19 26.499s-4 19.166 -4 32.499h167c32 8 63.167 13.167 93.5 15.5s63.5 3.5 99.5 3.5
c4 -3.33301 9.33301 -6.33301 16 -9s11.334 -4.66699 14.001 -6c14 -5.33301 24.667 -10.833 32 -16.5s11 -14.167 11 -25.5c0 -4.66699 -2.16699 -7.66699 -6.5 -9s-11.166 -2 -20.499 -2c-10.667 0 -18.667 -0.333008 -24 -1
c-9.33301 -2.66699 -16.666 -5.66699 -21.999 -9c-14.667 2.66699 -36 4.66699 -64 6z" />
    <glyph glyph-name="grave" unicode="`" horiz-adv-x="191" 
d="M49 943c6.66699 0 12.3311 -2.33496 16.998 -7.00195c2 2 3.66699 3 5 3c2.66699 0 5.33398 -3 8.00098 -9s4.66699 -10 6 -12c24 -14 42.167 -28.167 54.5 -42.5s21.166 -31.5 26.499 -51.5c-0.666992 -11.333 -2 -19.666 -4 -24.999s-7 -12.333 -15 -21
c-11.333 2.66699 -20.5 7.83398 -27.5 15.501s-15.5 19.167 -25.5 34.5c-7.33301 12.667 -14.666 23.167 -21.999 31.5s-16 15.5 -26 21.5c-7.33301 7.33301 -12.666 13.833 -15.999 19.5s-5 11.167 -5 16.5c0 7.33301 3.33301 14.333 10 21c3.33301 3.33301 8 5 14 5z" />
    <glyph glyph-name="a" unicode="a" 
d="M403.5 54c-2.33301 59.333 -8.50195 112.339 -18.502 159.006c-13.333 0 -35 3 -65 9c-42.667 8 -76.334 12 -101.001 12c-10 -9.33301 -16.167 -22.333 -18.5 -39s-3.5 -39.667 -3.5 -69c-10 -37.333 -16.333 -78 -19 -122s-4 -101.667 -4 -173
c6 -4.66699 11.667 -7.66699 17 -9c4 -0.666992 9.66699 -1 17 -1c6.66699 0 12.334 -0.5 17.001 -1.5s9 -3.5 13 -7.5c0 -10.667 -0.333008 -19.834 -1 -27.501s-1.33398 -12.5 -2.00098 -14.5c-17.333 -12 -35 -18.333 -53 -19c-3.33301 -0.666992 -8.66602 -1 -15.999 -1
c-12.667 0 -25 1 -37 3c-16 1.33301 -28 2 -36 2c-15.333 0 -29.666 -2.33301 -42.999 -7l-44 42c24.667 27.333 45.667 41 63 41c10 0 16.167 3.5 18.5 10.5s3.5 17.833 3.5 32.5c8 52.667 19.667 139.334 35 260.001c12.667 101.333 21.667 169.666 27 204.999
c0 29.333 4.16699 58.666 12.5 87.999s18.833 56 31.5 80c10 38.667 23.333 74 40 106s38 67 64 105c1.33301 1.33301 4.83301 4.33301 10.5 9s12.834 9.16699 21.501 13.5s17.667 6.5 27 6.5s17.666 -2.33301 24.999 -7c14 -6.66699 27.833 -19 41.5 -37
s24.834 -37.333 33.501 -58s13 -38.334 13 -53.001c16 -32.667 26.667 -70.334 32 -113.001c5.33301 -46.667 14.666 -146.334 27.999 -299.001c6.66699 -84.667 13.667 -165.334 21 -242.001v-128c0 -3.33301 1.33301 -7.16602 4 -11.499
s4.33398 -7.16602 5.00098 -8.49902c7.33301 -8.66699 11 -16 11 -22c0 -8 -6.66699 -15 -20 -21l-26 6c-20 0 -40 -1 -60 -3c-6.66699 -0.666992 -16 -1.33398 -28 -2.00098s-23 -1 -33 -1c-4 -0.666992 -10 -1.5 -18 -2.5s-14.333 -1.5 -19 -1.5c-12.667 0 -19 4 -19 12
c0 7.33301 3.16699 17.166 9.5 29.499s14 23.333 23 33s16.833 14.5 23.5 14.5c0 88.667 -1.16699 162.667 -3.5 222zM268.498 512.006c-11 -36.667 -21.166 -73.332 -30.499 -109.999c0 -8 -3 -24 -9 -48c-6.66699 -29.333 -10 -49 -10 -59
c27.333 -8 54.166 -13.167 80.499 -15.5s54.833 -3.5 85.5 -3.5v126c0 30 -3.83301 64.833 -11.5 104.5s-17.167 75.5 -28.5 107.5c0 3.33301 -1.33301 7.66602 -4 12.999s-8.66699 8 -18 8l-22 -21c-10.667 -31.333 -21.5 -65.333 -32.5 -102z" />
    <glyph glyph-name="b" unicode="b" horiz-adv-x="529" 
d="M353 384.5c4 -3 12.002 -7.16797 24.002 -12.501c8 -2.66699 18.333 -7.33398 31 -14.001c22.667 -22.667 41.834 -53.667 57.501 -93s23.5 -83 23.5 -131c2.66699 -16.667 4 -36 4 -58c0 -64 -13.5 -125 -40.5 -183s-62.167 -100.333 -105.5 -127
c-18.667 -9.33301 -37.834 -15 -57.501 -17s-48.167 -3 -85.5 -3c-14 0 -34.333 3.33301 -61 10c-28 6.66699 -48.667 10 -62 10c-16.667 0 -28.834 0.666992 -36.501 2s-13.667 4.83301 -18 10.5s-6.5 15.167 -6.5 28.5v21h61c4 16.667 7.33301 43.334 10 80.001
c0.666992 18.667 1 47.334 1 86.001c0 39.333 0.5 72.5 1.5 99.5s3.83301 54.167 8.5 81.5v40v102v205v163c-27.333 0 -47.833 2.33301 -61.5 7s-20.5 16 -20.5 34c8.66699 8.66699 21 14.167 37 16.5s37.667 3.5 65 3.5c68 0 121.333 -2.33301 160 -7s67 -16 85 -34
c2.66699 -5.33301 5.16699 -10 7.5 -14s4.16602 -7.66699 5.49902 -11c10 -17.333 17.167 -32.666 21.5 -45.999s6.5 -30.333 6.5 -51c3.33301 -9.33301 5 -21 5 -35c0 -25.333 -6.5 -51.833 -19.5 -79.5s-28.5 -50.834 -46.5 -69.501c0 -6.66699 2 -11.5 6 -14.5z
M207.002 654.999c-2 -10.667 -2.99902 -27.999 -2.99902 -51.999c0 -37.333 1 -65.833 3 -85.5s7.66699 -38.834 17 -57.501c3.33301 -3.33301 7 -5 11 -5c5.33301 0 10.666 2.5 15.999 7.5s11.666 12.167 18.999 21.5l15 17c9.33301 26.667 16.5 49.834 21.5 69.501
s7.5 37.5 7.5 53.5s-2.66699 29.333 -8 40c-9.33301 9.33301 -21.166 15.166 -35.499 17.499s-29.833 3.5 -46.5 3.5c-9.33301 -9.33301 -15 -19.333 -17 -30zM347.003 -111c8.66699 8.66699 14.166 20.166 16.499 34.499s3.5 29.833 3.5 46.5
c10 10.667 15.833 17.667 17.5 21s2.5 10 2.5 20c6 12 9 29.333 9 52c0 9.33301 -1.66699 31.333 -5 66c-2.66699 24 -4 39.333 -4 46l1 34c0 8 -1 15.667 -3 23s-6 17 -12 29l0.5 1.5c0.333008 1 0.5 2.16699 0.5 3.5l-2 15c-0.666992 2 -2.5 6.33301 -5.5 13l-10.5 24
c-20 20 -41.667 35.167 -65 45.5s-45.666 15.5 -66.999 15.5c-8.66699 -9.33301 -14.167 -21.166 -16.5 -35.499s-3.5 -29.833 -3.5 -46.5v-327v-142c26.667 0 48 1.16699 64 3.5s28.667 7.83301 38 16.5z" />
    <glyph glyph-name="c" unicode="c" horiz-adv-x="555" 
d="M498.5 676.5c2.33301 -3 4.83105 -5.83301 7.49805 -8.5c7.33301 -6 11 -12.667 11 -20c0 -31.333 -1.33301 -56.5 -4 -75.5s-8.66699 -28.5 -18 -28.5c-11.333 0 -18.666 4.66699 -21.999 14s-6 24 -8 44c-1.33301 24.667 -5 40 -11 46c-30.667 10 -61 15 -91 15
c-29.333 0 -54.333 -5 -75 -15c-8.66699 -8.66699 -19.334 -26.334 -32.001 -53.001c-12 -25.333 -22.333 -42.333 -31 -51c0 -3.33301 -1.33301 -9 -4 -17s-8 -16.333 -16 -25c-10 -38 -16.167 -73.5 -18.5 -106.5s-3.5 -80.833 -3.5 -143.5v-124
c30.667 -174 79.334 -278.333 146.001 -313c10.667 -5.33301 22.667 -8 36 -8s27 2.5 41 7.5s30 12.5 48 22.5c5.33301 10 8.33301 21.333 9 34c0.666992 8 1 21 1 39c0 17.333 0.5 31.5 1.5 42.5s3.83301 21.167 8.5 30.5c11.333 0 20 -1.16699 26 -3.5
s12 -5.83301 18 -10.5c0.666992 -0.666992 2.83398 -2.16699 6.50098 -4.5s7.83398 -3.5 12.501 -3.5v-146c-18.667 -44.667 -66 -67 -142 -67c-28.667 0 -57.5 2.33301 -86.5 7s-63.5 11.334 -103.5 20.001c-16.667 15.333 -29.334 26.333 -38.001 33
c-19.333 15.333 -35.5 29.5 -48.5 42.5s-25.833 29.5 -38.5 49.5c-6.66699 31.333 -13.667 60.666 -21 87.999c-14 56.667 -24.5 104.834 -31.5 144.501s-10.5 79.5 -10.5 119.5c4 21.333 9.33301 53.333 16 96c8 49.333 15.333 90.166 22 122.499s15 63.5 25 93.5
c5.33301 6 11.333 15.667 18 29c4.66699 14 12 25.333 22 34c24 34 56.167 63.167 96.5 87.5s84.5 36.5 132.5 36.5c17.333 -5.33301 32 -9.33301 44 -12c26 -7.33301 46 -14.166 60 -20.499s28 -16.5 42 -30.5c0 -4.66699 1.16699 -8.5 3.5 -11.5z" />
    <glyph glyph-name="d" unicode="d" horiz-adv-x="617" 
d="M108 -187c8 0 15.334 3.32812 22.001 9.99512s13.667 10 21 10v235c0 34.667 -1.83301 68.334 -5.5 101.001l-6.5 58c-6 43.333 -9 75.333 -9 96c0 56.667 -1.16699 102.667 -3.5 138s-8.5 67 -18.5 95v86c-8.66699 0 -21 -2.66699 -37 -8c-13.333 -4 -22.333 -6 -27 -6
c-13.333 0 -20 12 -20 36c0 5.33301 1.5 9.5 4.5 12.5s7.83301 6.83301 14.5 11.5c10.667 6 18.667 11.667 24 17l21 22c18.667 9.33301 37.5 15.166 56.5 17.499s42.833 3.5 71.5 3.5c10 0 21.667 0.666992 35 2l28 1c13.333 0 28.333 -1.33301 45 -4
c1.33301 0.666992 3.83301 1.5 7.5 2.5s7.5 0.5 11.5 -1.5c7.33301 -6.66699 21.666 -17.334 42.999 -32.001c4 -3.33301 10.667 -8.16602 20 -14.499s16.666 -12.166 21.999 -17.499c19.333 -8.66699 35 -21.667 47 -39s24.667 -39.666 38 -66.999
c18 -36.667 31.833 -68.667 41.5 -96s16.834 -59.666 21.501 -96.999l3 -25c0.666992 -4.66699 2.33398 -18.334 5.00098 -41.001s4 -44.667 4 -66c0 -35.333 -4 -68.666 -12 -99.999c0 -39.333 -7.33301 -77.5 -22 -114.5s-31.167 -69.5 -49.5 -97.5
s-43.833 -64 -76.5 -108c-7.33301 -3.33301 -18.333 -9.66602 -33 -18.999c-24 -14 -46 -24.833 -66 -32.5s-44 -11.5 -72 -11.5h-41c-18.667 -9.33301 -40.334 -15.166 -65.001 -17.499s-52.667 -3.5 -84 -3.5c-13.333 13.333 -23.833 25 -31.5 35s-11.5 19.667 -11.5 29
h84zM243.001 623.995l0.999023 -46c0 -33.333 1 -63 3 -89c1.33301 -28 2 -48 2 -60c0 -12.667 1.33301 -33.667 4 -63c2.66699 -33.333 4 -62 4 -86v-212c0 -13.333 1.66699 -26.833 5 -40.5l6 -24.5c7.33301 -26 11 -46.667 11 -62c0 -12.667 -2 -26.334 -6 -41.001
c-2.66699 -12 -4 -19.667 -4 -23c0 -8 3.33301 -15.333 10 -22c6.66699 0 17.334 3.33301 32.001 10c13.333 7.33301 24 11 32 11c0 6.66699 1.66699 11.667 5 15s6.66602 5.33301 9.99902 6s5.66602 1 6.99902 1c8.66699 0 14.167 2.66699 16.5 8s3.5 9.66602 3.5 12.999
c19.333 28 31.333 59.833 36 95.5s7 81.834 7 138.501c0 8 1.33301 22.667 4 44c3.33301 33.333 5 54.333 5 63c0 24 -3 45 -9 63v64c-2.66699 14 -7 39.333 -13 76c-8.66699 52.667 -17.5 93.834 -26.5 123.501s-24.167 55.5 -45.5 77.5
c-9.33301 9.33301 -19.666 15 -30.999 17s-29.666 3 -54.999 3c-9.33301 -9.33301 -14 -29.333 -14 -60z" />
    <glyph glyph-name="e" unicode="e" horiz-adv-x="520" 
d="M441 606c-0.666992 4.66699 -1 11.9951 -1 21.9951c0 10.667 -0.666992 19 -2 25s-4.33301 11 -9 15c-13.333 7.33301 -27 14.333 -41 21c-30.667 0 -57.5 -1.16699 -80.5 -3.5s-43.5 -8.16602 -61.5 -17.499c-7.33301 -6.66699 -12.166 -15.167 -14.499 -25.5
s-3.5 -24.5 -3.5 -42.5c0 -31.333 -0.666992 -63.666 -2 -96.999l-1 -58c0 -10 1.66699 -30 5 -60c2.66699 -20 4 -34 4 -42c0 -16 -3 -30 -9 -42c9.33301 -8 24.5 -13.167 45.5 -15.5s46.5 -3.5 76.5 -3.5c0 16.667 1.16699 30.834 3.5 42.501s8.16602 17.5 17.499 17.5
c10 0 16.667 -0.833008 20 -2.5s10.333 -7.5 21 -17.5c-3.33301 -6.66699 -5 -14 -5 -22c-0.666992 -3.33301 -1 -9 -1 -17c0 -14 1 -28.667 3 -44c1.33301 -18.667 2 -32 2 -40c0 -13.333 -1.5 -23.5 -4.5 -30.5s-8.16699 -10.5 -15.5 -10.5c-2 1.33301 -6.33301 4 -13 8
s-13 9 -19 15s-9 12 -9 18v21h-101c-7.33301 -21.333 -11 -49.666 -11 -84.999c0 -22.667 1 -45 3 -67c1.33301 -26.667 2 -45 2 -55c0 -2.66699 1 -39 3 -109c2 -29.333 3 -53.333 3 -72c27.333 -9.33301 51.833 -15 73.5 -17s51.5 -3 89.5 -3c10 4.66699 16 11.667 18 21
c2 6 3 15.667 3 29c0 14 1.16699 24.833 3.5 32.5s7.83301 13.834 16.5 18.501c18 0 29.333 -9.16699 34 -27.5s7 -42.833 7 -73.5c0 -9.33301 -3.16699 -18.166 -9.5 -26.499s-16.833 -20.166 -31.5 -35.499h-103c-68 0 -125.833 1.16699 -173.5 3.5
s-98.5 8.16602 -152.5 17.499v41h82c6 35.333 9 74 9 116c0 23.333 -1.33301 59.666 -4 108.999c-3.33301 43.333 -5 83.666 -5 120.999v41v205v81v183h-82v41c28 7.33301 70 14.333 126 21c53.333 6.66699 93 13.334 119 20.001h204
c1.33301 -1.33301 3.66602 -3.83301 6.99902 -7.5s6.5 -8.66699 9.5 -15s4.5 -12.5 4.5 -18.5c0 -8 1.66699 -19.333 5 -34c3.33301 -23.333 5 -37.333 5 -42c0 -14.667 -3.66699 -26 -11 -34s-20.666 -12 -39.999 -12c-3.33301 4.66699 -6.33301 11 -9 19z" />
    <glyph glyph-name="f" unicode="f" horiz-adv-x="587" 
d="M554.5 550.5c-7 -2.33301 -17.165 -3.50098 -30.498 -3.50098c-9.33301 18 -15 36.833 -17 56.5s-3 48.167 -3 85.5c-54.667 0 -99 -1.16699 -133 -3.5s-64.667 -8.16602 -92 -17.499c-5.33301 -11.333 -8 -30.666 -8 -57.999c0 -14.667 1.33301 -40.667 4 -78
c2.66699 -40 4 -69.333 4 -88c0 -4 -0.333008 -7.83301 -1 -11.5l-2 -10.5c-3.33301 -12 -5 -23.333 -5 -34s2.66699 -19 8 -25h62v81c24.667 1.33301 41.5 -7 50.5 -25s13.5 -42.667 13.5 -74c0 -12 -0.666992 -28 -2 -48l-1 -36c-10 -10 -17.5 -15.833 -22.5 -17.5
s-17.833 -2.5 -38.5 -2.5v40c-8.66699 9.33301 -17.667 15.166 -27 17.499s-21 3.5 -35 3.5c-8.66699 -9.33301 -14.834 -19 -18.501 -29s-5.5 -21.333 -5.5 -34c0 -6.66699 0.666992 -18 2 -34c2 -14 3 -29.333 3 -46c-8.66699 -17.333 -14.167 -37.666 -16.5 -60.999
s-3.5 -50.666 -3.5 -81.999v-61c0 -26.667 1.16699 -49.167 3.5 -67.5s7.83301 -36.5 16.5 -54.5c7.33301 0 16.833 -5.5 28.5 -16.5s17.5 -20.833 17.5 -29.5c0 -10 -9 -15 -27 -15c0 -6 -2 -9 -6 -9c-2 0 -6.83301 1.5 -14.5 4.5s-13.834 4.5 -18.501 4.5
c-5.33301 0 -11 -1.16699 -17 -3.5s-10 -3.83301 -12 -4.5c-1.33301 -0.666992 -7.16602 -2.83398 -17.499 -6.50098s-22.5 -5.5 -36.5 -5.5c-6.66699 0 -20 3.33301 -40 10c-21.333 6.66699 -35 10 -41 10c-8.66699 0 -14.167 3.5 -16.5 10.5s-3.5 17.167 -3.5 30.5
c6 6 12 10.5 18 13.5s10.833 4.83301 14.5 5.5s6.16699 1 7.5 1c11.333 6 18.666 15.5 21.999 28.5s6 32.833 8 59.5c1.33301 32.667 5 58 11 76v162c0 6.66699 1.66699 19 5 37c2.66699 13.333 4 23 4 29c0 12 -3 24 -9 36c0 6.66699 2.33301 15.667 7 27
c8.66699 20 13 38 13 54c0 20.667 -3.33301 55 -10 103s-10 82 -10 102c0 8.66699 1.33301 23 4 43c3.33301 20 5 37.667 5 53c0 18.667 -3 34 -9 46c-6 0 -20 -1.66699 -42 -5c-16 -2.66699 -27 -4 -33 -4c-12 0 -21 3 -27 9c-10 10 -15 20 -15 30c0 10.667 5 21 15 31h408
h81c16.667 0 28.167 -8.33301 34.5 -25s9.5 -39.334 9.5 -68.001c0 -12.667 -0.666992 -29.667 -2 -51l-1 -39c0 -8.66699 -3.5 -14.167 -10.5 -16.5z" />
    <glyph glyph-name="g" unicode="g" horiz-adv-x="545" 
d="M444.5 566c-3.66699 13.333 -6.16895 31.0029 -7.50195 53.0029c-2.66699 29.333 -6.33398 49.333 -11.001 60c-48 0 -89.5 -3.5 -124.5 -10.5s-61.5 -23.5 -79.5 -49.5c-2 -4.66699 -8.33301 -17.5 -19 -38.5s-19.167 -42.5 -25.5 -64.5s-9.5 -43 -9.5 -63
c0 -34 -1.33301 -84.333 -4 -151c-0.666992 -16.667 -1.33398 -37.5 -2.00098 -62.5s-1 -54.167 -1 -87.5c0 -24.667 -1.66699 -52 -5 -82c-2.66699 -36 -4 -63 -4 -81c0 -30.667 3 -57.667 9 -81c5.33301 -20.667 14.5 -36.834 27.5 -48.501s27.667 -20.334 44 -26.001
s38.833 -11.5 67.5 -17.5c22 -4.66699 36.667 -8 44 -10c30.667 4.66699 53 17.167 67 37.5s22.667 44.166 26 71.499s5 63.666 5 108.999c0 30 1 59 3 87c-5.33301 6 -11.666 9 -18.999 9c-4.66699 0 -9.16699 -1.16699 -13.5 -3.5s-6.83301 -4.16602 -7.5 -5.49902
c-6 -12 -9.66699 -30 -11 -54c-2 -19.333 -4.66699 -34.166 -8 -44.499s-10.666 -18.166 -21.999 -23.499c-5.33301 0 -9.5 1.33301 -12.5 4s-6.83301 7.33398 -11.5 14.001c-5.33301 9.33301 -10.666 16.666 -15.999 21.999c0 30.667 1.16699 57.667 3.5 81
s7.83301 43.666 16.5 60.999c7.33301 0 15.833 0.5 25.5 1.5s16.834 1.5 21.501 1.5c14.667 2 29.334 3 44.001 3c31.333 0 55.333 -8.33301 72 -25c6 -6 9 -13 9 -21c0 -4 -1.33301 -10.667 -4 -20c-3.33301 -8 -5 -15 -5 -21c0 -25.333 1 -50.666 3 -75.999
c1.33301 -32 2 -55 2 -69c0 -54 -8.66699 -93.333 -26 -118c0 -6 -2.83301 -12 -8.5 -18s-14.167 -13.333 -25.5 -22c-8.66699 -6 -17.334 -13.333 -26.001 -22c-22.667 -10.667 -52.667 -16 -90 -16c-36 0 -67 5.33301 -93 16c-32.667 13.333 -58.167 26.166 -76.5 38.499
s-34.5 27 -48.5 44s-33.333 43.833 -58 80.5c-27.333 79.333 -41 154 -41 224v121c0 19.333 1.33301 38.666 4 57.999s7 46.333 13 81c0.666992 2.66699 2.66699 13 6 31s8.33301 35 15 51c4.66699 10.667 10.667 28.334 18 53.001c6 21.333 12 39 18 53s15 27 27 39
c7.33301 7.33301 14.333 17.666 21 30.999s13.334 23.333 20.001 30c6 0 12.167 1.5 18.5 4.5s11.333 6 15 9s6.16699 5.16699 7.5 6.5c18 9.33301 36 15.166 54 17.499s40.667 3.5 68 3.5c3.33301 0 6.66602 0.333008 9.99902 1s7 1.33398 11 2.00098c16 4 29.667 6 41 6
c14.667 0 28 -3 40 -9c10.667 0 23.334 -4.5 38.001 -13.5s22 -18.167 22 -27.5c6 -18 9 -37 9 -57c0 -22 -3 -43.167 -9 -63.5s-12.667 -34.5 -20 -42.5c-10.667 6 -17.834 15.667 -21.501 29z" />
    <glyph glyph-name="h" unicode="h" horiz-adv-x="618" 
d="M536.5 602.5c-2.33301 -25 -3.50391 -58.168 -3.50391 -99.501v-182v-163c0 -40.667 3.66699 -95.334 11 -164.001c6.66699 -74.667 10 -128.667 10 -162c5.33301 -5.33301 12.666 -10.666 21.999 -15.999c6.66699 -4.66699 11.5 -8.5 14.5 -11.5s4.5 -7.5 4.5 -13.5v-41
c0 0.666992 -1 2.33398 -3 5.00098s-4.33301 4 -7 4c-3.33301 0 -6.66602 -1.66699 -9.99902 -5c-8.66699 -2.66699 -15.667 -4.16699 -21 -4.5s-8.66602 -0.5 -9.99902 -0.5h-24c-7.33301 0.666992 -23.333 1 -48 1l-48 -1c-8 8 -12 14 -12 18
c0 3.33301 2.66699 7.5 8 12.5l12 11.5c0 4.66699 1.66699 8.5 5 11.5s8.33301 6.16699 15 9.5s11.667 6.33301 15 9s5 6.33398 5 11.001c6 46 9 102 9 168c0 51.333 -1.66699 109.333 -5 174c-2.66699 76 -4 131.667 -4 167c0 6 -1.5 10.667 -4.5 14
s-6.16699 5.33301 -9.5 6s-5.66602 1 -6.99902 1c-17.333 6 -39.333 9 -66 9c-21.333 0 -45.333 -1.66699 -72 -5c-30.667 -2.66699 -52.334 -4 -65.001 -4c-18.667 -18.667 -30.167 -37.834 -34.5 -57.501s-6.5 -48.5 -6.5 -86.5v-223v-62c4 -6.66699 7.33301 -16 10 -28
c0.666992 -5.33301 1 -13 1 -23s0.5 -18.667 1.5 -26s3.83301 -15.333 8.5 -24c7.33301 0 15.5 -4.16699 24.5 -12.5s13.5 -16.833 13.5 -25.5c0 -10 -6 -17.667 -18 -23c-13.333 0 -38.333 -1.66699 -75 -5c-25.333 -2.66699 -44.333 -4 -57 -4c-24 0 -47.667 3 -71 9
c-1.33301 2 -3.16602 6.66699 -5.49902 14s-3.5 14.666 -3.5 21.999c0 10.667 3 19 9 25h41v81v469v41v20v60v21c-3.33301 8 -6.33301 19.333 -9 34c-0.666992 8 -1 20.667 -1 38c0 16.667 -0.666992 30.5 -2 41.5s-4.33301 20.833 -9 29.5
c-1.33301 0 -3.83301 0.333008 -7.5 1s-8.66699 2.66699 -15 6s-12.5 8 -18.5 14c-1.33301 0.666992 -3.16602 3.16699 -5.49902 7.5s-3.5 8.83301 -3.5 13.5c0 7.33301 3 14 9 20h82c8.66699 0 23 1.33301 43 4c20 3.33301 37.667 5 53 5c18.667 0 34 -3 46 -9
c10.667 0 20.167 -4.33301 28.5 -13s12.5 -18 12.5 -28c0 -9.33301 -6 -15.166 -18 -17.499s-26.333 -3.5 -43 -3.5c-6 -6 -9 -13 -9 -21c0 -4 1.33301 -11.333 4 -22c3.33301 -18 5 -31 5 -39s-1.33301 -22.667 -4 -44c-3.33301 -18.667 -5 -36.334 -5 -53.001
c0 -18.667 3 -33.667 9 -45c41.333 -10 82 -15 122 -15c41.333 0 82 5 122 15c0 47.333 -1.16699 89.833 -3.5 127.5s-8.16602 69.834 -17.499 96.501c-2.66699 4 -8.33398 7.33301 -17.001 10c-4.66699 0.666992 -12.334 1 -23.001 1c-10 0 -18 0.5 -24 1.5
s-11.333 3.83301 -16 8.5v41c32 15.333 61.667 23 89 23c10.667 0 21.334 -1 32.001 -3c13.333 -1.33301 21.333 -2 24 -2c6.66699 0 13 0.333008 19 1s12.333 1 19 1c10 -4.66699 17.667 -11.5 23 -20.5s8 -18.167 8 -27.5s-2.66699 -17.333 -8 -24s-13 -10 -23 -10
c-9.33301 -18 -15.166 -39.5 -17.499 -64.5z" />
    <glyph glyph-name="i" unicode="i" horiz-adv-x="280" 
d="M202 617c0 -18 1.66797 -37.9971 5.00098 -59.9971c0.666992 -4.66699 1.66699 -14.167 3 -28.5s1.66602 -27.166 0.999023 -38.499c-1.33301 -40.667 -4 -105.667 -8 -195c-3.33301 -76 -6.33301 -155 -9 -237s-4 -157.333 -4 -226
c6.66699 -6.66699 17.334 -13.667 32.001 -21c13.333 -6.66699 23 -13 29 -19c0 -6 -1.33301 -10.5 -4 -13.5s-7.33398 -6.83301 -14.001 -11.5c-8 -4.66699 -15.333 -10.334 -22 -17.001c-7.33301 3.33301 -20 6.33301 -38 9c-9.33301 0.666992 -25 1 -47 1
c-22.667 0 -41.5 0.666992 -56.5 2s-29.5 4.33301 -43.5 9c-1.33301 0.666992 -3.16602 3 -5.49902 7s-3.5 8.66699 -3.5 14c0 7.33301 3 13.666 9 18.999c0 4.66699 1 7.5 3 8.5s5.33301 1.5 10 1.5c6 0 10.333 0.333008 13 1c6.66699 2.66699 11.334 6 14.001 10
c6 6 9 14.667 9 26c0 5.33301 -0.666992 11.5 -2 18.5s-2.33301 11.833 -3 14.5c-2.66699 12 -4 19.667 -4 23c0 20.667 0.666992 51 2 91l1 88c-0.666992 3.33301 -1.33398 9.5 -2.00098 18.5s-1 18.833 -1 29.5v185v349c-12.667 0 -22.5 1.16699 -29.5 3.5
s-10.5 8.16602 -10.5 17.499v41c0 6 2.33301 9 7 9c2 0 8.66699 -1.5 20 -4.5s22.666 -4.5 33.999 -4.5c7.33301 0 23 1.33301 47 4c5.33301 0.666992 15 1.66699 29 3s26.333 2 37 2c22.667 0 39.667 -3 51 -9c5.33301 -5.33301 8 -12 8 -20
c0 -10.667 -4.5 -20.334 -13.5 -29.001s-20.5 -13 -34.5 -13c-6 -16 -9 -35.333 -9 -58z" />
    <glyph glyph-name="j" unicode="j" horiz-adv-x="469" 
d="M336 679c-8 -37.333 -12.001 -84.6611 -12.001 -141.994c0 -37.333 1.5 -76.833 4.5 -118.5s4.83301 -68.167 5.5 -79.5l2 -21c1.33301 -15.333 2 -37.333 2 -66l-1 -61c-0.666992 -10 -1 -24 -1 -42c0 -16.667 1.33301 -47 4 -91c3.33301 -38.667 5 -75 5 -109
c0 -48 -5.16699 -87.833 -15.5 -119.5s-29.166 -52.834 -56.499 -63.501c-12 -6 -28 -9 -48 -9c-16.667 0 -35 1.66699 -55 5c-22.667 2.66699 -38 4 -46 4c-8.66699 0 -17.167 2.83301 -25.5 8.5s-16.333 12.167 -24 19.5s-12.834 12 -15.501 14
c-13.333 13.333 -24 31.5 -32 54.5s-12 46.833 -12 71.5c0 35.333 8 64.666 24 87.999c4 0 11.333 1.33301 22 4c3.33301 0.666992 8.66602 1.66699 15.999 3s14 2 20 2c12 0 21 -3 27 -9c-10 -18.667 -17.667 -35.5 -23 -50.5s-8 -31.167 -8 -48.5c0 -15.333 3 -32 9 -50
c0 -12 5.66699 -22.167 17 -30.5s27.333 -12.5 48 -12.5l20 21c0 41.333 3.66699 98 11 170c6.66699 78.667 10 135.334 10 170.001c0 17.333 -2 44.666 -6 81.999c-2.66699 17.333 -4.33398 32.666 -5.00098 45.999c-1.33301 14.667 -2 36 -2 64
c0 4.66699 -0.666992 13 -2 25c-2.66699 16 -3.66699 31 -3 45c0.666992 8 0.333984 22.667 -0.999023 44c-1.33301 16 -2 27 -2 33c0 16.667 -2 33.667 -6 51c-2.66699 14.667 -4 26 -4 34c0 5.33301 0.5 10.666 1.5 15.999s1.5 10.666 1.5 15.999
c0 12.667 -4.33301 23.334 -13 32.001c-3.33301 -3.33301 -9 -6.33301 -17 -9c-3.33301 -0.666992 -9.33301 -1 -18 -1c-9.33301 0 -17.666 -0.666992 -24.999 -2s-16 -4.33301 -26 -9c0 -18 -2.5 -33 -7.5 -45s-16.5 -18 -34.5 -18
c-9.33301 9.33301 -15.333 24.833 -18 46.5s-4 48.5 -4 80.5c0 9.33301 3.5 15.166 10.5 17.499s17.5 3.5 31.5 3.5c14.667 0 32.667 0.666992 54 2l47 3c11.333 0.666992 31.166 1.66699 59.499 3s52.833 2 73.5 2c44 0 79.667 -3.33301 107 -10
c15.333 -7.33301 27.5 -17.5 36.5 -30.5s13.5 -27.167 13.5 -42.5c0 -12 -2.66699 -23.333 -8 -34c0 -10 -0.833008 -15.833 -2.5 -17.5s-8.16699 -2.5 -19.5 -2.5s-18.666 2.66699 -21.999 8s-5.66602 13.333 -6.99902 24c-2.66699 15.333 -6.66699 25.666 -12 30.999h-43z
" />
    <glyph glyph-name="k" unicode="k" horiz-adv-x="603" 
d="M439 569.5c-6.66699 -28.333 -16.666 -63.835 -29.999 -106.502l-37 -73l-24 -48c0 -10.667 0.833008 -16.834 2.5 -18.501s7.5 -2.5 17.5 -2.5c7.33301 -6.66699 21 -16.667 41 -30s33.333 -23.333 40 -30c20 -26.667 34.5 -57.167 43.5 -91.5
s17.167 -78.166 24.5 -131.499c4.66699 -34.667 9 -61.667 13 -81c0 -6.66699 -1.66699 -20.667 -5 -42c-2.66699 -16 -4 -27 -4 -33c0 -11.333 3 -20 9 -26c0 -4.66699 1.83301 -9 5.5 -13s9.5 -9.33301 17.5 -16c1.33301 -1.33301 4.33301 -4 9 -8
s8.16699 -7.83301 10.5 -11.5s3.5 -7.16699 3.5 -10.5c0 -8 -2 -16 -6 -24s-6.66699 -13 -8 -15c-26 0 -63 -0.666992 -111 -2l-75 -1c-8 8.66699 -12 17.334 -12 26.001c0 3.33301 0.5 6.33301 1.5 9s1.83301 4.33398 2.5 5.00098l41 41c5.33301 12.667 8 26 8 40
c0 9.33301 -1.33301 22.666 -4 39.999c-2.66699 18.667 -4 32.334 -4 41.001v122v20c0 33.333 -5.33301 66.333 -16 99s-25.667 53.667 -45 63c-20 10 -40.333 15 -61 15c-20 0 -40.333 -5 -61 -15c-16.667 -16.667 -25 -51.667 -25 -105c0 -24.667 1 -49 3 -73
c1.33301 -30.667 2 -52 2 -64c0 -9.33301 -1 -18.333 -3 -27s-4.33301 -17 -7 -25c-7.33301 -18.667 -11 -35.667 -11 -51v-80c12.667 -6 23 -13.833 31 -23.5s12 -18.834 12 -27.501c0 -12.667 -7.33301 -22.667 -22 -30c-6.66699 2.66699 -16.667 4.66699 -30 6h-7
c-10.667 0 -25.334 -2 -44.001 -6c-20 -4 -35 -6 -45 -6c-10.667 0 -22.334 2 -35.001 6c-10.667 10.667 -16.834 17.667 -18.501 21s-2.5 9.66602 -2.5 18.999c4.66699 4.66699 12 10.334 22 17.001c6.66699 4 11.334 7.66699 14.001 11s4 7.66602 4 12.999v101v162l1 5
c0.666992 3.33301 1 9 1 17l-2 19c0 7.33301 2.66699 18 8 32c8.66699 28.667 13 51.667 13 69c0 84 -1.16699 154.333 -3.5 211s-8.16602 107.667 -17.499 153v60c-13.333 0 -23.333 1.16699 -30 3.5s-10 8.16602 -10 17.499c-9.33301 0 -14 7.66699 -14 23
c0 6.66699 1.16699 13.334 3.5 20.001s5.16602 11.667 8.49902 15c4.66699 4.66699 11.334 7 20.001 7c3.33301 0 10.333 -0.666992 21 -2c20 -2 32.667 -3 38 -3l26 1c18.667 1.33301 33 2 43 2c23.333 0 42 -3 56 -9s21 -17.333 21 -34c0 -5.33301 -1.5 -9.5 -4.5 -12.5
s-7.5 -6.5 -13.5 -10.5c-11.333 -8 -19 -14 -23 -18c0 -26 3.33301 -63 10 -111c6.66699 -46.667 10 -83.667 10 -111c0 -3.33301 -1.33301 -11 -4 -23c-0.666992 -2.66699 -1.66699 -7.5 -3 -14.5s-2 -13.167 -2 -18.5c0 -10.667 3 -19 9 -25
c37.333 9.33301 67.5 30.5 90.5 63.5s40.167 72.5 51.5 118.5c0 16 3.66699 36.333 11 61c6.66699 26.667 10 46.667 10 60h-41c0 8 -3.66699 15 -11 21c-6.66699 6.66699 -10 13.334 -10 20.001c6 10.667 14 17.667 24 21s24.667 6 44 8c24 1.33301 42 5 54 11
c12.667 -4 22.167 -9.83301 28.5 -17.5s9.5 -16.167 9.5 -25.5c0 -10 -3.66699 -18.833 -11 -26.5s-16.333 -11.5 -27 -11.5c0 -35.333 -3.33301 -67.166 -10 -95.499z" />
    <glyph glyph-name="l" unicode="l" horiz-adv-x="443" 
d="M260 680c-4.66699 -4.66699 -7.83594 -8.33594 -9.50293 -11.0029s-2.5 -6.33398 -2.5 -11.001c0 -62.667 -2 -128.167 -6 -196.5s-6.33301 -109.166 -7 -122.499c-4.66699 -71.333 -8.16699 -131.166 -10.5 -179.499s-3.5 -97.5 -3.5 -147.5
c0 -62.667 1.66699 -117.334 5 -164.001v-4c0 -8 1 -12.5 3 -13.5s8.33301 -1.83301 19 -2.5c9.33301 -0.666992 16.833 -0.833984 22.5 -0.500977s11.5 0.5 17.5 0.5c2 0 6.5 -0.166992 13.5 -0.5s16.167 -0.166016 27.5 0.500977h22v124v83c6 6 12.667 9 20 9
c5.33301 0 10 -1.16699 14 -3.5s6.66699 -4.16602 8 -5.49902c16.667 -16.667 25 -45.334 25 -86.001c0 -17.333 -1 -35 -3 -53c-1.33301 -22.667 -2 -38.667 -2 -48c0 -4 1.33301 -11.333 4 -22c3.33301 -18.667 5 -30 5 -34c0 -12 -3 -21 -9 -27
c-30.667 -5.33301 -61.667 -8.33301 -93 -9c-20.667 -0.666992 -51 -1 -91 -1c-39.333 0 -71.333 -0.5 -96 -1.5s-48.667 -3.83301 -72 -8.5c-7.33301 6.66699 -14.666 12 -21.999 16s-12.5 7.66699 -15.5 11s-4.5 8.33301 -4.5 15c0 8.66699 3.5 14.167 10.5 16.5
s17.5 3.5 31.5 3.5c9.33301 9.33301 15 19.333 17 30s3 28.334 3 53.001c9.33301 45.333 15.166 96.5 17.499 153.5s3.5 123.167 3.5 198.5v22v185c0 46 -1.16699 85.333 -3.5 118s-8.16602 63 -17.499 91c0 6 -1.33301 10.333 -4 13s-7.66699 6.33398 -15 11.001
c-9.33301 5.33301 -17 10.666 -23 15.999v42h22c21.333 0 47.666 1.66699 78.999 5c7.33301 0.666992 20.5 1.66699 39.5 3s36.167 2 51.5 2c18.667 0 32.334 -0.666992 41.001 -2c8 -0.666992 12.833 -2 14.5 -4s2.33398 -5.66699 2.00098 -11s-0.5 -9.66602 -0.5 -12.999
c-7.33301 -15.333 -16.666 -28.666 -27.999 -39.999z" />
    <glyph glyph-name="m" unicode="m" horiz-adv-x="833" 
d="M475 286.5c5.33301 25 9.83301 48.334 13.5 70.001s6.16699 35.834 7.5 42.501c3.33301 17.333 9.33301 41.666 18 72.999l19 75l9 33c5.33301 20.667 9.33301 37 12 49s4 24.667 4 38c0 20 8.66699 38.5 26 55.5s36.333 25.5 57 25.5h123c6 0 10.5 -1.5 13.5 -4.5
s6.83301 -7.83301 11.5 -14.5c6.66699 -10 12.334 -17.333 17.001 -22c-9.33301 -9.33301 -17.833 -16.5 -25.5 -21.5s-16.5 -7.5 -26.5 -7.5s-20.333 2.66699 -31 8c-6 -17.333 -9 -36 -9 -56c0 -10.667 1.33301 -27.334 4 -50.001c3.33301 -20 5 -39.333 5 -58v-83v-103
v-165l-1 -59c-0.666992 -9.33301 -1 -23 -1 -41c0 -19.333 0.666992 -34 2 -44c2.66699 -24.667 4 -50.667 4 -78c0 -17.333 -0.666992 -40 -2 -68s-2 -48 -2 -60c22 0 41.667 -5.66699 59 -17s26 -23 26 -35c0 -9.33301 -5 -16.333 -15 -21c-8.66699 0 -16 1 -22 3
c-1.33301 0 -4 0.5 -8 1.5s-8.66699 1.5 -14 1.5c-2.66699 0 -10 -1 -22 -3c-8 -2.66699 -15.667 -4 -23 -4l-36 7c4 2 2 2.33301 -6 1l-28 -4.5c-10.667 -1.66699 -22.334 -2.5 -35.001 -2.5c0 4.66699 -0.833008 8 -2.5 10s-5 4.33301 -10 7s-7.5 7.33398 -7.5 14.001
c0 5.33301 2.16699 9.5 6.5 12.5s11.5 6.5 21.5 10.5c17.333 7.33301 28.666 13.666 33.999 18.999c-9.33301 62.667 -14 138.667 -14 228c0 28 0.666992 73.333 2 136c1.33301 45.333 2 79.666 2 102.999c0 8 1.33301 26.667 4 56c4 33.333 6 58 6 74v83
c0 7.33301 -0.166992 12.833 -0.5 16.5s-2.83301 11.167 -7.5 22.5l1 19c0 7.33301 -4.66699 15.666 -14 24.999c0 -0.666992 0.333008 -2.5 1 -5.5s1 -6.83301 1 -11.5c0 -10 -1.66699 -18.333 -5 -25c-6.66699 -16.667 -13.5 -38.5 -20.5 -65.5s-13.5 -54.5 -19.5 -82.5
c-8 -34.667 -14.333 -60.667 -19 -78l-8.5 -28.5c-4.33301 -14.333 -7.5 -25.833 -9.5 -34.5l-14 -75c-11.333 -56.667 -18.666 -92.667 -21.999 -108c-2 -8.66699 -4.33301 -25 -7 -49c-2.66699 -25.333 -5.5 -44.5 -8.5 -57.5s-7.5 -19.5 -13.5 -19.5
c-8.66699 0 -19 3.66699 -31 11c-13.333 6.66699 -23 10 -29 10c0 14.667 -1.16699 27.834 -3.5 39.501s-6.16602 25.834 -11.499 42.501l-6 21l-17 62l-15 53.5c-6.66699 24.333 -13 46.166 -19 65.499c-15.333 49.333 -29.333 90.666 -42 123.999
c-2 5.33301 -4.33301 12.5 -7 21.5s-6 17.167 -10 24.5s-9 14 -15 20v-144c0 -16.667 -3 -43.667 -9 -81c-7.33301 -50 -11 -84.667 -11 -104v-104v-185c13.333 0 23.5 -1.16699 30.5 -3.5s10.5 -8.16602 10.5 -17.499c0 -16.667 -9.33301 -28.167 -28 -34.5
s-43 -9.5 -73 -9.5c-14.667 0 -33.334 0.666992 -56.001 2l-28 1c-6 0 -10.5 1.5 -13.5 4.5s-6.83301 7.83301 -11.5 14.5c-6.66699 10 -12.334 17.333 -17.001 22c4.66699 4.66699 8.83398 9.66699 12.501 15s7.16699 9.16602 10.5 11.499s7.33301 3.5 12 3.5
c6.66699 0 16 -3 28 -9v206v268v41v206v144c-7.33301 0 -13.833 -1.16699 -19.5 -3.5s-11.5 -3.5 -17.5 -3.5c-4 0 -8.16699 0.5 -12.5 1.5s-7.5 1.5 -9.5 1.5c-9.33301 2.66699 -17.333 4 -24 4c-10.667 10.667 -16.834 18.5 -18.501 23.5s-2.5 17.833 -2.5 38.5
c18 6 39 9 63 9c48.667 0 103.334 -9.66699 164.001 -29c10.667 -22.667 20.167 -42 28.5 -58l20.5 -40c2 -2.66699 6.33301 -11 13 -25v-21c14.667 -29.333 28.167 -61.166 40.5 -95.499s25.833 -75.166 40.5 -122.499l18 -56c5.33301 -16 10.5 -29.5 15.5 -40.5
s10.5 -21.833 16.5 -32.5l13 -25c8 24.667 14.667 49.5 20 74.5z" />
    <glyph glyph-name="n" unicode="n" horiz-adv-x="647" 
d="M619.5 718c-3 -6 -5.99707 -10.835 -8.99707 -14.502s-5.16699 -6.16699 -6.5 -7.5h-41c-6 -6 -9 -13 -9 -21c0 -3.33301 1.33301 -10.333 4 -21c3.33301 -18 5 -31 5 -39v-227c0 -242.667 5.33301 -440.334 16 -593.001c0.666992 -16 -3.33301 -27.667 -12 -35
s-19.334 -11 -32.001 -11c-9.33301 0 -18.5 1.66699 -27.5 5s-15.833 7.33301 -20.5 12l-18.5 55.5l-23.5 71.5c-48.667 142.667 -83 249.334 -103 320.001c-6 22.667 -15 47.5 -27 74.5s-18.667 41.833 -20 44.5c-4 8.66699 -7 15.834 -9 21.501s-3.33301 9.16699 -4 10.5
c-5.33301 12 -9.33301 27.333 -12 46c-3.33301 17.333 -7 30.5 -11 39.5s-11.667 16.5 -23 22.5v-140v-160v-161v-60v-100c8.66699 -8.66699 17.5 -14.167 26.5 -16.5s19.833 -3.5 32.5 -3.5c0 -6.66699 0.666992 -16.667 2 -30c1.33301 -10.667 2 -18 2 -22
c0 -9.33301 -1.83301 -16.333 -5.5 -21s-10.5 -7 -20.5 -7l-45 -1l-134 -3c-5.33301 0 -8.83301 2.16699 -10.5 6.5s-2.5 10.833 -2.5 19.5c0 9.33301 0.333008 16.666 1 21.999l1 30c1.33301 -0.666992 4.16602 -1.66699 8.49902 -3s8.5 -2 12.5 -2c8 0 12 3.66699 12 11
c7.33301 15.333 11 35.666 11 60.999c0 10.667 -0.666992 25.334 -2 44.001c-1.33301 17.333 -2 29 -2 35c0 23.333 -1.33301 59 -4 107c-2 29.333 -3 53.666 -3 72.999l-1 141c0 15.333 -1.33301 35.666 -4 60.999s-4 44.333 -4 57c0 4 -1.66699 14.333 -5 31
c-4 14.667 -6 25 -6 31v20v61c0 10 -0.333008 17 -1 21l-1 30c0 10.667 -3.33301 24 -10 40c-5.33301 13.333 -8 23 -8 29c-19.333 0 -34.333 4 -45 12s-16 17.333 -16 28c0 10 3.33301 18.667 10 26s15 11 25 11c5.33301 0 9.5 0.166992 12.5 0.5s5.83301 0.5 8.5 0.5
c6 1.33301 14.333 2.33301 25 3c4.66699 0.666992 10 0.5 16 -0.5s10.667 -1.5 14 -1.5c13.333 -1.33301 25 -2 35 -2c8 0 14.667 -2.66699 20 -8s9.16602 -11 11.499 -17s3.5 -10 3.5 -12c26 -38 48.333 -78.167 67 -120.5s40.667 -96.5 66 -162.5
c22 -58 37.667 -97.333 47 -118c8.66699 -27.333 17.667 -51.166 27 -71.499s20.666 -43.166 33.999 -68.499c0 -9.33301 1.16699 -18.166 3.5 -26.499s6.83301 -20.166 13.5 -35.499c2 -4 5.33301 -14.667 10 -32c5.33301 -16.667 11.333 -34.167 18 -52.5
s13 -31.5 19 -39.5c1.33301 -2 2.16602 -1.83301 2.49902 0.5s0.5 5.83301 0.5 10.5c0 10 -1.33301 32.333 -4 67s-4 57 -4 67c0 30 1.33301 82.333 4 157c2.66699 80 4 142.333 4 187v20c0 20.667 -3.33301 47.667 -10 81s-10 60 -10 80
c-12.667 12.667 -23.834 22.5 -33.501 29.5s-18.834 10.5 -27.501 10.5c-4 4 -8.5 7.83301 -13.5 11.5s-8.66699 7.16699 -11 10.5s-3.5 7.33301 -3.5 12c0 7.33301 2.66699 16.333 8 27c6 0 10.833 -1 14.5 -3s10.834 -3 21.501 -3c12.667 0 22.834 0.833008 30.501 2.5
s12.5 2.83398 14.5 3.50098c8 -2 16.667 -3 26 -3c6.66699 0 17.334 0.666992 32.001 2c20.667 1.33301 35.334 1.66602 44.001 0.999023c19.333 -1.33301 32 -8.33301 38 -21c0 -6 -1.5 -12 -4.5 -18z" />
    <glyph glyph-name="o" unicode="o" horiz-adv-x="614" 
d="M461 -189c-10.667 -11.333 -20.665 -20 -29.998 -26c-38.667 -24.667 -79.667 -37 -123 -37s-83.5 11.5 -120.5 34.5s-64.5 51.167 -82.5 84.5c-24.667 46.667 -45.334 94.667 -62.001 144c-8.66699 35.333 -14.167 71.166 -16.5 107.499s-3.5 81.833 -3.5 136.5
c0 8.66699 -0.666992 21 -2 37c-1.33301 17.333 -2 30.333 -2 39c0 15.333 1.33301 31 4 47c0.666992 4 2.66699 15 6 33s5 33 5 45c1.33301 6.66699 3.66602 19.334 6.99902 38.001c2.66699 18 5.5 32.333 8.5 43s7.83301 19 14.5 25c7.33301 10 18.333 26.333 33 49
c20 30.667 37.167 54.667 51.5 72s32.333 32.333 54 45s47.167 19 76.5 19c13.333 0 23.666 -0.666992 30.999 -2c40 0 71.833 -6 95.5 -18s45.834 -33.333 66.501 -64c31.333 -20.667 57.833 -52.667 79.5 -96s34.834 -91 39.501 -143c2.66699 -27.333 4 -63.333 4 -108
v-44c0 -68 -5.66699 -125.667 -17 -173c-20 -94.667 -50.333 -179 -91 -253c-6.66699 -12 -15.334 -23.667 -26.001 -35zM427.502 -56c11 34 19.167 62.6689 24.5 86.002c8.66699 27.333 14.167 54.666 16.5 81.999s3.5 61.333 3.5 102c0 14 1.33301 31.667 4 53
c0 4 0.5 11.167 1.5 21.5s1.5 20.166 1.5 29.499s-0.333008 20.166 -1 32.499s-1.33398 21.833 -2.00098 28.5c-2.66699 26.667 -4 46.667 -4 60c-6.66699 13.333 -13.334 33.333 -20.001 60c-6.66699 28 -13.667 49 -21 63l-11 24c-12 26 -22.667 46.333 -32 61
s-21.333 25.667 -36 33c-13.333 0 -26.666 0.666992 -39.999 2c-14.667 1.33301 -29 2 -43 2c-20 -20 -36 -40.833 -48 -62.5s-23.333 -48.167 -34 -79.5c-9.33301 -18 -15.166 -36.167 -17.499 -54.5s-3.5 -41.166 -3.5 -68.499c-5.33301 -42.667 -8 -90 -8 -142
c0 -94 9.66699 -196.333 29 -307c4.66699 -9.33301 8.5 -19.333 11.5 -30s5.16699 -17.667 6.5 -21c4 -14 7.5 -24.833 10.5 -32.5s7.16699 -14.167 12.5 -19.5c5.33301 0 8.83301 -1 10.5 -3s3.16699 -6.33301 4.5 -13s4 -12 8 -16c10.667 -10.667 28 -16 52 -16
c20.667 0 40.5 3.83301 59.5 11.5s30.833 17.5 35.5 29.5c8.66699 22 18.5 50 29.5 84z" />
    <glyph glyph-name="p" unicode="p" horiz-adv-x="596" 
d="M307 -181.5c14.667 -5.66699 21.9971 -13.833 21.9971 -24.5c0 -8.66699 -5.33301 -18.667 -16 -30c-17.333 0 -50.333 -1.66699 -99 -5c-34.667 -2.66699 -59.334 -4 -74.001 -4c-28.667 0 -55 3 -79 9c-1.33301 1.33301 -3.66602 4 -6.99902 8s-6.66602 9 -9.99902 15
s-5 12.333 -5 19c10.667 10.667 18.667 16.834 24 18.501s18.333 2.5 39 2.5c8 7.33301 12 20.666 12 39.999c0 7.33301 -0.666992 18.333 -2 33c-1.33301 13.333 -2 22.666 -2 27.999v31c0 62.667 1 120.334 3 173.001c1.33301 62.667 2 109 2 139
c0 17.333 0.333008 30.666 1 39.999l1 59c0 26.667 -0.666992 47.334 -2 62.001c-1.33301 17.333 -2 28.666 -2 33.999v4c0 14 0.333008 25.333 1 34c1.33301 30 1.66602 59 0.999023 87l1 32c0 9.33301 -1 16.833 -3 22.5s-6 9.5 -12 11.5
c-7.33301 3.33301 -16.333 5 -27 5c-7.33301 0.666992 -13.166 1.66699 -17.499 3s-9.5 4.66602 -15.5 9.99902c-13.333 7.33301 -20 14.666 -20 21.999c0 4.66699 2 9.33398 6 14.001s8.83301 9.5 14.5 14.5s10.167 8.83301 13.5 11.5c51.333 9.33301 115 14 191 14l108 -1
c5.33301 0 9.83301 0.333008 13.5 1s6.83398 1 9.50098 1c6.66699 0 13.334 -0.666992 20.001 -2c38.667 -6 73.334 -31.833 104.001 -77.5s51.667 -96.834 63 -153.501c0 -42 -1.16699 -75.667 -3.5 -101s-8.16602 -47.666 -17.499 -66.999
c-7.33301 -22 -18.833 -42 -34.5 -60s-36.167 -37.667 -61.5 -59l-30 -27c-19.333 -10 -38.833 -16.167 -58.5 -18.5s-48.834 -3.5 -87.501 -3.5c-1.33301 0 -3.5 -0.333008 -6.5 -1s-6.16699 -2.66699 -9.5 -6s-5 -8 -5 -14c-0.666992 -6 -0.833984 -15.667 -0.500977 -29
s0.5 -23.666 0.5 -30.999v-23c0 -24.667 -1.66699 -52.667 -5 -84c-0.666992 -7.33301 -1.66699 -19.666 -3 -36.999s-2 -33 -2 -47c0 -29.333 3.33301 -57.333 10 -84c23.333 0 42.333 -2.83301 57 -8.5zM249.997 268.001c6 -6.66699 13.666 -11.6689 22.999 -15.002
s19 -5 29 -5c11.333 0 21 2.33301 29 7c20 12.667 38 29.834 54 51.501s26.667 43.5 32 65.5c1.33301 6.66699 3.83301 16.834 7.5 30.501s5.83398 27.334 6.50098 41.001s1 30.5 1 50.5c0 30.667 -3.33301 61.5 -10 92.5s-15 57.167 -25 78.5
c-5.33301 0 -11 1.16699 -17 3.5s-10 3.83301 -12 4.5c-18.667 9.33301 -37 14 -55 14h-63c-6.66699 -33.333 -10 -68.333 -10 -105c0 -18 0.666992 -38 2 -60s2.33301 -37.333 3 -46c3.33301 -38.667 5 -73.334 5 -104.001v-104z" />
    <glyph glyph-name="q" unicode="q" horiz-adv-x="558" 
d="M576.5 -300c2.33301 -6.66699 3.49219 -17 3.49219 -31c-25.333 -12.667 -47.333 -19 -66 -19c-16 0 -33 4 -51 12c-17.333 7.33301 -31.166 14.5 -41.499 21.5s-17.833 16.5 -22.5 28.5l-6 21c-3.33301 14.667 -6.66602 25.5 -9.99902 32.5s-8.66602 10.5 -15.999 10.5
c-4.66699 0 -10 -1.16699 -16 -3.5s-10 -3.83301 -12 -4.5c-11.333 -4.66699 -21.166 -8.16699 -29.499 -10.5s-18.166 -3.5 -29.499 -3.5c-8 0 -21 2.5 -39 7.5s-33 9.83301 -45 14.5c-26 10.667 -54.333 31.334 -85 62.001c-73.333 76.667 -110 206 -110 388
c0 70 5 148.333 15 235c0.666992 7.33301 2.33398 13.666 5.00098 18.999s4 11.666 4 18.999c7.33301 14 14.333 31.667 21 53c7.33301 20.667 15 38.667 23 54c7.33301 8 14.333 18.667 21 32c6.66699 14.667 13.667 25.334 21 32.001c0 6.66699 3 13 9 19
s15.333 13.667 28 23c11.333 8 20.333 15.333 27 22c44.667 9.33301 84.667 14 120 14c54 0 99.333 -12 136 -36c20.667 -20 37.167 -41.167 49.5 -63.5s24.5 -50.166 36.5 -83.499c14 -30.667 24.333 -56.334 31 -77.001s10 -45 10 -73v-107v-149
c-18 -72 -39 -142.667 -63 -212c-10.667 -11.333 -20.5 -26 -29.5 -44s-13.5 -32.333 -13.5 -43c-2.66699 -10 -4 -20.667 -4 -32c0 -22 5.33301 -42 16 -60s24.334 -32.167 41.001 -42.5s34.334 -15.5 53.001 -15.5c10 0 16.167 -3.33301 18.5 -10zM431.992 238
l-1.00098 90.001c0 118 -9.33301 191.667 -28 221l-9 24c-9.33301 25.333 -17.666 44.166 -24.999 56.499s-17.833 22.166 -31.5 29.499s-32.834 11 -57.501 11h-40c-32.667 -49.333 -56.667 -107.166 -72 -173.499s-23 -138.166 -23 -215.499c0 -46 2.66699 -94 8 -144
c0 -39.333 2.5 -75.333 7.5 -108s16.833 -53.667 35.5 -63l22 22c18 6 35 9 51 9c14.667 0 28.834 -1.83301 42.501 -5.5s32.834 -9.83398 57.501 -18.501l20 -7c8.66699 20 16 49.667 22 89c3.33301 23.333 7.66602 47.333 12.999 72c5.33301 22 8 59 8 111z
M340.991 -99.499c-3.33301 6.33301 -6.66992 11.668 -10.0029 16.001s-5.66602 7.16602 -6.99902 8.49902h-62c-8.66699 0 -15 -3.16699 -19 -9.5s-6 -14.5 -6 -24.5c0 -15.333 4.16699 -29.5 12.5 -42.5s18.5 -19.5 30.5 -19.5c12.667 0 21.834 0.833008 27.501 2.5
s11.834 6.16699 18.501 13.5c6.66699 6 11.667 13 15 21s5 13 5 15c0 6.66699 -1.66699 13.167 -5 19.5z" />
    <glyph glyph-name="r" unicode="r" horiz-adv-x="594" 
d="M484 217c10 -35.333 17.166 -71.499 21.499 -108.499s8.16602 -84.5 11.499 -142.5c4 -67.333 8 -116 12 -146c14.667 0 25.334 -1.16699 32.001 -3.5s10 -8.16602 10 -17.499c0 -32.667 -24 -49 -72 -49c-14 0 -39.667 2.33301 -77 7
c-8.66699 8.66699 -14 18.334 -16 29.001v6c0 4.66699 2 16.334 6 35.001c2 10 4.16699 21.833 6.5 35.5s3.5 27.834 3.5 42.501c0 20.667 -1.66699 39.667 -5 57c-3.33301 21.333 -5 48.333 -5 81c-1.33301 39.333 -4 71.166 -8 95.499s-13.667 47.166 -29 68.499l-12 18
c-9.33301 15.333 -19.333 28.333 -30 39c0 6 -1.5 10.667 -4.5 14s-8.16699 7.33301 -15.5 12c-9.33301 5.33301 -17 10.666 -23 15.999c-14 0 -24.5 -1.16699 -31.5 -3.5s-10.5 -7.83301 -10.5 -16.5c-6.66699 -34 -10 -71.667 -10 -113c0 -28.667 2 -68.334 6 -119.001
c2.66699 -44 4 -74 4 -90c0 -29.333 1.16699 -53.5 3.5 -72.5s7.83301 -38.167 16.5 -57.5c0 -4.66699 1.83301 -8.5 5.5 -11.5s9.16699 -6.16699 16.5 -9.5c6.66699 -3.33301 11.834 -6.33301 15.501 -9s5.5 -6.33398 5.5 -11.001v-16c0 -8 -1.33301 -13.667 -4 -17
s-7.33398 -5 -14.001 -5c-12 0 -26 1 -42 3c-6 0 -15.667 0.5 -29 1.5s-25 1.5 -35 1.5c-30 0 -52.667 -4 -68 -12c-18 0 -31.333 0.666992 -40 2s-16.667 5.16602 -24 11.499s-14.666 16.5 -21.999 30.5c10 8.66699 19.667 14.167 29 16.5s21 3.5 35 3.5v365
c0 6.66699 0.666992 14.5 2 23.5s2.33301 15.5 3 19.5c3.33301 15.333 5 29.333 5 42c0 15.333 -3.33301 29.666 -10 42.999c0 9.33301 1 18 3 26c2.66699 17.333 4 27.333 4 30c1.33301 22.667 2 39 2 49c0 20.667 -1.33301 52.334 -4 95.001
c-0.666992 8 -1.66699 24.167 -3 48.5s-2 48.833 -2 73.5c-22.667 0 -41.334 2.5 -56.001 7.5s-22 12.833 -22 23.5c0 20.667 3.16699 35.5 9.5 44.5s15.333 14.5 27 16.5s30.5 3 56.5 3c7.33301 0 15.666 2 24.999 6c8 4 15.667 6 23 6c40 6.66699 78.667 10 116 10
c58.667 0 108.834 -9 150.501 -27s67.5 -48 77.5 -90c8.66699 -34.667 13 -66.667 13 -96s-4.33301 -54.333 -13 -75c-5.33301 -13.333 -14.166 -28 -26.499 -44s-24.5 -30 -36.5 -42l-22 -22c0 -8 3.66699 -15 11 -21c7.33301 -7.33301 11 -14.666 11 -21.999
c18.667 -24 33 -53.667 43 -89zM235.999 405.001c0 -7.33301 5.66602 -11.0039 16.999 -11.0039c14 0 32.333 4.66699 55 14s38.334 18.333 47.001 27c0 8 3.33301 23.333 10 46c5.33301 16.667 8.66602 29.667 9.99902 39c2.66699 14 4 25.333 4 34
c0 6.66699 -0.666992 14.334 -2 23.001s-2 18.334 -2 29.001c0 12 -2.66699 21.833 -8 29.5s-11.666 14.834 -18.999 21.501s-12.333 11.334 -15 14.001l-105 -2c0 -65.333 2.66699 -153.333 8 -264z" />
    <glyph glyph-name="s" unicode="s" horiz-adv-x="513" 
d="M349 723c2.66699 5.33301 8.66016 8.00195 17.9932 8.00195c14 0 24.333 -1.16699 31 -3.5s10 -8.5 10 -18.5c6.66699 -6.66699 10 -15.334 10 -26.001c0 -8 -2 -19.333 -6 -34c-2.66699 -12 -4 -19.667 -4 -23l-14.5 -33.5c-7.66699 -17.667 -16 -31.5 -25 -41.5
s-18.5 -15 -28.5 -15c-6 0 -11.667 1.33301 -17 4c-6 6 -9 15 -9 27c0 6 1.33301 17.667 4 35c3.33301 23.333 5 38 5 44c-10.667 11.333 -26 21.333 -46 30s-40 13 -60 13c-10.667 -20.667 -16 -52.667 -16 -96s5.33301 -75.666 16 -96.999
c8.66699 -18 20.834 -33.833 36.501 -47.5s37.167 -29.834 64.5 -48.501c30 -20.667 54.333 -39.167 73 -55.5s34.667 -36.166 48 -59.499c16.667 -28.667 30.334 -54 41.001 -76c10.667 -20.667 18.667 -43.334 24 -68.001s8 -48.667 8 -72
c0 -40 -3.16699 -73.833 -9.5 -101.5s-16.5 -57.167 -30.5 -88.5c-16 -34.667 -37.333 -61.834 -64 -81.501s-61.667 -34.834 -105 -45.501h-86c-18 0 -39.5 9.66699 -64.5 29s-45.833 38 -62.5 56c-20.667 38.667 -31 79.334 -31 122.001c0 20.667 3 43.667 9 69
c-7.33301 0 -14.666 -3.66699 -21.999 -11c-6 -7.33301 -12.667 -11 -20 -11c-10 10 -16.167 19.833 -18.5 29.5s-3.5 21.167 -3.5 34.5c22.667 8 49 14.333 79 19c14.667 2.66699 30 6 46 10s31.333 9 46 15c15.333 0 27.666 -5 36.999 -15s14 -22.333 14 -37
c0 -11.333 -3 -22.666 -9 -33.999c-14 0 -25.667 -1.16699 -35 -3.5s-19 -8.5 -29 -18.5c-14.667 -14.667 -22 -37.334 -22 -68.001c0 -26.667 5.83301 -52.167 17.5 -76.5s27.167 -39.833 46.5 -46.5c8.66699 0 16 3.66699 22 11c0.666992 0.666992 3 2.66699 7 6s9 5 15 5
c46.667 23.333 82.167 59.833 106.5 109.5s36.5 106.167 36.5 169.5c0 41.333 -5 83 -15 125c-11.333 21.333 -23.166 38.166 -35.499 50.499s-29.166 24.166 -50.499 35.499c-19.333 9.33301 -35 18.833 -47 28.5s-25 21.5 -39 35.5
c-6.66699 6.66699 -15.667 13.334 -27 20.001c-17.333 10 -32 21.333 -44 34c-4 4.66699 -13.667 14.667 -29 30s-27.333 30.166 -36 44.499s-13 27.833 -13 40.5c-3.33301 10 -5 21.667 -5 35c0 44.667 23 90 69 136c5.33301 0 11 1.16699 17 3.5s10 3.83301 12 4.5
c18.667 9.33301 37.334 14 56.001 14c12.667 0 23.334 -0.833008 32.001 -2.5s19.334 -4.5 32.001 -8.5l44 -11c1.33301 -1.33301 4 -3.66602 8 -6.99902s9 -6.66602 15 -9.99902s12.333 -5 19 -5c0 4 1.33301 8.66699 4 14z" />
    <glyph glyph-name="t" unicode="t" horiz-adv-x="596" 
d="M515 580c-0.666992 5.33301 -0.998047 13.665 -0.998047 24.998c0 12.667 -0.666992 23.667 -2 33s-4.33301 18.666 -9 27.999c-6 6 -16.667 9 -32 9c-13.333 0 -29 -1.66699 -47 -5c-21.333 -2.66699 -36.333 -4 -45 -4c-6 -12 -9 -28 -9 -48c0 -16 1.66699 -34 5 -54
c2.66699 -21.333 4 -36.333 4 -45v-394v-168v-42c0 -14.667 -1 -28.334 -3 -41.001c-1.33301 -14.667 -2 -25.667 -2 -33c0 -12.667 1.66699 -22.667 5 -30c1.33301 -3.33301 4 -5.66602 8 -6.99902s7.5 -2.33301 10.5 -3s5.16699 -1 6.5 -1
c11.333 -1.33301 20.333 -3.83301 27 -7.5s10 -11.167 10 -22.5c-1.33301 -1.33301 -4 -3.66602 -8 -6.99902s-9.16699 -6.5 -15.5 -9.5s-12.5 -4.5 -18.5 -4.5h-188c-9.33301 0 -15.166 3.5 -17.499 10.5s-3.5 17.5 -3.5 31.5c7.33301 0 17.666 3.33301 30.999 10
s23.666 10 30.999 10l1 175c0 36 -0.333008 61.333 -1 76c-0.666992 19.333 -1 47.333 -1 84l1 165v104v42c0 52 -1.16699 92.667 -3.5 122s-8.16602 58.333 -17.499 87c-16 4.66699 -33.333 7 -52 7h-5c-32.667 0 -59.5 -7.16699 -80.5 -21.5s-31.5 -36.166 -31.5 -65.499
c0 -7.33301 1 -15.666 3 -24.999c-0.666992 -1.33301 -3.16699 -3.16602 -7.5 -5.49902s-8.83301 -3.5 -13.5 -3.5c-7.33301 0 -14 3 -20 9c0 8 -1.33301 22.667 -4 44c-3.33301 30 -5 48.333 -5 55c0 20 3 36 9 48c23.333 12 45.666 21 66.999 27s46.333 9 75 9
c20.667 0 55 0.666992 103 2c38 2 74.667 3 110 3c49.333 0 90.5 -2.33301 123.5 -7s53.833 -16 62.5 -34c8.66699 -24.667 13 -48.667 13 -72c0 -22 -4.33301 -40 -13 -54s-22.334 -21 -41.001 -21c-3.33301 3.33301 -6.33301 9.66602 -9 18.999z" />
    <glyph glyph-name="u" unicode="u" horiz-adv-x="598" 
d="M295 -142c13.333 0 26.3271 4.33301 38.9941 13c22.667 16.667 39.167 41.667 49.5 75s16.5 66 18.5 98s3 70.667 3 116v305c0 14.667 0.666992 31 2 49s2.33301 30.333 3 37c2.66699 30.667 4 52.334 4 65.001c0 23.333 -3 40.666 -9 51.999
c-6 6.66699 -12 11.667 -18 15s-10.833 5.33301 -14.5 6s-6.16699 1 -7.5 1c0 4 -1.33301 9.16699 -4 15.5s-4.33398 10.5 -5.00098 12.5c-5.33301 10.667 -8 17.667 -8 21c0 4 2.66699 6 8 6c19.333 0 40.666 1 63.999 3c8 0 21.167 0.5 39.5 1.5s33.833 1.16699 46.5 0.5
c24.667 -0.666992 43.167 -5.33398 55.5 -14.001s18.5 -18.334 18.5 -29.001c0 -8.66699 -3.66699 -15.667 -11 -21c-19.333 -16 -30.666 -45.333 -33.999 -88c-1.33301 -12.667 -2 -33.667 -2 -63c0 -22 -0.333008 -44.667 -1 -68s-2.66699 -44 -6 -62v-203v-22
c0 -66 -4.16699 -122.667 -12.5 -170s-24.166 -92.333 -47.499 -135c-17.333 -32.667 -39.666 -61.167 -66.999 -85.5s-59.333 -36.5 -96 -36.5c-6 0 -11.667 -0.333008 -17 -1s-15.666 -1 -30.999 -1c-30 4.66699 -55.5 16.167 -76.5 34.5s-40.5 41.5 -58.5 69.5
c-8.66699 14.667 -14.667 29.5 -18 44.5s-6.33301 35.5 -9 61.5c-2.66699 32 -7 57.667 -13 77v509c0 9.33301 0.666992 22.666 2 39.999l1 39c0 13.333 -1 27.333 -3 42c-0.666992 6 -3.5 10.833 -8.5 14.5s-11.833 7.5 -20.5 11.5
c-11.333 4.66699 -19.666 9.33398 -24.999 14.001s-8 12 -8 22c7.33301 7.33301 15.333 12 24 14s18.834 3.33301 30.501 4s20.834 1.33398 27.501 2.00098c34 2 52.667 3 56 3c32.667 0 55.667 -6.66699 69 -20c3.33301 -3.33301 5 -7.66602 5 -12.999
c0 -12.667 -9.66699 -30 -29 -52v-121v-184l1 -221c0 -56 1.16699 -102.667 3.5 -140s7.5 -73 15.5 -107c24.667 -24.667 49.334 -37 74.001 -37z" />
    <glyph glyph-name="v" unicode="v" horiz-adv-x="599" 
d="M458 735c15.333 0 32.333 1.66504 51 4.99805c20 2.66699 34 4 42 4c10 -10 17.333 -18.5 22 -25.5s7 -15.167 7 -24.5s-2.66699 -19.333 -8 -30h-40c-6 -11.333 -10.5 -22.666 -13.5 -33.999s-6.5 -27 -10.5 -47c-3.33301 -18 -7.33301 -36.667 -12 -56
c-13.333 -50 -26.666 -104.5 -39.999 -163.5l-37 -170.5c-21.333 -99.333 -38.833 -177.833 -52.5 -235.5s-30.167 -116.167 -49.5 -175.5c-9.33301 -14 -18 -21 -26 -21c-8.66699 0 -16.5 7 -23.5 21s-14.5 33.667 -22.5 59c-2.66699 6 -5 12.667 -7 20
c-12.667 25.333 -19 58 -19 98c-9.33301 35.333 -27 106 -53 212l-6 23c-14 40.667 -25.333 82.667 -34 126s-17.667 94 -27 152l-12 75c-10.667 59.333 -16 96.333 -16 111c0 8.66699 -6.66699 13 -20 13l-27 -1c0 6 -0.666992 15.667 -2 29c-2 10 -3 19.667 -3 29
c0 8.66699 8.66699 13 26 13l29 -1c67.333 0 115.666 1 144.999 3c12 0.666992 21 -2.33301 27 -9s9 -15.334 9 -26.001c0 -15.333 -5.33301 -29.666 -16 -42.999s-24.334 -20 -41.001 -20c0 -32.667 3 -68.167 9 -106.5s14.667 -84.833 26 -139.5
c0.666992 -6.66699 2.33398 -16 5.00098 -28c13.333 -81.333 25.333 -146.5 36 -195.5s25 -95.167 43 -138.5c0.666992 9.33301 6 30.666 16 63.999c14.667 46.667 22 77.667 22 93c4.66699 22.667 10.834 47.834 18.501 75.501l16.5 59.5
c16.667 60.667 29.834 112.834 39.501 156.501s17.5 90.167 23.5 139.5c0 4.66699 1.5 9.5 4.5 14.5s4.5 8.5 4.5 10.5c0 4 -3 8.66699 -9 14c-4.66699 4.66699 -13 10.334 -25 17.001c-12 6 -20.667 11.667 -26 17s-8 13.666 -8 24.999
c1.33301 0 3.66602 0.333008 6.99902 1s6.5 2.66699 9.5 6s4.5 8 4.5 14c11.333 -6 25.666 -9 42.999 -9z" />
    <glyph glyph-name="w" unicode="w" horiz-adv-x="904" 
d="M222 670c0 -6.66699 3.33398 -24.6699 10.001 -54.0029c9.33301 -36 14 -62 14 -78c0 -38.667 2.5 -77.667 7.5 -117s13.167 -93 24.5 -161l7 -45c0 -6.66699 0.5 -12.667 1.5 -18s4.5 -11 10.5 -17c6.66699 -6.66699 13.334 -2.16699 20.001 13.5s10 29.834 10 42.501
c31.333 62.667 56.833 125 76.5 187s33.834 127.667 42.501 197c-0.666992 0.666992 -2.83398 2.66699 -6.50098 6s-8.33398 6.33301 -14.001 9s-11.5 4 -17.5 4h-21c-1.33301 1.33301 -3.66602 4 -6.99902 8s-6.5 9 -9.5 15s-4.5 12 -4.5 18s7.33301 9 22 9
c8.66699 0 25 -1.33301 49 -4c20 -3.33301 37 -5 51 -5c12 0 24 1.66699 36 5c13.333 2.66699 23 4 29 4c12 0 24 -3 36 -9c5.33301 -4.66699 8 -11 8 -19c0 -10.667 -4.66699 -20.167 -14 -28.5s-21 -12.5 -35 -12.5l62 -365c12.667 13.333 22 27 28 41
s12.667 33.667 20 59c6 21.333 10.667 36.333 14 45c5.33301 10 10 23.5 14 40.5s7.33301 33.5 10 49.5c4.66699 32 10 54.667 16 68c7.33301 16.667 12.833 36 16.5 58s5.5 39.667 5.5 53c-1.33301 0 -3.83301 -0.333008 -7.5 -1s-7.83398 -1 -12.501 -1
c-16 0 -24 4.33301 -24 13c0 7.33301 -1 15 -3 23c-0.666992 2.66699 -1.33398 6 -2.00098 10s-1 8.33301 -1 13c0 9.33301 3 14.333 9 15c30 5.33301 61.333 8 94 8c45.333 0 80 -5.33301 104 -16c0 -11.333 0.333008 -19.666 1 -24.999l1 -28
c-3.33301 -3.33301 -9.33301 -6.33301 -18 -9c-4.66699 -0.666992 -12.334 -1 -23.001 -1c-10 0 -18.167 -0.5 -24.5 -1.5s-11.833 -3.83301 -16.5 -8.5c-4.66699 -5.33301 -8.33398 -12.5 -11.001 -21.5s-4.83398 -18.167 -6.50098 -27.5s-2.83398 -15.333 -3.50098 -18
c-3.33301 -20 -6.66602 -34.333 -9.99902 -43c-15.333 -36.667 -27.166 -72.334 -35.499 -107.001s-17.166 -79 -26.499 -133l-6 -35l-33 -224c-4 -32.667 -11.667 -87.667 -23 -165c-1.33301 -6.66699 -2.66602 -18.667 -3.99902 -36
c-2.66699 -26.667 -5.66699 -48.5 -9 -65.5s-8 -28.833 -14 -35.5c-12.667 0 -23.667 6.5 -33 19.5s-16.5 27.833 -21.5 44.5s-7.5 29.334 -7.5 38.001c-10 76.667 -25.667 155.334 -47 236.001s-46 157 -74 229c-21.333 -43.333 -39.5 -89.5 -54.5 -138.5
s-31.5 -108.833 -49.5 -179.5c-15.333 -61.333 -28.5 -110.333 -39.5 -147s-23.5 -70.667 -37.5 -102c-18.667 0 -32.667 7.16699 -42 21.5s-16 34.166 -20 59.499c-8 47.333 -15.333 99.833 -22 157.5s-11 93.834 -13 108.501c-18 148.667 -32.667 256 -44 322
c0 45.333 -3.5 87.5 -10.5 126.5s-17.167 84.167 -30.5 135.5c-12 -5.33301 -21.333 -8 -28 -8c-10 0 -17.833 4.33301 -23.5 13s-8.5 20.334 -8.5 35.001c0 3.33301 1.16699 7.66602 3.5 12.999s7.83301 8 16.5 8c24 0 50 1.66699 78 5c30.667 2.66699 53.334 4 68.001 4
c27.333 0 52.666 -3 75.999 -9c0.666992 0 2.66699 -0.333008 6 -1s6.5 -2.66699 9.5 -6s4.5 -8 4.5 -14c0 -4.66699 -2 -8.33398 -6 -11.001s-10.667 -6 -20 -10c-14.667 -5.33301 -25.667 -11.666 -33 -18.999c-2.66699 -0.666992 -4 -4 -4 -10z" />
    <glyph glyph-name="x" unicode="x" horiz-adv-x="740" 
d="M695.5 689.5c-11.667 -2.33301 -25.5039 -3.5 -41.5039 -3.5c-30 -35.333 -58.667 -80.166 -86 -134.499s-58.666 -122.5 -93.999 -204.5c-1.33301 -3.33301 -4 -9 -8 -17s-7 -15.667 -9 -23s-3 -14.333 -3 -21c0 -16.667 4.33301 -38.667 13 -66
c4.66699 -15.333 7 -26.333 7 -33c19.333 -38.667 43 -96.667 71 -174c18 -48.667 33.667 -88.667 47 -120s27.333 -59.333 42 -84c13.333 0 24.333 -1.16699 33 -3.5s17.334 -7.83301 26.001 -16.5c0 -10 -0.833008 -15.833 -2.5 -17.5s-7.5 -2.5 -17.5 -2.5
c-27.333 -9.33301 -53.666 -14 -78.999 -14s-52.333 4.66699 -81 14c-1.33301 1.33301 -3.5 3.83301 -6.5 7.5s-6 8.5 -9 14.5s-4.5 12 -4.5 18h81c-7.33301 20.667 -20.333 49 -39 85c-21.333 44.667 -35.333 76.334 -42 95.001l-10 32
c-10.667 35.333 -21.167 66.333 -31.5 93s-22.833 51 -37.5 73c-6 -22.667 -15.167 -46.667 -27.5 -72s-30.833 -60.333 -55.5 -105c-22.667 -40.667 -40 -73.167 -52 -97.5s-19.667 -45.5 -23 -63.5c0 -4.66699 2.16699 -8.5 6.5 -11.5s11.166 -6.5 20.499 -10.5
c14.667 -5.33301 25.334 -11.333 32.001 -18c0 -12.667 -2.16699 -24.5 -6.5 -35.5s-10.833 -16.5 -19.5 -16.5l-36 2c-14 2 -26.667 3 -38 3c-8.66699 0 -16.667 0.333008 -24 1s-14 1.33398 -20 2.00098c-24 2.66699 -42.667 4 -56 4h-39
c-6.66699 0 -13.334 -3.33301 -20.001 -10c-2.66699 -2 -5.5 -4 -8.5 -6s-6.83301 -3 -11.5 -3c-8.66699 0 -14.167 4.83301 -16.5 14.5s-3.5 17.834 -3.5 24.501c0 32.667 27.333 48 82 46c16.667 44 35.334 86.5 56.001 127.5s49 94.167 85 159.5l76 144
c8 8 14.333 20.333 19 37c8 20.667 15 35.334 21 44.001c-2 4 -5.83301 13 -11.5 27s-8.5 25 -8.5 33c-7.33301 14 -17.333 29 -30 45c-1.33301 2 -4.66602 6.33301 -9.99902 13s-9.33301 13.667 -12 21c-6.66699 16 -15 31.833 -25 47.5s-16 25.167 -18 28.5
c-20.667 31.333 -36 58.666 -46 81.999c-2.66699 4.66699 -5 11 -7 19c-3.33301 11.333 -6.5 19.666 -9.5 24.999s-7.5 8 -13.5 8h-40c-5.33301 5.33301 -12.666 10.666 -21.999 15.999c-6.66699 4.66699 -11.334 8.5 -14.001 11.5s-4 7.16699 -4 12.5
c30.667 14.667 90.667 21 180 19c8.66699 0 16.167 -4.16699 22.5 -12.5s9.5 -17.5 9.5 -27.5c-22 -0.666992 -33 -9.33398 -33 -26.001c0 -8.66699 2.33301 -18.5 7 -29.5s12 -26.167 22 -45.5c12.667 -22 20.334 -38.333 23.001 -49c4.66699 -16.667 11 -31.667 19 -45
s18.667 -29.666 32 -48.999c12.667 -17.333 22 -32 28 -44c0 6 3.33301 15.667 10 29s10 23.333 10 30c10.667 21.333 22.5 52.666 35.5 93.999s21.167 75.666 24.5 102.999c-23.333 4.66699 -35 16.667 -35 36c0 6 0.5 11.333 1.5 16s1.5 9 1.5 13
c5.33301 5.33301 14.333 8 27 8c4.66699 0 18 -1.66699 40 -5c13.333 -2.66699 21.666 -4 24.999 -4l80 -2l25 1c12 1.33301 21.333 2 28 2c14.667 0 26 -3 34 -9s12 -17 12 -33c0 -8.66699 -5.83301 -14.167 -17.5 -16.5z" />
    <glyph glyph-name="y" unicode="y" horiz-adv-x="607" 
d="M585 701.5c-2 -11 -7.00684 -16.5049 -15.0068 -16.5049h-59c-5.33301 -16.667 -18 -60 -38 -130c-13.333 -51.333 -25.5 -95.166 -36.5 -131.499s-24.167 -70.166 -39.5 -101.499c-9.33301 -9.33301 -15.666 -19.166 -18.999 -29.499s-5 -22.833 -5 -37.5l1 -34
c1.33301 -20 2 -37 2 -51c-3.33301 -6 -5 -15.667 -5 -29c0 -10.667 1.33301 -26.667 4 -48c0.666992 -5.33301 1.33398 -11.333 2.00098 -18s1 -13.334 1 -20.001c0 -11.333 -0.666992 -31 -2 -59c-1.33301 -29.333 -2 -52 -2 -68c0 -52.667 7.66699 -86.667 23 -102
c2.66699 0 8.16699 -0.166992 16.5 -0.5s16.333 -1.83301 24 -4.5s11.5 -6.66699 11.5 -12l4 -15.5c2 -7.66699 3 -14.834 3 -21.501c0 -11.333 -3.33301 -18 -10 -20c-21.333 -5.33301 -44.333 -8 -69 -8c-14.667 0 -34 1.33301 -58 4c-17.333 1.33301 -29.333 2 -36 2h-96
c-8.66699 8.66699 -13 18 -13 28s4.33301 19.667 13 29c5.33301 4.66699 11.333 7.33398 18 8.00098c4.66699 0.666992 11.667 1 21 1c10 0 17.833 0.5 23.5 1.5s10.5 3.83301 14.5 8.5l1 143c0 95.333 -6.33301 176.333 -19 243s-38.334 116.334 -77.001 149.001
c-9.33301 28 -24.666 65 -45.999 111l-11 23c-13.333 40 -23.166 73.333 -29.499 100s-9.5 56.667 -9.5 90c-16 0 -29.5 1 -40.5 3s-16.5 7 -16.5 15c-1.33301 18.667 3 31.834 13 39.501s24 11.5 42 11.5c11.333 0 26.333 -1.33301 45 -4c12 -2 22.667 -3 32 -3
c12.667 0 31.667 -0.666992 57 -2c20 -2 39.667 -3 59 -3c8.66699 -8.66699 14 -17.167 16 -25.5s3 -18.833 3 -31.5c-5.33301 0 -12.666 0.833008 -21.999 2.5s-17 2.5 -23 2.5c-12.667 0 -22.334 -3.33301 -29.001 -10c3.33301 -11.333 5.33301 -25.166 6 -41.499
s1.33398 -27.833 2.00098 -34.5c0.666992 -8.66699 2.66699 -22.667 6 -42c0.666992 -4 1.33398 -8.5 2.00098 -13.5s1 -10.5 1 -16.5c10 -38.667 23.667 -75.5 41 -110.5s35.333 -61.833 54 -80.5c12 6 21.167 14.5 27.5 25.5s13.833 27.5 22.5 49.5
c6 17.333 12.333 33.333 19 48c14 29.333 25.167 62.666 33.5 99.999s12.833 71.333 13.5 102c0 6 -2.16699 10.5 -6.5 13.5s-12.166 6.5 -23.499 10.5c-12 4 -21.833 8.33301 -29.5 13s-13.5 11.334 -17.5 20.001c0 16 21.333 24 64 24c20 0 40 -1 60 -3
c22.667 -1.33301 38.334 -2 47.001 -2c5.33301 0 12 1.66699 20 5c8 2.66699 14.333 4 19 4c6.66699 0 12.667 -3 18 -9c0 -16 -1 -29.5 -3 -40.5z" />
    <glyph glyph-name="z" unicode="z" horiz-adv-x="513" 
d="M219 -163c12 0 29.998 -0.668945 53.998 -2.00195c22.667 -1.33301 38.667 -2 48 -2s16 0.333008 20 1c14.667 1.33301 23.334 2 26.001 2c10.667 0.666992 18 2 22 4s9 7.66699 15 17c3.33301 4.66699 5.5 11.834 6.5 21.501s1.66699 17.667 2 24s0.5 10.833 0.5 13.5
c0.666992 19.333 1.66699 33.833 3 43.5s4.66602 16.834 9.99902 21.501c8.66699 0 20 -2.83301 34 -8.5l28 -11.5c0 -48 -1 -85.833 -3 -113.5s-6.33301 -54.167 -13 -79.5c-7.33301 -6.66699 -15.166 -11.167 -23.499 -13.5s-18.5 -3.5 -30.5 -3.5l-35 1l-81 1h-187h-83
v42v42c17.333 34 31.833 68.5 43.5 103.5s24.834 79.833 39.501 134.5c13.333 51.333 26 95.166 38 131.499s26.667 71.833 44 106.5c8 34 21.667 77.333 41 130c11.333 30 20.166 54.667 26.499 74s11.833 40.666 16.5 63.999c11.333 12 21 27.5 29 46.5s12 38.5 12 58.5
c-48 0 -91.167 -1.33301 -129.5 -4s-70.833 -8.66699 -97.5 -18c0 -3.33301 0.333008 -7 1 -11s1.33398 -8.66699 2.00098 -14c4 -18.667 6 -34.334 6 -47.001c0 -14.667 -3 -24.667 -9 -30c-8 -2 -14.667 -3 -20 -3c-15.333 0 -25 6.16699 -29 18.5s-6 31.5 -6 57.5
c0 30.667 -2.66699 54 -8 70c0 6 -1.5 13 -4.5 21s-4.5 13 -4.5 15c0 4 3 6 9 6h146h83h143c32.667 0 50 -7.66699 52 -23c1.33301 -9.33301 2 -16 2 -20c0 -17.333 -2.83301 -34.666 -8.5 -51.999s-13.834 -37.666 -24.501 -60.999l-9.5 -21.5
c-3.66699 -8.33301 -7.5 -18.166 -11.5 -29.499c-12.667 -26 -26.667 -67 -42 -123c-9.33301 -34 -17.666 -61.5 -24.999 -82.5s-16.333 -41.5 -27 -61.5c-14 -46.667 -35.333 -103.667 -64 -171c-24 -58 -41.5 -105.667 -52.5 -143s-16.167 -78 -15.5 -122h41z" />
    <glyph glyph-name="braceleft" unicode="{" horiz-adv-x="348" 
d="M65 309c10.667 6 21.1689 21.8252 31.502 47.4922s15.833 48.5 16.5 68.5c-1.33301 10.667 -2 18.334 -2 23.001c0 12.667 1.16699 25.167 3.5 37.5l4.5 23.5c4 16 5.66699 27.667 5 35c5.33301 40.667 13.5 76.834 24.5 108.501s22.5 49.834 34.5 54.501
c15.333 10.667 32 19 50 25s35 9 51 9c10 0 19 -1 27 -3c14.667 -12.667 22 -27.667 22 -45c0 -9.33301 -2.33301 -17.666 -7 -24.999s-11.334 -12.666 -20.001 -15.999c-6 -3.33301 -13 -5 -21 -5c-6 0 -13.333 0.666992 -22 2s-15.667 1.66602 -21 0.999023
c-5.33301 0 -10 -1 -14 -3c-4.66699 -7.33301 -9.66699 -13.666 -15 -18.999s-9.33301 -10.333 -12 -15s-4 -11 -4 -19c0 -6 1.66699 -15 5 -27c-0.666992 -4.66699 -2.33398 -13.334 -5.00098 -26.001c-4.66699 -15.333 -7 -28.666 -7 -39.999c0 -6.66699 1 -13.667 3 -21
l-2 -21c-3.33301 -26.667 -5 -49 -5 -67c0 -10 0.333008 -17.333 1 -22c-7.33301 -30.667 -17.166 -53 -29.499 -67s-26.833 -25 -43.5 -33c18 -10.667 35 -28.667 51 -54s26.667 -51 32 -77c0.666992 -6.66699 1 -16 1 -28c0 -16 -1.33301 -38 -4 -66
c-2.66699 -24 -4 -41.333 -4 -52c0 -7.33301 0.333008 -12.666 1 -15.999c1.33301 -13.333 2 -22 2 -26c0 -6.66699 -0.333008 -14.167 -1 -22.5s-0.666992 -15.166 0 -20.499c0 -10 2.33301 -20 7 -30c6.66699 -4.66699 14.5 -7.33398 23.5 -8.00098s14.167 -1 15.5 -1
c10.667 -0.666992 18.667 -1.5 24 -2.5s10.333 -3.5 15 -7.5c1.33301 -9.33301 2 -17.666 2 -24.999c0 -18 -4 -32.333 -12 -43c-10.667 -1.33301 -19.334 -2 -26.001 -2c-41.333 0 -75.333 14.667 -102 44c-7.33301 5.33301 -13.666 20.833 -18.999 46.5s-8 52.5 -8 80.5
c0 18 1.66699 36 5 54c1.33301 4.66699 2.33301 12.167 3 22.5s1 17.5 1 21.5c1.33301 32 3.33301 55.333 6 70c-2 19.333 -8.83301 37.5 -20.5 54.5s-23.834 28.5 -36.501 34.5l-38 17c-4.66699 4 -8.66699 10.333 -12 19s-5 17.334 -5 26.001c0 14 4 22.667 12 26l17 -2z
" />
    <glyph glyph-name="bar" unicode="|" horiz-adv-x="166" 
d="M130 406c1.33301 -58.667 4.00195 -102.335 8.00195 -131.002c-8 -16.667 -12 -38 -12 -64c0 -13.333 1.33301 -23 4 -29c-3.33301 -6.66699 -5 -16 -5 -28l1 -22c1.33301 -12.667 1.66602 -22 0.999023 -28c0 -6 -1 -11.667 -3 -17
c3.33301 -7.33301 6.33301 -36.166 9 -86.499s4 -95.166 4 -134.499l-1 -32c2.66699 -4.66699 4.66699 -15.667 6 -33s2 -36 2 -56c0 -44 -3 -72.333 -9 -85c-2 -15.333 -3 -28.333 -3 -39c0 -15.333 1.16699 -28 3.5 -38s3.83301 -16.333 4.5 -19
c-1.33301 -18.667 -5.83301 -35.334 -13.5 -50.001s-17.5 -22 -29.5 -22c-10 0 -21.333 6.66699 -34 20c-6.66699 18 -10 39.667 -10 65v5c0 20 1 42.667 3 68c3.33301 60.667 4.66602 104.667 3.99902 132c-5.33301 13.333 -9.33301 30.833 -12 52.5s-4 51.834 -4 90.501
c0 44.667 1.33301 94.667 4 150c6 60 9 110.333 9 151c0 47.333 -4.33301 95 -13 143c0.666992 7.33301 1 19 1 35v8c0 22 -1.33301 55 -4 99s-4 77 -4 99c0 24.667 0.666992 43 2 55c-0.666992 2.66699 -3.66699 10.667 -9 24s-8 25 -8 35c0 16 8 27.333 24 34
c4 1.33301 7.33301 2 10 2c10 0 21 -4 33 -12s19.667 -16.333 23 -25c6.66699 -16 10 -45 10 -87c0 -23.333 1.33301 -39 4 -47c3.33301 -8.66699 5 -14.334 5 -17.001c0 -4.66699 -3.33301 -14.667 -10 -30c4.66699 -29.333 7.66699 -74.666 9 -135.999z" />
    <glyph glyph-name="braceright" unicode="}" horiz-adv-x="340" 
d="M279 223c-10 -7.33301 -18.8281 -23.4961 -26.4951 -48.4961s-10.834 -47.5 -9.50098 -67.5c3.33301 -11.333 5 -25.666 5 -42.999c0 -4 -1 -18 -3 -42c-1.33301 -13.333 -2 -21.666 -2 -24.999c0 -4.66699 0.333008 -8 1 -10
c-0.666992 -40.667 -4.83398 -77.334 -12.501 -110.001s-17.167 -52 -28.5 -58c-16 -14 -33.667 -25 -53 -33s-37.666 -12 -54.999 -12c-7.33301 0 -12.666 0.333008 -15.999 1c-8.66699 6 -15.334 13.167 -20.001 21.5s-7 16.833 -7 25.5c0 8 2 15.5 6 22.5
s9.66699 12.5 17 16.5c6 4 12 6 18 6c2 0.666992 5.66699 1 11 1h14.5c7 0 13.333 0.333008 19 1s10.5 2.33398 14.5 5.00098c3.33301 7.33301 7.33301 13.666 12 18.999c4.66699 6 8 11.167 10 15.5s3 9.5 3 15.5c0 8 -2.33301 18.667 -7 32
c0 5.33301 0.666992 13.333 2 24c2 10.667 3 21.334 3 32.001c0 12.667 -1.66699 23 -5 31v23c0 4 -0.333008 15.667 -1 35s-2.66699 36.666 -6 51.999c4.66699 31.333 12.334 54.666 23.001 69.999s24 28 40 38c-19.333 8.66699 -38.166 24.667 -56.499 48
s-31.833 47.666 -40.5 72.999c-3.33301 18.667 -5 35 -5 49c-0.666992 8.66699 -1 21.334 -1 38.001c0 35.333 -1.66699 60.333 -5 75c-3.33301 15.333 -5 30.333 -5 45c-0.666992 12 -1.66699 21.5 -3 28.5s-4.33301 14.833 -9 23.5c-6.66699 4 -15.334 6 -26.001 6
c-4.66699 0 -10.834 -0.333008 -18.501 -1s-13.834 -0.666992 -18.501 0c-7.33301 1.33301 -13.333 3.33301 -18 6c-3.33301 15.333 -5 26.666 -5 33.999c0 14 3 25.667 9 35c17.333 4 31.666 6 42.999 6c33.333 0 62.666 -11.667 87.999 -35c10 -5.33301 19.5 -25 28.5 -59
s13.5 -66.667 13.5 -98c0 -9.33301 -0.333008 -16 -1 -20c-0.666992 -2.66699 -1 -7.33398 -1 -14.001l1 -28c2 -29.333 2.66699 -48 2 -56v-17c4 -18.667 12.667 -35.834 26 -51.501s26.666 -25.834 39.999 -30.501l39 -13c6 -3.33301 11.167 -10.333 15.5 -21
s6.5 -21 6.5 -31c0 -10.667 -3 -18 -9 -22h-17z" />
    <glyph glyph-name="asciitilde" unicode="~" horiz-adv-x="533" 
d="M464.5 362c7.66699 -2.66699 15.4951 -8.33594 23.4951 -17.0029c-1.33301 -17.333 -6 -34.666 -14 -51.999s-18.667 -36.666 -32 -57.999c-4.66699 -4.66699 -13.334 -7 -26.001 -7c-10.667 0 -31.334 2.66699 -62.001 8c-27.333 5.33301 -48.666 8.33301 -63.999 9
c-50.667 30.667 -90.334 46 -119.001 46c-25.333 0 -41.666 -11.333 -48.999 -34c-1.33301 -12.667 -2.33301 -25.667 -3 -39c-6.66699 -12 -17 -18 -31 -18c-11.333 0 -21.5 4.16699 -30.5 12.5s-13.167 18.5 -12.5 30.5l2 38c0.666992 5.33301 4.33398 14 11.001 26
c7.33301 10.667 11.333 20.334 12 29.001c32 14 61.667 21 89 21c16.667 0 31.334 -3.33301 44.001 -10c14.667 -0.666992 28.334 -3.33398 41.001 -8.00098s29 -11.667 49 -21c22 -9.33301 39.333 -16.166 52 -20.499s26.334 -6.5 41.001 -6.5c4 0 11.333 0.666992 22 2
c4.66699 4 7.83398 8.83301 9.50098 14.5s2.83398 13.5 3.50098 23.5c0.666992 9.33301 1.66699 16.833 3 22.5s4.33301 10.5 9 14.5c13.333 -1.33301 23.833 -3.33301 31.5 -6z" />
    <glyph glyph-name="exclamdown" unicode="&#xa1;" horiz-adv-x="174" 
d="M50.5 443.5c11 15.667 24.168 23.502 39.501 23.502c8 0 15 -1.66699 21 -5c15.333 0 26.833 -4.5 34.5 -13.5s11.5 -20.167 11.5 -33.5c0 -10.667 -2.33301 -20.334 -7 -29.001s-11.334 -15.334 -20.001 -20.001c-17.333 -8.66699 -35 -13 -53 -13
c-12.667 0 -23 2.66699 -31 8s-12 13.333 -12 24c0 23.333 5.5 42.833 16.5 58.5zM109.001 205.502c2.66699 -19 6.66992 -40.8379 12.0029 -65.5049c1.33301 -6 3.66602 -17.667 6.99902 -35s5.66602 -33.666 6.99902 -48.999c1.33301 -16 2 -29 2 -39
c0 -14 -1.33301 -37.667 -4 -71c-2.66699 -37.333 -4 -67 -4 -89c0 -16.667 0.333008 -29 1 -37c1.33301 -24 4 -49 8 -75s6.33301 -41.333 7 -46c3.33301 -20 6.5 -40.5 9.5 -61.5s4.5 -39.5 4.5 -55.5c0 -29.333 -4.33301 -53.666 -13 -72.999
c0.666992 -17.333 -7.66602 -28.666 -24.999 -33.999s-40.666 -8.66602 -69.999 -9.99902c-8.66699 8 -14.834 24.5 -18.501 49.5s-6.16699 53.833 -7.5 86.5c-0.666992 4.66699 -2.5 9.16699 -5.5 13.5s-4.5 7.5 -4.5 9.5c0 4 2.66699 9 8 15l-1 19
c-0.666992 8.66699 -1 22.334 -1 41.001c0 50 4.66699 115 14 195l4 37c1.33301 17.333 5 39 11 65c3.33301 16 5.66602 28.5 6.99902 37.5s1.66602 20.833 0.999023 35.5c-1.33301 24 -2 45 -2 63c0 66 10 110.333 30 133l20 1c-0.666992 -21.333 0.333008 -41.5 3 -60.5z
" />
    <glyph glyph-name="cent" unicode="&#xa2;" horiz-adv-x="515" 
d="M488 394c0.666992 -3.33301 1.66602 -9.32812 2.99902 -17.9951s2 -16.334 2 -23.001c0 -24 -10.333 -43 -31 -57c-2 2 -7.66699 5.66699 -17 11c-6.66699 4.66699 -11.334 8.5 -14.001 11.5s-4 7.5 -4 13.5c-4.66699 5.33301 -7.33398 11 -8.00098 17
c-0.666992 4.66699 -1 12 -1 22c0 11.333 -0.5 21 -1.5 29s-3.83301 16 -8.5 24c-10 8.66699 -25.333 17 -46 25s-35.667 12 -45 12h-4l6 -184l-18 -176l4 -166c7.33301 -2 14.333 -3 21 -3c22.667 0 40 11.333 52 34c4 6 7.33301 16.333 10 31c0.666992 7.33301 1 18 1 32
c0 13.333 0.5 23.666 1.5 30.999s3.83301 13.333 8.5 18c5.33301 5.33301 11.333 8 18 8c4 0 9.83301 -1.33301 17.5 -4s13.834 -4 18.501 -4c5.33301 -21.333 8 -41 8 -59c0 -24.667 -4 -46.834 -12 -66.501s-18.333 -33.167 -31 -40.5
c-7.33301 -8 -18.333 -15.333 -33 -22c-2 -0.666992 -5.66699 -2.33398 -11 -5.00098s-9.66602 -5.66699 -12.999 -9c-18 -6.66699 -36.333 -10.334 -55 -11.001l1 -45c2 -8.66699 5.33301 -25 10 -49c-8.66699 -12 -17.667 -18 -27 -18c-10.667 0 -21.667 9.33301 -33 28
l-2 30l-3 56c-48 7.33301 -90.833 26.5 -128.5 57.5s-62.167 69.5 -73.5 115.5l-11 33c-5.33301 15.333 -8.83301 28 -10.5 38s-2.5 27.333 -2.5 52c-2.66699 6 -4 17.333 -4 34c0 5.33301 1 24 3 56l1 24l16 35c4 12 7 24 9 36c7.33301 29.333 15 52.333 23 69
s22 31.334 42 44.001l31 25.5c17.333 14.333 34.5 25 51.5 32s35.833 11.5 56.5 13.5c2 55.333 4 87.666 6 96.999c9.33301 14 19 21 29 21c6 0 13 -2 21 -6v-113c34 -4 66.833 -14 98.5 -30s55.834 -35.667 72.501 -59c0 -10.667 2 -26.667 6 -48zM246.999 -34.9951
c-1.33301 30 -2.66504 77.002 -3.99805 141.002c0 14 2 35 6 63c4 29.333 6 51 6 65c-2 50 -3 100.667 -3 152v49c-22 -25.333 -40.833 -56.333 -56.5 -93s-23.5 -68 -23.5 -94c-4.66699 -13.333 -7.83398 -30 -9.50098 -50s-2.33398 -38 -2.00098 -54s0.5 -26.333 0.5 -31
c2 -5.33301 3.66699 -14.333 5 -27c2.66699 -20.667 7.16699 -38.334 13.5 -53.001s18.833 -28.334 37.5 -41.001c8 -9.33301 18 -18.333 30 -27z" />
    <glyph glyph-name="sterling" unicode="&#xa3;" horiz-adv-x="548" 
d="M313 258c8.66699 2 24.998 5.33496 48.998 10.002c12 -8.66699 18 -17.667 18 -27c0 -10.667 -9.33301 -21.667 -28 -33c-34 -2 -80.333 -3.66699 -139 -5l1 -40l-1 -96c-4 -50.667 -8 -86 -12 -106s-13 -43 -27 -69c-0.666992 -1.33301 -2.16699 -3.83301 -4.5 -7.5
s-3.5 -6.83398 -3.5 -9.50098c0 -3.33301 4 -3.66602 12 -0.999023l13 7c12.667 8 25.5 12.5 38.5 13.5s20.833 1.83301 23.5 2.5c10.667 2.66699 25 4 43 4c42.667 0 75.667 -9 99 -27l27 -22c16 -13.333 28.833 -23 38.5 -29s18.834 -8 27.501 -6
c4.66699 -2 10.167 -4 16.5 -6s11 -4 14 -6s4.5 -5 4.5 -9c0 -4.66699 -2.33301 -10.667 -7 -18c-9.33301 -8.66699 -16.666 -14.834 -21.999 -18.501s-11.666 -5.5 -18.999 -5.5c-8 0 -17.333 2.66699 -28 8c-6.66699 3.33301 -22.667 12.333 -48 27
c-22.667 13.333 -37 21.333 -43 24c-12 6 -27.333 9 -46 9c-25.333 0 -51.833 -5.16699 -79.5 -15.5s-61.5 -24.833 -101.5 -43.5c-15.333 -7.33301 -29 -11 -41 -11c-16 0 -27 6 -33 18s-9 23.667 -9 35v42c36 39.333 54 95.333 54 168c0 22 -0.666992 38.667 -2 50l-5 92
c-1.33301 20 -2 32 -2 36l1 10c-18 0.666992 -34.333 2.33398 -49 5.00098c-14 9.33301 -21 19 -21 29c0 6 2 13 6 21h65c0 42 0.666992 77 2 105s4.66602 56.667 9.99902 86c2.66699 8 4.83398 16.667 6.50098 26l3.5 20c4.66699 26 10.334 46.667 17.001 62s19 29 37 41
l21 30c10.667 15.333 24 26.166 40 32.499s37.333 9.5 64 9.5c46 0 89.333 -8.33301 130 -25s71 -38.667 91 -66c0 -10.667 2 -26.667 6 -48c0.666992 -3.33301 1.66699 -9.33301 3 -18s2 -16.334 2 -23.001c0 -24 -10.333 -43 -31 -57c-2 2 -7.66699 5.66699 -17 11
c-6.66699 4.66699 -11.334 8.5 -14.001 11.5s-4 7.5 -4 13.5c-4.66699 5.33301 -7.33398 11 -8.00098 17c-0.666992 4.66699 -1 12 -1 22c0 11.333 -0.5 21 -1.5 29s-3.83301 16 -8.5 24c-10.667 9.33301 -27.167 17.833 -49.5 25.5s-42.833 11.5 -61.5 11.5h-36
c-22 -14.667 -37.333 -39 -46 -73s-16 -80.667 -22 -140l-3 -27l-10 -91v-9h100z" />
    <glyph glyph-name="currency" unicode="&#xa4;" horiz-adv-x="561" 
d="M490.5 24c-20.333 -40 -45.499 -72.6689 -75.499 -98.002l22 -30l22 -21l15 -14c-1.33301 -22.667 -10 -34 -26 -34c-7.33301 0 -17 2.66699 -29 8c-22.667 26.667 -39.334 47 -50.001 61c-30.667 -15.333 -63.667 -23 -99 -23c-17.333 0 -35.666 2 -54.999 6
c-30 6 -58.667 18.667 -86 38l-51 -63c-12.667 -4.66699 -22 -7 -28 -7c-16.667 0 -25.667 11.667 -27 35l36 34l28 37c-20 22 -35.833 47.167 -47.5 75.5s-17.5 58.5 -17.5 90.5c0 6 0.666992 16.333 2 31c6 54.667 17 106.667 33 156s37 89 63 119
c-9.33301 12.667 -18.333 25.834 -27 39.501s-15.334 25.834 -20.001 36.501c-0.666992 14 1.5 24 6.5 30s13.167 9.66699 24.5 11l53 -72l8 -10c12 4.66699 26.833 8.33398 44.5 11.001s35.167 4 52.5 4c18.667 0 33.667 -1.33301 45 -4c12 -2 22.667 -4.16699 32 -6.5
l26 -6.5c13.333 -4 23.666 -6.66699 30.999 -8l14 20l53 73c12 -2 20.333 -6 25 -12s6.66699 -16 6 -30c-9.33301 -20.667 -24.333 -44.667 -45 -72c60 -48.667 90 -115.334 90 -200.001c0 -18 -2.33301 -42.667 -7 -74c-7.33301 -47.333 -21.166 -91 -41.499 -131z
M440.001 204.998c0 34 -3.5 66.333 -10.5 97s-15.167 52 -24.5 64c-20.667 12.667 -43.167 22.667 -67.5 30s-47.833 11 -70.5 11c-30 0 -55 -6.66699 -75 -20c-22.667 -19.333 -39.834 -49.5 -51.501 -90.5s-17.5 -85.5 -17.5 -133.5c0 -38.667 3.5 -75.167 10.5 -109.5
s16.833 -60.833 29.5 -79.5c20.667 -3.33301 37 -6.66602 49 -9.99902l21 -5l20 5c36.667 8 67.834 18.667 93.501 32s47.167 36.666 64.5 69.999c19.333 36.667 29 83 29 139z" />
    <glyph glyph-name="yen" unicode="&#xa5;" horiz-adv-x="616" 
d="M557 647c8 2.66699 14.3252 3.99902 18.9922 3.99902c6.66699 0 12.667 -3 18 -9c0 -16 -1 -29.5 -3 -40.5s-7 -16.5 -15 -16.5h-59c-9.33301 -27.333 -21.666 -70.333 -36.999 -129c-12 -46.667 -23.333 -87.167 -34 -121.5s-22.667 -66.833 -36 -97.5h15
c8.66699 2 25 5.33301 49 10c12 -8.66699 18 -17.667 18 -27c0 -10.667 -9.33301 -21.667 -28 -33l-84 -4c-1.33301 -6.66699 -2 -11.334 -2 -14.001c0 -6 1 -10 3 -12c-4 -8.66699 -5.33301 -21.667 -4 -39h58c8.66699 2 25 5.33301 49 10c12 -8.66699 18 -17.667 18 -27
c0 -10.667 -9.33301 -21.667 -28 -33c-50 -2.66699 -80.333 -4 -91 -4c0.666992 -4.66699 1 -11 1 -19c0 -12.667 -0.666992 -31.667 -2 -57c-1.33301 -22.667 -2 -39.334 -2 -50.001c0 -19.333 1.66699 -35.666 5 -48.999s9.33301 -24.333 18 -33
c2.66699 0 8.16699 -0.166992 16.5 -0.5s16.333 -1.83301 24 -4.5s11.5 -6.66699 11.5 -12l4 -15.5c2 -7.66699 3 -14.834 3 -21.501c0 -11.333 -3.33301 -18 -10 -20c-21.333 -5.33301 -44.333 -8 -69 -8c-14.667 0 -34 1.33301 -58 4c-17.333 1.33301 -29.333 2 -36 2h-96
c-8.66699 8.66699 -13 18 -13 28s4.33301 19.667 13 29c5.33301 4.66699 11.333 7.33398 18 8.00098c4.66699 0.666992 11.667 1 21 1c10 0 17.833 0.5 23.5 1.5s10.5 3.83301 14.5 8.5l1 130c0 36 -0.666992 61.333 -2 76c-59.333 0 -100.666 2 -123.999 6
c-14 9.33301 -21 19 -21 29c0 6 2 13 6 21h131c-4 22 -11 43 -21 63c-50 0 -85 2 -105 6c-14 9.33301 -21 19 -21 29c0 6 2 13 6 21h80c-4.66699 5.33301 -13 13.333 -25 24c-9.33301 28 -24.666 65 -45.999 111l-11 23c-13.333 40 -23.166 73.333 -29.499 100
s-9.5 56.667 -9.5 90c-16 0 -29.5 1 -40.5 3s-16.5 7 -16.5 15c-1.33301 18.667 3 31.834 13 39.501s24 11.5 42 11.5c11.333 0 26.333 -1.33301 45 -4c12 -2 22.667 -3 32 -3c12.667 0 31.667 -0.666992 57 -2c20 -2 39.667 -3 59 -3c8.66699 -8.66699 14 -17.167 16 -25.5
s3 -18.833 3 -31.5c-5.33301 0 -12.666 0.833008 -21.999 2.5s-17 2.5 -23 2.5c-12.667 0 -22.334 -3.33301 -29.001 -10c3.33301 -11.333 5.33301 -25.166 6 -41.499s1.33398 -27.833 2.00098 -34.5c0.666992 -8.66699 2.66699 -22.667 6 -42
c0.666992 -4 1.33398 -8.5 2.00098 -13.5s1 -10.5 1 -16.5c10 -38.667 23.667 -75.5 41 -110.5s35.333 -61.833 54 -80.5c12 6 21.167 14.5 27.5 25.5s13.833 27.5 22.5 49.5c6 17.333 12.333 33.333 19 48c14 29.333 25.167 62.666 33.5 99.999s12.833 71.333 13.5 102
c0 6 -2.16699 10.5 -6.5 13.5s-12.166 6.5 -23.499 10.5c-12 4 -21.833 8.33301 -29.5 13s-13.5 11.334 -17.5 20.001c0 16 21.333 24 64 24c20 0 40 -1 60 -3c22.667 -1.33301 38.334 -2 47.001 -2c5.33301 0 12 1.66699 20 5zM381.492 157.499l-0.5 -0.500977l1 3
c0 -1.33301 -0.166992 -2.16602 -0.5 -2.49902z" />
    <glyph glyph-name="brokenbar" unicode="&#xa6;" horiz-adv-x="161" 
d="M41 415c-2.66699 81.333 -4 139.003 -4 173.003c0 33.333 0.666992 55.666 2 66.999c-0.666992 2.66699 -3.66699 10.667 -9 24s-8 25 -8 35c0 16 8 27.333 24 34c4 1.33301 7.33301 2 10 2c10 0 21 -4 33 -12s19.667 -16.333 23 -25
c4.66699 -10.667 7.5 -24.334 8.5 -41.001s1.5 -43.334 1.5 -80.001c0 -48 1.33301 -102.333 4 -163l2 -20c0 -7.33301 -2.33301 -16.333 -7 -27c4 -30 6.66699 -66.667 8 -110c-14 -23.333 -28 -35 -42 -35s-28 12.333 -42 37c0 26 -1.33301 73 -4 141zM51 -314.997
c-2.66699 81.333 -4 139.003 -4 173.003c0 33.333 0.666992 55.666 2 66.999c-0.666992 2.66699 -3.66699 10.667 -9 24s-8 25 -8 35c0 16 8 27.333 24 34c4 1.33301 7.33301 2 10 2c10 0 21 -4 33 -12s19.667 -16.333 23 -25c4.66699 -10.667 7.5 -24.334 8.5 -41.001
s1.5 -43.334 1.5 -80.001c0 -48 1.33301 -102.333 4 -163l2 -20c0 -7.33301 -2.33301 -16.333 -7 -27c4 -30 6.66699 -66.667 8 -110c-14 -23.333 -28 -35 -42 -35s-28 12.333 -42 37c0 26 -1.33301 73 -4 141z" />
    <glyph glyph-name="section" unicode="&#xa7;" horiz-adv-x="353" 
d="M260 72c6.66699 -8.66699 11.9951 -17.3311 15.9951 -25.998c8.66699 -14 15.167 -26 19.5 -36s8.5 -22.667 12.5 -38c4.66699 -20 7 -37 7 -51c0 -18 -3.33301 -37 -10 -57c-9.33301 -26 -22.333 -46.333 -39 -61l-10 -8c-14.667 -10.667 -33 -20 -55 -28
c-22 -2.66699 -41.667 -4.66699 -59 -6c-12 -1.33301 -27 3.66699 -45 15s-33 22.666 -45 33.999c-19.333 25.333 -29.333 55.666 -30 90.999c2 7.33301 5.83301 13 11.5 17s11.834 6 18.501 6c12 0 19.333 -5 22 -15c-1.33301 -4 -2 -10 -2 -18
c0 -17.333 4.83301 -33.833 14.5 -49.5s22.167 -25.5 37.5 -29.5c6 0.666992 11.833 1.66699 17.5 3s12.5 2.66602 20.5 3.99902c30 18.667 52.667 46.334 68 83.001c3.33301 11.333 5 23.333 5 36c0 12 -3 29.333 -9 52l-9 42c-4.66699 11.333 -9.5 20 -14.5 26
s-11.167 12.5 -18.5 19.5l-18.999 17.5c-22.667 22 -37.667 37.333 -45 46c-4 4 -10.667 9.83301 -20 17.5s-21.333 21.834 -36 42.501c-20 27.333 -29 54 -27 80c-2 8 -3 15.667 -3 23c0 28 14.667 54.333 44 79c26 13.333 51.667 20 77 20c16.667 0 35 -2.66699 55 -8
c-4 6 -14.667 15.667 -32 29c1.33301 -0.666992 -4 3.66602 -16 12.999c-19.333 18 -34.666 33 -45.999 45c-3.33301 3.33301 -9 7.66602 -17 12.999c-10.667 6.66699 -20.667 15 -30 25c-21.333 23.333 -31.333 49.333 -30 78c-3.33301 13.333 -5 25 -5 35
c0 26.667 11 50 33 70c5.33301 0 12.666 2.66699 21.999 8c12.667 7.33301 24.667 12 36 14c10 2 20.333 3 31 3c19.333 0 37.666 -3 54.999 -9s32.333 -14.333 45 -25c0.666992 -0.666992 2.33398 -2.16699 5.00098 -4.5s5.66699 -4.5 9 -6.5c4 -10 6 -18 6 -24
c0 -14 -7.66699 -20.333 -23 -19c-2 1.33301 -7.16699 6.5 -15.5 15.5s-17.833 16.667 -28.5 23s-22.667 9.5 -36 9.5c-10.667 0 -22.667 -2.33301 -36 -7c-4 -7.33301 -7.16699 -17.666 -9.5 -30.999s-3.5 -27 -3.5 -41c0 -24.667 3 -44 9 -58
c6.66699 -14 14.834 -26.333 24.501 -37s22.834 -23.334 39.501 -38.001l35 -33c12.667 -12 24.334 -25 35.001 -39c2 -2 7 -7.33301 15 -16s15 -20.667 21 -36c18.667 -37.333 28 -67.666 28 -90.999c0 -43.333 -13.667 -93 -41 -149
c-2.66699 -6.66699 -12.667 -20 -30 -40zM149.495 180.003c11.667 -12.667 23.167 -23.5 34.5 -32.5l22 -17.5c24 26 36 64.333 36 115c0 32.667 -5.33301 67.667 -16 105c-2 0.666992 -7.33301 2.16699 -16 4.5s-18.667 3.5 -30 3.5c-20 0 -38 -6 -54 -18
c-10.667 -18 -16 -40 -16 -66c0 -16 2.66699 -30.333 8 -43c9.33301 -21.333 19.833 -38.333 31.5 -51z" />
    <glyph glyph-name="dieresis" unicode="&#xa8;" horiz-adv-x="275" 
d="M71 798c-12 0 -23 6.00195 -33 18.002s-14.333 24.333 -13 37c0 7.33301 2.33301 13.333 7 18c6 5.33301 12 8.66602 18 9.99902s16 2 30 2c6 0 13.667 -3.83301 23 -11.5s14 -15.834 14 -24.501c0 -3.33301 -1 -7 -3 -11c0 -12 -11.333 -24 -34 -36
c-4 -1.33301 -7 -2 -9 -2zM204 798.002c-12 0 -23 6.00195 -33 18.002s-14.333 24.333 -13 37c0 7.33301 2.33301 13.333 7 18c6 5.33301 12 8.66602 18 9.99902s16 2 30 2c6 0 13.667 -3.83301 23 -11.5s14 -15.834 14 -24.501c0 -3.33301 -1 -7 -3 -11
c0 -12 -11.333 -24 -34 -36c-4 -1.33301 -7 -2 -9 -2z" />
    <glyph glyph-name="copyright" unicode="&#xa9;" horiz-adv-x="640" 
d="M22 271c0 3.33301 0.166992 5.83496 0.5 7.50195s0.5 3.16699 0.5 4.5c0.666992 16.667 5.16699 40.167 13.5 70.5s19.166 60.666 32.499 90.999s27.666 54.166 42.999 71.499c4 10.667 10.833 20.334 20.5 29.001s16.5 15 20.5 19c31.333 14 65.666 25 102.999 33
s75.333 12 114 12c15.333 0 32 -3.16699 50 -9.5s38.333 -14.5 61 -24.5c28 -14 50 -33.833 66 -59.5s33.333 -61.834 52 -108.501c5.33301 -12.667 9.83301 -31 13.5 -55s5.5 -50 5.5 -78c0 -68.667 -11.167 -132.667 -33.5 -192s-58.166 -99.666 -107.499 -120.999
c-5.33301 -2.66699 -17.666 -8.33398 -36.999 -17.001s-37.333 -15.667 -54 -21s-29.667 -7.66602 -39 -6.99902c-5.33301 -0.666992 -13.666 -1 -24.999 -1c-46 0 -90.5 8 -133.5 24s-75.833 38 -98.5 66c-39.333 49.333 -59 105.666 -59 168.999c-6 54.667 -9 87 -9 97z
M99 186.002c0 -16 2.66699 -30.832 8 -44.499s13.333 -28.834 24 -45.501s30.667 -46 60 -88c6 -8.66699 24.833 -16.667 56.5 -24s59.5 -11 83.5 -11c41.333 0 78.5 18.833 111.5 56.5s60.167 81.167 81.5 130.5c11.333 28.667 17 62.667 17 102
c0 44.667 -5.66699 91 -17 139c-6 11.333 -11 25 -15 41c-5.33301 17.333 -10.333 29.333 -15 36c-6.66699 22 -23.667 39.667 -51 53s-54 20 -80 20c-24.667 0 -48.167 -4.5 -70.5 -13.5s-49.5 -22.833 -81.5 -41.5c-6.66699 -8 -15 -14 -25 -18
c-26 -28 -45.5 -66.667 -58.5 -116s-21.833 -97 -26.5 -143c-1.33301 -8 -2 -19 -2 -33zM393 435.003c3.33301 -2.66699 5.00391 -5.33105 5.00391 -7.99805c0 -12 -0.5 -21.667 -1.5 -29s-3.83301 -11 -8.5 -11c-8.66699 0 -14.334 1.33301 -17.001 4s-4.66699 6.5 -6 11.5
s-3 8.5 -5 10.5c-12 4 -21.333 6 -28 6s-14 -2 -22 -6c-4 -2.66699 -8.33301 -6.83398 -13 -12.501s-8.66699 -10.167 -12 -13.5c0 -1.33301 -0.5 -3.66602 -1.5 -6.99902s-3.16699 -6.33301 -6.5 -9c-3.33301 -14.667 -5.33301 -28.334 -6 -41.001s-1 -31.334 -1 -56.001
v-46c4 -26 9.5 -47.333 16.5 -64s17.167 -29.667 30.5 -39c6 -4 12.333 -6 19 -6s14 2 22 6c3.33301 6 6 13.667 8 23c1.33301 8.66699 3.66602 16.334 6.99902 23.001c6 0 13 -1.5 21 -4.5s13 -4.5 15 -4.5l-3 -55c-5.33301 -12 -14.5 -21.667 -27.5 -29
s-27.167 -11 -42.5 -11c-23.333 0 -43 8 -59 24c-1.33301 2 -7 7 -17 15c-14 11.333 -24.333 22.333 -31 33c-1.33301 8.66699 -2.83301 16.334 -4.5 23.001l-4.5 18c-10.667 40 -16 71.333 -16 94l9 46c5.33301 33.333 10.666 58 15.999 74
c2.66699 2.66699 5.16699 6.66699 7.5 12s5.16602 9.66602 8.49902 12.999c10 13.333 22.5 24.5 37.5 33.5s31.833 13.5 50.5 13.5c6 -2 13 -4 21 -6s14.5 -4.33301 19.5 -7s9.83301 -6.33398 14.5 -11.001c0 -2 1.66699 -4.33301 5 -7z" />
    <glyph glyph-name="guillemotleft" unicode="&#xab;" horiz-adv-x="640" 
d="M371 47c-14.667 14 -26.4961 24.498 -35.4961 31.498s-21.5 14.5 -37.5 22.5c-4.66699 5.33301 -11 10.666 -19 15.999s-13.667 9 -17 11c-18.667 12 -31 21.333 -37 28c-10 12 -20.5 21.667 -31.5 29s-25.167 16 -42.5 26c-2 1.33301 -9.16699 5.5 -21.5 12.5
s-22.833 14.833 -31.5 23.5c-8.66699 0 -19.667 6.66699 -33 20s-20 24.666 -20 33.999c0 10 3.83301 21.5 11.5 34.5s15.834 19.5 24.501 19.5c25.333 13.333 60.666 35.333 105.999 66l49.5 32.5c27 17.667 53.833 33.5 80.5 47.5c8 7.33301 16.667 13 26 17
c10.667 4.66699 20 10.667 28 18c4.66699 0 10 1.33301 16 4s9.66699 4.33398 11 5.00098c10.667 6 19.667 9 27 9s12.166 -2.16699 14.499 -6.5s3.5 -8.16602 3.5 -11.499c0 -5.33301 -5 -11.5 -15 -18.5s-21.5 -14.167 -34.5 -21.5l-26.5 -15
c-26.667 -14.667 -47.334 -27 -62.001 -37s-22.334 -18.333 -23.001 -25c-10.667 -5.33301 -21.834 -12.166 -33.501 -20.499l-21.5 -15.5c-24.667 -17.333 -42 -28.666 -52 -33.999c-6 -6 -13 -11.333 -21 -16c-7.33301 -5.33301 -12.833 -9.83301 -16.5 -13.5
s-5.5 -8.16699 -5.5 -13.5c0 -11.333 11 -25.833 33 -43.5s53.333 -40.5 94 -68.5c3.33301 -2.66699 14.833 -10.667 34.5 -24s33.5 -24 41.5 -32c22 -10.667 40.5 -21.5 55.5 -32.5s26.5 -24.5 34.5 -40.5l-18 -18h-36zM349.004 324.998
c36.667 38 69.667 70.1611 99 96.4941s58 46.5 86 60.5l18 19c0 5.33301 3 11 9 17s9 12 9 18h-18c-11.333 0 -21.333 -1.66699 -30 -5s-19.667 -8.66602 -33 -15.999l-28 -14c-17.333 -7.33301 -43 -25.166 -77 -53.499s-64.5 -56.666 -91.5 -84.999
s-40.167 -47.5 -39.5 -57.5c-0.666992 -19.333 12.5 -39.333 39.5 -60s67.5 -47 121.5 -79c40 -23.333 71.167 -42.666 93.5 -57.999s37.166 -29.666 44.499 -42.999h36c4.66699 4.66699 7 10 7 16s-2 11.833 -6 17.5s-10.333 13.167 -19 22.5
c-13.333 18 -29.5 33.5 -48.5 46.5s-42.5 27.167 -70.5 42.5c-29.333 16 -53.666 30.833 -72.999 44.5s-36 29.834 -50 48.501z" />
    <glyph glyph-name="logicalnot" unicode="&#xac;" horiz-adv-x="539" 
d="M494 245.5l-0.00195312 -24.5029c-4 -6 -8.66699 -16.333 -14 -31c-5.33301 -15.333 -10.666 -26.5 -15.999 -33.5s-13.666 -10.5 -24.999 -10.5c-4.66699 0 -7.66699 2.33301 -9 7s-2.33301 12 -3 22c0 22 -3.66699 37.333 -11 46l4.5 25.5
c1.66699 9.66699 2.16699 19.167 1.5 28.5l-3 -2c-15.333 2.66699 -37.666 4.66699 -66.999 6h-19c-30.667 0 -64.334 -1.66699 -101.001 -5c-41.333 -2.66699 -71.666 -4 -90.999 -4c-24.667 0 -48.334 2 -71.001 6c-11.333 8.66699 -18.333 17.334 -21 26.001
s-4 19.667 -4 33h175c42.667 10.667 95.667 16 159 16h40c6 -4 16.333 -8.66699 31 -14c15.333 -5.33301 26.5 -10.666 33.5 -15.999s10.5 -13.666 10.5 -24.999c0 -2.66699 -1 -4.66699 -3 -6c2 -18.667 3 -33.5 3 -44.5z" />
    <glyph glyph-name="registered" unicode="&#xae;" horiz-adv-x="453" 
d="M22 547c0.666992 18.667 7.16699 45.667 19.5 81s26.166 61.666 41.499 78.999c3.33301 7.33301 8.33301 13.833 15 19.5s11 9.83398 13 12.501c46.667 20.667 96.334 31 149.001 31c19.333 0 45 -7.66699 77 -23c19.333 -10 34.5 -23.667 45.5 -41s22.833 -42 35.5 -74
c8.66699 -18.667 13 -49 13 -91c0 -48 -7.5 -92.5 -22.5 -133.5s-39.5 -68.5 -73.5 -82.5c-6 -2 -15.5 -6 -28.5 -12s-25 -10.667 -36 -14s-19.5 -4.66602 -25.5 -3.99902l-18 -1c-31.333 0 -61.5 5.66699 -90.5 17s-51.833 26.333 -68.5 45c-26.667 34 -40 72.333 -40 115
c-4 37.333 -6 62.666 -6 75.999zM77 480c0 -15.333 3.6709 -29.501 11.0039 -42.501s24.666 -38.5 51.999 -76.5c4 -6 16.5 -11.5 37.5 -16.5s39.5 -7.5 55.5 -7.5c28 0 53.167 12.667 75.5 38s40.5 54.666 54.5 87.999c8 21.333 12 45 12 71c0 30 -4 60.333 -12 91
c-4 8.66699 -7 17.334 -9 26.001c-1.33301 5.33301 -2.83301 10.333 -4.5 15s-3.83398 8.33398 -6.50098 11.001c-4.66699 14.667 -15.834 26.667 -33.501 36s-34.834 14 -51.501 14c-17.333 0 -33.333 -3 -48 -9s-33.667 -15.333 -57 -28
c-6.66699 -6.66699 -12.667 -11 -18 -13c-17.333 -18.667 -30.5 -45.167 -39.5 -79.5s-14.5 -65.833 -16.5 -94.5c-1.33301 -12 -2 -19.667 -2 -23zM288.004 513.499c2.66699 -15 4.66602 -33.498 5.99902 -55.498c0 -14 1 -27 3 -39c8 0 12 -1.66699 12 -5
c0 -9.33301 -7.33301 -14 -22 -14c-1.33301 0 -9 1 -23 3c-2.66699 2.66699 -4 5.66699 -4 9c0 2.66699 0.666992 7 2 13s1.66602 12.667 0.999023 20c0 5.33301 -0.333008 9.66602 -1 12.999c-1.33301 10.667 -2 18.334 -2 23.001c0 10 -0.5 18.167 -1.5 24.5
s-3.5 12.5 -7.5 18.5c-7.33301 9.33301 -12 15 -14 17s-4.66699 5 -8 9c-3.33301 0 -6.16602 -0.333008 -8.49902 -1s-3.5 -2.33398 -3.5 -5.00098c-2 -8.66699 -3 -18.667 -3 -30c0 -8 0.666992 -18.667 2 -32l1 -24c0 -16 1.66699 -27.667 5 -35
c0 -2.66699 1.83301 -4.83398 5.5 -6.50098s5.5 -3.16699 5.5 -4.5v-5c0 -2 -0.333008 -3.33301 -1 -4s-1.66699 -1 -3 -1l-26 1c-10 0 -17.333 -1 -22 -3c-6.66699 0 -11.5 0.666992 -14.5 2s-5.83301 4.66602 -8.5 9.99902c4 2.66699 10 4 18 4v100
c0 3.33301 0.333008 6.83301 1 10.5s1 7.5 1 11.5c0 5.33301 -0.666992 9.33301 -2 12c0 2.66699 0.166992 5 0.5 7s0.5 4.66699 0.5 8c0.666992 4 1 10 1 18c0 10.667 -0.333008 18.667 -1 24l-1 29c-6 0 -11 0.666992 -15 2s-6 3.33301 -6 6c0 8 1.5 13 4.5 15
s9.5 3 19.5 3c2.66699 0 5.16699 0.666992 7.5 2s4.5 2 6.5 2c12 2 24.333 3 37 3c31.333 0 49.666 -9.66699 54.999 -29c0.666992 -3.33301 1.83398 -8.83301 3.50098 -16.5s2.5 -14.5 2.5 -20.5c0 -3.33301 -0.666992 -7.66602 -2 -12.999
c-1.33301 -6 -6.66602 -13.667 -15.999 -23l-7 -5c0 -2 1.16699 -4 3.5 -6s3.5 -4 3.5 -6c7.33301 -9.33301 12.333 -21.5 15 -36.5zM216.003 575.001c0 -1.33301 1 -2 3 -2c5.33301 0 13.666 3.33301 24.999 10c0 3.33301 1.66699 10 5 20
c0.666992 5.33301 0.833984 9.33301 0.500977 12s-0.5 5.66699 -0.5 9c0 4.66699 -3.66699 10 -11 16l-26 -1c0 -8 1.33301 -29.333 4 -64z" />
    <glyph glyph-name="macron" unicode="&#xaf;" horiz-adv-x="298" 
d="M204 811c-37.333 -2.66699 -64.999 -4 -82.999 -4c-26.667 0 -51.667 2 -75 6c-14 9.33301 -21 19 -21 29c0 6 2 13 6 21h175c8.66699 2 25 5.33301 49 10c12 -8.66699 18 -17.667 18 -27c0 -10.667 -9.33301 -21.667 -28 -33c-18.667 -1.33301 -32.334 -2 -41.001 -2z
" />
    <glyph glyph-name="degree" unicode="&#xb0;" horiz-adv-x="324" 
d="M162 488c-24 0 -47.167 8.83203 -69.5 26.499s-40 39.667 -53 66s-18.833 51.5 -17.5 75.5c1.33301 22.667 8.33301 40.334 21 53.001c19.333 17.333 38.333 27.833 57 31.5s48.667 5.5 90 5.5c10.667 0 25.167 -5.33301 43.5 -16s34.333 -24.334 48 -41.001
s20.5 -34.334 20.5 -53.001c0 -11.333 -3 -22.666 -9 -33.999c0 -17.333 -8.66699 -35.666 -26 -54.999s-43 -37.333 -77 -54c-10 -3.33301 -19.333 -5 -28 -5zM234 615.999c4 6 6 12.334 6 19.001c0 10 -3.83301 19.667 -11.5 29s-16.5 16.833 -26.5 22.5s-18 8.5 -24 8.5
c-23.333 0 -40.166 -1 -50.499 -3s-20.833 -7.66699 -31.5 -17c-6.66699 -8 -10.667 -18 -12 -30v-3c0 -13.333 3.83301 -27 11.5 -41s17.5 -25.667 29.5 -35s24.333 -14 37 -14c5.33301 0 10.666 1 15.999 3c37.333 19.333 56 39.666 56 60.999z" />
    <glyph glyph-name="plusminus" unicode="&#xb1;" horiz-adv-x="494" 
d="M272 451c0.666992 -6.66699 1.00195 -16.335 1.00195 -29.002c0 -25.333 2.33301 -45 7 -59c2.66699 -2.66699 7.33398 -4 14.001 -4c4.66699 0 9.5 0.333008 14.5 1s9.5 1.33398 13.5 2.00098c20 4 36 5.66699 48 5c9.33301 -1.33301 16.333 -2.66602 21 -3.99902
c0 -2.66699 2.66699 -9.33398 8 -20.001c6.66699 -10.667 10 -19 10 -25c0 -4 -1.33301 -7.33301 -4 -10c-5.33301 -2.66699 -12 -4 -20 -4c-7.33301 0 -19 1.33301 -35 4c-3.33301 0.666992 -10 1.66699 -20 3s-19.333 1.66602 -28 0.999023
c-10.667 -1.33301 -18 -2.66602 -22 -3.99902c-2 -8.66699 -3 -16.667 -3 -24c-0.666992 -5.33301 -1 -12.333 -1 -21l1 -38c0 -12 -1.66699 -22.833 -5 -32.5s-9.66602 -19.167 -18.999 -28.5c-18.667 0 -33.334 1.5 -44.001 4.5s-19 10.833 -25 23.5
c7.33301 22 11 39.667 11 53c0 14 -3.66699 35 -11 63h-14c-9.33301 0.666992 -19.833 0.833984 -31.5 0.500977s-19.834 -0.5 -24.501 -0.5c-2.66699 0 -8.33398 1 -17.001 3s-15.667 3 -21 3c-7.33301 0 -13 -2 -17 -6c0 4 -2.33301 9.16699 -7 15.5s-7 14.833 -7 25.5
c18 6 38 9.83301 60 11.5s48.333 2.5 79 2.5c4 8 6 17 6 27c0 7.33301 -1 15 -3 23c-2 16 -3 24.667 -3 26c0 6 -0.333008 10.167 -1 12.5s-1.33398 3.83301 -2.00098 4.5c0 3.33301 -0.666992 7.5 -2 12.5s-2 8.83301 -2 11.5c0 5.33301 2.33301 10.333 7 15
c0 2.66699 3 4.66699 9 6s13 2 21 2c13.333 0 25.333 -1.83301 36 -5.5s16 -9.16699 16 -16.5c2.66699 -6.66699 4.66699 -16.667 6 -30zM313.002 62.999l-16.001 -0.00195312c-24 0 -49.333 -1.66699 -76 -5c-28 -2.66699 -49.333 -4 -64 -4c-18 0 -38.667 2 -62 6
c-11.333 8.66699 -18.333 16.834 -21 24.501s-4 17.834 -4 30.501h125c42.667 10.667 90 16 142 16h37c4.66699 -4 10.834 -7.16699 18.501 -9.5s12.5 -3.83301 14.5 -4.5c14 -4 24.5 -8.33301 31.5 -13s10.5 -12.667 10.5 -24c0 -4.66699 -2.33301 -7.66699 -7 -9
s-12 -2.33301 -22 -3c-22 0 -37.333 -3.66699 -46 -11c-14.667 2.66699 -35 4.66699 -61 6z" />
    <glyph glyph-name="acute" unicode="&#xb4;" horiz-adv-x="186" 
d="M161 927c0 -5.33301 -4.00293 -12.6621 -12.0029 -21.9951c-8 -10.667 -12 -18.667 -12 -24c-10 -6 -18 -13 -24 -21s-13 -19 -21 -33c-8 -14.667 -15.167 -25.834 -21.5 -33.501s-15.166 -12.834 -26.499 -15.501c-8 8.66699 -13 15.667 -15 21
s-3.33301 13.666 -4 24.999c6 22.667 13.833 40.667 23.5 54s25.5 26.666 47.5 39.999c2 2 4.16699 5.5 6.5 10.5s4.33301 8.16699 6 9.5s3.83398 0.666016 6.50098 -2.00098c4.66699 4.66699 12.334 7 23.001 7c8.66699 0 14.667 -1.66699 18 -5s5 -7 5 -11z" />
    <glyph glyph-name="mu" unicode="&#xb5;" horiz-adv-x="833" 
d="M475 286.5c5.33301 25 9.83301 48.334 13.5 70.001s6.16699 35.834 7.5 42.501c3.33301 17.333 9.33301 41.666 18 72.999l19 75l9 33c5.33301 20.667 9.33301 37 12 49s4 24.667 4 38c0 20 8.66699 38.5 26 55.5s36.333 25.5 57 25.5h123c6 0 10.5 -1.5 13.5 -4.5
s6.83301 -7.83301 11.5 -14.5c6.66699 -10 12.334 -17.333 17.001 -22c-9.33301 -9.33301 -17.833 -16.5 -25.5 -21.5s-16.5 -7.5 -26.5 -7.5s-20.333 2.66699 -31 8c-6 -17.333 -9 -36 -9 -56c0 -10.667 1.33301 -27.334 4 -50.001c3.33301 -20 5 -39.333 5 -58v-83v-103
v-165l-1 -59c-0.666992 -9.33301 -1 -23 -1 -41c0 -19.333 0.666992 -34 2 -44c2.66699 -24.667 4 -50.667 4 -78c0 -17.333 -0.666992 -40 -2 -68s-2 -48 -2 -60c22 0 41.667 -5.66699 59 -17s26 -23 26 -35c0 -9.33301 -5 -16.333 -15 -21c-8.66699 0 -16 1 -22 3
c-1.33301 0 -4 0.5 -8 1.5s-8.66699 1.5 -14 1.5c-2.66699 0 -10 -1 -22 -3c-8 -2.66699 -15.667 -4 -23 -4l-36 7c4 2 2 2.33301 -6 1l-28 -4.5c-10.667 -1.66699 -22.334 -2.5 -35.001 -2.5c0 4.66699 -0.833008 8 -2.5 10s-5 4.33301 -10 7s-7.5 7.33398 -7.5 14.001
c0 5.33301 2.16699 9.5 6.5 12.5s11.5 6.5 21.5 10.5c17.333 7.33301 28.666 13.666 33.999 18.999c-9.33301 62.667 -14 138.667 -14 228c0 28 0.666992 73.333 2 136c1.33301 45.333 2 79.666 2 102.999c0 8 1.33301 26.667 4 56c4 33.333 6 58 6 74v83
c0 7.33301 -0.166992 12.833 -0.5 16.5s-2.83301 11.167 -7.5 22.5l1 19c0 7.33301 -4.66699 15.666 -14 24.999c0 -0.666992 0.333008 -2.5 1 -5.5s1 -6.83301 1 -11.5c0 -10 -1.66699 -18.333 -5 -25c-6.66699 -16.667 -13.5 -38.5 -20.5 -65.5s-13.5 -54.5 -19.5 -82.5
c-8 -34.667 -14.333 -60.667 -19 -78l-8.5 -28.5c-4.33301 -14.333 -7.5 -25.833 -9.5 -34.5l-14 -75c-11.333 -56.667 -18.666 -92.667 -21.999 -108c-2 -8.66699 -4.33301 -25 -7 -49c-2.66699 -25.333 -5.5 -44.5 -8.5 -57.5s-7.5 -19.5 -13.5 -19.5
c-8.66699 0 -19 3.66699 -31 11c-13.333 6.66699 -23 10 -29 10c0 14.667 -1.16699 27.834 -3.5 39.501s-6.16602 25.834 -11.499 42.501l-6 21l-17 62l-15 53.5c-6.66699 24.333 -13 46.166 -19 65.499c-15.333 49.333 -29.333 90.666 -42 123.999
c-2 5.33301 -4.33301 12.5 -7 21.5s-6 17.167 -10 24.5s-9 14 -15 20v-144c0 -16.667 -3 -43.667 -9 -81c-7.33301 -50 -11 -84.667 -11 -104v-104v-185c13.333 0 23.5 -1.16699 30.5 -3.5s10.5 -8.16602 10.5 -17.499c0 -16.667 -9.33301 -28.167 -28 -34.5
s-43 -9.5 -73 -9.5c-14.667 0 -33.334 0.666992 -56.001 2l-28 1c-6 0 -10.5 1.5 -13.5 4.5s-6.83301 7.83301 -11.5 14.5c-6.66699 10 -12.334 17.333 -17.001 22c4.66699 4.66699 8.83398 9.66699 12.501 15s7.16699 9.16602 10.5 11.499s7.33301 3.5 12 3.5
c6.66699 0 16 -3 28 -9v206v268v41v206v144c-7.33301 0 -13.833 -1.16699 -19.5 -3.5s-11.5 -3.5 -17.5 -3.5c-4 0 -8.16699 0.5 -12.5 1.5s-7.5 1.5 -9.5 1.5c-9.33301 2.66699 -17.333 4 -24 4c-10.667 10.667 -16.834 18.5 -18.501 23.5s-2.5 17.833 -2.5 38.5
c18 6 39 9 63 9c48.667 0 103.334 -9.66699 164.001 -29c10.667 -22.667 20.167 -42 28.5 -58l20.5 -40c2 -2.66699 6.33301 -11 13 -25v-21c14.667 -29.333 28.167 -61.166 40.5 -95.499s25.833 -75.166 40.5 -122.499l18 -56c5.33301 -16 10.5 -29.5 15.5 -40.5
s10.5 -21.833 16.5 -32.5l13 -25c8 24.667 14.667 49.5 20 74.5z" />
    <glyph glyph-name="paragraph" unicode="&#xb6;" horiz-adv-x="550" 
d="M514.5 592.5c9 -13 13.4971 -27.165 13.4971 -42.498c0 -12 -2.66699 -23.333 -8 -34c0 -10 -0.833008 -15.833 -2.5 -17.5s-8.16699 -2.5 -19.5 -2.5s-18.666 2.66699 -21.999 8s-5.66602 13.333 -6.99902 24c-2.66699 15.333 -6.66699 25.666 -12 30.999h-53
c-8 -37.333 -12 -82.333 -12 -135c0 -34 1.33301 -69.667 4 -107s4.33398 -59.666 5.00098 -66.999l3 -32c1.33301 -15.333 2 -37 2 -65l-1 -61c-0.666992 -6 -1 -13.667 -1 -23c0 -26.667 1.66699 -56 5 -88c2.66699 -37.333 4 -64.666 4 -81.999
c0 -36.667 -5.16699 -67 -15.5 -91s-29.166 -41.333 -56.499 -52c-18 -8.66699 -35.667 -13 -53 -13l-24 1c-13.333 1.33301 -24 2 -32 2c-8.66699 0 -17.167 2.83301 -25.5 8.5s-16.333 12.167 -24 19.5s-12.834 12 -15.501 14c-13.333 13.333 -24 31.5 -32 54.5
s-12 46.833 -12 71.5c0 35.333 8 64.666 24 87.999c4 0 11.333 1.33301 22 4c3.33301 0.666992 8.66602 1.66699 15.999 3s14 2 20 2c12 0 21 -3 27 -9c-10 -18.667 -17.667 -35.5 -23 -50.5s-8 -31.167 -8 -48.5c0 -15.333 3 -32 9 -50c0 -12 5.66699 -22.167 17 -30.5
s27.333 -12.5 48 -12.5l20 21c0 38.667 3.66699 82 11 130c6.66699 50.667 10 94 10 130c0 17.333 -2 44.666 -6 81.999c-2.66699 17.333 -4.33398 32.666 -5.00098 45.999c-1.33301 14.667 -2 36 -2 64c0 4.66699 -0.666992 13 -2 25c-2.66699 16 -3.66699 31 -3 45
c0.666992 8 0.333984 22.667 -0.999023 44c-1.33301 16 -2 27 -2 33c0 8 -1.66699 17.667 -5 29c-3.33301 16.667 -5 28.667 -5 36c0 5.33301 0.5 10.666 1.5 15.999s1.5 10.666 1.5 15.999c0 12.667 -4.33301 23.334 -13 32.001c-5.33301 -4.66699 -26 -8 -62 -10v-72v-247
c0 -14 -1.16699 -25.833 -3.5 -35.5s-7.83301 -19.167 -16.5 -28.5l-36 -1c-19.333 0 -36.833 2.33301 -52.5 7s-30.167 13.667 -43.5 27l-10.5 24c-3 6.66699 -4.83301 11 -5.5 13c-1.33301 6.66699 -1.83301 11.5 -1.5 14.5s0.5 4.83301 0.5 5.5
c-6 12.667 -10.167 22.667 -12.5 30s-3.5 15 -3.5 23l2 28v12c0 10 -1.33301 20.333 -4 31c-2.66699 9.33301 -4 17 -4 23c0 6.66699 1 14.334 3 23.001v77c0 20 5 39.167 15 57.5s23.5 33.333 40.5 45s35.833 17.5 56.5 17.5c22 0 59 1.33301 111 4
c46.667 3.33301 88.667 5 126 5c44.667 0 79.334 -3 104.001 -9c15.333 -7.33301 27.5 -17.5 36.5 -30.5z" />
    <glyph glyph-name="periodcentered" unicode="&#xb7;" horiz-adv-x="141" 
d="M70 205c-14 0 -26.999 7.50098 -38.999 22.501s-17.333 29.833 -16 44.5c0 8.66699 3 16 9 22c6.66699 6.66699 13.667 10.667 21 12s19.333 2 36 2c7.33301 0 16.666 -4.83301 27.999 -14.5s17 -19.834 17 -30.501c0 -4 -1 -8 -3 -12c0 -14 -14 -28.667 -42 -44
c-5.33301 -1.33301 -9 -2 -11 -2z" />
    <glyph glyph-name="cedilla" unicode="&#xb8;" horiz-adv-x="262" 
d="M78.5 -432.5c9 -4.33301 19.832 -6.49902 32.499 -6.49902c8.66699 0 18 1 28 3c13.333 5.33301 22.333 12.5 27 21.5s7 20.167 7 33.5c0 10.667 -0.333008 18.667 -1 24c-4 10.667 -12.333 16 -25 16c-10 0 -20.667 -2.66699 -32 -8c-4 -2 -7.66699 -3 -11 -3
c-6 0 -10.167 3.5 -12.5 10.5s-3.16602 15.167 -2.49902 24.5l12 87c2 7.33301 8.66699 11 20 11c7.33301 0 13.333 -1.83301 18 -5.5s6.33398 -8.5 5.00098 -14.5l-7 -57c16 0 28.167 -0.333008 36.5 -1s16.833 -3.83398 25.5 -9.50098s15.334 -14.5 20.001 -26.5
c12 -14 18 -28.667 18 -44c0 -21.333 -8.83301 -42.5 -26.5 -63.5s-37.167 -36.167 -58.5 -45.5c-6.66699 -0.666992 -17 -1 -31 -1c-44.667 0 -75.334 9.33301 -92.001 28c-2.66699 5.33301 -4 10.666 -4 15.999c0 9.33301 3.16699 17.333 9.5 24s13.166 9.66699 20.499 9
c4 -1.33301 7 -3 9 -5c0.666992 -7.33301 5.5 -13.166 14.5 -17.499z" />
    <glyph glyph-name="guillemotright" unicode="&#xbb;" horiz-adv-x="640" 
d="M215 65c8 16 19.5039 29.502 34.5039 40.502s33.5 21.833 55.5 32.5c8 8 21.833 18.667 41.5 32s31.167 21.333 34.5 24c40.667 28 72 50.833 94 68.5s33 32.167 33 43.5c0 5.33301 -1.83301 9.83301 -5.5 13.5s-9.16699 8.16699 -16.5 13.5c-8 4.66699 -15 10 -21 16
c-10 5.33301 -27.333 16.666 -52 33.999l-21.5 15.5c-11.667 8.33301 -22.834 15.166 -33.501 20.499c-0.666992 6.66699 -8.33398 15 -23.001 25s-35.334 22.333 -62.001 37l-30 17c-15.333 8.66699 -26.833 16.167 -34.5 22.5s-11.5 11.5 -11.5 15.5
c0 3.33301 1.16699 7.16602 3.5 11.499s7.16602 6.5 14.499 6.5s16.333 -3 27 -9c1.33301 -0.666992 5 -2.33398 11 -5.00098s11.333 -4 16 -4c8 -7.33301 17.333 -13.333 28 -18c9.33301 -4 18 -9.66699 26 -17c26.667 -14 53.5 -29.833 80.5 -47.5l49.5 -32.5
c45.333 -30.667 80.666 -52.667 105.999 -66c8.66699 0 16.834 -6.5 24.501 -19.5s11.5 -24.5 11.5 -34.5c0 -9.33301 -6.66699 -20.666 -20 -33.999s-24.333 -20 -33 -20c-8.66699 -8.66699 -19.167 -16.5 -31.5 -23.5s-19.5 -11.167 -21.5 -12.5
c-17.333 -10 -31.5 -18.667 -42.5 -26s-21.5 -17 -31.5 -29c-6 -6.66699 -18.333 -16 -37 -28c-3.33301 -2 -9 -5.66699 -17 -11s-14.333 -10.666 -19 -15.999c-16 -8 -28.5 -15.5 -37.5 -22.5s-20.833 -17.5 -35.5 -31.5h-36zM262.004 254.502
c-19.333 -13.667 -43.666 -28.4941 -72.999 -44.4941c-28 -15.333 -51.5 -29.5 -70.5 -42.5s-35.167 -28.5 -48.5 -46.5c-8.66699 -9.33301 -15 -16.833 -19 -22.5s-6 -11.5 -6 -17.5s2.33301 -11.333 7 -16h36c7.33301 13.333 22.166 27.666 44.499 42.999
s53.5 34.666 93.5 57.999c54 32 94.5 58.333 121.5 79s40.167 40.667 39.5 60c0.666992 10 -12.5 29.167 -39.5 57.5s-57.5 56.666 -91.5 84.999s-59.667 46.166 -77 53.499l-28 14c-13.333 7.33301 -24.333 12.666 -33 15.999s-18.667 5 -30 5h-18c0 -6 3 -12 9 -18
s9 -11.667 9 -17l18 -19c28 -14 56.667 -34.167 86 -60.5s62.333 -58.5 99 -96.5l21 -22c-14 -18.667 -30.667 -34.834 -50 -48.501z" />
    <glyph glyph-name="questiondown" unicode="&#xbf;" horiz-adv-x="428" 
d="M230 403c8.66699 0 17.998 -1.83008 27.998 -5.49707s18 -7.83398 24 -12.501c16.667 -12.667 25 -27.334 25 -44.001c0 -15.333 -6.66699 -30.333 -20 -45s-28 -26.334 -44 -35.001c-10.667 0 -20.667 2.66699 -30 8s-18.666 15.333 -27.999 30c-6 8.66699 -9 18 -9 28
c0 7.33301 1.33301 14.333 4 21s7.33398 15.667 14.001 27l11 19c6 6 14.333 9 25 9zM261.498 178.503c5 -5 7.50098 -12.1631 7.50098 -21.4961c0 -8.66699 -2.33301 -18 -7 -28c0 -16.667 -5.66699 -37.167 -17 -61.5s-26.666 -53.166 -45.999 -86.499
c-18 -33.333 -28.667 -53.333 -32 -60l-57 -114c-6 -25.333 -10.667 -47.333 -14 -66s-5 -37 -5 -55c0 -45.333 12.667 -80.666 38 -105.999c8 -15.333 23.167 -29.5 45.5 -42.5s43.5 -19.5 63.5 -19.5c8 0 16 1.66699 24 5c26 8.66699 48.833 26.667 68.5 54
s29.5 56.666 29.5 87.999c0 9.33301 -1 19 -3 29c-6 10 -14.167 16.5 -24.5 19.5s-24.166 5.16699 -41.499 6.5c-12.667 0.666992 -23.167 2 -31.5 4s-15.166 5.66699 -20.499 11c-12.667 8 -20.334 17.667 -23.001 29v5c0 11.333 5.83301 21.166 17.5 29.499
s25.5 12.5 41.5 12.5c9.33301 0 17.666 -1.33301 24.999 -4c18 0 32.667 -4.5 44 -13.5s21.666 -23.5 30.999 -43.5c12.667 -12.667 22.167 -29 28.5 -49s9.5 -41.333 9.5 -64s-3.33301 -44.334 -10 -65.001s-16 -37 -28 -49c-6 -12 -13.667 -20.833 -23 -26.5
s-22.333 -11.5 -39 -17.5c-11.333 -3.33301 -22.333 -7.33301 -33 -12c-52.667 0 -95.667 7.66699 -129 23s-66 38.666 -98 69.999l-13 39c-8.66699 23.333 -15 43.166 -19 59.499s-6 34.166 -6 53.499c0 26 3.5 51.333 10.5 76s17.167 54.667 30.5 90l16 43
c24.667 36 44.5 67 59.5 93s26.833 51.667 35.5 77c10.667 10.667 19.334 27.334 26.001 50.001c5.33301 15.333 11.166 26.666 17.499 33.999s17.166 11 32.499 11c7.33301 0 13.5 -2.5 18.5 -7.5z" />
    <glyph glyph-name="Agrave" unicode="&#xc0;" 
d="M403.5 54c-2.33301 59.333 -8.50195 112.339 -18.502 159.006c-13.333 0 -35 3 -65 9c-42.667 8 -76.334 12 -101.001 12c-10 -9.33301 -16.167 -22.333 -18.5 -39s-3.5 -39.667 -3.5 -69c-10 -37.333 -16.333 -78 -19 -122s-4 -101.667 -4 -173
c6 -4.66699 11.667 -7.66699 17 -9c4 -0.666992 9.66699 -1 17 -1c6.66699 0 12.334 -0.5 17.001 -1.5s9 -3.5 13 -7.5c0 -10.667 -0.333008 -19.834 -1 -27.501s-1.33398 -12.5 -2.00098 -14.5c-17.333 -12 -35 -18.333 -53 -19c-3.33301 -0.666992 -8.66602 -1 -15.999 -1
c-12.667 0 -25 1 -37 3c-16 1.33301 -28 2 -36 2c-15.333 0 -29.666 -2.33301 -42.999 -7l-44 42c24.667 27.333 45.667 41 63 41c10 0 16.167 3.5 18.5 10.5s3.5 17.833 3.5 32.5c8 52.667 19.667 139.334 35 260.001c12.667 101.333 21.667 169.666 27 204.999
c0 29.333 4.16699 58.666 12.5 87.999s18.833 56 31.5 80c10 38.667 23.333 74 40 106s38 67 64 105c1.33301 1.33301 4.83301 4.33301 10.5 9s12.834 9.16699 21.501 13.5s17.667 6.5 27 6.5s17.666 -2.33301 24.999 -7c14 -6.66699 27.833 -19 41.5 -37
s24.834 -37.333 33.501 -58s13 -38.334 13 -53.001c16 -32.667 26.667 -70.334 32 -113.001c5.33301 -46.667 14.666 -146.334 27.999 -299.001c6.66699 -84.667 13.667 -165.334 21 -242.001v-128c0 -3.33301 1.33301 -7.16602 4 -11.499
s4.33398 -7.16602 5.00098 -8.49902c7.33301 -8.66699 11 -16 11 -22c0 -8 -6.66699 -15 -20 -21l-26 6c-20 0 -40 -1 -60 -3c-6.66699 -0.666992 -16 -1.33398 -28 -2.00098s-23 -1 -33 -1c-4 -0.666992 -10 -1.5 -18 -2.5s-14.333 -1.5 -19 -1.5c-12.667 0 -19 4 -19 12
c0 7.33301 3.16699 17.166 9.5 29.499s14 23.333 23 33s16.833 14.5 23.5 14.5c0 88.667 -1.16699 162.667 -3.5 222zM268.498 512.006c-11 -36.667 -21.166 -73.332 -30.499 -109.999c0 -8 -3 -24 -9 -48c-6.66699 -29.333 -10 -49 -10 -59
c27.333 -8 54.166 -13.167 80.499 -15.5s54.833 -3.5 85.5 -3.5v126c0 30 -3.83301 64.833 -11.5 104.5s-17.167 75.5 -28.5 107.5c0 3.33301 -1.33301 7.66602 -4 12.999s-8.66699 8 -18 8l-22 -21c-10.667 -31.333 -21.5 -65.333 -32.5 -102zM274.999 955.008
c6.66699 0 12.3311 -2.33496 16.998 -7.00195c2 2 3.66699 3 5 3c2.66699 0 5.33398 -3 8.00098 -9s4.66699 -10 6 -12c24 -14 42.167 -28.167 54.5 -42.5s21.166 -31.5 26.499 -51.5c-0.666992 -11.333 -2 -19.666 -4 -24.999s-7 -12.333 -15 -21
c-11.333 2.66699 -20.5 7.83398 -27.5 15.501s-15.5 19.167 -25.5 34.5c-7.33301 12.667 -14.666 23.167 -21.999 31.5s-16 15.5 -26 21.5c-7.33301 7.33301 -12.666 13.833 -15.999 19.5s-5 11.167 -5 16.5c0 7.33301 3.33301 14.333 10 21c3.33301 3.33301 8 5 14 5z" />
    </font>
</defs>
</svg>
