<svg xmlns="http://www.w3.org/2000/svg" xmlns:xlink="http://www.w3.org/1999/xlink" version="1.1" width="977.7" height="977.7" style="" xml:space="preserve"><rect id="backgroundrect" width="100%" height="100%" x="0" y="0" fill="none" stroke="none"/>
















<g class="currentLayer" style=""><title>Layer 1</title><g id="svg_1" class="selected" fill-opacity="1" fill="#767778">
	<path d="M775.2029238462449,930.6 v-35.301 c0,-23.398 -18,-42.898 -41.3,-44.799 c-17.9,-1.5 -35.8,-3.1 -53.7,-5 c-34.5,-3.6 -72.5,-7.4 -72.5,-50.301 L607.5029238462448,131.7 c136,-2 210.5,76.7 250,193.2 c6.3,18.7 23.8,31.3 43.5,31.3 h36.2 c24.9,0 45,-20.1 45,-45 V47.1 c0,-24.9 -20.1,-45 -45,-45 H493.4029238462448 h-0.2 H49.50292384624481 c-24.9,0 -45,20.1 -45,45 v264.1 c0,24.9 20.1,45 45,45 h36.2 c19.7,0 37.2,-12.6 43.5,-31.3 c39.4,-116.5 114,-195.2 250,-193.2 l-0.30000000000000016,663.5 c0,42.9 -38,46.701 -72.5,50.301 c-17.9,1.9 -35.8,3.5 -53.7,5 c-23.3,1.9 -41.3,21.4 -41.3,44.799 V930.6 c0,24.9 20.1,45 45,45 h236.8 h0.30000000000000016 h236.7 C755.0029238462448,975.6 775.2029238462449,955.401 775.2029238462449,930.6 z" id="svg_2" fill="#767778"/>
</g><g id="svg_3">
</g><g id="svg_4">
</g><g id="svg_5">
</g><g id="svg_6">
</g><g id="svg_7">
</g><g id="svg_8">
</g><g id="svg_9">
</g><g id="svg_10">
</g><g id="svg_11">
</g><g id="svg_12">
</g><g id="svg_13">
</g><g id="svg_14">
</g><g id="svg_15">
</g><g id="svg_16">
</g><g id="svg_17">
</g></g></svg>